<?xml version="1.0" encoding="utf-8"?>
<!-- Generator: Adobe Illustrator 27.4.0, SVG Export Plug-In . SVG Version: 6.00 Build 0)  -->
<svg version="1.1" id="Calque_1" xmlns="http://www.w3.org/2000/svg" xmlns:xlink="http://www.w3.org/1999/xlink" x="0px" y="0px"
	 viewBox="0 0 2000 2000" style="enable-background:new 0 0 2000 2000;" xml:space="preserve">
<g>
	<path d="M1168.38,1244.79c-14.29-36.12-25.73-72.37-29.92-110.68c-5.96-1.25-11.52-2.68-17.17-3.55
		c-12.7-1.96-23.75-7.81-34.77-13.95c-15.51-8.64-28.62-20.33-41.87-31.93c-10.3-9.02-18.84-19.49-27.04-30.32
		c-17.83-23.55-32.05-49.2-44.1-76.09c-4.73-10.55-9.34-21.14-13.84-31.79c-1.46-3.45-2.36-7.13-3.52-10.7
		c-3.17-9.77-6.67-19.45-9.42-29.33c-2.08-7.47-2.9-15.28-4.82-22.81c-3.3-12.97-3.26-26.35-5.04-39.5
		c-1.41-10.38-1.33-21.08-0.75-31.57c0.78-14.03,2.17-28.07,4.28-41.96c1.65-10.87,4.28-21.66,7.37-32.22
		c9.05-30.94,22.86-59.62,43.23-84.75c10.31-12.72,22.35-23.63,36.67-32.07c6.93-4.08,13.68-8.45,21.12-11.47
		c17.99-7.3,36.7-11.89,55.99-14.13c27.86-3.24,55.71-3.38,83.4,1.26c22.58,3.78,44.68,9.53,65.8,18.64
		c20.77,8.96,41.2,18.63,60.23,30.91c10.73,6.93,20.86,14.77,31.25,22.23c2.2,1.58,4.33,3.25,6.74,5.06
		c1.73-1.84,3.13-3.22,4.4-4.71c14.98-17.68,32.45-32.21,53.82-41.53c8.71-3.8,17.81-6.51,27.11-8.82
		c13.27-3.3,26.64-5.27,40.21-5.7c11.78-0.37,23.69-0.8,35.35,0.47c15.43,1.69,31.02,3.84,45.15,11.06
		c5.32,2.72,10.17,6.38,15.21,9.64c0.84,0.54,1.49,1.41,2.37,1.85c8.27,4.18,14.66,10.46,20.16,17.87c0.04,0.16,0.23,0.54,0.14,0.63
		c-0.67,0.64-1.39,1.22-2.37,2.07c1.61,4.59,5.15,6.86,10.04,7.56c-0.25,2.05-0.46,3.72-0.7,5.7c3.44,2.86,4.77,7.74,8.63,10.25
		c0.38-0.34,0.76-0.67,1.14-1.01c-1.5-1.81-2.99-3.62-4.49-5.43c0.24-0.32,0.47-0.63,0.71-0.95c0.92,0.51,2.06,0.82,2.71,1.56
		c3.5,3.94,6.9,7.96,8.15,13.3c0.22,0.95,0.57,1.93,1.1,2.73c7.12,10.66,10.38,22.68,12.63,35.11c3.61,19.93,4.67,39.95,2.35,60.09
		c-1.18,10.22-3.11,20.25-5.77,30.27c-5.28,19.89-14.1,38.13-23.6,56.14c-8.13,15.42-19,28.98-29.8,42.55
		c-2.81,3.53-5.66,7.02-8.72,10.8c1.08,1.35,1.77,3.14,2.91,3.49c8.81,2.71,15.27,9.45,23.37,13.35c1.11,0.53,2.11,1.39,3,2.26
		c4.42,4.36,9.68,7.73,14.2,11.95c1.34,1.25,2.57,1.8,4.25,2.39c2.76,0.98,5.23,2.89,7.68,4.63c9.43,6.69,18.53,13.67,25.91,22.8
		c5.17,6.39,11.19,12.11,16.94,18.02c8.25,8.49,15.47,17.77,21.54,27.93c4.36,7.31,10.05,13.85,12.76,22.13
		c3.11,9.52,6.49,18.95,9.49,28.5c6.81,21.61,5.11,43.77,3.54,65.82c-0.55,7.71-2.87,15.29-4.26,22.95
		c-5.52,30.34-19.88,56.11-40.73,78.47c-4.96,5.32-10.08,10.51-15.4,15.46c-8.36,7.77-18.35,13.16-28.18,18.77
		c-3.25,1.85-6.46,3.76-9.55,5.56c0,5.05-0.37,9.58,0.07,14.04c1.26,12.9-0.01,25.61-2.78,38.16c-4.02,18.21-9.44,36.02-19.32,52.01
		c-13.55,21.93-29.34,41.71-50.95,56.75c-18.28,12.72-37.79,21.92-59.4,26.53c-9.05,1.93-18.38,2.86-27.64,3.49
		c-32.83,2.24-63.95-4.47-93.69-18.34c-9.11-4.25-18.4-8.1-26.73-13.85c-2.04-1.41-4.43-2.32-7.06-3.68
		c-2.05,1.2-4.4,2.18-6.27,3.75c-9.62,8.06-20.63,13.05-33.8,15.27c1.26,1.14,1.82,2.02,2.6,2.31
		c15.93,5.95,29.18,15.84,40.06,28.64c16.22,19.08,25.23,40.87,22.99,66.52c-1.62,18.58-8.71,35.04-19.41,49.94
		c-16.14,22.48-38.4,36.92-64.45,44.85c-17.26,5.26-35.13,7.64-53.57,5.11c-14.41-1.98-28.04-5.78-40.91-12.18
		c-9.2-4.58-17.71-10.44-25.52-17.2c-2.46-2.13-5.2-4-7.36-6.4c-4.46-4.96-7.24-10.88-8.43-17.44c-0.89-4.93-1.42-9.92-2.15-14.88
		c-0.29-1.93-0.69-3.85-1.15-6.43c-1.56,0.65-2.75,0.91-3.66,1.56c-12.57,8.99-26.28,8.76-40.35,4.85
		c-5.31-1.48-10.44-3.61-15.68-5.38c-14.42-4.88-22.28-15.62-26.47-29.63c-0.43-1.43-0.72-2.91-1.15-4.65
		c-1.45-0.79-2.89-1.82-4.49-2.41c-10.59-3.91-19.18-10.56-27.19-18.42c-12.41-12.18-18.37-27.43-21.76-43.84
		c-1.93-9.32,0.04-18.64,4.32-27.12c7.7-15.25,19.61-26.47,35.07-35.21c1.11,1.74,2.04,3.21,3.14,4.95
		c-1.83,1.54-3.01,2.85-4.47,3.69c-10.19,5.89-18.51,13.68-24.96,23.57c-7.14,10.95-9.16,22.33-5.59,35.16
		c6.16,22.13,20.59,36.92,40.11,47.59c1.26,0.69,2.81,0.86,4.55,1.36c0.38-1.18,0.85-2.06,0.92-2.96
		c1.13-15.72,10.73-24.87,24.19-30.82c4.35-1.93,8.22-0.53,11.42,3.28c3.69,4.39,4.27,9.62,3.46,14.97
		c-1.12,7.39-4.45,13.88-9.42,19.41c-4.08,4.54-9.6,6.25-15.47,6.99c-1.93,0.24-3.89,0.28-6.27,0.44
		c2.61,9.18,6.71,17.07,14.77,21.48c13.34,7.3,27.55,12.18,43.14,11.53c8.54-0.36,15.33-4.1,21.45-10.3
		c0.26-8.79,2.71-17.16,6.11-25.32c1.6-3.83,4.02-6.04,8.93-5.94c-0.09,1.71,0.03,2.91-0.25,4.02c-2.22,8.75-4.9,17.4-6.66,26.24
		c-1.58,7.97-0.04,15.91,1.85,23.81c3.04,12.65,10.27,22.18,20.83,29.33c13.38,9.06,27.23,17.18,43.33,20.52
		c17.11,3.56,34.11,4.53,51.6,1.43c17.99-3.2,34.18-10.21,49.39-19.68c10.52-6.56,19.37-15.18,25.47-26.25
		c5.23-9.48,10.36-19.13,12.32-29.82c4.75-25.88-0.77-49.44-17.65-69.94c-10.71-13.01-23.7-23.14-39.24-29.86
		c-1.61-0.7-3.27-1.33-4.8-2.19c-7.45-4.2-15.28-5.69-23.9-4.95c-9.04,0.77-18.05-0.87-26.86-3.02c-2.81-0.69-5.4-2.29-8.1-3.48
		c0.36-4.65,3.62-6.46,6.1-9.31c10.65,0.61,21.54,0.74,31.99,3.3c9.66,2.36,18.89,1.68,28.3-0.46c10.39-2.37,20.21-6.03,28.95-12.26
		c0.97-0.69,1.8-1.57,2.77-2.43c-0.58-0.96-0.8-1.75-1.32-2.15c-5.8-4.39-11.64-8.72-17.47-13.07
		c-14.15-10.54-26.69-22.83-39.08-35.35c-14.37-14.52-27.09-30.4-39.16-46.77c-10.57-14.34-20.09-29.41-29.02-44.9
		c-8.18-14.18-15.39-28.8-22.53-43.48c-0.42-0.86-1.2-1.54-2.12-2.68c-2.29,1.29-4.51,2.4-6.58,3.74
		c-14.82,9.64-28.67,20.57-40.38,33.79c-9.8,11.06-19.64,22.38-24.73,36.67c-2.08,5.85-3.36,11.98-4.92,17.65
		c-0.96-4.36-0.91-10.78,0.25-14.4c5.01-15.55,13.55-29.14,23.88-41.59c13.27-15.98,29.13-29.07,46.43-40.48
		C1165.33,1246.97,1166.52,1246.09,1168.38,1244.79z M1605.53,1293.4c-4.09,1.14-7.51,1.85-10.75,3.04
		c-12.03,4.44-24.62,5.34-37.15,4.88c-12.5-0.46-24.91-2.22-37.26-4.87c-27.9-5.98-53.65-16.48-76.96-33.09
		c-12.67-9.03-23.34-19.56-31.19-33.19c-4.81-8.35-7.79-16.74-6.88-26.37c0.21-2.24,0.67-4.46,0.86-6.7
		c1.34-16.12,9.3-29.15,20.48-39.94c9.83-9.49,22.62-14.25,36.11-15.39c18.09-1.53,36.09-0.93,53.47,5.9
		c9.23,3.63,17.91,8.07,25.56,14.19c9.97,7.98,20.03,15.87,28.34,25.77c7.46,8.87,14.61,17.91,20.48,27.9
		c10.91,18.58,18.37,38.49,22.51,59.65c0.36,1.84,1.25,3.57,2.04,5.78c2.73-1.22,4.88-1.94,6.8-3.06
		c7.37-4.31,14.73-8.65,21.97-13.18c2.97-1.86,5.72-4.09,8.4-6.36c11.39-9.69,20.84-21.07,28.98-33.57
		c8.58-13.17,15.17-27.36,18.53-42.66c2.79-12.7,5.11-25.56,6.17-38.62c1.65-20.51,0.26-40.65-5.41-60.46
		c-6.91-24.14-19.77-45-35.68-64.08c-15.51-18.59-32.82-35.3-52.08-50.09c-13.39-10.28-26.99-20.14-41.62-28.55
		c-3.45-1.98-7.04-3.74-10.84-5.74c-9.41,9.22-18.26,18.47-27.74,27.02c-9.47,8.54-20.32,15.3-32.85,21.82
		c9.2,5.05,18.05,7.59,26.45,11.77c0.1,4.62-0.12,8.7-4.95,10.71c-0.95-0.2-1.72-0.23-2.4-0.51c-6.96-2.85-13.97-5.62-20.83-8.7
		c-2.24-1.01-4.17-2.77-6.15-4.31c-1.56-1.22-2.98-2.62-3.87-3.42c-9.56,1.83-18.4,3.58-27.26,5.21
		c-9.62,1.77-19.05,0.43-28.32-2.22c-2.6-0.74-5.29-1.77-6.83-4.81c0.19-3.62,2.52-6.03,5.35-8.38c7.67,3.95,15.42,6.61,23.93,6.18
		c8.49-0.42,17.03-0.5,25.39-3.58c-3.77-7.12-7.68-13.81-10.94-20.81c-3.27-7.02-5.89-14.34-8.76-21.44c1.55-3.29,3.1-6.18,4.31-9.2
		c2.78-6.94,7.34-12.61,12.74-17.55c2.53-2.31,5.61-4.45,8.82-5.5c7.98-2.63,16.23-3.15,24.55-1.28c4.4,0.99,8.93,1.49,13.29,2.62
		c3.61,0.93,7.26,2.1,10.56,3.79c8.72,4.47,17.94,7.44,27.77,10.32c2.92-3.38,5.96-6.68,8.76-10.18c6.43-8.03,13.27-15.8,19-24.31
		c12.94-19.22,23.66-39.65,30.9-61.76c2.02-6.17,4.3-12.38,5.29-18.76c2.6-16.88,4.65-33.86,3.12-51.01
		c-1.18-13.26-2.67-26.47-6.72-39.24c-4.28-13.5-10.51-26.02-18.32-37.86c-7.56-11.46-16.52-21.62-27.32-29.96
		c-13.01-10.06-27.04-18.45-43.47-21.71c-8.12-1.61-16.3-3.07-24.52-3.94c-26.28-2.79-52.22-0.67-77.71,6.39
		c-23.22,6.44-43.68,17.8-61.06,34.54c-4.46,4.29-9.09,8.5-12.32,14.41c4.82,4.52,9.56,8.64,13.92,13.12
		c10.17,10.46,19.64,21.52,28.21,33.35c8.02,11.07,14.6,22.94,18.67,35.99c1.54,4.94,2.4,10.38,2.15,15.53
		c-0.77,15.75-6.14,29.81-16.43,42.05c-15.88,18.88-44.06,19.95-61.16,2.18c-12.23-12.72-17.49-28.65-20.45-45.33
		c-2.66-14.99-1.09-30.03,2.87-44.77c0.72-2.66,1.13-5.43,2.04-8.02c4.22-12.09,9.28-23.8,15.74-34.89c0.84-1.45,1.4-3.06,2.15-4.75
		c-8.62-8-17.75-14.73-27.17-20.91c-25.51-16.74-52.53-30.65-81.24-41.1c-23.25-8.46-47.13-14.03-71.89-16.01
		c-30.03-2.4-59.79-1.51-89.13,5.81c-28.15,7.02-52.9,20.11-73.54,40.84c-14.58,14.65-25.54,31.75-34.51,50.07
		c-26.43,53.97-32.92,110.69-22.69,169.71c2.89,16.68,7.45,32.83,12.79,48.77c4.46,13.32,9.45,26.53,15.14,39.37
		c9.47,21.37,19.55,42.47,32.72,61.91c3.79,5.6,7.63,11.17,11.34,16.83c7.33,11.2,16.07,21.31,25.55,30.6
		c9.12,8.94,19.14,17.01,29.13,25c14.68,11.75,31.24,20.09,49.32,25.29c4.78,1.37,9.66,2.51,15.01,2.72
		c0.31-2.13,0.68-3.81,0.79-5.5c0.5-7.77,0.62-15.58,1.45-23.32c0.94-8.72,1.66-17.54,5.14-25.77c4.1-9.7,8.31-19.26,13.95-28.32
		c6.91-11.1,15.63-20.37,25.42-28.6c17.45-14.68,37.88-22.66,60.7-23.8c6.73-0.34,13.56,0.46,20.29,1.2
		c5.53,0.61,9.19,3.98,10.41,9.5c0.86,3.92,1.74,7.9,1.89,11.89c0.8,22.27-4.65,42.83-17.28,61.34c-3.4,4.97-6.3,10.42-10.37,14.77
		c-13.66,14.64-29.33,26.61-47.68,35.06c-15.48,7.13-31.48,11.77-48.51,12.8c-1.92,0.12-3.83,0.49-5.64,0.73
		c-0.92,18.45,20.38,92.52,30.08,105.22c0.48-0.08,1.01-0.06,1.43-0.25c2.05-0.96,4.07-1.97,6.1-2.98
		c19.31-9.52,39.4-16.39,61-18.35c27.93-2.54,54,3.26,78.17,17.4c11.12,6.5,20.91,14.77,30.02,23.87
		c13.21,13.19,23.1,28.43,28.91,46.23c4.76,14.61,5.97,29.55,3.28,44.67c-2.7,15.24-8.2,29.51-15.93,42.9
		c-8.46,14.67-18.93,27.81-30.56,40.07c-0.98,1.03-1.82,2.2-2.73,3.31c0.79,0.9,1.2,1.57,1.79,1.99c1.22,0.89,2.5,1.69,3.8,2.45
		c19.11,11.27,39.42,19.6,60.91,25.17c12.69,3.29,25.58,5.23,38.65,5.26c9.52,0.02,19.03-1.07,28.56-1.33
		c12.27-0.34,23.76-3.96,35.11-8.03c13.05-4.69,25.02-11.42,36.39-19.48c20.53-14.55,36.69-32.87,48.14-55.08
		c7.86-15.24,11.99-31.93,15.25-48.73c2.61-13.43,1.4-27.03,1.17-40.58C1606.87,1296.84,1606.23,1295.69,1605.53,1293.4z
		 M1179.7,1246.98c19.5,46.82,46.95,87.89,80.27,125.18c20.78,23.26,44.36,43.32,70.28,61.11c8.22-7.11,15.22-14.6,21.53-22.76
		c11.3-14.63,20.43-30.23,25.16-48.43c6.13-23.6,3.08-45.84-7.82-67.22c-9.56-18.75-23.88-33.37-40.77-45.66
		c-27.69-20.14-58.68-26.51-92.17-21.95c-15.03,2.04-29.3,6.89-43.05,13.27C1188.82,1242.5,1184.58,1244.62,1179.7,1246.98z
		 M1604.8,1285.16c-0.12-2.41-0.04-3.89-0.29-5.32c-2.49-14.46-7.11-28.35-13.39-41.48c-12.2-25.54-29.55-47.11-51.82-64.81
		c-13.73-10.91-28.93-17.82-46.14-20.9c-12.33-2.21-24.62-1.53-36.79,0.19c-12.19,1.72-23.24,6.74-31.62,16.17
		c-9.52,10.72-13.62,23.2-11.08,37.6c2.19,12.39,9.12,22.29,17.31,31.13c12.24,13.21,27.12,23.15,43.26,31.01
		c16.76,8.16,34.31,14.11,52.61,17.96c19.56,4.11,39.14,6.45,59.01,2.85C1591.99,1288.43,1598.02,1286.74,1604.8,1285.16z
		 M1265.85,1002.21c-5.21-3.69-9.77-3.86-14.28-4.03c-23.43-0.92-44.53,5.22-63.37,19.64c-23.01,17.63-37.73,39.96-41.64,68.96
		c-0.8,5.97-1.67,11.96-2.06,17.96c-0.41,6.17-0.52,12.4,1.61,18.65c9.14-0.21,17.77-1.1,26.4-2.75
		c13.99-2.68,27.07-7.93,39.25-14.85c20.19-11.46,36.64-26.96,48.01-47.69c8.07-14.71,10.78-30.12,8.93-46.5
		C1268.32,1008.21,1266.71,1004.97,1265.85,1002.21z M1351.2,688.22c-5.41,7.83-9.11,15.75-12.6,23.78
		c-10.25,23.65-12.98,47.67-4.58,72.59c3.96,11.74,10.03,21.83,19.33,29.96c12.36,10.81,32.44,11.35,44.43,1.25
		c13.22-11.14,19.1-31.61,13.41-47.99c-2.13-6.14-4.73-12.18-7.76-17.93c-8.83-16.81-20.77-31.35-33.93-44.92
		C1363.96,699.22,1358.67,693.13,1351.2,688.22z M1493.04,976.91c15.46-3.07,52.87-31.44,59.85-45.43
		c-5.02-3.29-10.72-5.16-16.27-7.32c-11.78-4.58-23.87-7.87-36.57-8.47c-9.8-0.46-18.29,2.31-24.95,9.96
		c-3.83,4.4-5.28,8.85-2.77,14.47c2.97,6.65,5.29,13.58,8.38,20.17C1483.69,966.66,1487.59,972.51,1493.04,976.91z M1049.69,1544.28
		c10.89,3.21,19.22-0.01,23.32-9.02c3.79-8.34,2.39-14.41-4.37-18.89C1055.07,1519.75,1047.22,1530.72,1049.69,1544.28z
		 M1687.49,1043.77c0.42-3.82-1.28-6.02-3.47-8.22c-1.92-1.93-3.27-4.42-5.02-6.54c-1.72-2.09-2.7-4.96-6.6-6.54
		C1677.79,1030.07,1682.51,1036.73,1687.49,1043.77z"/>
	<path d="M1441.4,481.81c-5.01-7.75-5.55-16.19-5.3-24.71c0.69-22.87,9.82-42.85,21.46-61.96c7.7-12.65,17.61-23.4,29.88-31.44
		c9.39-6.15,19.29-11.97,30.53-14.38c4.63-0.99,9.44-1.28,14.18-1.68c22.44-1.9,42.95,3.39,60.79,17.32
		c4.07,3.18,7.07,7.75,10.42,11.8c1.39,1.68,2.41,3.68,3.79,5.82c1.92-0.82,3.49-1.55,5.1-2.16c4.45-1.71,8.8-3.89,13.4-4.99
		c26.47-6.27,53.02-8.27,79.46,0.15c17.96,5.72,33.73,15.16,47.85,27.75c18.16,16.18,27.47,36.94,31.79,60.13
		c2.39,12.84,0.07,25.64-5.3,37.57c-8.53,18.96-21.42,34.5-38.33,46.64c-14.37,10.32-29.77,18.61-46.56,24.43
		c-11.28,3.91-22.84,5.85-34.64,6.82c-4.72,0.39-9.46,0.52-13.86,0.75c-4.07-4.5-2.17-7.8,0.28-10.61
		c7.71-0.69,14.91-1.63,22.13-1.92c12.79-0.52,24.74-4.24,36.28-9.27c18.79-8.2,36.15-18.78,50.84-33.25
		c8.3-8.18,15.09-17.67,19.25-28.55c4.48-11.7,6.04-23.98,1.74-36.17c-3.01-8.5-6.17-17.04-10.29-25.04
		c-8.17-15.84-21.22-27.2-36.01-36.72c-24.73-15.93-51.79-21.01-80.79-17.81c-10.32,1.14-20.39,2.96-29.98,7.01
		c-2.99,1.26-5.9,2.72-9.08,4.2c0,1.7-0.26,3.21,0.04,4.6c2.46,11.36,0.83,22.58-1.5,33.65c-1.65,7.83-3.98,15.59-6.8,23.09
		c-4.39,11.69-12.56,20.44-23.2,26.87c-7.53,4.55-15.92,6.24-24.53,6.43c-10.49,0.23-15.2-4-16.46-14.56
		c-1.79-14.89,1.75-28.6,10.91-40.46c5.5-7.12,11.64-13.8,17.91-20.28c8.97-9.28,19.42-16.68,30.88-22.64
		c0.64-0.33,1.16-0.91,2.07-1.65c-0.84-3.74-3.3-6.52-5.85-9.18c-8.41-8.76-18.72-14.39-30.36-17.41
		c-32.9-8.54-61.71-0.98-86.05,22.74c-18.15,17.7-29.02,39.66-35.27,63.9c-2.25,8.72-2.55,17.9-1.46,26.99
		C1441.1,476.35,1441.2,479.08,1441.4,481.81z M1603.48,395.52c-2.67,1.28-4.95,2.2-7.06,3.42c-18.35,10.61-32.96,25.26-45.19,42.39
		c-2.17,3.04-3.77,6.5-5.57,9.8c-2.73,5.02-3.33,10.48-3.08,16.06c0.2,4.47,2.11,7.07,6.38,8.21c2.38,0.64,5.01,0.95,7.43,0.66
		c19.81-2.36,33.88-12.65,42.09-30.9c4.28-9.52,5.8-19.72,6.91-29.91C1606.08,409.1,1606.51,402.72,1603.48,395.52z"/>
	<path d="M901.27,523.49c-6.02,4.39-13.84,2.57-19.98,6.12c-0.82,2.03-1.64,4.02-2.66,6.53c-4.38-2.17-4.36-5.79-4.11-9.13
		c0.62-8.41,7.8-8.65,14.18-10.32c-0.45-1.16-0.54-2.22-1.12-2.78c-13.43-13.18-19.17-29.77-21.34-47.93
		c-2.26-18.87-1.61-37.59,2.62-56.2c3.61-15.87,10.92-29.7,22.27-41.21c9.22-9.35,19.96-17.06,31.99-22.21
		c12.89-5.52,26.37-9.65,40.25-12.27c17.43-3.29,34.35-1.44,51.25,3.63c7.71,2.31,15.16,5.09,22.67,7.9
		c9.82,3.66,18.28,9.43,26.7,15.29c16.94,11.78,32.5,25.29,47.22,39.74c4.96,4.87,9.57,10.1,14.94,15.8
		c0.97-2.25,1.71-3.97,2.45-5.69c6.17-14.38,16.93-21.97,32.71-22.41c14.27-0.4,27.23,3.71,39.43,10.82
		c20.72,12.07,35.46,29.11,44.47,51.47c5.28,13.1,8.47,26.32,6.89,40.4c-1.56,13.97-6.05,26.91-14.66,38.23
		c-3.38,4.44-7.87,7.41-13.21,10.5c-0.42-3.87,1.64-5.68,3.65-7.43c4.42-3.83,8.01-8.28,10.77-13.44
		c6.76-12.63,8.43-26.25,7.21-40.22c-0.88-10.07-3.88-19.67-8.45-28.78c-7.2-14.35-16.25-27.21-29.35-36.79
		c-14.05-10.27-29.16-17.88-47.22-17.27c-2.01,0.07-4.04,0.13-6.01,0.47c-12.56,2.2-20.67,9.44-23.02,24.3
		c-0.58,3.67-0.9,7.39-1.38,11.44c-2.25,0-3.88,0-4.79,0c-5.06-6.62-9.35-13.15-14.56-18.83c-11.4-12.42-23.98-23.62-37.25-34.06
		c-11.49-9.04-23.26-17.6-36.56-23.82c-14.64-6.85-29.72-12.02-46-13.59c-18.54-1.78-35.98,2.35-53.13,8.57
		c-11.87,4.3-22.99,10.07-33.13,17.67c-17.48,13.1-28.59,30.28-32.08,51.87c-2.16,13.4-2.62,26.91-1.24,40.58
		c2.05,20.23,10.18,37.15,25,50.9C900.07,514.46,901.98,517.89,901.27,523.49z"/>
	<path d="M337.72,1071.78c2.62-2.87,4.97-3.6,7.86-1.88c0.28,0.72,0.78,1.41,0.77,2.1c-0.4,26.89-0.76,53.78-1.33,80.67
		c-0.25,12.06-1.05,24.1-1.39,36.15c-0.53,19.1-0.39,38.23-1.45,57.29c-1.26,22.8-3.55,45.55-5.27,68.33
		c-1.18,15.53-1.98,31.09-3.29,46.6c-1.39,16.51-3.2,32.97-4.8,49.46c-0.51,5.25-0.89,10.52-1.4,15.77
		c-0.31,3.21-0.65,6.45-2.97,9.28c-1.03-0.32-1.92-0.6-2.56-0.8c-0.39-0.81-0.76-1.24-0.79-1.69c-0.97-18.61,0.01-37.1,2.81-55.53
		c0.87-5.7,1.31-11.48,1.7-17.24c0.86-13.03,1.46-26.07,2.36-39.1c0.73-10.52,1.86-21.02,2.58-31.54
		c1.37-19.8,2.92-39.61,3.73-59.43c0.62-15.06-0.07-30.17,0.33-45.24c0.51-19.09,1.69-38.16,2.27-57.25
		c0.5-16.58,0.57-33.17,0.83-49.76C337.74,1075.74,337.72,1073.5,337.72,1071.78z"/>
	<path d="M1634.31,1345.95c1.62-2.08,3.25-4.17,5.31-6.81c5.31,4.5,10.1,8.47,14.77,12.56c3.2,2.81,6.33,5.71,9.35,8.72
		c11.2,11.15,22.41,22.3,33.49,33.56c10.55,10.71,21.2,21.34,31.35,32.42c12.71,13.88,25.16,28.02,37.32,42.39
		c6.96,8.23,13.57,16.83,19.51,25.82c6.36,9.61,14.3,17.96,20.7,27.5c5.86,8.74,11.89,17.37,17.86,26.05
		c1.14,1.65,2.3,3.29,3.44,4.94c7.62,10.93,13.88,22.6,19.2,35.34c-1.67,2.72-3.33,5.41-5.11,8.3c-2.09-0.47-3.69-0.84-5.79-1.31
		c0.49-2.01,0.88-3.59,1.39-5.71c-3.88-9.12-8.86-18.15-14.51-26.74c-9.38-14.26-19.11-28.3-29.02-42.21
		c-8.59-12.06-17.31-24.07-26.54-35.64c-13.46-16.88-26.87-33.81-42.12-49.19c-19.99-20.15-39.69-40.6-59.72-60.71
		c-6.2-6.22-13.06-11.77-19.61-17.64C1641.71,1354.09,1637.35,1351.02,1634.31,1345.95z"/>
	<path d="M191.74,499.13c5.1-1.59,7.92-0.12,9.58,3.56c0.92,2.04,1.43,4.28,2.14,6.42c5.5,16.69,11,33.38,16.5,50.06
		c3.22,9.77,6.39,19.56,9.68,29.31c2.57,7.6,5.15,15.2,7.98,22.71c5.13,13.63,10.58,27.13,15.66,40.78
		c6.31,16.93,12.18,34.03,18.58,50.92c9.69,25.59,19.7,51.07,29.52,76.61c3.78,9.82,7.41,19.7,11.01,29.28
		c-1.52,3.21-3.29,4.99-7.15,3.94c-1.64-3.88-3.49-7.97-5.12-12.14c-9.41-24.09-18.86-48.16-28.12-72.31
		c-4.94-12.89-9.47-25.94-14.31-38.87c-7.83-20.93-16.01-41.73-23.58-62.75c-8.58-23.84-16.71-47.86-24.94-71.83
		c-5.05-14.72-10-29.48-14.83-44.28C193.19,507.02,192.67,503.29,191.74,499.13z"/>
	<path d="M415.71,665.84c-2.65,2.12-4.97,2.33-8.22,1.2c0-2.16-0.21-4.35,0.03-6.5c1.75-15.72,3.63-31.42,5.37-47.14
		c1.16-10.48,2.03-21,3.24-31.47c2.14-18.44,4.56-36.85,6.62-55.3c0.64-5.73,0.36-11.55,0.68-17.32c1.15-20.81,2.2-41.64,3.63-62.43
		c0.7-10.24,2.14-20.44,3.22-30.66c0.34-3.24,0.75-6.47,0.93-9.72c1.15-20.3,2.22-40.61,3.41-60.91c0.1-1.63,0.86-3.22,1.52-5.56
		c2.74,0.69,5,1.26,7.25,1.83c0.23,1.89,0.6,3.14,0.49,4.34c-1.5,16.24-1.13,32.63-4.28,48.75c-0.86,4.4-0.57,9.01-0.95,13.52
		c-1.09,13-2.32,25.98-3.34,38.98c-0.45,5.75-0.84,11.54-0.69,17.3c0.38,14.87-1.24,29.61-2.24,44.39
		c-0.66,9.77-0.99,19.58-2.06,29.31c-1.86,16.97-4.37,33.86-6.26,50.82c-2.61,23.46-4.89,46.95-7.35,70.43
		C416.47,661.92,416,664.1,415.71,665.84z"/>
	<path d="M520.46,1062.42c0-1.51,0-3.19,0-4.95c0.98-0.27,1.79-0.81,2.34-0.61c3.51,1.29,7.28,2.25,10.37,4.24
		c5.91,3.79,11.8,7.77,17.03,12.43c21.05,18.74,43.77,35.38,65.76,52.94c19.63,15.68,39.09,31.58,58.83,47.13
		c9.86,7.77,20.21,14.92,30.25,22.46c13.86,10.41,27.72,20.83,41.45,31.41c21.69,16.72,43.26,33.58,64.54,50.11
		c1.26,3.54,3.42,6.51-0.06,9.32c-0.6-0.04-1.22,0.11-1.55-0.14c-5.41-4.06-10.87-8.07-16.15-12.29c-5.88-4.7-11.53-9.68-17.4-14.4
		c-9.57-7.7-19.12-15.45-28.89-22.9c-17.18-13.1-34.52-26-51.81-38.98c-6.63-4.97-13.37-9.79-19.89-14.9
		c-6.91-5.42-13.58-11.13-20.42-16.64c-8.77-7.08-17.61-14.07-26.41-21.11c-12.55-10.05-25.1-20.11-37.65-30.16
		c-16.07-12.87-32.1-25.81-48.27-38.56c-3.12-2.46-6.81-4.2-10.27-6.22C528.19,1068.21,523.41,1066.85,520.46,1062.42z"/>
	<path d="M489.57,491.07c1.2-0.35,2.14-0.62,2.86-0.82c2.44,1.07,3.05,3.02,2.97,5.07c-0.11,2.75-0.32,5.55-0.96,8.21
		c-2,8.28-4.16,16.52-6.38,24.74c-2.74,10.14-5.19,20.38-8.5,30.33c-4.74,14.28-10.14,28.34-15.27,42.49
		c-1.11,3.07-2.16,6.17-3.41,9.18c-2.88,6.93-6.09,13.74-8.78,20.75c-5.03,13.1-9.93,26.26-11.17,40.43
		c-0.13,1.48-0.63,2.94-1.02,4.4c-4.13,15.5-8.58,30.92-12.32,46.51c-4.05,16.88-10.45,32.97-15.56,49.49
		c-2.44,7.89-3.47,16.2-5.78,24.13c-2.66,9.13-6.06,18.05-9.09,27.08c-0.98,2.92-2.74,5.16-5.54,7.49
		c-1.33-2.93-0.99-5.27-0.33-7.64c1.87-6.78,3.72-13.56,5.63-20.33c4.45-15.7,8.98-31.38,13.38-47.1
		c7.86-28.05,15.69-56.11,23.44-84.19c5.6-20.31,11.01-40.67,18.47-60.43c3.72-9.86,6.56-20.05,10.02-30.02
		c3.3-9.48,7.17-18.76,10.25-28.3c2.15-6.66,3.38-13.61,5.06-20.43c1.62-6.57,3.08-13.18,4.99-19.67
		C484.66,505.26,487.21,498.2,489.57,491.07z"/>
	<path d="M614.67,1277.14c0.62-1.27,1.25-2.56,2.15-4.4c1.73,1.4,3.17,2.34,4.32,3.54c9.35,9.83,18.63,19.73,27.95,29.59
		c7.94,8.4,15.98,16.72,23.85,25.19c15.39,16.56,30.76,33.16,46.03,49.83c11.71,12.79,23.37,25.63,34.86,38.61
		c11.15,12.59,22.06,25.39,33.06,38.11c11.17,12.93,22.31,25.87,33.44,38.82c3.74,4.35,7.56,8.65,11.05,13.2
		c1.3,1.69,2.1,3.95,2.5,6.07c0.4,2.12-0.79,3.87-3.63,4.88c-1.95-2.19-4.16-4.51-6.18-6.98c-9.48-11.61-18.9-23.28-28.38-34.9
		c-3.5-4.28-7-8.57-10.68-12.7c-7.52-8.42-15.17-16.72-22.74-25.09c-2.52-2.79-5.07-5.55-7.39-8.5
		c-4.51-5.74-9.11-11.36-14.91-15.89c-0.77-0.6-1.39-1.48-1.89-2.34c-4.61-7.95-11.92-13.48-17.97-20.14
		c-2.7-2.98-5.34-6.01-8.09-8.95c-8.58-9.18-17.22-18.3-25.78-27.49c-9.77-10.48-19.47-21.02-29.25-31.49
		c-10.28-11.01-20.62-21.96-30.96-32.92c-1.55-1.64-3.08-3.39-4.93-4.64C617.29,1285.97,615.27,1282.45,614.67,1277.14z"/>
	<path d="M526.13,598.01c-1.62,0.64-2.78,1.1-4.19,1.66c-0.95-0.85-1.83-1.64-2.9-2.59c0.83-2.78,1.36-5.51,2.42-8.01
		c7.99-18.68,14.49-37.93,21.75-56.89c5.47-14.31,11.03-28.6,17.11-42.65c7.75-17.94,15.43-35.89,24.75-53.15
		c6.55-12.12,11.57-25.07,17.1-37.73c5.13-11.74,9.89-23.65,15.13-35.34c2.24-5,5.26-9.65,7.68-14.01c3.62-1.02,6.47-1.82,9.61-2.71
		c0.59,0.54,1.29,1.19,2.22,2.04c-0.61,1.19-1.1,2.3-1.71,3.33c-3.18,5.39-7.23,10.44-9.44,16.2
		c-8.67,22.57-19.87,43.97-29.79,65.96c-9,19.93-18.68,39.57-27.03,59.76c-10.08,24.37-19.04,49.2-28.55,73.81
		C536.3,578,532.05,588.2,526.13,598.01z"/>
	<path d="M214.47,1316.33c-0.99,0-1.71,0-2.88,0c-0.73-6.5-1.4-12.85,0.16-19.29c5.14-21.23,10.11-42.5,15.28-63.72
		c4.04-16.58,8.15-33.15,12.5-49.65c6.58-24.98,13.52-49.87,20.06-74.86c2.41-9.2,4.33-18.54,6.13-27.88
		c1.96-10.1,3.44-20.29,5.31-30.41c0.5-2.68,1.52-5.3,2.61-7.81c0.81-1.86,2.2-3.38,5.19-3.06c0.15,1.26,0.64,2.65,0.43,3.93
		c-2.37,14.61-5.24,29.15-7.19,43.81c-1.99,15-5.7,29.58-9.42,44.16c-3.47,13.62-7.58,27.08-11.12,40.68
		c-3.6,13.84-6.9,27.76-10.24,41.67c-5.57,23.18-10.93,46.41-16.66,69.54c-2.47,9.98-5.64,19.79-8.56,29.65
		C215.74,1314.26,214.99,1315.3,214.47,1316.33z"/>
	<path d="M743.87,926.99c0,3.82,0,6.21,0,8.61c-12.45,6.07-25.47,9.61-38.71,12.47c-21.86,4.72-43.76,9.21-65.56,14.2
		c-26.67,6.11-53.62,10.71-80.59,15.17c-10.9,1.8-21.76,3.85-32.64,5.78c-3.64-1.75-4.09-4.73-3.87-8.72
		c6.1-1.17,11.93-2.4,17.8-3.4c18.54-3.16,37.14-5.96,55.61-9.43c10.57-1.99,20.92-5.15,31.43-7.49c8.06-1.79,16.28-2.89,24.34-4.71
		c8.32-1.88,16.48-4.45,24.8-6.37c8.53-1.96,17.18-3.38,25.74-5.25c6.86-1.5,13.69-3.19,20.47-5.06c4.35-1.2,8.54-3,12.87-4.29
		C737.86,927.8,740.32,927.61,743.87,926.99z"/>
	<path d="M358.41,333.88c3.32-1.6,5.62-1.28,8,0.91c1.53,4.89,0.62,10.2-0.05,15.3c-1.44,11.01-1.42,22.03-1.43,33.08
		c0,10.28-0.85,20.56-0.6,30.83c0.39,16.05,1.43,32.08,2.11,48.13c0.26,6.02,0.18,12.05,0.45,18.07c0.72,16.04,1.69,32.06,2.27,48.1
		c0.27,7.5-0.12,15.02-0.21,22.1c-3.41,2.52-3.41,2.52-7.53,2.05c-0.31-1.77-0.85-3.68-0.94-5.61c-1.3-29.34-2.46-58.68-3.8-88.01
		c-1.8-39.15-1.73-78.29,0.75-117.41C357.6,338.76,358.12,336.11,358.41,333.88z"/>
	<path d="M672.56,875.66c0.56,1.77,1.09,3.47,1.57,4.98c-1.14,0.98-1.62,1.66-2.26,1.92c-18.16,7.33-36.26,14.83-54.55,21.82
		c-8.18,3.13-16.74,5.22-25.13,7.81c-3.59,1.11-7.14,2.35-10.74,3.43c-7.68,2.32-15.37,4.58-23.06,6.85
		c-6,1.77-12.06,3.35-17.98,5.33c-10.7,3.57-21.29,7.49-31.98,11.07c-11.18,3.75-22.43,7.29-33.65,10.88
		c-0.92,0.29-1.94,0.28-2.65,0.38c-2.94-1.49-3.44-3.75-3.28-6.89c8.09-2.81,16.12-5.58,24.14-8.4c9.47-3.32,18.88-6.79,28.39-10
		c10.46-3.53,21.01-6.79,31.5-10.24c25.75-8.47,51.54-16.86,77.21-25.56c6.87-2.33,13.44-5.6,20.09-8.57
		C656.92,877.49,663.88,875.59,672.56,875.66z"/>
	<path d="M1861.02,723.01c0.21,1.74,0.42,3.44,0.58,4.8c-0.63,0.76-0.88,1.36-1.27,1.49c-9.66,3.02-16.65,10.15-24.46,15.96
		c-12.29,9.14-24.49,18.4-36.62,27.75c-4.76,3.67-9.47,7.48-13.79,11.65c-10.7,10.32-22.45,19.26-34.85,27.39
		c-0.63,0.41-1.26,0.83-1.87,1.28c-16.13,11.91-32.24,23.86-48.4,35.73c-3.61,2.65-7.42,5.02-11.22,7.56
		c-4.39-2.32-3.51-5.81-2.97-9.77c2.7-1.83,5.63-3.72,8.45-5.75c15.46-11.16,30.9-22.37,46.34-33.56c1.63-1.18,3.17-2.51,4.93-3.47
		c13.8-7.53,25.18-18.13,36.97-28.31c9.67-8.35,20.27-15.62,30.44-23.39c7.97-6.1,15.83-12.37,23.9-18.34
		c5.23-3.88,10.71-7.41,16.14-11.01C1855.49,721.57,1857.85,720.76,1861.02,723.01z"/>
	<path d="M298.91,688.49c-2.9,0.52-5.03,0.91-7.78,1.4c-22.26-65.35-44.19-130.42-64.18-196.14c-0.4-1.32-0.05-2.86-0.05-4.75
		c1.98-0.14,3.65-0.26,5.47-0.39c5.14,6.34,6.83,13.98,9.04,21.39c3.01,10.09,5.96,20.2,9.09,30.25c2.92,9.35,6,18.64,9.08,27.93
		c7.91,23.83,15.82,47.66,23.81,71.47c4.87,14.52,9.91,28.99,14.8,43.51C298.65,684.54,298.6,686.07,298.91,688.49z"/>
	<path d="M640.81,505.66c2.28,1.48,3.49,2.26,4.32,2.8c1.56,3.39,0.31,5.91-0.93,8.38c-3.94,7.86-7.8,15.76-11.96,23.5
		c-3.33,6.19-7.18,12.09-10.56,18.24c-6.29,11.44-12.72,22.81-18.53,34.49c-9.62,19.34-18.74,38.93-28.19,58.35
		c-3.4,6.98-7.16,13.77-10.67,20.48c-3.49,0.77-6.37,1.5-9.12-1.63c2.04-3.97,4.16-7.9,6.1-11.91c6.68-13.78,13.2-27.65,19.96-41.39
		c8.32-16.9,16.55-33.84,25.3-50.51c9.34-17.78,19.2-35.29,28.92-52.87C636.86,511.04,638.72,508.72,640.81,505.66z"/>
	<path d="M592.43,1508.79c-1.52,1.44-2.77,2.63-3.87,3.67c-1.29-0.35-2.32-0.32-2.64-0.78c-1.26-1.79-2.71-3.6-3.34-5.64
		c-1.94-6.23-3.17-12.7-5.36-18.83c-5.38-15.07-8.08-30.96-14.65-45.68c-3.96-8.88-6.8-18.22-9.52-27.59
		c-1.39-4.81-3.27-9.51-5.22-14.14c-2.42-5.77-5.14-11.27-5.81-17.75c-0.48-4.61-3.01-8.99-4.48-13.53c-1-3.09-1.75-6.27-2.77-9.95
		c-6.28-8.02-7.12-13.62-2.27-19.74c4.28,4.37,7.34,9.46,9.44,15c2.23,5.86,3.86,11.94,5.74,17.93
		c4.28,13.64,8.36,27.35,12.87,40.92c6.18,18.59,12.69,37.07,19.02,55.62c3.73,10.94,7.41,21.89,11.03,32.87
		C591.31,1503.28,591.66,1505.51,592.43,1508.79z"/>
	<path d="M895.12,1199.91c-3.13-2.87-3.77-5.42-0.93-8.57c4.46-0.3,9.18-0.74,13.9-0.92c11.59-0.44,22.89-2.85,34.21-5.08
		c8.37-1.64,16.75-3.21,25.09-4.99c4.9-1.05,9.71-2.54,14.59-3.71c21.95-5.28,43.89-10.62,65.88-15.7
		c4.86-1.12,9.92-1.44,14.92-1.81c2.38-0.18,4.82,0.39,7.94,0.69c-0.95,2.36-1.55,3.86-2.36,5.87c-4.19,0.69-8.37,1.29-12.5,2.09
		c-8.13,1.57-16.24,3.21-24.34,4.9c-6.38,1.33-12.76,2.71-19.1,4.22c-5.35,1.28-10.61,2.93-15.97,4.14
		c-23.73,5.39-47.44,10.85-71.24,15.9c-7.58,1.61-15.41,2.09-23.14,2.94C899.63,1200.13,897.13,1199.91,895.12,1199.91z"/>
	<path d="M884.73,643.18c-0.28,2.04-0.54,3.9-0.81,5.8c-1.17,0.11-1.96,0.39-2.6,0.2c-2.87-0.87-5.88-1.52-8.51-2.88
		c-19.63-10.11-39.41-19.97-58.68-30.74c-12.46-6.96-24.08-15.39-36.18-23.01c-14.19-8.94-27.49-19.37-42.9-25.85
		c-2.92-3.18-2.63-5.96,0.65-9.25c1.88,0.82,3.95,1.52,5.81,2.58c11.78,6.65,23.32,13.59,34.35,21.58
		c20.73,15.01,42.7,28.15,65.73,39.45c12.62,6.19,25.1,12.64,37.63,19C881,640.95,882.68,642.01,884.73,643.18z"/>
	<path d="M743.71,1773.9c-4.02-5.4-6.09-11.35-7.98-17.23c-7.31-22.7-16.26-44.77-24.99-66.94c-5.05-12.83-9.33-25.97-13.7-39.06
		c-4.07-12.19-9.37-23.78-16.04-35.13c0.17-3.2,1.23-6.02,4.31-7.29c3.34,0.22,4.29,2.43,5.15,4.46c3.21,7.62,6.53,15.22,9.34,22.99
		c3.49,9.66,6.62,19.47,9.74,29.26c4.81,15.07,11.61,29.32,17.73,43.86c4.95,11.77,9.17,23.86,13.69,35.81
		c1.77,4.69,3.63,9.37,5.14,14.14c0.9,2.84,1.4,5.84,1.73,8.81C748.12,1770.22,747.31,1772.55,743.71,1773.9z"/>
	<path d="M385.87,756.9c-4.18,2.42-4.18,2.42-8.09,2.24c-3.67-52.65-7.21-105.33-13.08-157.29c2.89-2.64,5.18-2.42,7.79-0.89
		c2.07,4.2,2.54,8.96,3,13.67c1.49,15.24,3.04,30.48,4.15,45.74c1.53,21.04,2.65,42.11,4.02,63.16c0.64,9.77,1.47,19.52,2.19,29.28
		C385.95,754.06,385.87,755.31,385.87,756.9z"/>
	<path d="M672.57,1102.14c1.97,0.44,3.28,0.45,4.27,1.01c4.13,2.35,8.56,4.4,12.18,7.4c16.62,13.76,34.11,26.42,50.1,41.04
		c14.05,12.84,29.71,23.91,44.67,35.75c8.46,6.7,16.97,13.34,25.38,20.11c1.94,1.56,3.79,3.33,5.3,5.31
		c1.53,2.01,2.5,4.39,0.12,7.31c-1.24-0.62-2.63-1.06-3.7-1.9c-6.74-5.22-13.39-10.54-20.09-15.81
		c-11.25-8.83-22.58-17.55-33.74-26.49c-8.8-7.06-17.4-14.38-26.08-21.59c-7.52-6.25-15.01-12.53-22.56-18.74
		c-4.65-3.83-9.27-7.7-14.1-11.28c-5.43-4.03-11.15-7.68-16.61-11.67c-1.96-1.44-3.87-3.19-5.16-5.21
		C671.85,1106.28,672.51,1104.3,672.57,1102.14z"/>
	<path d="M619.44,857.82c-0.7-1.2-1.4-2.39-2.35-4.01c6.65-3.4,12.82-6.64,19.05-9.72c24.76-12.25,49.46-24.6,74.33-36.61
		c11.97-5.78,24.21-10.99,36.41-16.28c2.95-1.28,6.2-1.85,9.45-2.78c2.03,3.23,0.27,4.79-1.86,6.35
		c-8.93,6.56-18.44,12.15-28.52,16.72c-7.54,3.42-15.19,6.59-22.8,9.87c-0.46,0.2-0.96,0.32-1.4,0.56
		c-18.45,10.23-38.38,17.33-57.12,26.94c-3.8,1.94-7.5,4.08-11.33,5.94C629.25,856.76,625.18,858.86,619.44,857.82z"/>
	<path d="M645.37,785.1c1.03,2.4,1.79,4.16,2.75,6.39c-2.9,3.58-5.52,7.25-8.57,10.51c-8.94,9.53-18.61,18.27-28.97,26.25
		c-1.78,1.38-3.4,2.97-5.06,4.51c-18.44,17.01-36.87,34.03-55.14,50.89c-3.96,1-6.74,0.42-7.93-4.02c0.9-1.1,1.69-2.38,2.76-3.35
		c32.63-29.38,64.82-59.23,96.6-89.53C642.47,786.1,643.56,785.91,645.37,785.1z"/>
	<path d="M697.57,1018.67c-0.48,3.04-0.81,5.17-1.1,7c-3.7,2.74-7.5,2.82-11.24,2.91c-11.79,0.29-23.62-0.03-35.37,0.79
		c-17.24,1.21-34.6,0.21-51.76,3.27c-7.86,1.4-15.99,1.42-24,1.87c-2.95,0.17-5.92-0.21-8.36-0.31c-2.65-2.97-2.53-5.5-1.24-8.3
		c10.14-0.67,20.1-1.34,30.06-1.99c1.5-0.1,3.05,0.05,4.51-0.27c12.36-2.68,24.9-2.68,37.45-3.06c18.55-0.56,37.09-1.6,55.64-2.4
		C693.6,1018.13,695.06,1018.44,697.57,1018.67z"/>
	<path d="M433.83,1213.51c0.26-1.86,0.14-4.53,3.53-5.96c0.79,0.97,2.01,1.91,2.46,3.13c4.45,12,8.77,24.05,13.13,36.09
		c0.17,0.47,0.35,0.94,0.54,1.41c8.91,21.31,17.84,42.61,26.73,63.93c3.96,9.51,7.89,19.04,11.71,28.61
		c1.49,3.73,2.53,7.62,0.95,11.82c-1.11,0-2.07,0-3.65,0c-2.01-3.74-4.41-7.56-6.18-11.64c-7.31-16.82-14.46-33.71-21.58-50.61
		c-1.65-3.93-2.98-7.99-4.46-11.99c-3.29-8.92-6.5-17.86-9.91-26.74c-2.87-7.49-6.15-14.82-8.89-22.35
		C436.52,1224.52,435.5,1219.6,433.83,1213.51z"/>
	<path d="M192.14,793.52c3.97,1.51,5.57,3.53,6.77,6.12c2.75,5.91,5.9,11.64,8.48,17.62c5.16,11.94,10.36,23.87,14.95,36.04
		c3.61,9.58,6.27,19.52,9.45,29.27c3.03,9.27,6.22,18.48,9.27,27.74c1.56,4.74,2.97,9.53,4.64,14.92c-1.72,1.3-3.38,2.55-5.36,4.05
		c-1.09-1.5-2.07-2.38-2.47-3.46c-3.99-11.07-8.01-22.14-11.79-33.29c-7.32-21.6-14.15-43.37-23.02-64.43
		c-3.5-8.3-6.19-16.95-9.07-25.5C193.13,800.03,192.88,797.27,192.14,793.52z"/>
	<path d="M404.67,1583.67c-2.16,1.86-3.97,3.42-5.53,4.76c-3.93-1.31-3.28-4.15-3.75-6.49c-3.24-16.08-3.32-32.42-3.85-48.71
		c-0.39-12.04-0.47-24.09-0.81-36.12c-0.18-6.25-0.63-12.5-1.04-20.4c1.14-3.15,1.99-7.93,0.99-13.09c-0.76-3.94-0.01-4.44,4.8-6.32
		c0.45,1.36,1.21,2.67,1.3,4.03c0.81,13.26,2.34,26.44,2.66,39.78c0.56,23.81,0.56,47.69,4.45,71.32
		C404.45,1575.86,404.39,1579.4,404.67,1583.67z"/>
	<path d="M798.69,1112.46c-1.06-2.63-1.87-4.65-3.04-7.58c2.74,0.32,4.7,0.26,6.48,0.81c9.58,2.96,19.13,6,28.65,9.16
		c9.52,3.16,19.05,6.31,28.46,9.78c14.83,5.47,29.56,11.2,44.33,16.82c7.5,2.85,15.03,5.64,22.5,8.58c2.97,1.17,6.33,2.18,6.42,6.69
		c-2.49,2.6-5.62,1.41-8.28,0.64c-7.65-2.22-15.34-4.45-22.74-7.37c-18.41-7.26-36.52-15.26-55.02-22.26
		c-11.71-4.43-23.9-7.57-35.87-11.33C806.76,1115.22,802.99,1113.9,798.69,1112.46z"/>
	<path d="M283.19,1249.09c-2.78-2.07-4.6-2.77-5.23-4.04c-1.07-2.17-1.96-4.72-1.89-7.07c0.1-3.48,1.18-6.91,1.71-10.39
		c2.75-18.13,5.29-36.3,8.22-54.4c2.6-16.09,5.6-32.12,8.48-48.17c0.26-1.46,0.91-2.86,1.34-4.15c2.55-2.22,4.98-3.9,8.57-0.9
		C294.9,1161.77,290.81,1204.76,283.19,1249.09z"/>
	<path d="M688.27,1273.83c-0.77,1.13-1.44,2.12-2.09,3.06c-7.58-0.41-13.61-3.49-19.07-8.22c-9.47-8.21-18.87-16.53-28.75-24.22
		c-14.04-10.93-28.5-21.31-42.74-31.99c-1.95-1.46-3.66-3.23-5.11-4.53c-0.06-4.07,1.77-5.82,4.97-6.8
		C627.63,1223.51,659.14,1246.92,688.27,1273.83z"/>
	<path d="M139.55,497.11c3.18-2.06,5.22-0.35,8.04,1.08c0.94,3.49,2.31,7.27,2.95,11.18c1.53,9.28,4.47,18.08,8.86,26.31
		c7.13,13.36,11.75,27.65,15.84,42.09c2.1,7.43,2.84,15.25,4.05,22.92c1.25,7.9,2.91,15.81,3.29,23.76
		c0.36,7.55,3.34,14.47,3.29,22.3c-1.05-1.77-2.34-3.45-3.11-5.34c-4.56-11.21-7.46-22.88-9.21-34.84
		c-3.01-20.7-9-40.57-16.91-59.87c-2.66-6.5-5.97-12.73-9.01-19.07c-4.28-8.92-6.17-18.55-8.39-28.07
		C139.09,498.89,139.41,498.11,139.55,497.11z"/>
	<path d="M1780.96,637.27c-1.23-1.7-2.33-3.22-3.82-5.28c2.07-2.21,3.64-4.49,5.75-6.03c7.29-5.32,14.73-10.43,22.17-15.55
		c8.67-5.96,17.55-11.65,26.08-17.81c11.57-8.36,22.85-17.14,34.37-25.58c3.98-2.92,8.3-5.38,12.1-7.82
		c3.53,1.34,3.18,3.58,2.83,5.8c-16.43,12.51-32.53,25.22-49.1,37.27C1814.93,614.18,1798.06,625.43,1780.96,637.27z"/>
	<path d="M512.1,1298.02c-4.13-6.82-8.1-12.53-10.46-19.21c-4.19-11.84-8.34-23.69-12.85-35.4c-2.34-6.07-5.43-11.85-8.13-17.78
		c-4.37-9.59-8.93-19.11-12.91-28.86c-1.49-3.64-1.76-7.83-2.21-11.82c-0.31-2.75,0.43-5.4,2.94-8.05c1.03,1.7,1.91,2.8,2.42,4.05
		c5.11,12.55,10.23,25.1,15.22,37.7c3.24,8.17,6.15,16.47,9.43,24.63c5.71,14.21,11.56,28.37,17.4,42.53
		C514.5,1289.6,515.94,1293.31,512.1,1298.02z"/>
	<path d="M187.7,778.22c-1.37-1.03-2.55-1.53-3.11-2.42c-1.2-1.9-2.22-3.94-3.06-6.03c-8.85-22.1-17.72-44.2-26.44-66.35
		c-3.45-8.75-3.65-18.04-4.3-26.97c2.62-1.6,4-0.43,4.77,1.22c1.8,3.84,3.43,7.76,4.98,11.71c1.73,4.4,3.31,8.87,4.93,13.32
		c4.62,12.69,9.47,25.31,13.78,38.11c3.09,9.2,5.42,18.66,8.16,27.98C188.25,771.67,188.74,774.5,187.7,778.22z"/>
	<path d="M560.64,689.96c2.27-3.03,3.63-4.76,4.9-6.55c9.88-13.87,20.38-27.23,31.67-40c8.63-9.77,16.84-19.9,25.35-29.78
		c4.42-5.13,8.99-10.13,13.64-15.05c1.67-1.77,3.78-3.12,6.03-4.95c1.17,1.61,1.98,2.73,3.06,4.21
		c-23.91,32.86-51.61,62.05-80.01,90.62C564.57,689.17,563.16,689.18,560.64,689.96z"/>
	<path d="M851.83,752.41c-11.34,7.46-22.14,13.79-33.88,18.28c-13.1,5.02-26.4,9.52-39.6,14.29c-2.82,1.02-5.58,2.25-8.81,3.57
		c-1.43-0.71-3.13-1.56-4.76-2.37c0.24-0.85,0.21-1.54,0.52-1.75c2.47-1.7,4.85-3.65,7.55-4.9c21.18-9.83,42.42-19.54,63.66-29.24
		c2.28-1.04,4.62-2.07,7.05-2.58c1.6-0.33,3.57-0.08,5.05,0.6C849.74,748.84,850.36,750.45,851.83,752.41z"/>
	<path d="M503.15,1742.73c-2.98-1.73-2.84-4.13-3.15-6.31c-1.62-11.43-3.01-22.9-4.87-34.3c-2.67-16.38-4.28-32.81-4.69-49.42
		c-0.2-7.97-2.13-15.89-3.38-23.82c-0.35-2.23-1.02-4.41,1.95-6.13c0.85,0.84,2.07,1.5,2.43,2.48c1.65,4.45,3.44,8.82,3.63,13.74
		c0.34,9.02,0.8,18.06,1.72,27.03c0.79,7.72,2.13,15.4,3.54,23.04c1.68,9.12,3.88,18.15,5.47,27.29c0.98,5.66,1.49,11.42,1.74,17.16
		C507.69,1737.02,506.74,1740.46,503.15,1742.73z"/>
	<path d="M204.33,707.24c5.49,1.87,7.72,5.13,8.62,9.21c4.15,18.82,13.85,35.46,20.7,53.21c3.25,8.42,6.65,16.79,9.76,25.26
		c1.29,3.51,2.1,7.22,0.49,11.42c-1.62,0.11-3.23,0.23-5.13,0.36c-1.17-4.19-1.84-8.17-3.36-11.8c-7.25-17.36-14.55-34.7-22.18-51.9
		c-4.3-9.7-8.17-19.45-9.25-30.08C203.83,711.31,204.17,709.66,204.33,707.24z"/>
	<path d="M304.84,713.22c6.42-0.45,9.13,1.16,11.68,7.05c3.09,7.13,6.34,14.2,9.01,21.49c5.94,16.23,11.58,32.57,17.32,48.86
		c0.33,0.93,0.5,1.92,0.93,3.61c-1.9,1.2-3.88,2.46-6.55,4.14c-1.12-2.45-2.05-4.12-2.69-5.9c-5.44-15.09-10.6-30.29-16.3-45.28
		c-4-10.52-8.73-20.77-13.07-31.16C304.82,715.19,304.94,714.17,304.84,713.22z"/>
	<path d="M309.78,570.35c5.35,0.48,5.99,4.46,6.79,8.07c0.59,2.68,0.53,5.49,0.99,8.21c2.37,14.1,4.8,28.19,7.22,42.27
		c1.11,6.44,2.35,12.85,3.36,19.3c0.82,5.2,0.7,5.22-1.56,11.38c-1.42,0-3.02,0-4.74,0c-0.43-1.22-0.9-2.12-1.06-3.07
		c-3.67-21.8-7.41-43.59-10.89-65.42c-0.87-5.44-1.01-11-1.26-16.52C308.57,573.22,309.36,571.81,309.78,570.35z"/>
	<path d="M692.78,547.61c-1.88-1.08-3.33-1.91-4.77-2.74c0.16-1.04,0.02-1.97,0.42-2.44c2.58-3.06,5.1-6.2,7.95-8.99
		c13.78-13.46,27.63-26.86,41.56-40.17c1.71-1.63,4.01-2.64,6.52-4.25c1.5,2.07,2.59,3.56,3.67,5.06c-1.79,2.99-3.32,5.54-4.86,8.09
		c-0.18-0.17-0.36-0.34-0.54-0.51c-4.19,4.18-8.29,8.45-12.58,12.53c-7.96,7.55-15.96,15.07-24.08,22.44
		C701.99,540.31,697.61,543.63,692.78,547.61z"/>
	<path d="M652.34,679.73c0.44,2.31,0.72,3.74,0.99,5.14c-3.84,5.9-8.95,10.27-14.25,14.53c-4.68,3.76-9.1,7.83-13.67,11.73
		c-1.91,1.63-3.78,3.33-5.86,4.7c-6.49,4.28-13.04,8.46-19.63,12.58c-2.08,1.3-4.36,2.28-6.84,3.57c-1.48-1.81-2.68-3.26-4.62-5.63
		c2.01-1.57,3.75-2.96,5.53-4.29c18.23-13.69,36.46-27.39,54.73-41.03C649.45,680.47,650.51,680.36,652.34,679.73z"/>
	<path d="M441.57,849.12c-0.43-0.12-1.56-0.43-2.8-0.77c0.15-1.09-0.02-2.05,0.38-2.46c2.61-2.7,5.18-5.48,8.07-7.86
		c9.5-7.8,19.04-15.53,28.73-23.1c9.09-7.09,18.35-13.97,27.59-20.86c1.73-1.29,3.53-2.81,6.44-2.1c0.81,3.79-1.29,6.85-3.3,9.44
		c-2.89,3.73-6.14,7.43-9.93,10.16c-13.23,9.5-26.73,18.62-40.18,27.8C451.84,842.61,446.98,845.62,441.57,849.12z"/>
	<path d="M516.82,412.62c-0.68-3.53-1.05-5.47-1.43-7.46c1.52-5.8,3.02-11.6,4.56-17.39c2.45-9.17,4.93-18.33,7.41-27.5
		c2.67-9.86,3.76-20.28,9.97-28.91c1.25-1.74,2.69-3.36,4.05-5.05c4.4,3.77,4.89,5.82,3.08,10.71c-2.08,5.63-4.2,11.25-6.2,16.92
		c-3.24,9.19-6.51,18.38-9.52,27.65c-1.53,4.72-2.59,9.59-3.79,14.41C523.58,401.58,521.26,406.67,516.82,412.62z"/>
	<path d="M194.16,1175.16c-0.07,1.15,0.18,2.43-0.25,3.42c-2.47,5.74-4.78,11.59-7.72,17.08c-6.64,12.36-13.85,24.42-20.36,36.84
		c-3.71,7.09-6.47,14.67-9.73,22c-2.45,5.49-5.03,10.93-7.55,16.4c-1.69,3.67-4.48,5.84-9.24,6.85c0-1.72-0.43-3.21,0.07-4.27
		c6.38-13.61,12.76-27.23,19.43-40.7c2.88-5.82,6.28-11.4,9.75-16.9c7.51-11.87,15.4-23.49,20.99-36.46
		c0.74-1.71,1.89-3.23,2.85-4.85C192.99,1174.76,193.57,1174.96,194.16,1175.16z"/>
	<path d="M825.8,832.77c3.42,3.17,3.42,3.17,4.29,7.29c-22.15,6.77-44.36,13.56-66.98,20.47c-0.63-1.95-1.06-3.23-1.6-4.9
		C781.03,841.98,803.51,837.89,825.8,832.77z"/>
	<path d="M689.71,1455.83c-3.08,0.55-4.92,0.87-6.7,1.19c-1.33-1.4-2.57-2.34-3.35-3.57c-5.52-8.64-10.94-17.34-16.41-26.02
		c-3.2-5.08-6.48-10.11-9.62-15.22c-3.14-5.1-3.26-5.8-2.98-11.69c1.52-0.61,3.24-1.3,5.46-2.19
		C668.55,1416.59,680.3,1434.75,689.71,1455.83z"/>
	<path d="M180.52,999.1c1.14,1.86,2.28,3.72,3.6,5.86c-3.96,3.37-8.11,5.96-12.87,7.52c-9.28,3.03-18.4,6.36-27.15,10.83
		c-5.75,2.94-12.08,4.76-18.2,6.94c-1.07,0.38-2.4,0.05-4.3,0.05c0.2-2.35,0.37-4.43,0.49-5.86c5.58-5.03,12.06-6.3,18.1-8.58
		c1.86-0.7,3.95-1.18,5.44-2.38c6.2-5,13.48-7.52,20.92-9.81C171.05,1002.3,175.51,1000.75,180.52,999.1z"/>
	<path d="M304.08,528.64c-1.37,0.38-2.74,0.76-4.48,1.24c-0.82-1.86-1.93-3.36-2.12-4.96c-1.71-15.2-5.31-30.2-4.92-45.63
		c0.1-4.04,0.47-7.97,2.78-11.95c1.64,0.42,3.21,0.82,5.12,1.3c0.53,3.17,1.33,6.09,1.47,9.05
		C302.73,494.39,307.98,510.87,304.08,528.64z"/>
	<path d="M452.21,774.58c-3.24,0.96-5.59,1-7.79-0.27c0-0.87-0.18-1.46,0.03-1.83c8.29-14.99,12.65-31.56,18.96-47.34
		c1.28-3.21,2.85-6.3,4.3-9.48c2.29,0,3.95,0,5.46,0c0.38,0.7,0.88,1.17,0.81,1.54c-0.57,3.18-0.84,6.49-1.94,9.49
		c-4.55,12.47-9.25,24.88-14.15,37.22C456.43,767.6,454.16,770.97,452.21,774.58z"/>
	<path d="M515.74,1141.8c-7.88-1.53-18.19-8.14-50.07-31.95c-1.01-2.65-0.99-5.18,2.04-7.69c1.54,0.81,3.51,1.4,4.9,2.64
		c10.18,9.1,22.42,15.11,33.58,22.74c3.29,2.25,6.51,4.68,9.43,7.39C517.47,1136.67,518.68,1139.07,515.74,1141.8z"/>
	<path d="M1740.35,866.18c0-1.43,0-2.39,0-3.58c15.25-11.32,30.53-22.65,45.83-34c4.36,4.23,4.56,7.97,0.23,11.67
		c-2.66,2.28-5.54,4.34-8.47,6.28c-8.99,5.98-17.99,11.94-27.1,17.72C1747.93,866.12,1744.77,867.92,1740.35,866.18z"/>
	<path d="M786.43,670.08c1.67,1.93,3.21,3.71,4.86,5.61c-1.1,1.71-1.64,3.24-2.71,4.1c-12.13,9.69-24.32,19.3-36.55,28.85
		c-2.1,1.64-4.3,3.64-7.56,1.91c-0.07-0.68-0.46-1.63-0.15-2.03c2.98-3.9,5.61-8.22,9.22-11.45c9.5-8.51,19.42-16.54,29.2-24.73
		C783.65,671.58,784.79,671.07,786.43,670.08z"/>
	<path d="M477.19,391.65c-2.16-1.83-3.44-2.92-5.1-4.34c0.43-4.64,0.69-9.35,1.33-14.02c1.62-11.9,3.53-23.72,8.06-34.99
		c1.45-3.62,3.43-6.54,6.87-9.11c0.84,2.75,0.11,5-0.77,7.23c-1.7,4.31-1.65,8.75-1.36,13.28c0.2,3.19,0.08,6.44-0.32,9.61
		c-0.76,5.93-1.8,11.83-2.77,17.73C482.29,382.04,479.91,386.39,477.19,391.65z"/>
	<path d="M702.13,648.82c0.8-5.49,0.8-5.49,9.51-13.07c3.06-2.07,6.19-4.03,9.15-6.23c7.8-5.79,15.5-11.72,23.32-17.48
		c1.12-0.83,2.7-1.04,3.93-1.49c3.83,1.62,4.09,4.34,3.25,7.81c-13.86,10.91-29.05,20.07-44.12,29.41
		C706.01,648.5,704.32,648.39,702.13,648.82z"/>
	<path d="M696.64,1478.92c4.46-1.21,6.37,0.62,7.92,3.05c1.62,2.53,3.26,5.06,4.69,7.7c4.65,8.56,9.32,17.1,13.74,25.78
		c1.33,2.6,1.86,5.61,2.83,8.69c-1.52,1.59-2.81,2.94-4.27,4.46c-1.18-0.88-2.24-1.29-2.67-2.05c-6.08-10.64-12.41-21.17-17.93-32.1
		C698.67,1489.91,698.13,1484.48,696.64,1478.92z"/>
	<path d="M582.53,1591c-1.15,1.7-2.49,3.67-4.16,6.13c-1.64-1.4-3.09-2.1-3.68-3.25c-1.25-2.42-2.14-5.04-3.02-7.63
		c-2.39-7.1-4.43-14.33-7.11-21.32c-2.98-7.78-4.87-15.75-5.78-23.99c-0.07-0.6,0.43-1.27,0.77-2.18c4.88,1.94,4.01,6.6,5.36,10.05
		C575.01,1560.89,578.52,1575.73,582.53,1591z"/>
	<path d="M910.73,1527.05c3.24,2.83,5.12,4.35,6.87,6.01c4.36,4.14,8.79,8.22,12.94,12.56c6.24,6.52,12.46,13.08,18.27,19.98
		c2.25,2.68,4.89,5.9,2.92,10.67c-1.46-0.56-3-0.76-3.95-1.61c-2.99-2.67-5.73-5.63-8.63-8.41c-6.53-6.24-13.02-12.52-19.67-18.63
		c-4.56-4.19-8.17-8.87-9.29-15.09C909.98,1531.44,910.38,1530.23,910.73,1527.05z"/>
	<path d="M1664.01,1414.64c0.49-3.93,2.21-5.75,6.15-6.37c8.67,11.03,18.09,21.93,25.14,34.62c0.14,4.68,5.19,7.93,3.94,13.47
		c-2.95,0-4.38-1.88-5.85-3.83c-4.67-6.17-9.35-12.35-14.14-18.43c-4.16-5.29-8.5-10.45-12.71-15.7
		C1665.62,1417.25,1664.88,1415.95,1664.01,1414.64z"/>
	<path d="M199.92,1064.41c2.54,4.37,1.53,8.04-0.97,11.41c-1.17,1.58-2.83,2.84-4.39,4.08c-9.02,7.19-18.01,14.41-27.16,21.44
		c-2.31,1.78-5.14,2.9-7.85,4.39c-2.82-4.33-0.77-7.12,1.8-9.59c2.34-2.26,4.91-4.29,7.43-6.35
		C179.05,1081.41,189.32,1073.05,199.92,1064.41z"/>
	<path d="M249.72,1422.81c-1.68-0.58-3.34-0.7-4.27-1.59c-0.97-0.94-1.64-2.59-1.7-3.96c-0.1-2.22,0.21-4.5,0.69-6.69
		c2.31-10.48,4.79-20.92,7.08-31.4c0.61-2.81,1.66-5.3,4-6.98c0.89-0.64,2.2-0.67,3.34-0.99
		C260.97,1380.24,255.94,1408.94,249.72,1422.81z"/>
	<path d="M120.43,535.26c1.52,0.29,2.66,0.51,4.09,0.78c0.61,2.56,1.16,4.96,1.77,7.35c0.43,1.67,0.6,3.57,1.53,4.93
		c3.69,5.41,4.47,11.54,5.01,17.8c0.52,5.98,1.22,11.94,1.77,17.91c0.13,1.44,0.02,2.91,0.02,5.1c-2.16-0.99-3.66-1.68-4.93-2.27
		c-0.52-0.98-1.03-1.6-1.2-2.3c-2.87-11.64-5.72-23.29-8.49-34.96c-0.46-1.93-0.71-3.97-0.63-5.95
		C119.5,540.97,120.03,538.3,120.43,535.26z"/>
	<path d="M642.98,1384.1c-4.95,1.54-7.02-1.12-8.94-3.79c-4.83-6.73-9.57-13.53-14.33-20.32c-2.28-3.26-4.53-6.54-6.93-10
		c1.37-2.29,2.48-4.14,3.85-6.43c1.61,1.11,3.09,1.68,3.88,2.76c7.95,10.97,16.23,21.73,22.4,33.87
		C643.4,1381.14,642.98,1382.55,642.98,1384.1z"/>
	<path d="M577.82,358.02c-1.82-0.94-3.07-1.59-4.14-2.14c0.13-15.53,7.58-34.97,15.58-39.9c1.22,5.8,1.31,11.52,0,16.85
		C587.07,341.74,584.02,350.48,577.82,358.02z"/>
	<path d="M195.25,1373.97c2.04-0.16,3.63-0.28,4.83-0.37c3.75,4.36-4.03,32.5-11.59,43.59c-0.81-0.35-1.67-0.73-2.99-1.31
		C185.28,1401.34,189.42,1387.92,195.25,1373.97z"/>
	<path d="M388.65,1435.05c-0.65-3.12-1.63-5.27-1.43-7.3c0.86-8.58-1.65-16.88-1.81-25.36c-0.05-3.01-0.51-6.03-0.37-9.03
		c0.26-5.57,2.58-7.83,8.2-8.39c0.16,0.69,0.47,1.4,0.48,2.11c0.08,11.55,0.26,23.11,0.08,34.65c-0.05,3.43-1.03,6.89-1.89,10.25
		C391.67,1432.9,390.32,1433.54,388.65,1435.05z"/>
	<path d="M927.52,710.19c2.51,1.99,3.14,4.75,3.06,8.62c-11.32,4.91-22.74,9.86-33.92,14.7c-1.7-1.03-2.79-1.62-3.79-2.33
		c-0.34-0.25-0.45-0.82-1-1.9c1.4-1.33,2.83-3,4.55-4.27C900.44,722.04,923.34,711.23,927.52,710.19z"/>
	<path d="M293.44,407.91c-1.65,0.09-2.61,0.14-4.24,0.23c-0.95-2.22-2.29-4.38-2.79-6.72c-2.42-11.49-4.88-22.99-4.82-34.85
		c4.14-1.55,6.56,0.72,9.18,2.42c0.69,6.78,1.09,13.29,2.07,19.71C293.78,394.89,295,401,293.44,407.91z"/>
	<path d="M742.87,1019.9c0-1.72,0-3.15,0-5.29c11.42-3.15,23.02-4.29,34.4-5.54c2.46,2.77,2.03,5.43,1.3,8.48
		c-3.26,2.67-7.41,2.16-11.31,2.56c-3.99,0.41-7.98,0.92-11.98,1.01C751.36,1021.2,747.29,1022.56,742.87,1019.9z"/>
	<path d="M122.84,855.61c1.23-1.16,1.73-1.63,2.5-2.37c7.98,4.72,16.02,9.13,22.2,16.29c5.45,6.31,11.7,11.77,19.2,15.52
		c5.29,2.64,7.77,7.6,10.8,12.14c0.29,0.43-0.18,1.37-0.45,3.02C158.86,885.22,141.13,870.65,122.84,855.61z"/>
	<path d="M381.47,1214.85c1.24,2.58,2.23,3.84,2.44,5.22c1.87,12.19,2.31,24.43,0.81,36.69c-0.24,1.97-0.56,4.13-4.02,3.97
		c-0.47-1.69-1.28-3.5-1.44-5.37c-0.63-7.25-1-14.53-1.59-21.79c-0.24-2.98-0.96-5.92-1.16-8.91c-0.13-1.95-0.14-4.12,0.59-5.86
		C377.67,1217.43,379.46,1216.58,381.47,1214.85z"/>
	<path d="M515.8,1411.74c-1.73,0.4-3.02,0.71-4.99,1.16c-3.15-7.34-6.2-14.38-9.2-21.44c-1.47-3.44-2.77-6.96-4.33-10.36
		c-1.1-2.4-1.6-4.85-0.48-7.23c0.53-1.13,1.92-1.85,3.32-3.12c2.9,4.44,5.63,8.23,7.13,12.78c2.42,7.36,4.93,14.69,7.3,22.07
		C515.13,1407.45,515.33,1409.42,515.8,1411.74z"/>
	<path d="M239.17,1558.73c-3.41,0.91-5.68,0.57-7.12-2.03c-0.09-0.57-0.38-1.14-0.22-1.53c2.82-6.9,2.9-14.07,2.54-21.38
		c-0.2-4.23,0.66-8.44,4.49-11.97c3,2.05,3.96,4.96,4.02,8.21c0.11,5.76,0.11,11.52,0,17.27
		C242.8,1551.4,241.24,1555.06,239.17,1558.73z"/>
	<path d="M486.07,677.23c4.07-11.61,7.85-22.38,11.84-33.78c2.35,0.43,4.38,0.8,6.89,1.26c-0.02,12.16-6.56,21.55-8.89,31.13
		C492.67,678.83,490.12,678.51,486.07,677.23z"/>
	<path d="M774.05,1618.59c-3.12,2.86-3.12,2.86-8.21,2.84c-4.97-10.23-10.08-20.71-15.1-31.23c-0.2-0.42,0.49-1.26,0.77-1.89
		C761.04,1591.58,768.97,1604.03,774.05,1618.59z"/>
	<path d="M459.48,1162.86c-1.03-0.6-2.24-0.87-2.56-1.56c-5.04-10.62-10.22-21.19-14.78-32.01c-1.48-3.51-0.45-7.38,4.07-9.55
		c0.86,1.67,1.8,3.12,2.4,4.71c3.74,9.84,7.46,19.68,11.06,29.57C460.65,1156.73,461.68,1159.62,459.48,1162.86z"/>
	<path d="M857.86,915.9c1.66,2.16,2.64,4.56,0.89,7.89c-1.13,0.29-2.52,0.86-3.95,0.97c-6.76,0.54-13.53,1-20.3,1.39
		c-3.64,0.21-7.04-0.36-9.18-3.82c0.43-2.36,2.14-3.52,4.14-3.88c8.86-1.58,17.62-4.1,26.78-3.14
		C856.72,915.36,857.17,915.64,857.86,915.9z"/>
	<path d="M403.56,1128.5c2.99,3.82,12.98,31.15,13.92,38.31c-1.35,0.45-2.81,0.94-4.76,1.6c-1.4-2.81-2.68-5.2-3.8-7.67
		c-1.75-3.88-3.59-7.75-5.03-11.75c-1.51-4.22-2.82-8.54-3.78-12.91C399.44,1132.95,400.53,1130.18,403.56,1128.5z"/>
	<path d="M669.05,383.58c-2.52-2.06-3.99-3.27-5.86-4.79c4.82-12.25,11.54-22.85,20.48-32.79c1.17,1.04,2,1.78,3.19,2.84
		C681.03,360.26,677,372.31,669.05,383.58z"/>
	<path d="M910.63,1365.76c7.82,3.57,13.13,7.77,18.78,11.4c2.32,1.49,4.42,3.34,6.77,4.78c3.4,2.08,5.45,5.02,6.68,9.21
		c-2.87,1.06-5.45,0.02-7.66-1.14c-5.77-3.03-11.36-6.41-17-9.68c-3.38-1.97-5.72-4.94-7.2-8.46
		C910.42,1370.48,910.77,1368.72,910.63,1365.76z"/>
	<path d="M936.07,1264.4c1.56-0.14,2.98-0.26,4.33-0.39c11.34,8.65,23.5,15.91,34.29,26.01c-3.2,0.95-5.52,0.04-7.65-1.06
		c-8.43-4.33-16.94-8.55-25.11-13.35C938.2,1273.42,934.7,1270.23,936.07,1264.4z"/>
	<path d="M275.58,1294.55c0.25,2,0.78,3.66,0.61,5.25c-0.88,8.58-5.42,25-8.13,29.13c-1.3-0.81-3.18-1.35-3.8-2.53
		c-1-1.91-1.98-4.44-1.54-6.39c1.62-7.26,3.69-14.44,5.86-21.56C269.36,1295.86,271.63,1294.66,275.58,1294.55z"/>
	<path d="M533.29,847.97c-2.42,0.4-4.83,0.8-7.6,1.26c3.78-6.53,33.63-25.69,43.86-28.32c0.67,0.71,1.46,1.55,2.11,2.24
		c-0.37,0.92-0.42,1.58-0.76,1.79c-7.81,4.83-14.93,10.74-23.58,14.31c-5.02,2.07-9.56,5.33-14.32,8.05
		C533.1,847.51,533.19,847.74,533.29,847.97z"/>
	<path d="M679.44,759.8c7.24-7.05,14.17-13.8,21.54-20.98c2.04,1.88,3.8,3.5,6.03,5.55c-1.24,2.11-2.1,4.17-3.48,5.79
		c-4.54,5.37-9.46,10.37-16.1,13.2C683.43,765.08,682.63,764.71,679.44,759.8z"/>
	<path d="M550.61,753.31c4.63,1.75,4.91,4.65,5.07,8.28c-6.75,7.12-14.38,13.13-24.3,16.64c-1.19-1.75-2.09-3.07-3.31-4.86
		C535.34,765.75,544.41,760.81,550.61,753.31z"/>
	<path d="M497.01,759.48c1.15-1.89,1.86-3.73,3.12-5.04c3.48-3.59,7.21-6.95,10.82-10.41c1.63-1.56,3.25-3.13,4.83-4.74
		c3.17-3.2,6.34-6.4,9.47-9.65c2.44-2.53,4.94-5.01,7.17-7.71c4.46-5.4,8.67-11,13.16-16.37c1.89-2.26,4.23-4.15,7.46-7.28
		c-0.26,3.69-1.24,5.52-2.63,7.14c-1.97,2.28-4.09,4.43-6.06,6.71c-5.07,5.88-10.43,11.55-15.05,17.77
		c-7.54,10.15-17.85,17.62-25.77,27.38C502.23,758.89,500.34,760.47,497.01,759.48z"/>
	<path d="M729.41,1306.34c-0.78,2.58-1.26,4.16-1.88,6.22c-1.92-0.27-3.94,0.02-5.13-0.84c-5.46-3.91-10.84-7.97-15.92-12.36
		c-2.31-2-5.66-3.56-5.68-7.4c1.29-2.58,3.57-2.45,6.81-2.25C714.31,1294.82,721.62,1300.4,729.41,1306.34z"/>
	<path d="M565.58,1213.83c6.7,7.56,12.61,13.98,18.21,20.65c2.2,2.63,3.86,5.75,5.48,8.8c0.41,0.78-0.24,2.12-0.52,4.03
		c-11.04-7.27-18.56-16.71-26.37-26.54C563.47,1218.4,564.45,1216.27,565.58,1213.83z"/>
	<path d="M154.3,1543.1c-1.84-0.43-3.46-0.81-5.47-1.29c-1.26-7.91,3.05-14.1,5.46-20.68c1.23-3.36,2.69-6.97,6.72-8.23
		C165.38,1520.01,163,1531.06,154.3,1543.1z"/>
	<path d="M389.3,1300.25c0.09,4.05,0.04,6.76,0.22,9.46c0.46,6.76,1,13.52,1.57,20.27c0.3,3.55,0.29,6.99-2.69,10.08
		c-2.63-2.7-3.95-6.07-4.58-9.34c-1.18-6.15-1.75-12.42-2.29-18.67C381.1,1307.08,383.49,1303.53,389.3,1300.25z"/>
	<path d="M932.48,1062.83c9.29,0.5,17.91,0.97,26.76,1.44c1.28,2.14,2.38,3.96,3.73,6.22c-8.21,2.98-16.14,3.36-24,2.4
		C934.61,1072.36,932.36,1068.88,932.48,1062.83z"/>
	<path d="M858.76,998.37c2.19,2.85,1.94,5.38,0.24,8.76c-8.2,1.99-16.8,4.27-25.76,4.81c-0.83,0.05-1.7-0.69-3.24-1.37
		c1.06-1.73,1.56-3.74,2.76-4.31C841.04,1002.29,849.66,999.32,858.76,998.37z"/>
	<path d="M811.55,641.82c0.29-2.18,0.57-4.27,0.88-6.55c8.66,1.7,16.66,3.26,25.62,5.02c0.21,0.86,0.65,2.63,0.97,3.92
		c-2.17,3.15-4.66,3.97-7.56,4.07C825.9,648.47,817.74,646,811.55,641.82z"/>
	<path d="M1781.72,599.74c3,1.35,3.63,3.31,3.25,5.33c-0.45,2.41-1.06,4.97-2.32,7.02c-3.29,5.33-6.92,10.45-10.56,15.55
		c-0.95,1.32-2.47,2.24-3.65,3.27c-3.04-1.97-3.35-4.44-2.04-6.85C1770.94,615.72,1775.3,607.24,1781.72,599.74z"/>
	<path d="M162.79,403.43c1.33-1.17,2.79-2.45,4.31-3.79c0.88,0.48,1.63,0.71,2.1,1.19c0.49,0.51,0.92,1.25,1.02,1.93
		c1.46,10.01,5.1,19.35,8.85,28.65c0.17,0.42,0.02,0.98,0.02,2.22c-1.38-0.3-3.24-0.17-3.68-0.89c-5.31-8.69-12-16.78-12.87-27.54
		C162.51,404.96,162.6,404.71,162.79,403.43z"/>
	<path d="M539.62,1481.49c-1.88-1.64-2.86-2.13-3.28-2.91c-3.29-6.15-6.48-12.36-9.64-18.43c0.24-3.02,0.46-5.71,0.7-8.69
		c1.8,0,3.21,0,4.84,0C537.72,1460.32,541.84,1469.33,539.62,1481.49z"/>
	<path d="M507.13,235.29c2.63,10.39-1.07,25.84-8.63,36.77c-0.67-1.5-1.49-2.6-1.62-3.79c-0.13-1.18,0.51-2.43,0.68-3.66
		c0.76-5.44,1.85-10.86,2.08-16.32C499.89,242.77,502.13,238.8,507.13,235.29z"/>
	<path d="M600.47,1063.45c2.2-0.11,3.39-0.55,4.04-0.14c8.27,5.16,16.48,10.41,24.63,15.75c0.63,0.41,0.65,1.75,1.04,2.92
		c-4.97,2.98-9.07,0.48-12.67-1.79C611,1076.11,602.83,1073.47,600.47,1063.45z"/>
	<path d="M197.95,398.04c2.23,0,4.14,0,6.7,0c2.75,9.64,5.89,18.95,6.66,29.69c-2-0.5-3.73-0.44-4.07-1.09
		c-4.34-8.42-9.53-16.55-9.88-26.45C197.35,399.71,197.62,399.23,197.95,398.04z"/>
	<path d="M697.17,1074.06c-9.28,0.05-17.81-3.08-25.98-6.21c-1.55-2.72-2.77-4.88-1.4-7.33c0.63-0.33,1.11-0.8,1.5-0.74
		c8.2,1.42,15.8,4.59,23.23,8.18C696.62,1068.97,698.13,1070.65,697.17,1074.06z"/>
	<path d="M664.5,474.21c-1.75-1.94-2.7-3-3.96-4.39c2.99-7.35,7.91-13.34,11.5-19.82c4.49,0.48,4.49,0.48,7.95,3.43
		c-1.4,6.1-5.87,10.68-9.21,15.82C669.53,471.16,667.04,472.26,664.5,474.21z"/>
	<path d="M580.07,1189.73c-1.07,1.57-2.01,2.94-3.09,4.53c-8.02-3.07-15.31-6.54-19.77-14.64c0.72-1.73,1.44-3.47,1.99-4.79
		C563,1173.44,575.24,1182.35,580.07,1189.73z"/>
	<path d="M604.91,267.59c-0.14-1.64-0.6-3.33-0.37-4.92c0.68-4.68,1.78-9.29,2.42-13.97c0.42-3.12,1.35-5.79,3.67-7.7
		c3.31-0.96,5.5,0.58,7.79,2.85c0.3,4.92-3.43,8.47-5.21,12.68c-1.71,4.06-4.37,7.72-6.62,11.55
		C606.04,267.91,605.48,267.75,604.91,267.59z"/>
	<path d="M1813.12,636.46c2.66,2.9,2.13,5.5,1.07,8.7c-5.85,2.47-12.05,4.66-18.91,6.76c-0.67-2.87-1.1-4.7-1.54-6.57
		C1799.39,640.14,1805.91,638,1813.12,636.46z"/>
	<path d="M794.94,1053.25c-8.13,0-16.26,0-24.28,0c-3.04-1.64-4.87-3.68-3.5-7.86c7.86-0.9,15.52,1.58,23.26,2.74
		c1.9,0.29,3.56,2.19,5.32,3.35C795.49,1052.07,795.22,1052.66,794.94,1053.25z"/>
	<path d="M297.6,1551.17c2.02-6.87,3.9-13.25,5.89-20c3.91,0.43,4.52,3.94,5.12,6.42c1.4,5.76,0.34,11.35-3.1,16.23
		C301.15,1553.61,301.15,1553.61,297.6,1551.17z"/>
	<path d="M544.99,1252.99c0.86-1.62,1.85-3.49,2.95-5.57c5.09,1.91,5.89,6.53,8.07,9.89c2.24,3.44,5.75,6.32,5.88,10.83
		c-2.08,2.13-3.75,0.81-5.49-0.15C550.58,1264.79,547.58,1259.46,544.99,1252.99z"/>
	<path d="M843.88,1462.81c4.07-0.44,5.78,1.54,7.3,3.42c3.44,4.27,6.74,8.66,9.92,13.12c1.07,1.5,1.6,3.38,2.67,5.74
		c-6.16,0.47-10.2-1.74-12.59-6.09C848.45,1474.03,846.47,1468.65,843.88,1462.81z"/>
	<path d="M319.68,293.69c1.29,0.79,2.92,1.79,4.59,2.81c0.38,6.78,0.79,13.27,1.03,19.75c0.03,0.84-0.83,1.71-1.57,3.11
		c-1.37-1.08-3.09-1.72-3.39-2.77c-1.65-5.75-3.1-11.57-4.28-17.43C315.62,296.91,316.3,294.6,319.68,293.69z"/>
	<path d="M417.32,690.41c4.46,8.1,1.98,15.02,1.2,21.41c-2.52,2.31-4.56,3.51-7.91,1.69c0.49-6.08,1-12.43,1.55-19.39
		C413.42,693.23,414.91,692.15,417.32,690.41z"/>
	<path d="M276.37,835.42c1.67,0.08,2.87,0.14,4.22,0.21c3.74,5,5.5,10.78,7.19,16.51c0.42,1.43-0.25,3.52-1.1,4.89
		c-0.64,1.04-2.35,1.43-4.14,2.42c-3.03-6.01-4.17-12.18-6.09-18.03C275.89,839.7,276.37,837.61,276.37,835.42z"/>
	<path d="M247.3,241.62c1.08,5.09,3.31,9.71,2.42,15.51c-2.12,0.29-4.22,0.58-6.69,0.91c-3.4-6.13-4.98-12.18-4.75-18.94
		C241.93,237.75,244.37,239.42,247.3,241.62z"/>
	<path d="M594.58,1313.37c-2.97,3.2-5.18,2.49-6.88,0.9c-1.97-1.84-3.64-4.05-5.16-6.29c-1.81-2.66-3.33-5.52-5.21-8.69
		c0.29-1.86,0.62-4,0.94-6c0.9-0.15,1.6-0.46,1.81-0.26C586.22,1298.86,590.03,1306.28,594.58,1313.37z"/>
	<path d="M457.68,1022.02c-0.31-2.64-1.13-5.4,1.93-7.33c4.71,3.4,9.41,6.6,13.86,10.11c1.2,0.95,1.67,2.83,2.79,4.85
		c-1.86,0.7-3.22,1.74-4.38,1.55C465.91,1030.26,461.38,1026.84,457.68,1022.02z"/>
	<path d="M885.81,1057.56c-0.51,2.04-0.8,3.18-1.02,4.07c-4.8,1.56-9.22,2.99-14.13,4.58c-3.83-1.14-6.32-3.55-5.63-8.75
		C871.79,1055.92,878.32,1056.69,885.81,1057.56z"/>
	<path d="M1712.72,885.11c-6.01,5.58-6.05,5.6-12.76,6c-0.71-1.16-1.55-2.54-2.42-3.96c3.17-4.58,7.16-7.47,11.42-9.87
		C1713.64,879.2,1713.64,879.2,1712.72,885.11z"/>
	<path d="M370.88,1146.31c3.07-4.4,3.1-4.38,7.32-5.74c0,6.4,0.17,12.71-0.13,19c-0.07,1.47-1.71,2.86-3.14,5.07
		C371.36,1158.51,370.65,1152.64,370.88,1146.31z"/>
	<path d="M546.66,1162.72c-0.77,2.07-1.5,4.05-2.35,6.33c-4.94-1.59-7.91-4.65-10.56-7.88c-2.45-2.97-1.93-4.93,1.66-9.32
		C540.7,1153.66,543.13,1158.4,546.66,1162.72z"/>
	<path d="M877.98,1506.5c-0.89-2.59-1.61-4.97-2.52-7.28c-0.78-1.99-1.78-3.89-2.74-5.95c3.5-1.63,5.08,1.13,7.3,1.5
		c3.48,5.4,6.82,10.6,10.44,16.22C884.22,1513.53,881.65,1508.5,877.98,1506.5z"/>
	<path d="M322.08,229.32c0.45,8.68-0.31,14.83-2.66,20.47c-4.23-2.97-2.95-7.57-3.79-11.3c-0.88-3.88-1.24-7.85-0.31-11.95
		C318.82,225.19,320.57,227.12,322.08,229.32z"/>
	<path d="M424.29,1085.12c-5.07-3.03-7.65-7.13-9.25-11.88c-1.39-4.11-0.59-5.6,4-8.91
		C424.28,1070.95,426.37,1078.47,424.29,1085.12z"/>
	<path d="M704.03,393.41c1.95,1.21,3.75,2.32,5.71,3.53c-1.81,6.28-3.65,11.79-10.65,13.93c-1.22-1.6-2.21-2.92-3.19-4.2
		C697.42,401.44,700.01,397.33,704.03,393.41z"/>
	<path d="M1659.32,867.82c2.74,3.3,2.75,6.4,1.71,10.06c-3.69,2.02-7.54,4.13-11.24,6.15c-3.12-2.74-3.34-5.37-1.31-7.79
		C1651.35,872.81,1654.33,869.38,1659.32,867.82z"/>
	<path d="M765.7,1343.98c-7.95-0.1-11.58-6.07-16.02-10.71c1.43-3.31,3.65-4.02,5.77-2.85c3.66,2.02,7.15,4.43,10.43,7.04
		C767.52,1338.78,767.63,1340.95,765.7,1343.98z"/>
	<path d="M447.91,296.98c0.69,5.44,1.34,10.55-0.75,16.23c-1.51-0.74-3.16-1.01-3.8-1.95c-3.42-5.12-4.86-10.73-3.52-16.9
		C443.17,293.21,445.27,294.94,447.91,296.98z"/>
	<path d="M725.91,270.34c-1.38,6.61-8.93,19.27-16.95,29.31c-0.61-1.54-1.61-2.81-1.44-3.9c0.3-1.91,1-3.91,2.08-5.5
		c3.65-5.35,7.47-10.59,11.38-15.75C721.98,273.18,723.55,272.3,725.91,270.34z"/>
	<path d="M762.42,1095.96c-6.49,0.11-12.06-0.08-16.81-3.18c-1.61-2.61-2.33-4.85-0.38-7.68c5.32,0.87,10.34,2.78,14.79,5.88
		C761.19,1091.79,761.46,1093.87,762.42,1095.96z"/>
	<path d="M779.57,1396.58c5.47,3.37,8.93,8.33,10.84,14.72c-0.64,0.71-1.28,1.42-1.99,2.2c-4.22-1.09-7.38-3.56-9.91-6.66
		c-1.16-1.41-1.76-3.56-1.92-5.43C776.42,1399.45,776.99,1397.36,779.57,1396.58z"/>
	<path d="M654.38,1524.99c4.7,9.43,4.92,13.06,1,17.49c-4.19-2.22-5.76-6.42-7.92-10.26
		C648.59,1528.71,649.64,1525.43,654.38,1524.99z"/>
	<path d="M487.45,870.86c2.97-5.04,2.97-5.04,18.84-12.4c0.62,0.85,1.29,1.78,1.93,2.65C501.26,868.9,494.73,872.04,487.45,870.86z"
		/>
	<path d="M320.3,349.75c0-3.64,0-7.12,0-10.85c1.13-0.58,2.15-1.12,2.98-1.55c0.78,0.51,1.47,0.7,1.56,1.05
		c1.29,4.86,5.66,9.06,3.47,14.83C324.61,354.78,322.41,353.14,320.3,349.75z"/>
	<path d="M381.85,1059.7c3.45,5.11,3.75,10.66,5.63,15.6c0.36,0.94-0.3,2.26-0.58,3.95c-4.85-1.35-6.35-5.03-7.81-8.56
		C377.52,1066.94,377.97,1063.41,381.85,1059.7z"/>
	<path d="M851.41,1331.31c-4.03,2.97-6.93-0.44-10.07-0.61c-2.89-2.68-4.88-5.33-2.33-9.1
		C845.86,1321.33,848.8,1323.57,851.41,1331.31z"/>
	<path d="M214.29,922.86c-5.2,0.41-7-3.2-9.84-4.82c-2.79-1.6-5.49-3.34-8.69-5.29c0.96-1.31,1.75-2.38,2.55-3.46
		C205.66,911.26,211.17,914.86,214.29,922.86z"/>
	<path d="M418.76,915.88c4.44-4.15,7.96-7.82,13.54-9.45c0.94,1.39,1.81,2.69,2.58,3.83C430.04,917.31,427.13,918.41,418.76,915.88z
		"/>
	<path d="M813.65,1381.89c6.09-1.07,11.13-0.54,15.12,5.38c-1.29,1.53-2.58,3.07-4.2,5C820.7,1388.54,815.52,1387.37,813.65,1381.89
		z"/>
	<path d="M188.61,932.72c0.42,1.92,0.77,3.1,0.9,4.31c0.07,0.69-0.23,1.42-0.34,2.04c-0.52,0.34-0.91,0.83-1.32,0.84
		c-4.04,0.07-7.52-1.67-11.3-3.2c-0.01-3.15,1.6-4.76,4.38-6.2C183.18,931.17,185.74,931.9,188.61,932.72z"/>
	<path d="M207.05,993.02c0.76-5.02,3.84-7.16,13.56-9.19c0.31,1.04,1.16,2.33,0.83,3.14c-0.61,1.5-1.69,3.01-2.97,3.98
		C216.65,992.33,211.87,992.93,207.05,993.02z"/>
	<path d="M237.6,1044.48c-4.24,2.43-7.98,4.57-12.03,6.89c0.51-7.16,1.39-8.6,7.7-13.04
		C237.41,1039.99,237.41,1039.99,237.6,1044.48z"/>
	<path d="M480.58,1569.83c-4.52-4.17-4.1-8.4-5.26-11.88c0.96-3.3,2.82-4.72,6.48-4.28
		C482.94,1558.96,483.57,1563.92,480.58,1569.83z"/>
	<path d="M821.91,1436.72c5.8,3.13,5.62,8.98,10,12.9c-2.01,0.54-3.34,1.34-3.94,0.97c-2.49-1.54-5-3.2-7-5.28
		c-1.04-1.08-1.43-3.17-1.36-4.78C819.66,1439.37,820.93,1438.25,821.91,1436.72z"/>
	<path d="M790.15,1364.23c0.9-1.34,1.41-2.11,2.18-3.26c4.91,1.52,9.24,3.47,12.24,8.56c-1.17,1.39-2.34,2.78-3.44,4.08
		C795.94,1371.97,794.04,1367.54,790.15,1364.23z"/>
	<path d="M719.96,432.23c0.52-5.74,0.52-5.74,4.16-9.2c4.57,2.9,4.62,3.08,2.68,9.72C724.6,434.44,722.4,434.75,719.96,432.23z"/>
	<path d="M386.7,851.26c0.76,2.51,1.22,3.61,1.4,4.75c0.36,2.16,0.55,4.34,0.78,6.17c-2.04,2.79-4.22,3.12-7.12,2.25
		C380.99,859.59,382.92,855.95,386.7,851.26z"/>
	<path d="M138.44,259.35c3.1-0.69,5.26,0.75,7.21,3.25c0.57,2.6,0.59,5.17-2.07,6.89c-3.1,0.14-4.07-2-4.91-4.05
		C137.87,263.51,136.14,261.47,138.44,259.35z"/>
	<path d="M890.64,1237.59c0.51-0.3,1.24-1.08,1.73-0.95c1.37,0.36,2.96,0.78,3.9,1.73c2.13,2.16,5.66,3.2,6.16,7.28
		c-3.84,0.49-6.94-0.87-9.73-2.78C891.09,1241.76,889.85,1240.05,890.64,1237.59z"/>
	<path d="M1637.06,1381.67c0.86-4.71,3.27-5.15,6.1-4.85c3.09,5.17,3.09,5.17-1.06,10.66
		C1640.31,1385.42,1638.63,1383.49,1637.06,1381.67z"/>
	<path d="M218.48,1119.18c2.04,0.53,3.86,1.01,6.15,1.6c-2.43,4.37-5.96,5.7-10.59,6.89c0-1.76-0.47-3.33,0.1-4.21
		C215.2,1121.88,216.88,1120.71,218.48,1119.18z"/>
</g>
</svg>
