<?xml version="1.0" encoding="utf-8"?>
<!-- Generator: Adobe Illustrator 27.4.0, SVG Export Plug-In . SVG Version: 6.00 Build 0)  -->
<svg version="1.1" id="Calque_1" xmlns="http://www.w3.org/2000/svg" xmlns:xlink="http://www.w3.org/1999/xlink" x="0px" y="0px"
	 viewBox="0 0 2000 2000" style="enable-background:new 0 0 2000 2000;" xml:space="preserve">
<g>
	<path d="M1676.16,665.54c2.9,4.03,5.34,7.43,8.24,11.46c18.37-0.46,35.8,3.86,49.44,16.96c1.7,0.23,2.68,0.41,3.66,0.48
		c15.09,0.95,30.18,1.84,45.27,2.87c2.44,0.17,4.97,0.61,7.22,1.53c6.08,2.49,7.87,7.66,4.97,13.86c-6.8-0.53-13.68-1.07-19.6-1.53
		c-10.25,4.63-19.93,2.02-29.86,2.04c-1.33,0.95-2.92,2.09-4.78,3.41c-7.68,0.35-15.59,0.41-23.45-1.05
		c-13.99-2.6-28.08-3-42.25-1.92c-12.86,0.97-25.72,1.85-39.09,2.8c-2.28-1.89-4.72-3.92-7.6-6.31
		c-19.92-1.33-40.04,1.43-60.19,3.73c-1.14,1.55-2.14,2.91-3.01,4.09c-24.46,4-48.65,7.96-74.18,12.14
		c-0.58,0.97-1.75,2.91-2.48,4.1c-6.85,0.82-12.49,1.49-18.14,2.18c-14.74,1.81-29.48,3.6-44.22,5.48c-1.68,0.21-3.54,0.6-4.91,1.51
		c-10.22,6.79-22.12,8.62-33.7,10.36c-13.45,2.02-27,3.34-40.21,6.71c-4.77,1.22-9.35,3.26-13.96,5.07
		c-3.57,1.4-7.14,2.01-12.11,0.66c-0.79-1.18-2.19-3.25-3.59-5.33c-0.32,0.21-0.63,0.42-0.95,0.63c-0.25-2.15-0.49-4.29-0.72-6.26
		c0.74-0.5,1.1-0.89,1.54-1.01c4.29-1.18,8.71-2.01,12.87-3.53c18.41-6.69,37.54-10.92,56.19-16.77c6.04-1.89,11.68-5.06,17.53-7.59
		c10.46-4.52,20.95-9,31.42-13.51c5.66-2.44,11.32-4.9,17.26-7.47c0.11-2.42,0.22-4.84,0.36-7.87c6.11-2.51,13.03-3.73,18.73-7.76
		c-4.89-5.4-5.11-5.86-6.19-12.64c0.64-0.82,1.4-1.78,2.51-3.2c-7.44-0.97-9.69-6.18-10.52-12.58c0.98-2.98,3.87-3.59,6.27-4.72
		c8.97-4.22,18-8.33,26.99-12.49c1.28-0.6,2.52-1.3,4.71-2.44c-2.07-1.05-3.17-1.9-4.41-2.18c-6.98-1.59-14.01-2.97-20.98-4.57
		c-1.89-0.43-3.66-1.38-5.2-1.99c-2.75-3.56-4.16-7.13-4.18-11.58c3.71-1.82,7.39-3.62,11.48-5.62c-2.68-4.71-6.36-8.48-5.32-14.42
		c4.77-2.55,9.77-5.21,14.75-7.91c4.92-2.68,10.25-4.65,16.02-8.6c-2.91-0.85-4.46-1.39-6.04-1.76c-5.03-1.17-10.12-2.14-15.12-3.45
		c-6.92-1.82-9.22-6.82-8.84-14.25c6.07-2.65,12.33-5.4,19.4-8.49c-4.78-3.34-10.91-3.69-12.62-9.32c-0.77-2.52-0.88-5.23-1.31-7.97
		c6.25-3.13,11.94-5.99,18.49-9.28c-1.66-1.07-2.47-1.88-3.45-2.18c-4.49-1.39-9.06-2.55-13.55-3.95
		c-8.73-2.72-10.21-5.04-9.63-14.93c1.23-0.83,2.59-1.74,4.76-3.2c-8.66-1.22-16.61,1.53-24.49-1.21c-1.46-2.1-2.99-4.31-4.59-6.61
		c-2.55-0.16-5-0.32-7.9-0.51c-1.33-0.84-2.98-1.89-4.55-2.89c-7.68-1.53-14.79,1.7-22.17,2.17c-3.21,0.21-6.41,0.96-9.6,0.93
		c-12.75-0.13-25.14,2.23-37.52,4.91c-8.71,1.89-17.44,3.79-25.55,2.74c-5.32-1.53-4.11-6.67-7.12-9.36c-1.01,0-2.27-0.24-3.39,0.04
		c-11.77,2.95-23.57,5.83-35.27,9.07c-6.67,1.85-13.13,4.41-19.73,6.53c-7.07,2.27-14.06,4.63-21.46,5.92
		c-6.77,1.18-13.28,3.84-19.93,5.76c-2.34,0.68-4.77,1.08-6.98,1.57c-2.3-1.24-4.24-2.29-6.88-3.71c-2.86,0.67-6.32,1.11-9.51,2.29
		c-10.22,3.78-20.18,8.32-30.54,11.65c-12.38,3.98-23.3,10.89-35.02,16.17c-4.97,2.24-9.86,4.65-14.82,6.92
		c-13.97,6.4-27.94,12.81-41.96,19.09c-2.64,1.18-5.55,1.77-8.05,2.54c-4.36-2.74-6.55-6.1-7.63-11.11
		c10-8.6,20.29-17.01,31.05-24.98c0.61-1.93,1.19-3.79,1.68-5.38c11.51-8.12,22.81-16.1,34.32-24.22c-0.59-3.33-1.1-6.19-1.75-9.8
		c8.69-8.21,20.24-13.23,29.85-21.48c-1.12-2.02-1.97-3.75-3-5.36c-0.92-1.44-2.03-2.75-3.2-4.3c-4.21-0.44-8.37-0.87-13.18-1.36
		c-2.05-2.98-4.24-6.18-6.58-9.59c-8.33,0.11-15.89,5.25-24.5,4.61c-4.45-2.7-5.71-7.34-7.7-12.04c-1.91-0.22-4.05-0.47-6.1-0.71
		c-4.06-2.86-5.84-6.71-6.05-11.51c2.01-1.88,3.95-3.69,6.75-6.3c-2-0.33-3.06-0.74-4.06-0.63c-12.08,1.31-24.14,2.74-36.21,4.04
		c-3.41,0.37-6.85,0.41-10.41,0.62c-2.14-2.58-4-4.82-6.13-7.39c-1.13,0-2.66-0.33-3.97,0.06c-6.41,1.89-12.77,3.95-19.14,5.99
		c-2.84,0.91-5.59,1.46-8.7,0.98c-2.58-0.4-5.41,0.1-8.02,0.69c-5.55,1.25-11.01,2.93-16.56,4.22c-2.63,0.61-5.37,0.71-8.52,1.1
		c-2.83-3.03-5.67-6.07-8.9-9.52c-2.49,0.98-5.05,1.82-7.45,2.96c-14.15,6.72-27.34,15.08-40.49,23.52
		c-8.96,5.75-17.65,11.99-27.4,15.8c-2.8,0-5.28,0-7.75,0c-13.8,8.28-27.6,16.55-41.39,24.85c-8.48,5.1-17.05,10.06-25.36,15.43
		c-8.73,5.65-17.1,11.86-25.82,17.54c-5.18,3.37-10.63,6.37-16.15,9.18c-2.34,1.2-5.15,1.49-7.51,2.13
		c-2.41-1.21-4.37-2.2-6.53-3.29c-1.06,0.35-2.33,0.54-3.36,1.13c-12.68,7.29-24.95,15.18-36.75,23.87
		c-9.74,7.17-19.33,14.71-30.84,19.51c-2.3-0.97-4.55-1.92-7.02-2.96c-5.8,2.43-11.69,4.89-17.6,7.37
		c-3.96-2.82-7.89-4.94-9.11-10.22c2.28-2.13,4.71-4.19,6.9-6.48c16.35-17.04,34.41-32.13,53.22-46.3
		c5.27-3.97,11.68-6.42,17.5-9.68c2.99-1.67,6.11-3.27,8.69-5.47c12.45-10.61,25.34-20.64,38.66-30.13
		c6.05-4.31,12.08-8.64,18.03-13.08c5.73-4.27,11.63-6.78,18.81-2.09c2.53-1.64,4.99-3.18,7.4-4.81
		c12.51-8.47,24.68-17.52,37.62-25.29c10.25-6.15,19.76-13.1,28.6-21c9.59-8.58,20.45-15.46,30.37-23.59
		c4.21-3.45,8.64-6.63,12.92-10.01c1.35-1.07,3.03-2.12,3.7-3.58c3.4-7.39,10.48-10.98,16.1-16.05
		c7.35-6.62,15.41-12.48,21.63-20.29c2.13-2.67,4.03-5.52,5.62-7.7c0.35-7.54-5.69-12.71-3.77-20.63c1.34-2.19,3.27-5.35,4.39-7.17
		c5.33-3.97,9.43-7.03,13.46-10.04c10.1,6.06,11.2,9.9,5.15,19.82c0.7,3.41,1.54,7.48,2.32,11.31c2.14,1.95,3.96,3.6,5.65,5.14
		c1.51,7.92,1.21,8.58-6.14,13.46c0.37,2.3,0.93,4.67,1.09,7.06c0.17,2.54,0.26,4.98,3.14,6.91c2.91-0.56,6.24-1.2,10.09-1.94
		c2.52,2.05,5.17,4.2,8.37,6.79c3.56-1.18,7.57-2.32,11.43-3.85c3.51-1.38,7.01-2.42,10.83-2.18c3.68,0.22,6.61-1.38,9.47-3.61
		c8.98-7.01,18.09-13.86,27.2-20.71c1.77-1.33,3.64-2.75,5.69-3.47c8.91-3.13,15.9-8.99,22.62-15.31c0.72-0.68,1.52-1.27,2.51-2.08
		c9.27-0.97,16.4-7.17,24.53-11.22c2.41-1.2,4.73-2.59,6.74-3.7c7.7,2.82,8.69,4.15,8.87,12.51c-2,1.6-4.68,3.76-7.61,6.11
		c1.39,1.92,2.47,3.19,3.31,4.59c2.89,4.79,2.59,7.38-1.49,11.13c-2.18,2.01-4.7,3.67-6.91,5.65c-1.97,1.77-3.74,3.76-5.52,5.58
		c0.96,3.19,1.74,5.75,2.72,9.01c-3.74,3-7.51,6.02-12.15,9.74c2.7,1.68,5.01,3.13,7.33,4.58c-0.27,0.3-0.54,0.6-0.8,0.9
		c0.73,0.06,1.56,0.38,2.18,0.15c8.34-3.05,17.25-4.41,25.2-8.57c1.32-0.69,2.86-1.21,3.83-2.25c7.08-7.59,16.79-11.35,24.93-17.38
		c1.56-1.16,3.11-2.33,4.21-3.16c1.53-4.46-3.85-8.02-0.46-11.53c4.16-2.36,7.97-4.53,12.4-7.05c-5.87-3.96-9.12-8.44-7.65-15.46
		c3.54-2.61,7.25-5.34,11.68-8.59c-5.37-3.1-11.39-0.55-16.23-5.32c-0.98-2.34-2.4-5.74-4.03-9.6c-2.3-0.48-4.91-1.02-7.77-1.62
		c-4.27-3.23-4.71-8.21-5.29-13.56c-4.37-1.59-9.63-2.22-12.35-8.45c-0.11-1.54-0.3-4.22-0.52-7.15c1.14-0.71,2.07-1.66,3.17-1.91
		c9.93-2.27,19.63-5.13,28.93-9.36c3.12-1.42,6.61-2.13,9.99-2.83c7.8-1.62,15.12-4.51,22.52-7.4c6.88-2.69,14.12-4.46,21.26-6.46
		c8.57-2.41,17.2-4.63,25.68-6.9c1.16-1.65,2.14-3.04,2.96-4.19c22.9-6.22,45.49-12.35,67.39-18.29c7.83,4.85,8.68,7.83,5.75,15.1
		c-1.08,2.67-1.27,5.69-2.05,9.42c-1.67,0.79-3.78,1.98-6.03,2.82c-12.53,4.68-25.1,9.25-37.64,13.91c-2.52,0.94-4.96,2.1-7.55,3.2
		c0.84,5.28,6.58,8.94,3.68,15.38c-5.15,2.09-10.79,4.38-16.91,6.87c3.93,4.69,9.45,8.07,8.85,15.09c2.89,0.8,5.47,1.51,9.17,2.53
		c1.78,1.93,4.25,4.63,6.7,7.28c0,3.28,0,6.21,0,9.73c4.34,2.19,8.05,5.65,9.61,11.55c-0.28,1.43-0.66,3.35-1.14,5.81
		c1.81,1.22,3.8,2.56,6.13,4.14c8.85-2.34,17.49-5.14,25.25-10.18c5.84-3.79,11.94-6.92,18.62-9.05c5.65-1.8,11.1-4.24,16.64-6.39
		c3.05-1.18,4.64-3.57,5.48-6.99c7.58-2.61,15.35-5.02,22.92-7.95c9.22-3.58,18.32-7.49,27.38-11.45c7.26-3.17,14.38-6.68,21.6-9.96
		c4.99-2.26,9.52-4.89,13.5-8.94c4.81-4.89,10.87-8.35,17.6-11.05c1.86,2.32,3.53,4.39,5.26,6.54c0,6.42,0,12.8,0,19.57
		c-3.41,1.13-6.58,2.19-10.13,3.37c1.55,4.85,6.47,8.64,2.51,14.91c-10.18,3.57-21.71,6.11-32.64,10.79
		c1.22,5.6,7.3,9.25,4.46,15.93c-4.5,3.77-11.47,4.28-16.5,8.55c2.3,5.22,7.47,9.14,4.47,15.55c-2.97,1.27-6.07,2.59-9.72,4.15
		c1.03,2.01,1.74,3.49,2.54,4.93c0.71,1.29,1.52,2.54,2.65,4.41c-0.87,2.15-1.85,4.58-2.91,7.22c4.14,4.87,12.09,8.77,6.11,17.25
		c3.28,2.99,6.35,5.79,10.61,9.66c4.79,0,11.46,0,17.79,0c2.34,1.35,4.27,2.45,6.75,3.88c1.96-0.42,4.33-0.97,6.71-1.43
		c2.87-0.56,5.87-1.84,8.6-1.4c8.86,1.41,17.15-1.64,25.69-2.56c3.67-0.39,7.29-1.32,10.9-2.14c1.39-0.31,2.69-0.99,4.3-1.61
		c0.25-3.35,0.48-6.5,0.73-9.86c4.8-2.18,9.83-0.83,14.64-1.37c4.69-0.52,9.24-1.42,13.89-2.88c0.17-3.48,0.32-6.59,0.49-10.18
		c15.77,0.21,30.57-3.89,45.94-6.48c0.47-2.72,0.88-5.06,1.37-7.92c12.03-1.72,24.05-2.88,35.94-6.33
		c-0.35-4.54-0.68-8.88-1.02-13.44c2.93-1.47,5.5-2.75,8.88-4.44c-5.86-3.89-11.15-7.4-16.29-10.81c-0.53-3.01-0.99-5.65-1.54-8.78
		c-3.77-0.35-7.38-0.67-11-1.03c-3.39-0.34-6.77-0.72-10.31-1.1c-0.61,3.03-1.08,5.39-1.57,7.82c-4.74,2.6-9.98,0.5-15.11,2.3
		c-0.57,2.74-1.19,5.76-1.86,9c-4.81,0.84-9.12,1.59-13.99,2.44c0,3.65,0,7.02,0,10.94c-6.41,1.32-12.31,1.9-17.66-1.28
		c-4.87-2.89-9.45-6.36-13.83-9.97c-2.94-2.43-4.41-5.96-4.41-9.89c0-1.98,0.2-3.96,0.32-6.16c1.45-1.8,2.99-3.7,4.67-5.79
		c0-3.33,0-6.72,0-9.59c1.88-4.45,6.83-2.27,9.4-5.85c0.25-1.75,0.6-4.14,0.98-6.77c8.37-1.43,16.58-2.83,24.91-4.24
		c-0.64-5.16-1.2-9.72-1.85-14.91c2.35-0.93,4.26-2.07,6.3-2.43c10.73-1.84,21.5-3.48,32.26-5.19c0.97-0.15,1.93-0.36,3.33-0.62
		c0.66-1.96,1.34-3.99,2.11-6.3c1.39-0.18,2.87-0.69,4.26-0.49c15.51,2.2,31.14,1.9,46.73,2.4c2.95,0.09,6.16,0.11,8.77,1.26
		c7.71,3.4,15.92,3.47,24,4.51c3.4,0.44,6.77,1.18,9.51,1.67c2.71,3.01,4.85,5.39,7.1,7.88c3.53,0.39,6.96,0.77,10.73,1.19
		c1.61,2.16,3.36,4.52,5.1,6.87c2.62,0.96,5.14,1.89,8.07,2.97c1.8,3.93,3.63,7.95,5.86,12.83c0.66,0.32,2.12,1.53,3.72,1.75
		c7.47,1.03,9.32,6.47,10.33,12.64c0.2,1.19,0.03,2.45,0.03,4.23c2.09,0.86,4.11,1.63,6.08,2.51c7.47,3.37,9.91,9.3,7.19,18.03
		c-8.92,2.27-18.4,1.29-27.4,2.38c-1.74,3.49,1.12,5.56,1.37,8.16c0.24,2.47,0.61,4.97-1.83,7.64c-8.54,2.16-18.91,0.04-27.17,6.8
		c-0.63,4.83,4.62,8.99,1.68,14.66c-4.86,4.07-11.84-0.4-17.68,3.17c-0.36,2.85-0.75,5.97-1.14,9.11
		c-5.01,2.95-10.37,1.6-15.43,2.18c-4.89,0.55-9.79,1.02-15.12,1.57c-0.31,3.82-0.57,7.16-0.87,10.84
		c-6.09,1.95-12.32,1.64-18.35,2.57c-3.35,0.52-6.99-0.16-10.29,2.42c0.63,3.76,1.26,7.57,1.96,11.77
		c5.9,1.83,12.12,1.44,18.42,2.14c1.59,1.72,3.25,3.53,5.08,5.51c0.15,3.13,0.31,6.32,0.5,10.09c10.33,2.86,21.03,1.79,31.54,2.27
		c10.62,0.48,21.27,0.11,32.9,0.11c2.25,3.01,4.88,6.53,7.96,10.66c10.13-0.13,20.71,1.21,31.33,0.02c1.23-0.14,2.46-0.36,3.69-0.47
		c5.22-0.47,9.23,1.22,11.41,6.33c0.67,1.57,1.63,3.03,2.61,4.8c6.6,1.27,13.14,1.02,19.49,0.01c0.87-2.86,1.57-5.13,2.34-7.66
		c5.98,0.7,11.54,1.57,17.75,0.4c-1.79-3.7-5.85-3.41-8.48-5.72c-0.63-3.85-1.27-7.69-2.03-12.32c-5.65-3.91-7.41-9.65-3.82-17.35
		c6.24-0.41,12.62-0.82,19.1-1.24c1.19-1.61,2.34-3.16,3.48-4.7c0.94,0.11,1.86-0.07,2.35,0.31c7.65,5.97,15.02,12.18,19.3,21.26
		c2.89,6.14,2.9,11.93-1.27,17.47c-1.78,2.37-3.64,4.69-5.21,6.71c-1.27,4.06,0.26,6.69,3.05,8.82c2.37,1.8,4.94,3.37,7.13,5.36
		c4.55,4.14,8.01,8.86,6.63,15.26c-1.6,3.66-4.62,3.72-7.62,4.05c-3.32,0.37-7.04-0.19-9.73,3.41c1.75,3.62,4.55,7.11,2.84,12.12
		c-0.85,0.79-2.09,1.95-3.11,2.9c-6.8,1.4-13.64-0.41-19.86,2.07c-0.94,3.38,0.8,5.03,2.87,6.54c5.21,3.79,10.33,7.71,15.64,11.35
		c5.24,3.58,7.45,9.1,9.84,14.52c0.45,1.03,0.07,2.43,0.07,3.49c-1.59,3.43-4.37,4.73-7.72,5.34c-2.68,0.49-5.35,1.11-7.92,1.98
		c-1.24,0.42-2.24,1.54-4,2.81c1.86,1.35,3.07,2.5,4.49,3.19c2.66,1.3,5.59,2.08,8.16,3.53c5.15,2.91,6.57,8.38,3.82,13.92
		c-6.03,1.76-11.36-3.21-17.99-1.88c-0.92,0.55-2.39,1.44-3.74,2.26c-7.03-0.86-13.88-1.71-20.84-2.56
		c-1.78,2.04-3.38,3.88-4.8,5.51c-9.83,4.24-19.43,8.26-28.92,12.52c-3.38,1.51-6.56,3.49-9.72,5.43c-2.28,1.39-3.54,3.44-2.86,6.75
		c2.04,3.52,6.46,6.7,4.38,12.25c-3.22,2.64-3.22,2.64-9.47,2.59c-9.26,4.53-19.08,7.68-29.97,6.81
		c-9.29-4.53-7.88-13.21-7.83-21.67c-2.28-0.98-4.49-1.93-7.08-3.05c-3.9-3.63-4.32-8.2-2.36-13.32c9.04-2.69,17.99-5.36,26.74-7.96
		c0.52-3.57-1.92-4.48-3.69-5.42c-5.25-2.78-10.67-5.27-16.04-7.83c-3.39-1.62-6.73-3.28-8.28-7.6c0-3.25,0-6.95,0-10.58
		c-5.18-2.41-14.61-3.71-19.58-3c-3.65,0.53-7.34,0.97-11.02,1.03c-11.41,0.18-22.82,0.18-34.23,0.22
		c-4.96,0.02-9.74,0.26-14.38,2.75c-2.96,1.59-6.64,1.86-10,2.68c-15.7,3.82-31.61,6.13-47.79,6.6c-2.86,0.08-5.7,0.84-9.05,1.36
		c-0.19,5.47-0.36,10.29-0.54,15.41c-8.2,3.48-16.23,5.79-24.55,7.12c-3.43,0.55-6.91,0.7-10.33,1.28c-1.31,0.22-2.5,1.15-3.79,1.78
		c2.2,3.76,4.16,7.12,6.45,11.03c1.55,0.37,3.69,0.88,5.82,1.39c4.41,2.88,6,7.42,4.64,14.06c-8.72,1.64-17.64,3.42-26.6,4.95
		c-2.77,0.47-5.26,1.01-7.35,4.23c2.05,0.45,3.6,1.11,5.14,1.08c10.17-0.21,20.33-0.59,30.49-0.88c2.47-0.07,4.94-0.01,7.95-0.01
		c2.2,2.42,4.49,4.94,6.91,7.59c-0.13,2.32-0.25,4.46-0.38,6.78c-8.16,2.5-16.62,2.42-24.32,5.17c0.03,0.54,0.06,1.08,0.09,1.62
		c1.05,0.31,2.08,0.84,3.14,0.91c7.67,0.48,15.35,0.72,23.01,1.35c4.43,0.37,8.93,0.9,13.19,2.1c7.65,2.15,10.43,6.62,9.53,14.84
		c-4.15,0.94-8.53,1.93-12.91,2.92c0.02,0.46,0.03,0.93,0.05,1.39c1.54,0.26,3.07,0.69,4.61,0.74c6.93,0.18,13.88,0.54,20.8,0.28
		c6.04-0.22,10.73,1.48,14.22,8.54c0,1.28,0,4.18,0,7.5c7.17,1.09,14.3,0.19,21.36,0.69
		C1661.97,663.75,1668.83,664.73,1676.16,665.54z M1603.37,660.07c-5.41,0-10.59,0.07-15.77-0.02c-6.36-0.11-9.96-4.02-11.89-9.52
		c-0.88-2.5-0.86-5.34-1.11-8.04c-0.15-1.62-0.03-3.27-0.03-5.64c-4.09,0-7.53,0.26-10.93-0.05c-10.16-0.91-16.25-6.67-17.99-15.79
		c-0.27-1.4-0.53-2.81-0.82-4.38c-6.12-1.53-12.6-0.93-17.55-5.6c-4.99-4.7-5.97-10.61-6.31-17.3c3.1-4.38,3.01-9.32,1.38-14.59
		c-0.96-3.12-0.73-6.4,1.74-8.99c3.51-2.03,8.03-0.36,11.24-3.21c0-4.06,0-7.99,0-11.73c5.15-4.58,7.77-5.61,16.32-6.57
		c8.89-0.99,17.56-2.88,26.43-6.45c0-2.4-0.04-4.84,0.01-7.29c0.11-5.4,2.92-8.82,7.99-10.3c2.11-0.61,4.35-0.82,6.56-1.01
		c3.95-0.34,7.93-0.31,11.85-0.82c10.07-1.32,20.15-2.63,30.14-4.42c5.07-0.91,10.21-2.31,14.87-4.47
		c3.99-1.85,7.85-2.71,12.13-2.68c10.17,0.08,20.35,0.14,30.51-0.04c3.94-0.07,7.86-0.83,11.8-1.2c3.41-0.32,6.86-0.95,10.24-0.71
		c5.17,0.37,10.37,1.06,15.43,2.19c9.15,2.06,18.5,3.9,25.35,10.86c3.43,7.86,3.43,7.86,2.13,16.32
		c10.04,7.15,20.34,14.54,17.12,29.94c-2.74,1.81-5.55,3.67-9.04,5.98c4.36,2.84,8.08,5.26,12.03,7.83c0.4-1.31,0.82-2.01,0.81-2.7
		c-0.17-10.33,5.87-16.39,14.32-20.66c3.97-2.01,8.15-3.59,12.19-5.47c2.18-1.01,4.27-2.24,5.72-3.01
		c1.77-4.89-0.73-9.42,2.25-13.35c6.36-1.1,12.71-0.7,19.08,0.58c6.88,1.38,13.69,1.4,20.3-2.03c0.5-5.68-0.48-11.67,4.07-16.17
		c1.66-1.58,5.26-0.35,5.69-4.24c-3.84-3.22-7.87-6.44-11.73-9.87c-9.52-8.48-10.99-21.5-3.23-32.58c0-3.25,0-7.17,0-11.7
		c2.46-1.25,4.7-2.76,7.17-3.54c2.56-0.82,5.34-0.96,8.03-1.35c2.4-0.34,4.97-0.19,7.06-3.04c-1.41-2.29-2.92-4.74-4.51-7.31
		c-2.29,0.2-4.2,0.38-5.9,0.53c-1.15,2.05-2.09,3.73-3.15,5.62c-19.2,1.76-38.25,1.67-57.32,0.21c-4-0.31-6.91-2.55-9.48-5.31
		c-1.15-1.24-2-2.77-3.11-4.33c-2-0.11-3.95-0.26-5.91-0.32c-8.18-0.24-16.36-0.48-24.55-0.68c-7.84-0.19-14.81-1.93-18.08-10.47
		c-2.94,0-5.66,0.1-8.37-0.02c-11.64-0.52-23.28-1.08-34.91-1.69c-9.16-0.48-15.43-4.8-18.08-13.82c-0.34-1.17-0.69-2.33-1.18-4
		c-2.51,0-4.96-0.01-7.41,0c-6.45,0.02-12.9,0.14-19.35,0.05c-6.9-0.11-13.23-1.85-18.62-7.72c-0.19-3.63-0.41-7.79-0.61-11.52
		c1.82-2.82,3.29-5.11,4.7-7.29c0.26-2.34,0.5-4.53,0.65-5.93c2.54-4.71,5.98-7.05,10.26-8.01c4.57-1.03,9.18-1.9,13.82-2.55
		c2.66-0.37,5.44,0,7.8-1.99c0.52-2.39,1.04-4.79,1.38-6.35c2.65-4.27,6.11-5.41,9.94-5.82c6.87-0.75,13.73-1.45,20.09-2.12
		c2.38-2.89,3.92-6.27,6.51-7.57c5.22-2.62,10.43-5.85,16.73-5.57c2.55,0.11,4.97-0.44,6.4-2.92c1.59-11.22,9.86-15.74,19.5-19.34
		c0.53-4.98,1.09-10.12,1.46-13.57c-2.06-6.7-3.63-11.82-5.29-17.21c-1.54-0.38-3.23-0.7-4.85-1.23c-1.85-0.6-3.64-1.38-5.72-2.19
		c-1.17-3.85-2.29-7.58-3.46-11.45c-2.47-0.55-4.84-1.08-7.32-1.63c-1.67-2.2-3.31-4.36-4.94-6.5
		c-14.97-1.47-14.97-1.47-22.17-10.05c-2.79-0.16-5.99-0.32-9.18-0.55c-2.22-0.16-4.77,0.18-6.59-0.79
		c-5.17-2.76-10.53-2.28-15.89-1.76c-2.97,1.21-5.94,2.45-9.02,2.87c-11.05,1.51-22.13,2.72-33.19,4.13
		c-1.36,0.17-2.64,0.92-4.18,1.49c0.75,2.76,1.69,5.08,1.95,7.48c0.25,2.34-0.19,4.76-0.33,7.14c3.56,1.71,7.09,2.01,10.46,1.26
		c6.37-1.42,12.25,0.09,18.25,1.86c5.69,1.68,11.41,3.54,17.25,4.33c6.64,0.9,11.69,3.6,15.47,9.48c0,1.97,0,4.17,0,6.34
		c-1.42,1.67-2.79,3.28-4.12,4.85c4.87,5.76,11.02,10.5,7.56,19.25c-2.43,1.48-4.92,2.99-7.79,4.74c0.48,2.97,0.98,6.11,1.44,8.93
		c-0.63,3.35-2.51,5.05-5.46,5.76c-1.92,0.46-3.8,1.13-5.73,1.58c-10.35,2.4-20.72,4.76-31.77,7.3c-1.17,1.65-2.72,3.84-4.19,5.91
		c-10.11,4.89-21.43,4.15-31.65,7.4c-1.12,2.6-2.08,4.83-3.02,7.01c-7.36,3.9-15.58,3.71-23.38,6.15c-0.87,1.87-1.77,3.84-2.54,5.49
		c-10.16,6.33-22.67,5.13-31.77,11.95c-4.34,0.61-8.26,1.25-12.2,1.7c-7.38,0.84-14.76,1.7-22.15,2.3
		c-7.64,0.62-15.33,0.76-22.96,1.42c-10.52,0.91-10.51,1.04-19.13-3.77c-4.98,0-9.44,0.01-13.89,0c-5.33-0.02-9.73-1.61-12.07-6.94
		c-0.47-1.06-1.53-1.85-2.37-2.84c-4.97,0.16-9.48-0.88-13.58-3.98c-5.15-6.45-4.02-13.69-1.73-20.98
		c-2.18-6.62-3.3-13.13,1.52-18.77c0-3.82,0-7.27,0-11.34c4.06-2.49,8.21-5.04,12.31-7.56c1.06-4.97-2.51-10.13,1.7-15.11
		c2.62-4.4,8.11-5.91,12.62-8.39c0.69-6.43,0.54-7.74-1.62-14.89c-0.91,0.06-2.03-0.16-2.82,0.24
		c-10.78,5.49-23.05,7.72-33.01,15.04c-0.79,0.58-1.7,1.03-2.6,1.44c-11.51,5.16-22.89,10.55-34.14,16.29
		c-9.45,4.82-19.59,8.28-29.47,12.25c-5.05,2.03-10.2,3.83-15.3,5.75c-3.05,1.15-5.85,0.73-8.37-1.33c-1.13-0.92-2.2-1.93-3.55-3.12
		c-4.36,1.09-8.68,2.11-12.97,3.27c-3.83,1.04-7.55,2.52-11.42,3.31c-9.48,1.94-16.4-5.35-14.55-14.79c1.01-2.22,1.9-4.2,2.93-6.46
		c-7.03-5.28-4.58-12.94-4.88-19.6c-4.24-0.4-7.89-0.75-11.08-1.05c-4.85-4.91-6.3-10.1-5.05-16.28c1.62-1.45,3.24-2.91,4.97-4.47
		c-1.01-6.26-2.58-12.35-0.32-18.47c0.24-0.64,0.05-1.49-0.11-2.21c-0.89-4.05-1.83-8.09-2.86-12.6c-1.57,0.26-3.23,0.42-4.83,0.82
		c-5.77,1.44-11.44,3.42-17.29,4.34c-6.99,1.1-13.45,3.44-19.65,6.59c-4.92,2.5-9.99,4.25-15.49,4.8c-3.2,0.32-6.23,1.15-9.08,3.4
		c1.62,3,3.12,5.78,4.72,8.73c7.36-0.3,14.48-0.59,21.17-0.86c4.71,3.08,8.82,5.88,7.06,12.19c-2.55,1.58-5.03,3.12-7.69,4.77
		c4.52,5.42,13.13,8.04,10.91,16.38c-2.23,4.7-7.22,5.87-8.52,10.43c3.96,3.31,7.65,6.68,6.9,12.45c-2.96,5.18-8.35,7.62-12.71,11.3
		c0,2.33,0,4.53,0,6.67c-3.52,4.8-7.81,8.46-12.55,11.71c-5.7,3.9-11.79,7.32-16.32,12.77c-1.08,1.3-2.6,2.33-4.1,3.16
		c-9.1,5.03-18.21,10.06-27.41,14.89c-2.35,1.23-5.16,2.61-7.62,2.38c-4.36-0.41-8.21,0.33-12.28,1.75
		c-5.53,1.93-8.89,0.45-12.1-4.35c-1.07-1.61-2.09-3.25-3.03-4.72c-2.93-0.21-5.38-0.38-7.48-0.53c-5.18-3.68-9.18-7.57-8.02-15.08
		c3.33-2.4,7.09-5.11,11.07-7.98c0-2.43,0-4.86,0-7.4c2.66-2.47,5.2-4.82,7.73-7.19c3.06-2.87,6.22-5.66,9.1-8.7
		c0.77-0.82,0.69-2.45,1.34-5.07c-3.19,1.55-5.17,2.41-7.05,3.45c-2.16,1.2-4.09,3-6.39,3.75c-7.26,2.36-12.9,7.14-18.81,11.63
		c-6.7,5.09-13.41,10.29-20.67,14.47c-6.71,3.85-12.99,8.15-18.92,13.05c-2.49,2.05-4.88,4.25-7.57,6c-1.96,1.28-4.33,1.94-6.4,2.83
		c-2.32-1.65-4.1-2.92-6.32-4.51c-1.71,0.57-3.58,1.04-5.32,1.81c-3.62,1.62-7.19,3.35-10.73,5.13c-3.69,1.85-7.45,2.6-11.74,1.12
		c-2.19-1.92-4.56-4.01-7.04-6.2c-3.25,1.36-6.32,2.36-9.11,3.87c-3.29,1.78-6.6,1.8-9.03,1.34c-4.45-3.1-8.07-5.63-12.63-8.82
		c-0.56-0.82-1.78-2.63-3.3-4.86c-1.85,1.49-3.65,2.75-5.23,4.24c-4.31,4.07-8.28,8.53-12.82,12.32
		c-14.63,12.23-29.44,24.23-44.19,36.32c-0.76,0.63-1.56,1.22-2.4,1.74c-10.51,6.61-20.02,14.51-29.4,22.59
		c-3.92,3.38-7.96,6.63-11.94,9.94c-3.79-0.03-7.55,0.2-10.21,2.02c-9.8,6.71-19.4,13.74-28.73,21.08
		c-5.01,3.94-9.8,6.62-16.22,3.82c-1.52-0.66-3.25-0.85-5.51-1.41c-3.7,2.72-7.62,5.7-11.64,8.55c-14.37,10.2-28.3,20.98-41.27,32.9
		c-4.57,4.2-9.23,7.47-15.22,7.36c-11.84,7.11-22.46,15.05-32.7,24.5c1.56,1.42,2.55,2.33,3.8,3.47c2.93-1.95,5.62-3.67,8.23-5.5
		c5.06-3.55,9.92-7.4,15.13-10.7c14.01-8.89,28.04-17.71,41.15-27.93c3.44-2.68,7.6-4.44,11.74-6.81c3.69,2.31,6.95,4.35,10.38,6.51
		c15.47-9.87,30.84-19.77,46.31-29.51c15.49-9.75,31.08-19.35,46.44-28.9c3.83,0,7.29,0,10.63,0c4.82-2.93,9.74-5.41,14.08-8.66
		c19.63-14.67,41.69-24.77,63.97-34.48c3.47-1.51,7.09-2.24,10.42-1.23c5.18,2.79,6.53,7.66,8.13,12.95c3.22-0.93,6.11-1.5,8.8-2.59
		c5.28-2.13,10.39-4.67,15.67-6.79c2.92-1.17,6.03-1.85,8.57-2.6c2.51,1.15,4.3,1.97,6.4,2.93c2.43-0.75,5.01-1.52,7.59-2.34
		c2.13-0.67,4.25-1.35,6.36-2.08c5.45-1.88,9.71-0.24,12.97,4.36c1.27,1.79,2.46,3.63,3.85,5.69c3.56-0.29,7-0.63,10.44-0.85
		c7.67-0.49,15.33-1.01,23-1.34c4.71-0.21,8.73,1.52,11.89,5.1c1.95,2.22,3.88,4.44,6.14,7.03c6.17-0.71,12.1-2.69,17.88-5.11
		c-0.93-4.44-5.03-7.83-2.09-12.19c4.73-1.95,9.28-3.82,13.22-5.45c1.38-2.42,2.33-4.1,3.09-5.43c12.23-4.71,23.98-9.33,35.8-13.73
		c4.42-1.65,8.93-2.83,12.09-6.83c0.96-1.22,2.95-1.71,4.55-2.34c12.23-4.77,24.49-9.47,36.72-14.23c1.59-0.62,3.11-1.42,4.46-2.04
		c1.6-2.88,3.04-5.46,4.74-8.53c0-1.69,0-3.89,0-6.66c3.9-2.36,7.76-5.08,11.94-7.12c4.35-2.12,7.56-6.48,13.56-6.92
		c6.7,6.01,13.6,12.21,20.6,18.48c2.33-0.47,4.55-0.75,6.67-1.37c10.2-3.02,20.4-6.04,30.53-9.28c3.16-1.01,6.13-1.92,9.49-0.34
		c1.48,2.06,3.05,4.22,4.8,6.64c8.61-2.17,16.77-4.87,25.25-9.06c5.99,1.73,12.1-0.13,18.08-2.79c3.28-1.46,6.71-1.56,10.24-0.8
		c4.24,3.11,7.02,6.9,6.29,11.72c-2.12,5.28-7.59,4.54-10.41,7.58c0.08,3.33,1.63,6.64-1.48,9.88c-2.78,1.13-6.1,2.48-10.34,4.2
		c3.63,1.84,6.65,1.4,9.47,1.75c6.82,0.84,10.12,5.74,12.85,11.13c1.7,3.35-0.46,6.48-2,9.82c6.72,0.26,12.84,0.5,18.74,0.73
		c2.19,2.54,3.95,4.59,5.96,6.92c-0.3,3.25-0.61,6.53-0.94,10.03c7.38,0,14.54,0,21.59,0c4.16,2.53,7.09,5.63,7.17,10.28
		c-1.69,5.24-6.45,5.44-9.83,6.95c-1.31,1.96-2.39,3.59-3.83,5.76c-13.61,1.01-27.42,2.04-41.44,3.09c-1.7,1.17-3.52,2.42-4.67,3.21
		c-32.77,3.6-64.89,6.02-96.3,15.69c-0.55,1.12-1.29,2.64-2.25,4.61c-15.05,3.97-30.34,8-45.65,12.03
		c-1.08,1.73-2.12,3.38-2.94,4.68c-13.98,6.53-28.57,9.34-42.66,12.92c-5.86-2.52-7.68-7-8.26-12.72c2.39-1.15,4.54-2.18,6.65-3.2
		c-0.52-4.38-4.18-7.77-2.72-12.04c2.96-3.09,8.43-2.07,10.48-7.33c-5.47-1.16-10.45-2.67-15.52-3.17
		c-6.91-0.69-10.66-4.64-12.9-10.64c-0.6-1.6-0.87-3.33-1.33-5.13c-1.83-1.59-3.68-3.21-5.59-4.88c-2.09,0-4.12-0.31-6,0.06
		c-4.51,0.9-8.58,0.66-12.97-1.34c-4.09-1.87-8.84-1.87-13.46-0.35c1.89,4.34,3.54,8.14,5.42,12.45c5.82,2.87,8.48,8.54,9.56,15.48
		c6.38-0.75,9.52,3.86,12.32,6.43c3.9,1.7,6.87,2.49,9.24,4.13c6.98,4.85,7.28,11.88,0.85,17.32c-3.21,2.72-6.67,5.15-10.1,7.59
		c-3.4,2.41-6.92,4.67-10.1,6.8c-0.19,4.02-0.36,7.42-0.51,10.55c-10.41,7.64-20.34,14.94-30.27,22.23c0.17,0.29,0.33,0.59,0.5,0.88
		c10.38-3.81,20.76-7.62,31.23-11.46c1.39-1.61,2.84-3.29,3.59-4.17c7.88-2.85,14.52-5.72,21.43-7.61
		c6.89-1.89,14.03-2.86,21.08-4.12c10.02-1.79,19.92-4.04,29.48-7.56c5.25-1.93,10.41-3.34,15.29-0.99
		c15.44-4.8,30.34-9.4,45.23-14.06c7.8-2.44,15.47-5.43,23.93-4.1c1.43,0.23,2.98-0.03,4.44-0.25c12.47-1.92,24.93-3.95,37.41-5.81
		c4.14-0.62,8.39-1.41,12.4,1.3c1.59,2.3,3.26,4.73,5.09,7.38c6.28,0.11,12.17-1.88,18.19-2.95c4.37-0.77,8.77-2.04,13.14-1.97
		c15.19,0.25,30.2-1.15,45.15-3.73c3.11-0.54,6.34-0.38,9.35-0.53c2.22,2.34,4.05,4.29,6.23,6.59c3.74,0,7.66,0,11.71,0
		c2.36,3.21,4.52,6.14,6.84,9.28c5.77,0,11.42,0,16.86,0c3.92,4.08,8.28,7.41,5.32,14.05c-3.72,1.48-7.65,2.91-11.47,4.6
		c-3.92,1.75-8.56,2.1-12.22,5.42c4.78,3.35,10.54,3.31,14.13,7.52c3.47,4.06,6.77,8.05,4.46,14.53c-3.15,2.25-6.7,4.79-10.58,7.55
		c3.98,5.56,10.55,9.56,7.96,18.56c-3.13,2.06-6.97,4.57-11.38,7.46c3.49,1.52,6.49,2.53,9.2,4.05c7.84,4.37,10.34,11.47,6.62,20.09
		c-4.45,2.56-9.59,5.49-14.67,8.5c-0.47,0.28-0.61,1.13-0.98,1.87c2.47,0.24,4.67,0.46,6.55,0.64c7.88,5.53,8.34,6.49,6.34,13.4
		c-2.96,0.8-6.06,1.62-9.15,2.49c-3.17,0.89-6.63,1.27-9.3,4.77c4.76,1.7,8.96,3.01,12.99,4.7c4.62,1.93,7.03,6.08,9.38,10.27
		c0,2.4,0,4.83,0,6.99c-7.25,6.18-16.58,8.14-24.63,14.67c4.43,0.25,7.58,0.33,10.71,0.63c6.94,0.67,10.49,3.84,12.27,10.86
		c0.16,0.65-0.21,1.43-0.34,2.18c-1.8,1.27-3.56,2.51-5.16,3.64c-0.28,4.27,3.16,7.97,0.09,12.47
		c-10.19,4.22-20.91,8.65-31.07,12.86c-0.94,2.65-1.59,4.49-2.24,6.34c-5.08,2.4-10.06,4.6-14.91,7.08
		c-4.55,2.33-10.03,2.82-15.33,7.62c8.07-0.74,14.44-1.33,20.81-1.92c2.57-1.62,5.21-3.02,8.01-3.6c8.46-1.76,16.98-3.25,25.49-4.76
		c7.31-1.29,14.65-2.39,21.96-3.67c10.45-1.84,20.89-3.76,30.66-5.52c1.56-2.48,2.57-4.1,3.19-5.08
		c15.32-1.53,29.83-3.02,44.36-4.41c4.93-0.47,9.9-1.06,14.83-0.96c9.4,0.2,18.79,1.09,28.2,1.29c18.33,0.4,36.56,3.07,54.94,2.31
		c3.71-0.15,7.55-0.31,11.13,0.46c6.08,1.29,11.41-0.93,18.24-2.27c-2.16-1.4-3.22-2.49-4.48-2.84c-4.52-1.27-9.07-2.56-13.69-3.38
		c-13.34-2.37-26.69-1.42-39.99,0.48c-5.66,0.81-11.29,1.54-16.31,0.5c-6.65-3.69-6.27-10.2-7.73-16.24c-3.04,0-5.74-0.01-8.43,0
		c-4.22,0.02-8.43-0.01-12.64,0.1c-3.93,0.1-7.33-0.96-10.91-4.82C1606.99,668.99,1605.33,664.9,1603.37,660.07z M1323.07,364.08
		c-2.09,0.4-4.06,0.56-5.89,1.16c-9.42,3.08-18.77,6.38-28.22,9.37c-4.4,1.39-8.74,3.7-13.98,2.17c-1.98-1.8-4.14-3.76-6.09-5.53
		c-3.5,0.11-6.16,1.12-8.55,3.17c-1.27,1.09-2.9,1.85-4.48,2.47c-11.53,4.52-23.08,9-34.65,13.44c-5.58,2.14-11.06,4.39-13.92,9.17
		c-12.7,3.47-24.12,8.03-35.66,13.09c0.13,2.28,0.24,4.1,0.34,5.82c13.5,1.26,13.5,1.26,20.68,6.3c6.87,1.24,14.19,2,19.09,9.23
		c0.09,1.62,0.21,3.81,0.31,5.66c-1.26,1.5-2.22,2.64-3.16,3.77c5.53,1.44,10.53,2.72,15.52,4.04c3.56,0.95,5.98,3.43,8.05,6.28
		c1.76,2.41,1.88,5.04,0.51,7.95c-1.28,1.06-2.72,2.24-4.96,4.09c1.94,0,2.91,0.26,3.67-0.04c12.03-4.66,24.52-7.76,36.98-10.98
		c2.89-0.75,5.37-2.19,7.5-4.53c1.59-1.73,3.89-3.12,6.14-3.87c3.97-1.32,8.13-2.07,12.23-3.01c6.96-1.6,14.17-2.23,20.62-5.77
		c1.44-0.79,3.31-0.88,5.01-1.08c15.74-1.9,31.47-3.89,47.23-5.55c4.34-0.46,8.29-1.23,11.53-4.89c9.28-0.56,18.66-1.07,28.03-1.74
		c1.54-0.11,3.03-0.89,4.58-1.37c-1.58-4.54-2.95-8.48-4.48-12.85c-3.29,0-6.46-0.04-9.64,0.01c-5.79,0.09-10.18-2.15-12.29-7.73
		c-1.03-2.72-1.66-5.61-2.33-8.46c-0.43-1.85-0.61-3.75-0.97-6.07c-3.21,0.21-5.9,0.38-8.58,0.58c-1.97,0.15-3.94,0.39-5.92,0.5
		c-5.97,0.34-9.71-2.53-12.15-7.89c-2.35-5.15-2.17-10.26-0.21-16.15c-9.33,1.97-16.7,8.94-26.66,6.16
		C1326.91,369.16,1325.29,367.01,1323.07,364.08z"/>
	<path d="M115.97,1338.39c-1.34-1.49-3.47-3.86-5.47-6.09c0.54-7,3.74-12.48,7.16-17.48c6.15-8.98,12.54-17.91,19.86-25.93
		c11.36-12.45,22.42-25.15,33.59-37.75c6.89-7.77,14.59-14.85,22.1-22.04c7.15-6.85,14.59-13.4,21.82-20.17
		c13.4-12.55,27.29-24.5,42.52-34.81c2.86-1.93,6.06-3.34,9.01-5.13c2.96-1.79,5.95-3.59,8.7-5.68
		c10.48-7.92,20.93-15.89,31.27-23.99c3.51-2.74,6.54-6.11,10.05-8.84c10.75-8.36,21.65-16.54,32.46-24.83
		c3.85-2.95,8.8-4.81,10.25-10.01c8.72-7.12,17.34-14.17,26.24-21.44c-0.75-2.92-1.53-5.92-2.2-8.53
		c9.44-9.2,20.84-15.02,29.59-23.83c-1.54-3.47-2.81-6.34-4.1-9.26c6.48-5.63,12.59-10.95,18.86-16.41c-1.64-3.62-3.04-6.71-4.53-10
		c7.71-9.44,18.92-14.98,27.11-24.67c-5.89-3.06-9.9-6.8-9.82-13.81c3.89-3.44,7.93-7.02,12.17-10.77
		c-0.76-3.43-1.52-6.91-2.32-10.51c5.47-3.88,10.47-7.43,15.74-11.17c-1.1-2.52-2.07-4.73-2.7-6.17c-0.49-5.45-0.9-10.09-1.35-15.14
		c5.23-4.53,10.71-9.14,16.01-13.93c1.98-1.79,3.58-4.02,5.33-6.06c1.12-1.3,2.08-2.75,3.32-3.92c5.04-4.77,10.11-9.52,15.28-14.15
		c1.59-1.42,3.56-2.42,5.28-3.57c5.37,2.45,9.02,5.3,8.19,11.5c-5.29,4.89-10.55,9.75-15.67,14.48c-0.32,2.04-0.59,3.72-0.88,5.56
		c-2.6,2.22-5.22,4.46-8.22,7.02c0.83,1.45,1.62,2.83,2.37,4.14c5.18,0.62,10.53-0.48,13.73,4.08c5.72,0.69,10.17-1.95,14.51-4.02
		c8.04-3.84,15.72-8.42,23.55-12.7c8.26-4.52,16.37-9.38,24.82-13.51c10.51-5.13,20.54-10.97,30.15-17.6
		c1.58-1.09,3.33-1.94,4.63-2.69c9.02,3.24,11.7,7.55,10.65,17.18c-7.38,4.53-15.15,9.3-23.04,14.15c0,2.26,0,4.43,0,7.29
		c-11.57,8.89-24.32,16.54-36.48,25.65c0,2.68,0,5.59,0,9.55c-2.09,1.97-4.57,4.72-7.46,6.94c-8.06,6.19-16.31,12.11-24.43,18.23
		c-2.54,1.91-4.87,4.1-7.12,6c1.33,3.98,2.48,7.39,3.66,10.92c-9.08,11.02-20.38,18.86-30.37,28.87c1.15,1.24,2.21,2.46,3.35,3.6
		c4.59,4.57,4.93,6.33,2.31,12.49c-0.29,0.68-0.55,1.37-0.81,2.02c0.82,2.58,2.76,2.73,4.78,2.16c1.41-0.4,2.69-1.26,4.01-1.93
		c7.93-4.05,15.52-8.77,24.08-11.6c3.23-1.07,6.02-3.4,9.08-5.04c7.2-3.86,14.29-7.96,21.69-11.39
		c9.31-4.32,17.45-10.37,25.59-16.41c7.96-5.9,15.42-12.46,23.28-18.51c3.92-3.02,8.12-5.91,13.99-4.02
		c3.27,2.88,6.94,5.87,6.1,11.5c-10.18,7.15-20.29,14.26-30.55,21.47c0,2.52,0,4.93,0,7.49c-11.31,9.33-25.11,15.16-35.44,25.95
		c0.33,2.29,0.65,4.45,1.06,7.27c-11.15,12.4-26.5,20.93-37.17,34.59c0.33,2.48,0.65,4.9,1.08,8.14
		c-7.98,6.42-16.22,13.06-24.69,19.88c0.54,2.44,1.07,4.78,1.61,7.21c-2.65,6.97-10.17,9.24-14.48,14.98
		c1.16,3.57,2.33,7.19,3.39,10.45c-2.79,3.08-5.04,5.56-7.38,8.14c4,4.34,11.17,4.61,11.32,11.72
		c-2.38,7.29-10.68,10.89-12.72,19.43c2.31,0.69,4.3,1.66,6.36,1.84c5.69,0.49,10.53,2.97,14.92,6.24
		c9.39,7.01,19.92,10.87,31.5,12.26c6.97,5.37,6.97,5.38,5.53,11.72c-10.13,0.84-18.66,8.3-29.8,8.15
		c-3.86,4.32-9.51,4.1-14.83,4.94c-7.6,1.21-14.97,3.14-21.76,7c-0.23,1.95-0.43,3.63-0.71,5.92
		c-11.17,7.21-24.41,10.93-36.77,17.11c1.49,3.72,2.83,7.09,4.36,10.9c2.27,1.91,5.55,3.61,5.96,8.23
		c-0.81,1.33-1.92,3.14-3.14,5.14c0.75,0.5,1.33,1.23,1.86,1.2c4.2-0.29,8.45-0.4,12.56-1.18c8.24-1.57,14.75,0.23,18.5,8.72
		c7.39-2.39,13.41-8.52,22.91-6.24c1.74,1.96,4.16,4.67,7.14,8.02c4.68-1.85,9.91-3.92,15.15-6c5.89,0.13,9.99,2.46,11.47,8.89
		c-2.04,3.1-4.16,6.33-6.94,10.55c6.76-0.73,11.33-4.2,16.53-5.75c5.42-1.61,10.58-4.22,16.13-4.58c8.71,5.69,8.92,6.41,4.49,15.59
		c3.03-0.21,5.89-0.41,8.68-0.6c3.25,2.73,6.77,4.85,5.96,10.29c-3.18,1.84-6.56,3.79-10.11,5.84c-0.84,1.63-1.74,3.37-2.5,4.83
		c-4.53,2.71-8.74,5.23-12.99,7.77c0.59,2.51,1.03,4.37,1.52,6.41c-0.87,0.99-1.49,2.21-2.48,2.75
		c-6.73,3.71-13.57,7.23-20.31,10.92c-3.41,1.87-6.69,3.98-9.85,5.87c-0.22,2.64-0.39,4.57-0.58,6.88
		c-13.59,8.66-29.56,12.46-43.68,20.49c-0.27,2.07-0.51,3.98-0.79,6.12c-0.67,0.53-1.35,1.3-2.21,1.71
		c-8.5,4.07-17.04,8.05-25.53,12.12c-5.11,2.45-10.17,5.02-15.56,7.7c0.54,2.74,1.01,5.09,1.54,7.8c-2.61,4.8-5.99,9.39-10.34,13.08
		c-4.11,3.49-8.6,6.55-12.8,9.7c0.91,4.05,3.75,3.27,6.05,3.21c7.73-0.19,13.42,4.1,18.57,7.25c2.26,5.77-2.98,6.69-4.23,10.24
		c3.97,2.6,8.52,4.87,9.1,10.4c7.86,0.69,15.62,0.78,19.74,8.68c5.34,1.21,12.06-0.59,14.56,7.37c-5.35,6.51-13.68,9.16-20.57,14.44
		c1.03,2.01,2,3.9,2.99,5.82c-0.49,0.79-0.73,1.62-1.27,1.97c-4.77,3.09-9.55,6.18-14.42,9.09c-2.96,1.77-6.1,3.23-9.12,4.8
		c-0.49,1.95-0.9,3.6-1.48,5.92c-6.76,4.52-13.85,9.47-21.15,14.07c-8.44,5.32-15.9,11.82-23.03,18.69
		c-1.66,1.6-2.39,4.16-3.41,6.31c-5.88,8.7-15.52,12.71-24.36,18.56c1.09,2.59,2.01,4.76,3.2,7.57c5.99-0.85,11.85-1.49,17.63-2.55
		c7.27-1.33,14.3-0.49,21.25,1.66c2.49,0.77,4.53,2.01,5.06,5.71c-2.31,1.83-5,3.94-7.33,5.79c0.35,3,0.57,4.93,0.81,7.03
		c-11.91,9.64-26.59,14.22-39.72,21.87c-0.27,2.25-0.53,4.41-0.76,6.39c-3.91,5.29-8.82,9.05-13.99,12.51
		c-11.36,7.6-21.89,16.21-31.9,25.94c-0.49,1.69-1.03,3.56-1.41,4.9c-5.76,6.85-13.23,10.37-20.21,14.6
		c-11.86,7.2-23.29,15.01-33.82,24.09c-2.63,2.27-5.58,4.16-8.11,6.52c-1.75,1.62-2.91,3.86-4.56,5.6
		c-2.54,2.67-5.06,5.44-7.97,7.67c-10.04,7.67-20.25,15.13-30.39,22.66c-1.39,1.03-2.71,2.19-4.2,3.06
		c-5.06,2.96-8.8,7.12-11.9,12.04c-3.42,5.42-6.47,11.21-13.08,15.3c-3.08-0.41-6.94-0.94-10.85-1.46c-0.46-1.54-0.8-2.66-1.16-3.88
		c1.63-1.51,3.09-2.82,4.49-4.19c1.24-1.21,2.89-2.28,3.54-3.77c2.89-6.64,7.02-12.37,12-17.56c0.28-0.29,0.19-0.93,0.36-1.93
		c-1.56-1.02-3.38-2.22-5.15-3.38c7-8.84,13.24-16.71,19.71-24.89c-1.85-1.65-3.24-2.88-4.72-4.21c1.52-5.06,6.66-6.72,9.1-10.68
		c2.33-3.79,4.89-7.44,7.45-11.09c2.65-3.78,6.53-6.69,8.45-11.4c-2.08-1.45-3.83-2.67-6.08-4.25
		c5.76-12.97,11.92-25.45,21.45-37.75c-2.64,0.38-3.79,0.36-4.8,0.71c-4.44,1.56-8.85,3.21-13.26,4.87
		c-7.86,2.96-11.26,1.93-16.83-5.64c-1.59,0.53-3.54,0.85-5.13,1.79c-2.77,1.63-5.33,3.61-7.94,5.5
		c-6.41,4.66-12.85,9.27-19.15,14.07c-3.93,2.99-8.15,5.85-11.27,9.58c-3.58,4.27-8.24,4.31-12.78,4.8
		c-4.22,0.45-8.36-0.54-11.61-4.51c0.51-1.26,0.77-2.74,1.58-3.8c2.23-2.92,4.89-5.53,7.02-8.51c5.48-7.65,10.77-15.43,16.58-23.79
		c-0.18-1.42-0.46-3.57-0.8-6.28c0.32-0.23,0.88-0.77,1.54-1.06c11.33-5.05,20.28-13.12,28.44-22.22c0.81-0.9,1.84-1.68,2.9-2.28
		c8.86-5.04,16.56-11.62,24.64-17.76c9.21-7,18.39-14.21,29.35-18.7c4.72-1.93,8.8-5.46,12.93-8.11c0.67-2.12,1.19-3.74,1.78-5.59
		c12.94-6.58,22.07-17.99,33.34-27.12c-1.05-2.36-1.99-4.46-3-6.73c3.46-2.8,8.37-3.05,10.38-7.61c-2.13-1.51-4.12-2.92-6.5-4.6
		c-0.56-1.14-1.31-2.67-2.03-4.14c-0.57-0.05-1.12-0.29-1.43-0.11c-2.78,1.57-5.68,1.47-8.67,0.82c-3.3-0.72-6.38-0.11-9.28,1.65
		c-4.44,2.7-9.02,5.17-13.37,8c-4.59,2.99-9.39,5.31-14.54,7.29c-8.31,3.2-16.48,6.98-24.22,11.37c-6.44,3.65-12.05,3.89-18.3-1.02
		c-0.18-1.18-0.43-2.78-0.68-4.38c3.16-1.43,5.98-2.72,10.26-4.66c-6.92-1.02-12.62-1.1-14.98-7.67
		c12.44-8.65,20.07-21.77,31.91-31.8c-3.33-2.57-6.09-4.71-9.12-7.06c3.34-5.66,9.14-7.56,12.82-11.81
		c3.71-4.29,8.16-7.95,12.38-11.79c4.18-3.8,8.49-7.48,12.63-11.12c-1.65-3.61-6.47-4.1-6.32-8.57
		c10.13-9.6,20.33-19.28,30.65-29.07c-0.62-2.3-1.18-4.38-1.81-6.73c7.15-4.78,13.52-10.14,19.26-16.78
		c-1.52-2.12-2.91-4.06-4.61-6.42c1.73-2.11,3.37-4.12,5.31-6.48c-2.57-2.39-5.05-4.69-7.01-6.5c-0.55-3.73-1-6.79-1.56-10.55
		c5.36-4.19,11.14-8.7,16.68-13.03c-0.21-3.34-4.15-4.74-2.45-8.01c6.16-4.76,12.38-9.63,18.67-14.4c6.07-4.6,12.22-9.1,18.61-13.85
		c-2.38-3.04-4.31-5.51-6.62-8.48c3.11-3.8,5.94-7.47,8.99-10.94c3.28-3.72,6.84-7.17,10.15-10.87c3.09-3.44,7.13-6.12,9.06-10.54
		c-0.47-0.86-0.72-1.57-1.18-2.12c-1.59-1.89-3.24-3.73-4.99-5.71c-2.35,0.41-4.28,0.62-6.14,1.1c-9.59,2.45-19.14,5.05-28.75,7.4
		c-2.59,0.64-5.35,0.6-8.48,0.92c-2.62-2.54-5.21-5.04-8.21-7.94c1.56-1.75,2.44-3.27,3.75-4.11c18.54-11.9,37.14-23.72,55.71-35.56
		c0.41-0.26,0.73-0.65,1.44-1.29c-0.33-1.7-0.69-3.55-1.14-5.85c7.52-10.6,18.64-17.86,28.4-26.93c-0.55-2.63-1.09-5.21-1.7-8.1
		c6.87-5.75,13.67-11.44,20.65-17.28c-1.91-3.24-3.77-6.41-5.82-9.89c-3.78,0.37-7.66,0.74-11.84,1.15
		c-13.8,8.78-27.79,17.72-41.82,26.59c-4.82,3.05-9.74,5.94-14.63,8.87c-5.02,3-10.31,4.83-16.3,3.68
		c-0.94-0.18-1.97,0.08-3.21,0.16c-9.16,6.44-18.45,13.01-27.78,19.52c-10.35,7.24-20.62,14.59-31.13,21.58
		c-6.6,4.39-13.59,8.12-21.39,10.19c-2.28,0.61-4.45,2.21-6.31,3.78c-17.61,14.87-35.18,29.79-52.68,44.78
		c-4.13,3.53-8.72,5.52-13.42,5.34c-2.86,2.7-5.28,4.83-7.51,7.13c-6.42,6.64-13.41,12.48-21.65,16.81
		c-2.61,1.37-4.91,3.33-7.41,4.94C127.88,1337.31,123.55,1339.71,115.97,1338.39z M366.35,1541.85c-1.56,0.6-3.21,1.05-4.68,1.83
		c-5.67,3.02-11.21,6.3-16.94,9.2c-5.3,2.68-10.82,4.94-16.18,7.52c-1.45,0.7-2.67,1.88-4.04,2.87c1.17,2.67,2.14,4.88,3.34,7.62
		c-9.9,10.12-24.06,13.64-34.49,22.41c0,2.78,0,5.22,0,7.71c-1.71,1.59-3.32,3.09-4.88,4.55c0.31,3.49,0.61,6.86,0.81,9.16
		c3.87,3.49,7.06,6.38,10.71,9.67c3.5-2.87,7.45-5.82,11.06-9.14c3.74-3.44,8.75-5.41,11.68-9.62c-1.62-3.16-6.04-3.7-5.63-8.67
		c6.44-5.14,13.37-10.66,19.55-15.59c7.32-11.8,18.38-18.17,28.68-25.78c-1.36-2.46-2.62-4.77-3.89-7.06
		c1.7-2.43,3.23-4.62,4.76-6.81c8.48-5.98,15.15-12.79,17.27-17.8c-1.69-2.16-3.47-4.42-5.4-6.89c4.54-5.33,10.63-8.29,15.84-12.98
		c-1.48-1.76-2.64-3.28-3.98-4.62c-0.39-0.39-1.3-0.27-2.07-0.41c-0.35,2.09-0.67,3.99-0.91,5.37c-8.29,10-20.08,14.86-29.43,23.59
		c3.2,2.92,5.87,5.36,8.47,7.74C366.13,1537.92,366.24,1539.88,366.35,1541.85z M404.51,1137.03c3.97,1.19,7.95,2.39,11.98,3.59
		c6.81-2.73,13.73-5.43,20.59-8.29c4.8-2,8.71-0.68,12.14,2.82c2.08,2.12,4.03,4.37,4.37,8.15c-5.11,4.49-10.43,9.18-15.8,13.91
		c1.65,3.46,3.13,6.55,4.53,9.49c-0.66,0.99-0.94,1.74-1.48,2.18c-5.39,4.35-10.78,8.71-16.26,12.94
		c-4.29,3.31-8.92,6.22-11.94,10.67c0.25,2.77,0.46,5.18,0.64,7.14c-8.62,8.98-18.87,15.33-26.54,24.15
		c0.75,3.24,1.39,6.02,2.01,8.71c-5.45,3.95-11.94,5.23-15.66,10.83c4.07,1.07,7.19-0.64,10.39-1.89c3.42-1.34,6.32-0.1,9.04,1.84
		c2.53,1.8,4.54,3.91,3.48,7.68c-5.68,5.12-12.64,9.17-17.62,15.9c1.35,3.78,6.28,6.49,3.54,11.24
		c-8.07,11.81-20.5,20.04-27.55,32.65c1.65,2.98,3.06,5.54,4.71,8.53c-5.93,7.92-14.66,12.52-21.6,19.39
		c1.56,2.14,2.98,4.08,4.47,6.12c-0.49,1.29-0.92,2.42-1.19,3.14c-3.67,2.38-6.95,4.51-10.49,6.81c2.31,5.5,4.45,10.58,6.62,15.75
		c-4.37,2.86-8.5,5.11-11.02,9.19c2.29,3.45,7.62,4.03,7.24,9.88c-9.86,5.65-19.55,12.36-27.84,20.8c0.16,2.4,0.3,4.55,0.41,6.3
		c-5.37,4.88-10.48,9.21-15.22,13.92c-4.84,4.81-10.63,8.77-14.37,14.56c1.8,2.24,3.33,4.13,5.14,6.38
		c-3.7,6.55-9.82,10.5-14.95,15.37c-5.15,4.9-10.32,9.78-15.27,14.48c1.16,4.37,7.96,4.34,6.08,9.9
		c-7.11,6.21-14.83,11.88-21.18,20.1c3.87,0.48,5.9-1.69,8.33-2.61c5.1-1.93,9.37-1.11,12.89,2.73c0.94,1.02,1.55,2.33,2.31,3.5
		c11.64-4.82,22.75-9.69,32.89-16.49c1.43-0.96,3.05-1.65,4.59-2.44c5.47-2.81,11.02-4.57,16.34-0.93c17.15-4.38,19.58-4,24.25,4.1
		c-1.61,1.28-3.35,2.55-4.96,3.98c-1.62,1.43-3.1,3.02-4.7,4.59c5.77,4.22,5.77,4.22,6.87,8.34c-4.25,3.71-8.48,7.4-12.58,10.98
		c0.41,2.5,0.72,4.4,0.92,5.67c-10.61,9.39-20.79,18.4-30.53,27.02c-0.44,2.72-0.75,4.65-1,6.21c-0.64,0.69-0.92,1.17-1.32,1.4
		c-15.36,8.76-29.09,19.76-42.6,31.06c-5.75,4.81-12.03,8.72-19.19,10.85c-1.41,1.83-2.44,3.98-4.14,5.24
		c-5.75,4.28-11.4,8.91-17.73,12.16c-6.1,3.14-11.29,7.12-16.08,11.81c-5.83,5.71-11.59,11.5-17.28,17.35
		c-1.72,1.76-3.18,3.8-4.57,5.84c-0.56,0.82-0.6,1.98-1.26,4.36c2.9-1.86,4.62-2.76,6.12-3.96c6.76-5.42,13.41-10.98,20.19-16.38
		c3.9-3.11,8.1-5.6,13.29-6.18c1.88-0.21,3.73-1.28,5.46-2.2c5.22-2.79,10.37-5.71,14.98-8.26c3.32,0.17,5.79,0.29,8.76,0.44
		c1.25,1.41,2.65,2.99,3.93,4.43c-1.88,5.31-8.15,6.6-8.98,11.91c0.53,0.41,0.92,0.97,1.27,0.94c1.71-0.14,3.41-0.55,5.12-0.67
		c4.18-0.28,8.37-0.68,12.55-0.58c3.27,0.08,5.4,2.11,6.35,5.49c-7.61,10.51-16.78,20.05-21.51,32.96
		c4.99,0.81,10.39-0.79,12.86,5.72c-8.02,7.42-16.65,14.53-21.68,24.39c1.13,2.33,2.07,4.26,2.9,5.96
		c-4.01,4.99-7.88,9.5-11.39,14.25c-3.41,4.62-8.21,8.37-9.91,14.16c3.14,2.59,5.43,1.22,7.72-0.47c4.57-3.37,8.27-7.68,12.41-11.47
		c8.76-8.03,18.31-15.2,27.43-22.84c3.17-2.66,6.03-5.69,9.03-8.56c2.99-2.46,6.62-4.09,10.03-6.07
		c5.57-3.22,11.45-6.14,16.38-10.18c5.7-4.67,10.27-10.71,15.79-15.64c8.31-7.42,16.9-14.55,25.61-21.5
		c5.19-4.15,10.84-7.73,16.36-11.61c0-3.3,0-6.21,0-9.17c4.63-2.45,8.97-4.78,13.34-7.06c4.32-2.26,9.29-3.37,12.89-6.94
		c0-1.85,0-3.51,0-4.98c4.11-2.56,7.96-4.81,11.62-7.33c0.98-0.68,1.4-2.17,2.59-4.11c-2.72,0.22-4.43,0.16-6.04,0.52
		c-5.08,1.14-10.09,2.61-15.19,3.63c-11.82,2.35-22.73,8.75-35.3,7.43c-3.21,5.07-9.56,6.51-12.34,12.13
		c3.79,2.75,9.85,2.22,10.75,8.67c-1.17,1.68-2.54,3.64-3.95,5.67c1.01,2.32,1.95,4.48,3.07,7.03c-2.63,2.27-4.93,4.52-7.5,6.39
		c-5.22,3.78-10.8,7.09-15.84,11.08c-5.58,4.42-11.21,7.39-17.96,4.19c-12.36,5.47-16.18,4.68-20.69-4.01
		c1.87-3.58,7.71-2.53,8.74-7.68c-3.88-2.67-7.82-5.67-9.41-11.54c0.11-1.68,0.27-4.11,0.44-6.74c3.73-3.11,7.38-6.07,10.92-9.15
		c0.78-0.67,1.2-1.75,2.31-3.44c-2.96,0.36-4.88,0.5-6.77,0.84c-3.85,0.69-7.28-0.17-10.68-2.1c-3.61-2.04-7.46-3.64-12.73-6.16
		c-1.05-1.13-4.72-2.8-3-6.98c5.77-2.28,11.28-4.45,16.8-6.63c0.4-2.27,0.72-4.14,0.89-5.07c4.08-3.13,7.4-5.68,10.73-8.22
		c1.77-1.35,3.53-2.7,5.31-4.03c7.96-5.94,16.56-10.81,25.44-15.26c2.79-1.39,5.75-2.92,7.13-5.82c-0.34-3.43-4.01-5.83-1.19-10.42
		c5.19-2.65,11.28-5.9,17.5-8.88c6.16-2.95,12.96-4.65,18.47-9.29c-1.45-4.15-6.73-5.96-5.47-12.26c1.65-1.83,3.85-4.86,6.63-7.2
		c3.77-3.18,7.99-5.82,12.01-8.71c2.34-1.68,5.33-2.81,5.64-6.23c-1.45-3.6-6.95-4.92-5.26-10.06c1.66-0.91,3.32-1.83,4.92-2.71
		c-0.31-2.51-0.58-4.64-0.87-6.99c5.22-3.25,10.2-6.36,14.22-8.87c5.19,0.81,9.08,1.46,12.99,2.03c4.07,0.59,6.73,2.98,8.3,6.61
		c0.57,1.31,0.66,2.83,0.89,3.86c2.56,2.28,4.76,4.24,6.84,6.09c0,2.41,0,4.36,0,6.32c1.02,2.36,2.06,4.79,3.15,7.3
		c-5.49,4.36-10.49,8.32-15.46,12.26c1.27,2.92,2.32,5.32,3.45,7.92c-8.23,8.38-16.18,16.49-24.18,24.64
		c0.18,1.15,0.25,2.13,0.52,3.05c0.12,0.39,0.67,0.66,1.18,1.11c0.59-0.05,1.56,0.17,1.97-0.22c10.76-9.87,22.86-17.96,34.8-25.45
		c0-2.7,0-4.59,0-6.51c8.11-4.39,15.9-8.61,24.09-13.05c-1.37-3.51-2.6-6.66-3.63-9.29c-2.48-2.5-4.55-4.58-6.55-6.6
		c0.25-2.07,0.43-3.66,0.67-5.65c-2.66,0.18-5.07,0.34-7.22,0.48c-4.26-2.02-8.55-3.46-10.43-8.46c2.37-1.84,4.55-3.53,7.02-5.45
		c-4.57-4.51-10.4-7.25-10.99-13.95c-5.83-1.07-10.61-3.13-12.94-9.05c1.45-1.04,2.69-1.83,3.81-2.75c1.09-0.89,2.07-1.92,3.14-2.93
		c-1.9-3.01-4.5-5.46-1.73-10.52c2.36-1.97,5.97-4.94,9.53-7.98c4.86-4.15,10.37-7.72,12.71-13.79c-0.35-3.23-3.87-5.28-1.91-9.04
		c0.45-0.33,1.17-1.03,2.02-1.48c8.09-4.3,16.09-8.8,24.35-12.75c5.46-2.61,10.44-5.76,14.42-10.23c4.43-4.96,9.95-8.15,15.87-10.77
		c6.34-2.81,12.77-5.41,19.18-8.05c4.24-1.75,7.84-4.12,10-8.41c0.74-1.47,2.13-2.72,3.46-3.77c5.24-4.13,10.18-8.73,16.72-10.9
		c1.1-0.36,1.97-1.4,2.81-2.03c0.24-2.46,0.46-4.64,0.69-6.97c4.98-3.47,9.84-6.84,14.89-10.36c0-2.03,0-4.22,0-6.19
		c1.18-1.56,2.21-2.91,3.29-4.33c-0.44-1.26-0.82-2.37-1.3-3.75c-7.92,0.86-14.73,7.42-24.67,2.96c-2.59-2.94-6.29-7.15-10.09-11.47
		c-5.22,1.97-10.28,3.87-13.61,5.13c-7.48,0.05-9.87-5.49-14.4-7.31c-5.29,1.04-9.86,4.7-15.81,2.44
		c-5.72-2.18-7.44-7.67-11.14-11.7c-3.78,0-7.47,0-11.92,0c-3.46-2.9-8.36-5.39-10.68-9.38c-2.82-4.83-6.24-8.77-10.12-12.56
		c-1.94-1.9-3.94-3.94-2.87-7.04c1.43-1.37,2.8-2.67,4.35-4.15c-1.1-1.77-2.1-3.17-2.87-4.69c-0.75-1.48-1.27-3.09-2.16-5.29
		c12.23-7.13,25.87-10.47,37.94-17.4c0.11-2,0.22-3.9,0.31-5.68c3.52-3.75,7.66-5.81,12.2-7.23c4.49-1.4,9.17-2.39,13.39-4.36
		c9.1-4.24,18.94-5.37,28.53-7.61c0.79-0.18,1.49-0.73,2.65-1.33c-6.01-3.83-11.32-7.38-16.82-10.63c-1.63-0.96-3.73-1.36-5.66-1.51
		c-11.47-0.9-18.45-7.41-22.62-17.59c0.06-1.08-0.08-2.13,0.22-3.04c1.08-3.26,2.32-6.47,3.55-9.85c-0.57-0.77-1.08-1.63-1.74-2.33
		c-7.16-7.62-7.3-10.71-0.86-19.26c1.47-1.95,2.9-3.94,4.49-6.09c-5.45-12.45,3.81-17.61,11.66-23.24c-0.32-2.86-0.6-5.29-0.91-8.01
		c4.76-10.31,15.96-14.27,23.44-22.64c0-2.14,0-4.59,0-7.06c5.46-6.31,10.42-12.77,17-17.84c5.88-4.54,11.32-9.65,16.97-14.5
		c1.97-1.7,3.41-3.49,1.16-6.83c-2.51,1.34-4.9,2.5-7.16,3.87c-1.9,1.15-3.63,2.59-5.48,3.84c-3.97,2.67-8.01,5.15-13.47,3.24
		c-6.31,3.81-12.73,7.53-18.98,11.51c-5.81,3.69-11.53,7.15-18.06,3.11c-7.29,1.37-7.29,1.37-12.96-0.71
		c-2.7-3.41-6.82-6.39-5.7-10.92c3.68-6.85,10.79-9.35,13.48-15.63c-1.66-2.03-3.22-3.66-4.43-5.51c-1.18-1.82-2.01-3.88-3.16-6.18
		c1.48-2.48,2.51-5.09,4.29-6.99c3.55-3.78,7.48-7.21,11.31-10.73c5.44-5.01,10.93-9.97,16.19-14.77c0.12-4.86-4.43-8.19-1.91-13.74
		c6.43-6.8,14.36-13.44,23.2-19.02c5.24-3.31,9.95-7.22,14.14-11.79c-0.39-3.34-0.75-6.42-1.1-9.46c-8.94,1.23-17.05,3.2-24.58,7.14
		c-5.93,3.11-11.92,6.09-17.78,9.32c-5.37,2.96-10.75,5.14-16.76,2.09c-2.22,1.71-4.14,3.2-5.86,4.53c0.38,3.51,0.72,6.62,0.95,8.71
		c-2.51,4.42-7.15,5.41-8.34,9.45c5.23,4.92,5.23,4.92,6.56,10.64c-1.43,5.54-5.4,9.32-9.42,13.02
		c-5.09,4.69-10.26,9.28-15.52,14.04c1.08,2.98,2.07,5.71,2.95,8.16c-0.95,4.01-3.75,6.18-6.21,8.6c-2.44,2.39-4.86,4.8-7.44,7.34
		c1.4,2.3,2.65,4.37,3.73,6.16c0.2,2.82-0.82,4.63-2.67,6.17c-4.76,3.96-9.45,8-14.17,12.01c-2.02,1.72-4.7,2.82-5.56,5.58
		c0.77,2.48,1.49,4.8,2.3,7.42c-12.82,10.06-25.45,19.98-37.27,29.26c-0.91,3.02-1.47,4.88-1.71,5.7
		c-6.16,4.23-11.5,7.81-16.75,11.51c-5.45,3.84-10.83,7.78-16.14,11.61c-0.13,2.33-0.23,4.24-0.36,6.56
		c-7.7,4.51-15.36,9.03-23.05,13.5c-1.49,0.87-3.24,1.38-4.58,2.43c-11.11,8.7-22.25,17.37-33.17,26.31
		c-4.86,3.98-9.69,7.71-15.76,8.32c-14.81,11.2-29.14,22.25-42.18,34.83c-5.48,5.29-9.75,11.93-17.2,14.94
		c-0.22,0.09-0.37,0.32-0.56,0.48c-10.26,8.64-19.98,17.86-28.73,28.01c-3.98,4.62-8.21,9.37-8.62,15.62
		c-4.54,4.16-8.47,8.39-14.44,9.35c-4.09,4.54-8.29,8.79-12,13.43c-3.55,4.43-7.74,8.54-10.34,15.69c2.89-1.62,4.54-2.17,5.68-3.26
		c2.68-2.58,5.1-5.41,7.63-8.14c6.22-6.72,12.43-13.43,18.78-20.29c3.45,0.27,6.61,0.52,10.23,0.8c1.7-1.25,3.82-2.55,5.65-4.17
		c16.1-14.33,32.28-28.58,48.15-43.17c5.31-4.89,10.35-8.65,17.83-4.48c1.87-0.98,3.72-1.71,5.3-2.82
		c4.66-3.27,9.18-6.74,13.81-10.05c8.67-6.2,17.47-12.21,26.04-18.53c10.97-8.09,21.74-16.43,32.65-24.59
		c2.34-1.75,4.9-3.2,7.63-4.95c3.37,1.52,6.47,2.91,10.34,4.65c1.81-0.99,4.26-2.12,6.48-3.59c14.86-9.85,29.7-19.74,44.49-29.7
		c2.99-2.01,5.77-4.35,8.65-6.54L404.51,1137.03z M310.15,1636.26c-5.05-3.07-8.93-5.42-13.21-8.02
		c-5.93,5.06-12.07,10.3-18.28,15.6c0.12,1.63,0.22,3,0.29,3.92c5.17,1.79,9.77,3.38,15.45,5.35c1.23-0.25,3.56-0.72,6.01-1.22
		c-1.31-2.58-2.35-4.62-3.39-6.66C301.62,1642.1,305.62,1639.36,310.15,1636.26z"/>
	<path d="M668.12,1771.7c-3.18-0.62-5.47-1.09-7.76-1.52c-2.19-0.42-4.46-0.59-6.57-1.25c-3.75-1.17-7.61-2.27-11.07-4.07
		c-5.44-2.82-8.88-7.14-7.6-14.65c6.04-7.65,17.02-8.28,24.63-13.92c-2.72-3.73-5.54-7.08-7.69-10.81
		c-0.99-1.73-0.65-4.23-0.98-6.94c5.56-3.3,10.83-6.42,16.51-9.78c0.14-1.83,0.3-3.99,0.48-6.31c1.43-0.94,2.81-1.86,4.99-3.3
		c-1.01-0.57-1.66-1.25-2.25-1.21c-8.4,0.52-16.83,0.81-25.17,1.82c-7.35,0.89-14.58,2.76-21.91,3.86
		c-3.12,0.47-6.37,0.08-9.25,0.08c-3.89-2.95-5.34-6.83-6.11-11.7c-2.9,0.15-5.6-0.01-8.19,0.47c-9.49,1.77-18.96,3.68-28.41,5.69
		c-3.88,0.83-7.67,2.12-12.29,0.86c-1.5-1.12-3.48-2.59-6.12-4.56c-5.47,1.23-11.52,2.38-17.44,3.97
		c-8.85,2.37-17.67,4.85-26.38,7.67c-4.63,1.5-8.72,1.55-12.78-2.29c-8.27,2.41-16.67,4.5-24.8,7.35c-5.99,2.09-12.53,3.1-17.5,7.76
		c-1.12,1.05-3.25,1.04-4.94,1.44c-20.22,4.81-38.77,13.6-56.8,23.66c-1.27,0.71-2.4,1.66-3.65,2.54c0.77,5.88,9.56,7.55,7.12,15.11
		c-5.64,6.29-13.23,10.97-21.17,16.64c4.7,2.84,9.13,1.5,14.54,3.44c2.04,1.93,5.25,4.97,9.07,8.59c8.24,1.14,16.64-2.9,25.96-3.41
		c0.7-2.05,1.39-4.09,2.32-6.8c8.28-8.28,18.94-12.67,30.06-13.82c5,1.59,7.21,4.5,9.28,7.86c0.21,3.36,0.43,6.79,0.65,10.18
		c-4.59,2.84-8.75,5.42-12.33,7.63c-13.3,4.24-26.03,8.3-39.47,12.59c-9.39-3.99-19.94,1.18-30.96-1.56
		c-3.95-1.61-5.46-6.53-8.68-10.06c-4.31-0.88-8.66-1.77-13.15-2.69c-3.52-3.7-8.12-6.78-6.43-13.78c3.54-3.08,7.34-6.62,11.39-9.85
		c3.81-3.03,7.89-5.72,12.65-9.14c-6.29-3.11-11.09-6.47-10.98-13.74c2.57-3.81,6.69-6.22,10.71-8.54
		c15.06-8.68,30.8-15.95,47.08-22.07c2.88-1.08,5.47-2.96,7.86-5.21c18.54-5.38,37-11.05,55.64-16.04
		c10.51-2.81,21.31-4.52,31.98-6.72c0.49-0.1,0.99-0.26,1.47-0.22c13.62,1.13,26.28-4.63,39.65-5.5c7.9-0.51,15.65-1.65,23.57,0.47
		c3.46,0.93,7.48,0.82,11.03,0.12c10.08-2.01,20.2-1.64,30.35-1.41c4.97,0.11,9.25,1.48,12.59,5.32c0.63,0.73,1.55,1.21,2.84,2.19
		c17.36-1.21,35.21-2.86,52.88,3.13c2.31,2.18,4.81,4.54,7.48,7.06c5.59-0.77,11.03-1.92,16.34-3.54c0.42-3.79,0.77-6.93,1.08-9.7
		c20.49-12.6,97.97-28.35,128.79-26.1c1.6,1.42,3.44,3.04,6.03,5.34c6.65,0,14.06,0.12,21.46-0.02c18.38-0.36,36.73,0.18,54.91,3.05
		c6.59,1.04,13.11,2.69,19.52,4.55c4.83,1.41,9.09,3.97,11.1,9.11c0.43,1.11,1.34,2.04,2.18,3.27c11.09,2.38,22.35,4.12,33.7,4.94
		c3.33,0.24,6.88-0.81,10.16-1.82c15.31-4.7,31.12-5.75,46.94-6.55c7.42-0.37,14.9-0.26,22.32,0.12c5.41,0.27,10.77,1.34,15.18,1.93
		c1.28,1.03,1.82,1.25,2.02,1.65c3.03,5.79,7.82,8.12,14.29,9.06c10.77,1.56,21.36,4.31,32.07,6.34c7.89,1.5,14.45,5.02,19.43,11.39
		c0.45,0.58,1.08,1.01,2.16,1.99c7.96,1.36,16.5,2.84,25.04,4.29c4.39,0.75,8.77,1.59,13.19,2.17c6.98,0.91,12.19,3.96,14.04,11.17
		c1.27,0.63,2.31,1.48,3.46,1.67c9.77,1.61,19.59,2.97,29.34,4.68c8.28,1.45,16.5,3.3,24.76,4.9c5.62,1.09,9.14,4.63,11.29,9.75
		c18.43,3.29,36.67,6.55,54.57,9.74c3.93,5.35,8.98,6.9,14.63,7.43c15.8,1.51,31.58,3.17,47.38,4.74c1.22,0.12,2.46,0.02,3.98,0.02
		c1.12-2.17,2.21-4.3,3.36-6.52c7.64-2.69,15.82-0.29,23.43-2.44c0.49-3.3,0.94-6.33,1.34-8.98c3.75-1.5,6.55-0.52,9.5-0.1
		c11.27,1.6,22.59,2.83,33.91,4.11c0.85,0.1,1.77-0.45,3.2-0.84c-3.07-5.19-3.8-10.44-2.74-15.99c1.28-2.1,3.37-2.66,5.68-2.82
		c4.69-0.34,9.39-0.63,14.06-1.09c3.09-0.31,6.42,0.18,9.72-2.34c-6.35-5.18-10.15-11.14-7.05-19.61c4.35-3.66,10.6-1.45,15.29-4.42
		c0.16-2.69-2.13-3.18-3.82-3.81c-5.56-2.09-11.23-3.89-16.82-5.9c-2.29-0.82-4.6-1.71-6.68-2.93c-7-4.1-8.16-10.36-3.31-17.45
		c2.44-0.7,4.97-1.42,8.56-2.45c-1.75-1.23-2.54-2.14-3.51-2.41c-7.6-2.16-15.25-4.18-22.87-6.28c-3.33-0.92-6.87-1.49-8.84-5.18
		c0-3.48,0-7.16,0-11.39c3.61-0.88,7.06-1.73,11.18-2.73c-3.57-3.39-7.13-5.04-10.97-5.9c-7.82-1.74-15.37-4.85-23.5-5.37
		c-1.28,2.83-2.28,5.03-3.55,7.83c-5.01,0.24-10.1,0.48-15.92,0.76c1.47,4.36,2.71,8.02,3.94,11.66c2.17,0.75,4.02,1.38,6.18,2.12
		c5.32,5.14,7.75,11.58,6.94,19.68c-1.07,1.25-2.33,2.71-3.29,3.84c-6.38,1.64-12.04,1.93-18.03-0.03
		c-4.63-1.51-8.62-3.36-11.97-6.94c-2.52-2.7-5.65-4.83-8.32-7.41c-5.09-4.93-6.2-10.92-4.66-18.02c3.44-1.61,6.75-3.15,10.51-4.91
		c0.88-4.06-0.14-9.28,5.66-13.36c5.69-3.49,14.44,0.11,21.76-3.99c1.4-1.89,2.87-3.87,4.77-6.43c3.74-0.44,7.88-0.99,12.03-1.39
		c5.42-0.52,10.31,0.35,14.04,4.97c1.01,1.25,2.89,1.83,4.44,2.6c4.66,2.32,9.32,4.64,14.03,6.86c8.62,4.08,13.63,10.5,13.46,20.37
		c-0.01,0.48,0.24,0.95,0.47,1.81c1.04,0.56,2.28,1.33,3.6,1.93c3.81,1.74,7.74,3.22,11.45,5.14c7.66,3.95,10.39,11.72,9,20.22
		c-0.24,1.44-0.69,2.84-1.12,4.59c3.5,2.01,6.97,3.83,10.27,5.91c8.84,5.59,11.66,13.64,9.74,23.08c-2.55,4.44-6.77,4.77-11,6.18
		c0.91,3.51,2,6.73,2.52,10.04c0.49,3.13,0.37,6.34,0.48,8.77c-2.77,4.31-6.2,5.2-10.08,5.56c-4.1,0.38-8.32,0.54-12.48,2.97
		c3.17,6.82,4.76,13.58,1.62,21.08c-15.58-0.99-30.83-1.96-46.06-2.93c-1.43,2.33-2.57,4.19-3.81,6.21
		c-9.44,0.61-18.79,1.22-28.22,1.83c-1.11,2.64-2.13,5.07-3.33,7.91c-25.4-2-50.54-3.97-74.47-5.85c-1.6-0.96-2.13-1.12-2.43-1.48
		c-4.33-5.22-9.88-7.71-16.62-8.51c-11.56-1.37-23.07-3.22-34.58-4.95c-4.38-0.66-8.72-1.55-12.75-2.28
		c-2.75-3.41-5.07-6.29-7.88-9.78c-5.46-1.28-11.42-3.01-17.49-4.01c-9.04-1.5-18.16-2.63-27.27-3.66
		c-9.03-1.02-17.35-2.96-20.33-12.79c-8.36-2.81-16.42-4.03-24.52-5.05c-2.95-0.37-5.92-0.79-8.88-0.88
		c-6.62-0.2-11.94-2.51-15.8-8.17c-2.95-4.33-7.64-6.32-12.55-7.31c-10.68-2.15-21.41-4.05-32.15-5.91
		c-7.25-1.26-14.09-3.07-18.28-9.93c-0.5-0.81-1.4-1.38-2.61-2.52c-2.45-0.27-5.38-0.96-8.29-0.86c-14.86,0.5-29.72,1.17-44.57,1.87
		c-2.12,0.1-4.55-0.16-6.28,2.69c5.45,6.06,11.01,12.44,9.3,22.25c-1.13,1.32-2.55,2.97-4.04,4.69c0.44,0.72,0.66,1.56,1.19,1.87
		c6.42,3.77,12.59,7.73,17.77,13.31c5.6,6.02,8.26,12.75,7.85,20.53c-1.39,3.46-4,4.74-7.03,5.35c-5.1,1.02-10.22,1.94-15.33,2.91
		c-1.67,0.32-3.35,0.64-5.12,0.98c-0.67,2.3-1.27,4.38-1.9,6.54c-1.18,0.22-2.13,0.55-3.09,0.54c-13.88-0.08-27.77-0.11-41.65-0.37
		c-4.2-0.08-8.41-0.62-12.57-1.28c-5.45-0.87-9.9-3.28-11.91-10.39c0.06-1.1,0.2-3.52,0.35-6.14c3.15-1.26,5.98-2.39,9-3.6
		c-8.62-8.88-8.67-9-7.05-18.12c6.06-1.71,12.43-3.51,18.63-5.27c1.6-2.33,1.08-4.49,0.06-6.53c-3.95-7.95-4.66-16.08-1.05-24.81
		c-1.89-0.76-3.36-1.6-4.93-1.92c-2.42-0.5-4.91-0.78-7.38-0.93c-7.23-0.45-12.92-3.27-16.12-10.09c-1.65-3.52-4.71-5.09-8.24-5.67
		c-10.51-1.73-21.01-3.81-31.6-4.78c-15.57-1.42-31.22-1.1-46.84-0.46c-2.97,0.12-5.95,0.17-8.93,0.19
		c-9.65,0.06-9.65,0.05-16.41-6.42c-20.92-2.23-91.06,12.55-111.32,23.55c0,2.3,0,4.75,0,6.89c-1.99,4.63-7.65,1.93-10.61,6.17
		c5.68,1.46,10.83,2.9,16.03,4.08c7.33,1.66,14.18,4.46,20.56,8.34c5.11,3.11,7.21,7.8,6.68,13.78c-4.35,2.38-9.27,2.72-13.18,6.14
		c2.47,2.21,5.35,1.74,7.9,2.2c6.81,1.23,13.78,1.5,20.33,4.18c4.01,1.64,7.36,4.01,10.36,7.05c3.18,3.22,4.78,6.86,3.39,11.88
		c-6.26,3.01-13.33,4.08-20.72,5.84c0.48,3.65,0.93,7.16,1.41,10.85c-1.44,0.45-2.33,0.86-3.26,1c-12.75,1.82-25.5,3.69-38.27,5.35
		c-10.56,1.37-21.15,2.54-31.74,3.66c-2.19,0.23-4.44-0.21-6.66-0.27c-3.2-0.08-6.41-0.19-9.61-0.09
		c-8.89,0.28-17.78,0.67-26.28,1.01c-4.43-3.63-7.05-7.25-6.41-12.64C656.85,1775.09,663.53,1776.41,668.12,1771.7z M669.64,1724.58
		c5.26,5.62,12.8,8.91,11.3,17.86c-2.57,3.04-6.39,3.52-9.83,4.72c-5.84,2.04-11.72,3.97-17.52,6.09c-0.89,0.33-1.48,1.47-2.8,2.84
		c2.51,0.64,4.11,1.16,5.74,1.44c6.1,1.04,12.23,1.98,18.33,3c7.82,1.31,13.78,5.24,17.37,12.47c0.43,0.86,1.04,1.63,1.79,2.77
		c13.16-1.93,26.29-3.86,39.59-5.81c0.64-1.26,1.4-2.79,2.11-4.2c11.24-4.43,23.35-4.65,34.54-8.86c-0.56-0.83-0.79-1.53-1.09-1.57
		c-12.75-1.47-25.51-2.87-38.83-4.35c-1.73-1.82-3.76-3.94-5.61-5.88c-0.34-3.09-0.64-5.76-0.92-8.35
		c5.94-5.6,14.09-6.34,20.87-11.18c-2.37-0.92-3.89-1.69-5.5-2.1c-11.56-2.95-23.4-4.08-35.24-5.14c-4.68-0.42-9.41-0.4-14.11-0.25
		C682.8,1718.31,676.26,1720.33,669.64,1724.58z M1023.17,1723.39c0.12-2.01,0.29-4.71,0.42-6.78c1.32-2.42,2.32-4.27,3.31-6.09
		c-5.34-3.28-13.47-6.51-17.68-6.43c-2.62,0.05-5.56,0.53-7.78,1.81c-8.25,4.75-10.43,11.9-6.72,20.66
		c2.04,4.81,4.11,9.59,2.66,15.49c-1.07,1.32-2.42,2.98-4.05,4.98c6.63,3.4,7.56,10.5,11.59,15.48c3.78,0,7.39,0,10.77,0
		c1.23-2.1,2.19-3.74,2.64-4.51c10.38-1.76,19.85-3.33,29.3-5.02c1.87-0.33,4.03-0.61,4.62-3.96c-1.41-1.07-3.01-2.51-4.82-3.6
		c-3.6-2.17-7.26-4.26-11-6.18C1029.98,1735.94,1025.09,1731.37,1023.17,1723.39z"/>
	<path d="M1306.12,1031.08c-1.55-0.1-2.78-0.16-4-0.25c-1.23-0.09-2.46-0.19-3.6-0.29c-4.53-2.41-7.79-5.4-6.84-11.62
		c5.74-1.37,11.38-2.72,17.01-4.07c-5.82-3.24-12.7,0.08-19.1-5.31c-0.87-2.32-2.22-5.91-3.76-10.01c-1.53-0.19-3.71-0.46-6.01-0.74
		c-3.03-2.87-6.42-5.49-5.33-11.08c4.51-1.58,9.08-3.29,13.72-4.78c4.94-1.59,9.98-2.91,14.92-4.5c4.59-1.48,9.92-0.5,14.62-4.58
		c-4.21-2.26-8-4.3-12.32-6.62c-1.24-2.74-2.63-5.83-4.29-9.54c2.94-1.69,5.4-3.1,8.25-4.74c-5.91-2.7-10.06-6.37-9.35-13.55
		c5.67-1.8,11.98-0.95,17.24-4.74c-1.01-3.22-2-6.38-2.73-8.71c2.13-4.72,6.64-2.17,9.02-5.07c-0.87-3.06-1.78-6.28-2.91-10.27
		c4.19-0.84,7.64-1.54,11.14-2.25c-0.21-4.77-5.44-7.85-3.29-12.98c4.67-3.17,10.97,0.83,15.77-3.61c0.46-3.34-3.42-6.4-1.47-10.88
		c10.8-3.21,22.41-5.05,34.23-7.54c-1.5-5.57-6.89-9.9-2.35-16.28c3.35-0.57,7.17-1.21,11.22-1.9c0.59-4.44-3.25-8.25-0.78-12.74
		c4.69-0.75,10.24,1.46,14.99-3.07c-1.95-2.8-3.86-5.55-5.93-8.54c-17.5,0.2-35.01,3.6-53.09,0.27c-1.7-1.39-3.8-3.1-6.33-5.17
		c-9.98-0.13-20.34,0.36-30.64,1.91c-5.63,0.85-11.22,2.02-16.84,2.97c-5.23,0.88-10.38,0.94-14.81-2.03
		c-10.53,0.4-25.33,5.11-41.39,13.17c-0.84-0.48-1.98-0.95-2.9-1.7c-0.95-0.76-1.68-1.79-2.73-2.94c-0.09-2.04-0.19-4.24-0.28-6.27
		c0.7-0.79,1.08-1.51,1.68-1.85c3.24-1.82,6.38-3.94,9.82-5.22c17.05-6.35,34.59-10.42,52.92-10.15c2.46,0.04,4.91,0.47,7.36,0.69
		c1.72,0.16,3.48,0.58,5.16,0.36c20.28-2.64,40.62-1.08,60.93-0.77c7.39,0.11,14.75,1.73,22.12,2.65c3.44,0.43,6.88,0.89,10.33,1.24
		c8.12,0.82,16.28,1.38,24.37,2.47c2.85,0.38,5.54,2,9.05,3.34c19.53-0.28,39.85-1.54,60.14-0.03c2.23,1.85,4.31,3.58,6.6,5.48
		c6.53,0.32,13.22,0.58,19.89,0.98c7.92,0.48,15.83,1.09,23.74,1.65c0.74,0.05,1.47,0.22,2.21,0.3c8.82,0.95,13.74,8.72,9.13,16.63
		c1.46,4.04,4.97,7.66,2.61,12.77c-5.89,3.98-13.7,2.66-20.69,6.38c8.15,1.98,15.93,2.13,23.66,5.93c1.15,2.55,2.55,5.65,4.26,9.41
		c1.95,2.13,4.43,4.84,6.72,7.35c0,2.75,0,4.93,0,7.08c-0.77,0.57-1.29,1.25-1.93,1.39c-4.99,1.12-10.01,2.13-16.26,3.43
		c4.73,3.25,10.32,3.49,12.18,8.26c0.94,2.42,0.84,5.24,1.14,7.37c-3.09,4.62-7.1,6.44-11.44,7.72c-7.83,2.32-15.68,4.59-23.51,6.9
		c-4.51,1.33-9.04,2.62-13.51,4.08c-1.29,0.42-2.41,1.36-4.4,2.53c3.79,1.05,6.68,1.66,9.42,2.69c1.82,0.69,3.56,1.8,5.09,3.03
		c2.39,1.91,3.03,4.41,1.32,7.98c-4.72,0.52-9.88,0.71-14.88,1.75c-5.05,1.05-9.93,2.94-15.25,4.57c-0.43,3.65,2.48,7.56-0.43,11.77
		c-10.04,2.36-20.53,4.83-31.81,7.48c1.93,2.38,3.4,4.2,5.06,6.25c0,2,0,4.18,0,6.74c-13.09,4.82-26.06,9.49-39.94,12.81
		c-0.19,3.11-0.36,6-0.57,9.52c-12.82,6.41-27.4,7.17-41.53,11.48c-0.12,2.05-0.25,4.4-0.42,7.44c-2.18,0.71-4.41,1.76-6.75,2.13
		c-9.29,1.49-18.63,2.72-27.94,4.14c-3.67,0.56-7.3,1.32-10.94,2.05c-4.92,0.99-9.82,1.85-14.06-1.02
		C1312.76,1040.77,1312.76,1040.77,1306.12,1031.08z M1424.37,894.85c-0.36,0.3-0.72,0.6-1.08,0.9c3.23,9.72,6.46,19.45,9.51,28.65
		c-1.25,1.69-1.97,2.66-2.75,3.72c0.39,0.97,0.74,1.88,1.13,2.77c3.66,8.31,7.98,16.48,5.53,26.09c-0.12,0.47-0.28,0.94-0.47,1.56
		c-1.49,1-3.08,2.06-4.82,3.22c1.41,2.88,2.69,5.48,4.23,8.63c4.09-0.54,8.37-0.19,11.76-1.75c5.29-2.44,10.8-3.47,16.34-4.68
		c1.38-0.3,2.71-0.84,4.07-1.27c0.25-2.78,0.46-5.19,0.68-7.63c7.68-6.03,17.54-6.85,25.64-11.19c0-2.59-0.32-4.62,0.09-6.49
		c0.4-1.85,1.11-4.05,2.45-5.2c3.72-3.19,7.16-6.82,12.13-8.35c6.85-2.1,13.62-4.48,20.39-6.81c1.19-0.41,2.26-1.17,4.62-2.44
		c-4.06-0.98-6.64-1.61-8.57-2.08c-7.27-4.59-8.28-11.41-8.43-18.88c-5.61-3.22-8.02-8.5-8.64-14.65
		c-5.78-4.54-8.88-10.09-7.2-18.98c1.04-0.73,3.05-2.15,5.66-3.98c-6.14-3.17-7.85-8.71-10.06-13.84c-13.13,0-25.94,0-38.74,0
		c0.34,0.48,0.68,0.96,1.01,1.43c-3.5,2.76-7,5.51-10.45,8.23c0,2.61,0,4.79,0,6.54c-1.27,1.57-2.19,2.71-3.01,3.73
		c0.01,2.88,1.34,5.69-1.31,8.24c-3.16,0.98-6.64,2.07-9.81,3.06c-0.93,2.81-1.68,5.08-2.33,7.05c-3.07,0.83-5.58,1.52-7.59,2.06
		C1424.37,887.12,1424.37,890.98,1424.37,894.85z"/>
	<path d="M757.37,828.35c13.33-7.4,25.19-14.09,37.18-20.57c4.56-2.46,9.22-4.45,14.83-3.95c2.68,0.24,5.65-1.54,8.34-2.74
		c7.24-3.25,14.38-6.69,21.58-10.03c4.8-2.23,9.84-3.41,15.16-2.97c3.3,0.27,6.38-0.3,9.37-1.71c6.13-2.89,12.65-4.13,19.39-4.57
		c2.42-0.16,4.82-0.92,7.17-1.6c4.52-1.3,8.96-2.94,13.52-4.05c2.86-0.7,6.1-1.53,8.81-0.86c7.19,1.77,13.68-0.77,20.43-2.09
		c6.53-1.27,13.13-2.16,18.9-3.09c3.23,1.45,5.48,2.45,8.19,3.66c3.27-0.29,6.96-0.73,10.66-0.91c8.91-0.45,17.82-0.92,26.74-1.1
		c2.68-0.06,5.58,0.3,8.02,1.33c4.29,1.81,8.61,1.93,13.1,1.77c6.43-0.22,12.82-0.54,18.75,3.12c1.9,1.17,4.77,0.76,7.21,1.06
		c4.87,0.58,9.74,1.15,13.66,1.61c4.85,4.88,8.89,8.83,12.81,12.91c2.47,2.57,2.59,4.56,0.77,8.06c-0.44,0.85-1.11,1.57-1.68,2.37
		c1.35,3.2,5.13,5.33,3.35,10.03c-4.76,4.47-11.99,5.32-18.21,8.66c0.96,2.59,1.79,4.85,2.49,6.74c-0.38,3.88-2.82,5.65-5.57,6.88
		c-5.41,2.44-10.91,4.69-16.42,6.92c-2.25,0.91-4.61,1.57-7.03,2.39c0.5,3.06,0.94,5.69,1.43,8.71
		c-9.81,8.27-22.61,11.08-33.34,18.28c1.91,2.72,3.57,5.08,5.01,7.15c0.05,3.46-2.09,4.9-4.3,5.99c-6.88,3.4-13.8,6.71-20.79,9.86
		c-3.79,1.71-7.76,3.03-11.51,4.48c-0.01,3.83,4.81,5.2,3.18,9.57c-9.49,8.52-23.14,9.28-34.38,14.91c1.07,3.21,1.9,5.69,2.66,7.97
		c-3.12,4.2-6.81,6.72-10.81,8.68c-11.79,5.75-23.36,12.06-36.4,14.79c-2.17,0.45-4.41,1.11-6.3,2.22
		c-7.36,4.34-15.76,3.91-23.73,5.18c-5.29,0.84-10.82,0.16-15.77,0.16c-5.88-3.43-8.71-7.93-8.53-14.56
		c2.38-1.19,4.72-2.35,7.42-3.7c-2.15-3.15-4.07-5.97-6.13-8.99c-4.6-1.68-8.67-4.26-10.64-9.09c0.79-2.93,3.12-3.07,5.21-3.8
		c1.76-0.61,3.33-1.79,6.33-3.48c-7.74-0.76-11.92-3.91-13.72-10.63c4.58-2.31,9.09-4.58,13.58-6.84c-0.24-4.21-5.8-5.97-3.4-10.66
		c3.16-1.1,6.57-2.3,10.43-3.65c-1.65-3.15-2.98-5.67-4.06-7.73c0.75-4.13,4.65-3.18,6.77-5.66c-0.57-0.99-1.03-2.34-1.93-3.24
		c-1.76-1.74-3.9-3.09-5.63-4.85c-1.9-1.94-3.78-4.07-2.39-7.62c1.48-0.61,3.23-1.33,5.29-2.18c-1.84-3.01-3.55-5.82-5.52-9.03
		c3-1.54,5.3-2.72,7.96-4.08c-1.54-3.55-6.03-5.39-4.83-9.71c1.51-2.66,4.34-2.06,6.59-2.88c2.05-0.75,3.98-1.81,6.2-2.84
		c-0.82-2.87-1.53-5.34-2.4-8.38c4.43-1.15,8.37-2.18,12.83-3.34c-0.92-3.33-1.69-6.08-2.47-8.9c-1.83-0.71-3.4-1.32-5.42-2.1
		c-2.45,1.47-4.97,2.97-7.48,4.49c-4.66,2.82-9.2,5.87-14.02,8.39c-2.3,1.2-5.12,1.4-7.35,1.96c-2.69-1.6-4.8-2.86-6.94-4.14
		c-5.67,1.81-10.22,5.22-14.36,9.16c-3.86,3.67-8.17,6.37-13.61,7.75c-2.81-1.18-5.75-2.4-9.03-3.78
		c-10.75,6.08-19.3,15.35-29.58,21.38c-3.23,0-5.93,0-9.45,0c-5.23,4.74-11.09,9.69-16.51,15.1c-4.43,4.43-8.73,8.38-15.65,5.52
		c-4.81,5.24-9.31,10.14-13.77,15.01c-4.92,0.68-6.52-2.74-8.81-6.52c2.5-3.57,4.76-7.39,7.59-10.72
		c6.92-8.12,14.34-15.78,23.42-21.59c1.04-0.67,2.01-1.7,3.15-1.95c9.31-2.05,16.2-8.28,23.69-13.48
		C751.39,828.9,751.44,828.84,757.37,828.35z M969.88,870.1c4.41-2.28,9.14-4.95,14.07-7.2c4.87-2.22,9.93-4.01,14.77-5.93
		c-0.79-4.52-5.47-6.97-3.63-11.79c6.99-5.82,16.91-5.62,24.79-10.56c-3.64-4.71-8.96-8.19-6.68-14.73c3.42-1.34,7.4-0.48,9.37-3.94
		c-0.88-3.74-4.3-6.5-2.99-10.92c2.22-1.06,4.53-2.17,7.24-3.47c-1.86-2.17-3.28-3.82-4.66-5.43c-1.73,0-3.23-0.16-4.68,0.03
		c-4.46,0.57-8.71,0.79-13.06-1.32c-1.92-0.93-4.94-0.43-7.18,0.28c-4.61,1.47-9.19,1.77-13.59,1.3c-4.64-2.77-6.05-7.34-8.01-12.11
		c-4.45,0.76-8.76,1.5-12.57,2.15c-1.5,2.42-2.54,4.09-3.41,5.49c-1.88,0.86-3.41,1.57-4.68,2.16c-0.8,2.23-1.45,4.07-2.09,5.85
		c-1.96,1.39-3.77,2.68-5.83,4.14c-1.18,8.88-10.59,10.82-14.52,16.18c0.21,4.85,0.38,8.7,0.59,13.41c1.51,0.91,3.68,1.99,5.58,3.43
		c2.12,1.6,3.99,3.53,5.74,5.11c-0.18,2.86-0.32,5.05-0.42,6.79c0.95,1.71,1.65,2.97,2.26,4.09c-0.98,2.36-1.81,4.37-2.49,6.03
		c4.46,10.61,14.42,17.61,16.02,29.82c4.62-2.08,9.85-1.9,13.49-5.75C969.2,875.89,969.2,875.89,969.88,870.1z"/>
	<path d="M1002.82,1506.97c9.27,0.61,17.9,1.16,26.52,1.74c8.51,0.57,16.74,1.95,23.36,8.65c17.75-2.75,35.52-5.51,53.48-8.29
		c0.42-2.98,0.76-5.38,1.09-7.74c1.66-2.27,3.97-2.64,6.49-3.1c16.52-3,33.01-6.18,49.79-9.36c0.8-3.38,1.53-6.42,2.36-9.92
		c34.92-7.6,70.19-8.84,106.44-7.3c3.51,4.81,9.2,6.09,15.74,6.27c5.9,0.17,11.77,1.59,17.66,2.47c5.85,0.88,11.69,1.77,17.75,2.69
		c1.61,1.99,3.18,3.92,4.82,5.94c14.12,3.31,28.05,6.53,41.96,9.87c11.07,2.65,22.38,4.61,32.41,10.44c2.54,1.47,5,3.19,7.17,5.16
		c5.17,4.72,5.82,8.71,2.81,16.46c-1.58,0.33-3.48,0.69-5.36,1.14c-1.55,0.37-3.08,0.86-5.68,1.59c2.06,1.74,3.28,2.77,4.5,3.81
		c2.81,2.41,5.91,4.56,8.37,7.29c3.88,4.3,3.8,8.5,0.34,14.33c-8.11,2.27-16.37,4.58-25,7c0.81,3.47,3.44,4.25,5.13,5.83
		c6.57,6.14,7.95,13.54,3.86,21.58c-6.38,4.23-14.01,4.11-21.29,5.08c-9.33,1.25-18.74,1.9-28.11,2.9
		c-1.38,0.15-2.71,0.77-4.27,1.23c0.9,4.37,1.72,8.36,2.38,11.56c-1.5,3.14-3.19,4.22-5.58,4.74c-14.57,3.12-29.3,4.92-44.17,5.28
		c-6.15,0.15-12.33-0.95-19.54-1.57c-1.45-1.72-3.35-3.99-5.37-6.39c-8.11-0.64-16.24-1.27-24.41-1.92
		c-6.23-3.23-9.21-8.04-7.58-15.82c1.58-1.48,3.51-3.29,5.95-5.57c-1.62-0.84-2.94-1.78-4.4-2.23c-4.02-1.25-8.13-2.19-12.14-3.48
		c-2.1-0.67-4.15-1.66-6.07-2.76c-6.84-3.92-8.51-8.73-5.77-17.65c6.24-1.63,12.89-3.37,20.12-5.26c0.28-3.09,0.6-6.45,0.97-10.54
		c4.89-0.38,9.71-0.76,14.54-1.12c4.92-0.36,9.85-0.69,15.09-1.06c1.07-1.66,2.25-3.49,3.52-5.45c7.91-1.01,15.73-2,23.34-2.97
		c4.25,1.45,5.33,5.14,6.63,8.62c4.34,3.22,10.38,4.6,12.08,10.44c0.71,2.43,0.12,5.23,0.12,8.15c-2.16,0.49-3.78,0.91-5.42,1.21
		c-4.11,0.76-8.2,1.89-12.34,2.1c-5.41,0.28-10.98,0.46-16.25-0.53c-4.96-0.93-10.27-2.08-13.97-6.85c-2.87,0.34-5.71,0.67-8.57,1
		c-0.91,2.66-1.61,4.72-2.3,6.74c-4.07,2.56-9.46,1.1-13.27,4.68c1.48,2.72,4.27,2.54,6.41,3.42c8.34,3.42,13.43,9.1,13.34,18.56
		c-0.01,0.69,0.42,1.38,0.88,2.79c5.19,0.26,10.56,0.54,16.89,0.86c2.52,2.34,5.56,5.17,8.96,8.34c13.6,0.92,27.12-2.05,41.3-4.54
		c0.28-3.26,0.55-6.38,0.87-10.04c1.33-1.5,2.97-3.34,4.57-5.15c10.68-4.15,21.88-4.41,32.95-5.49c3.69-0.36,7.39-0.75,11.05-1.35
		c1.65-0.27,3.21-1.07,5.45-1.85c-3.45-3.17-7.29-5.43-9.17-8.78c-1.8-3.21-1.55-7.56-2.07-10.64c2.71-5.03,6.33-7.49,10.39-9.55
		c3.61-1.83,8.16-1.91,11.25-5.44c-15.85-6.53-17.67-9.34-14.94-23.42c1.21-0.72,2.82-1.79,4.52-2.65c1.45-0.73,3.01-1.22,4.62-1.86
		c-1.48-2.72-3.65-2.93-5.84-3.42c-16.66-3.75-33.29-7.62-49.93-11.47c-8.28-1.92-8.28-1.93-14.91-8.73
		c-11.48-1.32-23.5-3.02-35.58-3.97c-5.78-0.45-10.68-1.83-14.48-6.55c-31.51-1.03-62.85-0.77-93.43,7.28
		c-1.69,3.1-3.09,5.68-4.82,8.84c-15.64,3.35-31.54,6.76-47.67,10.22c-0.62,2.71-1.21,5.3-1.94,8.54
		c-12.84,2.1-25.69,4.19-40.36,6.59c7.7,4.7,13.36,8.99,11.62,18.29c-5.55,1.54-11.41,3.17-17.8,4.94c1.6,2.82,3.46,5.17,4.31,7.84
		c0.77,2.45,0.44,5.24,0.62,8.39c-8.95,1.96-17.32,3.79-26.04,5.7c2.08,2.8,4.77,2.52,7.07,3.17c6.16,1.75,10.23,5.8,12.72,11.57
		c1.38,3.19,1.58,6.24-2.12,10.04c-16.21,4.83-33.69,10.04-51.37,15.31c-0.23,2.87-0.43,5.5-0.69,8.84
		c-17.14,0.82-34.02,3.8-51.61,0.85c-5.64-2.65-9.74-7.44-12.85-14.14c-0.13-2.51-0.29-5.71-0.45-8.85
		c6.57-10.1,19.06-11.25,27.35-18.24c-3.82-9.14-3.82-9.14-3.33-15.91c12.06-9.59,27.62-13.97,41.86-23.71
		c-3.99-0.42-6.33-0.66-8.8-0.92c-5.2-3.01-7.86-7.27-6.31-13.77c1.87-1.11,3.86-2.29,7.34-4.35c-3.27-0.37-4.85-0.78-6.4-0.69
		c-12.62,0.76-25.23,1.68-37.85,2.41c-3.42,0.2-6.86-0.09-10.41-0.16c-1.88-2.42-3.52-4.55-5.31-6.86c0-2.92,0-5.85,0-9.14
		c-7.59-1.25-15.08,1.72-22.15-0.86c-4.4-3.31-5.84-7.93-5.97-13.24c-2.23,0-3.92-0.23-5.54,0.04c-8.54,1.4-16.97,3.34-25.77,3.12
		c-4.11-0.1-8.3,1.24-12.38,2.25c-5.93,1.46-11.98,2-17.53,5.5c-4.24,2.68-9.77,3.3-14.71,4.88c-7.36,2.35-14.29,5.61-20.82,9.75
		c-4.85,3.07-9.29,6.53-11.96,11.69c-6.64-0.44-7.54-2.05-7.43-12.98c7.27-9.09,18.39-15.9,35.26-21.51
		c0.68-1.49,1.48-3.24,2.24-4.9c0.91-0.31,1.58-0.65,2.29-0.77c9.75-1.7,19.54-3.21,29.25-5.1c4.84-0.94,9.54-2.59,14.33-3.8
		c5.26-1.32,10.55-2.5,15.82-3.75c13.67,2.6,26.99-2.15,40.55-1.96c2.95,0.04,5.91,0.01,8.37,0.01c6.36,3.33,7.74,8.58,7.1,15.39
		c5.71,0.16,11.1,0.05,16.44,0.54c5.4,0.5,10.75,1.59,15.01,2.25C1000.46,1497.14,1001.8,1501.65,1002.82,1506.97z M986.45,1605.4
		c20.71-5.82,40-11.22,59.26-16.7c0.73-0.21,1.27-1.07,2.63-2.29c-8.65-0.61-16.26-1.14-23.18-1.63
		c-6.63-4.26-10.02-9.18-7.99-16.78c1.42-0.88,2.8-1.96,4.35-2.64c2.71-1.17,5.55-2.07,8.3-3.14c0.67-0.26,1.24-0.78,2.33-1.48
		c-1.51-2.2-2.67-3.9-3.69-5.39c-12.36,3.3-32.23,14.21-37.31,20.34c1.12,5.04,5.37,9.68,2.61,15.41
		c-8.06,6.77-19.76,7.37-27.62,16.17c6.18,1.84,11.53,1.33,16.87,1.02C984.45,1607.08,985.76,1605.97,986.45,1605.4z"/>
	<path d="M1119.25,1307.32c5.12,3.98,5.75,7.95,4.66,13.94c-0.81,0.44-2.8,1.52-5.67,3.08c2.29,1.3,3.25,2.27,3.77,2.08
		c3.47-1.27,6.74-3.18,10.28-4.15c8.34-2.3,16.8-4.18,25.2-6.27c2.38-0.59,4.72-1.32,7.22-2.03c0.46-2.46,0.86-4.6,1.29-6.89
		c0.32-0.51,0.66-1.19,1.13-1.75c3.71-4.4,8.84-6.32,14.15-7.66c6.66-1.68,13.42-2.99,20.62-4.57c0.13-2.19,0.26-4.31,0.41-6.71
		c-3.25-1.53-6.39-1.87-9.59-1.92c-5.95-0.09-11.91-0.15-17.86-0.25c-1.98-0.03-3.97-0.08-5.94-0.28
		c-7.82-0.79-13.79-4.03-15.65-12.52c-1.64-0.25-3.08-0.66-4.51-0.65c-11.91,0.09-23.82,0.14-35.72,0.45
		c-8.41,0.22-16.83,0.67-25.22,1.33c-6.27,0.49-11.16-1.49-14.74-6.68c-0.56-0.81-1.23-1.54-1.97-2.45c-3.63,0-7.1-0.19-10.55,0.03
		c-16.33,1.05-32.65,2.27-48.98,3.33c-9.65,0.63-19.31,1.04-28.96,1.63c-6.22,0.38-11.16-1.7-14.62-7.01
		c-0.54-0.82-1.27-1.52-1.97-2.33c-1.84-0.12-3.55-0.37-5.25-0.33c-15.12,0.36-30.13,1.94-45.05,4.33
		c-11.25,1.8-22.5,3.63-33.74,5.54c-6.52,1.1-11.85-0.22-15.31-7.43c-0.08-1.66-0.19-4.1-0.31-6.64c6.26-5.18,13.72-6.95,21.51-8.94
		c0.38-2.35,0.76-4.72,1.24-7.75c11.03-6.37,24.08-7.66,36.25-11.65c0.31-2.95,0.59-5.59,0.92-8.79c4.72-1.47,9.39-2.91,13.94-4.32
		c1.8-3.27-0.08-5.28-2.06-7.92c-3.81,0.21-7.77,0.19-11.65,0.7c-5.89,0.77-11.73,1.91-17.6,2.89c-0.73,0.12-1.47,0.22-2.21,0.34
		c-6.97,1.09-13.49,0.71-17.96-6.28c-2.97,0.55-5.58,1.11-8.21,1.52c-7.12,1.12-14.31,2.83-21.02-2.94
		c-8.93,1.06-18.01,2.03-27.07,3.25c-7.83,1.05-9.84,0.94-16.71-2.02c-14.29,0.1-28.55,1.61-42.62,4.85
		c-4.82,1.11-9.64,2.47-14.53,3.02c-3.59,0.4-7.48,0.23-10.93-0.75c-3.73-1.06-7.31-1.39-10.97-0.63
		c-13.1,2.74-26.16,5.66-38.8,10.19c-5.61,2.01-11.13,3.91-17.31,1.39c-1.97-0.8-4.91,0.09-7.18,0.86
		c-11.97,4.05-23.89,8.25-35.77,12.55c-3.08,1.12-5.96,2.66-9.35,0.06c-1.48-2.49-2.88-5.31-2.68-8.42
		c0.53-0.64,0.76-1.21,1.16-1.37c17.22-6.97,34.52-13.74,52.79-17.53c2.65-0.55,5.43-0.89,8.13-0.79
		c7.08,0.25,13.63-1.94,20.35-3.61c9.84-2.44,19.79-4.41,29.74-6.4c3.16-0.63,6.25-0.23,9.47,0.87c2.64,0.9,5.86,0.7,8.72,0.28
		c12.74-1.86,25.42-4.16,38.17-5.91c7.58-1.04,15.26-1.42,22.91-1.93c1.68-0.11,3.58,0.1,5.07,0.8c3.59,1.71,7.16,1.32,10.91,0.89
		c12.07-1.37,24.16-2.58,36.25-3.68c3.16-0.29,6.25,0.03,9.43,1.3c2.58,1.03,5.89,0.95,8.74,0.5c12.81-2.02,25.66-2.14,38.88-1.81
		c1.57,1.24,3.29,2.6,5.4,4.27c8.01-0.4,16.4-0.82,25.86-1.3c1.69,2.25,3.62,4.82,5.52,7.37c8.89-0.62,17.25-1.2,25.45-1.77
		c4.96,4.42,7.86,8.76,5.01,15.25c-0.84,1.91-0.59,4.3-0.85,6.49c-7.23,4.42-15.71,2.61-23.27,5.38c-0.15,2.55-0.29,4.96-0.46,7.98
		c-2.2,0.88-4.38,2.07-6.71,2.61c-6.74,1.57-13.53,2.92-20.33,4.25c-3.4,0.67-6.88,0.98-10.27,1.7c-1.34,0.29-2.54,1.25-4.1,2.06
		c0.74,1.87,1.35,3.41,2.07,5.2c3.8,0,7.48,0.22,11.13-0.04c10.63-0.77,21.24-1.85,32.49,0.07c1.56,2.04,3.34,4.36,5.63,7.36
		c2.11,0.1,4.79,0.47,7.43,0.3c13.6-0.86,27.18-2.01,40.79-2.78c9.41-0.53,18.84-0.72,28.27-0.89c8.15-0.14,16.31-0.03,24.55-0.03
		c1.81,2.52,3.38,4.69,5.24,7.29c6.53,1.15,13.46,0.52,20.35,0.44c18.85-0.24,37.7-0.65,56.55-0.78c5.17-0.04,10.43,0.17,14.7,2.15
		c4.11,2.85,4.85,6.86,6.2,11.13c2.31,0.33,4.71,0.75,7.11,0.99c9.86,0.99,19.73,1.82,29.57,2.93c6.98,0.79,10.88,2.91,15.2,7.91
		c0,2.35,0,5.22,0,8.17c-2.3,1.13-4.23,2.08-6.15,3.03c0,3.33,0,6.51,0,10.1c-1.37,0.34-2.71,0.81-4.1,0.99
		c-8.61,1.12-17.23,2.12-25.83,3.28c-1.61,0.22-3.15,0.96-4.84,1.49c0.93,4.49,1.75,8.5,2.38,11.57c-1.8,3.47-4.1,3.42-6.33,3.74
		c-8.34,1.17-16.7,2.22-24.98,3.71c-7.27,1.31-14.45,3.15-21.77,4.78c-0.43,2.99-0.8,5.59-1.25,8.77
		c-14.3,1.22-28.33-1.74-42.74,0.14c-2.25-3.33-4.28-6.34-6.79-10.05c-3.02-1.06-7.77-0.98-9.99-6.92c0-1.41,0-4.07,0-7.2
		c2.54-0.99,5-1.95,7.87-3.07c0.58-1.24,1.3-2.76,1.89-4.01c3.79-1.66,7.37-3.23,12.34-5.41
		C1108.71,1306.37,1114.36,1306.88,1119.25,1307.32z"/>
	<path d="M983.06,1382.48c5.78-2.58,11.78-5.26,17.77-7.93c-0.03-0.42-0.06-0.85-0.09-1.27c-2.07-0.45-4.13-1.14-6.23-1.3
		c-7.17-0.54-14.36-0.83-21.53-1.33c-5.19-0.36-10.36-0.87-15.54-1.37c-4.41-0.43-8.13-2.12-11.09-7.15
		c-0.26-1.78-0.68-4.69-1.11-7.63c-5.7-1.34-59.96-0.34-67.13,1.3c0.84,2.77,1.98,5.49,2.42,8.32c0.41,2.62,0.09,5.35,0.09,8.76
		c3.86,0.75,7.95,1.47,12.01,2.33c7.74,1.64,15.64,2.8,22.63,6.93c4.11,2.43,7.61,5.28,9.86,9.75c2,3.97,2.99,7.82,1.82,12.14
		c-6.74,9.75-18.14,13.38-27.4,20.14c1.07,3.64,2.02,6.85,3.12,10.57c-1.62,0.48-2.7,1.02-3.82,1.09
		c-9.38,0.62-18.77,1.22-28.16,1.7c-5.44,0.28-10.9,0.28-16.35,0.45c-8.52,0.27-14.02-4.02-17.39-11.5c-0.71-1.57-1.29-3.19-2.1-5.2
		c-2.69-0.11-5.38-0.17-8.07-0.34c-10.56-0.67-16.85-7.83-16.46-19.07c1.51-1.85,3.19-3.92,5.28-6.5
		c-5.01-4.46-9.41-9.24-7.36-16.98c5.89-7.24,15.34-8.89,23.58-12.94c0.28-3.38,0.55-6.56,0.8-9.5c-2.14-2.99-4.36-5.63-5.99-8.59
		c-0.74-1.35-0.28-3.35-0.36-5.1c2.8-2.64,5.45-5.13,8.21-7.74c-1.83-2.86-4.43-2.53-6.78-2.57c-12.65-0.18-25.3-0.29-37.95-0.42
		c-3.97-0.04-7.94,0.05-11.9-0.18c-2.41-0.14-4.8-0.8-6.98-1.19c-1.63-2.5-2.97-4.56-4.55-6.99c-1.52,0.08-3.23-0.05-4.85,0.28
		c-13.85,2.77-27.87,4.98-40.84,10.94c-12.83,5.9-25.57,11.99-38.3,18.11c-4.91,2.36-9.73,4.94-14.5,7.57
		c-1.65,0.91-3.06,2.27-4.84,3.61c2.91,3.74,7.25,6.19,6.69,12.11c-1.92,0.63-3.95,1.29-5.97,1.96c-1.82,0.6-3.63,1.21-6.9,2.29
		c5.91,2.34,10.89,1.56,15.39,2.96c6.76,5.2,6.76,5.2,7.01,12.54c-1.22,0.72-3.36,1.97-5.5,3.23c0.32,0.52,0.64,1.04,0.96,1.56
		c7.59-1.23,15.18-2.46,23.15-3.75c-1.19-3.61-2.17-6.59-3.1-9.41c5.19-5.17,19.52-8.97,33.09-8.76c1.91,1.77,4.24,3.92,6.34,5.87
		c0.94,4.77,1.78,9.05,2.66,13.5c-13.66,5.3-26.75,10.37-39.81,15.44c-1.37-0.37-2.65-0.51-3.72-1.05
		c-3.31-1.67-6.45-1.41-10.04-0.54c-4.76,1.15-9.78,1.79-14.67,1.69c-6.75-0.14-12.89-6.14-13.48-12.74
		c-0.2-2.27,0.83-4.65,1.43-7.65c-3.28,0-6.9,0.24-10.47-0.05c-8.89-0.7-13.75-7.39-12.12-17.2c2.08-1.32,4.55-2.88,7.41-4.69
		c0.3-2.09,0.65-4.5,1.03-7.12c7.19-8.64,16.86-14.15,26.65-19.47c3.91-2.13,8.04-3.85,12.07-5.78c4.7-2.25,9.62-4.14,14.02-6.86
		c10.89-6.73,22.87-10.79,34.97-14.36c9.9-2.92,20.18-4.51,30.26-6.85c4.85-1.12,9.65-2.19,16-0.93c2.47,2.44,5.76,5.7,9.71,9.6
		c8.54,0,17.94-0.09,27.34,0.04c4.46,0.06,8.98,0.13,13.34,0.9c6.43,1.14,12.39,3.41,16.09,9.48c2.81,4.62,2.52,9.43,1.2,14.28
		c2.37,2.95,5.47,2.82,8.31,2.4c3.4-0.51,6.8-1.38,10.01-2.61c6.74-2.58,13.53-4.79,20.82-5.73c2.39,1.28,4.77,2.57,7.45,4.01
		c11.9-0.35,24.03-0.7,36.17-1.05c7.19-0.21,14.38-0.43,21.56-0.59c1.48-0.03,2.96,0.26,4.45,0.3c7.08,0.18,11.5,4,14.05,10.3
		c0.83,2.04,1.45,4.15,2.38,6.84c3.35,0.24,6.74,0.69,10.14,0.7c8.97,0.02,17.79,1.05,26.47,3.36c8.55,2.27,14.07,9.41,14.17,18.85
		c-2.17,1.42-4.55,2.97-7.66,5c8.55,3.59,15.1,8.04,14.59,18.13c-1.62,1.03-3.22,2.05-5.66,3.6c7.47,1.99,14.09,3.76,20.42,5.45
		c4.33,4.22,9.45,7.51,7.88,15.25c-2.64,1.87-5.79,4.1-9.3,6.58c2.66,4.86,7.66,8.64,7.2,16.23c-0.83,1.44-2.07,4.16-3.81,6.48
		c-1.77,2.36-4.07,4.32-6.1,6.5c-1.86,1.99-3.64,4.06-5.5,6.04c-1.87,1.99-1.27,6.25-5.9,6.02c-4.14-3.25-5.18-7.87-4.87-12.96
		c2.03-7.53,9.8-10.29,13.68-16.64c-2.23-2.89-5.37-3.33-8.47-4.14c-6.81-1.78-8.91-4.74-9.34-13.01c3.51-2,7.32-4.17,11.83-6.74
		c-1.61-0.71-2.74-1.48-3.96-1.7c-3.41-0.6-6.87-0.94-10.3-1.44c-3.67-0.53-7.4-0.86-10.99-1.75c-7.77-1.93-9.61-4.44-10.32-13.65
		c1.52-0.77,3.22-1.65,4.94-2.51c1.5-0.76,3.02-1.49,4.69-2.32c-3.18-2.42-3.18-2.42-13.12-3.58
		C983.82,1391.65,983.15,1390.42,983.06,1382.48z M917.13,1395.31c-2.49-3.65-6.12-4.3-9.34-5.09c-7.69-1.88-15.51-3.21-23.28-4.75
		c-5.83-1.16-11.74-2.02-17.48-3.51c-7.32-1.91-9.11-4.79-9.02-12.98c2.58-3.22,7.44-3.63,10.19-8c-6.13-1.56-11.12-1.02-15.92,1.98
		c0.24,2.96,0.45,5.6,0.66,8.29c-4.8,2.22-9.27,4.32-13.77,6.35c-4.61,2.08-9.64,3.25-14.82,6.35c6.56,3.85,12.7,7.08,11.69,15.99
		c-3.33,2.26-6.94,4.71-11.13,7.55c1.58,0.67,2.59,1.42,3.66,1.5c3.21,0.26,6.46,0.08,9.66,0.41c2.92,0.3,6.08,0.48,8.62,1.75
		c2.76,1.38,5.45,3.58,7.21,6.09c1.54,2.18,1.75,5.29,2.72,8.58c7.24-0.5,14.61-1.01,21.99-1.52c0.84-2.17,1.53-3.94,1.9-4.9
		C893.09,1410.79,906.9,1405.86,917.13,1395.31z"/>
	<path d="M1233,1423.62c2.78,3.45,5.3,6.97,2.34,11.46c-7.13,1.51-8.7,0.19-10.68-9.54c-15.39,5.62-30.49,11.4-42.84,22.61
		c-6.52-2.19-6.72-7.42-7.13-12.41c5.48-6.86,12.91-10.41,20.27-13.86c6.71-3.15,13.79-5.51,20.69-8.27
		c2.29-0.92,4.95-1.54,6.64-3.14c2.66-2.53,5.73-3.8,9.06-4.75c8.31-2.36,16.63-4.68,24.96-7c6.86-1.91,13.73-3.77,20.78-5.71
		c0.46-2.7,0.88-5.1,1.33-7.75c15.47-2.32,31.03-4.65,46.31-6.94c1.56-2.29,2.78-4.08,3.96-5.81c22.53-1.1,44.79-2.62,67.06-3.11
		c16.82-0.37,33.67,0.45,50.5,1c5.17,0.17,10.31,1.2,15.28,1.81c4.36,3.37,5.74,7.56,4.57,12.93c-1.37,1.1-2.88,2.3-4.68,3.74
		c1.81,2.2,3.5,4.26,5.13,6.25c1.1,3.61,2.17,7.14,3.41,11.19c7.41,1.03,14.71,2.05,22.04,3.07c2.15,1.81,4.22,3.55,6.27,5.26
		c8.06,1.66,16.16,2.92,24.01,5.06c7.84,2.14,15.47,5.08,23.14,7.81c5.96,2.12,8.45,6.52,7.82,12.77c-0.12,1.21-0.02,2.44-0.02,4.32
		c12.83,4.81,26.47,7.83,37.33,15.16c3.61,4.96,2.53,9.77,2.37,14.57c4.03,3.65,8.03,7.28,12.22,11.07c0,3.79,0,7.43,0,11.76
		c-2.4,0.68-4.65,1.54-6.99,1.93c-10.73,1.81-21.5,3.42-32.23,5.25c-2.31,0.39-4.51,1.42-7.24,2.32c1.23,2.78,3.16,3.22,4.88,4
		c7.04,3.16,13.83,6.67,19,12.68c4.15,4.83,4.92,8.21,2.71,15.69c-1.75,0.36-3.85,1.14-5.96,1.16c-9.66,0.12-19.33,0.03-29,0.02
		c-2.69,0-5.39,0-8.34,0c-0.73,2.01-1.37,3.8-2.29,6.35c-19.28,1.72-37.8-4.71-56.25-6.87c-5.39-3.31-6.2-8.11-6.09-13.84
		c-6.67-5.49-16.16-7.31-22.46-16.11c-0.17-2.09-0.47-5.71-0.78-9.53c2.71-1.06,4.94-1.93,6.96-2.72c3.51-4.19,1.74-9.39,3.6-13.99
		c2.95-1.94,6.54-0.93,9.89-1.21c3.2-0.27,6.44-0.06,9.44-0.06c3.86,2.15,7.51,4.18,12.57,7c2.85,2.67,3.75,7.2,1.92,13.16
		c-3.86,0.55-7.93,1.12-11.7,1.65c-3.29,2.11-6.34,4.07-9.76,6.27c1.19,3.82,5.94,3.8,7.96,6.79c2.04,3.03,4.31,5.92,7.3,9.98
		c8.51,2.2,18.44,3.6,28.67,4.4c1.02-2.08,1.87-3.8,3.01-6.13c13.14,0.28,26.4,0.56,40.32,0.85c-1.07-3.07-3.22-3.65-5.2-4.34
		c-6.69-2.34-11.61-6.52-14.36-14.13c0-0.39,0.05-1.63-0.01-2.86c-0.24-5.47,2.63-8.75,7.41-10.84c6.86-3,14.09-4.6,21.41-5.95
		c2.58-0.47,5.13-1.16,9.45-2.15c-7.51-4.54-14.78-4.4-20.76-7.65c-3.53-4.4-3.53-4.4-4.39-18.06c-3.74-0.96-7.75-1.95-11.74-3.03
		c-2.37-0.65-4.75-1.31-7.04-2.2c-5.19-2.01-7.82-5.85-7.78-11.46c0.01-2.21,0-4.43,0-7.09c-2.58-0.98-5-2.26-7.58-2.82
		c-6.26-1.36-12.57-2.65-18.92-3.5c-6.04-0.81-11.85-1.73-15.47-6.82c-11.12-2.79-26.09-4.06-34.52-2.76
		c-2.77,3.44-6.35,7.24-9.17,11.54c-4.41,6.72-10.35,10.24-18.27,11.27c-12.38,1.61-24.73,1.72-37.1,0.27
		c-9.58-1.12-17.36-5.2-22.78-13.58c-2.86-4.43-4.26-8.86-2.8-14.87c22.56-13.23,48.02-13.63,73.3-14.23
		c6.02,3.48,11.81,6.11,18.52,0.13c-3.57-1.82-6.55-3.33-10.2-5.19c-1.43-3.39-3.04-7.2-4.91-11.64c-6.58,0-13.48,0.05-20.38-0.01
		c-8.16-0.07-16.36,0.91-24.47-0.95c-1.62-0.37-3.44,0.07-5.17,0.18c-2.47,0.17-4.94,0.45-7.42,0.57
		c-11.88,0.59-23.76,1.14-35.64,1.7c-1.76,1.11-3.41,2.15-5.08,3.2c-15.31,2.78-30.63,5.56-46.1,8.37
		c-1.07,1.68-2.11,3.32-3.59,5.66c-6.8,2.02-14.11,4.3-21.47,6.36c-10.01,2.81-20.11,5.32-30.08,8.27
		C1238.8,1418.57,1235.02,1419.04,1233,1423.62z M1439.42,1417.47c-1.65-2.5-3.89-2.53-6.16-2.36c-6.39,0.48-12.78,1.35-19.18,1.43
		c-11.81,0.15-23,3.16-34.09,6.71c-1.18,0.38-2.08,1.59-3.2,2.48c3.02,3.02,6.37,3.72,9.81,4.33c12.39,2.19,24.7,0.42,37.03-0.58
		c1.71-0.14,3.4-0.69,5.06-1.17C1434.37,1426.67,1438.01,1423.07,1439.42,1417.47z"/>
	<path d="M1605.72,1136.57c1.1,8.43,1.1,8.43-0.3,12.66c-4.69,0.16-9.35-0.04-13.9,0.59c-4.62,0.64-9.13,2.11-14.02,3.3
		c0,3.74,0,7.11,0,10.65c-1.61,1.35-3.09,2.6-5.27,4.43c-16.13,1.42-32.87,3.49-49.66,4.16c-10.22,0.41-20.19,2.09-30.22,3.39
		c-11.5,1.49-22.86,4.05-34.51,6.2c-1.11,2.08-2.25,4.2-3.37,6.31c-22.4,5.17-43.9,12.49-64.79,21.15
		c-5.97-2.64-7.14-5.16-6.25-13.33c18.25-8.8,38.25-12.58,57.76-18.11c0.55-2.51,1.01-4.61,1.53-6.95c0.97-0.54,1.97-1.48,3.09-1.67
		c6.33-1.07,12.7-1.93,19.05-2.92c10.26-1.6,20.51-3.24,30.77-4.88c8.76-1.4,17.33-3.92,26.4-3.36c5.08,0.31,10.23-0.46,16.78-0.82
		c-5.81-4.42-8.01-8.99-5.92-15.5c5.26-0.13,10.65-0.26,16.04-0.39c5.13-0.13,10.25-0.26,15.9-0.41c-2.99-2.65-6.02-4.43-7.67-7.08
		c-1.28-2.05-0.83-5.17-1.06-7.06c1.76-2.83,3.73-2.76,5.76-2.79c10.66-0.12,21.32-0.31,31.98-0.47c2.17-0.03,4.35,0,6.75,0
		c-1.28-5.23-4.36-9.75-0.59-15.22c16.97,0,34.26,0,51.66,0c1.87-4.68-2.1-9.4,1.73-13.77c14.29-2.03,29.49,0.98,44.51-2.51
		c-4.3-8.24-4.37-8.67-2.65-15.9c10.71-2.42,21.87-1.52,34.02-2.41c-4.53-3.27-9.38-2.75-13.32-5.19c-3.41-3.46-3.01-7.74-2.2-12.18
		c7.75,0,15.12-0.01,22.49,0c7.29,0.01,14.63,0.98,23.19-0.92c-2.76-1.94-4.43-3.27-6.25-4.34c-7.14-4.22-7.83-5.68-6.42-14.93
		c0.98-0.63,2.11-1.87,3.43-2.1c5.83-1.03,11.71-1.76,17.57-2.63c7.09-1.05,14.19-2.11,21.27-3.25c1.12-0.18,2.17-0.81,3.95-1.51
		c-1.41-1.79-2.23-3.25-3.43-4.27c-3.2-2.73-6.38-5.56-9.9-7.82c-5.45-3.5-7.44-8.34-6.83-14.55c0.07-0.74,0.08-1.48,0.13-2.56
		c0.83-1.38,1.81-3,3.11-5.15c-8.73-5.71-19.58-6.95-26.59-15.16c-12.74-1-25.53-2-39.04-3.05c1.93,6.46,6.48,10.84,8.49,16.19
		c10.78,5.71,11.92,9.34,6.05,19.93c-8.62,0.38-17.21-1.48-24.73-2.93c-4.35-5.71-7.93-10.41-11.47-15.05
		c-2.81-0.9-5.39-1.73-8.57-2.75c-2.85-3.68-6.37-7.54-9.07-11.91c-2.42-3.93-2.25-8.44-0.5-12.97c7-1.8,13.79,1.11,20.82,0.59
		c1.29-1.8,2.55-3.56,3.97-5.55c12.6-0.88,24.9,3.69,38.27,2.78c1.09-0.67,2.74-1.69,4.35-2.67c7.38-0.05,13.08,4.51,19.82,6.62
		c2.01,2.41,4.06,4.87,5.78,6.93c9.7,4.8,19.86,7.68,27.84,15.37c0,3.68,0,7.32,0,11.02c-1.68,1.87-3.29,3.66-4.91,5.45
		c3.98,4.06,7.58,8.08,11.55,11.71c4.99,4.56,7.16,9.96,6.18,16.88c-3.53,5.19-9.02,7.04-15.07,7.9c-5.62,0.8-11.22,1.66-17.26,2.55
		c1.13,3.68,3.97,4.1,6.23,5.21c7.69,3.79,9.8,9.16,6.73,18.38c-4.51,0.48-9.33,0.99-14.89,1.58c0.43,3.89,0.8,7.23,1.21,10.93
		c-1.14,1.31-2.4,2.77-3.93,4.54c-17.69,1.17-35.45,2.35-53.62,3.56c-1.94,4.95,1.57,11.62-5.59,16.55
		c-8.93,1.05-19.38,2.27-29.68,3.47c-0.81,4.02-1.48,7.32-2.11,10.44c-9.15,3.57-18.27,1.86-27.45,3.37
		c-0.42,3.63-0.82,7.18-1.24,10.8C1633.83,1137.05,1619.88,1135.7,1605.72,1136.57z"/>
	<path d="M558.76,1531.77c0.88-2.19,1.6-3.99,2.52-6.29c14.98-1.52,27.66-9.81,41.98-14.17c0.13-2.57,0.24-4.74,0.35-7.04
		c0.42-0.48,0.78-1.24,1.38-1.56c7-3.75,14.1-6.8,22.31-7.44c6.66-0.52,12.58-3.82,18.21-7.72c8.36-5.78,17.54-10.1,27.46-12.66
		c0.44-0.11,0.97,0.12,2.5-0.84c2.11,3.08,4.22,6.15,6.2,9.02c19.66-2.71,37.96-7.9,57.41-6.14c2.01,3.41,3.98,6.77,6.11,10.37
		c3.48,0.21,7.14,0.43,10.54,0.63c3.61,3.92,6.12,7.7,4.85,12.52c-3.03,3.29-8.15,2.11-10.54,6.65c2.97,0.41,5.58,0.77,8.4,1.16
		c4.22,3.26,6.98,7.3,5.93,13.36c-5.43,2.47-10.73,4.88-16.02,7.29c6.55,2.94,14.35,2.67,16.82,11.04c0,1.96,0,3.92,0,6.56
		c-8.4,4.12-16.94,8.31-25.63,12.58c9.38,7.14,10.95,9.92,9.96,18.07c-1.85,0.98-4.09,2-6.14,3.31c-1.85,1.18-3.5,2.69-4.24,3.26
		c-8.59,3.63-16.06,6.78-23.64,9.98c0.59,4.71,4.79,7.89,2.81,13.34c-16.45,5.35-33.5,10.89-50.66,16.48
		c0.97,4.57,5.65,7.51,2.79,13.05c-7.36,0.92-15.33,1.92-22.62,2.84c-4.94-2.41-5.96-6.7-7.74-10.91
		c-6.31-1.68-12.7,0.63-20.04-0.13c-0.97-1.31-3.13-3.04-3.67-5.18c-1.49-5.9-2.3-11.97-3.38-17.99c4.85-1.46,9.04-2.73,13.38-4.03
		c0.23-2.81,0.42-5.21,0.63-7.8c2.32-1.13,4.51-2.19,7.09-3.44c0.22-2.04,0.46-4.19,0.72-6.54c1.23-0.89,2.57-1.87,3.91-2.83
		c-0.5-2.91-0.96-5.56-1.45-8.4c1.05-1.35,2.08-2.66,2.98-3.81c-0.55-3.16-1.06-6.04-1.54-8.79c6.53-3.09,8.67-3.39,18.6-2.67
		c8.4,7,15.23,14.82,11.39,27.83c-1.22,0.67-3.12,1.72-5.38,2.98c-0.5,1.81-1.08,3.9-1.63,5.9c-4.01,1.71-7.78,3.32-11.53,4.91
		c0.26,3.6,0.47,6.49,0.71,9.78c-3.7,1.1-7.12,2.12-11.08,3.29c0.75,1.69,0.92,3.08,1.7,3.68c2.5,1.94,5.22,3.58,8.17,5.55
		c0.98-2.33,1.81-4.29,2.83-6.72c6.92-2.26,13.98-4.5,21-6.86c6.98-2.36,13.92-4.84,20.62-7.18c0.35-4.3,0.65-7.9,0.99-12
		c8.89-4.23,17.48-8.32,27.79-13.23c-7.51-0.95-12.75-2.74-15.5-9.56c0-1.49,0-3.93,0-7.22c5.85-3.12,12.03-6.42,18.21-9.72
		c-0.11-0.34-0.22-0.69-0.32-1.03c-1.85,0.09-3.71,0.12-5.56,0.29c-9.01,0.84-13.47-3.03-13.84-12.11
		c-0.03-0.72,0.21-1.46,0.38-2.52c1.86-1.28,3.82-2.78,5.91-4.04c1.82-1.09,3.8-1.92,6.04-3.02c-6.27-2.68-6.27-2.68-11.29-8.9
		c0-2.74,0-6.32,0-10.81c-1.44-2.92-3.38-6.86-5.61-11.39c-3.91-0.63-8.22,0.74-12.45,1.59c-8.98,1.81-17.87,4.1-26.81,6.12
		c-1.68,0.38-3.46,0.67-5.15,0.53c-8.9-0.75-16.03,3.07-23.37,7.62c-8.79,5.46-18.26,9.89-27.63,14.35
		c-7.38,3.51-15.17,6.15-22.56,9.65c-8.73,4.14-17.22,8.76-25.79,13.22c-4.62,2.4-9.27,4.76-13.76,7.39
		c-3.82,2.24-7.43,4.83-12.12,7.92c-24.08,10.76-45.2,27.69-65.1,46.93c-5.04-2.11-6.97-6.28-7.42-12.17
		c4.02-5.28,9.3-9.83,14.78-13.91c11.5-8.57,23.6-16.35,35.06-24.98c12.59-9.47,27.27-15.03,40.8-22.71
		C552.54,1534.74,555.48,1533.42,558.76,1531.77z"/>
	<path d="M1115.88,1063.95c4.13,6.74,4.13,6.74,3.45,12.12c-9.28,6.71-20.14,10.29-31.07,14.63c0.25,2.48,0.48,4.84,0.73,7.26
		c-3.71,3.49-8.3,5.05-12.76,6.02c-16.6,3.62-32.66,9.7-50.5,11.79c-1.96-2.68-3.87-5.28-5.37-7.33c-5.44-0.55-9.86-0.99-13.86-1.39
		c-3.83-4.02-3.83-4.02-5.69-9.81c0.36-2.31,1.89-3.13,4.03-3.7c5.51-1.45,10.96-3.11,16.4-4.82c1.54-0.48,2.95-1.41,4.59-2.22
		c-8.99-8.75-9.53-10.41-5.61-16.91c-1.46-1.81-3.21-3.55-4.42-5.59c-1.23-2.07-2.57-4.33-1.19-7.57c6.91-3,15.12-3.86,23.09-8.13
		c-3.84-1.53-6.75-2.68-9.52-3.79c-2.67-3.13-3.9-6.48-3.57-10.64c5.38-3.38,12.29-1.3,17.83-4.96c0.35-1.78,0.71-3.64,1.14-5.79
		c2.51-0.44,4.91-0.87,7.76-1.37c0-2.74,0-5.58,0-7.84c2.02-2.73,4.42-2.07,6.55-2.46c1.82-0.34,3.54-1.24,5.25-1.88
		c0.01-4.51-3.39-8.04-0.89-12.63c4.48,0,9.29,0,14.63,0c-1.29-4.05-4.63-6.91-3-10.96c7.37-4.32,31.92-8.62,40.6-6.99
		c1.34,1.71,2.87,3.65,3.86,4.91c12.39,2.13,24.68-1.47,34.17,5.9c10.37,0.9,20,1.67,29.61,2.6c3.18,0.31,6.4,0.72,9.46,1.59
		c9.55,2.72,12.05,8.74,7.63,18.63c-4.32,0.66-8.89,1.35-14,2.12c0.57,3.75,1.06,7,1.57,10.34c-11.5,5.78-23.17,9.68-35.49,12.67
		c1.12,4.23,2.1,7.92,3.16,11.91C1141.73,1055.87,1127.99,1057.72,1115.88,1063.95z M1101.25,998.54c-2.47,2.93-2.69,5.64-1.68,8.29
		c1.07,2.81,2.48,5.45,0.59,8.82c-4.72,3.79-11.27,3.52-17.14,5.8c-0.34,2.25-0.67,4.39-0.92,6.08c-1.76,2.18-3.26,4.03-5.48,6.78
		c1.82,1.86,3.31,3.38,4.79,4.9c0.31-0.42,0.62-0.83,0.92-1.25c4.38,0.39,8.76,0.79,13.57,1.22c4.32-0.78,9.13-1.66,14.37-2.61
		c2.83,3.79,5.35,7.16,7.84,10.5c4.16-2.81,0.79-6.36,2.05-9.77c2.77-3.76,7.38-5.65,11.9-7.56c4.47-1.89,9.09-3.43,14.17-5.32
		c-3.7-5.47-7.28-10.43-3.69-16.89c2.21-0.81,4.42-1.61,6.7-2.44c-0.56-0.58-0.87-1.21-1.2-1.21c-2.7-0.04-5.43-0.17-8.11,0.13
		c-6.29,0.71-11.8-0.45-15.92-5.7c-0.28-0.35-0.85-0.47-1.77-0.95c-4.45,0.21-9.38,0.43-14.31,0.69
		C1105.75,998.16,1103.55,998.36,1101.25,998.54z"/>
	<path d="M1581.8,1377.63c0.92-2.24,1.73-4.24,2.55-6.22c6.4,0.9,12.68,1.86,18.99,2.64c7.71,0.94,10.44,3.96,10.2,11.65
		c-0.02,0.72-0.33,1.44-0.61,2.57c-1.24,0.68-2.71,1.48-5.07,2.77c-0.54,0.76-1.68,2.34-2.98,4.17c-2.6,0.21-5.26,0.42-8.39,0.67
		c-0.75,1.62-1.56,3.34-2.53,5.43c-1.53,0.46-3.36,1.01-5.1,1.54c-0.12,5.73,1.08,7.38,6.12,8.28c5.6,1,11.23,1.81,16.83,2.81
		c3.87,0.69,7.7,1.56,11.65,2.37c6.98-6.48,15.69-6.4,24-6.77c8.88-0.4,17.81,0.38,26.72,0.63c1.95,0.05,3.89,0.01,5.5,0.01
		c0.53-0.46,0.82-0.58,0.88-0.78c2.73-9.27,10.24-12.84,18.52-15.38c4.25-1.3,8.62-2.2,12.91-3.4c1.36-0.38,2.61-1.14,4.36-1.94
		c-3.02-6.55-3.37-13.06-1.32-19.42c-7.77-9.35-7.77-9.35-6.93-20.14c2.59-5.24,2.59-5.24,2.4-10.35c-2.33-0.68-4.84-1.57-7.43-2.13
		c-8.95-1.92-17.88-3.94-26.9-5.49c-5.09-0.88-9.57-2.49-13.09-6.81c-21.64-2.14-43.34-4.28-65.66-6.48
		c-3.85-3.03-9.02-3.47-14.28-3.58c-28.76-0.56-57.52-1.34-86.28-1.62c-17.84-0.18-35.69,0.51-53.54,0.58
		c-9.67,0.04-19.55,0.76-28.94-0.96c-8.87-1.63-17.33-0.68-25.78,0.5c-13.18,1.83-26.41,4.02-39.32,9.73
		c-1.11-0.95-2.69-1.78-3.51-3.08c-2.03-3.21-1.96-4.19-0.77-11.49c19.71-7.66,40.9-9.36,63.18-11.47c3.31,2.41,8.3,2.34,13.26,2.37
		c20.34,0.12,40.69,0.71,61.01,0.2c14.61-0.37,29.21-1.16,43.83-0.67c21.31,0.72,42.61,1.58,63.91,2.41
		c1.47,0.06,3.18-0.05,4.34,0.65c5.19,3.09,10.95,2.69,16.59,3.28c16.26,1.72,32.5,3.6,48.75,5.48c7.38,0.85,14.75,1.85,22.47,2.82
		c4.35,5.76,10.55,7.69,17.73,8.98c11.15,2,22.02,5.51,32.76,8.31c1.74,3.52,3.15,6.39,4.68,9.49c2.23,1.64,4.6,3.39,6.94,5.11
		c1.6,4.25,1.78,8.26-0.65,12.94c-5.43-0.49-10.94-0.98-16.45-1.48c8.94,5.45,19.22,6.96,28.23,11.41
		c3.22,5.52,3.41,7.64,1.05,14.63c-4.89-0.28-9.99-0.57-16.12-0.91c2.59,3.43,6.91,4.36,7.19,8.47c0.23,3.46,0.91,6.96-2.31,9.93
		c-18.31,2.52-37.06,4.28-54.74,12.37c0,4.53,0,8.65,0,12.76c-3.64,1.73-6.77,0.44-9.85-0.01c-12.82-1.86-25.64-2.25-38.96-0.65
		c-0.56,2.8-1.13,5.61-1.7,8.49c-3.44,1.55-6.53,0.17-9.58-0.48c-4.36-0.92-8.73-3.21-12.98-2.94c-9.29,0.58-17.27-3.49-25.8-5.59
		c-6.49-1.6-12.95-3.33-19.47-4.8c-7.81-1.77-9.58-3.62-10.71-11.87c-0.1-0.72-0.39-1.41-0.66-2.36c-1.65-0.8-3.41-1.65-5.18-2.5
		c-3.43-3.85-4.62-8.11-2.43-13.24c1.52-0.38,3.15-0.8,5.15-1.31c0.33-2.85,0.67-5.72,1.07-9.17
		C1567,1378.25,1574.31,1377.95,1581.8,1377.63z"/>
	<path d="M1281.31,1086.06c-3.11-3.76-5.12-7.1-4.74-11.26c1.3-3.16,3.81-3.76,6.72-3.74c7.68,0.05,15.37-0.06,23.05,0.12
		c9.35,0.21,15.17,6.49,15.33,16.87c-1.27,0.91-2.77,2.15-4.43,3.11c-1.47,0.85-3.12,1.4-4.71,2.09c0.39,3.29,0.75,6.37,1.04,8.83
		c-4.79,5.77-11.62,3.8-18.39,7c7.56,0.9,13.45,1.61,19.49,2.33c1.3-1.2,2.54-2.35,3.88-3.59c0.64-0.05,1.37-0.18,2.1-0.15
		c12.11,0.41,24.2,1.67,36.36,0.27c3.2-0.37,6.61,1.06,9.89,2.1c6.02,0.01,12.18,0.73,18.11-1.05c-0.42-4.3-0.78-8.11-1.16-11.99
		c2.2-0.89,3.78-1.52,5.46-2.2c1.1-3.43-1.67-7.32,1.18-10.97c4.18,0.31,8.51,0.63,13.01,0.96c0.81-2.55,1.46-4.59,2.22-6.97
		c9.61-1.03,19.33,0.78,28.84-1.56c0.27-4.19,0.5-7.81,0.74-11.61c13.32,0,26.06,0,40.17,0c0.77,0.71,2.55,2.34,3.94,3.62
		c1.9,5.71-0.07,9.2-4.8,11.89c-8.56-1.76-17.37-2.23-26.6-0.84c-0.61,2.72-1.19,5.29-1.69,7.52c-3.53,4.03-8.61,2.87-13.12,5.01
		c-0.47,2.88-0.98,5.97-1.42,8.6c3.59,3.17,6.67,5.88,9.45,8.33c0,3.7,0,6.6,0,9.75c-1.92,0.62-3.48,1.41-5.12,1.6
		c-11.32,1.35-22.65,2.61-33.98,3.82c-2.21,0.24-4.45,0.17-6.68,0.19c-6.68,0.06-13.37,0.06-20.05,0.15
		c-5.92,0.09-11.67,0.13-17.62-1.5c-5.07-1.39-10.86-0.89-16.23-0.31c-6.22,0.67-12.32,0.85-18.5-0.1
		c-1.66-0.26-3.58-0.29-5.12,0.29c-12.31,4.63-24.91,2.93-37.42,2.23c-4.77-3.61-8.14-7.88-7.44-13.88c0.53-4.55,2-9,3.17-13.99
		c4.17-0.93,8.42-1.89,12.94-2.9C1288.58,1089.01,1285,1087.43,1281.31,1086.06z"/>
	<path d="M752.76,1021.85c-2.15-1.36-4.23-2.68-6.69-4.24c-7.52,0.62-14.43,6.35-22.81,4.4c-3.4-2.54-5.16-5.79-4.61-10.79
		c18.68-7.88,38.3-12.18,58.64-15.02c2.27,2.78,4.28,5.22,6.53,7.98c4.68,0,9.61,0,14.53,0c3.72,0,7.46-0.31,11.14,0.04
		c6.96,0.66,11.27,5.48,11.84,13.12c-1.11,0.89-2.34,2.06-3.75,2.97c-1.2,0.77-2.59,1.24-4.1,1.94c4.52,3.21,5.77,3.17,14.64-0.36
		c0.11-0.95,0.26-2.12,0.39-3.28c0.13-1.18,0.25-2.37,0.4-3.69c6.6-2.25,13.78-1.32,21.26-5.34c-2.96-0.71-4.46-1.26-6-1.41
		c-8.07-0.78-10.17-3.2-10.23-12.7c4.69-1.3,9.59-2.66,14.41-4.01c0.89-4.3-3.72-7.39-1.97-11.43c0.57-0.33,0.98-0.78,1.41-0.8
		c13.11-0.55,26.21-1.18,39.33-1.51c3.66-0.09,7.39,0.51,11.01,1.17c4.06,0.74,7.35,2.86,9.3,6.98c0.45,3.74-1.33,6.42-4.71,8.3
		c-4.14,0-8.32,0-12.88,0c-0.8,1.67-1.61,3.36-2.36,4.92c2.98,2.36,5.77,4.32,8.25,6.61c2.69,2.49,3.22,5.45,0.7,8.77
		c-7.32,1.52-14.76,3.06-22.57,4.68c-0.33,2.36-0.67,4.7-1.02,7.18c-1.01,0.42-1.88,1.06-2.78,1.12
		c-12.45,0.78-24.39,4.23-36.4,7.19c-9.84,2.42-19.57,5.32-29.36,7.99c-8.2,2.24-10.55,1.72-17.82-3.94
		c-7.54-0.07-14.79,4.01-22.86,2.32c-4.55-2.48-6.93-6.43-6.91-11.99c8.48-5.52,18.61-6.52,27.44-10.85
		C773.64,1017.39,764.02,1023.44,752.76,1021.85z"/>
	<path d="M966.14,716.94c-6.28-1.43-11.25-3.28-15.7-7.57c-0.29-2.34-0.61-4.96-0.95-7.8c1.86-1.02,3.24-2.1,4.8-2.59
		c8.24-2.57,16.59-4.82,24.77-7.56c3.15-1.05,5.97-3.1,8.6-5.37c7.8-1.23,15.61-2.47,23.68-3.75c0.63-2.2,1.23-4.28,1.91-6.66
		c5.01-2.67,10.19-5.42,15.52-8.26c-1.07-4.93-7.82-8.89-1.43-14.29c4.02-1.31,7.44-0.24,9.87,3.61c0.73,5.67,1.45,11.27,2.23,17.36
		c-2.03,2.49-4.18,5.13-6.29,7.72c0.09,3.44,3.18,6.67-0.21,10.56c-4.51,0.74-9.6,1.57-15.1,2.46c-1.48,1.08-3.26,2.38-4.97,3.63
		c-15.49,2.26-30.79,4.88-45.61,10.05C966.89,711.32,966.58,713.68,966.14,716.94z"/>
	<path d="M1054.07,718.22c-3.87,0-7.32,0-10.7,0c-4.69-2.87-5.32-6.91-3.94-12.19c1.87-0.69,3.87-1.65,5.98-2.18
		c7.19-1.8,14.62-2.87,21.58-5.31c10.45-3.66,21.33-3.66,32.03-5.17c4.4-0.62,8.8-1.44,13.12-2.48c2.09-0.5,4.15-1.49,5.97-2.66
		c4.02-2.6,8.22-4.44,13.06-4.89c2.69-0.25,5.33-1.07,8.02-1.46c1.87-0.27,3.78-0.24,5.05-0.31c3.18,2.74,3.04,5.27,1.63,8.23
		c-0.78,0.59-1.65,1.55-2.74,2.03c-9.29,4.08-18.29,9.4-28.01,11.76c-13.34,3.24-26.53,7.83-40.67,7.62
		C1067.27,711.13,1060.27,713.31,1054.07,718.22z"/>
	<path d="M1557.78,793.53c-7.77-0.31-16.19-0.54-24.59-1.03c-5.54-0.32-10.88,0.32-16.09,2.18c-1.36,0.49-2.72,0.99-3.92,1.43
		c-5.49-5.74-6.08-8.78-3.21-14.11c15.98-4.9,32.13-6.67,48.6-5.73c4.2,0.24,8.42,0.04,12.43,0.04c2.15-1.5,3.96-2.77,6.01-4.21
		c7.56,0.28,14.97-4.67,22.76-2c4.81,8.38,2.33,13.39-6.48,13.96c-1.97,0.13-3.93,0.28-5.92,0.43c-1.52,1.75-2.96,3.4-4.58,5.26
		c-6.17,0-12.34,0-18.45,0C1562.23,790.96,1560.34,792.05,1557.78,793.53z"/>
	<path d="M1599.41,822.54c-3.62-4.25-3.47-8.5-2.53-13.3c11.65-3.12,23.22-2.74,34.97-2.1c1.66-0.79,3.42-1.63,4.12-1.96
		c11.26,0.37,21.37,0.7,31.27,1.02c4.49,4,5.2,8.5,3.57,13.96c-1.33,0.51-2.64,1.35-4.02,1.49c-7.55,0.76-15.11,1.54-22.69,1.93
		c-5.68,0.3-11.39,0.02-17.09,0.01c-5.44-0.01-10.88,0.38-16.21-1.41c-1.53-0.51-3.4-0.01-5.11,0.06
		C1603.51,822.31,1601.34,822.44,1599.41,822.54z"/>
	<path d="M1622.06,862.05c-2.31-4.31-3.6-8.18-0.26-12.72c9.87,0.09,20.02-0.38,30.12,0.92c7.84,1.01,15.76,1.53,23.26,4.61
		c2.4,0.99,5.37,0.7,8.09,0.77c4.07,0.11,7.34,1.5,8.91,5.44c1.52,3.84,0.87,7.29-2.87,10.06c-1.5,0-3.46,0.56-4.84-0.1
		c-5.65-2.71-11.61-2.18-17.53-2.2c-4.03-0.02-7.74-0.42-11.2-3.06c-1.77-1.35-4.58-1.74-6.95-1.83c-5.94-0.23-11.9-0.02-17.85-0.06
		c-1.97-0.01-3.96-0.14-5.91-0.44C1624.1,863.29,1623.26,862.63,1622.06,862.05z"/>
	<path d="M983.68,979.52c-4.14,0.47-6.84-3.64-10.04-0.44c2.44,2.18,4.85,4.33,6.85,6.12c0.97,8.27-0.09,9.67-7.12,10.03
		c-5.5-3.65-4.85-8.97-3.46-14.69c-3.57-3.14-8.19-5.9-6.42-12.02c3.46-4.13,8.11-2.44,12.3-2.69c4.17,2.3,7.46,5.23,8.74,9.76
		C984.84,976.73,983.99,978.2,983.68,979.52z"/>
	<path d="M1523.74,1029.59c-3.87-2.47-4.21-5.45-3.74-8.44c0.68-4.31,1.76-8.56,2.74-13.19c2.52-2.23,5.58-3.32,9.15-2.36
		c3.63,4.43,3.63,4.43,1.72,12.58c3.61,0.98,6.41,3.14,7.58,6.94c0.6,1.94,1.05,3.86-0.84,5.25
		C1534.64,1030.09,1529.05,1029.83,1523.74,1029.59z"/>
	<path d="M676.8,974.67c9.37,3.02,10.07,4.03,8.74,12.03c-1.75,0.76-3.73,1.61-5.79,2.5c-0.19,2.09-0.39,4.24-0.6,6.58
		c-2.41,1.05-4.65,2.02-7,3.04c-4.6-1.3-7.82-3.85-8.63-8.73c2.3-6.76,8.12-2.41,12.45-3.91c-1.03-2.53-1.93-4.74-3.01-7.39
		C674.25,977.41,675.5,976.06,676.8,974.67z"/>
	<path d="M995.98,960.16c0-2.26,0-4.62,0-7.22c2.33-0.91,4.34-1.69,6.78-2.63c0.38-1.5,0.84-3.32,1.27-5.04
		c7.79-1.2,10.4,2.08,9.56,11.69C1005.84,965.05,1001.77,965.83,995.98,960.16z"/>
	<path d="M1163.2,693.29c-10.25-2.63-12.73-6.12-11.35-15.76c2.34-3.06,5.71-2.93,9.76-2.58c1.36,1.61,2.9,3.44,4.29,5.08
		C1166.38,684.87,1166.66,689.24,1163.2,693.29z"/>
	<path d="M1495.04,1044.77c-0.81-3.23-1.51-6.02-2.21-8.86c1.06-1.59,1.98-2.98,2.67-4.02c3.91-1.62,8.74-0.55,11.06,2.68
		c1.54,2.13,2.65,4.68,3.4,7.2c0.32,1.07-0.8,2.56-1.39,4.19C1503.95,1045.55,1499.64,1045.17,1495.04,1044.77z"/>
	<path d="M717.51,948.97c1.71,1.15,3.29,2.21,4.77,3.21c0,3,0,5.62,0,8.78c-2.58,0.17-4.73,0.29-6.88,0.47
		c-1.94,0.16-3.88,0.38-5.85,0.58c-3.9-2.19-4.53-5.45-3.35-9.7C709.7,951.28,713.18,950.25,717.51,948.97z"/>
	<path d="M1296.6,1193.35c-3.06-8.14-2.06-10.73,5.3-14.76c1.41,0.64,3.11,1.41,4.85,2.21c0.76,4.75,1.47,9.08-3.08,13.3
		C1301.75,1193.89,1299.21,1193.62,1296.6,1193.35z"/>
	<path d="M1509.15,1054.18c3.77-1.57,7-1.59,9.98,0.81c2.04,7.77,1.54,9.26-4.25,12.86
		C1508.18,1065.52,1507.26,1063.46,1509.15,1054.18z"/>
	<path d="M1548.23,1068.97c0.81,3.96,0.79,7.29-2.2,9.85c-3.09,1.24-5.98,1.31-8.05-1.52c-2.61-3.54-1.18-6.97,0.68-10.22
		C1543.72,1064.71,1543.72,1064.71,1548.23,1068.97z"/>
	<path d="M664.25,1009.19c4.18-1.07,6.93,0.01,9.07,3.09c0.8,3.27,1.27,6.61-1.03,9.66c-3.72,2.11-6.17,0.19-8.15-2.6
		C661.83,1016.08,661.13,1012.68,664.25,1009.19z"/>
	<path d="M1257.13,1167.87c5.67-3.48,6.19-3.45,11.55,1.08c-0.26,2.65-0.56,5.73-0.89,9.07c-2.59,0.21-4.49,0.37-6,0.49
		C1257.67,1175.91,1255.4,1172.99,1257.13,1167.87z"/>
	<path d="M1596.99,410.5c3.76,4.7,7.05,9.89,5.96,16.96c7.4,3.94,13.35,8.93,12.19,18.42c7.17,2.6,14.12-0.91,22.46,1
		c0.48,0.68,1.77,2.5,3.11,4.41c2.59,0.35,5.01,0.94,7.44,0.96c5.7,0.04,11.4-0.23,17.09-0.31c1.73-0.02,3.62-0.27,5.16,0.32
		c9.21,3.56,18.86,3.39,28.47,4.04c9.36,0.64,18.66,2.14,28.31,3.3c2.43,3.08,4.86,6.16,7.77,9.85c3,0.97,6.74,2.18,10.35,3.35
		c2.71,3.83,5.51,7.31,3.65,12.79c-3.13-0.28-6-0.53-9.49-0.84c-7.11,2.57-14.24,6.98-23.61,7.03c-1.02,1.37-2.34,3.15-3.56,4.79
		c-17.24,2.32-34.13,4.59-50.5,6.79c-2.66-1.39-4.6-2.41-7.46-3.91c-9.98,1.23-20.78,2.54-31.57,3.91
		c-4.44,0.57-8.76,0.76-13.28-0.03c-3.29-0.58-6.86,0.24-10.27,0.69c-4.89,0.65-9.72,1.71-14.62,2.22c-2.12,0.22-4.57,0-6.46-0.89
		c-3.18-1.5-6.24-1.16-9.42-0.62c-0.73,0.12-1.43,0.42-2.15,0.61c-9.71,2.54-19.41,4.95-29.93-3.8c-2.26-2.73-4.84-7.67-4.12-13.55
		c2.41-5.66,9.52-4.15,12.92-9.12c-5.1-2.47-9.65-5.02-11.84-10.56c-2.17-5.5-2.27-10.52,1.01-15.47
		c-3.62-1.58-7.45-2.42-10.13-4.64c-2.72-2.26-4.32-5.88-6.76-9.41c-11.44-6.22-15.84-12.93-15.19-24.62c2.29-1.05,4.93-2.26,8-3.66
		c0.49-0.64,1.36-1.54,1.96-2.59c2.29-4.06,5.68-5.62,10.36-5.87c7.4-0.39,14.76-1.47,22.14-2.32c1.46-0.17,3.12-0.21,4.3-0.94
		c4.94-3.07,10.46-2.86,15.86-2.99c5.44-0.13,10.9,0.14,16.35,0.35C1592.04,396.58,1595.24,399.52,1596.99,410.5z M1696.25,469.63
		c-3.83-0.24-8.76-0.58-13.69-0.84c-5.94-0.31-11.9-0.32-17.82-0.89c-10.58-1.01-21.12-2.36-31.68-3.53
		c-6.39-0.71-13.22-0.19-19.09-2.32c-7.28-2.64-14.75-4.02-22.11-6.08c-2.72-0.76-5.13-2.63-7.3-3.79
		c-0.67-3.94-1.2-7.05-1.77-10.36c2.49-1.44,4.68-2.7,7.07-4.08c-9.24-6.06-9.24-6.06-11.37-17.15c-5.32-2.11-10.48-4.15-16.83-6.66
		c-2.37,0.57-6.48-0.93-10.48,1.57c0.22,3.92-0.59,7.78,1.53,11.56c1.37,2.43,1.58,5.21-0.03,7.94c-1.35,1.09-2.79,2.25-5.18,4.17
		c9.01,0.74,16.25,2.74,20.24,11.7c0,1.22,0,3.41,0,5.9c-1.79,1.52-3.65,3.11-5.25,4.47c-5.12,0.79-9.98,0.91-15.21,3.71
		c9.07,4.71,18.29,8.38,16.97,20.71c-2.61,2-5.22,4-7.91,6.05c0.81,0.56,1.23,1.09,1.56,1.03c5.62-0.88,11.22-1.84,16.84-2.76
		c5.36-0.87,10.8-2.36,16.13-0.56c4.3,1.45,8.36,1.12,12.33-0.42c5.07-1.96,10.2-1.49,15.38-1.07c3.18,0.26,6.38,0.8,9.54,0.6
		c6.17-0.4,12.3-1.44,18.47-1.82c8.59-0.54,17.15-2.19,25.83,0.37c3.07,0.91,6.74-0.25,9.7-0.44c1.26-2.46,2.12-4.15,2.93-5.74
		c7.85-0.51,15.4-0.08,23.03-1.55C1704.29,476.22,1700.98,473.51,1696.25,469.63z"/>
	<path d="M328.19,1423.36c7.33-5.14,14.79-10.37,22.71-15.91c-1.07-2.06-2.16-4.15-3.38-6.48c2.62-5.93,9.8-7.12,13.46-12.48
		c-1.58-2.49-3.13-4.94-4.89-7.71c1.38-1.78,2.67-3.45,3.98-5.15c-1.06-3.19-5.32-4.83-4.19-9.58c3.14-1.86,6.65-3.93,10.2-6.03
		c-2.24-3.3-4.14-6.09-6.4-9.42c6.77-6.69,15.33-10.64,21.01-17.38c0.07-3.68-4.62-5.39-2.57-9.6c6.28-3.93,12.95-8.09,19.87-12.42
		c-0.39-1.45-0.73-2.59-1-3.73c-0.22-0.93-0.36-1.87-0.58-3.05c6.08-4.5,10.77,1.11,17.05,1.98c1.8-0.93,4.65-1.93,6.92-3.68
		c3.77-2.91,7.75-4.27,13.11-3.35c1.59,0.87,3.75,2.06,6.19,3.4c2.44-0.13,5.15-0.28,7.48-0.41c5.13,0.84,8.25,3.98,11.12,7.72
		c2.4,0.34,4.83,0.69,7.47,1.06c2.35,1.45,4.86,3.01,7.48,4.63c3.17-0.49,6.34-0.99,9.99-1.56c1.39,0.9,3.24,1.74,4.62,3.07
		c3.02,2.92,5.84,6.06,8.67,9.17c2.12,2.33,3.27,4.97,1.64,8.78c-7.08,6.67-17.11,9.59-25.86,15c0.1,2.28,0.2,4.46,0.31,6.95
		c-6.82,4.7-14.62,7.11-22.58,10.13c-2.77,5.65-8.05,8.71-13.78,11.29c-4.73,2.13-9.35,4.48-14.2,6.82
		c-0.24,2.27-0.48,4.44-0.75,6.96c-9.34,8.45-20.48,14.3-32.16,19.67c-0.23,2.56-0.45,4.96-0.66,7.2
		c-7.95,8.31-17.63,13.88-27.17,19.72c-0.92,1.77-1.82,3.51-2.69,5.2c-8.58,5.05-17.83,7.24-27.61,8.15
		c-3.15-2.77-6.75-5.02-7.84-9.84c4.36-2.34,8.42-4.52,12.81-6.88C333.82,1430.9,327.09,1429.64,328.19,1423.36z M449.31,1328.61
		c-4.53-0.24-8.2-0.44-11.87-0.64c-2.11-2.56-3.99-4.83-6.16-7.46c-2.12-0.9-4.6-1.95-6.86-2.91c-3.39,1.75-6.43,3.32-8.82,4.55
		c-3.3-0.28-5.74-0.48-8.03-0.68c-3.93,2.65-7.6,5.13-11.31,7.64c0.14,2.84,0.27,5.51,0.37,7.51c-2.51,4.64-8.2,5.91-8.85,11.39
		c3.12,2.69,8.14,4.17,5.83,10.2c-3.08,2.45-6.47,5.16-9.52,7.59c1.81,3.44,3.26,6.19,4.64,8.8c-1.94,2.16-3.37,3.75-4.43,4.93
		c0.71,3.22,1.28,5.78,1.77,7.98c-5.51,6.52-13.74,8.4-18.69,15.05c1.37,1.52,2.61,2.91,4.04,4.5c10.3-5.93,21.44-9.58,30.29-17.21
		c-0.89-3-1.7-5.73-2.56-8.61c8.85-4.06,17.15-7.86,25.58-11.72c1.15-4.4,4.46-6.52,8.11-8.27c4.69-2.25,9.38-4.51,14.06-6.81
		c1.75-0.86,3.44-1.83,5.24-2.8c0.2-6.95,4.58-10.25,10.16-12.59c2.97-1.25,5.92-2.56,8.81-3.99c0.93-0.46,1.62-1.42,2.42-2.15
		c-2.31-0.9-4.27-0.98-5.87-0.25C460.46,1335.95,454.15,1335.67,449.31,1328.61z M359.79,1424.57c12-7.03,12.23-7.29,11.07-11.9
		c-5.61,1.02-10.74,4.13-15.27,9.46C356.99,1422.95,358.32,1423.72,359.79,1424.57z"/>
	<path d="M404.73,1136.85c-3.14,0.57-6.26,1.21-9.41,1.68c-3.89,0.59-7.8,1.04-10.96,1.45c-5.7-2.44-7.81-6.39-8.85-11.83
		c9.82-10.91,20.79-20.74,33.67-28.63c-0.83-3.14-1.52-5.71-2.13-8.03c0.21-4.35,2.71-7.1,5.54-9.59c2.77-2.44,5.64-4.78,8.48-7.17
		c-0.22-2.24-0.4-4.16-0.62-6.38c7-5.81,14-11.61,20.91-17.35c2.01,0.75,3.43,1.15,4.73,1.79c1.1,0.54,2.06,1.36,2.61,1.73
		c3.79-0.52,7.13-0.97,9.41-1.28c5.24,2.69,7.01,6.49,8.99,10.12c4.56,5.83,9.12,11.65,13.23,16.91c0.32,4.87,0.59,8.8,0.88,13.16
		c-0.94,1.32-2.41,2.77-3.09,4.52c-0.69,1.76-0.59,3.83-0.84,5.79c-5.49,2.16-10.77,4.22-16.05,6.32c-1.38,0.55-2.87,0.99-4.06,1.84
		c-10.73,7.66-23.16,12.31-34.23,19.36c-3.83,2.44-7.78,4.22-12.59,3.46c-2.16-0.34-4.52-0.04-5.84,2.31L404.73,1136.85z
		 M442.09,1078.64c-3.71,2.79-7.33,5.34-10.76,8.14c-3.54,2.89-8.2,4.66-9.98,9.25c1.05,2.78,1.99,5.3,2.99,7.96
		c-3.11,8.8-13.33,10.15-19.32,18.25c9.45-2.06,16.07-6.13,22.49-9.96c0.77-2.27,1.39-4.07,2-5.87c5.23-1.53,10.17-2.97,15.1-4.42
		c0.44-2.26,0.84-4.37,1.2-6.19c3.21-1.95,7.27-1.39,9.23-4.7c-0.91-2.96-1.76-5.72-2.65-8.63c2.38-1.36,4.19-2.39,5.87-3.35
		c-0.84-3.1-1.54-5.7-1.94-7.16c-2.95-3.31-5.2-5.84-8.04-9.03c-2.17,2.38-4.12,4.54-6.19,6.8
		C442.09,1072.75,442.09,1075.68,442.09,1078.64z"/>
</g>
</svg>
