<?xml version="1.0" encoding="utf-8"?>
<!-- Generator: Adobe Illustrator 27.4.0, SVG Export Plug-In . SVG Version: 6.00 Build 0)  -->
<svg version="1.1" id="Calque_1" xmlns="http://www.w3.org/2000/svg" xmlns:xlink="http://www.w3.org/1999/xlink" x="0px" y="0px"
	 viewBox="0 0 2000 2000" style="enable-background:new 0 0 2000 2000;" xml:space="preserve">
<g>
	<path d="M987.46,1256.73c6.03-0.22,11.11,1.11,15.56,4.49c2.43,0.14,4.82,0.27,7.58,0.43c3.5,5.22,9,6.54,14.96,7.75
		c6.24,1.27,12.3,3.63,18.23,6.04c2.6,1.06,4.69,3.4,7.19,5.3c3.79,1.1,7.87,2.29,11.91,3.46c3.14,5.91,8.19,8.49,14.14,9.97
		c3.86,0.96,7.58,2.51,11.32,3.78c0.78,1.81,1.41,3.26,2.02,4.67c3.93,3.64,8.77,3.62,14,3.27c2.28,1.51,5.23,2.69,7.03,4.83
		c2.99,3.57,6.72,5.08,10.98,6.1c7.47,1.79,14.19,5.03,18.52,11.68c2.15,3.3,3.63,7.03,5.43,10.6c5.1,2.4,10.35,4.86,16.81,7.9
		c0.73-0.06,2.83-0.24,5.31-0.44c1.35,0.73,2.98,1.6,4.99,2.68c1.97-1.4,4.09-2.91,6.36-4.53c2.05,0.53,4.09,1.06,6.39,1.66
		c1.8-1.41,3.67-2.88,4.47-3.5c2.14-4.46,3.71-7.73,5.65-11.78c-1.06-1.44-2.59-3.51-4.41-5.98c0-1.43,0-3.26,0-5.23
		c-1.91-1.61-3.74-3.14-6.02-5.06c-0.35-1.27-0.85-3.04-1.48-5.3c-3.15-2.66-6.63-5.59-9-7.59c-4.78-1.43-8.24-2.47-10.28-3.08
		c-3.08-4.02-5.14-6.71-7.1-9.27c-7.11,0.12-12.97-1.15-15.76-8.16c-2.86-0.8-5.68-1.58-7.72-2.15c-3.73-3.27-6.9-6.06-10.47-9.19
		c-1.22-2.84-2.68-6.2-4.37-10.11c0.72-1.71,1.64-3.89,2.61-6.17c-0.77-2.48-1.56-5.01-2.44-7.84c3.27-3.06,6.47-6.06,10.27-9.61
		c0.82,0,2.36,0,3.94,0c1.59-1.36,3.17-2.7,5.18-4.41c2.6,1.28,5.11,2.52,7.92,3.91c1.84-2.42,1.6-6.73,5.98-6.69
		c3.82,2.08,7.73,4.21,11.84,6.44c2.19-2.39,3.94-4.31,5.56-6.07c7.33,0.77,14.33,1.5,21.76,2.28c7.26-3.05,7.98-11.56,13.09-16.94
		c-5.76-7.4-14.41-10.82-20.52-17.85c1.03-2.16,2.02-4.24,3.26-6.84c-4.13-3.73-8.42-7.61-12.85-11.61c1.13-2.56,2.07-4.7,3.17-7.19
		c-4.66-5.57-12.11-8.5-15.75-14.27c0.04-4.64,3.77-5.14,5.93-7.81c-6.28-9.69-16.38-16.73-21.36-27.73
		c0.43-1.32,0.79-2.6,1.26-3.83c0.47-1.24,1.04-2.43,1.83-4.26c-6.97-9.85-17.86-15.77-26.21-24.94c0.44-2.02,0.94-4.27,1.61-7.3
		c-5.16-2.89-10.47-5.87-16.15-9.05c0.2-2.35,0.39-4.64,0.59-6.94c-3.95-2.71-7.93-5.39-11.85-8.17c-0.6-0.42-0.88-1.3-1.5-2.28
		c0.85-1.77,1.75-3.64,2.74-5.69c-0.38-0.54-0.73-1.25-1.27-1.77c-2.83-2.74-7.03-4.13-8.43-8.89c0.56-1.62,1.25-3.58,2.13-6.11
		c-4.17-2.23-8.36-4.46-12.78-6.82c0.21-2.22,0.4-4.27,0.65-6.86c-3.08-1.69-6.32-3.47-9.86-5.41c-0.39-1.88-0.81-3.93-1.22-5.95
		c-4.4-3.99-11.22-4.23-14.73-9.84c0.14-1.71,0.29-3.53,0.48-5.81c-4.04-2.32-8.16-4.69-12.16-6.99c-0.42-2.24-0.75-4.05-1.08-5.8
		c-3.26-2-6.4-3.92-9.56-5.86c0.12-2.32,0.21-4.13,0.33-6.46c-7.34-3.96-14.81-7.99-22.45-12.1c0.36-2.62,0.64-4.66,1.03-7.54
		c-5.89-3.78-12.11-7.77-18.46-11.84c0.56-2.6,1-4.61,1.49-6.9c-5.63-4.95-15.48-4.01-17.93-12.03c-5.12-3.51-9.5-6.5-13.97-9.57
		c0.47-3.24,0.83-5.79,1.24-8.62c-2.63-1.56-5.35-3.18-8.64-5.13c-0.94-5.47-1.92-11.19-2.87-16.74c1.46-2.14,2.66-3.9,4.16-6.1
		c0.3-1.84,0.67-4.19,0.99-6.19c3.67-5.33,9.39-3.97,14.4-5.39c0.93-1.99,1.94-4.13,3.19-6.81c2.9-0.7,5.97-1.45,9.41-2.28
		c1.58-1.23,3.46-2.7,5.5-4.29c3.38-0.39,6.84-0.79,10.25-1.19c7.54-4.4,14.51-9.91,24.11-11.19c0.87-1.75,1.91-3.84,3.25-6.53
		c2.33-0.85,5.06-1.84,8.4-3.06c0.67-1.34,1.6-3.21,2.89-5.8c2.49-0.79,5.51-1.74,8.01-2.53c3.36-2.01,6.32-3.74,9.24-5.54
		c2.92-1.79,5.79-3.65,9.32-5.88c4-0.43,8.78-0.93,13.55-1.45c1.32-0.14,2.82,0.02,3.94-0.55c6.24-3.2,12.41-1.59,18.82-0.51
		c15.24,2.57,29.28,8.57,43.44,14.29c16.13,6.51,32.23,13.11,48.35,19.66c1.74,0.7,3.46,1.55,5.27,1.93
		c16.13,3.34,31.24,9.43,46.02,16.54c3.37,1.62,6.96,2.82,10.53,3.97c9.77,3.15,18.79,7.65,27.12,13.72
		c2.95,2.15,6.58,3.61,10.11,4.68c12.43,3.79,24.11,8.88,34.1,17.41c1,0.85,2.25,1.44,3.44,2.04c13.16,6.64,26.38,13.17,39.49,19.91
		c5.95,3.06,11.65,6.59,17.53,9.79c3.05,1.66,6.13,3.43,9.41,4.49c7.04,2.28,12.3,7.27,18.01,10.71c1.13,2.88,0.58,5.07-1.49,6.14
		c-1.75,0.91-4.33,1.76-5.94,1.13c-4.69-1.85-9.14-4.36-13.59-6.79c-3.28-1.8-6.41-3.87-9.59-5.84c-5.17-3.2-10.77-4.59-16.85-4.45
		c-2.38,0.05-4.99-0.01-7.13-0.91c-7.31-3.07-14.88-4.05-22.72-4.13c-8-0.08-16-0.49-24-0.71c-1.33-0.04-2.71,0.36-4.01,0.18
		c-10.03-1.41-20.09-2.07-31.22-1.36c-0.83,0.61-2.54,1.87-4.06,2.98c-8.48,2.13-16.31-3.97-24.87-1.68
		c-0.22,2.6-0.39,4.68-0.64,7.62c-1.59,1.27-3.39,3.56-5.7,4.36c-4.31,1.48-6.49,4.33-7.88,8.37c-1.82,5.28-3.88,10.48-6.08,16.36
		c-1.84,1.73-4.15,3.91-6.57,6.18c0.41,2.98,0.8,5.84,1.29,9.38c2.89,1.66,6.11,3.51,9.78,5.62c2,3.78,5.79,6.09,9.9,8.23
		c6.18,3.21,12.28,6.64,18.11,10.44c10,6.53,21.19,10.37,32.23,14.38c5.91,2.15,12.46,2.56,18.27,5.42
		c3.12,1.54,6.39,2.74,10.06,4.29c5.07-3.68,9.94-0.37,15.29,1.24c1.98-0.94,4.12-1.95,6.81-3.23c2.82,1.16,6,2.48,9.61,3.96
		c2.37-0.97,5.02-2.06,7.83-3.21c-0.43-6.38-3.48-13.09,3.22-17.78c-1.67-4.1-3.08-7.55-4.28-10.49c0-5.89,0-11.23,0-16.73
		c-1.41-4.27-5.33-8.31-1.64-14.09c2.93-1.54,6.45-3.4,10.73-5.66c4.91,0.35,10.49,0.74,15.84,1.12c5.99,3.42,10.13,9.91,18.64,8.01
		c2.3,2.69,4.55,5.33,7,8.2c1.58,0.29,3.39,0.63,5.6,1.04c1.73,2.04,3.63,4.27,5.76,6.76c2.92,0.21,6.1,0.44,9.5,0.69
		c1.44,2.27,2.86,4.49,4.34,6.81c5.17,0.23,10.34,0.46,16.42,0.73c2.08,2.43,4.67,5.45,6.93,8.1c3.97,0.71,7.55,1.34,12.15,2.16
		c1.35-0.78,3.62-2.09,6.08-3.52c2.49,0.66,5.06,1.33,7.95,2.1c2.3,2.91,4.74,6.01,7.48,9.48c-1.35,2.63-2.65,5.16-4.02,7.82
		c-2.6-0.29-4.67-0.52-7.66-0.85c-1.77,1.75-3.99,3.94-6.68,6.6c-0.94-0.04-2.45-0.11-4.05-0.18c-1.66-3.02-3.19-5.81-4.94-8.98
		c-1.96-0.31-4.03-0.65-6.37-1.02c-1.68,0.73-3.56,1.54-6.12,2.65c-1.68-2.71-3.2-5.14-4.71-7.57c-0.18,0.15-0.35,0.3-0.53,0.45
		c-3.55-3.9-7.1-7.79-11.11-12.19c-2.41,0.96-5.01,2-7.86,3.14c-4.3-2.81-8.7-5.68-13.89-9.07c-0.84,0-2.68,0-4.88,0
		c-1.3-1.5-2.66-3.08-4.14-4.8c-1.65,0.73-3.31,1.48-4.78,2.13c-3.86-1.27-4.06-5.06-6-7.47c-2.82-1.95-5.64-3.9-8.27-5.72
		c-5.42-0.45-10.84-0.89-16.75-1.38c-0.4,5.87,2.57,11.42,3.67,17.96c-0.37,1.46-0.88,3.51-1.48,5.9c1,1.63,2.11,3.42,3.21,5.21
		c-0.19,0.06-0.38,0.12-0.58,0.19c1.38,4.79,2.76,9.59,4.32,15.02c-1.94,1.8-4.03,3.74-6.34,5.89c0,2.15,0,4.52,0,7.23
		c-3.26,2.33-6.47,4.63-10.17,7.27c-1.38-0.26-3.17-0.61-5.51-1.06c-1.41,0.74-3.26,1.72-5.37,2.82c-3.91-1.62-7.85-3.25-11.94-4.95
		c-1.92,0.66-3.9,1.33-6.15,2.1c-7.12-3.01-14.26-6.02-21.63-9.14c-1.95,0.55-3.98,1.12-6.49,1.83c-4.93-2.52-10.16-5.2-16.02-8.19
		c-5.19,1.2-9.68-1.82-14.12-4.81c-3.58-2.41-7.28-4.14-11.59-5.2c-5.63-1.39-11.26-3.57-14.89-9.14
		c-6.28-1.15-11.66-3.86-16.43-8.74c-3.17-3.25-8.37-4.57-12.74-6.56c-2.9-1.32-5.96-2.29-9.03-3.45c-0.49-1.78-0.91-3.3-1.41-5.15
		c-1.86-1.03-3.93-2.17-6.48-3.57c-0.13-2.48-0.27-5.03-0.42-7.74c-2.16-1.28-4.41-2.63-7.3-4.35c1.8-4.23,3.53-8.28,5.35-12.55
		c2.23,0.13,4.02,0.24,6.13,0.36c2.82-3.75,5.84-7.74,8.78-11.66c-0.01-4.21-0.37-8.19,5.57-8.83c1.9-0.2,3.55-2.75,5.82-4.65
		c1.99,0.61,4.21,1.46,6.5,1.95c1.9,0.41,3.87,2.36,6.16-0.22c-1.3-2.09-2.65-4.27-3.94-6.35c0.86-4.56,3.96-4.62,7.36-4.77
		c4.18-0.18,8.34-0.85,12.54-2.31c2.46,0.9,4.92,1.79,7.62,2.77c1.82-2.02,3.55-3.95,5.58-6.19c5.18,1.33,10.29,2.64,15.4,3.94
		c2.46-1.52,4.7-2.9,6.91-4.27c3.85,1.65,7.49,3.21,11.11,4.76c2.46-1.22,4.57-2.26,6.99-3.46c2.91,1.09,5.88,2.21,9.15,3.43
		c2.1-1.29,4.32-2.64,6.43-3.94c6.82,1.19,12.39,8.81,20.22,3.65c-3.45-6.31-11.22-10.65-29.27-16.57
		c-2.53-5.59-7.32-9.19-13.84-11.46c-1.63,0.3-3.69,0.68-5.99,1.11c-2.7-1.61-5.41-3.34-8.22-4.88c-4.22-2.31-8.55-4.42-12.78-6.73
		c-2.8-1.53-5.83-2.89-8.17-4.98c-5.9-5.27-12.55-7.94-20.73-7.23c-3.84-3.76-9.11-4.99-13.81-7.34
		c-7.67-3.85-15.56-6.74-23.68-9.25c-1.51-0.47-2.93-1.27-4.57-2c-1.99,0.48-4.03,0.98-5.84,1.42c-4.47-1.75-8.77-3-12.23-6.37
		c-1.52-1.49-4.42-1.55-6.68-2.31c-2.49-0.84-5.58-1.08-7.31-2.73c-6.37-6.05-14.18-8.33-22.44-9.79
		c-5.77-3.35-11.28-7.36-18.39-7.39c-0.25,0-0.52-0.14-0.76-0.25c-8.93-4.22-18.07-7.78-28.18-8.82c-2.2,0.89-4.41,1.79-6.86,2.78
		c-2.12-0.55-4.42-1.14-6.62-1.71c-5.93,2.83-11.66,5.58-18.05,8.63c-1.12,1.52-2.77,3.75-4.54,6.14c-3.2-1.03-5.73-1.82-8.25-2.65
		c-2.53-0.83-5.06-1.57-8.5,0c2,1.19,3.46,2.13,4.99,2.94c1.4,0.74,2.88,1.34,4.14,1.91c0.54,3.84,0.54,3.84-1.31,6.76
		c-5.5,1.93-9.84-3.86-15.76-2.55c0.7,1.66,1.35,3.2,2.18,5.17c-0.98,1.33-2.03,2.76-3.07,4.16c-3.24,0-6.16,0-8.94,0
		c-3.61,4.13-7.08,8.1-10.7,12.24c-2.96-0.25-5.83-0.49-8.63-0.72c-1.39,2.2-2.63,4.17-4.17,6.6c-3.99-0.38-7.92-0.76-12.35-1.19
		c-0.62,2.07-1.27,4.23-1.93,6.42c-6.16,2.51-12.49-0.25-18.99,1.49c1.32,2.4,2.6,4.73,3.96,7.22c-1.74,2.22-3.19,4.08-4.9,6.25
		c0,3.94,0,8.2,0,12.72c4.05,2.47,8.08,4.94,11.47,7.01c1.38,5.07-2.24,6.36-4.65,8.45c6.11,6.03,16.59,5.04,19.64,13.36
		c4.82,2.8,8.95,5.2,13.27,7.71c-0.43,3.06-0.78,5.63-1.21,8.68c6.56,4.65,13.29,9.43,19.81,14.05c0.62,2.27,1.11,4.05,1.64,5.97
		c6.56,5.46,16.89,6.51,19.85,16.89c3.65,1.12,7.44,2.28,10.7,3.28c3.53,3.55-0.07,6.32-0.23,9.69c6.25,3.5,12.55,7.01,19.13,10.69
		c0.62,2.09,1.28,4.35,1.95,6.6c4.79,4.46,12.17,6.56,12.58,13.09c3.12,4.62,5.47,8.08,7.81,11.55c-0.21,0.16-0.42,0.31-0.63,0.47
		c4.37,3.92,8.73,7.84,13.36,11.99c-1.31,2.34-2.41,4.31-3.8,6.79c4.98,3.94,9.74,7.7,14.67,11.6c-0.74,2.08-1.36,3.78-2.21,6.15
		c1.62,1.3,3.47,2.8,5.51,4.43c0.49,7.7,9.39,11.81,7.96,20.2c8.27,8.35,17.5,15.51,22.73,26.59c-0.81,1.67-1.72,3.54-2.61,5.38
		c0.12,0.57,0.08,1.18,0.35,1.58c3.17,4.64,6.24,9.37,9.65,13.84c3.63,4.77,6.22,9.88,7.44,15.79c0.64,3.09,2.04,6.03,2.92,8.51
		c4.96,5.25,9.54,10.09,13.89,14.69c-0.19,2.58-0.32,4.41-0.48,6.65c5.74,4.53,11.9,9.18,10.94,18c5,5.7,11.31,10.23,14.09,18.43
		c-0.29,1.29-0.75,3.32-1.2,5.29c0.47,0.84,0.77,1.6,1.26,2.21c2.69,3.34,5.54,6.57,8.11,9.99c1.76,2.34,3.41,4.83,4.68,7.46
		c3.25,6.72,6.08,13.63,9.43,20.3c1.43,2.83,3.83,5.16,5.6,7.84c4.42,6.68,8.73,13.44,12.66,19.49c-0.17,3.46-0.28,5.86-0.41,8.46
		c3.2,4.51,6.46,9.05,9.65,13.63c1.07,1.54,2.18,3.09,2.96,4.78c2.19,4.72,4.13,9.51,0.16,14.45c3.56,5.05,6.98,9.81,10.29,14.65
		c6.54,9.53,12.44,19.47,16.43,30.32c1.66,4.51,4.16,7.99,7.63,11.05c1.8,1.59,3.49,3.33,5.17,5.05c4.11,4.21,5.5,9.06,3.45,14.74
		c-0.55,1.51-0.83,3.11-1.04,3.93c-0.7,5.87,4.01,8.7,5.31,13.42c-0.41,1.48-0.91,3.25-1.48,5.3c0.94,2.28,1.96,4.74,3.18,7.7
		c-0.97,1.26-2.05,2.67-3.39,4.42c0.81,2.02,1.34,4.48,2.66,6.4c4.46,6.48,5.47,13.27,2.27,20.88
		c11.95,15.23,17.02,33.01,20.09,52.93c2.58,3.98,5.92,9.11,9.03,13.91c-0.56,2.81-0.97,4.87-1.35,6.76
		c2.98,4.14,5.78,8.05,8.56,11.91c5.2,3.69,10,8.32,15.73,10.91c13.08,5.91,24.92,14.95,39.88,16.36c2.06,0.19,4.04,1.35,6.02,2.15
		c6.21,2.53,12.35,5.12,19.14,5.89c2.59,0.29,5.06,1.68,7.57,2.59c9.31,3.34,18.28,7.45,27.89,10.16
		c9.47,2.67,18.2,7.88,27.52,11.22c10.12,3.63,19.75,8.12,29.26,13.1c4.15,2.18,9.23,2.51,13.68,4.2c6.76,2.57,13.34,5.6,20.47,8.64
		c5.08-1.51,10.16,0.57,15.15,2.31c5.55,1.93,10.89,4.5,16.3,6.83c3.67,1.58,7.15,3.23,11.49,2.96c2.7-0.17,5.67,1.4,8.27,2.69
		c5.28,2.62,10.33,5.7,15.59,8.37c12.89,6.53,25.82,12.97,38.78,19.36c8.4,4.14,16.85,8.16,25.3,12.2c1.19,0.57,2.48,1.27,3.75,1.32
		c7.07,0.3,12.64,4.25,18.45,7.5c8.61,4.83,17.04,9.98,26.47,15.54c1.02-0.05,3.12-0.14,5.25-0.23c-0.12-0.81-0.01-1.48-0.3-1.79
		c-2.15-2.37-4.11-5.02-6.62-6.93c-10.48-7.93-17.38-18.87-25.07-29.15c-1.59-2.12-2.99-4.53-5.01-6.15
		c-9.6-7.66-16.05-17.97-23.43-27.49c-1.74-2.25-2.45-5.3-3.77-8.29c-12.2-11.8-26.15-22.6-33.66-41.06
		c-5.94-8.3-12.94-18.09-20.97-29.31c-0.04-0.26-0.41-2.35-0.76-4.37c-5.79-7.15-11.62-14.14-17.2-21.33
		c-2.39-3.08-4.26-6.57-6.51-10.11c-10.07-11.31-20.39-22.9-30.68-34.46c0-2.42,0-4.53,0-6.31c-7.68-8.06-15.06-15.81-22.49-23.6
		c-0.5-2.13-0.98-4.19-1.48-6.33c-7.27-7.01-15.8-12.75-22.46-20.76c0.85-2.19,1.59-4.13,2.58-6.68
		c-8.98-8.77-18.15-17.73-27.2-26.58c0.12-2.67,0.21-4.76,0.31-6.87c-9.16-8.25-18.29-16.46-27.32-24.59c0.29-2.5,0.5-4.3,0.76-6.57
		c-5.26-4.16-10.69-8.46-16.1-12.73c-0.51-2.28-0.96-4.33-1.3-5.86c-9.16-7.03-17.87-13.71-26.67-20.46
		c-0.3-2.47-0.58-4.8-0.92-7.66c-6.64-4.88-13.5-9.92-20.38-14.97c0.44-2.38,0.77-4.15,1.17-6.35c-4.6-4.14-9.35-8.41-14.05-12.65
		c0-2.68,0-5.04,0-7.96c-4.05-4.6-10.07-8.08-13.57-14.13c0.56-2.14,1.09-4.17,1.66-6.33c-1.77-1.87-3.59-3.8-5.66-6
		c0.35-1.7,0.72-3.47,1.16-5.59c-2.47-4.13-4.88-8.65-0.17-13.66c2.36,0.23,4.69,0.46,7.36,0.72c1.17-2.08,2.3-4.1,3.3-5.88
		c7.94-3.3,15.08,0.34,22.92,1.4c1.51-0.68,3.43-1.54,4.34-1.95c8.94,0.91,16.95,1.26,24.79,2.65c8.65,1.53,17.37,2.64,25.87,5.33
		c6.52,2.07,13.61,2.38,20.56,2.82c4.42,1.93,8.78,4.02,13.27,5.74c3.22,1.24,6.62,2.03,9.96,2.96c4.11,1.14,8.41,1.8,12.33,3.39
		c11.92,4.82,24.07,8.87,36.53,12.02c2.31,0.59,4.45,1.83,6.69,2.71c2.74,1.07,5.43,2.58,8.27,3.02c8.38,1.31,15.82,4.89,23.21,8.71
		c13.57,7.02,26.93,14.5,40.77,20.94c8.9,4.15,18.51,6.78,27.84,10.11c2.6-1.53,4.86-2.86,7.04-4.15c-0.77-3.14-1.44-5.92-1.91-7.84
		c-5.77-7.95-11.08-15.28-16.56-22.84c-0.22-1.87-0.46-3.97-0.66-5.72c-6.3-8.68-15.74-14.64-17.78-24.43
		c-3.35-4.53-6.01-8.13-8.68-11.73c-4.86-5.92-11.54-10.22-15.75-17.21c0.56-2.08,1.1-4.07,1.46-5.41
		c-2.76-4.52-5.22-8.56-7.69-12.6c-9.18-9.69-9.18-9.69-11.13-17.64c-3.67-5.17-7.28-10.16-10.78-15.24
		c-0.73-1.06-1.03-2.43-1.59-3.83c0.91-1.68,1.78-3.3,2.43-4.51c-0.31-3.65-0.59-6.92-1.02-11.9c-2.88-2.44-6.97-5.91-10.73-9.1
		c0-2.73,0-4.53,0-6.69c-2.93-3.71-6.06-7.66-9.07-11.48c0.51-2.31,0.91-4.08,1.32-5.9c-2.63-3.21-5.2-6.29-7.7-9.43
		c-1.16-1.46-2.7-2.89-3.15-4.57c-1.95-7.31-6.77-12.68-11.55-18.12c-1.21-1.38-2.17-2.99-3.42-4.74c1.09-2.17,2.11-4.23,3.3-6.6
		c-3.68-3.43-7.37-6.87-11.05-10.3c0-2.36,0-4.46,0-7.03c-3.46-2.81-7.18-5.83-10.94-8.89c0-2.06,0-3.9,0-5.87
		c-2.77-2.21-5.46-4.36-8.21-6.55c-0.17-1.98-0.33-3.79-0.49-5.64c-3.58-2.51-7.07-4.95-10.33-7.24c-1.1-4.74-1.76-8.85,3.01-12.02
		c1.77,1.56,3.32,2.93,5.02,4.43c5.7,0.75,11.67,1.29,15.89,6.85c-0.76,1.99-1.58,4.15-2.46,6.49c1.9,1.53,3.77,3.03,5.85,4.7
		c0.58,2.17,1.19,4.46,1.88,7.02c2.81,2.08,5.79,4.3,9.06,6.72c-0.53,2.15-1.02,4.13-1.56,6.31c2.56,2.43,5.06,4.8,7.68,7.29
		c0.29,2.38,0.57,4.73,0.81,6.75c2.89,2.55,5.49,4.84,8.22,7.24c-0.98,3.74-1.76,6.77-2.66,10.21c0.98,1.55,1.95,3.49,3.3,5.11
		c3.25,3.9,6.53,7.59,7.57,12.95c0.47,2.4,2.69,4.58,4.42,6.6c3.8,4.46,7.8,8.76,11.87,13.3c-0.72,1.87-1.38,3.57-2.04,5.27
		c2.67,6.42,9.56,8.26,14.4,12.93c-0.62,2.22-1.24,4.42-2.03,7.27c3.02,2.61,6.21,5.38,9.77,8.46c-0.2,1.82-0.43,3.88-0.73,6.54
		c0.81,1.21,1.97,2.94,3.29,4.91c-1.09,1.92-2.12,3.72-3.05,5.34c0.85,8.47,7.33,12.79,12.86,17.06c0,2.93,0,5.04,0,8.24
		c3.36,2.7,7.28,5.85,11.67,9.37c-0.13,1.57-0.3,3.61-0.54,6.48c2.78,3.22,5.92,6.85,9.92,11.48c-0.17,0.45-0.96,2.61-1.92,5.19
		c2.5,4.96,8.64,6.39,11.92,10.81c1.83,3.15,3.67,6.31,6.22,10.7c0,0.63,0,2.73,0,5.67c5.63,6.44,11.59,13.26,17.95,20.54
		c0.29,1.5,0.69,3.56,1.07,5.53c2.89,2.26,5.61,4.4,8.6,6.74c-0.51,1.86-0.99,3.6-1.7,6.16c4.24,3.39,8.76,7,13.47,10.76
		c0,1.8,0,3.6,0,5.23c1.03,1.47,1.94,2.77,2.91,4.15c-0.54,1.58-1.05,3.05-1.62,4.7c1,1.47,2.02,2.98,3.48,5.12
		c-1.87,2.12-3.72,4.22-5.46,6.21c-7.17-0.59-11.18-6.09-17.41-8.57c-1.49,0.26-3.54,0.61-6.19,1.07
		c-3.78-2.22-7.93-4.66-12.45-7.32c-1.72,0-3.84,0-6.29,0c-4.54-2.99-9.22-6.07-14.07-9.26c-7.79,1.69-12.32-3.69-17.34-8.43
		c-5.45,0.27-9.58-2.53-13.34-6.15c-3.11-3-6.73-4.31-11.16-2.9c-1.83-1.08-3.65-2.16-5.83-3.44c-1.73,0.24-3.81,0.52-5.87,0.81
		c-3.92-2.62-7.7-5.14-11.6-7.74c-2.14,0.47-4.18,0.91-6.39,1.39c-3.83-2.39-7.68-4.79-11.7-7.3c-2.29-0.12-4.67-0.25-6.58-0.35
		c-5.9-2.97-11.39-5.74-16.68-8.41c-2.22,0.72-3.99,1.28-5.75,1.85c-2.48-0.8-4.91-1.59-7.35-2.38c-0.23,0.35-0.45,0.69-0.68,1.04
		c0.73,0.8,1.31,1.84,2.2,2.37c3.86,2.32,7.8,4.49,11.85,6.8c-0.47,3.58-0.84,6.46-1.28,9.85c1.22,1.58,2.66,3.46,4.24,5.51
		c0.13,1.96,0.28,4.07,0.37,5.43c2.34,3.44,4.27,6.27,6.53,9.59c2.05,1.54,4.6,3.45,7,5.25c0.39,2.23,0.7,4.05,1.09,6.27
		c2.77,1.29,5.65,2.62,8.94,4.16c0.8,1.57,1.76,3.45,2.53,4.97c10.46,8.97,23.55,10.29,36.3,14.21c0.75,1.5,1.68,3.36,2.7,5.42
		c10.37,5.81,21.67,8.59,34.26,8.02c1.47,1.86,2.95,3.73,4.48,5.67c7.22-0.28,15.31-5.94,20.1,3.67c8.33,2.42,16.99-1.11,25,2.68
		c1.12,1.64,2.3,3.37,3.52,5.15c6.77,0.81,13.37,1.61,19.48,2.34c1.94,2.13,3.36,3.68,4.65,5.1c8.05,0.37,15.77,0.72,23.23,1.07
		c1.57,2.09,2.67,3.57,4.04,5.41c2.7,0.74,5.76,1.59,9.32,2.57c0.26,2.31,0.51,4.61,0.81,7.24c0.34,0.31,0.84,0.98,1.51,1.31
		c4.57,2.25,9.26,4.27,13.74,6.69c2.98,1.62,5.66,3.79,8.21,6.17c5.47,2.18,10.86,4.58,16.43,6.48c4.55,1.55,8.23,3.83,9.7,8.12
		c4.93,2.7,9.4,5.12,13.84,7.6c1.4,0.78,3.25,1.41,3.98,2.64c3.06,5.24,8.3,6.37,13.44,7.91c1.77,0.53,3.58,1.32,5.05,2.43
		c5.52,4.17,10.91,8.53,17.25,13.53c0.32,0.86,1.05,2.83,1.82,4.91c5.46,3.8,10.95,7.62,15.82,11.01c1.72,4.25,3.1,7.68,4.68,11.6
		c-0.27,3.46-2.15,6.53-5.07,9.15c-6.89,1.2-12.98-7.01-19.82-1.3c-5.62-1.95-10.92-3.79-16.93-5.87
		c-6.31,1.59-12.42-0.37-17.73-5.44c-3.21,1.09-6.91-2.36-10.01,1.92c0.2,2.45,0.43,5.29,0.67,8.22c-1.31,1.8-2.53,3.48-4.03,5.54
		c5.66,3.71,11.21,7.35,16.72,10.96c0.27,2.14,0.5,3.96,0.77,6.03c5.89,5.15,13.16,7.91,20.86,11.07c0.82,1.07,1.95,2.54,3.38,4.4
		c6.24,2.19,11.74,5.85,16.6,11.3c4.16,4.67,10.32,7.55,16.03,11.53c1.37,6.46,8.11,8.12,12.9,12.31c0.42,1.5,0.92,3.27,1.54,5.51
		c3.21,2.69,6.69,5.63,9.42,7.92c0.27,3.89,0.44,6.26,0.6,8.6c3.08,3.5,6.08,6.91,8.53,9.69c1.12,4.67,2.04,8.48,3.32,13.82
		c-0.5,0.98-1.66,3.25-2.46,4.82c-4.41,1.58-7.89,2.84-11.94,4.29c-1.23-0.19-3.07-0.47-5.28-0.81c-1.52,1.16-3.18,2.43-4.96,3.79
		c-4.26,0.75-8.35-0.1-12.39-1.86c-4.65-2.02-9.23-3.7-14.7-2.97c-3.8,0.51-8.01-0.56-11.56-3.8c-0.17-2.3-0.37-4.89-0.54-7.12
		c-4.62-3.28-8.93-6.34-13.24-9.41c0.14-0.22,0.29-0.43,0.43-0.65c-3.71-1.52-7.43-3.05-11.39-4.68c-3.41-5.18-8.45-7.79-14.55-7.44
		c-6.09-4.24-11.86-8.19-19.25-8.43c-5.77-5.73-13.22-8.15-20.42-11.07c-3.44-1.39-6.72-3.17-10.1-4.71
		c-3.65-1.67-7.32-3.29-11-4.91c-4.89-2.15-9.78-4.28-14.57-6.37c-0.65-2.82-1.18-5.13-1.78-7.72c-6.74-4.59-13.38-9.41-21.77-11.38
		c-6.5-1.52-12.72-4.2-19.17-5.98c-5.11-1.41-10.39-2.24-15.14-3.24c-7.9-3.4-15.51-6.58-23.02-9.96
		c-4.68-2.11-9.21-2.81-13.48,0.51c-7.78-3.44-15.24-6.49-23.57-5.26c-6.87-3.93-13.9-6.72-22.52-5.06
		c1.74,2.36,3.11,4.22,4.59,6.22c-0.79,2.12-1.52,4.08-2.38,6.41c7.89,13.72,21.97,21.19,34.04,31.16c-1.22,2.62-2.2,4.73-3.22,6.93
		c0.35,0.62,0.62,1.44,1.16,1.98c6.63,6.62,13.3,13.19,19.97,19.77c1.87,1.85,3.76,3.67,5.92,5.78c-1.46,2.16-2.6,3.86-4.03,5.97
		c5.34,9.17,13.4,16.21,21.07,23.75c0,2.14,0,4.22,0,6.34c9.71,12.76,22.25,22.41,34.87,32.54c-0.8,2.42-1.54,4.63-2.39,7.19
		c6.34,10.89,17.1,17.8,26.63,25.98c2.5,13.94,12.71,21.73,23.25,29.24c1.08,0.77,2.32,1.33,3.68,2.1
		c3.64,6.81,8.24,12.92,14.89,17.42c3.38,2.29,5.53,5.8,6.25,9.97c0.64,3.68-0.53,6.29-4.28,7.38c-5.22-1.94-10.35-3.85-16.59-6.17
		c-0.86,0-2.98,0-5,0c-6.7-5.48-13.3-10.88-19.47-15.93c-3.02,0-5.13,0-7.38,0c-4.95-4.43-8.64-10.41-15.69-12.77
		c-1.67,0.71-3.61,1.53-5.8,2.46c-0.84-0.57-1.76-1.07-2.55-1.73c-3.9-3.27-7.61-6.78-11.7-9.79c-2.55-1.88-5.64-3.01-8.4-4.43
		c-2.3,0.65-4.32,1.22-6.98,1.97c-5.57-7.38-13.03-12.41-21.98-15.88c-1.52,0.17-3.36,0.37-4.42,0.48
		c-8.8-5.84-17.01-11.3-25.16-16.72c-2.86,1.03-5.06,1.82-7.33,2.63c-11.05-6.11-20.37-15.12-32.67-18.07
		c-1.53,2.23-2.85,4.16-4.28,6.25c-11.99-6.73-22.42-12.59-32.4-18.19c-2.92,0.73-4.98,1.25-7.35,1.84
		c-8.67-3.28-15.37-12.02-24.61-10.74c-11.71-5.81-22.24-11.04-31.88-15.82c-3.63,0.19-6.02,0.32-8.3,0.44
		c-7.76-4-15.38-7.93-23.21-11.97c-2.25,0.2-4.62,0.41-7.64,0.68c-3.59-1.9-7.68-3.89-11.59-6.18c-3.65-2.14-7.26-3.46-11.28-0.97
		c-3.58-1.78-7-3.33-10.27-5.15c-4.01-2.23-8.06-3.6-12.76-4.25c-4.56-0.63-9.68-2.63-12.96-5.72c-4.72-4.44-10.11-6.83-15.85-9.01
		c-3-1.14-6.02-2.22-9.04-3.33c-1.24-1.89-2.39-3.66-3.04-4.65c-4.39-4.09-10.71-3.18-13.73-8.74c0.94-1.59,1.97-3.33,3.04-5.15
		c-1.41-3.83-6.91-4.22-7.77-9.31c1.48-1.34,3.17-2.88,5.07-4.6c-1.49-6.19-6.95-9.82-10.48-15.12c1.13-1.79,2.23-3.54,3.38-5.37
		c-0.8-6.29-2.93-11.97-6.95-17.01c0.44-5.69-1.74-10.3-5.48-14.55c-4.18-4.75-6.77-10.14-5.31-16.95
		c1.13-5.28-0.67-10.16-4.25-14.13c-2.65-2.95-5.7-5.56-8.43-8.18c-2.87,0.92-5.12,1.63-7.74,2.47c-6.43-2.92-12.99-5.9-19.6-8.91
		c-2.17,0.57-4.22,1.1-6.57,1.72c-2.06-0.48-4.4-1.02-7.13-1.65c-1.3,1.1-2.68,2.27-4.24,3.59c-5.63,1.23-9.8-3.46-15.75-4.29
		c-3.88,3.68-8.4,3.35-13.36,0.43c-2.44-1.43-5.6-1.66-8.73-2.51c-1.55,1.45-3.06,2.86-5.08,4.74c-7.6-0.57-14.01-7.45-23.57-5.83
		c0.1-0.07-0.75,0.54-1.67,1.03c-0.69,0.37-1.47,0.59-2.52,0.99c-5.42-1.57-11.04-3.2-16.58-4.81c-2.15,1.27-3.97,2.35-6.1,3.62
		c-4.15-1.11-8.49-2.28-12.67-3.4c-2.23,1.21-4.09,2.21-6.44,3.48c-4.33-1.25-8.89-2.56-13.44-3.87c-2,1.34-3.75,2.5-6.02,4.01
		c-3.88-0.81-8.03-1.67-12.49-2.6c-1.91,1.18-4.14,2.55-6.55,4.04c-7.16-3.19-14.59-3.44-22.46-2.76c-1.58,0.86-3.44,1.87-4.53,2.46
		c-11.72-1.16-22.62-2.24-33.37-3.31c-2.21,1.98-3.95,3.55-5.41,4.86c-8.15-0.96-15.81-1.86-22.95-2.7c-2.7,1.85-4.67,3.2-6.32,4.34
		c-8.98,0-17.53,0-26.53,0c-1.57,1.23-3.43,2.7-5.01,3.95c-11.13,0-21.83,0-33.06,0c-1.26,1.46-2.8,3.23-4.42,5.1
		c-8.44-1.45-16.77-2.88-26.04-4.47c-1.34,2.06-2.64,4.05-3.47,5.33c-15.97-0.68-30.93-1.32-46.2-1.97
		c-1.21,2.56-2.28,4.85-3.5,7.44c-8.76-0.62-17.26-1.6-25.76-1.72c-8.83-0.13-17.68,0.55-26.52,0.91
		c-8.55,0.35-17.1,0.73-25.53,1.09c-1.31,2.42-2.4,4.45-3.38,6.26c-9.17-0.84-17.91-2.27-26.64-2.25
		c-8.8,0.02-17.59,1.48-26.22,2.29c-1.63,2.02-2.94,3.65-4.08,5.05c-13.57,1.45-26.82,2.87-39.97,4.27
		c-1.58,2.48-2.83,4.44-4.01,6.28c-12.96,1.47-25.72,2.91-39.47,4.47c-0.99,1.61-2.26,3.67-2.99,4.86
		c-9.6,0.79-17.85,1.47-26.16,2.15c-0.73,2.27-1.36,4.21-2.19,6.77c-4.73,0.44-9.42,0.88-14.46,1.34c1.38,3.25,2.59,6.11,3.83,9.03
		c-1.35,2.11-2.48,3.87-3.87,6.05c0.66,1.88,1.43,4.09,2.26,6.47c2.91,0.99,5.68,1.93,8.88,3.01c0.83,1.84,1.78,3.97,2.61,5.83
		c6.79,4,15.84,3.57,19.27,11.67c4.9,2.4,9.56,4.47,14.02,6.92c7.76,4.25,7.92,4.8,6.44,13.36c4.13,2.24,8.43,4.38,12.53,6.85
		c4.1,2.47,6.03,6,3.87,11.73c-2.18,1.18-4.93,2.67-8.15,4.42c0.67,2.79,3.84,3.33,5.25,5.35c1.35,1.93,2.45,4.04,3.33,5.51
		c-0.65,4.78-1.19,8.73-1.51,11.1c-2.58,4.7-4.44,8.09-6.76,12.34c-4.72,0.71-10.2,1.53-16.11,2.42c-0.32,2.9-0.63,5.7-0.97,8.71
		c-8.11,5.33-17.72,3.92-26.36,6.36c-8.47,2.4-17.17,3.97-25.98,5.95c-1.04,1.65-2.17,3.44-3.44,5.46c-5.22,0.88-10.48,1.76-16,2.69
		c-1.05,1.53-2.23,3.24-3.6,5.23c-8.48,1.65-16.98,1.31-25.5,0.05c-1.06-0.16-2.14-0.81-3.13-0.67
		c-12.74,1.79-24.52-5.69-37.22-3.43c-2.15-1.46-4.12-2.79-6.57-4.45c-6.11-0.91-12.72-1.9-19.93-2.97
		c-7.74-7.07-18.47-5.71-27.32-7.33c-4.24-2-3-5.65-4.78-8.99c-7.35-2.02-15.29-4.21-23.58-6.48c-0.45-2.3-0.9-4.57-1.41-7.16
		c-6.01-3-14.7,0.76-18.5-7.74c-5.75-0.67-11.28-1.31-17.83-2.07c-1.06-1.28-2.73-3.3-4.52-5.46c-4.29-3.25-9.64-1.96-16.01-2.84
		c-1.05-1.17-2.81-3.15-5.52-6.19c-2.63-0.47-6.55-1.17-11.09-1.97c-3-3.13-6.46-6.72-10.79-11.24c-0.31-0.77-1.09-2.74-1.69-4.24
		c-3.63-3.56-7.81-2.86-12.08-2.99c-5.95-2.92-11.15-8.26-18.83-7.94c-3.46-4.22-6.77-8.76-12.38-7.26
		c-4.26-2.15-7.79-3.93-12.64-6.37c-3.27-4.25-8.36-8.14-15.53-9.25c-3.31-0.51-6.39-2.65-9.53-4.14c-3.13-1.48-6.2-3.07-9.15-4.54
		c-1.88,1.21-3.37,2.18-4.85,3.13c-4.18-2.89-8.1-5.59-11.66-8.05c-2.95,0.62-5.24,1.09-7.67,1.6c-2.22-2.58-4.27-4.95-6.44-7.46
		c-2.81,0.75-5.35,1.44-7.88,2.11c-3.32-1.16-6.59-2.31-8.55-3c-4.43-2.79-7.72-4.86-12.26-7.72c-0.51-0.99-1.72-3.36-3.03-5.93
		c-5.93-2.68-12,2-17.97,0.1c-4.35-1.86-3.21-5.61-2.65-9.2c-2.04-0.78-3.74-1.43-5.92-2.27c-1.61-8.45-11.46-10.38-14.58-17.28
		c-4.49-3.94-9.59-3.02-14.47-3.73c-2.71-1.95-5.51-3.96-8.72-6.28c-0.39-2.03-0.83-4.35-1.34-7.03c-1.52-0.86-3.33-1.89-4.58-2.6
		c-2.48-3.52-0.5-6.16,0.49-9.27c-1.46-1.7-2.98-3.48-4.42-5.17c-2.74-0.2-5.11-0.37-8.03-0.58c-0.48-2.36-0.93-4.62-1.45-7.19
		c-2.17-1.31-5.29-2.28-4.85-6.93c0.48-0.58,1.46-1.78,2.5-3.07c-0.51-1.59-1.05-3.29-1.81-5.68c2.41-1.66,4.75-3.28,7.6-5.26
		c0.48-1.4,1.17-3.38,1.93-5.6c2.59-0.75,5.11-1.48,7.98-2.3c0.84-1.98,1.76-4.16,2.99-7.05c6.61-0.88,13.4-1.78,20.32-2.7
		c2.45-4.8,5.8-8.04,11.68-8.2c1.53,0.79,3.4,1.76,5.39,2.78c5.44-0.79,11.11,0.54,16.43-2.57c1.52-0.89,4.78,0.06,6.68,1.16
		c6.18,3.57,12.54,4.03,19.65,2.55c0.47-2.14,0.92-4.15,1.38-6.26c3.56-3.65,8.32-4.76,13.04-5.57c5.54-0.95,11.24-1,16.75-2.1
		c12.43-2.48,25.08-2.01,37.59-3.3c11.28-1.16,21.7-5.23,33.34-10.31c7.15-1.48,15.83-3.15,24.44-5.1
		c3.64-0.83,7.32-1.87,10.66-3.47c8.81-4.22,18.25-6.12,27.66-8.2c1.56-0.34,3.26-0.77,4.78-0.49c13.74,2.45,27.2-0.18,40.76-1.86
		c15.16-1.88,30.38-3.24,45.55-5.04c13.3-1.57,26.56-3.48,39.85-5.13c5.57-0.69,11.19-0.35,16.77-0.41
		c11.71-0.12,23.62,1.06,35.16-2.51c2.49-0.77,5.32-0.37,7.97-0.69c8.48-1.02,16.95-2.12,25.62-3.22c2.13-1.27,4.41-2.64,6.37-3.8
		c0.93-0.16,1.47-0.39,1.98-0.32c20.05,2.68,40.02-1.12,60.36-0.68c4.16-3.6,9.38-2.46,14.4-2.48c4.29-0.02,8.7,0.59,11.77-3.06
		c3.02,0.17,5.68,0.33,8.6,0.5c1.65-1.16,3.37-2.38,5.57-3.92c1.86-0.14,4.24-0.33,6.96-0.54c1.17-1.97,2.38-4,3.67-6.16
		c2.99-1.41,6.26-2.25,8.36-5.59c1.22-1.93,4.33-2.66,7.07-4.2c-1.14-2.78-4.78-2.71-7.07-5.49c-0.1-1.07-0.26-2.86-0.43-4.76
		c-2.57-4.45-9.35-2.5-11.99-7.89c0.78-1.86,1.69-4.01,2.72-6.45c-3.58-4.23-11.18-2.65-13.64-9.23c0.82-1.9,1.74-4.01,2.94-6.78
		c-8.85-3.25-17.31-6.36-25.85-9.5c-0.73-2.19-1.39-4.17-2.22-6.66c-7.35-2.39-14.92-4.84-22.47-7.29c-0.4-2.43-0.7-4.23-1.13-6.8
		c-11.55-3.68-23.47-7.47-34.61-11.01c-2.83-4.15,0.17-6.24,1.44-9.03c-2.73-3.14-6.65-4.25-10.37-5.45
		c-9.94-3.22-19.97-6.16-29.95-9.26c-2.48-0.77-4.9-1.77-7.76-2.81c0.54-3.13,0.98-5.64,1.45-8.4c-4.72-3.14-10.46-3.65-15.74-5.4
		c-5-1.66-10.63-1.5-15.4-5.38c0.29-2.2,0.59-4.47,0.94-7.05c-10.05-4.62-21.36-4.36-32.23-7.59c-1.18-1.8-2.47-3.78-3.85-5.89
		c-0.58-0.28-1.27-0.81-2.03-0.93c-11.64-1.86-23.3-3.62-34.94-5.5c-2.33-0.38-4.6-1.11-7.04-1.71c-0.49-2.44-0.89-4.46-1.33-6.69
		c-10.04-2.16-20.44-0.79-30.23-3.75c-1.04-2.26-1.91-4.16-3.13-6.82c-8.44-0.77-17.14-1.56-25.98-2.36
		c-0.64-2.36-1.18-4.36-1.73-6.43c-0.8-0.34-1.5-0.85-2.23-0.9c-2.67-0.18-5.35-0.19-8.03-0.28c-2.93-0.1-5.23-1.08-6.04-4.9
		c0.81-1.11,1.85-2.53,3.01-4.12c11.37,1.5,22.48,2.97,33.79,4.47c1.22,2.52,2.35,4.84,3.73,7.67c8.29,1.31,16.73,2.64,26.41,4.17
		c0.79,1.02,2.26,2.93,3.66,4.73c5.6,1.02,10.83,2.09,16.11,2.9c5.25,0.81,10.54,1.35,16,2.04c0.98,2.33,1.89,4.51,3.04,7.27
		c11.46,3.24,23.46,5.62,35.91,6.66c1.03,2.28,1.99,4.41,2.92,6.48c10.92,3.52,21.56,6.95,31.98,10.31c0.64,2.82,1.1,4.85,1.57,6.91
		c9.86,3.95,19.52,7.82,29.19,11.7c0.36,2.86,0.66,5.18,0.96,7.59c13.54,4.79,27.31,8.52,39.22,16.68c0.43,2.59,0.82,4.91,1.3,7.76
		c12.8,4.65,25.61,9.31,39.13,14.22c0.52,1.24,1.33,3.16,2.48,5.87c7.17,2.2,14.81,4.54,22.87,7.01c0.45,2.08,0.94,4.35,1.49,6.95
		c8.51,4.49,18.13,7.36,26.14,13.35c0,2.63,0,4.97,0,7.69c2.57,1.4,5.35,2.91,8.73,4.75c-0.31,2.53-0.62,5.08-0.87,7.1
		c1.69,3.63,3.23,6.92,4.76,10.21c2.76,4.51,10.19,4.97,10.42,11.54c-2.32,4.04-4.38,7.64-6.83,11.91c-1.06,0.34-2.81,0.9-5.02,1.61
		c-0.91,1.7-2.01,3.78-3.27,6.16c-4.29,0-8.5,0-13.84,0c-0.74,1.22-1.85,3.08-2.64,4.37c-5.06,0-9.06,0-13.18,0
		c-1.78,1.12-3.56,2.24-5.46,3.43c-4.82-0.27-9.63-0.54-14.8-0.84c-1.76,1.13-3.75,2.42-4.99,3.22
		c-11.78-0.38-22.75-0.73-33.49-1.07c-2.2,1.14-4.08,2.12-6.05,3.14c-6.9-0.87-13.79-1.74-20.95-2.65c-1.41,2.03-2.73,3.92-4.18,6
		c-4.42-0.3-8.67-0.6-13.2-0.91c-1.26,1.05-2.67,2.24-4.29,3.59c-9.42,0.73-19.5-4.35-28.58,2.12c-9.01,0.48-18.37-2.82-26.75,3.3
		c-5.43-0.79-10.96-1.56-16.48-2.4c-4.37-0.67-8.55-0.45-12.35,2.14c-3.32,2.27-7.06,2.07-10.85,1.94
		c-5.61-0.19-11.24-0.33-16.84-0.11c-2.61,0.1-5.36,0.72-7.74,1.77c-4.09,1.81-8.16,2.02-12.54,1.7c-12.4-0.9-24.59,0.54-36.52,4.07
		c-1.52,0.45-3.12,0.72-4.71,0.85c-17.33,1.5-34.67,2.92-51.99,4.49c-2.91,0.26-5.76,1.17-8.64,1.78c-1.62,1.54-3.16,3-4.92,4.67
		c-2.44,0.44-5.06,0.96-7.69,1.39c-7.61,1.25-15.41,1.48-22.18,6.21c-2.23,1.56-5.65,1.42-8.54,2.02
		c-7.57,1.58-15.13,2.64-22.09,6.81c-4.48,2.68-10.17,2.71-15.65,2.22c-6.37-0.57-12.84-1.09-19.19-0.6
		c-9.06,0.7-18.05,2.34-27.37,3.62c-0.81,1.43-1.71,3.01-2.72,4.8c-11.84,5.58-23.97,8.71-37.29,5.53
		c-4.33-1.04-9.02-0.83-13.54-0.73c-10.53,0.23-20.6,2.92-30.52,6.25c-4.13,1.39-7.9,3.32-10.62,6.92
		c-1.29,1.71-2.74,3.29-3.25,3.89c-1.48,4.41-2.56,7.61-4.06,12.08c0.24,1.73,0.67,4.87,1.12,8.13c1.91,0.98,3.77,1.92,5.64,2.88
		c0.53,3.88,1.03,7.51,1.5,10.88c3.2,1.61,5.81,2.93,7.5,3.77c3.61,5.18,6.64,9.53,9.54,13.7c2.54,1.09,4.86,1.84,6.91,3.06
		c1.79,1.06,3.82,2.34,4.79,4.06c4.56,8.08,11.56,12.88,19.91,16.37c4.63,1.94,8.9,4.74,13.18,7.47c5.11,2.13,10.98,2.22,15.48,5.61
		c1.85,3.49,3.57,6.74,5.44,10.27c2.74-0.61,5.01-1.11,7.66-1.69c7.67,2.91,15.63,5.93,23.59,8.95c0.04-0.12,0.07-0.24,0.11-0.36
		c4.26,1.32,8.63,2.35,12.73,4.04c4.7,1.92,9.25,3.82,14.31,4.97c4.73,1.07,9.28,4.15,13.22,7.22c4.72,3.68,9.71,6.43,15.24,8.67
		c5.68,2.3,10.89,5.75,16.51,8.23c10.04,4.44,20.24,8.52,30.35,12.79c2.7,1.14,5.32,2.45,7.79,3.6c1.07,1.97,1.73,3.82,2.92,5.21
		c1.89,2.2,3.8,4.8,6.29,5.97c6.75,3.18,13.82,5.67,20.75,8.48c4.93,2,9.82,4.08,14.56,6.56c13.62,1.31,25.42,8.18,37.86,13
		c3.21,1.24,5.6,4.61,7.77,7.96c5.35,1.69,10.65,3.56,16.06,5.03c5.08,1.38,9.68,3.25,12.38,8.77c6.7,1.3,13.51,2.61,21.14,4.09
		c4.82,5.55,12.39,6.27,19.81,7.13c3.46,0.41,6.84,0.41,10.04,2.32c1.73,1.03,4.09,1.11,6.2,1.38c6.35,0.82,12.72,1.12,19.02,2.8
		c4.29,1.14,9.02,0.65,12.08,0.81c11.11-2.23,20.82-4.18,30.98-6.23c5.49-5.05,12.41-7.14,20.23-7.58
		c6.92-0.39,13.77-1.61,20.2-4.75c3.05-1.49,6.61-1.92,10.27-2.93c0.31-2.38,0.61-4.7,0.98-7.57c2.09-1.26,4.24-2.86,6.62-3.91
		c2.42-1.06,5.09-1.58,7.66-2.34c1.13-2.3,2.18-4.45,3.54-7.22c0-1.76,0-4.14,0-7.12c2.24-1.25,4.51-2.52,7.33-4.1
		c-2.87-1.78-5.66-3.51-8.48-5.25c0-2.56,0-4.9,0-7.63c3.42-2.15,6.7-4.23,10.65-6.72c-7.61-5.33-16.92-5.62-23.74-11.87
		c0.34-3.08,0.69-6.19,1.07-9.59c-6.59-4.15-14.51-4.92-22.11-7.73c-0.81-2-1.68-4.17-2.71-6.71c-5.88-1.42-11.79-2.86-17.8-4.31
		c-0.46-2.04-0.85-3.82-1.41-6.28c-4-0.62-8.15-1.27-12.26-1.91c-2.14-3.27-4.27-6.53-6.76-10.34c0-5.54,0.71-6.5,6.09-7.19
		c2.52-0.32,5.05-0.51,9.01-0.89c-4.11-3.59-10.41-0.92-11.2-7.77c0.8-1.34,1.98-3.33,3.11-5.23c3.79-0.94,7.15-1.78,10.88-2.7
		c1.62-1.31,3.48-2.81,5.42-4.38c4.43-0.98,8.88-1.96,13.33-2.95c6.76-1.5,13.52-2.7,20.17-5.04c6.43-2.26,13.7-2.15,20.61-3.07
		c5.55-0.74,11.11-1.47,17.39-2.31c1.02-1.52,2.21-3.31,3.05-4.57c11.51-1.7,22.1-3.3,32.7-4.81c4.56-0.65,8.93-1.7,12.14-5.17
		c19.12-2.43,37.91-5.78,57.27-4.58c4.54-3.1,9.83-3.55,15.23-3.73c21.41-0.74,42.82-1.55,65.18-2.36c1-1.46,2.37-3.45,3.37-4.92
		c17.34,0,33.65,0,49.79,0c2.52-1.43,4.83-2.75,7.21-4.11c7.74,0.71,15.45,1.42,23.35,2.15c1.8-1.98,3.56-3.93,5.26-5.8
		c7.44,0,14.66,0,21.88,0c1.87,0,3.99,0.54,5.57-0.15c7.91-3.48,16.21-2.96,24.49-2.87c2.41,0.03,4.82,0,7.64,0
		c5.52-4.4,12.3-3.72,18.99-3.3c6.65,0.42,13.1,0.98,19.85-0.99c4.93-1.44,10.63-0.37,15.98-0.23c4.55,0.12,9.1,0.74,13.65,0.74
		c2.87,0,5.73-0.86,8.61-1.1c3.19-0.27,6.4-0.48,9.59-0.36c5.35,0.2,10.67,0.98,15.83-1.41c1.36-0.63,3.17-0.28,4.77-0.44
		c3.92-0.39,7.84-0.8,11.75-2.12c5.04,0.7,10.07,1.4,15.94,2.21c4.02-2,8.91-1.88,14.04-0.71c3.86,0.88,7.79,0.56,11.88-0.15
		c4.3-0.75,9,0.3,13.44,1.09c3.16,0.56,6.13,1.74,9.45,0.74c1.19-0.36,2.65,0,3.96,0.23c9.2,1.6,18.41,2.75,27.79,2.14
		c4.71-0.31,9.45-0.33,14.25-1.57c5.05,1.7,10.09,3.4,15.27,5.15c2.05-1.37,3.99-2.67,6-4.01c2.72,0.83,5.26,1.6,8.12,2.47
		c2.04-0.79,4.24-1.64,6.84-2.64c4.97,2.27,10.06,4.6,15.49,7.08c4.12-3.24,8.37-2.12,12.67,0.02c3.99,1.98,8.08,3.78,12.85,5.99
		c0-5.79,0-10.54,0-16.43c-0.96-2.13-2.39-5.29-3.97-8.79c0.67-2.04,1.39-4.27,2.04-6.27c-2.6-5.16-10.13-4.99-11.17-11.65
		c1.02-1.32,2.11-2.74,3.6-4.69c-5.17-4.58-10.33-9.15-15.69-13.9c-0.08-1.21-0.16-2.51-0.25-4.02c1.4-1.24,2.76-2.45,4.21-3.75
		c-0.23-0.73-0.33-1.53-0.7-2.19c-6.68-12-14.55-23.12-24.32-32.84c-2.43-2.42-5.21-4.84-4.11-9.53c1.62-0.98,3.59-2.16,5.66-3.4
		c-0.15-0.8-0.06-1.73-0.47-2.27c-5.18-6.82-10.43-13.59-15.68-20.35c-0.98-1.26-2.09-2.42-2.57-2.97
		c-2.18-4.49,0.72-6.63,2.72-8.91c-6.44-12.67-16.61-21.78-26.8-31.08c2.05-2.79,3.42-4.66,4.78-6.53
		c0.61-3.58-6.62-13.2-14.34-18.86c-0.32,2.92-0.61,5.66-0.93,8.54c-3.28,1.02-6.3,1.95-8.57,2.66c-10-2.51-19.27-4.83-28.59-7.17
		c-1.94,1.57-3.79,3.06-5.98,4.83c-3.58-0.51-7.26-1.03-10.23-1.46c-5.45,1.25-10.25,2.35-15.38,3.53c0.34,2.52,0.62,4.58,0.94,6.92
		c-1.1,1.88-2.31,3.94-3.53,6.01c-0.39,2.92-0.78,5.83-1.19,8.91c3.33,5.11,8.57,7.86,13.42,11.14
		c10.42,7.05,21.02,13.89,30.97,21.56c4.99,3.85,8.9,9.19,12.94,14.15c3.36,4.13,6.18,8.69,8.69,12.29
		c0.74,5.8-0.18,10.12-3.34,13.39c0.09,8.26-0.94,10.34-8.77,17.92c-1.76-0.18-3.85-0.38-4.49-0.45c-5.47,0.95-9.58,1.66-13.69,2.37
		c-0.05-0.21-0.11-0.43-0.16-0.64c-1.85,1.04-3.7,2.08-5.47,3.08c-0.95-0.13-1.79-0.11-2.53-0.36
		c-12.81-4.41-24.33-11.23-34.59-19.93c-3.53-2.99-5.64-7.65-9.66-13.34c-6.49-5.76-16.59-9.53-26.28-14.08
		c-7.02-3.29-13.93-6.84-20.71-10.61c-12.37-6.89-24.32-14.51-38.2-18.4c-5.6-1.57-10.75-4.7-16.13-7.05
		c-5.4-2.36-10.74-4.91-16.29-6.87c-14.38-5.08-28.86-9.87-43.3-14.78c-2.03-0.69-4.07-1.37-6.07-2.15
		c-11.73-4.54-23.45-9.13-35.19-13.67c-10.7-4.15-21.47-8.11-32.07-12.49c-3.02-1.25-5.53-3.7-8.03-6.07
		c-14.32-4.64-29.57-7.31-41.08-18.32c-8-2.9-16.03-5.81-23.71-8.6c-0.98-2.44-1.67-4.14-2.17-5.38
		c-9.5-4.12-18.57-8.05-27.51-11.92c-0.71-2.59-1.26-4.61-1.85-6.77c-9.95-4.08-21.77-4.19-29.04-13.35
		c-8.39-2.68-16.54-5.29-24.49-7.83c-1.72-2.21-3.18-4.1-4.72-6.07c-0.63-0.29-1.33-0.71-2.09-0.95c-6.65-2.07-13.4-3.86-19.92-6.27
		c-3.41-1.26-6.41-3.6-9.38-5.85c-7.13-2.32-14.26-4.64-21.44-6.97c-1.06-2.04-2.03-3.91-3.16-6.07c-3.94-1.6-8.41-3.03-9.78-8.87
		c-7.02,2.51-13.49,4.83-20.1,7.19c-1.16,2.14-2.3,4.23-3.65,6.7c-3.67,1.63-7.57,3.36-11.93,5.3c-1.22,5.41-5.64,8.3-10.46,10.91
		c-2.33,1.26-4.39,3-7.31,5.03c-9.44-0.66-19.64-0.92-29.7-2.21c-8.98-1.14-17.88-3.17-26.7-5.3c-3.75-0.91-7.19-3.08-10.46-5.53
		c-6.28-1.31-12.56-2.61-18.61-3.87c-1.82-1.73-3.36-3.19-5.02-4.76c-10.29-2.45-21.46-2.21-28.69-7.94
		c-10.98-1.81-19.96-3.26-28.92-4.8c-1.57-0.27-3.35-0.53-4.56-1.43c-5.2-3.84-11.08-3.27-16.99-3.25
		c-9.91,0.03-19.84,0.04-29.73-0.45c-4.48-0.23-8.88-1.79-13.35-2.56c-2.62-0.45-5.3-0.8-7.95-0.74
		c-6.97,0.18-13.93,0.88-20.89,0.86c-4.77-0.01-9.52-1.01-14.3-1.33c-2.36-0.16-4.77,0.11-7.13,0.41
		c-8.51,1.06-17.03,3.27-25.5,3.04c-8.72-0.23-17.01,1.21-25.4,2.68c-7.37,1.3-14.69,2.9-21.11,4.18
		c-10.96-3.72-21.22-2.29-31.35-2.1c-7.53,0.14-14.43-0.67-20.28-7.01c-8.4-0.47-17.19-0.97-25.6-1.44
		c-4.13-2.77-3.89-6.51-3.21-10.68c-2.92-3.15-7.03-5.74-7.63-11.32c1.12-1.57,2.49-3.49,3.98-5.58c-0.33-2.08-0.7-4.37-1.19-7.39
		c3.11-1.21,6.03-2.35,9.49-3.7c0.87-1.33,2.02-3.08,3.7-5.64c4.81-0.98,10.29-2.1,15.77-3.21c-0.08-0.19-0.16-0.38-0.24-0.57
		c6.94-2.62,13.88-5.25,21.05-7.96c0.51-2.45,1.09-5.22,1.53-7.35c6.38-5.66,15.55-3.79,20.32-10.66
		c9.05-0.39,15.76-4.82,20.99-11.79c3.03-0.48,5.93-0.93,9.67-1.52c0.68-0.98,1.75-2.52,2.85-4.1c8.45,0,16.47,0,24.3,0
		c2.01-1.57,3.66-2.87,5.4-4.22c0.71-0.12,1.53-0.45,2.29-0.35c7.96,1.02,16.01,1.61,23.83,3.3c14.47,3.12,28.97,5.7,43.81,4.37
		c11.48-1.03,22.65-3.81,33.96-7.34c3.77-7.83,11.81-7.86,18.79-9.33c0-3.5-0.67-6.81,0.19-9.67c0.87-2.92,3.23-5.4,5-8.18
		c-0.69-2.92-1.41-6.01-1.87-7.95c-2.94-5.1-5.31-9.22-7.93-13.76c-0.16-1.93-0.36-4.3-0.56-6.74c-2.42-0.93-4.66-1.78-6.93-2.65
		c-1.21-1.85-2.37-3.62-3.25-4.98c-9.13-5.39-19.1-7.45-28.36-10.77c-1.11-5.52-2.17-10.2,1.77-15.59
		c5.65-1.84,12.12-4.4,18.82-6.01c6.73-1.61,13.61-2.09,20.2-4.86c4.27-1.79,9.47-1.36,14.24-1.96c1.85-0.23,3.99-0.04,5.48-0.92
		c6.05-3.57,12.72-3.93,19.41-4.39c4.34-0.3,8.6-0.86,11.62-4.34c5.9-0.42,11.49-0.82,17.04-1.21c1.73-1.55,3.31-2.97,5.34-4.79
		c9.11-0.99,18.69-2.04,29.32-3.2c2.77-2.79,7.06-4.39,12.14-4.66c2.78-0.15,5.49-1.79,9.41-3.17c1.95,0.17,5.13,0.45,7.65,0.67
		c2.21,2.9,3.97,5.22,5.45,7.16c9.51-2.26,15.5,2.08,21.48,5.99c7.85,1.01,15.5,2.61,23.72,0.21c1.41-1.29,3.17-2.91,5.55-5.11
		c6.1,0.26,12.92-0.3,19.33,1.07c6.69,1.43,13.09,4.56,16.17,11.17c-1.63,6.53-1.63,6.53-8.08,11.93c-2.19,6.86-2.19,6.86-7.6,11.44
		c0,3.26,0,6.93,0,10.19c-4.18,4.43-9.28,5.23-14.03,6.25c-5.08,3.88-9.97,7.63-15.03,11.5c-0.49,2.54-1,5.13-1.59,8.2
		c-2.2,1.54-4.59,3.21-7.23,5.05c-0.78,1.98-1.65,4.21-2.47,6.28c0.46,3.82,0.9,7.47,1.42,11.72c3.86,2.69,7.68,6.08,4.84,12.88
		c3.15,1.18,6.07,2.28,9,3.38c0.25-0.27,0.5-0.54,0.75-0.81c1.47,1.9,2.94,3.81,4.33,5.61c1.47,0.47,2.76,0.84,4.02,1.28
		c5.3,1.86,10.82,3.26,15.8,5.76c3.7,1.86,7.4,3.22,11.4,3.48c9.33,0.62,18.49,2.64,27.99,2.24c5.42-0.23,11.01,1.81,16.41,3.26
		c3.85,1.04,7.51,2.8,10.97,4.13c6.87-1.51,13.33-3.65,19.92-4.17c6.32-0.5,12.78,0.66,19.95,1.15c6.93-4.69,15.03-8.74,23.88-11.13
		c1.55-0.42,3.11-1,4.68-1.08c13.6-0.73,27.05-2.95,41.4-4.14c5.82-4.4,13.25-6.23,21.2-6.4c1.58-0.04,3.43-0.04,4.69-0.81
		c6.16-3.75,12.9-2.98,19.57-2.99c3.74-0.01,7.48-0.22,11.2-0.04c12.11,0.58,22.97,4.56,31.91,11.58c2.35,4.48-0.36,7.44-1.44,11.4
		c6.42,4.39,12.97,8.87,19.29,13.2c0.28,3.05,0.49,5.4,0.69,7.59c8.87,6.34,17.8,12.13,27.68,15.98c1.07,2.21,2,4.11,2.9,5.96
		c8.26,5.71,16.4,11.35,24.57,16.99c0.6,2.21,1.16,4.25,1.89,6.95c7.31,4.59,15.02,9.42,23.21,14.57c1.78,4.26,6.01,6.62,10.16,9.11
		c5.29,3.17,11.17,5.7,15.62,9.78c4.33,3.96,8.45,8.1,13.27,11.49c2.63,1.85,5.2,3.78,7.41,6.08c3.06,2.83,6.13,5.66,9.89,9.13
		c1.1,2.91-0.89,5.13-4.39,7.33c-3.24-0.17-6.96-0.37-11.54-0.62c-7.37,3.82-16.11,4.67-25.05,4.52c-1.84-0.03-3.71,0.39-5.52,0.81
		c-5.69,1.35-11.18,1.03-16.45-1.63c-4.29-2.17-8.5-4.39-13.37-5.19c-2.35-0.39-4.47-1.89-4.93-5.47c1.38-0.92,3.04-2.02,3.54-2.36
		c15.52,2.65,29.67,5.13,43.86,7.45c2.28,0.37,4.67,0.05,6.75,0.05c0-5.45,0-10.14,0-15.52c-2.83-3.71-7.79-5.3-11.88-7.45
		c-7.61-10.19-18.33-15.03-29.58-19.68c-0.44-1.6-0.92-3.37-1.48-5.43c-9.09-7.64-20.17-12.37-31.45-17.45
		c0.97-2.8,1.72-4.96,2.63-7.57c-6.34-4.45-12.43-8.76-18.55-13.03c-3.3-2.29-6.44-4.95-10.03-6.65c-5.03-2.38-10.4-4.03-16.61-6.36
		c-0.41-0.93-1.24-2.82-1.84-4.2c-3.25-5.4-11.64-2.96-13.4-10.44c1.34-1.68,2.8-3.49,4.38-5.46c-0.33-0.53-0.58-1.47-1.17-1.79
		c-5.62-3.13-11.29-6.16-16.94-9.22c-1.38-0.75-2.76-1.5-3.95-2.15c-1.92-5.16,1.83-6.88,4.96-8.95c-3.25-4.39-5.79,0.5-9.86,0.05
		c-4.66-1.2-10.58-2.72-16.31-4.19c-2.04,2.44-3.7,4.42-5.78,6.92c-8.24-2.08-16.48-4.97-25.15-2.68c-0.94,2.31-1.83,4.46-2.68,6.54
		c-6.65,3.16-12.87-1.85-20.93,0.3c-0.23,0.33-1.45,2.08-2.8,4.03c-10.76,0.14-21.31-4.59-32.36-0.61c-1.34,1.45-2.96,3.2-4.41,4.76
		c-4.78,0.59-9.24,1.15-12.98,1.61c-2.44,2.71-4.22,4.69-6.19,6.88c-1.86-0.22-3.69-0.35-5.49-0.67c-4.22-0.75-8.39-1.88-12.64-2.34
		c-8.61-0.93-16.48,1.28-23.53,6.88c-7.7-3.91-15.12-8.3-24.25-9.23c-1.75,1.01-3.79,2.2-5.91,3.42c-2.43-0.68-4.95-0.93-7-2.05
		c-5.35-2.91-11.17-3.54-17.01-4.45c-6.43-1-12.72-1.01-19.13,0.51c-5.72,1.36-11.59,1.56-16.94-0.45
		c-2.54-4.13,0.15-6.82,2.75-10.35c-8.28-1.45-15.57-2.72-23.05-4.03c-0.86-1.98-1.69-3.89-2.47-5.7c-2.95-1.04-5.68-2-7.88-2.78
		c-2.97-4.03,0.09-6.99,0.87-10.38c-3.38-0.63-6.42-1.2-9.09-1.7c-2.41-5.06-0.19-7.81,3.18-9.97c0.4-2.75,0.78-5.35,1.18-8.14
		c2.33-1.02,4.48-1.96,6.98-3.06c0.37-1.86,0.77-3.91,1.35-6.87c2.96-1.21,6.31-2.57,10.1-4.12c0.38-3.45-3.07-7.66,2.17-11.65
		c7.36-1.55,14.61-5.87,19.64-12.53c3.48-0.83,6.27-1.5,9.07-2.17c-0.82-4.56-5.35-4.72-7.74-7.99c-0.75-2.67-1.21-5.71,2.38-8.1
		c3.23,0.52,6.59,1.05,9.7,1.55c4.14-3.74,3.67-10.48,9.68-12.23c-4.54,0.48-9.35,0.21-13.56,1.65c-5.05,1.73-9.39,0.83-13.98-0.83
		c-1.24-0.45-2.59-0.59-4.2-0.94c-1.39,1.59-2.75,3.15-4.03,4.61c-5.88,1.83-9.41-3.8-15.16-4.06c-1.89,0.62-4.41,1.44-7.24,2.37
		c-4.23-5.06-7.65-11.86-15.64-8.23c-4.97-2.84-9.36-5.35-14-8c-1.88,1.52-3.48,2.83-4.85,3.94c-9.58,0.42-18.92,0.83-28.3,1.24
		c-1.34,2.07-2.47,3.81-3.94,6.07c-7.68,0.59-15.65,1.2-23.62,1.81c-8.79,5.93-19.25,3.26-30.04,6.15
		c-0.84,0.52-2.88,1.78-4.77,2.95c-8.95,1.87-18.53-0.05-26.32,5.52c-6.3,0.69-12.43,1.35-18.58,2.02c-2.65,2.35-5.2,4.61-7.71,6.83
		c0.28,5.41,4.86,3.1,7.87,4.77c1.12,1.35,2.64,3.18,4.76,5.74c5.19,0.61,11,1.29,17.31,2.02c1.36,1.76,2.96,3.85,4.66,6.06
		c2.53,0.56,5.12,1.14,7.52,1.67c2.49,2.29,2.67,4.74,1.37,7.87c-1.67,0.76-3.55,1.61-5.84,2.65c0.59,2.16,1.21,4.39,1.86,6.75
		c2.34,1,4.51,1.93,6.72,2.87c3.43,3.46,2.56,7.22,0.52,11.04c1.33,3.45,3.82,6.82,0.76,10.5c-3.66,2.78-9.28-0.86-12.48,3.61
		c1.34,3.55,5.1,2.9,8.03,5.4c0.33,1.44,0.83,3.67,1.29,5.68c-1.05,0.99-1.56,1.89-2.21,2.01c-2.34,0.44-4.74,0.57-7.1,0.89
		c-4.45,0.61-8.89,1.28-13.43,1.94c0,2.9,0,5,0,7.45c-1.35,0.77-2.62,1.98-4.04,2.21c-4.49,0.71-9.09,0.77-13.55,1.59
		c-6.05,1.12-12.13,2.38-16.82,6.33c-5.15,0-9.98-0.03-14.8,0.02c-1.87,0.02-3.99-0.3-5.57,0.44c-6.18,2.9-11.96,1.98-17.51-1.15
		c-3.68,0.23-7.14,0.5-10.61,0.66c-1.6,0.07-3.48,0.46-4.78-0.19c-8.58-4.25-17.87-2.77-26.85-3.59c-3.97-0.36-8.01-0.06-12.39-0.06
		c-1.11,1.37-2.42,2.98-3.95,4.88c-3.99,0-7.97,0-12.06,0c-1.54,1.79-2.89,3.37-4.4,5.13c-1.66,0.2-3.5,0.43-5.74,0.7
		c-1.32,1.62-2.8,3.45-4.28,5.28c-4.17,0.21-8.16,0.41-12.65,0.63c-1.08,1.3-2.27,2.73-3.54,4.25c-2.83,0.47-5.68,0.94-8.69,1.43
		c-0.53,3.52,2.88,7.02-1.5,10.98c-6.09,1.1-13.39,2.41-20.79,3.74c-1.31,2.13-2.55,4.14-3.98,6.45c-4.5,0.46-8.99,0.91-13.64,1.39
		c-1.29,2.08-2.54,4.09-3.94,6.34c-2.39,0.54-4.93,1.12-7.66,1.75c0,2.37,0,4.44,0,6.81c-2.65,1.4-5.19,2.75-8.22,4.35
		c3.79,3.38,7.33,6.52,11.21,9.98c5.21,0.46,10.78,0.94,17.26,1.51c1.29,1.86,2.83,4.07,3.73,5.36c15.28,4.81,29.45,1.46,43.55,1.32
		c14.06-0.14,27.57-3.43,41.75-7.16c7.4,3.1,15.69,1.4,23.88,0.41c4.76-0.58,9.37-2.25,14.12-3c6.34-0.99,12.74-1.57,19.34-2.35
		c1.65,1.32,3.29,2.63,5.22,4.16c8.81,0,17.9,0,27.58,0c4.02,3.75,9.41,4.48,15.17,4.64c13.66,0.38,27.3,1.12,40.93,1.72
		c2.28,1.59,4.46,3.11,7.37,5.14c10.46,0.89,21.62,1.84,33.03,2.81c1.3,1.52,2.67,3.11,4.19,4.9c9.34,1.86,18.77,3.75,28.94,5.78
		c1.03,1.27,2.53,3.1,4.16,5.1c5.52,0.95,11.06,1.91,18.32,3.16c0.46,0.72,1.75,2.76,3.03,4.79c6.71,0.24,12.91-0.11,18.9,0.84
		c5.68,0.9,11.14,3.18,16.51,4.79c2.32-1.44,4.11-2.56,6.02-3.75c3.95-0.69,8.44,1.97,12.67-1.69c-1.53-1.44-2.96-2.79-4.08-3.84
		c-1.03-3.33,0.47-5.05,3-6.65c5.33-0.93,11.61,2.06,17.26-3.06c0.45-1.25,1.16-3.23,2.14-5.96c9.55-3.95,20.72-4.71,30.86-9.73
		c-1.88-2.1-3.41-3.81-5.21-5.82c0.99-1.69,1.87-3.2,2.71-4.63c5.97-0.35,11.72,0.43,17.14-2.66c0.07-2.77-2.52-6.32,2.24-8.61
		c7.02,0.71,14.62,3.3,22.72,0.48c0.01-3.58-1.13-7.68,3.81-10c7.68,2.81,16.11,3.54,25.07,2.34c2.03-1.69,4.26-3.54,6.42-5.34
		c13.03,1.79,25.8,2.64,38.48-0.94c7.28,3.52,13.89,8.33,22.25,9.98c1.74-0.83,3.64-1.74,5.38-2.57c3.41-0.07,4.43,0.91,7.63,7.19
		c4.87,3.11,9.89,5.47,15.57,2.66c4.31,3.45,7.12,8.23,13.76,8.73c1.3-0.41,3.54-1.13,5.5-1.75c3.8,2.24,7.01,5.07,10.71,6.05
		c3.65,0.96,7.79,0.06,11.78-0.9c1.74,0.61,3.49,1.22,5.45,1.91c0.81,1.95,1.6,3.89,2.4,5.8c4.3,3.03,8.73,1.93,13.4,0.21
		c7.87,8.87,19.05,9.11,29.29,11.82c2.33,0.61,4.73,0.94,7.44,1.46c2-0.48,4.31-1.03,6.79-1.62c4.36,4.07,7.7,9.23,13.63,11.06
		c5.37,1.66,10.74,3.34,16.13,5.02c1.85-0.45,3.64-0.89,5.67-1.38c5,3.39,10.03,6.79,16.06,10.87c-2.17,0.8-3.33,1.69-4.28,1.51
		c-3.91-0.75-7.91-1.42-11.58-2.88c-4.49-1.78-8.9-3.18-13.75-3.96c-9.45-1.52-13.86-1.53-28.44-12.83
		c-3.68-0.5-7.65-1.2-11.64-1.54c-8.07-0.7-15.83-2.36-23.37-5.5c-3.89-1.62-8.25-2.36-12.47-2.95c-7.33-1.03-14.03-3.36-19.14-7.65
		c-13.81-3.99-27.24-6.21-39.69-12.51c-14.07-7.11-29.07-12.29-44.39-16.26c-3.3-0.86-6.89-0.86-10.35-0.82
		c-7.5,0.1-15,0.45-22.49,0.77c-1.59,0.07-3.38,0.05-4.7,0.76c-6.97,3.73-14.47,3.54-22,3.35c-1.06-0.03-2.12,0-3.36,0
		c-6.57,7.82-15.79,8.2-25.3,8.7c-4.06,5.45-10.96,5.87-16.95,8.78c-0.9,2.62-1.85,5.35-2.83,8.2c1.18,6.95,7.82,6.23,12.86,8.97
		c0.9,1.46,2.13,3.47,3.34,5.43c6.95,4.23,14.97,4.29,22.93,6.74c2.43,4.21,6.72,6.63,11.83,8c8,2.14,15.94,4.51,24.66,7
		c0.32,1.21,0.83,3.2,1.54,5.91c9.91,3.6,20.95,4.47,31.49,7.81c0.4,2.01,0.76,3.8,1.2,5.95c7.16,3.65,16.05,3.22,23.1,8.11
		c0,1.99,0,3.8,0,6.31c9.19,5.66,20.28,7.08,30.77,10.98c0.43,2.02,0.86,4.04,1.45,6.8c6.73,2.06,13.78,4.23,20.97,6.43
		c0.23,1.98,0.44,3.79,0.71,6.11c12.79,5.87,26.27,10.09,40.13,13.57c0.97,1.65,1.89,3.23,3.32,5.66
		c5.46,1.53,11.61,3.21,17.74,4.99c2.8,0.82,6.28,1.08,8.15,2.92c5.2,5.13,11.83,6.09,18.32,7.44c4.01,0.83,7.55,1.86,10.88,4.57
		c3.95,3.21,8.86,5.14,14.07,5.34C975.23,1249.69,981.71,1251.59,987.46,1256.73z M1782.38,1495.7c0-3.08,0-5.75,0-8.28
		c-2.94-4.34-6.25-8.41-3.99-14.67c3.36-2.27,7.1-4.8,10.4-7.03c5.95,0,11.28,0,16.25,0c11.37,2.91,21.12,10.04,33,10.37
		c1.44-3.28,2.66-6.08,3.88-8.85c-4.15-2.03-7.95-3.88-11.46-5.6c-0.79-2.89-1.41-5.14-2-7.28c-4.22-1.3-8.04-2.47-11.86-3.65
		c-1.61-1.89-3.15-3.69-4.42-5.18c-6.88-2.46-14.41-1.54-19.84-6.62c-0.29-2.61-0.55-4.96-0.85-7.59
		c-5.51-1.67-10.81-3.27-16.03-4.85c-0.77-2.8-1.39-5.05-2.11-7.67c-8.09-2.25-16.02-4.46-23.97-6.67c-0.56-2.5-1.02-4.54-1.57-6.96
		c-6.85-2.18-13.7-4.37-20.33-6.48c-1.55-2.33-2.87-4.31-4.12-6.18c-5.33-1.67-10.34-3.57-15.52-4.79
		c-8.29-1.96-17.06-2.21-24.43-7.28c-0.85-0.58-1.98-0.84-3.02-1.06c-11.51-2.41-22.34-7.48-34.2-8.65
		c-5.58-0.55-11.11-1.67-16.63-2.72c-2.86-0.55-6.19-0.79-8.36-2.43c-4.91-3.7-10.68-4.79-16.19-6.74
		c-6.53-2.32-13.35-3.92-18.93-7.21c-1.39-2.33-2.45-4.12-3.3-5.54c-8.9-2.07-17.24-4-25.77-5.98c-1.51-1.32-3.12-2.72-3.97-3.46
		c-4.34-1.71-7.78-3.06-10.93-4.3c-1.07-2.83-1.91-5.05-2.82-7.47c-7.24-0.96-10.19-5.35-9.21-12.43c-3.14-1.24-5.84-2.32-8.26-3.27
		c-1.76-3.12-2.72-6.57-4.99-8.5c-4.22-3.58-4.52-7.55-2.95-12.59c-3.43-3.65-1.87-8.23-1.29-12.53c-2.84-1.4-5.22-2.58-7.69-3.8
		c-1.12-2.14-2.21-4.25-3.37-6.47c-9.93-2.54-19.72-5.05-29.51-7.56c-4.5-2.25-9.08-4.42-13.85-6.05
		c-7.07-2.41-14.27-4.45-22.42-6.95c-5.37,3.3-10.82-2.12-16.75-2.19c-4.38,2.72-8.61,5.34-13.1,8.13
		c-2.21,0.35-4.76,0.76-7.47,1.19c1.9,1.7,3.44,3.08,4.9,4.38c-1.02,3.11-1.74,5.29-2.34,7.12c1.79,2.31,3.24,4.17,4.79,6.16
		c-1.17,2.26-2.21,4.27-3.52,6.8c6.62,5.16,12.86,10.02,19.28,15.02c-1.45,2.52-2.59,4.51-4,6.97c5.42,3.67,10.64,7.2,15.94,10.78
		c-1.07,2.3-1.83,3.91-2.73,5.85c7.78,6.36,16.55,11.19,23.01,18.46c-0.26,2.12-0.48,3.87-0.69,5.5c4.38,3.46,8.18,6.91,12.41,9.7
		c4.43,2.91,9.28,5.19,14.06,7.81c-0.5,2.4-0.91,4.4-1.32,6.33c5.93,6,11.36,11.92,18.75,15.53c1.17,0.57,2.2,1.52,3.1,2.48
		c0.49,0.53,0.57,1.44,0.93,2.41c-1.06,1.69-2.14,3.43-3.56,5.71c9.61,7.41,19.06,14.68,28.9,22.27c-1.81,2.58-3.22,4.58-4.79,6.82
		c3.52,3.58,6.71,7.22,10.31,10.4c6.62,5.83,13.49,11.36,20.23,17.06c2.01,1.7,4.42,3.16,4.62,6.77c-1.2,1.11-2.58,2.37-4.35,4.01
		c7.06,5.66,13.67,10.97,20.29,16.29c-0.77,2.55-1.35,4.51-1.94,6.47c4.07,4.28,7.91,8.32,11.49,12.09
		c2.72-0.42,4.89-1.27,6.89-0.97c7.93,1.19,15.84,2.6,23.71,4.18c8.39,1.69,16.71,3.7,25.07,5.54c7.04,1.55,14.22,2.61,21.11,4.67
		c11.54,3.44,22.84,7.67,34.34,11.24c5.86,1.82,11.94,2.92,17.91,4.41c1.54,0.38,3.16,0.77,4.51,1.55
		c9.5,5.48,18.95,11.07,27.69,16.2c1.23,2.85,2.05,4.76,2.4,5.57c17.8,7.5,34.61,14.43,51.28,21.65
		c15.24,6.6,30.37,13.45,45.49,20.33c5.32,2.42,11.12,4.12,15.24,9c0.39,1.93,0.8,3.99,1.23,6.15c2.35,1.52,4.57,2.96,7.06,4.57
		c5.03-1.63,9.85-1.22,14.96,0.18c3.87,1.06,8.37,1.71,13.17-0.13c0.69-2.29,1.43-4.75,2.18-7.22c-3-2.86-5.67-5.39-8.26-7.85
		c0.31-3.15,0.57-5.75,0.85-8.63c-5.21-3.51-10.31-6.95-15.32-10.33c-0.94-2.34-1.83-4.54-2.54-6.3c-2.72-1.75-4.97-3.2-7.06-4.54
		c-1.46-2.52-2.79-4.83-3.85-6.67c-6.26-5.25-15.23-6.04-17.94-13.96c-7.09-3.53-15.6-3.56-18.7-11.35
		c-4.22-2.42-7.87-4.67-11.67-6.66c-5.64-2.94-10.39-6.56-11.13-12.83C1794.73,1503.91,1787.01,1502.46,1782.38,1495.7z"/>
	<path d="M447.73,582.87c2.07-2.68,4.14-5.36,6.76-8.76c0-1.71,0-4.35,0-7.25c1.71-1.31,3.37-2.59,5.1-3.92
		c1.26-2.5,2.57-5.09,4.19-8.31c-0.16-3.56-1.04-8.03,2.43-10.69c0-4.67,0-8.64,0-13.17c-0.53-1.21-1.28-2.92-2.21-5.05
		c0.21-1.98,0.46-4.34,0.77-7.28c-1.98-2.42-4.14-5.06-6.48-7.92c-1.87-0.82-4-1.76-5.92-2.6c-1.49-7.07,5.74-8.73,7.81-13.49
		c-3.27-1.86-7.6,1.08-9.84-3.33c-0.73-3.85,2.14-6.09,4.86-8.22c2.68-2.11,5.66-3.85,7.26-7.64c-5.66-3.43-12.61,2.64-18.05-3.24
		c1.51-2.97,3.03-5.97,4.78-9.4c-2.06-0.72-3.96-1.38-5.86-2.03c0.33-0.33,0.66-0.67,1-1c-2.67-2.54-5.33-5.08-8.84-8.42
		c0.16-0.73,0.64-2.99,1.16-5.41c-5.22-3.2-10.17-6.23-15.3-9.37c0.76-2.64,1.33-4.6,1.88-6.48c-2.29-3.98-10.28-2.4-9.08-9.76
		c4.18-2.35,7,1.23,10.35,2.27c3.3,1.03,6.64,1.97,9.53,2.82c4.53,5.39,8.78,10.45,13.03,15.51c0.26-0.17,0.52-0.34,0.78-0.51
		c0.38,1.54,0.76,3.08,0.93,3.76c3.85,3.41,7.17,6.35,11.1,9.83c1.45-0.27,3.76-0.7,6.43-1.2c1.86,1.7,3.81,3.47,6.03,5.5
		c2.64,0.12,5.56,0.25,8.74,0.4c1.85,1.21,3.85,2.52,5.99,3.92c2.57-0.33,5.2-0.66,7.45-0.95c5.43,2.02,4.89,6.75,5.42,10.65
		c4.84,1.74,8.73-0.99,13.44-1.53c1.97,1.59,4.21,3.41,7.01,5.68c2.95-0.99,6.17-2.07,9.82-3.29c1.17,0.74,2.71,1.73,4.63,2.95
		c3.39-0.99,6.97-2.04,10.55-3.09c0.02,0.19,0.05,0.37,0.07,0.56c4.18-0.53,8.35-1.17,12.54-1.55c3.17-0.29,6.47-0.76,9.55-0.24
		c5.89,1,11.09-0.19,16.12-3.18c2.73-1.62,5.65-2.92,9.04-4.65c0.39-1.13,0.97-2.85,1.52-4.45c4.59-1.77,9.02-3.47,12.38-4.77
		c2.59-3.99,4.46-6.85,6.64-10.21c-2.36-1.26-4.81-2.58-7.47-4c0-1.28,0-2.57,0-4.11c4.03-1.72,7.19,0.19,10.88,2.52
		c1.2,2.45,2.6,5.29,3.98,8.11c-3.77,7.4-7.6,14.13-16.08,15c-6.07,9.09-6.89,9.63-23,16.2c-17.16,2.13-31.47,3.81-45.75,5.74
		c-4.05,0.55-7.97,1.11-11.32-0.58c-4.22,0.43-7.91,0.8-11.42,1.16c-1.98-1.7-3.58-3.08-5.8-4.98c-4.5,0-9.5,0-14.65,0
		c-1.4-3.43-2.6-6.34-3.87-9.45c-2.75,0.59-5.33,1.14-8.18,1.75c-1.65-1.79-3.25-3.52-5.08-5.51c-4.38,0-8.89,0-13.36,0
		c-1.52-1.3-2.9-2.48-4.48-3.82c-2.5,1.54-4.04,3.39-4.53,6.3c5.02,2.1,10.62-1.15,15.22,2.92c2.48,6.92-4.94,9.05-7.42,14.28
		c2.11,1.12,4.28,2.27,6.1,3.25c2.92,4.98-1.21,7.82-2.58,11.23c2.05,5.46,8.92,3.46,11.78,8.13c0.24,3.35,0.5,7.05,0.79,11.27
		c0.83,1.09,1.96,2.56,2.99,3.92c0.39,3.01,0.77,5.89,1.2,9.13c-0.77,1.35-1.69,2.97-2.74,4.82c0.22,1.35,0.46,2.92,0.78,4.88
		c-0.82,1.88-1.77,4.07-2.89,6.65c1.98,4.54,1.14,8.67-2.95,11c-1.67,9.31-6.28,16.05-11.13,23.11
		c-5.25,7.62-13.44,9.32-20.52,13.52c-1.33,1.91-2.7,3.87-3.83,5.48c-6.8,4.9-15.55,6.21-19.28,13.32
		c-8.71,4.69-16.73,9.02-24.75,13.35c-2.21,1.19-4.14,2.56-3.19,6.07c4.27,0.99,7.28-2.4,10.92-3.47c3.85-1.13,7.63-2.51,11.77-3.89
		c5.91,1.75,11.69,0.96,17.69-1.52c5.89-2.43,12.33-3.52,19.22-5.38c1.64,0.51,3.91,1.23,7.3,2.29c10.99-2.37,22.97-4.96,35.81-7.73
		c1.48,0.98,3.67,2.42,5.82,3.84c10.91,1.07,21.32-2.27,31.97-3.28c7.28-0.69,14.49-0.64,21.36,2c6.37,2.45,12.86,3.64,19.66,3.43
		c10.45-0.33,20.93-0.45,31.25-4.65c1.99,1.54,4.06,3.14,6.59,5.11c7.82,0.69,16.05,0.79,24.6-1.5c10.24,3.86,20.18,1.18,29.99-3.47
		c2.69,1.24,5.35,2.47,9.04,4.17c10.74,0,22.51,0,33.64,0c4.57,3.34,3.71,7.52,3.27,11.33c6.7,2.23,17.71,1.5,28.19-1.82
		c0.33-2.42,0.68-5.01,0.85-6.29c-0.95-4.64-1.63-7.97-2.23-10.92c-2.97-2.97-5.89-5.9-9.62-9.64c-1.14-0.15-3.5-0.46-6.07-0.8
		c-1-1.08-2.07-2.25-3.25-3.52c-0.53-5.28-1.07-10.54-1.78-17.53c-0.43-1.52-1.34-4.78-2.29-8.13c2.28-1.87,4.07-3.33,5.98-4.9
		c-0.68-2.14-1.32-4.15-2.09-6.58c0.76-1.65,1.63-3.54,2.56-5.57c4.39-0.74,8.61-1.63,11.48-5.24c1.06-2.98,2.11-5.95,2.95-8.3
		c6.67-2.19,12.48-4.11,17.71-5.83c2.21-3.05,3.93-5.42,5.74-7.9c4.07,0,8.08,0.41,11.96-0.12c3.65-0.5,7.15-2.01,11-3.15
		c1.87,1.33,3.79,2.7,5.98,4.26c6.57-0.47,12.78-2.78,18.75-6.1c7.92,2.18,15.43,1.18,22.65-3.29c4.74,4.12,10.27,4.03,15.98,2.86
		c2.48,1.11,4.91,2.2,7.78,3.48c6.22,0.48,12.88,1,20.13,1.57c4.36,5.13,11.06,4.77,17.55,5.45c1.75,1.6,3.51,3.21,5.71,5.23
		c6.74,1.42,13.98,2.94,21.32,4.48c0.38,2.59,0.69,4.63,1.01,6.85c6.17,3.67,15.06,1.07,19.48,9.23c7.8,0.96,15.74,1.94,24.31,3
		c1.27,1.22,2.99,2.86,4.32,4.13c4.17,0.9,7.79,1.69,11.46,2.49c0.75,2.46,1.37,4.46,2.06,6.72c4.21,1.95,8.83,0.56,13.47,1.16
		c2-1.69,4.01-3.38,6.59-5.55c3.48,1.55,7.07,3.15,11.1,4.94c4.01,0,8.52,0,13.87,0c11.72,6.06,24.22,2.49,37.49-0.41
		c4.3,3.09,9.88,2.94,14.74,2.38c5.94-3.41,11.23-6.45,17.12-9.83c0.3-1.98,0.68-4.52,1.07-7.1c-3.2-0.84-5.99-1.57-9.32-2.44
		c-3.67,0.86-7.67,1.32-12.01-0.44c-2.74-1.11-6.29-0.21-9.96-0.21c-4.31-4.68-10.67-4.59-17.18-5.52
		c-1.03-2.62-2.08-5.28-3.26-8.29c-1.99-0.72-4.21-1.54-6.06-2.21c-5.11-4.85-0.58-11.45-4.15-16.08c0.85-1.99,1.58-3.66,2.32-5.4
		c-1.69-1.9-3.25-3.67-4.92-5.55c-0.17-3.7-0.34-7.43-0.54-11.96c2.65-1.97,5.53-4.12,8.74-6.5c-1.73-3.28-3.42-6.49-5.78-10.97
		c1.65-1.09,3.22-2.09,4.76-3.15c1.32-0.92,2.6-1.9,2.68-1.96c2.25-6.15-1.6-12.04,4.79-16.35c8.73-0.46,18.1-2.42,26.41-7.86
		c2.87-1.88,5.87-3.56,8.6-5.61c0.93-0.7,1.23-2.23,1.82-3.4c-6.07-2.8-6.07-2.8-8.54-7.41c1.31-0.99,2.65-2.84,4.12-2.95
		c4.17-0.33,7.05-2.58,9.46-5.48c4.4-5.29,10.18-7.49,16.72-8.7c4.7-0.87,9.33-2.31,13.87-3.83c1.63-0.54,2.93-2.07,4.53-3.26
		c-0.68-2.62-1.27-4.89-1.75-6.73c1.15-3.68,3.64-4.23,6.52-4.17c5.57,0.12,10.55-1.73,15.07-4.82c3.01-2.06,5.22-4.63,4.15-9.49
		c-5.88-1.45-11.75-1.19-17.89,1.27c-1.19,1.84-2.47,3.82-4.09,6.33c-9.12-0.63-18.48-3.1-26.75,0.25
		c-3.63,2.57-6.61,4.68-9.02,6.39c-10.4-2.54-13.88-2.49-21.9,0.21c0.08,1.06,0.44,2.34,0.23,3.5c-0.73,3.97-3.29,5.76-7.65,5.05
		c-2.88-0.47-5.63-1.96-8.51-2.24c-2.83-0.28-5.75,0.38-8.63,0.63c-1.25,2.27-2.25,4.08-3.29,5.97c-7.59,0.48-15.03,0.95-22.23,1.4
		c-1.76,1.38-3.21,2.53-5.17,4.07c-9.73,0-19.89,0-29.86,0c-4.78,4.52-10.2,5.24-15.95,5.37c-5.56,0.13-11.44-0.28-15.44,4.37
		c-4.07,0.55-8.43-0.01-11.35,1.78c-6.19,3.79-12.88,4.71-19.68,5.88c-1.48,0.25-2.78,1.53-4.86,2.74
		c-9.79-1.14-20.14-2.34-30.02-3.49c-3.04-1.84-4.12-4.07-3.59-7.73c1.83-0.76,3.95-1.64,6.38-2.65c-2.32-2.31-5.52-4.29-4.43-8.85
		c3.35-1.76,7.01-3.69,10.35-5.45c1.7-7.05-5.28-12.13-1.87-19.39c3.3-3.23,10.32-2.54,13.6-9.19c-1.22-3.21-2.7-7.12-4.13-10.91
		c1.17-3.9,4.26-3.83,7.23-3.81c5.24,0.04,10.18-0.73,14.29-5.01c0.24-3.01,1.27-6.42-3-9.38c-0.87,2.71-1.55,4.82-2.5,7.79
		c-1.75,0.49-3.95,1.55-6.21,1.68c-6.53,0.38-12.78,1.53-18.71,5.19c-2.42,0-5.08,0-7.7,0c-1.99,1.67-3.82,3.21-5.9,4.95
		c-2.19,0-4.58,0-6.54,0c-2.31,1.23-4.18,2.22-5.77,3.06c-6.63,0.52-13.44-2.5-19,3.57c-12.22-4.81-25.06-4.93-37.48-6.25
		c-4.73-2.36-9.53-4.59-14.18-7.11c-3.49-1.89-6.79-4.15-11.87-7.29c-4.24-1.01-10.44-2.49-16.3-3.89
		c-1.39-2.37-2.43-4.15-3.72-6.35c-0.74,0.84-1.6,1.4-1.55,1.84c0.26,2.08,0.77,4.12,1.14,5.92c-0.67,3.99-4.49,3.68-5.68,4.63
		c-3.23,5.17-5.8,9.28-8.53,13.66c-5.23,3.28-10.79,6.77-17.48,10.96c-0.28,0.39-1.36,1.9-2.5,3.5c-2.14,1.01-4.3,2.04-6.25,2.96
		c-1.13,2.63-2.15,4.99-3.22,7.46c-5.29-0.39-9.98-2.33-14.61-0.69c-0.98,2.59-1.88,4.95-2.88,7.58
		c-7.06-1.06-13.29-4.38-20.81-2.54c-0.81,1.13-1.99,2.78-3.42,4.77c-5.98-1.04-11.96-2.08-18.02-3.14
		c-1.53,1.91-2.81,3.5-4.28,5.34c-6.41-2.4-12.62-4.73-19.03-7.12c-0.95,0.68-1.8,1.24-2.61,1.86c-0.63,0.48-1.21,1.03-1.93,1.65
		c-5.05-0.5-9.14-2.5-11.88-7.53c0.65-1.31,1.32-2.68,1.96-3.96c3.08-0.87,5.9-1.67,8.79-2.49c5.8,1.9,11.62,3.81,17.44,5.72
		c7.16-4.34,14.38-1.21,21.9-1.17c6.09-4.67,13.56-2.64,20.94-3c1.82-1.3,3.76-2.69,5.21-3.72c6.3-3.17,14.46,0.99,18.67-6.46
		c-2.43-3.76-4.87-7.53-8.07-12.49c-4.55-2.78-10.19-6.38-15.97-9.72c-5.18-3-9.27-6.57-8.6-12.72c-2.08-2.54-3.77-4.59-5.52-6.72
		c0.42-1.95,0.8-3.74,1.26-5.89c-0.74-0.53-1.49-1.32-2.4-1.67c-5.14-1.96-8.87-5.02-8.83-9.66c-4.51-3.68-8.14-6.64-12.26-10
		c-4.01-1.08-8.82-2.38-15.76-4.24c-4.29,1.4-10.58,3.46-16.69,5.45c-0.67,1.83-1.16,3.07-1.58,4.32c-1.55,4.62-4.54,7.94-9.16,9.46
		c-5.34,1.75-10.69,3.66-16.19,4.67c-9.48,1.75-19.07,2.97-28.64,4.18c-3.14,0.4-6.37,0.06-7.96,0.06
		c-5.24-2.28-6.16-5.63-6.64-8.95c-6.9-4.87-15.07-2.12-22.7-5.1c-3.65-3.11-8.46-5.19-13.89-6.15c-3.78-0.67-6.97-2.69-9.5-6.26
		c-0.28-1.99-0.62-4.31-1-6.99c-1.68-0.37-3.19-0.99-4.7-1c-8.29-0.08-14-3.26-14.81-12.46c-6.52-0.75-11.38-3.72-14.12-9.52
		c-9.82-0.73-12.41-9.59-18.24-14.5c0.19-2.4,0.34-4.24,0.51-6.42c-7.24-4.14-14.91-4.74-23.73-2.68
		c-1.54,7.66-3.09,15.4-4.78,23.83c-1.92,2.44-4.23,5.38-6.97,8.87c-0.43,2.5-0.97,5.65-1.83,10.65c-2.13,1.83-5.36,4.6-8.8,7.55
		c0.82,1.83,1.55,3.51,2.32,5.16c2.37,5.04,1.93,7.79-2.23,11.31c-2.03,1.72-4.4,3.04-6.86,4.71c-0.58,1.24-1.19,2.73-1.95,4.13
		c-3.51,6.47-8.21,11.03-16.22,11.35c-3.96,0.16-7.82,1.64-11.92,0.71c-1.49-0.34-3.25-0.04-4.77,0.39
		c-12.34,3.53-25.05,1.17-37.53,2.44c-3.56,0.36-6.97-0.3-9.94-3.45c-0.45-1.31-1.05-3.04-1.87-5.4
		c-13.75-2.55-27.82-3.07-42.28-4.59c0.25,2.16,0.4,3.42,0.57,4.83c2.1,0.9,4.03,1.73,6.3,2.7c0.92,1.94,1.94,4.08,2.94,6.18
		c2.05,1.31,4.06,2.6,6.11,3.91c0.73,2.42,1.42,4.7,1.97,6.51c3.47,4.53,9.06,6.57,10.92,12.77c-1.34,1.64-2.81,3.43-4.46,5.45
		c0,2.28,0,4.9,0,8.13c-2.62,1.14-5.26,2.29-8.46,3.69c-0.16,1.61-0.36,3.64-0.6,6c-3.35,3.47-8.57,1.69-13.14,4.04
		c-0.5,1.5-1.14,3.44-1.92,5.8c-5.17,2.42-10.94,0.15-17.1,1.4c-3.09,6.63-9.7,6.31-16.2,6.12c-2.19,1.69-4.28,3.3-6.7,5.18
		c-7.95,0.22-16.5-1.24-23.93,4.16c-3.45,0-6.94-0.23-10.39,0.06c-4.25,0.36-8.73,0.45-12.63,1.94c-5.65,2.15-11.3,2.97-17.24,3.2
		c-3.7,0.14-7.74,0.47-10.95,2.08c-4.58,2.28-9.11,2.97-13.98,2.5c-3.85-0.37-7.34,0.41-10.92,1.91c-2.88,1.21-6.14,1.59-9.27,2.1
		c-2.51,0.41-5.35-0.29-7.63,2.74c3.57,2.15,6.85,4.12,10.72,6.45c1.99-0.13,4.64-0.31,8.19-0.55c3.46,2.72,7.39,5.81,12.37,9.73
		c1.74-0.31,4.86-0.86,7.98-1.43c8.58-1.57,9.28-1.23,13.27,6.69c4.57,0,9.34,0,15.17,0c1.36,1.67,3.02,3.73,4.87,6.01
		c6,0,12.14,0,18.36,0c2.41,1.82,4.74,3.57,7.43,5.6c6.61-1.34,13.4-2.78,20.22-4.09c5.25-1.01,10.4-1.7,15.91-0.68
		c4.05,0.75,8.48-0.5,12.73-0.9c3.5-0.33,6.84-0.3,10.23,1.18c2.09,0.91,4.67,0.9,7.04,0.92c3.46,0.04,6.93-0.27,10.3-0.42
		c1.2,1.36,2.24,2.53,3.33,3.76c0.85,0,1.63,0.02,2.41,0c2.12-0.05,4.44-0.69,6.34-0.07c5.29,1.74,10.55,1.22,15.91,0.94
		c4.22-0.22,8.3-0.24,12.45,1.98c2.8,1.5,6.74,1.13,10.16,1.11c4.4-0.03,8.59,0.14,11.89,3.64c3.59,0,7.06,0,10.76,0
		c0.74,1.47,1.42,2.83,2.31,4.59c3.76,0,7.73,0,11.83,0c1.23,1.99,2.32,3.75,3.55,5.74c5.49,0.4,10.56,1.83,12.8,7.7
		c3.9,0.81,7.52,1.55,11.18,2.31c0.76,1.95,1.43,3.65,2.1,5.35c4.32,1.65,8.53,3.27,12.57,4.81c1.22,2.26,2.22,4.11,2.95,5.46
		c4.72,1.68,8.94,3.18,12.79,4.55c1.02,2.82,1.73,4.8,2.55,7.06c4.5,2.1,9.07,4.24,13.35,6.24c2.01,3.72,3.79,7,5.65,10.45
		c0.62,4.81-4,7.08-6.31,11.01c-0.55-2.16-1.09-4.32-1.75-6.93c-2.23-0.74-4.71-1.57-7.62-2.54c-0.65-2.47-1.32-5-2.23-8.47
		c-3.72-1.21-7.95-2.58-12.81-4.16c-1.05-2.49-2.26-5.39-3.58-8.54c-4.09-0.83-8.24-1.67-12.84-2.61c-0.77-2.93-1.49-5.69-2.32-8.87
		c-5.01-0.69-10.22-1.4-15.45-2.12c-0.81-2.49-1.45-4.44-2.18-6.68c-2.9-0.24-5.78-0.48-8.31-0.69c-3.19-1.72-2.71-4.67-3.3-7.46
		c-4.24,0-8.48,0-13.23,0c-1.08-1.03-2.4-2.28-3.99-3.79c-1.81,0-3.88,0-5.61,0c-3.26-2.18-1.61-4.89-1.49-8.08
		c-3.27,0.58-6.35,1.13-10.14,1.8c-1.3-1.76-2.81-3.8-4.82-6.51c-4.22,1.13-8.74,2.34-13.46,3.61c-1.79-1.26-3.49-2.47-5.84-4.13
		c-5.31,0.44-11.16,0.92-17.78,1.46c-5.59-4.48-12.25-0.29-19.08-0.4c-1.52-1.2-3.16-2.5-4.97-3.93
		c-5.87-0.18-12.21,3.07-17.92-2.13c-5.91,1.31-11.89,2.64-18.07,4.01c-1.8-0.91-3.67-1.86-6.22-3.16
		c-7.08,1.81-14.65,3.5-22.04,5.75c-3.55,1.08-6.74,1.4-10.38-0.47c-0.76-1.68-1.62-3.58-2.67-5.93c-7.14,0.4-14.27,0.81-21.34,1.21
		c-2.01-2.62-3.6-4.69-5.32-6.93c-5.45-0.9-10.29,2.02-15.45,3.07c-3.57,0.73-6.87,1.06-10.35-1.7c-0.4-1.55-0.92-3.51-1.52-5.82
		c-5.22,1.06-10.1,2.05-14.47,2.94c-4.84-3.38-8.94-6.25-12.93-9.03c-3.86-0.87-7.68-1.74-11.5-2.61c0.05-0.16,0.09-0.33,0.14-0.49
		c-6.33,0-12.66,0-19.25,0c-3.73-4.66-3.68-9,1.11-12.56c3.18-2.36,6.88-4.22,10.6-5.63c7.26-2.75,14.68-5.1,22.09-7.45
		c2.02-0.64,4.21-0.74,6.33-1.06c4.5-0.69,8.99-1.39,13.5-2.04c6.09-0.88,12.19-1.72,18.29-2.57c1.86-0.26,3.8-0.24,5.57-0.77
		c11.35-3.45,23.29-3.64,34.72-6.19c12.45-2.78,25.59-3.23,38.61-11.02c3.65-5.97,11.79-4.2,19.18-4.91
		c4.02-4.56,8.59-8.18,14.39-8.26c3.12-2.59,5.77-4.79,8.72-7.25c-0.56-1.75-1.19-3.73-1.87-5.86c0.96-2.15,1.92-4.31,2.77-6.19
		c-1.43-5.53-6.98-2.18-10.08-5.75c-0.15-1.53-0.37-3.85-0.57-5.91c-1.91-3.37-3.73-6.58-5.74-10.12c-2.39-0.29-5-0.61-7.99-0.98
		c-1.46-2.47-2.92-4.95-4.49-7.61c-2.25-0.44-4.58-0.89-6.97-1.36c-1.45-2.02-2.83-3.95-4.32-6.03c-4.06,0.23-7.96,0.44-11.33,0.63
		c-3.16-4.33-5.79-7.93-8.14-11.15c-1.81-5.53-3.49-10.68-5.07-15.49c3.07-2.8,5.47-1.88,8.07-0.82c3.69,1.49,7.5,2.67,12.78,4.51
		c3.57,2.87,11.09,3.95,11.47,11.58c2.96,1.02,5.42,1.44,7.4,2.64c5.81,3.51,11.51,4.11,16.96,0.37c0.96,0,1.57-0.17,2.02,0.02
		c11.56,4.79,23.92,5.57,36.08,7.34c3.43,0.5,6.79,1.44,10.19,2.18c1.65,1.98,3.17,3.81,4.98,5.99c7.12,0.38,14.63,1.88,21.43-3.31
		c4.71,0,9.51,0,14.32,0c-0.07-0.35-0.14-0.69-0.21-1.04c6.78-2.12,13.55-4.23,20.72-6.47c0.43-1.7,0.99-3.91,1.51-5.98
		c4.94-2.98,11.86-1.35,14.73-7.32c-0.53-4.91-7.45-6.23-5.88-12.39c3.04-4.74,10.58-5.71,12.82-12.55
		c-0.58-2.02-1.22-4.3-1.83-6.42c0.2-2.94,1.9-4.35,4.25-5.51c2.05-1.01,3.85-2.52,5.82-3.85c-1.27-2.9-2.21-5.07-3.07-7.03
		c2.45-7.51,4.79-14.71,7.43-22.79c1.21,0,3.29-0.63,4.57,0.12c3.95,2.31,8.06,2.69,12.67,2.24c2.69-0.83,4.62-4.81,9.79-1.74
		c3.3,5.58,11.87,4.15,16.91,7.29c3.25,4.24,0.39,6.73-1.18,9.73c5.16,0.27,9.87-1.65,14.62,2.3c0.54,0.98,1.55,2.83,2.65,4.84
		c1.61,1.04,3.38,2.19,5.29,3.43c0.55,2.35,1.1,4.64,1.62,6.85c3.27,2.35,8.54,0.61,10.53,6.07c-0.31,1.46-0.73,3.46-1.29,6.15
		c5.79,1.51,11.42,2.97,17.21,4.48c3.73,2.65,1.89,5.97,0.42,9.28c4.13,4.07,9.36,3.84,14.68,4.51c4.27,4.12,10.31,4.72,15.94,6.22
		c5.66,1.51,11.57,2.03,16.23,6.28c1.27,1.16,3.41,1.69,5.22,1.86c12.4,1.2,24.68,0.63,36.52-3.65c2.68-0.97,5.09-2.67,7.65-4.04
		c0-4.04,0-7.43,0-11.22c8.15-1.89,15.91-3.69,24.91-5.78c1.03-1.37,2.64-3.51,4.43-5.89c4.42,0.39,8.64,0.76,13.2,1.17
		c1.58,2.52,3.11,4.96,4.87,7.76c1.53,0.25,3.34,0.68,5.17,0.82c3.97,0.3,6.96,1.66,9.28,5.3c1.79,2.8,4.85,4.78,7.85,7.59
		c-0.27,1.91-0.59,4.2-0.91,6.53c3.52,2.63,7.11,5.31,9.86,7.36c1.06,5.06,1.86,8.9,2.98,14.24c-0.1,0.52-0.51,2.58-0.9,4.59
		c0.65,0.77,1.07,1.51,1.69,1.96c2.17,1.57,4.38,3.1,6.64,4.54c3.85,2.45,7.97,4.52,11.56,7.29c3.54,2.73,6.56,6.12,10.19,9.58
		c2.12-2.66,3.9-5.7,6.43-7.84c2.36-2,5.53-3.04,7.71-4.17c2.61-6.91,4.92-13.04,7.07-18.76c-0.78-3.82-5.06-6.1-2.63-10.24
		c2.87-3.1,6.48-0.49,9.71-0.85c1.93-1.04,3.79-2.03,6.09-3.28c8.3,3.87,14.53,10.42,21.37,16.97c7.01,1.43,13.36,5.09,19.91,8.91
		c13.45,7.84,28.4,10.98,44.09,9.88c4.01-0.28,8.03-0.52,12.77-0.83c4.25-2.59,9.32-4.93,15.26-3.99c0.75,0.12,1.67-0.06,2.35-0.4
		c10.49-5.22,22.22-5.62,33.76-8.78c4.39-10.25,14.59-8.57,23.7-10.26c4.23-6.59,11.44-6.66,18.6-7.12
		c5.06-7.56,14.3-7.84,20.62-12.49c3.99,0.41,5.58,2.62,6.25,5.86c-2.14,7.61-9.64,6.55-15.07,9.16c-0.53,1.7-1.08,3.45-1.64,5.27
		c-8.29,6.14-17.86,9.7-27.22,13.71c-0.82,2.79-1.56,5.33-2.14,7.3c-4.25,6.69-11.41,7.57-17.7,10.79c0,3.62,0,7.29,0,11.62
		c-4.21,3.57-8.43,7.15-12.89,10.93c1.58,6.77,5.08,13.88-1.64,19.76c3.49,3.69,6.38,6.75,9.94,10.51
		c5.06,0.68,10.71-0.07,16.11-2.93c1.86-0.98,3.91-1.8,5.96-2.19c9.93-1.9,19.16-6.69,29.58-6.84c3.56-0.05,7.08-2.02,10.63-3.1
		c1.27-0.38,2.53-0.89,3.83-1.05c3.72-0.46,7.47-1.08,11.2-1.08c10.51,0,20.74-2.07,31.02-3.81c4.49-0.76,8.99-1.41,14.32-2.24
		c5.51-5.46,13.25-7.17,21.45-7.33c7.69-4.93,16.1-7.42,25.04-8.29c2.67-0.26,5.47-0.21,7.95-1.08c10.8-3.79,21.96-4.72,33.54-4.48
		c8.32-7.31,18.63-7.25,29.1-7.2c7.33-7.35,16.43-9.52,26.49-8.95c1.79,0.1,3.84-0.31,5.42-1.16c9.08-4.88,18.81-5.94,28.88-5.46
		c1.04,0.05,2.1-0.23,3.57-0.4c4.33-8.28,12.34-9.25,20.56-9.3c3.86-0.02,7.43-0.41,10.79-2.39c8.45-4.99,17.68-5.76,27.04-5.02
		c3.6,3.46,3.6,3.46,3.5,8.33c-4.22,3.94-8.9,1.59-13.45,0.44c-6.07,2.24-12.64,3.23-16.85,8.83c-2.56,0-4.94,0-6.57,0
		c-4.91,1.93-9.13,3.58-14.45,5.67c-0.59,0.67-1.99,2.25-3.6,4.08c-1.76-0.1-3.69,0.13-5.42-0.36c-7.47-2.13-13.38,0.15-19.17,5.11
		c-8.73,7.48-19.58,10.87-30.47,13.91c-2.57,0.72-5.22,1.13-8.28,1.77c-6.32,8.15-15.04,13.11-25.42,15.81
		c-0.95,6.4-5.31,9.64-10.83,11.82c-4.73,1.87-9.28,4.36-14.15,5.67c-6.95,1.88-11.94,5.8-15.65,12.2c-0.2,2.06-0.43,4.44-0.71,7.32
		c-10.32,10.9-23.18,18.39-36.95,24.21c-1.77,5.03-3.44,9.79-5.2,14.82c1.6,11.13,1.6,11.13-5.28,20.2c1.02,1.18,1.94,2.76,3.3,3.73
		c7.08,5.07,7.51,6.31,4.42,14.62c-0.18,0.49-0.22,1.04-0.3,1.47c-0.09,7.12,8.42,8.07,9.47,14.21c4.95,1.27,9.58,2.46,14.9,3.83
		c1.5-0.97,3.48-2.23,5.37-3.45c0.64-0.04,1.25-0.26,1.69-0.08c6.84,2.85,14.14,2.96,21.34,3.28c2.54,0.11,5.32-0.62,7.67-1.67
		c3.12-1.4,6.04-1.69,9.33-0.91c8.75,2.08,17.62,1.09,26.41,0.35c3.07-0.26,6.01-2.07,9.98-3.52c12.72,2,26.19,0.06,40.77-3.16
		c0.64-0.94,1.84-2.73,2.54-3.77c13.87-2.29,27.52,0.19,39.59-7.35c0.46-1.07,0.94-2.3,1.52-3.48c0.59-1.18,1.28-2.31,2.18-3.91
		c10.31-1.16,21.53,1.43,31.07-5.87c0.08-0.12,0.51-0.53,0.65-1.02c2.29-8.4,4.52-9.83,13.13-8.54c2.6,0.39,5.23,0.58,8.18,0.9
		c1.04-2.86,1.92-5.29,2.91-8.03c7.75-3.14,16.75,3.07,24.38-3.24c0.95-2.73-0.33-7.01,5.02-8.81c5.81,0.17,12.95,2.25,19.44-2.86
		c0.39-2.23,0.84-4.81,1.42-8.1c4.03-0.88,8.23-1.4,12.13-2.76c3.73-1.31,7.15-3.49,10.13-5c0.89-4.05,1.61-7.34,2.39-10.88
		c12.25,0.34,23.57-0.81,33.93-7.52c-0.12-2.13-0.24-4.2-0.35-6.12c1.6-4.24,4.92-5.75,8.88-6.03c4.47-0.32,8.25-2.07,11.36-4.51
		c2.02-3.59,3.82-6.78,5.6-9.94c5.99,0.1,11.4,0.01,15.58-4.87c4.42,0,8.96,0.09,13.5-0.03c4.11-0.1,7.96-2.95,13.11-1.63
		c-2.68,5.26-6.61,7.54-11.27,8.95c-6.9,2.08-13.91,3.89-20.68,6.35c-8.42,3.06-15.55,8.32-21.1,15.3
		c-2.25,2.83-4.62,5.16-7.71,6.82c-5.19,2.8-10.29,5.86-15.71,8.14c-5.15,2.17-10.67,3.47-14.58,4.69
		c-7.51,5.19-13.88,9.58-20.24,13.99c-1.1,0.76-2.34,1.44-3.16,2.44c-5.71,6.99-13.73,10.03-21.81,13.05
		c-2.73,1.02-5.6,2.07-7.86,3.82c-4.6,3.56-9.74,5.58-15.32,6.69c-5.31,1.05-10.12,3.21-15.02,5.5
		c-11.12,5.2-22.87,8.98-33.55,15.24c-3.14,1.84-7.18,2.08-10.73,3.28c-5.83,1.96-11.61,4.06-17.37,6.18
		c-5.02,1.85-9.85,4.4-15,5.64c-21.86,5.26-43.69,10.8-66.16,12.87c-9.55,0.88-19.16,1.06-28.73,1.71c-4.78,0.33-9.53,1-15.23,1.61
		c0.83,2.57,1.35,4.52,2.08,6.38c2.55,6.56,0.79,12.21-5.12,15.95c-1.35,0.86-2.78,1.87-4.29,2.16
		c-13.36,2.58-26.24,7.88-40.17,7.34c-0.53-0.02-1.12,0.18-1.6,0.03c-9.34-3.05-18.54,0.24-27.8,0.62
		c-4.85,0.2-9.48-0.43-14.28-1.39c-9.12-1.82-18.34-3.52-27.81-2.61c-5.03,0.48-10.15,0.42-15.21,0.11
		c-5.36-0.32-10.09-2.07-11.33-8.5c-3.11-0.61-6.02-1.01-8.83-1.79c-2.45-0.68-4.79-1.77-7.25-2.7c0.91,1.62,1.78,3.15,2.91,5.15
		c-6.09,6.37-13.62,3.52-20.31,4.43c-2.29-1.97-4.29-3.7-6.53-5.63c-5.16-0.27-10.47-0.54-15.78-0.82
		c-1.97-2.57-3.73-4.87-5.34-6.97c-6.3-2.24-13.18-1.27-19.03-5.54c-0.74-2.22-1.58-4.72-2.46-7.35c1.04-2.53,2.05-4.97,3.13-7.6
		c-0.97-4.08-4.16-5.04-7.87-5.11c-4-0.08-8-0.02-11.82-0.02c-2.14-1.87-3.94-3.43-6.23-5.42c-3.5,0-7.51-0.02-11.51,0.01
		c-3.5,0.03-6.76-0.74-10.18-1.69c-6.96-1.94-14.21-2.08-21.45-0.95c-4.47,0.7-9.01,0.94-13.51,1.48c-2.11,0.26-4.22,0.64-6.27,1.19
		c-2.07,0.55-4.05,1.41-6.08,2.1c-9.05,3.03-12.89,3.2-22.48,0.89c-8.75,1.56-16.34,6.85-23.94,10.41
		c-4.03,4.46-7.6,8.42-11.46,12.7c-1.5,8.87-1.17,18.07,0.68,25.82c2.82,3.68,4.72,6.2,6.67,8.67c0.82,1.04,1.58,2.31,2.68,2.9
		c4.5,2.42,6.14,6.23,6.77,11.12c0.51,3.92,2.07,7.71,3.09,11.29c2.51,1.9,4.62,3.51,7.08,5.38c0,2.47,0,5.04,0,8.06
		c-9.04,4.38-18.31,7.52-27.96,9.75c-2.21-1.66-4.1-3.08-6.08-4.57c-1.55,0-3.17-0.13-4.75,0.03c-3.46,0.35-6.9,1.09-10.37,1.24
		c-6.45,0.27-11.53-2.04-14.09-8.46c-0.59-1.47-1.39-2.85-2.4-4.91c-3.57-0.07-7.28-0.41-10.95-0.15
		c-6.94,0.49-13.79,1.4-20.69-0.92c-2.35-0.79-5.29-0.09-7.92,0.27c-4.51,0.61-8.97,1.74-13.49,2.14
		c-3.39,0.31-6.85-0.16-10.28-0.32c-3.2-0.15-6.4-0.49-9.6-0.52c-2.4-0.03-4.82,0.23-7.21,0.47c-5.73,0.58-11.25,0.28-15.71-3.77
		c-11.61,2.8-23.04,3.8-34.62,3.33c-4.94-0.2-9.53-1.26-13.82-3.72c-7.82-4.48-16.17-5.24-24.89-3.52
		c-7.89,1.55-15.78,3.12-23.7,4.5c-2.85,0.5-5.8,0.48-8.51,0.68c-2.2-1.83-4.02-3.35-6.35-5.3c-3.56,1.14-7.25,2.32-10.99,3.52
		c1.62,5.04,3.99,9.27,4.07,13.54c0.07,4.03-2.27,8.1-3.65,12.46c1.13,2.72,2.41,5.83,3.63,8.79c-2.44,3.1-4.38,5.56-6.29,7.99
		c1.92,3.6,6.67,4.58,6.8,10.11c-1.98,2.09-4.48,4.73-7.19,7.59c1.25,2.24,2.51,4.5,3.84,6.88c-1.29,2.21-2.5,4.27-3.81,6.5
		c2.42,8.77,4.87,17.65,7.46,27.05c-1.16,2.96-5.73,5.67-2.31,10.53c4.81,1.02,8.15-2.62,12.18-4.56
		c19.23-3.32,37.94-8.97,56.68-14.6c7.11-2.14,14.7-2.72,22.09-3.9c1.3-0.21,2.7-0.05,4.01,0.16c4.98,0.81,9.94,1.7,15.59,2.68
		c1.04,1.34,2.5,3.21,3.89,5c6.86,2.87,15.34,0.33,21.58,7.23c-0.44,3.31-0.91,6.91-1.46,11.05c1.45,0.55,3.07,1.53,4.8,1.75
		c4.78,0.62,9.61,1.39,14.4,1.26c6.76-0.19,12.22,1.41,15.03,7.76c2.82,1.18,5.29,2.21,7.9,3.31c1.35,1.9,2.74,3.84,3.42,4.8
		c3.97,2.76,7.84,4.3,9.78,7.15c1.73,2.56,1.33,6.57,2,10.74c2.21,0.95,4.84,2.18,7.53,3.22c2.5,0.96,5.13,1.59,7.6,2.61
		c6.68,2.77,12.52,6.37,12.63,13.95c3.91,2.12,7.51,3.45,10.31,5.76c2.54,2.09,4.2,5.23,6.5,8.23c3.98-6.69,7.6-12.75,11.62-19.51
		c-0.61-1.74-1.47-4.21-2.49-7.11c1.15-1.88,2.37-3.89,3.9-6.4c-0.55-1.78-1.23-4.02-1.84-6.02c2.56-4.52,2.56-4.52,8.37-8.42
		c2.98-3.88-0.26-7.88,0.46-12.1c2.55-8.01,12.58-5.96,17.16-12c0.25-5.15-6.68-10.8,0.56-15.86c3.78-0.77,7.64-1.55,11.92-2.42
		c-0.65-2.89-1.16-5.16-1.71-7.61c0.78-1.3,1.6-2.64,2.42-4c4.88-1.32,10.59,1.24,14.58-3.61c-0.58-2.54-1.17-5.11-1.79-7.83
		c0.93-1.32,1.82-2.59,2.7-3.84c10.24-1.71,20.57-2.16,31.04-9.19c3.46-4.73,4.46-15.08,15-14.15c1.66-1.51,2.78-2.3,3.62-3.32
		c10.42-12.62,24.34-18.96,39.94-22.24c10.76-2.26,15.65,0.19,20.76,10.18c0.23,0.45,0.65,0.8,1.56,1.89
		c3.16-0.77,6.79-1.43,10.27-2.57c8.43-2.76,16.92-5.22,25.8-5.93c6.13-0.49,12.31-0.8,18.1,2.38c1.48,2.92,2.91,5.74,4.57,9.01
		c4.3-0.51,8.5-1.02,12.91-1.54c4.29,0.55,6.55,3.89,8.49,7.54c5.34,0,10.39,0,16.18,0c1.17-0.83,3.05-1.89,4.59-3.33
		c13.92-13.02,30.48-21.61,47.72-29.27c10.51-4.67,20.68-10.1,30.93-15.32c5.34-2.72,10.89-4.36,16.87-4.83
		c6.93-0.55,13.84-1.39,22.27-2.26c19.86,4.56,41.3,9.07,63.7,4.13c1.87,1.16,3.89,2.4,6.22,3.84c10.33,0.01,19.59-6.29,30.5-6.69
		c1.59,1.79,3.33,3.75,5.41,6.1c7.7-0.97,15.6-1.96,23.4-2.93c2.22,2.44,3.99,4.39,6.14,6.75c5.78-0.51,11.87-1.05,18.06-1.6
		c1.96,1.62,3.78,3.14,6.01,4.99c7.61-0.98,15.54-2,23.24-2.98c2.46,1.54,4.48,2.8,7,4.37c7.78-0.36,16.05-0.74,24.16-1.11
		c2.13,1.87,3.92,3.43,5.74,5.02c0.78,0.12,1.57,0.35,2.36,0.34c2.68-0.02,5.37-0.01,8.04-0.22c5.51-0.43,10.1,1.07,12.97,6.07
		c3.96,0.58,7.67,1.08,11.36,1.69c3.84,0.64,5.91,3.4,7.1,6.35c2.23,0.93,3.94,1.64,5.33,2.22c2.54,2.96,4.8,5.61,7.22,8.43
		c7.47,2.93,16.26,3.67,21.3,10.5c4.55-2.71,8.98-5.35,12.9-7.68c4.74-5.41,9.23-10.51,13.61-15.51c7.51-0.92,14.41-1.68,21.28-2.65
		c4.79-0.67,9.67-1.37,12.56-6.03c9.58-0.62,18.9-0.77,28.22,0.65c2.1,0.32,4.29,0.34,6.4,0.14c14.42-1.31,28.79-2.52,43.32-0.89
		c5.75,0.65,11.69-0.47,19.83-0.9c4.74,1.06,12.08,1.86,18.77,4.38c11.3,4.26,22.98,4.47,34.68,5.23c1.03,0.07,2.03,0.62,3.27,1.02
		c1.04,1.74,2.12,3.55,3.62,6.06c7.6,1.69,15.68,3.49,22.13,4.92c5.83,3.03,10.23,5.39,14.7,7.61c10.8,5.35,21.69,10.51,32.39,16.05
		c2.25,1.16,3.83,3.6,6.59,6.29c4.78,1.23,10.65,2.74,17.65,4.54c-2.98-7.05-8.73-9-13.66-11.4c-5.2-2.53-10.96-3.94-17.19-6.09
		c-0.57-1.54-1.4-3.74-2.4-6.43c-5.08-2.07-10.51-4.27-16.08-6.53c-1.36-2.22-2.74-4.48-4.11-6.73c-2.4-0.7-4.7-1.37-7.11-2.07
		c-4.47-4.91-5.17-10.34-2.22-15.88c-3.13-3.32-6.88-5.91-8.56-9.47c-1.6-3.39-1.04-7.8-1.54-12.92
		c-3.31-4.71-4.36-10.75-0.87-16.88c-4.02-10.59-4.02-10.59-0.18-20.3c-4.47-4.67-5.22-10.15-2.13-15.31
		c-1.56-3.87-2.84-7.03-3.96-9.81c2.26-5.03,4-9.53,6.29-13.73c1.09-2,3.03-3.7,4.93-5.05c1.94-1.38,4.3-2.16,6.11-3.03
		c3.09-3.77,5.94-7.25,10.1-12.33c1.27-2.02,3.65-5.84,6.88-11c0.57-6.96,5.86-11.63,13.6-14.29c2.23-0.77,4.64-1.87,6.22-3.53
		c3.39-3.55,7.62-4.91,12.14-5.68c5.82-0.98,11.66-1.86,17.52-2.49c5.83-0.63,10.58-3.31,15.8-7.33c-1.45-0.66-2.23-1.27-3.05-1.36
		c-8.22-0.82-16.43-1.7-24.67-2.24c-4.41-0.29-7.17-3.29-10.31-5.58c-5.76,0.67-11.29,1.31-17.24,2.01
		c-1.86-2.66-3.49-5.01-5.65-8.1c-1.32-0.39-3.58-1.06-5.7-1.68c-2.47-4.07-4.79-7.9-7.72-12.73c-0.08-1.49-0.22-4.15-0.38-7.37
		c-4.46-4.72-6.84-10.38-2.55-16.99c-3.48-6.64-2.15-12.11,3.54-16.53c3.37-8.03,9.82-12.73,16.98-17.29
		c4.41-2.81,8.18-6.78,13.02-9.24c1.61-0.82,2.87-2.35,4.25-3.6c0.39-0.35,0.54-0.98,0.94-1.3c10.77-8.66,19.34-19.9,31.67-26.79
		c3.91-2.18,7.62-5.04,10.75-8.24c4.41-4.5,9.37-7.84,15.02-10.53c10.64-5.07,21.12-10.48,31.65-15.78c1.19-0.6,2.55-1.15,3.4-2.1
		c6.01-6.73,13.83-10.95,21.3-15.67c1.75-1.11,3.21-2.68,5.92-4.99c-2.71,0.34-3.98,0.44-5.22,0.67
		c-10.01,1.82-20.11,3.31-30.01,5.61c-8.28,1.92-16.63,3.42-24.65,6.8c-9.09,3.84-18.74,6.53-28.34,8.94
		c-7.22,1.81-14.03,5.26-21.81,5.19c-2.22-0.02-4.51,2.4-6.67,3.86c-1.95,1.32-3.55,3.31-5.65,4.2
		c-9.36,3.99-18.88,7.61-28.27,11.53c-13.35,5.57-26.77,11.02-39.92,17.03c-12.91,5.89-25.53,12.41-38.57,18.8
		c-3.58-0.96-3.59-4.33-3.73-7.9c-4.14-0.14-7.26,1.64-10.48,3.52c-3.9,2.28-8,4.19-12.02,6.28c-0.94,0.49-1.98,0.88-2.79,1.54
		c-9.29,7.48-20.08,12.06-30.87,16.89c-14.88,6.66-29.28,14.39-43.9,21.61c-2.64,1.3-5.31,2.61-8.1,3.51
		c-1.34,0.43-2.99-0.1-4.46-0.19c-1.71-3.89,0.02-5.91,2.7-7.72c2.21-1.49,4.26-3.19,7.09-5.34c2.63-0.3,6.05-0.69,9.85-1.12
		c0.66-2.55,1.3-5.05,1.83-7.13c1.95-2.49,4.22-2.8,6.75-2.82c11.24-0.07,17-2.6,24.16-10.64c6.3-0.07,12.67-0.9,15.83-6.92
		c8.74-2.07,16.77-3.97,24.94-5.91c6.14-8.72,13.92-13.27,24.34-9.43c17.19-7.09,34-14.03,50.85-20.98
		c1.43-2.02,2.82-3.97,4.18-5.89c0.83-0.33,1.54-0.74,2.3-0.91c20.22-4.35,40.08-9.8,58.51-19.47c2.5-1.31,4.48-3.61,7.68-6.26
		c17.73-4.08,36.75-8.45,55.36-12.73c1.88-2.57,3.29-4.5,5.17-7.09c3.48-0.41,7.43-1.12,11.4-1.31c15.33-0.71,30.37-3.28,45.31-6.63
		c6.5-1.46,13-2.92,19.09-4.3c1.97-2.33,3.52-4.16,5.18-6.12c6.08-2.44,12.66-1.47,18.98-2.41c6.03-0.91,12.05-1.9,18.82-2.98
		c0.51,2.81,0.91,5,1.33,7.3c-1.85,1.13-3.08,2.3-4.53,2.69c-6.2,1.68-12.48,3.09-18.7,4.69c-1.79,0.46-4.02,0.79-5.14,2.01
		c-3.36,3.68-7.73,4.61-12.21,5.53c-6.2,1.27-11.7,3.81-15.49,9.08c-7.2,1.17-13.72,3.2-18.43,9.13c-1.22,1.54-3.56,2.33-5.53,3.12
		c-6.65,2.69-12.43,6.36-15.6,13.43c-9.2,4.47-20.39,5.73-25.8,14.55c-6.08,2.08-11.19,3.63-16.15,5.59
		c-2.7,1.07-5.13,2.82-7.63,4.23c-1.27,2.61-2.44,5-3.86,7.93c-3.28,1.55-6.91,3.2-10.49,4.96c-9.3,4.59-9.94,5.25-14.69,14.73
		c-3.31,1.73-7.07,3.68-10.54,5.49c-2.11,3.51-0.89,8.15-6.23,10.75c-1.45,0.44-4.23,1.29-7.09,2.16c-0.85,2.13-1.62,4.09-2.45,6.19
		c-2.29,1.28-4.6,2.57-6.43,3.59c-2.44,8.59-4.75,16.69-7.14,25.09c1.7,1,3.71,2.19,5.76,3.39c1.65,5.44-0.86,11.64,4.29,16.86
		c3.12,0.45,7.06,1.01,11.39,1.64c1.09,1.45,2.36,3.12,3.72,4.94c2.1,0.29,4.19,0.58,6.74,0.93c1.24,1.66,2.65,3.54,4.48,6
		c9.77,0,19.82,0,30.97,0c0.74,0.56,2.41,1.83,4.18,3.18c2.65-0.26,5.29-0.51,8.06-0.78c1.73,1.3,3.43,2.57,5.57,4.18
		c1.87,0.14,4.25,0.31,6.38,0.47c3.32,2.65,4.5,5.61,2.56,9.85c-2.8,2.19-5.95,4.64-9.48,7.4c-6,0.72-12.37,1.49-18.77,2.26
		c-1.89,2.4-3.68,4.67-5.39,6.83c-11.72,1.28-23.12,2.52-34.33,3.75c-1.11,1.54-1.87,2.62-2.66,3.67c-0.63,0.85-1.3,1.68-2.01,2.59
		c-4.12,1.03-8.21,2.06-12.64,3.17c-0.33,3.19-0.62,6.03-0.96,9.32c-2.35,1.5-4.79,3.07-6.76,4.33c-1.45,6.55-2.82,12.73-4.03,18.15
		c-4.56,4.82-10.68,2.12-15.3,5.68c-0.5,1.83-1.13,4.11-1.82,6.62c-1.61,1.21-3.29,2.47-5.24,3.93c1.57,1.92,3.05,3.73,4.38,5.36
		c0,2.16,0,4,0,6.07c-1.98,1.45-3.87,2.84-5.77,4.23c0.04,0.46-0.11,1.11,0.13,1.34c6.57,6.26,6.43,9.66-0.62,15.33
		c-0.61,0.49-1.07,1.16-1.72,1.88c1.94,5.1,7.04,2.65,10.73,4.58c3.8,3.76,1.99,8.02-0.19,12.02c5.83,4.16,6.04,4.98,3.37,12.1
		c-2.97,3-8.53,1.95-10.67,6.93c4.2,4.28,11.21,1.61,16.01,7.13c0.12,1.72,0.31,4.56,0.49,7.25c-1.61,1.89-2.94,3.45-4.86,5.7
		c3.46-0.16,6.02-0.27,8.13-0.37c4.91,3.05,2.38,7.66,3.58,12.25c2.19,0.83,4.8,2.02,7.52,2.82c5.28,1.54,10.26,3.36,12.03,8.56
		c5.57,3.01,10.58,5.58,15.44,8.4c5.2,3.01,9.48,7.03,12.04,12.6c3.15,6.85,8.93,9.71,16,10.5c6.39,0.71,12.81,1.19,19.21,1.86
		c1.56,0.16,3.08,0.66,5.36,1.17c0.19,3.11,0.38,6.17,0.51,8.38c-3.41,5.03-8.42,3.82-12.06,6c-10.13-2.82-19.54-8.14-30.42-6.24
		c-0.69-1.47-1.14-2.4-1.57-3.34c-0.43-0.96-0.84-1.94-1.29-2.99c-0.98-0.52-1.87-1.22-2.87-1.47c-7.55-1.86-15.12-3.62-22.68-5.42
		c-2.82-0.67-5.63-1.4-8.48-2.11c-0.69-2.46-1.25-4.47-1.93-6.88c-0.85-0.56-1.86-1.52-3.07-1.97
		c-10.27-3.89-20.59-7.63-30.85-11.55c-3.97-1.52-7.78-3.45-11.71-5.08c-1.96-0.81-4.01-1.47-6.06-2.02
		c-3.88-1.05-7.91-1.67-11.66-3.05c-4.19-1.55-8.14-3.74-11.88-7.09c-10.15-0.37-20.3-0.74-30.95-1.13c-0.41-0.45-1.14-1.19-1.78-2
		c-0.66-0.83-1.24-1.73-2.33-3.26c-3.26-0.28-6.95-0.82-10.64-0.88c-8.05-0.13-16.1,0.2-24.14-0.1c-5.84-0.22-11.66-1.59-17.49-1.64
		c-6.11-0.06-12.4-0.04-17.74,3.67c-3.63-0.56-7.1-0.92-10.49-1.64c-9.47-2-18.59,0.29-27.76,2.02c-3.41,0.64-6.77,1.61-10.64,2.54
		c-3.32,5.12-9.41,4.49-15.38,5.8c-3.56,3.21-7.49,6.75-12.79,11.53c-0.4,0.18-2.52,1.15-5.4,2.45c2.62,5.07,5.02,9.73,7.65,14.83
		c-0.52,1.72-1.13,3.69-1.84,6.02c-7.37,1.99-14.57,3.94-21.22,5.73c-3.58-0.99-5.89-3.19-5.45-5.85c0.66-4.05-1.97-6.5-3.3-9.88
		c0.17-2.7,0.35-5.6,0.57-9.02c-9.08-6.08-18.64-4.99-28.37-2.36c-3.34-1.48-6.7-2.97-10.59-4.69c-2.06-2.92-4.5-6.38-7.26-10.29
		c-0.21-1.58-0.49-3.68-0.77-5.78c-4.55-2.32-9.04-0.1-13.88-0.04c-1.56-1.94-3.19-3.97-5.4-6.72c-4.55,0.33-9.55,0.69-15.01,1.08
		c-1.27-1.63-2.72-3.48-4.17-5.35c-8.42-1.98-16.41,1.85-24.9,1.94c-1.7-1.61-3.4-3.23-5.33-5.06c-8.19,1.19-16.38,2.39-24.71,3.6
		c-1.86-1.72-3.58-3.31-5.94-5.49c-6.58,0.66-13.68,1.37-20.87,2.09c-1.29-2.95-2.34-5.36-3.6-8.23c-8.65,1.1-17.33,2.2-25.69,3.26
		c-2.03-1.33-3.57-2.34-5.84-3.83c-6.78,1.08-14.13,2.26-21.26,3.4c-2.46-1.37-4.54-2.52-5.43-3.02
		c-16.26-1.18-31.31-1.65-46.17-3.56c-10.28-1.32-20.29-1.11-30.42,0.29c-5.87,0.81-11.04,3.14-16.46,5.68
		c-9.12,4.28-17.51,10.25-27.81,12.28c-7.02,1.38-13.62,4.56-19.34,9.35c-2.39,2-5.67,2.95-8.54,4.38
		c-5.8,2.88-11.61,5.75-13.72,12.53c-4.08,2.33-8.57,3.97-11.79,6.99c-3.18,2.99-5.07,7.35-8.13,12.02
		c-0.38,0.09-1.83,0.42-2.9,0.67c-3.95-2.52-3.38-6.43-4.57-9.91c-6.61-2.5-12.95,0.88-18.92,1.57c-4.53-1.92-3.59-5.9-4.2-9.22
		c-6.17-1.25-10.26,3.18-15.37,4.79c-3.31-1.36-5.06-3.67-4.86-7.69c1.4-2.23,2.91-4.65,4.23-6.75c-0.92-3.31-3.18-3.15-5.33-3.19
		c-10.69-0.19-20.57,3.23-30.39,6.87c-3.52,1.3-6.94,2.88-10.5,4.06c-1.93,0.64-4.06,0.68-5.28,0.87c-5.25-2.94-4.8-7.89-6.65-11.49
		c-13.75-5.6-40.97,8.17-51.06,25.99c-2.04-0.98-4.1-1.97-6.89-3.31c-1.44,1.46-3.62,2.84-4.56,4.81c-2.5,5.25-6.85,8.19-11.8,10.4
		c-4.89,2.18-9.97,3.94-14.96,5.89c-1.72,0.67-3.45,1.35-5.58,2.19c0.55,8.63-5.43,12.11-12.47,14.97
		c-1.63,8.99-9.82,11.03-16.44,14.85c-0.36,3.58-0.71,7.01-0.98,9.61c-3.4,6.62-9.8,8.58-14.48,12.96
		c-0.53,6.28-1.06,12.76-6.05,17.64c-0.7,7.52-1.4,14.94-2.22,23.74c-0.51,1.14-1.6,3.58-2.76,6.17c2.68,6.05,2.46,11.96-1.72,18.28
		c-1.63,1.32-3.92,3.16-6.32,5.09c-2.6,0-5.24,0-6.38,0c-9.49-3.58-12.32-11.93-17.88-17.45c-3.21-0.25-6.14-0.48-9.46-0.75
		c-1.25-1.38-2.66-2.93-4.07-4.49c0.3-3.13,0.57-6.01,0.91-9.68c-2.64-1.04-5.26-2.15-7.94-3.1c-3.28-1.17-6.64-2.09-9.89-3.31
		c-5.8-2.18-9.2-6.26-9.62-12.61c-0.05-0.77-0.41-1.52-0.72-2.6c-2.9-0.9-5.9-1.83-8.87-2.76c-1.31-2.61-2.5-4.97-3.63-7.23
		c-3.55-0.79-6.89-1.53-10.28-2.29c-1.34-2.67-2.5-5-3.86-7.71c-6.49-0.7-13.11-1.54-19.76-2.09c-5.26-0.43-9.2-2.55-11.67-8.13
		c0.5-2.07,1.11-4.63,1.82-7.6c-4.8-3.48-10.82-1.12-16.55-2.96c-1.58-1.43-3.54-3.21-5.71-5.17c-2.28,0.17-4.65,0.35-7.35,0.56
		c-1.69-1.3-3.56-2.73-5.5-4.21c-5.63,1.37-11.08,2.69-17.34,4.21c-4.38-1.75-9.16-0.23-13.91,1.93c-6.82,3.09-13.73,6-20.55,9.1
		c-4.18,1.9-4.48,1.98-11.58-0.27c-10.83,4.96-22.59,8-33.03,14.25c-5.9,3.53-11.74,2.16-17.06-1.37
		c-1.4-5.92-2.69-11.34-3.83-16.17c2.76-4.75,5.13-8.84,7.19-12.4c-0.7-3.04-1.17-5.12-1.59-6.93c2.15-6.84,4.22-13.39,6.5-20.66
		c-0.64-1.74-1.54-4.21-2.7-7.38c2.1-3.03,4.34-6.25,6.8-9.8c-1.05-1.57-2.2-3.29-3.35-5.01c-1.54-5.22,2.26-8.48,4.85-12.31
		c-1.51-2.24-2.93-4.36-4.58-6.81c2.91-4.91,5.72-9.66,8.77-14.8c-2.14-3.4-4.07-6.48-6.06-9.65c-5.3,1.1-9.97,2.07-14.66,3.04
		c-2.24-1.35-4.26-2.57-6.58-3.97c-0.8,0.12-1.9,0.09-2.86,0.45c-7.3,2.69-14.55,5.48-21.85,8.17c-2.48,0.91-5.03,1.63-7.47,2.41
		c-2.45-1.36-4.5-2.5-6.59-3.66c-13.51,6.05-26.96,12.08-40.41,18.12c-1.71,0.77-3.35,2.2-5.09,2.33
		c-10.06,0.71-17.94,6.82-26.8,10.45c-12.9,5.29-25.77,10.63-38.64,15.98c-4.1,1.7-8.22,2.43-12.49,0.64
		c-3.16-1.33-6.3-1.04-9.4,0.21c-10.15,4.1-20.79,7.21-29.07,15c-3.38,3.18-7.73,3.36-12.56,2.71
		c-6.72,7.14-15.83,10.29-24.91,13.43c-1.02,0.35-2.48-0.6-4.15-1.05c-0.43-2.05-0.84-4.04-1.37-6.55
		c12.35-6.43,24.4-12.7,37.52-19.52c7.96-0.48,15.48-5.03,22.89-9.94c2.42-1.6,5-3.24,7.75-4.03c10.02-2.87,20.16-5.28,30.21-8.05
		c6.71-1.85,13.34-4.01,20.28-6.12c4.13-6.49,11.11-8.85,17.93-11.15c6.18-2.09,11.74-4.87,16.99-8.83
		c4.21-3.17,9.49-4.89,14.19-7.43c10.83-5.86,21.65-11.73,32.35-17.83c2.24-1.28,3.94-3.52,5.71-5.16
		c6.56-3.79,13.03-7.52,19.43-11.21c0.56-2.79,1.02-5.09,1.63-8.09c5.44-1.83,11.16-3.76,16.88-5.68
		C447.61,583.77,447.67,583.32,447.73,582.87z M1174.16,385.17c-5.35-4.67-10.28-2.12-14.95-1.61c-1.92,0.21-3.38,1.46-2.42,4.33
		C1162.41,389.75,1167.69,388.34,1174.16,385.17z"/>
	<path d="M611.62,421.08c-1.19,3.22-2.18,5.89-3.12,8.44c-4.2-0.08-3.63-3.79-5.52-5.97c-1.28-0.66-2.91-1.5-4.64-2.39
		c-1.67-4.23-3.34-8.43-5.13-12.96c-0.14-2.82-0.29-6-0.47-9.89c6.42-3.83,13.24-6.93,21.24-9.16c0.85,2.54,1.47,4.4,2.16,6.46
		c-2.57,1.74-4.72,3.2-6.8,4.61C607.42,407.5,609.04,414.17,611.62,421.08z"/>
</g>
</svg>
