<?xml version="1.0" encoding="utf-8"?>
<!-- Generator: Adobe Illustrator 27.4.0, SVG Export Plug-In . SVG Version: 6.00 Build 0)  -->
<svg version="1.1" id="Calque_1" xmlns="http://www.w3.org/2000/svg" xmlns:xlink="http://www.w3.org/1999/xlink" x="0px" y="0px"
	 viewBox="0 0 2000 2000" style="enable-background:new 0 0 2000 2000;" xml:space="preserve">
<path d="M558.94,1053.81c0.44,0.57,1.2,1.54,2.14,2.76c15.14,0.61,29.85-2.27,44.11-7.71c18.55-7.07,34.48-18.32,49.41-31.13
	c12.27-10.53,23.43-22.05,32.13-35.81c7.12-11.26,11.56-23.29,13.33-36.64c1.91-14.39,2.5-28.63-0.12-42.89
	c-2.87-15.64-6.72-30.99-15.26-44.73c-1.11-1.79-1.7-3.91-2.39-5.54c2.2-2.76,4.11-2.28,5.57-0.67c1.64,1.82,3.03,3.92,4.22,6.07
	c1.9,3.42,3.55,6.99,5.44,10.76c0.56-0.91,0.94-1.52,1.71-2.78c0.75,1.73,1.53,3.08,1.93,4.53c6.48,23.29,19.13,42.75,36.54,59.31
	c10.87,10.34,23.03,18.85,36.79,24.79c7.68,3.31,15.7,5.99,23.76,8.25c32.19,9,64.18,6.96,96.03-2.15
	c15.06-4.31,29.47-10.27,43.56-16.95c15.44-7.32,30.72-14.93,44.94-24.59c14.13-9.6,25.53-21.83,35.96-35.14
	c7.42-9.47,12.77-19.96,16.89-31.23c5.29-14.48,9.47-29.21,11.36-44.52c0.67-5.39,0.63-10.86,0.94-16.86
	c1.13-1.29,2.56-2.93,3.81-4.36c0.18-3.66,0.39-7.1,0.52-10.55c0.39-9.88-1.21-19.24-7.16-27.49c-1.59-2.21-3.11-4.51-4.29-6.95
	c-6.07-12.47-15.21-22.59-25.22-31.83c-7.44-6.86-15.7-12.84-23.81-18.93c-6.93-5.2-14.34-9.51-22.46-12.85
	c-10.06-4.13-19.7-9.3-29.42-14.2c-10.91-5.5-22.53-8.96-34.17-12.38c-4.74-1.39-9.56-2.52-14.38-3.6
	c-20.06-4.51-40.26-8.02-60.73-10.28c-18.82-2.08-37.61-1.84-56.42-0.9c-16.11,0.81-32.14,2.66-47.33,8.58
	c-13.52,5.27-26.11,12.08-35.19,23.91c-2.06,2.68-3.83,5.6-6.7,9.85c-0.11-2.88-0.61-4.34-0.13-5.33c1.5-3.1,3.01-6.3,5.15-8.95
	c5.48-6.78,11.97-12.25,19.72-16.63c17.66-9.98,36.69-14.84,56.64-16.12c15.8-1.01,31.7-1.72,47.51-1.16
	c14.53,0.52,29.04,2.64,43.49,4.56c10.29,1.37,20.52,3.31,30.66,5.52c9.17,2,18.18,4.7,27.67,7.2c0.2-1.62,0.36-2.89,0.62-4.98
	c2.03,0.85,4.13,1.15,5.38,2.34c7.24,6.91,16.54,9.8,25.46,13.42c11.02,4.46,22.1,8.81,32.02,15.52c8.7,5.88,18.69,7.86,28.75,9.14
	c19.26,2.44,38.06,0.25,56.15-7.06c7.19-2.91,13.64-6.94,19.19-12.44c12.01-11.89,22.35-25.13,31.85-39.06
	c0.97-1.43,2.01-2.89,2.61-4.49c5.3-14.12,13.03-27.25,16.77-42.01c0.92-3.65,1.7-7.63,5.29-11.47c0.44,2.03,0.95,3.09,0.86,4.11
	c-0.92,10.46-3.95,20.39-7.95,30.02c-3.21,7.72-6.76,15.3-9.29,23.7c1.33-1.15,2.72-2.24,3.97-3.47
	c9.77-9.62,20.39-18.01,33.08-23.58c13.95-6.12,28.66-7.81,43.61-6.9c5.01,0.3,9.94,2.78,14.78,4.58c2.26,0.84,4.21,2.45,4.41,5.25
	c-0.68,0.26-1.24,0.68-1.49,0.54c-11.12-6.28-23.17-6.37-35.39-5.42c-12.56,0.98-24.48,4.36-34.96,11.3
	c-8.87,5.87-16.95,12.83-24.53,20.4c-7.4,7.39-12.31,16.09-15.56,25.84c-1.09,3.28-1.66,6.72-2.51,10.08
	c-0.27,1.07-0.67,2.1-1.44,4.44c-1.65-10.07,2.71-17.68,3.38-26.23c-1.92,2.43-3.83,4.87-5.76,7.28
	c-6.65,8.33-13.37,16.58-21.6,23.47c-8.36,7.01-18.11,11.22-28.45,13.99c-15.97,4.28-32.2,5.45-48.6,2.69
	c-0.94-0.16-1.9-0.15-3.8-0.3c1.02,1.57,1.39,2.83,2.21,3.3c11.5,6.47,19.25,16.95,28.1,26.23c2.01,2.11,3.53,4.73,5.11,7.22
	c3.84,6.04,7.61,12.14,11.38,18.23c8.96,14.48,12.5,29.51,4.58,45.66c-0.05,22.83-5.07,44.54-12.74,66
	c-6,16.77-15.67,30.78-27.08,43.96c-1.42,1.64-2.75,3.34-4.25,5.17c0.98,0.31,1.48,0.66,1.88,0.56c8.63-2.12,17.17-4.68,25.88-6.38
	c16.59-3.25,32.48-1.42,47.08,7.88c4.46,2.84,7.25,6.76,8.23,11.83c0.7,3.62,0.87,7.35,1.29,11.19c0.91,0.85,1.97,1.84,3.45,3.22
	c-0.68,3.89-1.38,7.92-2.2,12.64c2.04-0.92,3.57-1.48,4.98-2.26c7.81-4.31,15.89-4.79,24.41-2.32
	c15.48,4.49,27.83,13.78,39.01,24.92c10.74,10.7,19.99,22.64,28.93,34.84c0.97,1.32,2.06,2.54,4.18,5.14
	c-0.66-3.06-0.87-4.48-1.27-5.84c-2.58-8.79-5.47-17.49-7.74-26.36c-2.97-11.6-3.38-23.51-2.81-35.4
	c0.33-6.76,2.82-13.09,6.36-18.84c6.2-10.09,15.76-14.71,27.21-15.75c19.69-1.79,37.74,3.65,54.9,12.84
	c16.24,8.69,31.28,19.08,44.75,31.68c1.69,1.58,3.52,3.01,6.1,3.68c-10.05-12.36-20.11-24.73-29.94-36.82
	c0.27-5.86-2.45-10.02-4.61-14.48c-6.15-12.69-12.38-25.37-17.77-38.39c-4.66-11.25-6.77-23.25-7.71-35.43
	c-0.93-12.1,0.12-23.78,6.45-34.52c-0.83-6.55,1.85-12.04,4.62-17.68c11.21-22.85,29.24-39.69,48.27-55.71
	c1.13-0.95,2.32-1.85,3.4-2.86c0.32-0.3,0.37-0.88,0.88-2.22c-5.39,1.66-10.27,3.06-15.09,4.66c-27.35,9.13-55.36,15.04-84.06,17.97
	c-16.67,1.7-33.12,0.89-49.55-1.85c-1.1-0.18-2.15-0.68-3.28-2.21c0.73-0.22,1.48-0.67,2.19-0.61c16.09,1.38,32.23,1.44,48.24-0.25
	c13.51-1.43,26.93-4.01,40.28-6.65c16.28-3.21,32.17-8.01,47.96-13.11c9.42-3.04,18.97-5.67,28.39-8.68c3.27-1.05,6.54-2.37,9.5-4.1
	c20.63-12.05,42.56-21.1,65.19-28.59c3.02-1,6.04-2.31,8.68-4.06c10.95-7.23,21.7-14.75,32.62-22.02
	c9.97-6.64,18.61-14.77,26.74-23.48c5.41-5.79,10.45-11.94,16.09-17.51c6.17-6.09,10.49-13.07,12.67-21.43
	c0.54-2.05,0.86-4.35,3.92-5.29c1.95,3.13,1.38,6.32,0.52,9.25c-2.17,7.41-5.26,14.26-10.97,19.92
	c-6.49,6.44-12.18,13.7-18.54,20.28c-9.66,9.99-20.06,19.15-31.74,26.78c-4.15,2.71-8.26,5.47-12.32,8.3
	c-0.93,0.65-1.6,1.67-3.14,3.31c6.48-0.73,11.84-1.31,17.2-1.96c13.59-1.65,27.16-1.51,40.76-0.11
	c23.79,2.45,46.55,8.85,68.99,16.91c7.73,2.78,15.21,5.94,22.46,9.7c3.5,1.82,6.89,3.95,10.09,6.26c4.11,2.98,7.33,6.7,7.72,12.57
	c-0.91,6.85-5.22,10.85-12.19,12.72c-6.2,1.67-12.18,4.2-18.41,5.75c-5.16,1.28-10.55,2.44-15.99,0.34c0.02-3.44,2.32-3.72,4.49-4.2
	c6.99-1.56,14.02-2.97,20.94-4.8c4.29-1.13,8.46-2.78,12.59-4.46c1.48-0.6,2.65-1.97,3.67-2.76c0.82-6.09-2.34-9.7-6.33-12.29
	c-5.58-3.63-11.33-7.28-17.48-9.71c-22.84-9.03-46.25-16.33-70.57-20.23c-20.2-3.24-40.45-3.16-60.67,0.16
	c-1.71,0.28-3.42,0.57-5.14,0.77c-7.44,0.86-14.19,3.1-20.8,7.01c-15.99,9.44-32.65,17.6-50.5,23.16
	c-9.44,2.94-18.83,6.2-27.88,10.15c-5.36,2.34-10.26,5.99-14.93,9.61c-12.95,10.03-25.1,20.98-35.43,33.76
	c-3.72,4.6-7.07,9.52-10.3,14.48c-2.42,3.73-4.4,7.74-6.53,11.66c-0.71,1.3-1.42,2.64-1.87,4.04c-2.1,6.58-4.02,13.22-6.15,19.79
	c-3.55,10.93-2.67,22.04-1.26,33.12c1.93,15.14,7.16,29.28,13.58,43.02c3.87,8.29,7.93,16.49,12.06,25.07
	c1.61-0.37,2.93-0.67,4.33-0.99c2.88,2.35,0.84,5.58,1.69,9.65c2.66,3.55,5.83,8.29,9.51,12.59c19.34,22.57,38.6,45.2,58.29,67.46
	c15.99,18.07,34.44,33.52,53.95,47.64c22.37,16.19,46.57,29.18,72.07,39.73c6.62,2.74,13.37,5.37,20.29,7.19
	c23.15,6.1,46.29,7.1,69.43-0.58c10.13-3.36,20.13-6.92,29.46-12.13c18.45-10.31,31.93-25.66,43.12-43.2
	c7.68-12.03,13.36-24.98,15.08-39.23c2.81-23.18-3-43.72-20.18-60.29c-5.85-5.64-13.01-9.02-20.78-11.05
	c-4.76-1.25-9.63-2.1-14.43-3.22c-0.6-0.14-1.07-0.82-1.58-1.23c0.72-2.86,2.91-2.49,4.79-2.4c18.71,0.85,34.17,7.97,44.28,24.24
	c10.38,16.7,15.32,34.79,12.05,54.61c-0.27,1.67-0.04,3.41-0.04,6.01c4.53-5.09,8.34-9.82,11.41-15.11
	c3.05-5.24,7.28-9.18,12.19-12.74c6.19-4.48,12.28-9.28,17.63-14.71c10.21-10.36,22.73-10.96,35.86-9.74
	c1.38,0.13,2.69,1.1,4.31,1.81c0,1.49,0,2.84,0,4.6c-1.72,0-3.16,0-4.6,0c-3.71,0.01-7.42-0.08-11.13,0.06
	c-7.92,0.31-14.86,2.74-20.74,8.5c-6.34,6.21-12.93,12.18-20.54,16.97c-2.83,1.78-5.26,4.62-7.09,7.48
	c-8.82,13.76-16.86,27.98-23.46,42.94c-6.47,14.66-10.31,29.79-9.14,46.13c1.97,27.57,10.69,52.7,25.32,76.01
	c10.85,17.29,23.26,33.26,38.13,47.29c17.98,16.97,38.3,29.83,62.79,34.94c22.15,4.62,44.16,4.09,64.42-6.92
	c19.43-10.56,29.98-27.53,31.14-49.9c0.46-8.96,0.21-17.84-4-26.12c-0.39-0.77-0.24-1.81-0.41-3.34c3.53,1.76,4.6,4.65,5.39,7.27
	c3.55,11.8,4.34,23.7,1.31,35.86c-2.2,8.8-5.91,16.75-11.07,24.14c-4.75,6.81-10.91,12.07-17.8,16.57
	c-9.95,6.49-21.01,9.69-32.67,11.16c-1.22,0.15-2.43,0.45-3.6,0.81c-0.39,0.12-0.64,0.67-1.22,1.32c2.06,0.47,3.96,0.85,5.81,1.35
	c7.63,2.05,15.24,4.19,22.87,6.21c8.13,2.15,16.2,4.66,24.45,6.21c11.73,2.2,17.51,10.39,21.86,20.21c1.46,3.3,2.07,6.93,0.32,11.74
	c-1.22-2.34-2.01-3.7-2.67-5.13c-1.65-3.58-2.95-7.36-4.93-10.74c-3.12-5.32-7.59-8.65-13.99-9.97
	c-11.36-2.35-22.61-5.12-33.69-8.84c-10.49-3.52-21.52-5.68-32.77-5.89c-8.91-0.16-17.81-0.6-26.72-0.7
	c-9.28-0.1-18.23,1.94-26.85,5.22c-21.59,8.2-40.24,20.3-52.35,40.69c-12.61,21.22-13.56,43.53-5.79,66.54
	c0.47,1.39,1.17,2.78,2.07,3.93c8.33,10.55,14.78,22.27,21.16,34.02c5.15,9.48,12.03,17.42,19.68,24.95
	c10.48,10.3,21.5,19.78,34.36,27c2.48,1.4,5.03,2.97,6.22,6.07c-9.6-0.45-18.66-6.23-40.58-25.69c0.54,3.9,0.68,3.8,3.54,7.82
	c4.44,6.25,9.07,12.42,12.88,19.05c4.84,8.43,7.59,17.62,7.25,28.74c-1.56-1.43-2.6-1.98-2.98-2.82c-1.23-2.7-2.59-5.43-3.23-8.29
	c-2.46-10.97-8.76-19.81-15.51-28.34c-7.27-9.18-12.98-19.24-18.27-29.62c-1.9-3.72-4.23-7.27-6.76-10.61
	c-6.9-9.1-13.22-18.49-18.22-28.83c-2.44-5.06-6.11-9.56-9.42-14.17c-4.47-6.24-9.33-12.21-13.66-18.53
	c-12.24-17.87-26.44-34.01-42.85-48.11c-23.08-19.84-49.79-32.29-79.76-37.26c-15.23-2.53-30.67-2.47-45.68,1.8
	c-20.17,5.73-34.23,18.37-41.08,38.45c-4.55,13.33-5.63,27.17-4.82,41.08c1.16,19.92,6.41,39.01,13.04,57.74
	c1.57,4.44,3.62,8.58,6.72,12.3c8.12,9.74,10.91,21.55,11.79,33.8c0.53,7.4,0.15,14.86,0.13,22.3c0,0.66-0.42,1.32-0.92,2.77
	c-1-1.3-2.11-2.1-2.22-3.01c-0.64-5.39-1.35-10.8-1.47-16.22c-0.23-10.6-2.54-20.57-7.72-29.86c-3.2-5.73-7.7-10.4-12.73-14.4
	c-7.49-5.94-17.3-4.32-22.44,3.73c-2.49,3.9-4.72,8.29-5.72,12.77c-3.34,15.02-7.97,29.6-13.31,44.01
	c-1.78,4.81-2.78,10.03-3.32,15.14c-1.34,12.53-2.21,25.11-3.28,37.68c-0.1,1.21-0.29,2.41-0.65,5.39c-1.16-2.67-2.1-3.82-2.08-4.96
	c0.12-9.65,0.4-19.3,0.65-28.95c0.04-1.44,0.16-2.88,0.32-5.55c-9.57,12.08-16.86,24.65-29.03,32.79c-0.69,0.46-1.71,0.42-3.17,0.74
	c0.53-4.4,3.39-6.46,5.66-8.88c10.19-10.89,19.7-22.29,26.04-35.94c1.65-3.55,2.85-7.36,3.75-11.17
	c3.15-13.25,6.31-26.51,11.41-39.17c6.26-15.54,8.94-31.85,10.94-48.33c2.2-18.16-0.09-36.01-3.19-53.91
	c-2.3-13.26-7.06-25.76-10.44-38.67c-0.5-1.91-0.9-3.84-1.45-5.73c-1.17-4.04-1.91-8.29-3.71-12.03
	c-5.56-11.53-13.97-18.87-27.78-18.57c-12.01,0.26-23.12,2.98-32.69,10.35c-3.67,2.82-6.58,6.63-9.81,10.01
	c-1.82,1.9-2.6,4.9-5.74,5.37c-2.27-0.8-2.37-2.51-1.55-4.2c4.08-8.46,9.91-15.61,18.32-19.83c7.47-3.76,15.25-7.01,23.84-7.91
	c3-0.32,6.17-1.99,8.64-3.86c14.45-10.97,24.43-25.07,29.3-42.7c5.81-21.04,7.16-42.4,5.11-64.06c-0.69-7.23-3.09-13.97-5.5-20.76
	c-1.9-5.34-3.19-10.89-4.96-16.29c-1.23-3.75-2.53-7.53-4.27-11.06c-7.24-14.65-14.54-29.27-22.09-43.76
	c-2.5-4.81-5.59-9.35-8.8-13.74c-10.4-14.23-22.09-27.35-34.84-39.53c-10.75-10.27-21.12-20.93-31.99-31.07
	c-16.78-15.67-35.72-28.32-56.57-37.87c-12.52-5.73-25.94-8.24-39.76-7.38c-18.09,1.12-29.67,12.76-31.23,30.77
	c-1.15,13.24,0.46,26.3,3.56,39.04c3.04,12.47,7.1,24.71,11.28,36.85c1.83,5.31,4.89,10.25,7.74,15.15
	c15.74,27.14,27.11,56.15,36.79,85.88c5.6,17.2,10.39,34.62,13.82,52.38c6.08,31.53,7.79,63.39,6.19,95.41
	c-1.05,21.04-3.42,41.95-8.04,62.54c-4.84,21.58-12.2,42.33-21.21,62.5c-3.25,7.27-7.31,14.13-12.66,20.02
	c-3.13,3.44-6.94,6.31-10.68,9.11c-2.37,1.78-5.03,2.06-7.17-1.47c0.82-0.83,1.49-2,2.48-2.41c8.96-3.77,14.51-11.02,19.21-19
	c7.7-13.08,12.99-27.24,17.88-41.55c5.53-16.19,10.08-32.67,12.29-49.64c1.82-13.98,3.23-28.05,3.9-42.12
	c1.07-22.3,0.12-44.61-2.57-66.78c-2.54-20.94-7.4-41.43-13.5-61.6c-9.84-32.54-21.78-64.24-37.97-94.23
	c-13.74-25.45-30.22-48.87-50.77-69.29c-8.44-8.38-17.2-16.54-28.75-20.63c-3.49-1.24-7.05-2.35-10.66-3.14
	c-10.71-2.36-19.77,1-26.6,9.25c-11.37,13.72-16.57,29.66-15.46,47.55c0.22,3.55,1.22,6.72,3.31,9.67c1.91,2.69,2.9,5.71,0.75,9.43
	c-1.12-0.51-2.47-0.69-3.11-1.47c-3.86-4.67-6.4-9.78-6.39-16.17c0.03-11.25,2.41-22.03,5.85-33.81c-1.67,1.15-2.72,1.8-3.69,2.56
	c-3.51,2.74-6.89,5.65-10.51,8.25c-2.63,1.89-5.6,3.13-9.21,1.95c-0.68-3.18,1.31-4.73,3.53-5.72c6.55-2.92,11.03-8.2,15.99-13.06
	c8.27-8.11,12.34-18.35,15.87-27.88c-1.06-5.1-2-9.15-2.74-13.25c-0.9-4.95-3.5-8.46-7.79-11.16c-10.04-6.32-20.95-8.6-32.64-7.94
	c-9.73,0.55-18.87,3.87-28.31,5.8c-8.7,1.77-16.01,6.17-23.45,10.71c-11.61,7.1-23.68,13.44-35.4,20.38
	c-28.01,16.61-54.17,35.84-77.82,58.19c-18.71,17.68-33.37,38.54-43.45,62.38c-6.76,15.97-12.99,32.09-16.46,49.21
	c-3.91,19.28-5.65,38.71-5.07,58.35c0.08,2.64,0.93,5.25,1.7,9.32c-0.68,4.42-0.22,10.21,0.86,16.14
	c6.14,33.81,19.81,64.8,35.3,95.08c6.99,13.66,14.68,26.98,22.55,40.16c11.43,19.16,24.43,37.28,38.07,54.93
	c20.21,26.15,43.01,49.88,67.58,71.94c6.46,5.8,13.26,11.19,21.16,14.95c8.16,3.88,16.61,6.45,25.83,5.37
	c5.74-0.67,10.45-3.1,13.7-7.9c5.32-7.83,4.21-15.59-3.04-22.51c-8.45-1.73-14.24,3.98-22.09,8.69c0.98-2.46,1.13-3.64,1.78-4.34
	c4.35-4.67,10.13-6.98,15.8-9.37c10.05,0.38,15.89,6.38,15.62,16.64c-0.25,9.32-4.11,16.76-12.84,21.02
	c-7.12,3.48-14.58,4.5-22.41,2.99c-12.83-2.47-23.61-9.1-33.19-17.41c-20.43-17.72-38.96-37.34-56.83-57.65
	c-21.52-24.46-40.34-50.87-56.94-78.79c-20.94-35.2-39.23-71.72-50.67-111.28c-2.13-7.36-3.68-14.91-5.28-22.41
	c-1.14-5.34-1.68-10.66-0.21-16.17c0.8-3.01,0.35-6.4,0.17-9.6c-0.97-17.87,0.03-35.6,2.97-53.28
	c5.11-30.67,15.76-59.16,32.22-85.56c13.42-21.52,30.86-39.22,50.7-54.76c7.18-5.62,14.33-11.29,22.71-17.9
	c-4.05,0.13-6.32,1.18-8.62,2.06c-14.86,5.66-30.12,9.7-45.85,12.14c-14.07,2.18-28.17,2.36-42.23,0.8
	c-17.8-1.98-35.03-6.4-51.27-14.23c-11.2-5.4-21.6-11.94-31.29-19.79c-15.66-12.7-28.08-27.83-36.93-45.94
	c-0.3-0.61-0.92-1.07-2.35-2.67c0.37,3.21,0.48,5.23,0.84,7.21c4.2,22.62,2.7,44.9-4.27,66.76c-4.6,14.43-13.2,26.55-23.11,37.76
	c-14.72,16.64-31.79,30.52-50.81,41.95c-8.92,5.36-18.21,10.05-28.42,12.6c-2.76,0.69-5.44,1.67-8.12,3.77
	c7.05,1.61,14.05,4.17,21.16,4.57c7.09,0.39,13.63,2.05,20.22,4.18c3.99,1.29,8.01,2.6,12.11,3.39c7.71,1.49,14.55,4.65,20.78,9.4
	c2.73,2.08,5.69,4.02,8.82,5.41c9.19,4.07,12.02,12.39,13.25,20.99c1.15,8.04-3,21.36-15.23,26.69c-5.98,2.61-11.93,4.97-18.4,3.35
	c-13.76,5.77-27.61,5.69-41.81,3.33c-10.07-1.67-20.14-1.52-29.84,2.79c-6.32,2.81-12.91,5-19.35,7.53
	c-7.87,3.1-15.43,6.67-20.79,13.63c-0.4,0.52-1.24,0.79-1.92,0.96c-0.38,0.1-0.87-0.25-1.75-0.56c0.21-0.82,0.17-1.89,0.68-2.48
	c7.14-8.05,15.02-15.04,25.58-18.42c5.42-1.73,10.71-3.86,16.04-5.87c1.27-0.48,2.45-1.22,3.78-1.9
	c-6.65-3.24-12.78-6.17-18.83-9.26c-0.7-0.36-0.96-1.57-1.58-2.66c3.85-1.25,6.56,1.03,9.42,2.06c9.34,3.37,18.87,5.85,28.68,7.33
	c4.14,0.62,8.31,2.17,12.38,1.93c7.67-0.45,15.2,1.14,22.77,0.81c4.39-0.19,8.73-1.67,13.08-2.6c2.63-0.56,5.23-1.33,7.88-1.77
	c7.23-1.21,13.72-3.92,18.86-8.44c1.03-3.68,1.64-6.85,2.82-9.81c2.21-5.56,0.76-10.41-2.99-14.42
	c-5.74-6.12-11.4-12.48-19.85-15.17c-1.61-0.51-3.2-1.46-4.48-2.57c-2.77-2.4-5.97-3.15-9.48-3.74c-4.61-0.78-9.09-2.31-13.63-3.5
	c-5.01-1.31-10.02-2.59-15.04-3.88c-1.67-0.43-3.37-0.77-5-1.33c-5.88-2.02-11.87-3.42-18.13-3.52c-1.73-0.03-3.49-0.13-5.16-0.52
	c-15.74-3.73-31.51-2.76-47.25-0.16c-22.26,3.69-44.22,8.67-65.37,16.7c-19.56,7.42-37.87,17.22-54.58,29.84
	c-8.33,6.29-15.38,14.01-21.81,22.2c-8.74,11.11-16.92,22.57-22.42,35.78c-5.68,13.66-8.53,27.88-9.75,42.51
	c-0.22,2.68-0.42,5.36-0.62,8.03c-3.14-0.11-2.95-2.27-2.93-3.8c0.06-6.68,0.34-13.36,0.55-20.04c0.04-1.12,0.11-2.24,0.2-4.17
	c-5.35,2.88-1.61,10.01-6.99,11.78c-2.68-7.48-1.7-10.98,5.46-18.3c0.93-7.71,4.44-15.07,8.4-22.24c3.91-7.07,5.66-14.86,6.77-22.68
	c3.48-24.64,0.2-48.53-10.46-71c-8.23-17.35-22.51-27.35-41.68-29.6c-16.2-1.9-31.46,1.25-45.81,9.28
	c-16.18,9.05-30.22,20.64-42.7,34.25c-3.23,3.52-5.55,7.19-5.74,12.42c-0.98,26-11.01,47.93-30.48,65.4
	c-1.11,0.99-2.13,2.07-3.88,3.79c-1.78,7.91-4.14,16.52-5.6,25.29c-3.22,19.28-6.27,38.61-8.84,57.98
	c-1.75,13.24-2.44,26.61-3.85,39.9c-1.39,13.03-3.14,26.02-4.67,39.04c-1.91,16.22-4.07,32.42-4.76,48.77
	c-0.1,2.42-0.6,4.83-1.93,7.38c-0.46-1.15-1.33-2.3-1.31-3.44c0.08-7.9-0.09-15.84,0.64-23.69c1.85-19.98,4.11-39.92,6.24-59.87
	c2.44-22.9,4.61-45.84,7.49-68.69c1.86-14.72,4.8-29.3,7.26-43.95c0.65-3.86,1.31-7.72,2.1-12.32c-7.84,1.8-13.13,8.46-21.29,7.48
	c-0.5-2.59,1.29-3.52,2.89-4.52c5.26-3.26,10.58-6.43,15.78-9.78c2.06-1.32,3.89-2.99,5.57-4.31c7.02-25.75,17-49.62,32.74-71.21
	c-0.13-3.06-0.09-6.27-0.45-9.43c-0.99-8.69-4.02-16.85-7.14-24.92c-2.89-7.47-8.62-12.78-15.41-16.53
	c-3.27-1.81-7.51-1.88-11.53-2.79c-1.48-2.98-1.48-2.98-0.8-7.33c-4.79-1.01-9.66-1.84-14.4-3.12c-2.83-0.76-5.58-2.02-8.12-3.47
	c-0.99-0.56-1.32-2.28-2.39-4.29c2.04,0,3.26-0.28,4.29,0.04c17.53,5.52,35.58,6.79,53.66,5.14c20.05-1.82,37.77-9.65,52.13-24.19
	c4.04-4.09,7.27-8.72,8.99-14.34c0.64-2.09,1.95-3.97,2.89-5.98c1.7-3.63,3.17-7.3,1.8-11.78c-4.27-6.08-11.06-8.37-18.09-10.1
	c-3.87-0.95-7.79-1.7-10.87-4.44c-1-0.89-1.68-2.15-2.46-3.19c1.72-2.52,3.7-2.08,5.6-1.59c11.29,2.93,21.97,0.6,32.72-3.07
	c8.47-2.9,12.76-12.28,10.39-20.41c-3.91-13.41-11.16-24.81-22.22-33.5c-17.31-13.6-36.6-22.62-58.8-24.58
	c-11.1-0.98-22.19-2.06-33.3-2.77c-10.49-0.66-20.76,1.43-30.89,3.74c-9.26,2.11-17.93,5.76-24.73,12.84
	c-0.64,0.67-1.65,1-2.51,1.43c-0.17,0.08-0.47-0.1-0.77-0.18c-1.75-1.64-0.69-3.39,0.45-4.48c3.21-3.04,6.4-6.27,10.13-8.56
	c9.24-5.66,19.77-7.78,30.27-9.63c17.04-3.01,34.07-1.36,51.07,0.73c1.97,0.24,3.92,0.56,5.89,0.77c0.45,0.05,0.94-0.22,1.95-0.47
	c-7.04-6.76-16.24-11.35-20.05-22.54c2.31,0.91,3.45,1.12,4.29,1.74c1.99,1.46,3.92,3.04,5.74,4.71
	c17.73,16.35,38.78,23.23,62.66,22.07c10.03-0.49,18.63-4.62,26.38-10.72c3.48-2.74,9.54-14.2,9.6-18.85
	c0.15-11.63,0-23.27-0.14-34.91c-0.02-1.7-0.46-3.45-0.96-5.1c-6.59-21.8-15.57-42.4-31.68-59c-8.79-9.06-18.13-17.61-27.52-26.05
	c-13.63-12.25-27.27-24.51-42.48-34.87c-10.9-7.42-22.21-14-34.84-18.03c-11.82-3.77-23.86-4.69-35.89-1.44
	c-18.35,4.95-29.79,16.74-34.26,35.37c-3.05,12.71-3.07,25.51-2.16,38.41c0.15,2.15,0.02,4.33,0.02,7.89
	c-1.32-1.92-2.33-2.72-2.41-3.62c-1.47-14.83-1.94-29.55,1.24-44.35c5.64-26.25,25.65-39.78,47.95-41.37
	c16.34-1.17,31.33,3.33,45.51,11.13c20.77,11.42,39.05,26.2,56.65,41.89c9.77,8.71,19.52,17.46,29.88,26.74
	c-0.7-2.12-1.2-3.68-1.73-5.22c-2.7-7.97-5.85-15.82-8.01-23.94c-6.05-22.74-6.05-45.54,0.55-68.24
	c7.99-27.43,26.61-44.2,53.56-51.55c12.44-3.39,25.12-2.05,36.45,5.29c0.33,0.21,0.44,0.78,0.78,1.42
	c-1.35,1.71-2.96,0.77-4.57,0.44c-5.32-1.1-10.62-2.41-15.99-3.1c-11.59-1.5-21.88,2.71-31.94,7.77
	c-23.16,11.65-33.63,31.66-37.67,56.21c-3.82,23.26,0.68,45.32,8.6,67c1.96,5.35,3.87,10.73,6.28,15.88
	c2.4,5.13,5.33,10.02,8.16,14.95c2.35,4.08,5.26,7.86,7.27,12.09c5.41,11.37,13.87,19.86,24.34,26.41
	c15.4,9.63,32.16,15.22,50.44,15.9c6.54,0.25,12.82-0.97,18.98-2.96c3.83-1.24,7.09-3.17,9.38-6.81c2.09-3.33,4.97-6.15,7.32-9.33
	c3.39-4.59,6.38-9.37,7.94-15.01c1.24-4.49,4.06-8.12,7.6-12.09c2.01,3.67,1.27,6.12-0.04,8.54c-0.83,1.52-1.85,2.97-2.41,4.58
	c-0.34,0.99,0.03,2.22,0.12,4.06c3.63-2.05,6.63-3.69,9.57-5.43c5.14-3.04,10.77-3.56,16.52-3.09c1.21,0.1,2.32,1.28,3.97,2.25
	c-2.22,2.56-4.7,2.86-7.05,2.85c-10.79-0.04-18.63,5.81-25.95,12.75c-14.91,14.13-22.07,32.04-24.78,51.94
	c-3.35,24.57,0.89,48.34,8.32,71.72c9.79,30.81,25.09,58.67,44.97,84.07c16.5,21.09,36.11,38.71,59.15,52.46
	c8.61,5.14,17.8,8.76,27.54,10.92C549.49,1053.02,553.71,1053.18,558.94,1053.81z M1684.83,1351.26c-0.3-4.43-0.3-7.05-0.67-9.61
	c-3.31-22.96,2.9-43.66,17.37-61.08c20.59-24.8,47.35-38.49,80.14-39.05c1.75-0.03,3.5-0.23,5.24-0.35
	c-2.76-1.82-5.57-2.48-8.35-3.26c-19.48-5.45-36.12-15.98-51.34-28.94c-10.21-8.69-19.01-18.7-27.5-29.11
	c-13.74-16.86-24.41-35.43-32.95-55.3c-5.8-13.51-8.75-27.8-10.77-42.32c-1.76-12.64-1.72-25.15,1.85-37.51
	c0.67-2.32,1.12-4.69,1.67-7.04c-2.05,1.04-3.12,2.55-4.18,4.08c-12.62,18.27-28.22,33.15-48.71,42.31
	c-6.53,2.92-13.31,5.32-20.03,7.79c-15.09,5.55-30.8,7.37-46.72,6.63c-6.08-0.28-12.13-2.09-18.09-3.61
	c-3.53-0.9-6.83-2.68-10.28-3.92c-3.49-1.26-7.09-2.23-10.57-3.51c-40.62-14.97-77.32-36.57-110-64.97
	c-0.94-0.82-2.06-1.45-3.82-2.66c5.58,10.61,10.64,20.18,15.67,29.76c10.36,19.75,19.35,40.08,26.35,61.28
	c3.21,9.73,5.01,19.69,5.46,29.85c0.63,14.15-0.48,28.21-2.99,42.17c-3.74,20.79-11.95,39.22-27.83,53.71
	c-1.22,1.12-2.26,2.44-3.75,4.07c12.53,3.12,20.34,10.92,25.44,21.65c1.69,3.55,2.94,7.37,3.94,11.19
	c3.67,14.12,7.41,28.23,10.64,42.45c3.57,15.71,6.43,31.61,5.89,47.8c-0.3,9.12-1.61,18.23-2.72,27.31c-0.41,3.34-1.55,6.6-2.35,9.9
	c7.61-6.6,15.71-5.99,24.67-2.63c-0.53-1.85-0.79-2.74-1.04-3.64c-3.13-11.19-6.73-22.27-9.26-33.59c-4.1-18.35-4.38-36.9-0.15-55.3
	c4.75-20.63,15.67-36.56,35.45-45.81c8.43-3.95,17.09-6.15,26.28-7.22c17.25-2.01,34.11-0.45,50.66,4.5
	c5.91,1.76,11.56,4.37,17.39,6.4c22.67,7.9,42.07,21.04,58.79,37.95c13.04,13.19,25.36,27.11,35.55,42.74
	C1680.5,1346.3,1682.18,1348.01,1684.83,1351.26z M267.1,872.61c7,5.05,12.61,8.71,17.79,12.9c12.5,10.12,20.97,22.91,24.67,38.71
	c1.25,5.35,0.51,10.31-2.17,15.03c-0.86,1.51-1.85,2.94-2.63,4.49c-2.01,4-5.12,6.47-9.46,7.72c-3.73,1.06-7.32,2.62-11.51,4.16
	c2.33,3.25,4.97,5.29,7.14,7.09c1.9-0.17,3.17-0.29,4.63-0.42c0.39,5.07-2.01,8.75-3.02,12.77c-2.74,10.82-8.63,20.05-15.86,28.14
	c-12.83,14.36-29.48,22.42-48.29,25.63c-7.75,1.33-15.77,1.08-23.67,1.57c-1.56,0.1-3.26-0.5-5.06,0.64
	c0.9,0.81,1.35,1.39,1.94,1.72c10.21,5.67,17.25,13.99,20.73,25.14c1.99,6.36,3.64,12.83,5.46,19.25c0.38,1.35,0.85,2.67,1.51,4.71
	c1.77-1.54,3.13-2.5,4.23-3.71c9.03-9.97,19.31-18.53,30.4-26.05c18.1-12.26,37.75-19.4,60.11-17.14
	c19.48,1.97,34.38,11.49,43.58,28.38c12.68,23.27,16.53,48.49,13,74.8c-0.31,2.35-0.42,4.72-0.73,8.37
	c3.86-2.87,5.54-5.91,7.39-8.68c5.41-8.08,11.74-15.34,18.83-21.94c17.1-15.9,37.04-27.34,58.54-36
	c20.47-8.25,41.71-14.01,63.55-17.48c4.39-0.7,8.78-1.58,13.88-2.9c-6.9-2.87-12.98-4.93-18.63-7.83
	c-22.53-11.57-41.82-27.42-58.4-46.42c-32.23-36.93-54.04-79.05-62.77-127.65c-4.3-23.91-3.14-47.27,4.91-70.24
	c0.35-1.01,0.42-2.12,0.76-3.87c-33.17,10.07-60.74-1.3-86.74-19.61c-0.14,0.84-0.43,1.4-0.27,1.77c4.5,10.6,3.95,21.85,4.05,32.95
	c0.06,6.66,0.09,13.49-1.26,19.95c-3.28,15.68-12.29,26.77-28.17,31.4c-7.41,2.16-14.92,3.58-22.71,2.66
	C271.47,872.47,270.06,872.61,267.1,872.61z M199.66,1152.1c10.97-7.51,22.27-31.84,22.29-47.96
	C214.98,1109.72,200.58,1140.71,199.66,1152.1z"/>
</svg>
