<?xml version="1.0" encoding="utf-8"?>
<!-- Generator: Adobe Illustrator 27.4.0, SVG Export Plug-In . SVG Version: 6.00 Build 0)  -->
<svg version="1.1" id="Calque_1" xmlns="http://www.w3.org/2000/svg" xmlns:xlink="http://www.w3.org/1999/xlink" x="0px" y="0px"
	 viewBox="0 0 2000 2000" style="enable-background:new 0 0 2000 2000;" xml:space="preserve">
<g>
	<path d="M664.05,153.14c-0.87,0.62-1.67,1.58-2.63,1.8c-7.9,1.81-13.64,7.08-19.18,12.34c-22.19,21.05-42.8,43.52-60.65,68.44
		c-13.77,19.23-27.5,38.47-39.34,58.97c-24.99,43.26-46.04,88.3-60.99,136.05c-7.57,24.17-14.24,48.64-17.71,73.75
		c-3.2,23.15-5.55,46.42-7.8,69.68c-2.45,25.21-3.32,50.5-2.86,75.84c0.42,22.58,1.61,45.05,5.96,67.31
		c1.89,9.66,5.95,18.23,10.38,26.77c0.31,0.59,1.23,0.87,2.44,1.68c0-1.79,0.22-3.05-0.03-4.2c-5.23-23.42-8.19-47.15-9.17-71.11
		c-0.69-17.03-1.42-34.09-1.31-51.12c0.22-33.94,4.37-67.48,11.48-100.68c8.23-38.37,20.56-75.33,37.15-110.87
		c18.07-38.72,41.07-74.17,71.61-104.22c11.33-11.15,23.99-21.02,36.53-30.84c13.88-10.87,28.9-20.09,44.51-28.33
		c12.09-6.38,25.01-10.23,38.46-11.79c12.12-1.41,24.25-0.7,35.07,6.12c6.05,3.81,11.23,8.55,15.16,16.18
		c-2.52-0.45-4.17-0.33-5.31-1.02c-2.81-1.7-5.45-3.72-8.07-5.73c-7.96-6.08-16.99-8.6-26.92-8.93
		c-18.53-0.62-35.25,5.35-51.14,13.95c-25.75,13.94-49.27,30.96-70.62,51.13c-10.85,10.25-21,21.05-30.04,32.82
		c-18.01,23.43-32.46,49-44.48,75.99c-16.53,37.12-28.55,75.59-35.94,115.56c-8.8,47.67-10.22,95.61-6.39,143.85
		c1.88,23.63,5.1,47.02,10.06,70.17c1.09,5.09,2.61,10.13,4.34,15.04c2.5,7.11,6.51,13.25,12.31,18.26
		c10.21,8.84,20.6,17.42,32.25,24.32c12.75,7.55,26.29,12.43,41.4,12.23c9.33-0.12,16.94-3.58,23.77-9.8
		c13.08-11.91,17.98-27.34,19.52-44.19c0.55-6,0.31-12.11-0.01-18.14c-0.17-3.2-1.31-6.36-1.92-9.14
		c-6.58-4.81-16.46-5.57-16.12-15.92c1.5-4.21,4.56-4.89,8.11-4.46c4.95,0.6,8.65,3.33,11.63,7.14c1.5,1.92,2.88,3.94,4.22,5.78
		c18.77-5.02,31.45-25.71,23.95-48.34c-0.58-1.76-1.81-3.37-2.95-4.89c-2.76-3.67-5.64-7.25-8.93-11.45
		c-2.29-0.58-5.52-1.2-8.62-2.24c-5.18-1.73-5.64-2.66-5.55-9.64c1.1-0.77,2.38-1.77,3.75-2.62c10.36-6.49,22.33-3.9,27.18,12.04
		c0.63,2.08,0.94,4.26,1.58,6.34c0.22,0.72,0.99,1.27,1.59,2c5.56-0.49,9.06-3.69,12.3-7.93c0-2.34,0.08-4.79-0.02-7.24
		c-0.22-5.58,2.1-10.26,5.66-14.19c1.53-1.7,4.11-2.72,6.4-3.37c1.28-0.36,2.95,0.69,4.35,1.08c1.87,8.34-3.18,14.66-4.97,21.63
		c1.84,5.48,6.4,7.62,10.95,9.48c8.41,3.45,17.21,3.43,26,1.85c19.74-3.53,35.13-13.56,45.8-30.73
		c9.33-15.02,16.32-30.89,14.52-48.94c-2.54-25.43-13.25-46.34-36.36-59.36c-4.79-2.7-9.86-4.88-14.68-7.54
		c-9.31-5.14-18.45-4.32-28,0.61c-0.32,2.93-0.66,6.11-0.98,9.05c-8.84,4.78-13.34,3.18-17.55-6.06
		c-7.11-0.78-15.43,3.21-21.49-4.97c1.06-1.3,1.78-3.01,3.03-3.6c8.5-4.01,17.08-7.6,26.93-6c2.86,0.47,5.94-0.36,8.92-0.61
		c5.73-0.48,11.45-1.04,17.19-1.45c5.19-0.37,10.46-0.16,15.58-0.96c32.49-5.05,56.98,7.46,74.83,34.11
		c13.41,20.03,18.31,42.24,14.65,66.1c-1.54,10.04-3.41,20.08-6.06,29.87c-1.7,6.29-4.77,12.29-7.85,18.1
		c-3,5.66-7.48,10.15-13.27,12.67c-7.07,0.86-10.1-3.58-13.08-8.45c0.94-1.96,1.74-3.61,2.5-5.19c-0.64-0.53-1-1.11-1.41-1.14
		c-9.82-0.79-18.39,2.89-26.4,7.9c-13.82,8.65-26.21,19.09-37.41,30.96c-20.27,21.49-33.44,46.86-41.68,75.04
		c-8.6,29.4-12,59.21-8.28,89.73c1.51,12.37,4.8,24.26,9.08,35.91c0.93,2.53,1.78,5.09,1.76,8.26c-0.88-1.04-2.06-1.95-2.58-3.15
		c-2.76-6.28-5.81-12.48-7.93-18.98c-6.52-19.93-7.57-40.52-5.9-61.22c1.34-16.73,4.31-33.2,8.91-49.44
		c9.68-34.19,26.77-63.74,52.94-87.93c2.37-2.19,4.68-4.46,8.13-7.76c-2.89,0.18-4.36,0.11-5.77,0.38
		c-8.95,1.73-17.89,2.92-27.05,1.79c-7.23-0.89-14-2.8-20.07-6.93c-1.12-0.76-2.39-1.29-3.63-1.94c-5.21,2.74-10.27,5.4-15.93,8.38
		c0.25,3.51,0.55,7.29,0.78,11.07c0.83,13.58-2.83,25.73-12.52,35.44c-3.61,3.62-8.35,6.15-12.71,8.97
		c-2.03,1.32-4.39,2.13-6.6,3.18c0,7.72,0.17,15.13-0.04,22.52c-0.37,13.05-2.61,25.73-8.69,37.46c-9,17.37-26.66,32.2-52.01,28.52
		c-5.69-0.83-11.56-1.73-16.84-3.85c-8.38-3.37-16.72-7.2-24.38-11.94c-8.39-5.19-15.97-11.67-23.95-17.52
		c-3.7-2.71-7.53-5.25-11.58-7.53c-5.71-7.22-11.36-14.58-19.45-21.68c0.16,2.38,0.07,3.53,0.34,4.59
		c2.14,8.34,8.39,14.1,13.33,20.63c8.28,10.96,16.74,21.8,25.41,32.46c8.5,10.45,17.33,20.64,26.06,30.9
		c8.73,10.26,17.59,20.41,26.24,30.73c4.41,5.26,8.85,10.55,12.65,16.25c9.17,13.72,18,27.66,26.9,41.55
		c7.16,11.18,10.13,23.7,11.2,36.74c1.08,13.19,1.4,26.41-0.39,39.54c-0.62,4.53-2.03,9.2-4.2,13.21
		c-5.49,10.15-17.92,13.14-27.78,7.18c-0.85-0.51-1.42-1.48-2.27-2.39c1.83-3.23,4.19-3.38,7.13-2.52c3.08,0.9,6.26,1.47,8.9,2.07
		c6.69-4.66,9.07-10.75,9.86-17.43c2.06-17.6,1.55-35.16-1.91-52.58c-1.58-7.96-5.33-15.08-9.64-21.79
		c-9.66-15.04-19.64-29.89-29.66-44.7c-2.61-3.85-5.55-7.59-8.87-10.84c-10.87-10.65-19.73-22.91-28.84-34.98
		c-4.27-5.65-8.77-11.12-14.42-18.26c0,3.06-0.3,4.11,0.04,4.89c8.97,20.31,13.38,41.89,17.28,63.54
		c3.6,20.02,6.93,40.13,9.32,60.33c2.32,19.68,2.58,39.55,1.65,59.36c-0.99,21.16-2.17,42.32-3.77,63.44
		c-1.57,20.76-7.24,40.57-15.59,59.6c-1.84,4.2-4.1,8.21-6.6,13.17c5.6,1.11,10.35,2.36,15.18,2.96
		c26.34,3.25,52.66,2.94,79.03-0.12c34.36-3.98,67.53-12.98,100.13-23.97c83.12-28.05,159.82-68.18,227.95-123.83
		c23.44-19.15,45.79-39.46,66.01-62.17c14.68-16.49,29.01-33.1,40.28-52.14c3.08-5.19,5.68-10.68,8.28-16.14
		c1.14-2.4,2.58-4.94,1.1-8.27c-2.29-0.72-4.85-1.53-7.14-2.25c-3.12-5.9-2.24-9.5,3.05-13.49c8.07-6.09,12.09-5.72,21.02,2.09
		c8.55-3.85,16.16-9.21,22.23-16.48c5.88-7.02,8.22-15.5,8.28-24.52c0.06-9.3-3.74-12.85-14.17-13.51c-0.35,1.99-0.71,4.04-1.18,6.7
		c-2.2,1.03-4.63,2.16-7.31,3.41c-1.96-1.41-3.85-2.53-5.42-3.98c-1.6-1.49-2.88-3.31-4.49-5.21c-2.94-1.64-7.92,0.26-9.74-5.11
		c2.55-4.34,6.74-6.33,11.56-6.54c12.79-10.16,13.31-10.4,24.74-11.11c2.24-2.24,2.37-6.7,6.51-7.64c2.65-0.6,4.89-0.15,7.43,2.91
		c0,1.52,0,3.95,0,6.37c0,2.17,0,4.35,0,6.05c9.97,8.42,20.21,7.97,28.23-0.74c11.36-12.34,13.11-32.27,4.12-45.05
		c-4.95-7.03-11.49-11.04-19.82-11.94c-4.89-0.53-9.91-0.43-14.83-0.11c-7.2,0.48-10.29,3.18-12.37,10.07
		c-0.55,1.81-0.87,3.7-1.31,5.62c-1.5,0.93-2.82,1.93-4.29,2.61c-1.21,0.56-2.6,0.75-3.65,1.04c-8.51-3.88-10.28-6.06-11.34-13.96
		c3-6.4,8.81-10.39,14.46-14.12c15.08-9.97,31.44-16.9,49.55-19.32c14.06-1.88,26.81,1.19,38.23,9.52
		c3.35,2.44,6.55,4.91,10.69,5.98c1.47,0.38,2.69,1.73,4.15,2.71c0.47,2.76,0.93,5.41,1.36,7.93c9.89,2.99,19.06-2.08,26.93-15.04
		c-3.01-1.32-5.98-2.53-8.86-3.91c-5.42-2.59-8.75-6.52-8.01-12.69c6.17-11.2,14.5-12,21.39-10.35c9.27,2.21,9.7,10.01,9.87,17.41
		c3,1.99,5.63,0.75,8.23,0.17c27.04-6.12,49.14-19.9,66.31-41.86c12.97-16.59,22.31-34.59,25.06-55.71
		c1.12-8.63,0.39-17.07-2.21-25.28c-1.56-4.93-3.28-10.13-9.9-11.48c-12.34,3.75-24.79,10.68-38.25,3.84
		c-5.38-5.92-5.47-12.12-2.24-18.62c1.1-2.21,2.5-4.27,3.63-6.47c1.74-3.4,3.55-6.8,5.01-10.33c2.13-5.15,2.35-5.62,8.43-10.23
		c2.11,0.18,4.54,0.39,7.1,0.62c0.65-0.25,1.45-0.48,2.18-0.85c3.44-1.72,6.76-3.76,10.32-5.18c8.35-3.32,16.24-2.11,23.33,3.4
		c6.89,5.36,7.23,12.06,0.54,18.24c-0.99-4.13-1.91-7.95-2.69-11.22c-10.87-8.07-19.83-7.22-30.13,2.68
		c0.71,2.34,1.49,4.88,2.34,7.67c-4.43,2.88-7.1-1.71-10.51-2.13c-6.36,4.96-7.16,7.68-5.59,18.91c1.29,2.46,3.42,3.5,6.11,3.3
		c2.46-0.18,4.91-0.56,7.37-0.83c6.26-0.7,12.52-1.38,21.47-2.37c12.17-5.29,25.91-13.41,38.98-22.57
		c18.69-13.11,37.24-26.44,55.65-39.95c28.85-21.16,58.41-41.27,88.37-60.83c24.68-16.11,49.8-31.42,76.09-44.75
		c35.2-17.84,71.52-32.74,110.24-41.16c25.69-5.59,51.44-5.95,76.8,1.27c19.01,5.41,35.98,14.95,50.41,28.76
		c22.2,21.24,33.08,47.36,34.87,77.83c1.65,28.1-4.19,54.06-19.64,77.77c-7.16,10.98-16,20.23-26.67,27.81
		c-16.68,11.85-35.17,19.21-55.33,22.43c-18.8,3-36.79,0.78-53.41-8.98c-3.27-1.92-6.35-4.39-8.98-7.12
		c-3.55-3.67-4.15-8.26-2.19-13.04c0.83-2.03,1.65-4.1,2.78-5.98c4.67-7.77,10.89-10.14,19.66-7.61c1.84,0.53,3.65,1.2,5.72,1.89
		c5.32,9.66,3.83,18.31-4.82,26.19c1.6,1.18,2.68,2.53,4.02,2.89c6.08,1.61,12.19,3.91,18.37,4.22c31,1.57,57.85-9.21,80.76-29.58
		c13.03-11.59,21.23-26.66,26.07-43.34c7.16-24.69,6.91-49.52-0.68-74.06c-8.2-26.5-25.29-46.02-49.15-59.7
		c-23.62-13.55-49.08-18.43-76.23-16.52c-21.9,1.54-42.87,6.83-63.56,13.57c-41.84,13.61-80.85,33.27-118.25,56.19
		c-33.33,20.42-65.65,42.37-97.36,65.21c-25.44,18.33-50.98,36.52-76.67,54.5c-6.96,4.87-14.61,8.78-21.97,13.08
		c-3.07,1.79-6.22,3.45-9.64,5.34c0.45,1.29,0.55,2.46,1.17,3.18c6.69,7.88,8.03,17.25,7.75,27.11
		c-0.63,22.73-8.34,43.09-21.21,61.54c-12.76,18.29-28.21,33.78-48.44,43.86c-12.37,6.16-25.19,11.02-39.04,12.69
		c-1.35,0.16-2.67,0.61-4.49,1.04c-11.19,14.78-25.14,24.97-46.32,22.33c-1.48-1.96-3.76-4.35-5.29-7.15
		c-6.75-12.36-17.82-17.58-31.11-18.66c-15.58-1.27-29.78,3.84-45.33,11.08c3.04,0.49,4.4,0.84,5.77,0.89
		c6.58,0.26,13.2,0,19.73,0.72c14.81,1.62,26.49,16.19,28.11,30.58c1.32,11.7-1.27,22.49-8.17,32.04
		c-7.87,10.88-18.42,16.2-32.07,14.51c-1.33-0.17-2.67-0.25-4.44-0.42c-0.21,1.25-0.82,2.47-0.47,3.21
		c3.82,7.95,1.57,15.62-1.01,23.23c-4.82,14.21-14.44,24.52-26.96,32.27c-5.36,3.32-11.01,6.18-16.38,9.16
		c-10.35,31.33-30.91,55.82-51.86,79.92c-32.87,37.83-71.12,69.58-112.36,97.85c-29.32,20.1-59.77,38.32-91.88,53.61
		c-46.31,22.05-93.99,40.29-143.83,52.87c-37.07,9.36-74.53,14.36-112.75,12.67c-25.43-1.13-50.22-5.53-73.99-15.15
		c-24.79-10.04-45.39-25.66-62.74-45.77c-28.22-32.72-42.04-71.18-44.64-113.9c-0.62-10.15,0.32-20.28,3.95-30.06
		c3.26-8.77,8.21-16.02,15.73-21.7c15.98-12.07,33.71-16.97,53.54-13.69c8.02,1.33,15.39,4.16,21.07,10.38
		c0.49,0.54,1.39,0.72,2.18,1.1c3.7-2.33,3.97-5.81,3.35-9.46c-1.06-6.28-4.23-11.45-9.58-14.83
		c-10.55-6.66-21.48-12.34-34.61-11.56c-5.76,0.34-11.57,0.41-17.33,0.18c-11.88-0.49-21.35,4.41-29.36,12.66
		c-10.97,11.29-18.37,24.72-22.6,39.79c-4.4,15.68-6.83,31.73-7.02,48.05c-0.11,8.78-0.66,17.62,0.06,26.34
		c2.38,28.86,11.37,55.4,29.32,78.49c6.25,8.04,13.14,15.45,20.87,22.17c13.92,12.1,27.82,24.19,43.58,33.87
		c7.01,4.3,14.65,7.5,21.86,11.31c8.79,4.64,18.41,7.03,26.83,11.61c1.09,11.23-4.01,20.37-8.88,29.54
		c-10.06,18.95-20,37.97-30.35,56.77c-9.99,18.14-22.16,34.81-36.05,50.15c-13.11,14.49-26.79,28.43-41.68,41.13
		c-2.62,2.23-5.43,4.24-9.07,5.36c2.14-2.33,4.3-4.64,6.42-6.98c2.21-2.45,4.36-4.95,6.57-7.4c11.07-12.24,22.31-24.35,33.2-36.74
		c17.56-19.98,31.19-42.56,43.02-66.29c6.63-13.3,13.4-26.52,19.9-39.88c2.52-5.18,4.45-10.65,6.69-15.96
		c1.27-3,2.63-5.96,4.09-9.26c-1.25-0.62-2.39-1.38-3.66-1.77c-3.88-1.2-7.81-2.27-11.96-3.45c-1.08,2.12-2.17,3.72-2.75,5.48
		c-5.49,16.92-13.93,32.3-24.24,46.7c-11.85,16.55-23.23,33.48-35.81,49.45c-20.34,25.83-43.66,48.77-70.51,67.93
		c-22.91,16.35-46.75,31.17-72.98,41.57c-27.84,11.03-56.55,18.35-86.9,15.77c-6.54-0.56-13.05-1.91-19.48-3.33
		c-4.34-0.96-4.27-1.3-8.9-5.83c3.6,0.67,6.25,1.04,8.83,1.67c14.63,3.57,29.4,3.54,44.27,1.96c35.16-3.73,67.16-16.52,97.34-34.21
		c32.5-19.05,61.94-42.08,86.47-70.79c11.95-13.98,22.9-28.89,33.48-43.95c11.7-16.65,22.62-33.87,31.77-52.11
		c3.83-7.63,7.34-15.37,8.41-24.23c-1.05-0.93-1.91-2.09-3.06-2.66c-27.48-13.63-50.22-33.46-72.05-54.58
		c-14.29-13.82-25.67-29.57-32.5-48.17c-10.64-28.98-15.74-58.83-12.71-89.9c1.1-11.27,2.29-22.42,5.65-33.26
		c3.71-11.97,9.36-22.88,17.72-32.31c12.16-13.7,27.15-21.17,45.67-21.08c7.43,0.04,14.86-0.11,22.29-0.08
		c14.34,0.05,26.78,5.74,38.29,13.6c3.09,2.11,5.63,5.29,7.78,8.42c4.8,6.97,4.57,15.58-0.35,22.42c-1.91,2.66-4.25,5.02-6.54,7.67
		c-6.33-0.1-12.63,0.05-17.34-5.73c0.24-2.17,0.46-4.25,0.71-6.54c-12.07-6.75-24.59-6.49-36.98-2.92
		c-21.7,6.26-33.14,21.7-36.09,43.56c-2.42,17.97,0.06,35.68,4.43,53.15c6,24.02,15.7,46.31,30.82,66.11
		c16.88,22.11,37.83,39.01,63.43,50.03c0.99,0.43,2.06,0.66,3,0.96c2.76-1.6,5.33-3.09,8.22-4.76c7.54-14.57,11.57-30.63,14.7-46.8
		c7.72-39.81,11.88-79.97,10.27-120.62c-0.97-24.52-4.27-48.78-7.64-73.03c-3.91-28.09-9.36-55.91-17.34-83.14
		c-3.63-12.38-8.03-24.54-12.2-36.75c-1.71-4.99-4.59-9.26-8.12-13.26c-3.24-3.67-6.26-7.71-8.51-12.04
		c-13.59-26.11-26.89-52.38-40.38-78.55c-5.8-11.25-11.81-22.38-17.7-33.59c-16.4-31.21-26.92-64.36-32.85-99.06
		c-4.5-26.35-7.56-52.86-7.08-79.6c0.3-17.02,0.45-34.09,2.99-51.02c1.83-12.22,3.08-24.53,4.68-36.79
		c3.18-24.35,9.43-47.99,17-71.28c7.92-24.37,17.44-48.14,28.93-71.03c10-19.91,21.11-39.23,34.82-56.9
		c4.05-5.21,8.25-10.3,12.44-15.41c1.26-1.54,2.44-3.02,1.54-5.16c3.3,0,6.61,0,9.91,0c-3.2,2.99-6.6,5.79-9.57,8.99
		c-17.7,19.08-31.87,40.66-43.52,63.83c-6.54,13.01-12.24,26.46-17.94,39.87c-13.05,30.72-23.19,62.35-29.32,95.22
		c-3.53,18.93-6.89,37.91-7.15,57.22c-0.24,18.43,0.01,36.87,0.42,55.29c0.51,23.15,3.76,46.04,7.98,68.76
		c3.32,17.83,7.87,35.38,13.93,52.55c5.33,15.1,11.87,29.6,18.95,43.9c0.56,1.13,1.42,2.12,2.15,3.17c1.03-2.11,1.14-3.9,0.78-5.58
		c-3.51-16.11-7.5-32.13-10.59-48.32c-6.96-36.39-9.46-73.19-6.72-110.1c3.3-44.31,11.87-87.7,26.34-129.82
		c14.52-42.26,34.57-81.43,63.7-115.65c14.4-16.92,30.81-31.37,50.39-42.01c9.25-5.03,19.12-8.11,29.73-8.68
		c-3.35,1.75-6.78,3.28-10.32,4.48c-25.33,8.6-44.98,25.08-61.92,45.08c-9.41,11.11-17.73,23.05-25.63,35.35
		c-16.47,25.66-29.11,53.1-38.71,81.85c-14.85,44.52-24.73,90.04-26.08,137.27c-0.77,27.05,0.46,53.92,4.06,80.65
		c3.46,25.65,9.2,50.87,16.43,75.72c6.08,20.91,13.78,41.21,23.67,60.64c1.3,2.56,2.27,5.5,5.79,7.91
		c-0.62-5.05-1.19-9.06-1.61-13.08c-2.82-27.44-2.87-54.96-1.28-82.43c1.38-23.87,3.81-47.69,6.12-71.5
		c3.59-37.07,10.96-73.39,22.2-108.92c12.16-38.42,28.76-74.89,47.27-110.63c21.49-41.47,48.35-79.32,77.11-115.85
		c13.94-17.7,29.64-33.99,46.75-48.81c1.99-1.72,3.3-4.23,4.93-6.37C654.14,153.14,659.1,153.14,664.05,153.14z M792.44,654.89
		c3.58-1.6,4.4-4.68,5.76-7.28c6.61-12.67,8.69-26.58,10.66-40.45c4.2-29.66-3.99-55.51-24.9-77.05
		c-13.41-13.81-29.92-20-49.16-18.71c-0.68,0.05-1.32,0.6-2.4,1.12c2.42,3.35,5.96,4.34,8.95,5.95
		c11.34,6.08,21.33,13.72,27.82,25.03c3.68,6.41,7.24,13.05,9.65,20c6.22,17.98,6.6,36.1-0.82,53.98
		c-3.8,9.16-8.21,17.99-14.11,26.02c-0.97,1.32-1.45,3.01-2.68,5.66C773.57,645.61,784.19,645.34,792.44,654.89z M501.11,1150.4
		c1.55-2.22,2.84-3.66,3.67-5.33c8.26-16.57,15.13-33.67,17.62-52.15c1.43-10.62,2.33-21.33,3.01-32.02
		c1.14-17.85,2.21-35.7,2.75-53.57c0.61-20.38-0.76-40.71-3.38-60.93c-1.88-14.45-3.59-28.94-6.07-43.29
		c-2.05-11.91-4.92-23.69-7.75-35.45c-2.8-11.67-6.05-23.22-12.13-33.79c0.52,4.6,1.55,9.08,2.5,13.58
		c2.05,9.69,4.51,19.31,5.99,29.09c3.42,22.57,6.61,45.18,9.41,67.83c2.33,18.86,2.75,37.86,2.39,56.86
		c-0.51,27.02-3.52,53.8-8.43,80.35c-3.81,20.56-7.83,41.1-17.17,60.11c-0.78,1.58-0.83,3.51-1.31,5.67
		C495.29,1148.39,497.83,1149.27,501.11,1150.4z M1709.41,553.1c-4.86-3.9-4.86-3.9-9.4-1.11c-1.67,8.39-1.56,8.76,4.11,12.2
		C1705.85,560.58,1707.54,557.03,1709.41,553.1z M1206.08,694.86c2.13,5.48,5.73,7.79,11.22,7.67c1.43-3.93,1.49-7.38-2.09-9.58
		C1212.2,691.11,1209.05,691.32,1206.08,694.86z"/>
	<path d="M1346.12,1019.92c-1.41-0.73-3.01-1.22-4.2-2.21c-11.2-9.31-24.03-9.32-36.62-4.89c-21.13,7.44-40.78,17.88-57.95,32.59
		c-15.75,13.49-29.73,28.63-42.31,45.05c-29.74,38.84-54.49,80.67-73.95,125.57c-14.98,34.55-24.41,70.68-29.16,107.98
		c-1.45,11.42-2.38,22.98-0.35,34.54c1.65,9.4,5,18.02,10.8,25.59c3.68,4.8,7.52,9.49,11.44,14.1
		c13.72,16.13,31.62,21.1,51.97,19.01c16.03-1.65,30.34-7.5,42.42-18.41c4.49-4.06,9.38-7.7,13.62-11.99
		c4.04-4.08,7.73-8.58,11.08-13.24c2.52-3.5,3.12-7.57,0.67-11.65c-1.45-2.42-2.63-4.97,0.92-7.68c2.33,1.22,4.87,2.55,7.48,3.91
		c1.79-1.59,3.57-3.17,5.25-4.66c3.6,1.72,2.74,4.26,1.68,6.48c-4.95,10.44-9.81,21.01-17.68,29.66
		c-14.29,15.69-31.11,27.87-51.07,35.42c-14.68,5.55-29.82,7.43-45.42,5.16c-19.35-2.81-32.72-13.69-40.84-31.03
		c-3.12-6.67-5.05-13.94-7.19-21.03c-1.74-5.76-2.98-11.67-4.54-17.94c-2.32,0-4.62,0-7.37,0c-0.25-1.62-0.91-3.01-0.57-4.1
		c1.87-6.04,4.15-11.95,5.92-18.02c0.91-3.12,1.41-6.45,1.48-9.71c0.12-5.17-2.09-9.61-5.54-13.4c-2.96-3.24-6.4-5.21-11.4-3.61
		c-4.83,4.07-5,11.17-8.9,16.13c-6.75,4.09-6.98,4.09-12.26,0.03c-0.41-5.65,2.94-9.9,6.47-13.58
		c13.43-13.98,18.45-31.55,21.7-49.83c0.75-4.24,0.42-8.84-0.33-13.11c-0.53-3.05-2.6-5.83-3.53-7.79
		c-5.09-2.51-8.29-0.48-11.05,1.7c-6.9,5.44-13.96,10.8-20.21,16.94c-11.97,11.75-23.64,23.83-35.05,36.13
		c-13.49,14.54-27.85,28.1-42.75,41.2c-11.93,10.49-25.61,17.88-39.22,25.46c-12.75,7.1-26.36,12.41-40.52,16.23
		c-10.26,2.77-20.55,3.52-31.04,1.64c-2.4-0.43-4.92-0.16-7.37-0.3c-3.01-0.17-6.11-0.05-9.02-0.71
		c-9.65-2.19-15.3-11.45-14.63-19.25c1.36-15.84,10.01-26.21,23.01-33.85c2.95-1.73,6.15-2.32,10.04-1.05
		c2.65,2.67,6.79,4.68,7.84,9.3c-13.37,10.35-17.55,23.97-11.18,35.77c14.77,4,53.32-9.09,68.67-20.23
		c-1.74-1.07-3.18-2.23-4.81-2.9c-6.48-2.67-9.75-7.64-11.03-14.34c-1.74-9.08-1.79-18.15,0.91-26.97
		c3.07-10.04,7.58-19.47,13.97-27.91c2.54-3.36,5.34-6.3,10.16-7.49c0.93,0.64,2.19,1.49,3.31,2.26c-0.26,0.97-0.23,1.67-0.56,1.97
		c-15.4,13.99-22.62,31.43-21.97,52.14c0.32,10.22,7.21,16.86,17.34,17.26c3.92,0.15,6.84-1.81,9.72-3.94
		c14.43-10.63,27.9-22.29,40.11-35.49c19.29-20.87,36.2-43.58,53.12-66.32c19.47-26.18,35.74-54.2,48.07-84.41
		c3.52-8.63,5.89-17.72,8.71-26.63c0.38-1.21,0.32-2.57,0.55-4.69c-5.57,0.46-10.6,3.73-15.57,0.91c-1.84-1.05-3.39-2.61-5.28-4.1
		c0.15-2.99,0.28-5.67,0.38-7.74c5.9-7.48,7.7-8.7,18.14-12.43c-1.29-1.55-2.48-2.97-4-4.78c0.09-1.76,0.2-3.91,0.29-5.63
		c2.66-3.59,5.79-4.89,10.13-4.58c1.71,1.01,3.78,2.23,6.15,3.63c3.73-3.93,5.84-8.59,8.12-13.91c-1.69-1.74-3.39-3.44-5.05-5.18
		c-1.65-1.74-3.25-3.52-4.84-5.25c3.11-7.24,8.65-8.69,14.66-8.75c6.59,2.56,4.9,8.93,6.77,13.44c3.79,1.76,7.11,0.44,10.47-0.8
		c12.51-4.6,23.79-11.51,34.55-19.18c39.66-28.28,69.13-65.06,89.61-109.08c9.39-20.18,14.08-41.68,15.6-63.81
		c1.12-16.26-1.77-31.79-10.68-45.84c-12.01-18.93-29.76-26.14-51.38-24.79c-15.4,0.96-29.29,7.24-42.97,13.8
		c-22.48,10.78-42.61,25.17-61.83,40.87c-14.94,12.19-29.02,25.32-41.22,40.34c-24.15,29.72-43.11,62.42-56.32,98.39
		c-3.34,9.09-5.17,18.5-5.17,28.26c0.01,10.06,4.2,18.12,11.55,24.59c8.07,7.11,19.72,7.1,29.69,0.25c0.59-4.27-4.79-4.99-5.44-9.08
		c1.95-2.59,5-2.55,7.58-2.96c5.62,1.73,10.09,4.09,10.54,10.33c-1.07,4.42-5.73,5.01-8.28,8.19c0.33,1.37,0.7,2.89,1.13,4.66
		c-5.84,5.43-12.62,8.82-20.6,9.14c-12.12,0.48-23.63-2.18-33.72-9c-9.03-6.1-14.07-15.32-17.08-25.57
		c-1.15-3.92-1.77-8.09-1.95-12.17c-0.39-8.79-0.27-17.61-0.48-26.41c-0.17-7.08,1.7-13.59,5.04-19.75
		c2.13-3.91,2.11-3.92,8.07-6.91c0.78,0.26,1.89,0.44,2.81,0.97c0.92,0.52,1.65,1.38,2.93,2.5c-1.29,8.02-3.8,15.22-12.29,19.09
		c-0.97,15.33-0.59,30.34,5.32,44.69c4.13,10.02,9.1,15.11,20.13,20.51c-1.25-1.86-1.59-2.73-2.21-3.25
		c-10.58-8.84-13.46-20.64-11.77-33.51c1.1-8.38,3.11-16.85,6.09-24.75c18.85-49.94,46.79-94,86.72-129.83
		c26.33-23.62,54.92-44.08,87.36-58.7c12.33-5.55,24.88-10.25,38.52-11.62c14.77-1.48,28.6,1.38,41.15,9.1
		c13.88,8.54,21.45,21.83,25.4,37.23c3.11,12.13,3.37,24.59,1.78,36.91c-1.97,15.27-4.69,30.44-10.04,45.01
		c-8.51,23.2-21.09,44.08-35.63,63.93c-18.37,25.09-39.97,46.85-65.62,64.47c-9.3,6.39-18.75,12.63-29.39,16.63
		c-6.92,2.6-14.03,4.67-22,7.28c-4.01,6.06-8.68,13.11-14.48,21.88c-0.6,4.68-1.39,11.49-2.35,18.28
		c-1.75,12.37-6,24.03-10.74,35.46c-12.79,30.89-28.97,59.9-49,86.73c-8.73,11.68-17.32,23.46-25.95,35.2
		c-0.76,1.03-1.36,2.18-1.25,4.19c1.34-1.04,2.79-1.97,4-3.15c9.52-9.16,18.92-18.43,28.5-27.53c6-5.7,12.51-10.77,20.04-14.38
		c9.02-4.33,16.99-1.19,20.59,8.12c2.37,6.12,2.05,12.42,1.24,18.73c-1.41,11-5.04,21.39-8.85,31.72c-0.66,1.79-1.33,3.57-1.98,5.3
		c6.04,3.43,11.83,6.71,17.95,10.18c0.39-1.43,1.08-3.18,1.32-5c3.86-28.24,11.94-55.34,22.24-81.82
		c19.39-49.86,46.39-95.42,78.57-137.97c15.82-20.93,33.77-39.92,55.25-55.24c16.28-11.61,34.61-19.15,53.26-25.89
		c10.41-3.76,20.68-1.8,30.56,2.32c4.94,2.06,8.23,5.83,9.72,10.89C1347.01,1019,1346.56,1019.46,1346.12,1019.92z M844.93,1373.6
		c0.08-1.41,0.36-2.47,0.16-3.44c-1.6-8,0.35-15.36,4.44-22.1c2.68-4.43,6.15-8.37,9.22-12.57c0.85-1.17,1.53-2.46,2.83-4.58
		c-6.08-0.22-10.1,1.82-13.52,5.1c-4.81,4.63-8.66,10.07-10.63,16.45c-1.1,3.58-1.52,7.59-1.22,11.33
		C836.59,1368.64,838.96,1372.54,844.93,1373.6z M1091.86,1108.94c-6.88-0.36-10.26,1.18-11.62,5.67c-0.46,1.51,0.47,3.44,0.8,5.37
		c2.48,0.16,4.31,0.27,6.16,0.39C1090.44,1117.26,1094.56,1114.87,1091.86,1108.94z M1149.39,1423.09
		c-2.81-0.95-5.66-1.78-8.41-2.87c-3.05-1.2-6.13-2.42-8.98-4.02c-2.61-1.46-4.94-3.43-7.37-5.2c-2.45-1.78-4.29-4.47-7.48-5.06
		C1125.05,1416.84,1135.63,1423.06,1149.39,1423.09z"/>
	<path d="M786.19,1203.36c-1.26,2.68-2.33,5.48-3.81,8.03c-7.82,13.44-13.8,27.55-15.59,43.14c-0.86,7.46-0.82,14.87,3.08,21.68
		c0.64,1.13,1.63,2.05,2.76,3.44c3.76-2.19,7.26-4.23,11.2-6.53c2.76,4.46,7.3,6.33,11.21,9.1c3.25,2.31,6.16,5.56,8.22,9
		c3.68,6.15,5.9,12.94,6.99,20.14c2.93,19.4,0.64,38.4-3.86,57.26c-9.69,40.6-24.63,79.26-42.95,116.71
		c-13.68,27.96-28.63,55.19-45.27,81.49c-10.89,17.21-23.02,33.54-35.75,49.43c-21.68,27.09-44.41,53.24-69.93,76.83
		c-43.85,40.54-91.66,75.58-144.9,102.88c-9.53,4.89-19.4,9.23-29.42,13.01c-17.75,6.69-35.74,12.76-53.62,19.09
		c-13.78,4.88-27.86,8.35-42.39,10.29c-12.25,1.64-24.48,3.79-36.52,6.57c-18.83,4.35-36.61,0.95-54.06-5.92
		c-7.16-2.82-14.2-5.99-21.11-9.38c-15.48-7.6-23.56-20.97-27.83-37.01c-1.36-5.11-1.09-10.37,0.6-15.48
		c0.78-2.35,1.53-4.71,2.27-7.07c6.24-19.82,20.46-30.51,40.08-35.04c4.78-1.1,9.56-2.27,14.1-3.35c4.35,2.5,7.95,4.78,6.99,10.57
		c-2.11,0-3.85,0-6.68,0c2.86,2.35,4.9,4.04,7.1,5.84c2.2,3.93,4.73,7.93,3.51,12.95c-6.15,8.38-11.8,9.64-26.11,5.58
		c-0.83,1.47-2.02,2.97-2.59,4.67c-2.9,8.67-4.5,17.5-3.96,26.75c0.73,12.66,6.74,21.77,17.57,27.98c6.04,3.46,12.61,5.45,19.4,6.74
		c13.97,2.67,27.86,2.2,41.79-0.59c9.7-1.94,19.53-3.21,29.29-4.91c11.42-1.98,22.55-5.08,33.2-9.65
		c26.36-11.31,51.7-24.71,75.5-40.6c21.47-14.34,42.56-29.33,62.22-46.23c17.76-15.27,34.89-31.18,50.4-48.71
		c8.37-9.46,16.29-19.37,23.83-29.51c20.55-27.65,38.57-56.88,53.96-87.73c11.43-22.92,21.01-46.59,29.21-70.86
		c9-26.64,15.56-53.78,19.94-81.57c4.83-30.63,5.45-61.3,3.15-92.08c-2.62-35.05-14.21-67.22-33.49-96.41
		c-11.38-17.23-26.59-30.75-45.34-39.91c-8.54-4.17-17.77-6.04-27.11-6.58c-9.59-0.55-19.24-0.32-28.85,0.01
		c-8.37,0.29-15,4.18-20.23,11.05c8.24,2.65,20.7,1.17,32.72-3.78c1.29-2.29,1.47-6.42,6.89-5.93c1.03,0.89,2.6,2.25,4.2,3.63
		c-0.58,1.15-0.75,2.09-1.32,2.53c-5.85,4.59-12.88,5.86-19.94,7.2c-12.05,2.27-23.96,0.43-37.14-0.14
		c8.07-10.65,16.44-18.64,29-20.22c12.85-1.61,25.76-1.87,38.69-0.56c28.52,2.88,51.14,16.51,68.37,38.75
		c15.77,20.36,27.62,43.12,35.29,67.75c4.83,15.5,7.28,31.54,8.24,47.86c1.68,28.69,0.4,57.19-3.74,85.59
		c-4.3,29.49-12.27,58.02-21.74,86.24c-10.37,30.89-24.18,60.23-39.29,88.97c-12.54,23.86-27.2,46.45-43.1,68.28
		c-17.89,24.57-38.11,46.93-60.78,67.11c-18.49,16.46-37.56,32.21-58.37,45.66c-16.16,10.45-32.66,20.35-49,30.51
		c-0.84,0.52-1.53,1.29-3.41,2.91c7.17-1.11,12.47-3.2,17.76-5.35c18.42-7.47,35.68-17.2,52.61-27.5
		c25.41-15.46,49.89-32.25,73.06-50.95c33.3-26.88,63.65-56.65,90.7-89.86c27.34-33.57,52.05-68.93,73.11-106.74
		c14.46-25.94,28.79-52,40.23-79.47c11.02-26.46,19.82-53.69,25.45-81.83c3.2-15.99,3.73-32.23,2.28-48.49
		c-0.75-8.45-4.21-15.91-9.09-22.72c-2.29-3.2-3.53-3.79-9.98-6.03c-1.94,0.84-4.16,1.93-6.47,2.75c-2.05,0.72-4.18,1.42-6.32,1.62
		c-5.55,0.51-8.08-0.97-10.44-6.08c-3.22-6.97-3.41-14.43-2.75-21.86c0.81-9.11,3.18-17.86,7.45-26.02
		c4.84-9.24,8.99-18.92,16.87-26.18c1.14-1.05,2.6-1.77,3.91-2.64L786.19,1203.36z M236.25,1750.57
		c-8.73,4.55-13.73,10.37-16.77,17.88c-1.75,4.32-3.37,8.74-4.45,13.26c-0.75,3.12-1,6.56-0.54,9.72
		c1.21,8.34,4.97,15.65,10.52,21.98c1.91,2.17,3.97,4.32,7.06,4.9c0.23-0.7,0.44-1.01,0.36-1.17c-0.48-0.97-0.91-1.99-1.56-2.83
		c-4.37-5.69-6.12-12.21-6.15-19.26c-0.04-13.08,1.95-25.72,8.1-37.47C233.79,1755.74,234.65,1753.86,236.25,1750.57z"/>
	<path d="M1502.46,721.11c-3.99-0.58-8-1.07-11.98-1.76c-5.17-0.9-9.33-3.25-11.28-8.48c-0.84-2.26-0.72-4.29,1.67-6.11
		c0.8,0.53,1.86,0.94,2.48,1.7c4.61,5.64,10.75,7.08,17.69,7.07c9.19-0.01,18.12-0.88,26.39-5.33c2.68-1.44,5.29-2.9,6.56-6.29
		c-1.04-0.89-2.01-1.71-3.09-2.63c-5.91,2.62-10.57,8.98-18.11,5.32c-0.89-3.64,0.86-6.12,2.95-8.31
		c7.47-7.84,15.86-14.4,26.18-18.18c5.98-2.19,12.01-2.3,17.66,0.52c4.88,2.44,9.75,5.24,13.87,8.76c2.75,2.35,4.18,6.25,6.81,10.43
		c3.18,2.38,7.52,5.28,11.46,8.66c4.32,3.7,4.07,9.41,5.54,15.59c0.97,0.8,2.94,1.97,4.31,3.63c3.82,4.62,3.93,9.47,0.45,14.41
		c-3.1,4.38-7.37,7.31-12.24,9.49c-4.24,1.9-8.43,3.9-12.57,6.01c-4.52,2.31-8.85,4.11-14.09,1.6c-1.94-0.93-4.7-0.15-7.79-0.15
		c-0.43-1.76-1.3-3.52-1.15-5.18c0.17-1.83,1.24-3.6,2.02-5.35c3.07-6.93,1.97-10.73-4.55-14.32c-5.85-3.22-12.21-5.4-18.83-5.63
		c-29.17-1.02-57.1,4.36-82.54,19.02c-18.25,10.52-31.83,26.06-42.3,44.26c-5.64,9.81-10.23,20.1-13.21,31.06
		c-2.34,8.6-3.49,17.27-1.53,26.09c0.59,2.66,1.5,5.32,2.68,7.77c2.51,5.19,6.36,8.25,12.89,6.6c3.21-1.83,4.68-6.94,9.61-6.52
		c1.74,0.15,3.41,1.1,5.64,1.87c-1.31,8.76-7.84,12.46-13.66,18.21c-0.83-3.19-1.35-5.18-1.92-7.35c-0.66-0.2-1.4-0.59-2.16-0.65
		c-10.5-0.72-15.33-4.55-18.48-14.47c-3.02-9.51-2.33-19.05-0.06-28.51c5.58-23.26,16.76-43.5,33.26-60.81
		c3.54-3.71,7.17-7.35,9.99-12.21c-2.26,0.72-4.59,1.3-6.78,2.19c-12.4,5.04-25.38,7.3-38.67,7.39
		c-20.14,0.13-34.43-9.44-43.58-27.2c-5.72-11.11-6.89-23.11-7.18-35.26c-0.55-23.13,3.68-45.52,11.9-67.04
		c14.29-37.39,34.65-71.03,62.23-100.32c33.21-35.27,70.39-65.55,111.13-91.66c18.58-11.91,37.73-22.76,57.94-31.49
		c35.14-15.18,71.45-25.1,110.34-24.07c31.09,0.82,59.65,8.78,85.66,25.87c13.54,8.9,25.79,19.56,33.23,33.85
		c14.11,27.13,17.61,55.3,3.07,83.81c-6.15,12.06-15.69,20.47-28.07,25.56c-10.9,4.49-22.2,3.13-33.33,0.94
		c-3.83-0.75-6.52-3.59-8.4-8.38c2.63,0.18,4.52-0.1,6.08,0.5c7.4,2.86,15.05,3.09,22.78,2.54c12.21-0.86,22.02-6.26,29.64-15.81
		c7.65-9.57,11.5-20.61,12.56-32.64c2.5-28.48-6.73-52.7-27.74-71.96c-24.83-22.77-54.36-34.57-88.02-36.86
		c-36.71-2.49-71.65,4.29-105.7,17.62c-36.71,14.37-69.72,34.99-101.3,58.24c-28.91,21.29-55.41,45.22-79.1,72.19
		c-30.68,34.93-52.26,74.67-62.49,120.24c-3.46,15.43-3.86,31.12-2.63,46.81c1.2,15.37,6.52,28.85,18.85,38.97
		c7.36,6.04,15.54,9.16,25.11,8.53c11.53-0.76,23.11-1.19,34.07-5.48c1.01-0.4,2.13-0.73,3.2-0.73c9.76,0.04,17.69-4.52,25.98-9.09
		c14.55-8.03,30.57-12.24,46.89-15.22c1.24-0.23,2.47-0.52,3.7-0.78C1502.44,721.83,1502.45,721.47,1502.46,721.11z M1567.22,739.69
		c1.05,5.25-1.46,9.27,1.89,12.85c1.89-0.95,3.65-1.64,5.2-2.66c1.57-1.04,2.94-2.39,4.46-3.67c0-5.1,0-10.01,0-15.6
		c2.22-3.21,4.68-6.77,7.39-10.7c-1.48-9.01-8.37-12.64-16.05-15.43c-1.95-0.71-3.97-1.2-6.22-1.86c0.93-3.25,1.65-5.79,2.3-8.07
		c-10.25-10.89-23.38-12.91-30.13-3.89c2.58,1.96,5.17,3.92,7.42,5.62c1.77,4.62,0.26,7.94-2.55,10.96
		c-4.04,4.34-9.07,7.05-14.52,9.1c-2.45,0.92-4.93,1.77-7.39,2.65c4.46,1.37,8.75,1.38,12.97,1.89
		c12.57,1.51,24.27,4.82,31.97,16.13C1564.83,738.31,1566.47,739.09,1567.22,739.69z"/>
	<path d="M1125.27,1593.81c-1.51,3.68-2.23,5.68-3.14,7.6c-3.66,7.69-6.97,15.57-11.17,22.96c-5.92,10.42-15.04,17.37-26.23,21.6
		c-15.21,5.75-30.79,8.04-46.97,5.22c-21.34-3.71-41.9-9.51-59.39-23.01c-22.51-17.37-34.34-40.25-35.04-68.82
		c-0.48-19.68,2.51-38.95,6.65-58.07c4.86-22.39,11.87-44.1,22.22-64.6c10.78-21.36,24.58-40.4,44.01-54.84
		c5.84-4.34,12.13-7.47,19.8-6.89c8.16,0.61,20.23,9.27,22.96,16.83c1.32,3.66,1.25,4.97-0.84,10.74c-1.17-1.39-2.57-2.38-2.96-3.67
		c-1.36-4.47-4.38-7.62-7.81-10.38c-7.62-6.14-13.69-6.4-21.83-0.94c-10.42,6.98-18.55,16.31-26.19,26.1
		c-13.54,17.35-22.68,36.97-29.86,57.63c-8.63,24.83-13.9,50.4-15.55,76.59c-1.27,20.21,2.11,39.5,14.42,56.4
		c6.26,8.58,13.79,15.78,23.14,20.8c19.22,10.32,39.74,15.97,61.65,16.03c12.66,0.04,24.52-3.25,35.51-9.41
		c3.3-1.85,6.54-4.22,9.04-7.03c9.48-10.63,15.85-23.06,20.04-36.63c0.31-1,0.15-2.15,0.19-2.91c-1.57-2.95-4.04-3.23-6.56-3.19
		c-3.02,0.06-6.05,0.5-9.06,0.39c-1.38-0.05-2.72-1.02-5.25-2.04c6.79-4.28,13.48-3.79,20.06-5.35c0.23-1.57,0.48-3.31,0.71-4.93
		c3.05-1.4,4.61,0.33,5.58,2.3c3.63,7.38,7.61,14.65,10.4,22.35c2.79,7.68,2.08,15.65-1.08,23.38
		c-5.56,13.61-15.62,23.35-27.63,30.89c-26.55,16.66-55.28,21-85.49,12.31c-18.39-5.29-35.23-14.08-50.61-25.49
		c-17.46-12.96-29.42-30.08-38.14-49.88c-13.78-31.29-17.07-64.06-15.02-97.71c0.69-11.25,1.26-22.52,2.27-33.74
		c1.98-22,6.62-43.47,13.84-64.36c2.07-5.98,4.33-11.89,6.55-17.81c1.45-3.87,3.06-7.66,6.82-9.87c3.25,1.12,2.4,3.33,1.77,5.44
		c-3.24,10.8-6.29,21.67-9.77,32.39c-7.97,24.55-11.15,49.88-12.47,75.5c-0.76,14.82-1.6,29.68-1.27,44.5
		c0.62,28.02,8.33,54.26,22.35,78.54c7.82,13.54,18.46,24.52,31.38,33.41c15.12,10.39,31.27,18.8,49.17,22.66
		c33.3,7.19,63.46,1.19,87.89-24.27c6.34-6.6,11.38-14.15,12.55-23.65C1127.42,1602.99,1127.48,1599.22,1125.27,1593.81z"/>
	<path d="M1324,1171.65c1.82,1.94,3.31,2.86,3.74,4.14c0.87,2.58,1.18,5.34,1.67,8.04c1.34,7.31,4.48,13,13.72,14.32
		c1.8-1.09,4.56-2.35,6.82-4.21c22.63-18.6,40.19-41.21,52.97-67.55c3.17-6.54,5.49-13.37,4.17-20.66
		c-0.87-4.78-2.38-9.59-4.49-13.96c-2.96-6.14-8.24-8.46-15.29-6.8c-1.27,2.7-2.53,5.4-4.05,8.62c-1.97,0.63-4.2,1.34-6.68,2.13
		c-0.32-1.39-0.87-2.32-0.61-2.86c4.75-9.62,3.67-19.86,2.65-29.9c-0.35-3.42-3.23-6.58-5.02-9.98c3.24-2.4,6.31-2.3,8.65,1.47
		c1.54,2.47,2.4,5.53,2.9,8.43c0.59,3.5,0.41,7.12,0.68,10.68c0.14,1.85,0.54,3.68,0.89,5.96c1.68-0.17,2.99-0.2,4.26-0.44
		c8.82-1.65,15.75,1.62,19.61,9.72c4.66,9.78,5.95,19.97,2.5,30.43c-1.29,3.9-2.8,7.77-4.62,11.46
		c-12.53,25.47-29.65,47.45-50.87,66.25c-2.45,2.17-5.25,3.98-8.03,5.74c-8.03,5.1-20.53,1.88-24.45-8.74
		C1322.62,1187.08,1321.78,1179.52,1324,1171.65z"/>
	<path d="M786.33,1203.49c1.06-1.87,1.94-3.87,3.2-5.59c3.42-4.64,6.69-9.47,10.6-13.68c12.4-13.33,26.46-24.07,45.29-26.45
		c2.71-0.34,5.54-0.47,8.23-0.09c20.96,2.96,39.26,10.62,54.51,26.36c17.87,18.43,29.67,40.14,39.07,63.49
		c3.8,9.43,3.49,19.19-0.46,29.01c-0.46-1.37-1.19-2.7-1.34-4.1c-1.51-13.85-5.75-26.86-12.03-39.22
		c-3.36-6.62-6.79-13.22-10.5-19.65c-7.55-13.09-18.53-23.3-30.04-32.62c-12.69-10.28-28.01-15.11-44.28-16.31
		c-11.2-0.83-21.09,3.28-30.13,9.49c-8.86,6.09-17.02,13.04-24.25,21.06c-2.55,2.83-5.34,5.45-8.01,8.17
		C786.19,1203.36,786.33,1203.49,786.33,1203.49z"/>
	<path d="M965.74,1105.32c0.14,2.43,0.39,3.53,0.23,4.56c-5.28,34.82,3.24,66.54,21.56,96.04c1.44,2.32,3.35,4.36,4.92,6.61
		c8.22,11.78,19.62,16.17,33.22,14.75c4.52-1.63,5.8-7.33,10.94-7.22c0.43,0.01,0.85,0.6,1.89,1.39
		c-2.64,6.84-6.94,11.98-14.53,13.78c-7.27,1.73-14.22,0.48-20.84-2.76c-8.33-4.08-15.17-9.94-20.17-17.79
		c-8.3-13.04-15.04-26.89-19.87-41.56c-1.69-5.14-2.33-10.7-2.9-16.13c-0.89-8.47-1.5-16.98-1.9-25.49
		c-0.38-8.1,1.75-15.79,4.76-23.23C963.33,1107.61,964.07,1107.13,965.74,1105.32z"/>
	<path d="M1398,883.32c-2.28,14.01-2.21,27.95-0.92,41.94c0.62,6.67,2.81,12.79,5.45,18.91c8.96,20.76,38.31,30.67,58.32,19.04
		c3.18-1.85,6.16-4.4,11.34-5.09c-1.22,2.05-1.62,3.32-2.47,4.06c-9.59,8.27-20.5,12.59-33.38,11.13
		c-10.34-1.17-19.72-5.15-28.5-10.31c-3.63-2.13-6.65-5.81-9.07-9.37c-5.18-7.63-8.11-16.21-8.29-25.55
		c-0.12-6.33-0.1-12.66,0.01-18.98C1390.65,899.88,1393.66,891.43,1398,883.32z"/>
	<path d="M203.06,1435.08c33.53-2.82,63.65-16.35,94.3-30.09C283.9,1419.73,230.01,1436.89,203.06,1435.08z"/>
	<path d="M1480.03,698.13c3.41-8.2,9.94-9.91,18.67-5.08c1.84,5.64-1.68,8.68-6.35,12.42c-0.76-3-1.31-5.17-1.92-7.57
		c-0.63-0.09-1.38-0.34-2.11-0.28C1485.75,697.82,1483.41,700.27,1480.03,698.13z"/>
</g>
</svg>
