<?xml version="1.0" encoding="utf-8"?>
<!-- Generator: Adobe Illustrator 27.4.0, SVG Export Plug-In . SVG Version: 6.00 Build 0)  -->
<svg version="1.1" id="Calque_1" xmlns="http://www.w3.org/2000/svg" xmlns:xlink="http://www.w3.org/1999/xlink" x="0px" y="0px"
	 viewBox="0 0 2000 2000" style="enable-background:new 0 0 2000 2000;" xml:space="preserve">
<g>
	<path d="M1198.49,494.54c-0.66-4.66-1.49-8.64-1.75-12.66c-0.82-12.93,0.7-25.54,5.42-37.73c1.49-3.86,1.94-8.12,3.49-11.95
		c3.33-8.24,7.65-15.95,12.87-23.19c2.25-3.12,3.36-7.06,5.39-10.37c5.26-8.54,12.14-15.71,19.77-22.14
		c1.66-1.4,3.78-2.25,6.22-3.65c2.42-4.04,6.66-7.12,11.16-9.76c3.21-1.88,6.82-3.08,10.2-4.68c4.81-2.27,9.54-4.69,14.36-6.92
		c2.05-0.95,4.24-1.59,6.46-2.26c6.38-1.68,12.74-3.5,19.16-5.01c7.2-1.69,14.44-3.18,21.7-4.61c1.9-0.37,3.91-0.2,5.87-0.29
		c6-0.28,12.01-0.89,18.01-0.79c12.28,0.19,24.33,1.13,36.16,5.57c8.18,3.07,16.38,5.99,23.88,10.38
		c13.58,7.95,26.02,17.4,36.54,29.26c4.01,4.52,7.74,9.13,10.47,14.6c1.85,3.71,4.55,6.98,6.49,10.64
		c4.28,8.07,6.64,16.71,6.86,25.89c0.22,9.4,0.52,18.8,0.64,28.2c0.12,9.76-2.39,18.93-7.1,27.42c-4.65,8.39-11.3,15.05-19.39,20.08
		c-7.31,4.54-14.96,8.55-22.47,12.77c-1.64,0.92-3.33,1.77-4.99,2.65c0.08,0.3,0.15,0.6,0.23,0.89c2.9,0.4,5.78,0.98,8.69,1.17
		c20.09,1.36,32.82,13.15,42.14,29.7c2.83,5.01,5.2,10.27,8,15.3c4.34,7.8,7.09,15.99,7.07,25c0,0.63,0.18,1.26,0.34,2.38
		c1.5-0.15,2.92-0.07,4.2-0.46c9.81-2.97,19.83-4.38,30.05-3.88c13.8,0.68,24.02,7.42,30.72,19.3c3.11,5.51,5.46,11.45,8.38,17.68
		c0.59-0.14,1.76-0.22,2.76-0.67c6.78-3.04,13.55-6.11,20.28-9.25c10.84-5.06,22.22-8.39,33.95-10.52c5.53-1,10.54-2.5,14.33-7.08
		c1.51-1.82,3.86-2.94,6.33-4.75c1.69-5.13,5.64-9.36,10.29-13.07c0.7-0.56,1.28-1.3,1.86-2c4.83-5.8,9.57-11.68,14.51-17.39
		c2.09-2.42,4.53-4.55,6.93-6.69c0.82-0.73,1.99-1.08,2.87-1.54c2.02-5.03,6.71-7.53,10.3-11.61c1.21-3.61,19.92-23.88,23.55-25.81
		c8.74-8.36,16.62-15.91,24.43-23.38c3.86,1,7.46,2.09,11.14,2.84c3.81,0.77,7.68,1.3,11.54,1.76c9.98,1.19,19.99,2.17,29.96,3.47
		c3.59,0.47,7.09,1.66,10.66,2.41c2.65,0.56,5.34,0.96,8.98,1.6c1.75,1.91,4.17,4.53,6.8,7.39c-2.81,3.35-5.3,6.51-7.98,9.49
		c-5.19,5.77-9.17,12.32-13.15,18.96c-5.5,9.18-11.66,17.96-17.58,26.89c-3.53,5.34-7.11,10.65-10.7,15.95
		c-5.33,7.89-10.69,15.76-16.03,23.64c-0.29,0.42-0.48,0.91-0.93,1.77c1.12,0.69,2.13,1.46,3.25,1.97
		c10.65,4.88,20.3,11.43,29.3,18.78c14.53,11.88,27.09,25.56,36.97,41.73c7.95,13,14.87,26.39,19.83,40.8
		c2.88,8.36,6.71,16.45,8.86,24.98c3.03,11.99,5.84,24.05,6.91,36.52c1.21,14.02,0.43,27.96,0.19,41.93
		c-0.25,14.42-2.92,28.57-6.07,42.62c-1.17,5.22-1.81,10.57-3.22,15.72c-1.99,7.29-4.05,14.61-6.8,21.64
		c-8.08,20.7-16.49,41.3-26.87,60.97c-6.58,12.46-13.98,24.48-21.01,36.7c-2.09,3.63-4.09,7.3-6.24,10.89
		c-8.94,14.9-18.5,29.38-29.21,43.09c-12.72,16.27-26.1,31.97-40.63,46.64c-8.46,8.54-16.84,17.21-25.9,25.08
		c-12.13,10.53-24.67,20.65-39.04,28.1c-9.98,5.18-19.87,10.64-30.22,14.98c-8.12,3.41-16.8,5.63-25.38,7.8
		c-10.62,2.69-21.37,4.89-32.12,7.05c-3.95,0.79-8.04,0.86-12.07,1.26c-4.91,0.48-9.82,1.32-14.73,1.35
		c-4.92,0.02-9.86-0.68-14.77-1.25c-4.26-0.49-8.49-1.25-12.91-1.92c-7.1,5.86-10.26,14.62-15.98,22.26
		c-5.11-0.79-10.34-1.61-15.57-2.4c-4.11-0.62-8.28-0.97-12.34-1.86c-6.61-1.45-13.15-3.2-19.7-4.89
		c-5.56-1.43-11.11-2.93-16.64-4.44c-2.03-0.56-4.03-1.25-6.04-1.89c-0.19,0.27-0.39,0.54-0.58,0.81c0.36,0.9,0.66,1.82,1.09,2.69
		c7.77,15.81,12.02,32.32,9.42,50.05c-0.96,6.57-2.32,13.09-3.81,19.56c-0.51,2.23-1.8,4.35-3.01,6.35
		c-7.85,12.87-18.65,22.61-31.41,30.6c-9.1,5.7-18.96,8.7-29.21,10.77c-9.72,1.96-19.56,3.31-29.36,4.89
		c-8.75,1.41-17.48,3.01-26.26,4.11c-11.26,1.41-22.54,2.86-33.85,3.48c-13.69,0.74-27.47,0.41-41.05-1.56
		c-17.54-2.54-33.47-9.3-46.78-21.25c-6.59-5.92-13.35-11.89-18.74-18.83c-12.73-16.38-22.35-34.4-25.15-55.42
		c-0.81-6.06-1.93-12.07-3.02-18.74c-1.31,0.82-2.63,1.23-3.3,2.12c-4.94,6.61-12.06,9.74-19.65,11.18
		c-8.69,1.65-17.62,2.1-26.44,3.04c-1.66,0.18-3.34,0.24-5.67,0.4c0.79,1.14,1.12,1.93,1.7,2.43c8.78,7.53,16.76,15.75,22.74,25.76
		c1.78,2.98,2.96,6.03,3.06,9.57c0.21,7.25,0.74,14.49,0.9,21.74c0.06,2.7-0.37,5.45-0.89,8.12c-1.49,7.7-3.94,15.09-6.77,22.41
		c-3.16,8.14-7.99,15.27-12.87,22.33c-7.34,10.63-14.69,21.32-22.9,31.27c-4.92,5.97-11.37,10.74-17.35,15.78
		c-8.37,7.05-18.12,11.89-28.18,15.92c-8.47,3.39-17.24,6.02-25.91,8.9c-6.82,2.26-13.64,4.49-20.53,6.54
		c-9.88,2.94-19.8,5.73-29.72,8.52c-8.27,2.32-16.6,4.07-25.27,4.38c-18.29,0.65-36.56,2.02-54.86,2.45
		c-13.82,0.32-27.68-0.13-41.5-0.67c-13.05-0.51-26.09-1.45-39.12-2.47c-7.41-0.58-14.79-1.63-22.17-2.58
		c-10.49-1.34-20.99-2.63-31.44-4.26c-4.22-0.66-8.34-2.05-12.45-3.28c-6.71-2.01-13.55-3.74-20.01-6.38
		c-6.5-2.66-12.6-6.28-18.88-9.48c-0.68-0.35-1.34-0.73-2.26-1.24c-0.47,0.97-0.95,1.71-1.2,2.52c-2.99,9.93-8.98,18.02-16.15,25.18
		c-8.86,8.85-18.05,17.39-28.79,24c-4.67,2.87-9.47,5.54-14.19,8.33c-0.66,0.39-1.23,0.93-2.14,1.63
		c0.99,6.63,2.02,13.32,2.99,20.03c1.9,13.2,3.69,26.41,5.65,39.59c2.15,14.47,4.5,28.92,6.65,43.39c0.71,4.77,1.09,9.59,1.59,14.4
		c1.21,11.56,2.62,23.11,3.56,34.69c1.25,15.37,2.15,30.77,3.17,46.16c0.13,1.94,0.09,3.9,0.13,5.85c0.36,0.03,0.72,0.06,1.08,0.1
		c0.32-0.77,0.7-1.52,0.96-2.31c2.39-7.04,4.25-14.31,7.28-21.07c3.79-8.45,12.27-12.82,21.55-11.82c2.28,0.25,4.42,1.85,6.33,2.69
		c2.09,10.43,0.39,19.69-3.62,28.58c-2.64,5.84-5.35,11.68-8.52,17.24c-2.11,3.7-5.12,6.89-7.69,10.33c-3.34,4.48-6.62,9-9.97,13.48
		c-1.55,2.07-3.18,4.08-4.98,6.37c-4,0.29-7.82-0.43-11.42-3.64c-0.73-12.79-1.49-25.84-2.23-38.88
		c-0.66-11.62-1.09-23.26-1.99-34.87c-0.91-11.85-2.73-23.64-3.3-35.5c-0.57-11.93-2.71-23.62-3.95-35.44
		c-1.35-12.87-3.68-25.56-5.72-38.31c-2.48-15.47-4.29-31.05-6.46-46.57c-0.39-2.78-1.12-5.51-1.77-8.64
		c-2.57,0.73-4.75,1.1-6.74,1.94c-10.93,4.62-21.72,9.59-32.74,13.98c-7.86,3.14-16.01,5.56-24.02,8.3
		c-0.62,0.21-1.28,0.35-1.83,0.68c-6.65,3.91-14.2,5.09-21.48,7.03c-5.52,1.47-11.18,2.47-16.8,3.55c-1.38,0.27-2.86,0.04-4.2,0.42
		c-3.53,0.81-7.01,1.9-10.58,2.4c-17.46,2.46-34.89,5.31-52.44,6.99c-23.72,2.26-47.52,2.33-71.33,0.58
		c-19.19-1.41-38.32-3.11-57.23-6.66c-7.18-1.35-14.24-3.34-21.34-5.11c-7.85-1.96-15.89-3.4-23.45-6.14
		c-10.43-3.78-20.56-8.41-30.67-13c-3.03-1.38-5.65-3.74-8.33-5.81c-6.06-4.69-11.83-9.78-18.1-14.16
		c-8.92-6.23-15-15.22-22.83-22.5c-2.97-2.76-4.34-7.21-7.24-10.07c-3.87-3.82-5.63-8.77-8.51-13.09
		c-5.54-8.35-9.31-17.53-12.44-26.99c-0.45-1.36-0.57-2.81-0.95-4.2c-1.7-6.23-3.54-12.42-5.12-18.67
		c-2.63-10.41-3.26-20.98-0.71-31.44c1.65-6.78,4.44-13.12,8.41-19.11c5.59-8.44,13.09-14.81,20.52-21.28
		c12.25-10.68,26.44-18.66,39.82-27.77c4.21-2.86,8.36-5.82,12.48-8.8c1.02-0.73,1.85-1.72,3.01-2.81c-1.11-0.89-1.9-1.52-2.69-2.15
		c-9.44-7.4-19.25-14.38-28.2-22.34c-6.6-5.87-12.77-12.51-17.89-19.69c-7.1-9.98-13.27-20.65-17.33-32.37
		c-1.55-4.47-3.2-8.85-2.77-13.7c0.03-0.38,0.07-0.86-0.11-1.16c-2.59-4.29-2.3-9.04-2.2-13.74c0.13-6.22,0.5-12.43,0.56-18.65
		c0.03-3.48-0.4-6.97-0.54-10.46c-0.2-5.1-0.44-10.2-0.46-15.29c-0.04-11.16,1.07-22.23,4.35-32.91
		c3.35-10.9,8.24-21.16,14.37-30.82c2.45-3.86,4.36-8.06,6.79-11.92c2.46-3.9,5.17-7.66,7.98-11.32c0.98-1.28,2.6-2.07,4.15-3.26
		c4.72-7.94,8.48-16.54,9.78-26.17c-2.55-2.64-4.68-5.36-7.31-7.44c-6.16-4.86-9.15-11.65-11.76-18.63
		c-1.49-4.01-2.08-8.35-3.53-12.37c-2.22-6.16-0.26-12.23,0.17-18.27c0.23-3.24,2.39-6.31,3.35-9.55
		c2.79-9.4,7.12-17.92,13.49-25.42c3.53-4.16,6.5-8.82,10.18-12.84c6.15-6.71,13.63-11.76,21.79-15.78
		c0.58-0.28,1.13-0.62,2.78-1.54c-1.21-0.65-2.04-0.99-2.74-1.5c-4.85-3.53-10.14-6.61-14.39-10.76
		c-7.08-6.89-14.58-13.53-19.29-22.5c-0.84-1.61-1.76-3.27-3-4.57c-10.85-11.46-18.33-25.1-24.83-39.25
		c-2.74-5.97-4.14-12.56-6.02-18.91c-1.03-3.48-1.8-7.04-2.63-10.57c-0.33-1.4-0.74-2.83-0.73-4.24c0.09-7.55-2.27-14.64-3.89-21.88
		c-0.17-0.76-0.39-1.53-0.43-2.31c-0.44-8.74-1.08-17.48-1.22-26.23c-0.14-8.87,0.13-17.75,0.4-26.61c0.07-2.3,0.58-4.67,1.31-6.86
		c2.78-8.35,4.64-16.94,8.61-25c3.34-6.78,6.58-13.52,11.01-19.63c3.98-5.48,7.68-11.23,12.16-16.27
		c3.69-4.14,8.18-7.66,12.62-11.03c12.9-9.8,25.75-19.81,41.26-25.26c5.74-2.02,11.78-3.46,17.81-4.33
		c15.39-2.22,30.1,0.25,44.42,6.56c8.81,3.88,18.24,6.37,27.34,9.62c3.93,1.41,6.84-0.41,9.7-2.56c2.28-1.71,4.31-3.8,6.73-5.27
		c6.26-3.8,12.53-7.62,19.06-10.93c5.81-2.95,11.97-5.18,17.95-7.8c4.3-1.89,8.41-4.35,12.85-5.76c7.81-2.47,15.68-4.76,24.06-4.92
		c6.33-0.12,12.65-1.17,19.42-1.85c-1.28-3.44-2.6-6.9-3.87-10.37c-8.13-22.2-16.04-44.49-24.44-66.59
		c-5.47-14.42-11.47-28.64-17.54-42.82c-3.44-8.03-7.52-15.79-11.28-23.69c-0.32-0.66-0.43-1.42-0.91-3.05
		c1.92,0.2,3.37,0.12,4.67,0.54c4.89,1.57,8.28,5.06,10.35,9.54c2.34,5.05,4.09,10.37,6.11,15.57c0.33,0.85,0.66,1.7,1.02,2.54
		c1.5,3.46,2.97,6.93,4.54,10.36c0.86,1.88,1.92,3.67,2.61,5.66c0.98,2.04,2.1,4.02,2.92,6.12c2.46,6.28,5.05,12.53,7.1,18.95
		c0.86,2.69,1.1,5.48,2.73,8.01c2.11,3.27,3.59,6.81,4.33,10.81c0.75,4.03,2.78,7.83,4.25,11.73c2.43,6.44,4.91,12.85,7.25,19.32
		c0.61,1.68,0.74,3.54,1.47,5.13c2.12,4.97,4.24,9.94,6.67,15.64c4.47-5.37,8.75-10.41,12.9-15.55c4.25-5.25,8.38-10.6,12.87-16.3
		c-0.15-0.89-0.14-2.24-0.6-3.4c-9.77-24.39-19.24-48.91-29.55-73.06c-6.21-14.53-13.66-28.54-20.78-42.66
		c-1.5-2.98-4.07-5.41-6.02-8.19c-0.83-1.18-1.32-2.58-1.97-3.89c0.24-0.34,0.49-0.68,0.73-1.02c1.53,0.32,3.13,0.47,4.59,1
		c5.65,2.07,9.89,5.88,12.56,11.21c5.14,10.28,10.17,20.62,15.1,31c3.36,7.08,6.57,14.25,9.68,21.45c3,6.96,5.83,14,8.67,21.03
		c4.48,11.11,8.89,22.25,13.37,33.37c0.46,1.13,1.22,2.14,2.13,3.71c1.89-2.44,3.32-4.41,4.87-6.28
		c10.51-12.64,21-25.31,31.58-37.88c7.58-9,15.15-18.01,23-26.76c6.78-7.56,13.52-15.24,21.07-21.98
		c6.84-6.11,11.84-13.8,18.63-19.86c5.25-4.69,10.52-9.36,15.64-14.19c3.8-3.59,7.32-7.46,11.06-11.12c2.97-2.91,6-5.76,9.16-8.45
		c1.03-0.88,2.56-1.18,4.11-1.85c0.1-3.5,2.78-5.53,5.22-7.65c6.71-5.81,13.38-11.68,20.28-17.27c5.26-4.26,10.87-8.08,16.28-12.17
		c3.22-2.43,6.29-5.05,9.53-7.45c2.51-1.86,5.09-3.65,7.8-5.2c1.7-0.97,3.7-1.44,5.99-2.29c3.37-7.45,12.89-10.3,19.23-5.58
		c1.4,11.43,2.62,23.24,4.35,34.98c2.46,16.64,3.12,33.56,7.51,49.9c3.01,11.22,6.48,22.34,9.02,33.67
		c2.49,11.06,5.27,22.05,5.78,33.56c0.68,15.39,2.4,30.73,3.77,46.09c0.82,9.24,1.52,18.5,2.82,27.68c1.28,9.05,3.24,18.01,4.94,27
		c0.11,0.6,0.59,1.13,1.09,2.04c1.3-0.09,2.74,0.04,4.03-0.34c2.84-0.83,5.54-2.21,8.41-2.85c5.16-1.16,10.4-1.98,15.62-2.89
		c11.38-1.97,22.91-2.86,34.32-1.22c8.23,1.18,16.19,4.07,23.58,8.14c8.7,4.8,17.77,9.05,25.98,14.58
		c10.37,6.98,19.33,15.51,23.16,28.15c0.89,2.95,3.02,5.49,4.24,8.37c3.56,8.31,6.2,16.89,7.47,25.89c1.08,7.6,2.41,15.15,3.71,23.2
		c4.3-3.31,9.54-5.18,13.48-9.39c2.71-2.89,6.08-5.45,9.61-7.24c7.8-3.95,15.73-7.78,23.93-10.76c5.43-1.97,11.4-2.93,17.19-3.32
		c6.76-0.47,13.59,0.17,20.39,0.32c0.86,0.02,1.73,0,3.03-0.74c-0.71-0.77-1.36-1.61-2.15-2.28c-10.61-8.97-19.24-19.4-25.35-32.04
		c-4.9-10.13-7.43-20.68-7.5-31.78c-0.05-7.7,0.38-15.42,1.07-23.09c0.56-6.21,2.02-12.34,2.72-18.55
		c0.87-7.73,5.04-13.98,8.97-20.22c3.92-6.2,7.69-12.65,13.23-17.65c3.27-2.95,6.8-5.64,10.29-8.34
		c5.98-4.61,12.01-9.15,18.05-13.69c3.01-2.26,5.96-4.61,9.15-6.59c1.48-0.92,3.43-1.12,5.19-1.52c3.54-0.81,7.07-1.74,10.66-2.26
		c3.32-0.48,6.77-1.02,10.03-0.58c4.47,0.61,9.03,1.62,13.19,3.34c14.89,6.17,26.96,16.14,37.56,28.21
		c8.37,9.53,14.29,20.49,20.36,31.44c4.89,8.82,6.85,18.27,6.91,28.24c0.01,1.47,0.47,2.95,0.88,5.41c3.17-3.42,5.5-6.33,8.23-8.8
		c4.43-4.02,9-7.9,13.73-11.56c5.97-4.62,12.96-7.07,20.17-9.21c6.32-1.87,12.29-4.87,18.56-6.97c4.19-1.4,8.63-2.02,12.93-3.11
		C1194.87,495.98,1196.52,495.24,1198.49,494.54z M573.58,687.94c-5.63,3.68-9.89,2.16-11.89-3.98c-0.72-2.22-1.54-4.46-2.64-6.51
		c-7.8-14.67-15.95-29.16-23.47-43.96c-10.96-21.56-21.48-43.34-32.2-65.02c-0.78-1.58-1.71-3.08-2.61-4.68
		c-1.6,0.97-2.81,1.71-3.54,2.15c-6.89-1.26-13.26-2.47-19.66-3.59c-6.43-1.13-12.89-2.16-20.03-3.35c1.46,3.93,2.53,7.1,3.8,10.2
		c3.38,8.29,9.27,15.46,10.93,24.52c0.14,0.76,0.49,1.5,0.85,2.19c9.46,18.35,18.94,36.69,28.43,55.02
		c0.29,0.55,0.82,0.97,1.14,1.35c0.83-0.29,1.47-0.5,2.11-0.72c0.26,0.7,0.44,1.06,0.53,1.44c3.73,15.26,8.93,30.02,15.11,44.46
		c0.75,1.74,0.56,3.89,0.76,5.46c-5.11,3.35-9.76,1.95-11.45-2.72c-2.79-7.73-5.3-15.57-8.46-23.14
		c-6.45-15.44-13.08-30.8-19.95-46.06c-8.59-19.07-17.49-38-26.26-56.99c-1.9-4.12-3.79-8.23-6-13.03c-1.38,1.44-2.3,2.25-3.05,3.21
		c-2.01,2.57-3.96,5.2-5.92,7.81c-5.4,7.22-10.94,14.35-16.15,21.71c-4.07,5.75-7.59,11.87-11.57,17.69
		c-9.37,13.71-18.59,27.52-25.67,42.6c-3.61,7.69-6.78,15.58-9.98,23.45c-0.54,1.32-0.62,3.14-0.18,4.49
		c1.25,3.85,2.82,7.59,4.36,11.34c3.28,7.99,6.71,15.91,9.91,23.93c5.19,12.96,10.2,26,15.38,38.97c3.06,7.64,6.47,15.13,9.44,22.8
		c3.35,8.65,6.36,17.44,9.59,26.15c1.3,3.5,2.79,6.94,4.2,10.4c0.34-0.01,0.67-0.03,1.01-0.04c0.39-1.95,0.85-3.89,1.15-5.86
		c1.44-9.42,4.5-18.28,9.76-26.22c6.96-10.51,14.3-13.43,26.86-10.86c1.01,2.42,2.15,5.13,3.27,7.82c2.68,1.53,5.27,3.01,8.34,4.77
		c-0.73,4.33-1.37,8.55-2.18,12.75c-0.82,4.22-1.58,8.47-2.76,12.6c-2.27,7.96-5.71,15.4-10.65,22.12
		c-2.62,3.57-4.52,7.73-7.46,10.98c-4.53,4.99-9.7,9.39-14.54,14.1c-1.58,1.53-2.99,3.22-4.32,4.66c-4.54,0.32-7.3-1.83-9.06-4.21
		c-0.69-4.43-0.86-8.13-1.89-11.59c-3.95-13.27-7.99-26.51-12.35-39.65c-3.7-11.14-7.74-22.18-11.89-33.16
		c-4.76-12.6-9.76-25.1-14.73-37.62c-7.81-19.69-15.69-39.35-23.53-59.03c-0.37-0.93-0.57-1.94-0.9-3.07
		c1.46-0.69,2.72-1.29,3.55-1.68c2.65-5.46,4.97-10.57,7.58-15.53c5.66-10.75,11.43-21.45,17.25-32.11
		c2.25-4.12,4.59-8.22,7.24-12.08c5.37-7.83,10.92-15.54,16.5-23.22c5.68-7.81,11.51-15.51,17.24-23.28
		c1.91-2.59,3.71-5.26,6.03-8.58c-1.93-0.28-3.16-0.74-4.29-0.58c-11.14,1.62-22.31,3.39-32.69,7.91
		c-12.09,5.28-24.01,10.97-35.83,16.84c-7.25,3.6-14.33,7.62-19.56,14.17c-0.96,1.2-2.84,1.66-4.07,2.34
		c-2.46-1.03-4.48-1.96-6.55-2.73c-12.24-4.54-24.54-8.94-36.74-13.58c-18.36-6.98-36.51-5.78-54.22,1.84
		c-15.77,6.79-29.36,16.89-41.63,28.94c-9.62,9.44-17.58,20.05-24.29,31.6c-8.48,14.6-11.4,30.83-12.42,47.41
		c-1.07,17.33,0.87,34.52,3.76,51.57c1.53,9,4.09,17.82,6.05,26.75c2.42,11.07,6.39,21.53,12,31.38
		c7.67,13.46,17.16,25.65,26.63,37.81c8.16,10.48,17.45,19.87,29.45,26.1c5.79,3.01,11.59,6.01,17.44,8.9
		c1.89,0.94,3.45,1.81,2.41,4.42c-4.85,0.69-9.28-0.76-13.39-2.53c-4.65-2.01-9.1-2.05-13.15,0.46c-5.63,3.48-11.44,7.02-16.14,11.6
		c-11.41,11.12-19.24,24.68-24.52,39.71c-2.8,7.99-4.8,16.14-3.18,24.62c2.5,13.09,8.81,23.96,19.64,32
		c2.29,1.7,4.52,3.48,7.35,5.66c-1.74,3.19-3.69,6.11-4.99,9.29c-3.8,9.25-9.04,17.64-14.49,25.98
		c-5.07,7.76-9.51,15.94-14.25,23.92c-10.06,16.96-16.22,35.05-16.14,54.99c0.04,10.6,0.3,21.21-0.19,31.79
		c-0.45,9.75,0.39,19.32,2.1,28.85c1.65,9.22,4.83,17.94,9.61,26c4.87,8.2,9.33,16.74,15.08,24.29c5.83,7.64,12.56,14.69,20.7,20.19
		c8.1,5.48,16,11.26,23.97,16.93c0.73,0.52,1.35,1.19,1.98,1.75c0.38,3.17,0.89,6.01-2.62,7.93c-8.57,4.69-15.86,11.35-24.78,15.67
		c-6.63,3.21-12.45,8.07-18.63,12.19c-2.59,1.73-5.43,3.19-7.72,5.25c-6.6,5.92-13.38,11.59-19.39,18.22
		c-11.89,13.12-15.65,28.41-13.28,45.39c1.13,8.12,3.2,16.15,5.34,24.09c5.43,20.17,15.51,38.03,28.87,53.86
		c9.42,11.16,19.86,21.42,31.54,30.44c11.86,9.16,24.71,16.43,38.8,21c13.89,4.51,28.14,8.05,42.41,11.16
		c11.73,2.55,23.67,4.5,35.62,5.56c17.57,1.56,35.23,2.21,52.86,3.01c6.66,0.3,13.36,0.22,20.01-0.19
		c9.9-0.62,19.79-1.58,29.66-2.59c7.14-0.73,14.28-1.57,21.36-2.74c11.72-1.94,23.42-4.04,35.07-6.34
		c8.06-1.59,16.11-3.33,24.03-5.49c12.23-3.34,24.17-7.54,35.76-12.77c13.71-6.18,27.62-11.91,41.43-17.87
		c1.53-0.66,2.96-1.56,4.54-2.4c-0.37-2.68-0.72-5.12-1.04-7.55c-0.9-6.96-1.62-13.96-2.72-20.89c-1.1-6.94-2.76-13.79-3.83-20.74
		c-2.4-15.48-4.77-30.96-6.82-46.49c-2.5-18.92-4.75-37.87-6.93-56.83c-0.88-7.66-1.14-15.38-1.9-23.06
		c-1.17-11.82-2.54-23.62-3.81-35.42c-0.47-4.37-0.92-8.74-1.41-13.38c-1.05,0.16-1.97,0.02-2.5,0.42
		c-4.35,3.29-9.8,4.44-14.19,7.96c-5.67,4.56-12.29,7.91-18.39,11.94c-12.44,8.2-24.82,16.48-37.19,24.78
		c-6.4,4.3-12.67,8.8-19.1,13.05c-4,2.64-10.58,3.7-14.09-0.48c-0.83-2.59,1.35-3.29,2.89-4.36c8.15-5.66,16.31-11.32,24.48-16.95
		c9.9-6.82,19.61-13.93,29.77-20.32c14.71-9.26,29.76-17.98,44.65-26.94c0.87-0.52,1.64-1.21,2.59-1.92
		c-0.55-6.75-0.93-13.4-1.66-20.01c-1.42-12.86-3.01-25.7-4.6-38.54c-0.13-1.02-0.81-1.98-1.31-3.15c-1.3,0.53-2.18,0.77-2.93,1.22
		c-5.02,3.02-9.98,6.15-15.04,9.11c-8.68,5.08-17.44,10.02-26.11,15.11c-8.68,5.1-17.25,10.39-25.95,15.45
		c-6.3,3.67-12.9,6.85-19.09,10.68c-8.66,5.37-16.99,11.28-25.62,16.7c-11.51,7.23-23.1,14.35-34.84,21.2
		c-2.96,1.72-6.55,2.58-9.97,3.23c-3.83,0.72-8.33-2.61-9.49-6.67c3.2-0.98,6.71-1.44,9.57-3.05c12.53-7.03,24.98-14.24,37.26-21.7
		c9.71-5.9,19.02-12.44,28.71-18.37c11.1-6.79,22.44-13.18,33.63-19.83c8.18-4.86,16.2-10,24.45-14.76
		c4.37-2.52,9.08-4.45,13.59-6.75c2.52-1.28,4.98-2.7,7.41-4.16c2.53-1.53,4.96-3.22,7.47-4.79c2.17-1.35,4.39-2.62,6.38-3.81
		c0-1.11,0.06-1.64-0.01-2.15c-1.08-7.88-2.46-15.73-3.2-23.64c-1.23-13.26-2.3-26.55-2.99-39.85c-0.84-16.18-1.19-32.39-1.84-48.59
		c-0.12-2.85-0.84-5.67-1.02-8.52c-0.18-2.81-0.04-5.65-0.04-8.87c1.33,0.18,2.42,0.09,3.28,0.49c2.97,1.39,5.36,0.34,7.52-1.62
		c3.57-3.24,7.03-6.6,10.63-9.8c1.06-0.94,2.46-1.5,3.88-2.34c1.34-1.55,2.69-3.53,4.44-5.04c2.85-2.45,5.96-4.6,8.97-6.86
		c6.98-5.22,13.97-10.41,20.94-15.63c4.57-3.42,8.79-7.43,14.46-8.21c2.69-2.15,4.98-4.31,7.58-6c5.68-3.7,11.54-7.11,17.26-10.73
		c3.97-2.51,7.81-5.21,11.75-7.75c4.92-3.17,9.87-6.29,14.87-9.33c0.84-0.51,1.99-0.5,2.53-0.62c0.7-1.1,1.04-2.26,1.8-2.73
		c14.85-9.11,29.74-18.14,42.79-26.07c16.37-11.76,31.97-20.46,49.3-27.66c0.98-1.08,2.54-2.81,4.09-4.51
		c3.73,1.18,6.9,2.19,10.59,3.36c-0.1,1.5-0.03,3.17-0.37,4.75c-0.91,4.21-2.16,8.35-3.01,12.57c-3.85,19.1-7.6,38.22-11.42,57.33
		c-2.76,13.82-5.47,27.65-8.37,41.44c-3.34,15.85-6.89,31.65-10.26,47.49c-0.32,1.52-0.04,3.18-0.04,5.17
		c1.37-0.39,2.27-0.49,3.03-0.88c4.39-2.26,8.76-4.59,13.12-6.91c1.93-1.03,3.82-2.15,5.78-3.14c4.2-2.12,8.4-4.23,12.64-6.25
		c8.13-3.87,16.3-7.65,24.42-11.52c3.41-1.62,6.73-3.42,10.12-5.08c1.75-0.86,3.59-1.54,5.36-2.39c6-2.88,11.92-5.94,17.99-8.68
		c9.99-4.5,20.04-8.89,30.12-13.17c8.39-3.56,16.85-6.95,25.32-10.33c12.39-4.93,24.79-9.82,37.23-14.64
		c3.72-1.44,7.56-2.57,11.98-4.05c0.72-0.39,2-1.28,3.42-1.81c5.97-2.24,12.09-4.13,17.95-6.63c5.17-2.21,9.34-1.07,13.34,2.42
		c0.16,0.8,0.36,1.56,0.46,2.33c0.07,0.5,0.01,1.02,0.01,2.24c-81.54,27.27-159.7,62.6-235.52,102.33
		c-2.89,8.86-14.22,74.44-13.36,77.78c7.1-2.84,14.17-5.66,21.23-8.49c17.45-6.98,34.86-14.08,52.38-20.89
		c7.41-2.88,15.07-5.11,22.6-7.7c7.25-2.5,14.47-5.09,21.71-7.63c10.36-3.64,20.74-7.19,31.06-10.94c4.4-1.6,9.5-0.21,12.65,4.19
		c-0.59,1.25-1.27,2.71-1.96,4.17c-0.2-0.3-0.41-0.6-0.61-0.9c-30.66,10.27-61.31,20.54-84.15,28.18
		c-23.79,9.72-39.98,16.34-56.54,23.11c6.14,4.87,6.84,11.01,4.46,17.23c-3.64,9.51-7.53,18.98-14.16,26.97
		c-1.75,2.11-3.68,4.15-5.02,6.51c-4.42,7.8-11.32,13.26-17.57,19.39c-3.88-0.89-7.55-1.73-9.94-5.31
		c1.22-7.98,2.51-15.96,3.64-23.97c1.13-7.98,2.09-15.97,3.2-24.49c-1.4,0.49-2.02,0.66-2.59,0.92c-7.39,3.3-14.76,6.64-22.16,9.9
		c-6.18,2.72-12.55,5.03-18.56,8.07c-10.37,5.26-20.48,11.04-30.81,16.37c-1.81,0.93-4.21,0.71-6.34,1.03
		c-0.25,0.04-0.48,0.15-0.79,0.25c-0.29,0.9-0.6,1.84-0.92,2.82c-0.94-0.19-1.66-0.34-1.99-0.41c-1.08,1.15-1.79,2.31-2.83,2.94
		c-2.68,1.62-5.48,3.05-8.27,4.49c-6.28,3.23-12.63,6.32-18.86,9.65c-7.37,3.94-14.64,8.05-21.93,12.14
		c-1.63,0.91-3.15,2.01-4.85,3.11c0.65,6.06,1.28,11.62,1.84,17.18c1.57,15.48,3.13,30.95,4.67,46.43
		c1.14,11.45,2.08,22.92,3.41,34.35c1.4,12.06,3.15,24.09,4.76,36.12c0.62,4.64,1.26,9.28,1.95,13.92
		c0.81,5.39,1.72,10.76,2.54,16.15c0.63,4.14,1.16,8.29,1.78,12.43c2.22,14.85,4.44,29.71,6.7,44.55c0.2,1.32,0.67,2.61,1.09,4.17
		c15.83-6.3,25.84-19.25,37.49-28.38c1.81-2.76,3.1-4.71,4.38-6.66c1.87-2.84,3.98-5.55,5.54-8.55c3.37-6.49,5.73-13.22,3.13-20.69
		c-0.26-0.75,0.16-1.73,0.27-2.66c3.94-1.42,7.65-2.4,11.1,0.31c2.51,3.49,4.71,7.59,8.12,9.85c5.94,3.95,12.5,7.07,19.03,10.01
		c11.06,4.98,22.88,7.4,34.77,9.39c8.63,1.44,17.31,2.63,25.99,3.77c5.04,0.66,10.12,1.08,15.19,1.49
		c18.63,1.5,37.25,3.54,55.91,4.28c26.95,1.07,53.88-0.66,80.78-2.32c4.68-0.29,9.37-1.02,13.94-2.07
		c7.75-1.76,15.44-3.82,23.09-5.97c8.53-2.4,17.06-4.84,25.46-7.64c9.79-3.26,19.36-7.21,29.2-10.33
		c16.67-5.29,30.86-14.47,43.56-26.28c10.93-10.16,18.99-22.65,27.57-34.62c6.35-8.86,11.28-18.85,15.89-28.78
		c3.72-8.01,5.75-16.74,5.54-25.78c-0.04-1.82,0.31-3.64,0.28-5.46c-0.09-5.46-0.26-10.92-0.48-16.37
		c-0.02-0.61-0.42-1.25-0.78-1.79c-2.65-4.03-4.98-8.33-8.07-11.99c-6.78-8.02-14.66-14.91-23.31-20.9
		c-3.24-2.25-3.7-4.49-1.61-7.69c12.15,1.28,24.36-0.08,36.51-1.76c9.14-1.26,17.24-5.1,23.86-11.73
		c4.57-4.58,10.19-8.23,12.42-15.09c2.01,0.62,3.6,1.1,5.17,1.6c3.77,1.2,5.22,3.49,4.66,7.38c-0.2,1.42-0.44,2.83-0.59,4.26
		c-0.87,8.55,0.02,17.04,1.67,25.37c1.67,8.43,3.61,16.89,6.46,24.98c4.13,11.71,11.63,21.68,19.44,31.11
		c5.53,6.68,12.32,12.45,19.15,17.89c8.71,6.93,18.89,10.9,29.93,12.89c9.72,1.76,19.51,2.22,29.3,2.07
		c10.84-0.17,21.71-0.6,32.5-1.66c10.73-1.05,21.37-3.05,32.06-4.56c1.91-0.27,3.92,0.08,5.81-0.27c8.28-1.53,16.58-3.05,24.8-4.9
		c7.62-1.71,15.37-3.24,22.66-5.92c12.98-4.77,23.72-13.1,32.88-23.39c4.53-5.09,8.52-10.59,10.92-17.1
		c1.95-5.3,3.06-10.71,3.74-16.33c1.74-14.25-0.41-27.86-5.68-41.08c-2.49-6.26-6.33-11.64-11.01-16.49
		c-2.55-2.65-2.58-4.78-0.69-8.23c0.67,0.06,1.48-0.02,2.18,0.22c8.27,2.84,16.47,5.93,24.8,8.56c8.09,2.55,16.25,4.94,24.51,6.85
		c7.38,1.7,14.92,2.71,22.41,3.86c2.03,0.31,4.14,0.05,6.55,0.05c5.67-8.15,11.29-16.22,16.82-24.18c3.88,1.26,7.5,2.82,11.29,3.58
		c13.2,2.67,26.58,2.03,39.78,0.5c10.58-1.23,21.02-3.86,31.44-6.2c6.85-1.54,13.79-3.11,20.31-5.65
		c10.08-3.93,19.96-8.45,29.7-13.17c12.74-6.17,24.72-13.64,35.61-22.74c8.01-6.69,16.22-13.21,23.73-20.43
		c8.27-7.95,15.86-16.6,23.72-24.97c5.09-5.42,10.2-10.83,15.18-16.36c12.18-13.51,23.19-27.93,32.99-43.24
		c6.54-10.23,12.77-20.67,19-31.09c3.49-5.83,6.68-11.84,10.03-17.76c5.01-8.87,10.3-17.59,14.95-26.63
		c3.99-7.75,7.38-15.81,10.79-23.84c3.42-8.03,6.68-16.14,9.74-24.32c2.42-6.46,4.49-13.06,6.58-19.64c0.83-2.6,1.35-5.31,1.89-8
		c2.42-11.92,5.62-23.75,6.96-35.79c1.53-13.74,1.64-27.67,1.9-41.52c0.29-15.12-2.32-29.96-6.42-44.42
		c-3.39-11.92-7.78-23.57-12.02-35.24c-5.22-14.34-12.19-27.87-21.97-39.59c-7.51-9.01-15.45-17.87-24.3-25.51
		c-10.37-8.95-22.19-16.09-34.7-21.9c-1.39-0.64-2.87-1.1-5.16-1.97c-47.59,69.97-92.22,141.68-137.58,213.08
		c4.95,4.08,9.73,7.73,14.15,11.76c3.36,3.06,6.54,6.4,9.28,10.02c2.27,2.99,1.82,3.99-1.06,7.21c-2.98,0.48-5.02-1.02-6.95-3.23
		c-3.7-4.23-7.49-8.39-11.47-12.36c-2.27-2.26-4.98-4.09-7.37-6.01c-3.81,2.23-44.32,63.24-45.96,69.16
		c3.82,3.01,7.78,6.15,11.77,9.27c8.01,6.27,16.15,12.4,24.02,18.84c5.92,4.85,11.52,10.09,17.24,15.19
		c3.4,3.03,6.85,6.01,10.12,9.16c3.86,3.72,7.58,7.58,11.32,11.43c3.46,3.56,3.5,6.48,0.15,9.23c-3.35,0.14-5.97-1.31-8.06-3.93
		c-1.22-1.54-2.53-3-3.76-4.53c-6.85-8.48-15.37-15.23-23.35-22.53c-5.39-4.93-10.76-9.9-16.42-14.51
		c-7.28-5.92-14.81-11.53-22.29-17.21c-1.9-1.45-3.99-2.65-6.1-4.03c-2.13,3.34-3.85,6.11-5.64,8.83
		c-11.08,16.8-21.93,33.77-33.34,50.34c-11.17,16.23-22.83,32.11-34.42,48.05c-6.3,8.66-12.91,17.1-19.32,25.67
		c-0.52,0.69-0.65,1.68-0.97,2.53c0.24,0.19,0.47,0.38,0.71,0.56c1.13-0.57,2.22-1.24,3.39-1.7c2.54-1.01,5.06-2.2,7.7-2.8
		c3.53-0.81,9.11,2.1,10.18,5.08c2,5.56,2.01,11.1-1.2,16.22c-2.42,3.85-5.29,7.41-7.84,11.17c-5.01,7.4-11.98,12.7-19.21,17.62
		c-8.34,5.68-17.92,8.41-27.68,10.37c-3.66,0.74-7.21,1.31-9.23,4.5c-5.28-0.19-8.59-3.81-9.57-9.35c1.45-1.77,2.77-3.05,3.69-4.57
		c7.19-11.99,17.46-21.83,23.92-34.33c0.18-0.34,0.49-0.61,0.72-0.93c4.35-6.03,8.71-12.06,13.05-18.1
		c2.29-3.18,4.46-6.45,6.83-9.57c6.23-8.22,12.59-16.34,18.8-24.59c4.48-5.95,8.8-12.02,13.17-18.06
		c5.28-7.3,10.65-14.54,15.76-21.95c4.28-6.21,8.23-12.64,12.34-18.96c4.9-7.55,10.77-14.44,14.84-22.57
		c1.62-3.23,4.19-5.98,6.24-9.01c2.67-3.94,5.25-7.94,8.01-12.13c-40.5-30.73-82.43-58.05-125.33-84.05
		c-5.13,4.52-9.79,8.67-14.49,12.77c-5.81,5.07-11.65,10.09-17.47,15.15c-7.19,6.26-14.46,12.44-21.54,18.83
		c-8.72,7.88-17.29,15.92-25.89,23.94c-8.21,7.66-16.44,15.31-24.54,23.08c-4.61,4.43-8.9,9.19-13.49,13.64
		c-4.78,4.64-9.84,8.99-14.6,13.65c-7.75,7.59-15.29,15.4-23.03,23c-7.84,7.69-15.77,15.3-23.76,22.84
		c-5.13,4.84-10.46,9.48-15.67,14.24c-5.49,5.02-10.89,10.14-16.45,15.09c-3.89,3.46-7.97,6.7-11.86,9.95
		c-5.04-0.46-7.5-2.5-8.75-7.09c-0.24-0.87-0.56-1.72-0.9-2.55c-3.86-9.46-4.54-18.97-0.58-28.61c1.74-4.23,3.11-8.63,5.08-12.75
		c2.48-5.17,5.26-10.22,8.23-15.12c0.7-1.15,2.92-2.31,4.1-2.04c3.58,0.83,7.26,2.39,8.77,5.99c1.54,3.67,2.51,7.66,3.19,11.6
		c1.16,6.75-1.71,12.82-3.84,18.99c-0.33,0.97-0.47,2-0.7,3c0.28,0.13,0.56,0.26,0.85,0.39c13.68-12.94,27.36-25.88,41.05-38.82
		c1.33-0.98,2.31-2.38,3.49-3.56c3.51-3.49,7.17-6.83,10.65-10.35c4.68-4.74,9.12-9.72,13.89-14.37
		c12.72-12.4,25.52-24.73,38.39-36.97c10.96-10.43,22.01-20.78,33.13-31.05c6.31-5.82,12.85-11.41,19.27-17.1
		c3.23-2.86,6.39-5.8,9.68-8.59c6.66-5.63,13.44-11.11,20.06-16.78c2.51-2.15,4.73-4.63,7.05-6.92
		c-7.57-5.61-14.55-11.08-21.83-16.1c-10.87-7.5-21.92-14.73-32.95-21.98c-8.84-5.82-17.74-11.53-26.66-17.24
		c-4.51-2.89-9.17-5.57-13.65-8.5c-3.44-2.25-4.5-5.39-3.26-9.36c1.56,0.15,3.21,0.3,4.86,0.46c0.13-0.16,0.26-0.31,0.39-0.47
		c33.33,22.46,66.65,44.93,100.21,67.54c21.5-19.69,43.13-39.51,65.14-59.67c-1.34-1.09-2.37-2.03-3.49-2.83
		c-9.9-7.04-19.92-13.92-29.71-21.12c-12.65-9.31-25.65-18.03-39.42-25.6c-2.14-1.17-4.2-2.75-5.78-4.59
		c-1.82-2.13-3.42-4.69-1.38-8.21c1.59,0.56,3.22,0.94,4.67,1.66c14,6.93,26.69,15.96,39.39,24.92
		c10.79,7.61,21.26,15.68,31.9,23.51c3.21,2.36,6.49,4.61,9.87,7c6.76-6.23,13.11-12.03,19.4-17.89
		c5.62-5.23,11.12-10.6,16.78-15.78c3.46-3.16,7.23-5.98,10.68-9.16c6.78-6.25,12.31-13.91,20.62-18.47c0.54-0.3,0.9-0.93,1.33-1.41
		c2.8-3.04,5.45-6.24,8.43-9.09c9.39-9,18.93-17.84,28.36-26.8c2.07-1.97,3.8-4.31,5.86-6.28c4.53-4.34,9.23-8.49,13.73-12.85
		c1.88-1.83,3.41-4.01,5.1-6.04c-0.21-0.28-0.42-0.55-0.63-0.83c-20.23,5.63-38.49,16.41-58.12,23.16
		c-4.44-4.26-5.08-7.35-2.61-12.48c1.33-2.77,2.4-5.54,1.64-8.67c-1.01-4.13-2.68-7.9-5.7-11.01c-5.93-6.11-13.14-9.27-21.63-9.67
		c-10.03-0.47-19.96,0.58-29.36,3.95c-5.95,2.13-11.44,5.68-16.93,8.93c-2.86,1.69-5.29,4.11-7.54,5.89
		c-5.5-0.99-6.8-4.27-5.61-11.03c4.3-5.39,8.1-10.03,11.76-14.77c3.6-4.68,3.5-10.02,1.98-15.33c-0.86-2.99-2.28-5.84-3.7-8.63
		c-2.49-4.89-5.17-9.68-7.77-14.52c-7.2-13.44-18.73-20.97-33.49-23.15c-6.78-1-13.82-0.3-20.74-0.22
		c-2.73,0.03-5.47,0.43-8.19,0.77c-8.03,0.98-16.13,1.59-24.05,3.14c-10.23,2-20.3,4.77-30.44,7.21c-3.04,0.73-5.34-0.38-6.76-3.24
		c-1.35-2.73-1.23-5.48-0.35-8.17c3.15-1.14,6.06-2.29,9.03-3.26c6.43-2.1,12.76-4.7,19.35-6.01c12.61-2.51,24.57-6.91,36.64-11.08
		c12.39-4.29,23.78-10.5,34.81-17.48c10.53-6.67,17.99-15.84,22.06-27.63c0.88-2.56,1.47-5.33,1.59-8.03
		c0.37-8.1,0.47-16.22,0.63-24.33c0.29-14.33-4.18-27.26-11.71-39.26c-4.92-7.84-11.6-14.11-18.25-20.42
		c-11.04-10.48-23.67-18.42-37.79-24.06c-10.15-4.05-20.66-6.7-31.55-7.43c-15.2-1.02-30.37,0.04-45.34,2.64
		c-10.26,1.78-20.52,4.08-30.44,7.22c-18.17,5.75-32.88,17.41-47.11,29.6c-6.09,5.22-10.6,11.82-15.2,18.36
		c-8.81,12.5-15.99,25.81-20.42,40.45c-3.26,10.76-6.3,21.69-5.27,33.12c0.52,5.83,1.79,11.6,2.73,17.39
		c0.27,1.66,0.57,3.31,0.93,5.35c-1.45,0.97-2.69,2.3-4.17,2.7c-4.51,1.21-9.15,1.92-13.68,3.08c-5.8,1.5-11.64,2.96-17.28,4.96
		c-7.02,2.48-14.04,5.08-20.72,8.34c-12.93,6.33-22.28,16.65-30.13,28.48c-2.51,3.78-5.16,7.46-7.52,10.87
		c-6.25-0.35-9.44-4.52-8.06-10.48c2.66-11.44,1.61-22.84,0.25-34.25c-0.27-2.3-0.85-4.7-1.9-6.75
		c-8.05-15.79-15.13-32.16-29.25-44.05c-6.34-5.34-12.59-10.6-20.17-14.06c-15.01-6.85-29.49-4.31-42.46,4.4
		c-11.34,7.62-21.66,16.82-31.36,26.58c-10.26,10.33-16.86,22.55-19.3,36.93c-1.89,11.13-2.17,22.36-2.38,33.63
		c-0.28,14.47,4.49,27.24,12.23,39.05c6.53,9.96,15.14,17.98,24.83,24.83c4.47,3.16,9.07,6.13,13.62,9.18c0,1.72,0,3.12,0,4.88
		c-1.46,0.86-2.98,1.76-4.51,2.66c0.01-0.34,0.03-0.68,0.04-1.02c-4.02-1.34-7.94-3.16-12.07-3.9c-5.49-0.98-11.13-1.44-16.71-1.56
		c-14.21-0.29-27.8,2.44-40.4,9.31c-4.57,2.49-9.34,4.7-13.65,7.59c-6.48,4.37-12.69,9.15-18.91,13.91
		c-3.73,2.85-7.33,5.83-9.61,10.17c-1.76,3.35-4.83,5.02-8.59,4.67c-5-2.69-5.62-6.69-3.54-11.33c1.11-2.12,2.38-4.33,2.54-6.61
		c1.63-22.71-2.93-44.12-13-64.58c-3.9-7.93-9.34-14.23-16.26-19.18c-10.88-7.79-22.73-14.11-35.3-18.59
		c-11.46-4.09-23.55-4.42-35.62-2.35c-7.84,1.35-15.73,2.46-23.53,4.01c-4.39,0.87-8.65,2.41-12.8,3.61c0,2.47-0.17,4.18,0.03,5.84
		c0.59,4.92,1.25,9.84,2.01,14.74c2.41,15.66,3.81,31.4,4.4,47.23c0.68,18.17,1.46,36.34,2.27,54.51c0.05,1.21,0.71,2.4,1.32,4.33
		c0.99-1.28,1.57-1.71,1.71-2.25c0.86-3.35,3.1-5.46,6.15-6.66c3.74-1.48,7.51-3.05,11.42-3.91c6.88-1.52,9.89,1.16,9.87,8.21
		c-0.01,3.01,0.23,6.07-0.25,9.01c-0.45,2.73-1.15,5.72-2.71,7.9c-4.1,5.73-8.88,10.97-13.1,16.62c-3.69,4.94-8.55,8.41-13.5,11.84
		c-2.99,2.07-6.13,2.1-9.2,0.26c-3.21-1.92-5.82-3.93-5.44-8.58c0.9-11.08,1.76-22.2,1.71-33.3c-0.08-16.35-0.95-32.69-1.5-49.04
		c-0.23-6.67-0.34-13.35-0.8-20c-0.84-12.12-1.8-24.24-2.93-36.33c-0.41-4.38-1.39-8.72-2.21-13.06c-0.12-0.66-0.79-1.22-1.39-2.08
		c-7.84,3.99-13.45,10.08-18.31,16.63c-1.86,0-3.39,0-5.35,0c-1.12-2.63-2.84-5.16-3.23-7.88c-1.2-8.52-2.12-17.1-2.7-25.69
		c-0.39-5.69-1.46-11.13-3.56-16.4c-3.9-9.77-10.57-17.72-17.23-25.6c-3.7-4.38-7.6-8.85-12.23-12.13
		c-9.37-6.63-18.73-13.33-29.12-18.45c-12.69-6.26-25.99-9.53-40.06-9.64c-8.82-0.07-17.38,1.63-25.83,4.21
		c-13.46,4.12-26.28,9.16-37.19,18.58c-10.42,8.99-19.7,18.83-25.89,31.14c-4.16,8.27-7.29,17.05-11.12,25.49
		c-1.56,3.44-1.28,6.44,0.3,9.72c4.31,8.94,8.41,17.98,12.67,26.95c6.23,13.09,12.38,26.21,18.85,39.18
		c3.32,6.64,7.27,12.96,10.93,19.43c7.78,13.76,15.53,27.55,23.37,41.28C573.96,683.29,574.26,685.56,573.58,687.94z M782.37,885.61
		c-2.68,1.31-4.58,2.11-6.36,3.13c-10.23,5.81-20.49,11.58-30.63,17.55c-11.59,6.84-23.15,13.75-34.58,20.86
		c-16.32,10.14-32.58,20.38-48.75,30.77c-19.45,12.5-39.29,24.43-57.04,39.41c-8.68,7.32-17.56,14.42-26.15,21.84
		c-3.24,2.8-5.94,6.22-9.09,9.57c0.71,37.02,2.7,74.45,7.85,112.75c15.57-8.59,30.22-16.71,44.91-24.76
		c14.71-8.06,29.45-16.05,44.76-24.4c0.43-0.03,1.59-0.11,2.64-0.18c0.92-0.97,1.71-1.81,2.51-2.66c2.33-0.67,4.29-1.87,6.33-2.95
		c15.32-8.12,30.63-16.24,45.98-24.31c3.74-1.97,7.56-3.77,11.34-5.65c0.03,0.03,0.05,0.06,0.08,0.09c2.22-0.97,4.43-1.95,6.65-2.92
		c0.03,0.08,0.06,0.17,0.09,0.25c1.66-1.25,3.32-2.5,5.51-4.15c0.69-3.96,1.43-8.44,2.26-12.9c1.42-7.68,2.8-15.37,4.39-23.02
		c1.28-6.12,2.86-12.17,4.29-18.26c1.76-7.48,3.54-14.96,5.26-22.45c1.31-5.66,2.72-11.3,3.78-17c1.58-8.56,2.81-17.19,4.35-25.76
		c0.36-1.98,1.37-3.83,2.08-5.74c-0.09-0.01-0.18-0.02-0.28-0.03C777.09,911.99,779.63,899.3,782.37,885.61z M1594.82,828.78
		c1.12-1.26,1.81-1.87,2.3-2.61c4.12-6.2,8.34-12.34,12.28-18.65c7.19-11.53,14.14-23.22,21.33-34.76
		c3.45-5.54,7.3-10.83,10.87-16.3c4.56-6.99,9.01-14.05,13.5-21.08c1.05-1.65,1.99-3.39,3.18-4.94c3.32-4.33,6.94-8.43,9.18-13.52
		c0.94-2.14,2.26-4.13,3.53-6.11c3.73-5.82,7.51-11.6,11.29-17.39c6.42-9.84,12.82-19.7,19.29-29.51
		c4.02-6.1,8.11-12.15,12.25-18.16c5.17-7.51,10.46-14.95,15.63-22.47c0.67-0.97,0.93-2.22,1.51-3.66
		c-4.86-1.42-9.13-3.28-13.57-3.87c-12.36-1.63-24.82-1.62-37.2-0.37c-12.74,1.29-25.41,3.16-38.13,4.65
		c-3.65,0.43-6.82,1.5-9.39,4.23c-3.31,3.53-6.7,6.98-10.07,10.46c-6.18,6.38-12.18,12.95-18.6,19.09
		c-10.2,9.75-20.72,19.16-31.03,28.79c-17.49,16.32-34.9,32.72-52.38,49.05c-8.78,8.2-17.64,16.31-26.44,24.49
		c-0.43,0.4-0.63,1.06-1.23,2.1C1527.75,780.52,1561.54,803.96,1594.82,828.78z M498.84,533.59c3.11-6.56,5.71-12.38,8.59-18.05
		c2.18-4.29,4.4-8.64,7.2-12.52c2.87-3.98,6.63-7.31,9.72-11.16c2.93-3.65,5.67-7.42,9.78-9.88c1.41-0.85,2.94-1.62,4.09-2.75
		c5.68-5.61,12.66-9.27,19.75-12.49c9.24-4.19,19.04-6.89,28.97-9.16c15.65-3.57,30.82-1.61,46,2.57c8.31,2.29,15.6,6.56,23.1,10.52
		c14.21,7.5,27.09,16.73,37.57,28.98c4.92,5.75,9.5,11.81,13.92,17.96c4.26,5.94,7.47,12.53,9.56,19.52
		c2.03,6.81,2.06,13.93,2.06,21c0,1.35,0.14,2.7,0.24,4.38c4.47-0.23,5.07-4.81,8.31-5.91c3.24-1.1,6.29-2.79,9.61-4.31
		c-0.78-3.36-1.49-6.11-2.05-8.89c-0.82-4.09-1.64-8.18-2.27-12.3c-1.27-8.26-2.7-16.5-3.52-24.81c-0.84-8.44-0.92-16.96-1.55-25.42
		c-0.84-11.33-1.75-22.66-2.89-33.96c-0.87-8.7-1.66-17.45-3.36-26.01c-2.06-10.36-5.23-20.49-7.55-30.81
		c-2.14-9.54-3.96-19.16-5.59-28.8c-1.35-7.97-2.25-16.03-3.32-24.05c-1.42-10.76-2.8-21.52-4.23-32.28c-0.11-0.84-0.56-1.63-1-2.87
		c-1.53,0.76-2.86,1.25-4,2.02c-4.98,3.36-10.06,6.6-14.82,10.25c-12.54,9.59-25.12,19.12-37.31,29.14
		c-7.56,6.21-14.59,13.1-21.58,19.98c-18.92,18.63-37.85,37.25-56.44,56.2c-9.6,9.8-18.63,20.18-27.63,30.54
		c-7.87,9.07-15.32,18.51-23,27.75c-8.03,9.65-16.03,19.31-24.22,28.83c-2.4,2.79-2.71,5.44-1.17,8.59
		c2.7,5.51,5.34,11.05,8.02,16.58C498.01,532.33,498.25,532.64,498.84,533.59z M1544.91,905.15c15.24-22.99,30.33-45.76,45.64-68.86
		c-0.58-0.68-1.29-1.81-2.27-2.59c-3.26-2.59-6.61-5.07-9.96-7.55c-7.01-5.2-13.95-10.51-21.09-15.54
		c-9.92-6.98-19.95-13.83-30.03-20.58c-11.07-7.41-22.23-14.68-33.39-21.94c-2.48-1.61-5.14-2.93-7.79-4.42
		c-21.5,19.77-42.79,39.34-64.44,59.24C1463.89,848.66,1505.02,875.63,1544.91,905.15z M745.45,1064.37
		c-1.67,0.52-2.67,0.7-3.54,1.13c-7.01,3.45-14.07,6.81-20.98,10.45c-24.4,12.86-48.78,25.76-73.1,38.77
		c-18.57,9.93-37.05,20.02-55.55,30.09c-4.34,2.36-8.56,4.92-12.85,7.39c2.31,20.38,4.56,40.35,6.87,60.31
		c0.05,0.42,0.62,0.78,1,1.23c8.7-4.32,17.37-8.45,25.88-12.9c5.15-2.69,9.95-6.07,15.1-8.76c15.84-8.28,31.74-16.46,47.69-24.53
		c7.45-3.77,15.05-7.26,22.63-10.8c9.47-4.42,18.94-8.86,28.51-13.08c2.43-1.07,3.73-2.4,4.13-5.08c0.8-5.42,1.9-10.8,2.88-16.2
		c1.73-9.51,3.35-19.04,5.24-28.52c1.73-8.68,3.76-17.31,5.64-25.96C745.19,1067.07,745.23,1066.19,745.45,1064.37z M1649.38,606.43
		c0.2,0.28,0.4,0.56,0.6,0.84c0.71,0,1.43,0.09,2.12-0.02c2.58-0.4,5.13-1.06,7.72-1.27c11.84-0.97,23.69-2.05,35.55-2.66
		c12.91-0.67,25.55,0.91,37.49,6.32c1.39,0.63,2.88,1.05,4.76,1.73c21.95-29.41,40.73-60.7,61.61-91.45
		c-20.95-5.25-42.4-4.75-62.36-10.3c-2.13,2.76-3.58,4.95-5.33,6.87c-9.06,9.94-18.14,19.86-27.31,29.69
		c-9.08,9.74-18.29,19.36-27.43,29.04c-1.97,2.09-3.96,4.17-5.86,6.32c-4.75,5.38-9.47,10.79-14.18,16.2
		C1654.28,600.63,1651.84,603.54,1649.38,606.43z M457.78,549.03c0.19,0.42,0.38,0.84,0.57,1.27c10.72,1.64,21.32,4.04,31.93,5.12
		c3.13-4.92,3.89-9.36,1.59-14.26c-2.09-4.47-3.77-9.14-5.77-13.66c-1.27-2.88-2.79-5.66-4.48-9.06
		C473.27,529.15,465.52,539.09,457.78,549.03z"/>
	<path d="M1584.55,1299.8c1.02-0.92,2.02-1.87,3.06-2.76c3.45-2.95,6.19-3.21,10.47-1.04c3.63,1.84,4.92,4.28,4.48,8.69
		c-0.65,6.58-3.25,12.08-9.07,15.66c-3.66,2.25-7.4,4.36-11.03,6.66c-3.15,2-6.2,4.17-9.57,6.45c0.16,0.02-0.15,0.08-0.34-0.05
		c-8.32-5.52-8.17-5.46-4.57-14.71c1.6-4.11,2.62-8.47,3.59-12.79c2.49-11.07,4.91-22.15,7.14-33.28
		c1.23-6.13,2.09-12.34,2.96-18.53c0.9-6.42,1.61-12.87,2.42-19.51c3.54-0.89,7.41-1.85,11.78-2.95c0.76-2.83,3.5-4.29,6.38-5.59
		c3.57-1.62,7.25-3.03,10.67-4.93c3.04-1.68,5.7-4.03,8.67-5.85c1.92-1.17,3.81-2.92,6.12-2.01c6.59-3.53,12.96-6.95,19.33-10.36
		c0.16,0.25,0.32,0.5,0.47,0.76c1.22-1.35,2.43-2.7,3.74-4.16c5.1-1.55,9.81-3.93,13.04-8.82c1.5,0.71,2.95,1.26,4.27,2.04
		c3.27,1.92,4.31,4.82,2.73,8.29c-3.73,8.21-7.61,16.35-11.43,24.52c-0.49,1.04-1,2.07-1.5,3.1c0.19,0.25,0.38,0.49,0.57,0.74
		c1.3-0.74,2.59-1.47,4.69-2.66c3.52-0.28,6.01,2.43,8.37,5.74c-0.14,5.22-1.05,9.92-6.46,12.72c-4.16,2.15-8.04,4.86-12.23,7.43
		c-0.61-0.12-1.47-0.29-2.15-0.43c-1.43,1.73-2.73,3.29-3.9,4.7c-5.19-1.69-7.85-6.62-6.57-11.12c3.21-11.23,7.54-21.98,13.41-32.11
		c0.59-1.02,0.84-2.24,1.25-3.37c-0.28-0.27-0.57-0.54-0.85-0.81c-20.28,11.19-40.57,22.37-60.01,33.09
		c-3.63,19.55-7.09,38.18-10.54,56.82C1584.14,1299.53,1584.35,1299.67,1584.55,1299.8z"/>
</g>
</svg>
