<?xml version="1.0" encoding="utf-8"?>
<!-- Generator: Adobe Illustrator 27.4.0, SVG Export Plug-In . SVG Version: 6.00 Build 0)  -->
<svg version="1.1" id="Calque_1" xmlns="http://www.w3.org/2000/svg" xmlns:xlink="http://www.w3.org/1999/xlink" x="0px" y="0px"
	 viewBox="0 0 2000 2000" style="enable-background:new 0 0 2000 2000;" xml:space="preserve">
<g>
	<path d="M1506.21,1100.86c-3.68,0-6.41-2-9.18-3.79c-2.66-1.72-5.24-3.57-8.16-5.57c-1.07,0.91-2.1,1.79-3.28,2.8
		c-3.43-2.99-3.38-7.17-4.42-10.79c-0.76-2.66-0.65-5.56-1.01-8.34c-0.73-5.7-0.02-11.16,2.13-16.52c1.69-4.2,2.68-8.57,1.75-13.18
		c-1.97-9.85-8.43-16.01-16.94-20.34c-2.78-1.41-5.75-2.81-9.1-1.97c-0.69,0.17-1.32,0.54-2.06,0.85c-0.46,3.61,1.22,5.8,4.03,7.43
		c1.91,1.11,3.98,2.12,4.36,5.25c-1.44,0-2.72,0.22-3.89-0.04c-4.86-1.08-9.78-6.44-10.48-11.39c-0.53-3.8,1.25-6.45,4.71-8.48
		c1.81,0.22,3.79,0.46,6.56,0.79c-0.95-1.46-1.33-2.49-2.06-3.09c-3.67-3.01-7.79-5.18-12.46-6.19
		c-12.37-2.67-23.38-0.35-32.66,8.72c-9.51,9.29-14.51,20.61-16.25,33.7c-1.48,11.15,0.03,22.04,1.77,32.95
		c2.58,16.2,8.18,31.51,14.87,46.37c3.6,8.01,8.11,15.63,12.59,23.21c7.74,13.08,16.56,25.43,26.22,37.16
		c13.23,16.07,27.07,31.61,42.49,45.64c10.39,9.45,20.93,18.75,31.61,27.87c9.55,8.16,19.91,15.25,30.37,22.2
		c5.61,3.73,10.96,7.85,16.59,11.53c9.86,6.45,19.78,12.82,29.81,19.01c7.95,4.91,16.04,9.61,24.18,14.2
		c11.76,6.63,23.77,12.75,36.99,15.98c2.7,0.66,5.53,1.02,8.31,1.09c1.74,0.04,3.5-0.73,5.37-1.16c-0.43-5.39-2.6-9.53-5.51-13.18
		c-3.26-4.09-6.95-7.85-10.46-11.74c-1.19-1.32-2.82-2.38-2.71-5.16c1.18,0.64,2.06,0.89,2.61,1.45c4.57,4.69,9.22,9.32,13.58,14.21
		c3.02,3.39,4.92,7.52,5.83,12c1,4.93-1.2,8.16-6.27,8.53c-3.33,0.24-6.83,0.19-10.05-0.58c-11.5-2.75-22.65-6.77-33.04-12.36
		c-10.52-5.67-20.38-12.56-30.83-18.39c-8.2-4.57-15.87-9.91-23.77-14.9c-11.25-7.11-21.96-14.98-32.68-22.83
		c-2.56-1.88-5.35-3.46-7.84-5.42c-6.32-4.96-12.35-10.29-18.82-15.04c-13.93-10.25-25.62-22.94-38.2-34.66
		c-5.05-4.71-9.58-10.01-14.18-15.19c-5.72-6.43-11.46-12.86-16.84-19.57c-10.54-13.15-20.69-26.61-28.91-41.37
		c-4.82-8.66-9.54-17.42-13.66-26.43c-6.08-13.3-10.62-27.18-12.96-41.66c-0.98-6.09-1.47-12.25-2.16-18.39
		c-0.1-0.93-0.01-1.88-0.12-2.81c-1.6-12.87,1.07-24.92,6.83-36.41c5.15-10.27,12.95-17.94,23.28-22.73
		c8.3-3.85,17.01-3.99,25.66-0.68c0.87,0.33,1.69,0.82,2.57,1.13c7.83,2.77,13.68,7.66,16.56,15.7c7.67,3.49,13.04,9.46,17.48,16.25
		c4.53,6.94,5.73,14.43,2.8,22.47c-1.25,3.44-2.72,6.95-2.38,11.12c0.92-0.35,1.65-0.48,2.21-0.86c8.81-6.01,18.9-7.9,29.21-9.04
		c3.53-0.39,7.11-0.37,10.61-0.94c13.61-2.21,27.33-1.72,40.95-0.91c7.39,0.44,14.87,0.4,22.24,1.57
		c6.28,0.99,12.61,1.61,18.93,2.36c0.88,0.1,1.79,0.01,2.84-0.57c-1.51-0.58-3.01-1.23-4.55-1.74c-9.95-3.3-20.14-5.98-29.8-9.96
		c-18.85-7.76-37.98-15.05-54.64-27.3c-9.24-6.8-18.23-13.77-25.15-23.09c-4.35-5.86-7.19-12.16-7.6-19.55
		c-0.19-3.49,0.41-6.69,2.05-9.6c-1.51-12.8,0.7-15.58,14.71-17.67c-1.88-0.73-3.05-1.13-4.17-1.63
		c-5.14-2.25-10.56-4.04-15.32-6.92c-6.8-4.12-12.52-9.51-14.48-17.8c-1.6-6.75,0.1-13,2.83-19.04c0.71-1.56,2.33-2.71,3.81-4.35
		c1.25,2.47,0.56,4.2-0.02,5.94c-0.71,2.13-1.61,4.21-2.14,6.39c-1.19,4.94-0.65,9.58,2.41,13.9c2.65,3.75,5.88,6.8,9.77,9.15
		c6.43,3.89,13.18,7.15,20.4,9.3c8.77,2.61,17.58,5.07,26.37,7.62c1.55,0.45,3.06,1.01,4.34,1.43c0.29,2.35-0.72,3.07-2.2,3.1
		c-1.29,0.03-2.61-0.15-3.87-0.43c-7.09-1.55-14.17-3.15-21.51-4.22c3.6,2.01,7.24,3.93,10.78,6.05c3.5,2.09,6.89,4.38,10.65,6.78
		c0.48-1.71,0.81-2.89,1.14-4.06c0.32,0.04,0.57-0.01,0.68,0.1c5.83,5.54,13.21,8.31,20.42,11.39c2.93,1.25,5.89,2.42,8.79,3.73
		c1.15,0.52,2.16,1.33,3.49,2.16c-0.61,1.33-1.11,2.44-1.61,3.53c-5.22,0.7-9.94-0.15-14.59-1.8c-9.22-3.26-17.91-7.6-26.13-12.89
		c-3.31-2.13-6.64-4.22-10.05-6.2c-3.59-2.09-7.41-3.54-11.65-3.71c-3.47-0.14-6.24,0.9-7.89,4.01c-0.53,3.38,1.43,5.6,3.52,7.37
		c3.83,3.26,7.98,6.16,12.02,9.19c1.92,1.44,3.87,2.83,6.22,4.54c-1.43,0.86-2.33,1.4-3.23,1.94c-7.13-2.38-13.18-6.38-18.89-10.69
		c-2.08,1.36-1.73,3.03-1.29,4.69c1.4,5.33,3.89,10.11,7.24,14.47c5.65,7.37,12.83,13.09,20.08,18.74
		c10.71,8.35,22.47,14.95,34.89,20.31c11.34,4.9,22.78,9.64,34.43,13.73c12.17,4.28,24.55,8.03,37.01,11.4
		c13.71,3.7,27.54,7.07,41.46,9.87c11.16,2.25,22.53,3.44,33.81,5.08c5.37,0.78,10.73,1.61,16.11,2.27
		c6.84,0.83,13.71,1.47,20.56,2.27c8.91,1.04,17.97,0.16,26.81,2.1c0.72,0.16,1.49,0.07,2.24,0.09c11.22,0.27,22.44,0.52,33.65,0.8
		c0.89,0.02,1.78,0.19,3.36,0.36c-2.64,2.66-5.32,3.68-8.33,3.75c-7.68,0.19-15.35,0.38-23.03,0.32
		c-5.02-0.03-10.06-0.37-15.07-0.78c-13.22-1.09-26.45-2.2-39.65-3.49c-4.24-0.41-8.43-1.41-12.64-2.1
		c-0.71-0.12-1.46-0.02-2.34,0.6c3.38,1.1,6.74,2.27,10.15,3.29c3.04,0.91,6.13,1.66,9.21,2.47c7.59,1.98,15.14,4.08,22.77,5.9
		c21.83,5.19,43.58,10.67,65.07,17.19c8.23,2.5,16.65,4.37,25.02,6.36c10.08,2.4,19.49,6.59,28.92,10.71
		c1.84,0.8,3.43,2.26,4.97,3.6c0.58,0.5,0.7,1.54,1.13,2.58c-3.15,1.02-5.45-0.46-7.81-1.32c-8.61-3.14-17.08-6.74-25.84-9.4
		c-12.7-3.86-25.6-7.04-38.42-10.52c-11.56-3.14-23.09-6.35-34.68-9.39c-5.95-1.57-12-2.75-17.96-4.28
		c-7.79-1.99-15.52-4.24-23.31-6.22c-16.86-4.29-33.71-8.59-50.61-12.67c-19.28-4.65-38.79-8.25-58.42-10.94
		c-14.25-1.95-28.55-3.79-43.03-4.12c-9.35-0.21-18.7-0.67-28.07-0.67c-13.71,0-27.3,1.34-40.64,4.44
		c-4.13,0.96-8.14,2.78-11.96,4.71c-5.34,2.68-8.15,7.93-1.56,14.03c3.54,3.28,7.75,5.86,11.77,8.58
		C1504.55,1096.83,1506.38,1097.93,1506.21,1100.86z"/>
	<path d="M826.42,1624.84c3.11,0.14,5.56-0.04,7.89,0.42c10.37,2.01,20.48,0.45,30.58-1.81c0.18-0.04,0.35-0.17,0.53-0.18
		c9.6-0.56,18.63-3.75,27.83-6.08c5.42-1.37,10.79-3.07,16.05-4.97c14.6-5.27,29.1-10.82,43.7-16.09
		c13.21-4.78,25.94-10.62,38.53-16.82c8.37-4.12,17.03-7.66,25.44-11.69c6.23-2.99,12.27-6.35,18.39-9.56
		c3.81-1.99,7.65-3.92,11.4-6.01c10.12-5.65,20.07-11.6,30.32-16.99c11.62-6.11,22.55-13.29,33.59-20.31
		c5.2-3.31,9.94-7.41,15.35-10.3c5.64-3.01,10.61-6.92,15.97-10.27c1.11-0.69,2.41-1.21,3.27-2.14c3.12-3.36,7.15-5.38,10.95-7.7
		c14.72-8.97,28.6-19.12,42.33-29.51c6.85-5.18,13.88-10.12,20.79-15.22c2.41-1.78,4.77-3.64,7.1-5.52
		c10.06-8.08,20.18-16.09,30.1-24.34c3.86-3.21,7.26-6.99,10.87-10.51c0.94-0.91,1.74-2.07,2.84-2.69
		c6.14-3.41,10.79-8.55,15.73-13.36c2.41-2.34,4.68-4.82,7.1-7.15c3.63-3.5,7.38-6.88,11-10.4c1.6-1.56,2.96-3.36,4.47-5.01
		c5.43-5.93,10.92-11.8,16.29-17.77c1.75-1.94,3.14-4.2,4.81-6.21c3.35-4.03,6.99-7.83,10.12-12.02
		c4.14-5.54,7.95-11.33,11.85-17.05c8.24-12.12,14.95-25.05,20.4-38.64c3.02-7.54,4.8-15.36,5.41-23.43
		c0.4-5.26-0.27-10.45-1.77-15.53c-0.79-2.69-1.43-5.42-2.19-8.3c-1.33-1.74-2.86-3.64-4.28-5.61
		c-7.19-9.93-16.69-16.46-28.48-19.83c-7.81-2.23-15.74-3.22-23.82-3.3c-3.19-0.03-6.37,0.02-9.56,0
		c-12.2-0.08-24.25,1.48-36.28,3.31c-24.33,3.7-47.89,10.38-70.91,18.84c-14.38,5.29-28.5,11.33-42.6,17.35
		c-17.58,7.51-34.64,16.13-51.32,25.46c-12.42,6.94-24.58,14.34-36.89,21.49c-14.59,8.48-28.31,18.28-42.19,27.84
		c-7.72,5.32-14.82,11.4-21.05,18.51c-1.9,0.76-3.22,0.14-4.06-1.91c0.19-2.41,1.28-4.54,3.07-6.29
		c6.85-6.69,14.2-12.76,22.31-17.87c1.73-1.09,3.39-2.32,5.06-3.51c11.76-8.36,23.95-15.97,36.88-22.41
		c3.66-1.82,6.81-4.64,10.38-6.66c10.07-5.71,20.21-11.29,30.37-16.83c6.9-3.76,13.78-7.57,20.86-10.98
		c8.07-3.89,16.34-7.34,24.51-11c5.11-2.29,10.14-4.75,15.3-6.9c5.87-2.44,11.84-4.63,17.76-6.93c4.69-1.82,9.38-3.64,14.19-5.51
		c-0.3-0.27-0.65-0.86-1.02-0.88c-10.74-0.49-21.13-3.01-31.36-5.99c-9.51-2.77-18.86-6.12-28.15-9.57
		c-8.68-3.22-16.54-7.92-23.13-14.55c-3.61-3.63-6.4-7.8-8.42-12.5c-1.48-3.44-1.6-6.91-0.28-10.39c2.42-6.33,6.08-11.6,12.63-14.31
		c3.97-1.64,7.92-3.3,12.38-4.26c1.9-2.05,3.54-4.44,5.74-6.09c4.72-3.53,10.09-5.57,16.08-6.01c13.44-0.98,26.85-2.49,40.3-3.06
		c11.97-0.51,23.98-0.02,35.97-0.01c4.12,0,8.23-0.24,12.35-0.13c9.92,0.26,19.85,0.61,29.77,1.04c6.46,0.28,12.49,2.18,18.14,5.35
		c1.67,0.93,3.18,1.87,3.98,3.96c-1.43,1.16-2.74,1.07-4.08,0.2c-6.83-4.41-14.53-5.93-22.44-6.22
		c-13.11-0.47-26.22-0.66-39.34-0.83c-7.85-0.1-15.71-0.07-23.56,0.11c-8.42,0.2-16.85,0.48-25.25,1.03
		c-9.69,0.64-19.38,1.47-28.79,4.17c-3.62,1.04-7.01,2.44-10.07,5.42c2.01,1.11,3.75,2.06,5.64,3.1c2.14,3.47,4.3,6.98,1.5,11.09
		c-8.33,2.6-13.8-0.03-17.52-8.42c-6.58,1.98-12.42,4.92-16.16,11.13c-2.54,4.21-2.88,8.41-0.6,12.79
		c3.25,6.27,7.54,11.75,13.64,15.35c5.79,3.41,11.76,6.68,17.98,9.19c11.62,4.69,23.48,8.85,35.82,11.22
		c9.52,1.83,19.08,4.21,28.9,3.13c4.24-0.47,8.43-1.53,12.57-2.58c6.15-1.57,12.23-3.45,18.37-5.03c3.04-0.78,6.18-1.21,9.27-1.79
		c1.1-0.21,2.24-0.3,3.31-0.62c13.19-3.96,26.8-4.88,40.43-5.75c8.23-0.53,16.43-0.97,24.69-0.12c6.51,0.67,12.9,1.56,19.28,3.19
		c7.02,1.79,13.37,4.7,19.17,8.85c16.05,11.47,23.71,26.86,21.99,46.81c-1.03,11.95-4.53,23.13-9.63,33.84
		c-7.34,15.43-16.23,29.91-26.61,43.54c-5.79,7.6-11.49,15.23-17.7,22.49c-10.74,12.55-22.23,24.37-34.36,35.56
		c-11.83,10.91-23.62,21.89-35.95,32.21c-14.63,12.24-29.76,23.9-44.82,35.63c-8.56,6.68-17.28,13.17-26.14,19.44
		c-12.65,8.97-25.07,18.3-38.85,25.58c-2.08,1.1-4.02,2.72-5.59,4.5c-2.57,2.92-5.89,4.45-9.23,6.14c-2.98,1.5-5.89,3.21-8.62,5.12
		c-3.81,2.68-7.23,5.97-11.17,8.41c-10.83,6.7-21.7,13.34-32.83,19.52c-7.63,4.24-15.08,8.8-22.79,12.89
		c-7.77,4.12-15.4,8.48-23.2,12.52c-5.47,2.84-11.16,5.27-16.69,8c-9.19,4.55-18.31,9.21-28.01,12.7c-5.4,1.94-10.28,5.28-15.6,7.48
		c-14.87,6.14-29.75,12.28-44.82,17.89c-11.37,4.24-22.98,7.85-34.59,11.42c-11.45,3.52-23.21,5.76-35.03,7.71
		c-7.26,1.2-14.49,1.62-21.79,1.02c-2.41-0.2-4.83-0.57-7.2-1.1C829.24,1629.04,827.35,1628.22,826.42,1624.84z"/>
	<path d="M694.29,803.23c-1.5-3-2.84-5.65-4.29-8.54c0.75-1.63,1.52-3.28,2.37-5.14c1.58-0.39,3.17-0.78,5.18-1.27
		c4.84-19.83,6.23-40.02,4.77-60.43c-0.96-1.67-1.88-3.29-2.91-5.08c3.26-8.74-0.95-16.4-4.23-24.02
		c-5.59-12.96-16.11-20.28-29.38-24.06c-10.82-3.08-21.87-3.18-32.91-2.14c-5.94,0.56-11.85,1.86-17.65,3.3
		c-13.64,3.4-26.99,7.81-39.83,13.51c-13.7,6.08-26.9,13.19-39.7,21.02c-24.99,15.29-48.45,32.69-70.62,51.81
		c-11.49,9.91-23,19.83-33.92,30.35c-17.54,16.89-34.79,34.09-51.79,51.52c-12.82,13.14-25.22,26.71-37.48,40.37
		c-13.27,14.78-25.74,30.25-37.44,46.32c-7.62,10.47-14.59,21.33-20.92,32.62c-2.74,4.9-5.59,9.73-8.44,14.57
		c-0.74,1.25-1.66,2.4-3.22,3.25c0.45-1.32,0.8-2.69,1.37-3.96c6.62-14.77,15.25-28.36,24.35-41.67
		c14.82-21.7,31.4-42.01,48.93-61.56c6-6.69,12.34-13.07,18.44-19.67c2.16-2.33,3.92-5.04,6.11-7.34
		c7.76-8.13,15.53-16.25,23.47-24.19c12.05-12.05,24.13-24.08,36.45-35.85c7.71-7.38,15.78-14.38,23.86-21.36
		c8.92-7.71,18.03-15.2,27.07-22.78c11.79-9.87,24.3-18.78,37.26-27.03c9.64-6.13,19.28-12.29,29.24-17.87
		c21.66-12.12,44.46-21.6,68.61-27.5c11.29-2.76,22.84-4.68,34.48-3.53c10.39,1.03,20.9,2.37,29.91,8.79
		c1.43-0.84,2.68-1.57,4.34-2.54c2.57,0.33,5.5,0.81,8.44,1.04c2.96,0.23,5.99,0.72,7.69-0.56c3.97,0.33,6.94,1,9.82,0.72
		c7.43-0.71,14.95-1.28,22.21-2.93c8.18-1.86,16.12-4.8,24.14-7.35c11.64-3.7,22.48-9.28,33.47-14.48
		c7.79-3.69,14.68-8.92,21.62-14.03c5.04-3.72,9.27-8.12,12.76-13.25c4.47-6.56,2.91-12.19-4.52-15.29
		c-3.77-1.57-7.8-2.69-11.81-3.52c-13.35-2.78-26.77-2.46-40.2-0.45c-19.82,2.96-39.41,7-58.79,12.08
		c-5.95,1.56-12.08,2.45-17.76,5.04c-1.17,0.53-2.8,0.08-4.89,0.08c0.77-1.53,1.02-2.67,1.73-3.3c1.1-0.96,2.44-1.74,3.81-2.29
		c2.25-0.9,4.56-1.75,6.93-2.27c16.26-3.61,32.48-7.39,48.82-10.6c9.89-1.94,19.97-2.94,29.96-4.35c8.81-1.24,17.58-0.53,26.3,0.81
		c4.61,0.71,9.2,1.68,13.7,2.91c4.58,1.25,8.63,3.61,11.86,7.2c4.4,4.89,5.02,9.4,1.32,14.77c-2.42,3.52-5.23,6.91-8.43,9.72
		c-12.49,10.97-26.52,19.54-42.04,25.57c-11.68,4.53-23.32,9.19-35.14,13.35c-11.18,3.94-22.86,5.65-34.69,6.31
		c-2.75,0.15-5.49,0.52-8.21,1.07c-4.82-0.89-9.71-2.64-14.71,1.36c3.33,4.58,6.58,9.05,10.11,13.91c2.78-0.83,5.64-1.59,8.44-2.54
		c19.68-6.66,39.25-13.64,59.05-19.92c10.33-3.28,21.16-4.64,32.01-5.52c8.65-0.7,17.2-0.46,25.74,0.95
		c2.74,0.45,5.45,1.13,8.6,1.79c0.5-1.36,1.01-2.69,1.5-4.03c4.5-12.26,13.14-21.04,24.56-26.57c8.54-4.13,18.12-4.57,27.55-3.25
		c5.16,0.72,10.24,2.04,16.26,3.27c0.28-0.09,1.51-0.49,2.8-0.9c5.25,0.72,9.44,3.05,12.55,7.53c1.46,2.11,3.56,3.79,5.46,5.57
		c3.07,2.86,3.39,3.27,5.18,7.9c-0.51,2.7-2.36,3.45-4.8,3.2c-3.72-1.7-3.33-4.68-2.51-7.7c-2.07-2.77-4.97-4.19-7.79-5.59
		c-7.91-3.91-16.08-7.23-24.87-8.52c-18.91-2.77-39.05,5.54-47.73,24.06c-1.02,2.18-2.23,4.39-1.16,7.18c2.9,2,5.95,4.1,9.16,6.32
		c-0.85,2.41-1.69,4.82-2.43,6.93c-2.26,2.1-4.55,3.41-7.31,3.23c-1.37-0.09-2.69-0.83-3.54-1.11c-1.84-3.78,0.54-5.96,1.64-8.6
		c-0.84-2.31-2.68-3.42-5-3.85c-6.06-1.13-12.1-2.77-18.22-3.17c-11.43-0.75-22.78,0.48-34.05,2.77
		c-12.33,2.51-24.18,6.46-36.03,10.58c-12.56,4.37-25.19,8.5-37.4,13.8c-1.5,0.65-3.14,1-5.01,1.58c1.29,5.23,2.53,10.26,3.81,15.45
		c1.39,0.82,2.78,1.65,4.41,2.61c-1.19,1.29-2.17,2.36-3.28,3.56c0.29,2.06,0.71,4.08,0.83,6.11c0.17,2.79,0.12,5.59,0.16,8.38
		c0.04,2.79,0.08,5.59,0.12,8.38c0.02,1.3,0.17,2.61,0.08,3.91c-0.85,12.7-2.52,25.29-4.81,37.83c-3.42,18.8-9.19,36.87-15.68,54.76
		c-3.13,8.62-6.2,17.26-9.54,25.79c-1.62,4.16-3.69,8.16-5.73,12.14c-9.45,18.52-18.75,37.12-28.54,55.46
		c-5.73,10.73-12.09,21.13-18.49,31.48c-8.76,14.17-17.66,28.26-26.82,42.16c-5.66,8.59-11.89,16.81-17.95,25.14
		c-11.14,15.29-22.33,30.54-33.53,45.78c-6.21,8.45-12.53,16.82-18.75,25.27c-1.53,2.08-2.84,4.31-4.52,6.9
		c-0.87-0.99-1.41-1.6-2.04-2.32c1.97-4.21,3.47-8.36,6.47-11.87c4.24-4.96,8.4-10.04,12.02-15.45c4.48-6.68,9.77-12.66,14.79-18.89
		c5.11-6.34,9.72-13.16,14.55-19.73c3.97-5.39,7.5-11.1,11.6-16.4c2.12-2.74,4.07-5.61,6.04-8.46c5.08-7.32,10.21-14.61,15.18-22.01
		c4.55-6.77,9.29-13.47,13.21-20.6c1.65-3.01,3.58-5.9,5.06-9.03c0.76-1.61,2.36-2.81,3.91-4.58c0.33-3.12,1.89-6.2,3.97-9.18
		c2.12-3.05,3.67-6.49,5.48-9.75c1.35-2.44,2.23-5.28,4.59-5.7c1.42-3.52,2.34-6.33,3.64-8.96c7.16-14.42,14.52-28.74,21.58-43.21
		c4.59-9.41,9.3-18.83,13.02-28.6c5.32-13.98,9.82-28.27,14.58-42.46C692.56,810.35,693.32,806.85,694.29,803.23z"/>
	<path d="M1326.92,1036.54c3.09-4.43,7.42-5.58,12.2-5.32c2.24,0.12,4.47,0.47,6.68,0.83c6.54,1.08,10.82,4.91,12.86,11.13
		c1.33,4.04-0.37,7.77-1.97,11.34c-1.86,4.16-4.87,7.48-8.33,10.46c-13.58,11.7-29.19,19.54-46.31,24.53
		c-12.4,3.62-24.95,6.56-37.82,7.99c-12.26,1.36-24.47,3.2-36.76,4.13c-17.56,1.32-35.23,2.22-52.79,1.12
		c-19.4-1.22-38.75-3.59-57.48-9.33c-8.4-2.57-17.13-4.34-25.17-7.74c-8.69-3.67-17.89-6.65-25.03-13.44
		c-5.68-5.41-8.95-11.9-9.95-19.6c-0.24-1.85-0.24-3.73-0.38-6.2c-1.03,0.85-1.88,1.37-2.48,2.09c-5.4,6.46-10.73,12.98-16.16,19.42
		c-1.53,1.81-3.32,3.41-4.86,4.97c-2.47-0.99-2.42-2.52-1.59-3.86c1.28-2.06,2.78-4,4.33-5.87c13.96-16.88,27.92-33.77,41.97-50.59
		c3.24-3.87,6.86-7.42,10.21-11.2c6.69-7.56,13.25-15.23,19.96-22.78c5.46-6.15,10.99-12.24,16.6-18.26
		c9.2-9.86,18.46-19.68,27.79-29.42c2.97-3.1,6.3-5.86,9.38-8.87c2.13-2.09,4.06-4.39,6.15-6.51c7.2-7.31,14.29-14.74,21.7-21.84
		c6.61-6.34,13.58-12.32,20.41-18.44c2.49-2.24,5.06-4.39,7.53-6.65c6.34-5.8,12.63-11.64,18.97-17.43c1.1-1,2.23-2.09,3.55-2.72
		c4.12-1.94,7.05-5.36,10.52-8.1c5.28-4.16,10.22-8.74,15.42-13c4.62-3.78,9.36-7.43,14.12-11.03c5.49-4.15,11.08-8.17,16.62-12.25
		c1.2-0.88,2.37-1.81,3.58-2.68c3.18-2.3,6.32-4.65,9.57-6.85c4.17-2.82,8.34-5.56,12.27-8.78c5.18-4.24,11.2-7.47,16.85-11.15
		c2.49-1.62,4.9-3.38,7.46-4.88c5.65-3.29,11.36-6.45,17.06-9.65c1.47-0.82,3-1.54,4.45-2.39c5.17-3.02,10.33-6.04,15.45-9.13
		c2.39-1.44,4.68-3.02,7.08-4.38c3.15-1.58,6.25-3.26,9.45-4.73c6.09-2.8,12.23-5.48,18.35-8.22c5.12-2.29,10.27-4.51,15.35-6.89
		c10.67-5,21.57-9.57,32.91-12.62c5.49-1.48,10.81-4.33,16.81-3.82c0.71,0.06,1.48-0.25,2.18-0.51c10.47-3.86,21.31-3.48,32.14-2.69
		c6.67,0.49,12.83,2.93,18.13,6.92c2.77,2.09,5.28,4.88,7.04,7.87c4.37,7.42,6.19,15.59,5.56,24.25
		c-0.92,12.73-5.27,24.46-10.52,35.9c-10.77,23.44-24.69,44.97-40.07,65.58c-12.21,16.37-25.06,32.24-38.59,47.54
		c-9.8,11.09-19.46,22.3-29.26,33.4c-4.33,4.9-8.81,9.67-13.27,14.45c-1.11,1.19-2.43,2.19-3.84,3.45
		c-1.21-3.06,0.67-4.65,2.07-6.29c4.84-5.71,9.72-11.39,14.68-17c7.2-8.14,14.68-16.05,21.7-24.34
		c9.2-10.86,18.08-21.99,27.07-33.02c0.29-0.36,0.34-0.92,0.66-1.87c-4.06,2.02-7.64,3.93-11.32,5.61
		c-17.47,8.01-35.82,13.12-54.73,16.31c-14.27,2.41-28.65,3.07-43.11,2.35c-16.3-0.81-32.45-2.62-48.29-6.69
		c-12.9-3.32-25.62-7.22-37.28-13.84c-2.54-1.44-4.65-3.69-6.83-5.7c-0.54-0.5-0.59-1.52-1.17-3.13
		c11.97,9.35,25.44,12.69,38.67,16.43c22.12,6.26,44.77,8.76,67.74,8.57c14.49-0.12,28.69-2.31,42.77-5.57
		c13.36-3.1,26.19-7.68,38.69-13.29c8.27-3.72,15.89-8.39,22.17-14.81c1.69-0.23,3.15-0.43,5.07-0.7
		c6.31-9.06,12.97-18.11,19.06-27.53c5.59-8.64,10.71-17.59,15.76-26.56c7.01-12.44,12.86-25.44,16.1-39.39
		c1.96-8.45,2.2-17.11-0.75-25.45c-4.2-11.89-13.17-17.75-25.43-18.96c-11.3-1.11-22.44,0.09-33.45,2.68
		c-19.01,4.47-37.22,11.27-55.05,19.15c-38.69,17.11-75.03,38.32-109.72,62.48c-22.78,15.86-44.8,32.71-66.24,50.3
		c-17.82,14.62-35.03,29.93-51.81,45.74c-30.04,28.31-58.1,58.5-85.74,89.1c-12.67,14.03-24.99,28.38-37.46,42.59
		c-0.22,0.25-0.25,0.68-0.58,1.64c2.99-1.43,5.63-2.69,8.15-3.9c1.41,1.74,1.09,2.99,0.05,3.96c-1.23,1.14-2.62,2.11-4.01,3.06
		c-2.47,1.7-5.01,3.29-7.47,5c-4.14,2.86-6.99,6.81-8.79,11.42c-2.18,5.58-1.18,11.04,1.24,16.34c3.46,7.56,9.53,12.53,16.76,15.96
		c12.85,6.1,25.88,11.78,39.94,14.69c8.6,1.78,17.11,4.04,25.71,5.83c4.39,0.91,8.88,1.42,13.35,1.83c6.89,0.63,13.8,1.07,20.7,1.5
		c13.63,0.85,27.29,0.38,40.87-0.52c18.82-1.24,37.6-3.11,56.17-6.79c12.15-2.41,23.99-5.71,35.57-9.99
		c11.75-4.34,22.11-11.03,31.34-19.41c2.59-2.35,4.69-5.37,6.5-8.4c3.86-6.46,2.7-14.4-7.09-16.83c-4.79-1.19-9.57-1.74-14.45-0.49
		C1329.54,1036.53,1328.21,1036.44,1326.92,1036.54z"/>
	<path d="M993.57,588.12c0.73,0.59,1.28,1.05,2.76,2.25c-2.07-0.16-2.98-0.23-4.05-0.32c-1.74,2.22-3.54,4.51-5.27,6.72
		c-3.37-0.64-5.37-1.9-5.15-5.76c2.7-3.52,5.77-7.28,8.56-11.23c3.13-4.43,6.4-8.72,9.93-12.84c5.84-6.83,11.23-14.03,17.11-20.83
		c12.99-15.03,26.06-29.99,39.29-44.8c9.86-11.04,19.92-21.92,30.99-31.79c6.99-6.23,13.93-12.51,20.98-18.67
		c3.51-3.07,7.19-5.96,10.87-8.83c16.41-12.8,33.42-24.73,51.47-35.12c6.31-3.63,12.34-7.73,19.28-10.29
		c3.46-1.28,6.46-3.76,9.81-5.39c4.18-2.05,8.46-3.94,12.8-5.63c8.86-3.45,17.63-7.24,26.73-9.91c8.4-2.47,17.14-3.81,25.79-5.35
		c8.53-1.53,17.11-1.66,25.66,0.2c9.68,2.1,16.04,8.06,19.09,17.18c2.84,8.47,3.13,17.23,0.9,26.03c-2.09,8.25-5.5,15.93-9.76,23.23
		c-7.62,13.04-17.03,24.63-28.46,34.55c-1.55,1.35-3.17,2.64-4.83,3.85c-1.38,1.01-2.9,1.74-4.83,0.74
		c-0.01-2.41,1.98-3.45,3.38-4.75c8.95-8.31,16.76-17.55,23.75-27.57c5.52-7.91,9.48-16.51,13.12-25.35
		c3.55-8.62,3.89-17.41,1.93-26.44c-2.3-10.6-10.7-16.03-19.94-16.81c-7.52-0.63-15.02-0.06-22.38,1.45
		c-12.28,2.52-24.57,5.07-36.34,9.57c-3.14,1.2-6.26,2.48-9.35,3.81c-18.09,7.82-35.31,17.21-51.96,27.76
		c-12.36,7.83-24.38,16.11-36.07,24.87c-7.34,5.5-14.35,11.46-21.18,17.59c-8.78,7.88-17.4,15.95-25.77,24.26
		c-7.31,7.26-14.19,14.95-21.23,22.48c-0.62,0.66-1.01,1.54-1.9,2.93c2.06-0.4,3.52-0.69,4.96-0.97c0.18,0.63,0.46,1.1,0.34,1.25
		c-2.28,2.94-4.64,5.82-6.91,8.77c-0.74,0.97-1.25,2.13-1.94,3.35c2.09,1.91,4.53,1.82,6.6,1.97c6.69,0.48,13.37,1.46,20.14,0.76
		c3.2-0.33,6.24-0.86,9.26-1.97c5.08-1.87,5.11-1.77,9.53-0.7c-0.56,0.81-0.87,1.82-1.5,2.1c-2.73,1.22-5.54,2.25-8.34,3.3
		c-1.36,0.5-2.99,0.6-3.13,3.13c1.63,0.12,3.21,0.33,4.79,0.33c8.07,0.01,16.01-1.19,23.96-2.52c13.51-2.25,27.09-3.81,40.82-2.08
		c1.3,0.16,2.64,0.15,3.9,0.47c1.8,0.47,3.54,1.17,5.15,1.72c1.43,2.82,1.43,2.82,0.52,5.65c-4.6,0.51-9.2,1.03-14.14,1.58
		c-1.13-0.84-2.47-1.83-4.03-2.98c-2.16,0-4.59-0.15-7,0.03c-8.03,0.6-16.03,1.58-24.07,1.91c-8.9,0.36-17.4,2.61-25.87,4.9
		c-8.3,2.24-16.45,5.1-24.18,8.96c-3.68,1.84-7.21,3.99-10.71,6.16c-8.59,5.31-17.16,10.66-24.46,18.23
		c-3.07,7.82-1.57,15.28,3.31,22.07c4.67,6.5,11.22,10.98,17.94,15.12c0.81,0.5,2.05,0.29,3.61,0.46c0.49,0.67,1.18,1.95,2.19,2.91
		c0.93,0.89,2.15,1.48,3.3,2.11c10.03,5.51,20.4,10.28,31.19,14.11c16.94,6.01,34.18,10.95,51.81,14.51
		c20.73,4.19,41.51,8.05,62.63,9.89c12.87,1.12,25.68,2.82,38.56,3.85c10.64,0.85,21.32,1.15,31.99,1.61
		c14.41,0.62,28.82,1.19,43.24,1.71c2.34,0.09,4.76,0.4,7.57-0.69c-3.72-3.22-8.74-0.89-12.43-4.21c4.45-2.98,9.01-1.54,13.23-1.21
		c4.88,0.38,9.53,1.95,12.79,6.54c-0.33,1.36-0.68,2.76-1,4.09c-0.8,0.24-1.33,0.55-1.84,0.54c-8.39-0.25-16.79-0.95-25.17-0.71
		c-9.37,0.28-18.65-0.9-27.99-0.81c-3.17,0.03-6.35-0.41-9.53-0.59c-15.7-0.89-31.43-1.44-47.09-2.76
		c-14.35-1.21-28.68-2.88-42.93-5.01c-16.27-2.43-32.51-5.22-48.61-8.59c-10.76-2.25-21.2-5.98-31.88-8.68
		c-10.23-2.59-19.82-6.82-29.45-10.92c-11.57-4.92-22.65-10.77-32.94-18.09c-5.72-4.07-10.64-8.9-14.57-14.69
		c-5.25-7.74-5.58-16.09-2.4-24.67c1.42-3.82,4.53-6.48,7.59-8.87c11.4-8.94,23.65-16.49,37.18-21.84c2.03-0.8,3.96-1.83,6.67-3.09
		c-1.25-0.86-1.81-1.24-2.36-1.62c-0.62-0.43-1.23-0.85-1.93-1.34c-0.29-1.2-0.6-2.44-0.9-3.68c-0.66-0.15-1.19-0.34-1.74-0.38
		c-4.84-0.33-9.71-0.44-14.53-1.01c-4.51-0.53-8.3-2.35-9-8.28c-1.23,1-2.13,1.53-2.78,2.27c-9.99,11.42-19.95,22.87-29.91,34.32
		c-3.31,3.81-6.59,7.65-9.88,11.49c-0.49,0.57-1.05,1.12-1.35,1.79C1002.74,577.33,997.08,581.76,993.57,588.12z"/>
	<path d="M1083.35,958.19c-0.49,2.33-0.99,4.71-1.59,7.53c-1.59,1.43-3.32,3.12-5.2,4.63c-3.66,2.93-7.08,6.01-10.02,9.75
		c-9.26,11.77-18.75,23.37-28.25,34.95c-2.25,2.74-4.89,5.17-7.6,7.58c0.75-2.77,2.22-5.17,4.05-7.31c1.96-2.29,4.65-4.01,5.27-7.27
		c0.06-0.33,0.35-0.71,0.64-0.9c5.42-3.62,7.86-9.63,11.67-14.53c1.82-2.34,4.03-4.39,6.55-7.1c0.19-0.65,0.58-2,1.05-3.64
		c-5.75,1.77-9.82,6.35-15.97,6.21c-1.96,3.31-5.95,3.97-9.33,5.2c-9.83,3.57-19.75,6.98-29.79,9.89
		c-16.71,4.86-33.8,7.86-51.09,10.03c-18.43,2.32-36.92,2.87-55.43,3.23c-12.37,0.24-24.64-1.33-36.89-3.1
		c-11.22-1.62-21.93-4.78-32.19-9.47c-4.21-1.93-8.53-3.89-10.97-8.48c2.02-0.92,3.42,0.41,4.72,1.19
		c13.13,7.92,27.78,10.76,42.6,13.22c13.52,2.24,27.14,3.03,40.81,2.91c6.93-0.06,13.85-0.65,20.77-0.91
		c1.81-0.07,3.64,0.23,5.54,0.36c2.76-0.46,5.68-1.24,8.63-1.4c15.93-0.87,31.61-3.5,47.14-7c5.45-1.23,10.79-2.99,16.15-4.61
		c6.61-1.99,13.23-3.92,19.75-6.17c3.7-1.28,7.17-3.2,10.8-4.7c1.83-0.75,3.46-2.14,5.8-1.47c0.79,0.23,2-0.78,2.94-1.36
		c4.1-2.54,8.18-5.13,12.26-7.72c3-1.9,5.96-3.87,8.99-5.72c1.25-0.77,2.63-1.31,4.67-2.31c2.25-3.27,4.95-7.21,7.65-11.15
		c-0.05-0.03-0.1-0.05-0.15-0.08c2.58-3.2,5.36-6.25,7.7-9.61c11.55-16.6,23.02-33.24,33.59-50.49c10.18-16.61,20-33.42,28.46-50.98
		c6.85-14.2,12.48-28.91,17.1-43.94c3.35-10.9,5.68-22.19,5.13-33.7c-0.36-7.45-0.73-15.12-2.77-22.21
		c-3.81-13.27-12.84-22.06-26.28-26.11c-13.95-4.2-28.02-3.94-42.18-1.5c-12.57,2.17-24.88,5.45-36.88,9.65
		c-10.92,3.82-21.6,8.32-32.32,12.69c-6.05,2.46-11.88,5.52-17.99,7.8c-4.34,1.62-8.12,4.2-12.25,6.14
		c-16.8,7.89-32.83,17.22-48.99,26.28c-12.9,7.23-25.39,15.19-37.94,22.75c-0.48,1.19-0.88,2.2-1.33,3.29
		c-3.38,1.24-6.7,2.45-10.24,3.75c-1.44,4.54-5.68,5.97-9.43,8.09c-0.86-0.12-1.76-0.24-2.54-0.34
		c-19.37,13.32-39.16,25.8-58.1,40.28c-0.1,0.52-0.28,1.4-0.54,2.7c-0.97,0.64-2.2,1.45-3.44,2.27c-0.93-0.12-1.82-0.24-2.92-0.38
		c-99.94,72.2-190.94,154.44-272.37,247.16c-0.66,0.1-1.21,0.26-1.75,0.25c-0.35,0-0.69-0.23-1.16-0.41
		c-0.18-0.42-0.69-1.02-0.56-1.4c0.52-1.54,0.95-3.25,1.94-4.47c3.3-4.07,6.68-8.09,10.31-11.87c15.17-15.83,30.36-31.64,45.7-47.31
		c13.5-13.79,26.96-27.63,40.88-40.98c13.25-12.7,27-24.89,40.68-37.13c11.86-10.61,23.75-21.21,35.96-31.41
		c14.65-12.25,29.62-24.12,44.54-36.05c6.43-5.14,13.07-10.03,19.65-14.98c10.76-8.1,21.55-16.16,32.57-24.42
		c-0.42-1.61-0.83-3.16-1.36-5.18c1.05-1.05,2.16-2.16,3.36-3.36c2.19,1.08,4,1.97,6.06,2.98c6.08-4.23,12.17-8.56,18.36-12.76
		c9.59-6.52,19.26-12.92,28.84-19.46c1.77-1.21,3.25-2.86,4.93-4.35c2.49-1.18,5.27-2.18,7.69-3.72c4.55-2.9,9.29-5.52,13.05-9.61
		c1.54-1.67,4.08-2.44,6.2-3.55c1.62-0.86,3.32-1.57,4.94-2.43c4.61-2.45,9.2-4.95,13.79-7.43c0.49-0.26,1.03-0.45,1.46-0.78
		c10.26-7.92,21.6-13.94,33.27-19.47c5.03-2.39,9.45-6.05,14.4-8.65c10.22-5.38,20.55-10.57,30.95-15.59
		c10.45-5.04,20.94-10.03,31.61-14.56c7.73-3.28,15.6-6.27,23.86-8.19c4.7-1.09,9.13-3.29,13.76-4.74
		c12.38-3.87,25.06-6.38,38.01-7.02c11.66-0.58,23.17,0.42,34.18,5.02c12.35,5.15,20.83,13.76,24.77,26.58
		c2.33,7.56,3.1,15.31,3.01,23.27c-0.19,16.16-4.24,31.45-9.36,46.56c-6.27,18.5-14.59,36.12-24.03,53.15
		c-9.9,17.84-20.45,35.34-31.97,52.2C1100.75,933.31,1092.02,945.71,1083.35,958.19z"/>
	<path d="M468.44,1515.11c0.88-2.43,2.55-3.63,4.2-4.79c5.99-4.21,11.26-9.25,16.55-14.27c14.81-14.05,29.61-28.12,44.55-42.03
		c8.89-8.28,18.08-16.23,27.06-24.42c5.93-5.41,11.69-11,17.57-16.46c11.23-10.43,22.48-20.85,33.74-31.25
		c8.1-7.48,16.23-14.94,24.37-22.39c6.06-5.55,12.07-11.15,18.25-16.56c4.04-3.54,8.37-6.74,12.53-10.16
		c1.88-1.55,3.65-3.22,5.44-4.87c0.68-0.63,1.17-1.53,1.94-2.01c7.44-4.71,13.35-11.31,20.49-16.42c6.99-5,13.91-10.15,20.37-15.79
		c11.03-9.62,23.14-17.8,34.85-26.49c9.41-6.99,19.55-12.99,29.3-19.54c5.28-3.54,10.28-7.51,15.63-10.92
		c11.18-7.12,22.44-14.14,33.83-20.92c6.25-3.72,12.83-6.88,19.28-10.26c7.45-3.9,14.74-8.15,22.42-11.52
		c9.04-3.97,17.82-8.49,27.23-11.77c10.57-3.69,21.03-7.76,31.73-11.08c7.48-2.33,14.97-4.76,22.6-6.47
		c10.87-2.44,21.88-4.19,32.81-6.38c3.09-0.62,6.11-1.66,9.13-2.6c10.59-3.3,20.62-7.99,30.22-13.42
		c8.61-4.87,16.89-10.44,23.41-18.13c2.94-3.46,5.54-7.09,6.5-11.64c-0.04-4.1-2.47-6.45-5.92-8.07c-4.64-2.19-9.54-3.28-14.63-3.57
		c-1.83-0.1-3.75,0.24-5.61-1.46c0.4-0.94,0.8-1.89,1.16-2.75c3.97-1.63,7.84-1.96,11.73-0.77c3.92,1.19,7.97,2.23,11.61,4.03
		c7.59,3.77,9.93,10.87,6.02,18.38c-1.87,3.61-4.4,6.97-7.07,10.05c-5.83,6.73-13.04,11.83-20.84,15.99
		c-7.42,3.97-14.84,8.01-22.87,10.7c-0.66,0.22-1.24,0.67-1.98,1.08c0.84,1.4,2.02,0.99,2.98,0.94c9.82-0.53,19.49,0.6,28.82,3.58
		c9.07,2.89,17.05,7.66,22.94,15.45c3.73,4.93,6.29,10.5,6.16,16.56c-0.15,6.46-0.57,12.99-2.69,19.3
		c-5.33,15.91-12.8,30.65-22.18,44.6c-8.5,12.64-18.24,24.21-28.11,35.7c-3.63,4.23-7.42,8.28-12.03,11.65
		c-3.4,2.48-5.58,6.57-8.83,9.33c-5.1,4.34-10.5,8.4-16.82,10.92c-0.25,0.1-0.65-0.19-1.15-0.35c0.12-0.47,0.09-1.15,0.4-1.4
		c8.64-6.92,16.67-14.51,24.51-22.31c4.23-4.21,8.86-8.04,11.81-13.42c0.88-1.6,2.3-2.98,3.69-4.21c3.23-2.85,6.6-5.55,8.04-9.85
		c0.11-0.33,0.37-0.7,0.67-0.88c4.78-2.92,5.9-8.51,9.17-12.53c1.65-2.02,3.24-4.1,4.82-6.17c0.67-0.88,1.28-1.82,1.88-2.76
		c1.52-2.34,3.04-4.7,4.55-7.05c0.51-0.79,1.2-1.52,1.47-2.38c1.95-6.27,6.33-11.36,8.43-17.54c2.11-6.19,4.38-12.35,6.04-18.67
		c2.16-8.22,1.78-16.36-2.65-23.93c-3.34-5.7-8.38-9.53-14.17-12.4c-6.23-3.08-12.89-4.56-19.76-5.66
		c-12.17-1.95-24.31-1.29-36.37,0.08c-14.82,1.68-29.44,4.59-43.88,8.52c-33.94,9.24-66.22,22.56-97.05,39.37
		c-27.32,14.9-53.43,31.77-78.91,49.65c-20.09,14.1-39.75,28.76-58.96,44.04c-9.52,7.57-19.11,15.07-28.51,22.79
		c-18.39,15.1-36.15,30.92-53.58,47.12c-17.84,16.58-35.76,33.08-53.6,49.65c-10.16,9.44-20.22,18.97-30.34,28.44
		c-12.31,11.51-24.66,22.99-36.98,34.49c-7.53,7.03-14.99,14.14-22.62,21.07c-2.62,2.38-5.55,4.45-8.52,6.37
		C473.05,1515.34,471.15,1516.54,468.44,1515.11z"/>
	<path d="M1238.75,881.32c1.08-0.06,1.97-0.11,2.88-0.16c0.82,1.17,1.55,2.21,2.63,3.74c5.47,0.6,11.2,1.44,16.96,1.83
		c13.82,0.93,27.65,1.56,41.47,2.48c8.39,0.56,16.81,1.08,25.14,2.21c18.36,2.49,36.66,5.45,53.96,12.54
		c6.95,2.84,13.63,6.13,18.75,11.98c4.42,5.05,4.81,13.41-0.51,17.66c-3.03,2.42-6.51,4.56-10.14,5.85
		c-7.28,2.6-14.87,3.81-22.59,1.78c-6.94-1.83-14.05-1.14-21.25-1.09c0.68,0.26,1.33,0.63,2.04,0.76c6.24,1.16,12.6,1.87,18.7,3.54
		c4.44,1.22,8.81,3.26,12.73,5.7c12.13,7.57,10.52,23.44,2.88,30.65c-5.33,5.03-11.5,8.36-18.25,10.73
		c-11.19,3.94-22.73,5.85-34.65,6.16c-11.06,0.28-22.09,0.01-33.11-0.58c-8.2-0.44-16.4-1.38-24.53-2.6
		c-11.64-1.75-23.25-3.73-34.8-6.02c-15.03-2.98-30.02-6.22-44.58-11.1c-6.91-2.32-13.86-4.56-20.64-7.24
		c-3.62-1.43-7.06-3.48-10.29-5.68c-2.26-1.54-4.28-3.72-2.97-7.37c0.82,0.29,1.69,0.32,2.05,0.76c2.84,3.48,6.69,5.45,10.75,6.88
		c9.34,3.3,18.72,6.54,28.18,9.47c17.91,5.55,36.35,8.9,54.71,12.42c10.62,2.04,21.48,2.89,32.26,4.01
		c7.81,0.82,15.65,1.4,23.5,1.73c5.2,0.22,10.44-0.08,15.65-0.37c5.05-0.29,10.1-0.7,15.11-1.36c12.77-1.69,24.91-5.18,35.23-13.34
		c1.6-1.26,3.05-2.77,4.37-4.32c5.44-6.39,3.28-13.07-2.56-17.42c-3.85-2.87-8.31-4.32-12.84-5.48c-12.76-3.25-25.8-4.38-38.94-4.53
		c-3.93-0.04-7.88,0.05-11.8,0.28c-5.49,0.32-10.36,1.85-12.58,7.53c-3.89,0.74-3.84-2.2-4.61-4.41c0.83-2.82,1.65-5.64,2.42-8.24
		c0.56-0.36,0.87-0.73,1.18-0.73c4.93-0.02,9.43-1.69,14.1-3.08c8.79-2.61,17.81-4.48,27.11-3.83c9.32,0.65,18.64,1.39,27.96,2.01
		c1.86,0.12,3.74-0.03,5.61-0.13c0.74-0.04,1.57-0.58,2.18-0.37c5.77,1.96,10.61-1.35,15.69-2.85c4.38-1.29,5.99-4.8,5.71-10.35
		c-2.25-3.75-5.65-6.34-9.47-8.44c-6.43-3.55-13.26-6.01-20.34-7.95c-14.84-4.08-29.91-6.84-45.2-8.41
		c-7.62-0.78-15.28-1.24-22.93-1.75c-10.26-0.69-20.53-1.35-30.8-1.91c-4.3-0.23-8.62-0.05-12.91-0.29
		c-3.72-0.21-7.46-0.54-11.11-1.26c-1.94-0.38-3.85-1.48-5.52-2.62C1238.36,887.12,1237.37,884.81,1238.75,881.32z"/>
	<path d="M142.29,1007c3.06,1.16,5.35,0.04,7.43-1.76c9.31-8.05,20.32-12.48,32.14-15.26c11.57-2.71,23.08-1.94,34.44,0.88
		c3.17,0.79,6.18,2.71,8.91,4.62c3.98,2.79,5.23,7.11,5.1,11.88c2.98,1.79,5.82,3.5,8.42,5.06c1.36,4.61-0.41,7.84-3.14,10.59
		c-2.77,2.79-5.8,5.31-8.71,7.95c-0.53,0.48-1.06,0.96-2.19,1.99c5.32,0.79,9.67-1.21,14.15-1.33c4.49-0.12,8.98-0.47,13.47-0.46
		c4.6,0,9.15,1.37,13.6,0.99c0.29-0.51,0.46-0.67,0.45-0.82c-0.11-3.13-1.35-6.43,0.74-9.3c2.66-3.64,5.63-6.95,9.82-9.04
		c11.36-5.65,23.25-6.97,35.54-4.25c4.54,1,8.91,2.75,13.33,4.23c0.65,0.22,1.2,0.77,1.59,1.83c-2.97-0.49-5.92-1.07-8.9-1.46
		c-2.96-0.39-5.98-0.41-8.92-0.91c-7.93-1.34-15.67-0.74-23.27,1.87c-5.86,2.01-10.58,5.49-13.91,10.33
		c-0.82,2.72-0.01,4.78,1.24,6.72c2.93,4.53,6.83,7.88,11.94,9.76c1.57,0.58,3.21,1.12,4.6,2.03c3.54,2.32,7.32,3.71,11.56,3.75
		c3.01,0.03,5.42,1.2,7.05,3.38c1.41,4.33-0.79,7.57-2.36,10.93c-0.91,1.95-2.33,3.38-4.72,3.64c-6-2.58-6.99-8.83-9.67-13.78
		c-3.67-1.67-7.21-3.28-10.92-4.96c-2.9,3.09-4.2,7.9-9.55,8.4c-2.78-0.4-5.61-1.15-6.83-4.55c0.22-2.26,1.81-3.59,3.5-4.78
		c1.65-1.16,3.41-2.16,5.22-3.29c-2.16-3.34-5.4-4.53-8.66-5.16c-4.94-0.96-9.98-1.88-14.98-1.95c-10.32-0.14-20.63,0.58-30.55,3.71
		c-3.71,1.17-7.23,3.06-10.72,4.83c-7.01,3.56-13.94,7.3-20.93,10.89c-2.33,1.2-4.82,2.13-6.37,4.94c0.61,1.04,1.3,2.23,1.95,3.33
		c-0.43,0.48-0.62,0.86-0.91,0.99c-1.91,0.83-3.69,0.38-5.29-0.78c-1.04-0.75-1.95-1.67-2.93-2.52c-5,1.42-9.84,2.81-14.69,4.15
		c-8.56,2.36-17.35,2.77-26.16,2.98c-2.61,0.06-4.72-0.85-6.36-3.13c1.86-3.3,4.93-4.29,8.63-4.75c0.25,1.28,0.48,2.47,0.73,3.8
		c4.98,0.89,9.9,0.07,14.52-1c10.73-2.48,21.66-4.82,31.14-10.85c10.29-6.56,21.8-10.71,32.22-16.96c2.69-1.61,5.03-3.81,7.51-5.75
		c1.61-1.26,3.15-2.63,4.81-3.82c3.82-2.74,5.75-5.18,7.23-10.04c-0.52-0.54-1.38-1.44-2.08-2.17c-1.39,0.72-1.98,0.87-2.34,1.24
		c-0.64,0.68-1.11,1.5-1.69,2.24c-5.17,6.47-10.64,7.09-17.41,2c-0.46-4.49,1.53-7.45,6.22-9.06c1.41-0.49,2.91-0.7,4.37-1.05
		c1.25-0.3,2.49-0.62,3.83-0.96c0.29-4.45-2.12-7.18-5.37-9.27c-1.55-0.99-3.37-1.68-5.16-2.16c-20.2-5.43-38.93-1.96-56.3,9.46
		c-0.56,0.37-0.92,1.03-1.45,1.64c2.89,1.45,5.71-1.76,8.52,0.75c-0.3,0.87-0.64,1.86-1.05,3.04c-5.24,0.75-10.39,1.48-16.8,2.4
		c-3.21-0.4-7.68-0.96-10.82-5.14c-0.89-3.95,0.94-7.16,3.27-10.18c3.73-4.81,8.71-8.24,13.64-11.61
		c11.77-8.06,24.15-15.16,37.39-20.4c12.52-4.95,25.46-8.84,38.78-11.16c6.07-1.06,12.22-1.67,18.34-2.4
		c2.69-0.32,5.24,0.43,7.53,1.81c1.55,0.93,2.48,2.54,1.94,4.3c-0.31,0.99-1.54,1.7-2.89,3.09c-1.24-1.67-2.12-2.85-3.22-4.35
		c-2.23-0.22-4.64-0.78-6.99-0.62c-5.41,0.37-10.84,0.82-16.18,1.75c-5.52,0.97-10.95,2.45-16.38,3.87
		c-17,4.44-32.84,11.51-47.4,21.33c-5.74,3.87-11.3,8.02-16.73,12.32c-1.99,1.58-3.46,3.89-4.97,6
		C141.05,1003.11,140.74,1004.94,142.29,1007z M224,1012.81c-5.44-0.74-7.94,0.25-9.05,3.57
		C218.51,1016.6,221.82,1016.62,224,1012.81z"/>
	<path d="M566.29,1188.38c-1.98,0.55-3.21,0.9-4.45,1.25c-5.12-1.96-8.23-5.17-7.45-10.94c-2.38-0.86-2.82,0.86-3.18,2.19
		c-0.96,3.58-2.89,6.45-5.95,8.91c-0.53,0.06-1.28,0.26-1.99,0.19c-0.9-0.09-1.78-0.41-2.66-0.63c-1.99-3.04-2.1-6.04-0.59-9.4
		c1.26-1.33,2.67-2.81,4.01-4.22c-0.3-2.27-1.67-3.47-3.37-4.4c-2.8-1.52-4.65-3.58-4.9-7c-0.08-1.08-1.24-2.09-1.9-3.13
		c1.37-1.37,2.63-2.63,4.24-4.24c-1.22-0.61-2.02-1.4-2.74-1.32c-4.27,0.45-8.61,0.72-12.74,1.78c-5.6,1.44-11.02,3.58-16.54,5.33
		c-14.85,4.7-29.15,10.76-43.04,17.76c-12.87,6.48-25.66,13.14-38.41,19.86c-2.22,1.17-4.04,3.09-6.18,4.77
		c-1.56,0.56-3.59,0.91-5.2,1.92c-11.39,7.2-22.84,14.32-33.98,21.89c-11.74,7.97-23.27,16.26-34.65,24.73
		c-5.22,3.88-10.01,8.38-14.76,12.85c-7.09,6.67-14.33,13.24-20.86,20.44c-9.01,9.92-16.1,21.15-19.78,34.24
		c-0.69,2.46-1.21,4.96-3.04,8.14c-0.66-0.82-1.31-1.63-1.92-2.39c1.96-10.35,4.37-19.66,9.94-28.29
		c4.92-7.62,10.62-14.49,16.65-21.09c4.89-5.35,10.46-10.16,16.1-14.75c10.59-8.63,21.32-17.1,32.25-25.3
		c8.23-6.17,16.74-11.98,25.33-17.66c9.36-6.19,18.94-12.04,28.43-18.03c5.06-3.2,9.99-6.62,15.22-9.51
		c6.82-3.77,13.89-7.09,20.83-10.64c14.01-7.16,28.22-13.88,42.96-19.39c10.33-3.86,20.82-7.33,31.27-10.88
		c4.13-1.4,8.43-1.78,12.76-1.34c4.81,0.49,6.81,2.37,7.98,7.52c-1.06,1.58-2.28,3.4-3.5,5.23c3.51,3.47,6.92,6.83,10.81,10.67
		c0.86,0,2.56,0.2,4.18-0.05c2.62-0.4,4.82,0.32,6.8,1.91c0.87,0.7,1.62,1.54,2.4,2.35c3.35,3.5,6.68,7.02,9.78,10.26
		c0.11,2.1,0.13,3.6,0.27,5.08c0.54,5.68,2.85,10.37,7.55,13.84c1.61,1.19,3.01,2.73,4.26,4.31c1.71,2.16,3.7,3.6,6.9,3.9
		c0.73-1.64,1.46-3.28,2.27-5.1c1.27-0.41,2.67-0.85,4.23-1.35c0.82,0.9,1.55,1.71,2.23,2.47c-0.04,0.71,0.05,1.3-0.11,1.81
		c-2.04,6.49,0.39,11.68,4.59,16.44c5.86,6.63,13.45,10.62,21.23,14.43c9.49,4.64,19.62,7.34,29.74,10
		c6.68,1.76,13.49,2.98,20.24,4.47c0.82,0.18,1.6,0.54,2.45,1.72c-1.13,0.26-2.28,0.77-3.4,0.72c-8.78-0.37-17.5-1-26.1-3.23
		c-10.93-2.83-21.42-6.72-31.58-11.55c-10.45-4.96-18.78-12.18-23.83-22.81c-0.15-0.32-0.48-0.57-0.99-1.15
		c-1.09-0.34-2.48-0.88-3.91-1.21c-5.06-1.18-8.78-4.09-11.21-8.61c-2.84-5.27-5.53-10.62-8.36-15.89
		C569.51,1193.7,567.93,1191.18,566.29,1188.38z"/>
	<path d="M792.34,1185.18c-0.66-1.75-1.23-3.27-1.79-4.75c0.92-3.02,2.01-5.76,4.44-7.61c5.26,0.28,8.97,3.03,10.09,7.38
		c0.81,3.15-0.41,5.9-3.66,8.1c-4.13,2.8-8.83,4.02-13.67,4.7c-15.62,2.19-31.36,2.67-47.08,2.39c-6.08-0.11-12.2,0.08-18.3-0.4
		c-5.96-0.47-11.99-0.23-17.94-0.8c-8.73-0.82-17.42-2.16-26.14-3.14c-13.27-1.49-26.09-4.77-38.69-9.1
		c-8.52-2.93-15.97-7.63-21.83-14.34c-4-4.58-6.38-10.15-3.77-16.61c2.75-6.81,8.23-9.31,15.01-9.89c0.74-0.06,1.49,0.17,2.24,0.16
		c0.51-0.01,1.03-0.19,2.03-0.4c-2.1-2.21-3.98-4.17-6.09-6.39c-2.4-0.68-5.11-1.42-7.8-2.23c-4.21-1.27-7.94-3.36-10.9-6.65
		c-3.32-3.69-3.87-7.97-1.59-12.47c1.18-2.32,2.21-4.81,4.96-6.27c3.06-0.85,6.01-0.39,8.65,2.43c-2.83,1.8-5.59,3.55-8.07,5.13
		c-0.87,6.13-0.12,7.41,4.5,9.91c6.89,3.73,14.42,5.24,21.99,6.41c15.89,2.45,31.83,4.65,47.95,4.87c1.98,0.03,3.97,0,6.82,0
		c-1.89-2.59-4.17-2.44-5.83-3.34c-2.34-1.27-4.03-2.79-3.07-5.79c1.18-1.66,3.03-2.14,4.39-0.97c4.12,3.56,9.64,4.05,14.27,6.82
		c0.52,1.06,1.08,2.21,1.59,3.25c-1.54,4.94-5.65,6.04-9.6,7.07c-7.2,1.87-14.5,1.37-21.77,0.36c-8.71-1.22-17.39-2.57-26.1-3.8
		c-1.83-0.26-3.71-0.2-5.94-0.31c-0.61,6.78-5.21,9.61-11.15,11.51c-1.5-0.4-3.28-0.87-5.27-1.4c-1.25,0.57-2.59,1.18-3.56,1.62
		c-1.76,2.01-2.27,3.98-1.84,6.1c0.64,3.14,1.55,6.27,3.92,8.56c2.14,2.07,4.43,4.03,6.87,5.73c9.44,6.61,20.44,9.23,31.43,11.54
		c14.46,3.03,29.1,5.02,43.86,6.15c11.19,0.86,22.35,2.25,33.58,1.67c14.75-0.77,29.57-0.65,44.23-2.88
		C786.64,1187.07,789.59,1186.72,792.34,1185.18z"/>
	<path d="M819.76,1020.96c0.69-0.98,1.5-2.14,2.41-3.46c1.11,0.53,2.24,0.69,2.7,1.34c3.01,4.24,7.74,5.23,12.23,6.17
		c9.15,1.92,18.34,3.6,27.77,3.9c16.84,0.53,33.67,1.27,50.48,2.32c12.13,0.76,24.23,2.04,36.2,4.39
		c8.07,1.58,15.91,3.93,23.67,6.52c4.84,1.62,9.17,4.27,12.79,7.91c3,3.01,3.11,3.67,2.69,8.38c-2,2.59-3.9,5.06-6.2,8.04
		c4.44,1.62,8.2,3.08,12.03,4.37c8.84,2.97,15.82,8.42,21.15,15.96c4.57,6.46,1.3,13.46-6.6,14.14c-2.7,0.23-5.67,0.92-8.21-1.96
		c0.51-1.12,1.08-2.37,1.65-3.63c3.62,0.22,7.14,1.29,9.55-2.52c-1.49-4.38-4.7-7.5-8.06-10.44c-7.41-6.46-16.31-9.85-25.79-11.76
		c-20.53-4.13-40.92-3.23-61.18,1.94c-13.77,3.51-27.58,6.88-41.9,10.45c-0.28-0.15-1.09-0.57-2.22-1.17
		c-1.63,2.42-3.27,4.86-4.82,7.16c0.6,1.82,1.04,3.19,1.59,4.85c-1.91,0.9-3.49,1.73-5.57,0.05c-1.24-4.06-0.54-7.85,2.43-11.22
		c4.65-5.28,10.14-9.48,16.67-12.1c15.85-6.36,32.12-11.24,49.12-13.53c13.38-1.8,26.75-3.37,40.29-2.36
		c0.92,0.07,1.92,0.09,2.78-0.17c1.56-0.47,3.06-1.17,4.98-1.93c-1.51-2.11-3.45-3.08-5.45-3.96c-11.03-4.85-22.53-8.05-34.44-9.8
		c-7.21-1.06-14.43-2.1-21.68-2.87c-4.09-0.43-8.24-0.3-12.36-0.43c-13.08-0.41-26.2-0.41-39.24-1.35
		c-12.1-0.88-24.36-0.84-36.2-4.13c-2.52-0.7-5.04-1.44-7.5-2.33C822.56,1026.63,820.51,1024.59,819.76,1020.96z M883.76,1076.75
		c0.51-0.09,1.02-0.14,1.51-0.27c16.45-4.24,32.81-8.83,49.71-11.15c10.99-1.51,21.92-2.16,32.95-0.93
		c2.39,0.27,4.82,0.16,7.23,0.16c0.24,0,0.48-0.47,0.96-0.98c-0.52-1.36-1.1-2.87-1.6-4.17c-4.49-1.61-18.19-1.98-30.35-0.38
		C923.2,1061.8,902.74,1066.54,883.76,1076.75z"/>
	<path d="M1465.99,920.6c-1.25-2.74-0.52-4.74,0.36-6.89c7.48-18.34,18.72-34.19,32.66-48.03c9.42-9.35,19.51-18.05,29.57-26.73
		c8.5-7.34,17.26-14.4,26.15-21.26c9.48-7.32,18.99-14.61,29.42-20.63c4.98-2.88,9.71-6.22,14.43-9.53
		c8.77-6.15,18.25-11.02,27.7-15.98c13.44-7.05,27.03-13.75,41.3-18.97c4.74-1.73,9.43-3.66,14.26-5.08
		c8.24-2.42,16.74-3.37,25.3-3.18c9.29,0.2,18.01,6.53,21.22,15.69c2.59,7.38,2.38,14.78,1.18,22.16
		c-2.92,17.92-9.79,34.52-17.86,50.65c-2.76,5.52-5.92,10.84-8.95,16.22c-0.5,0.9-1.28,1.64-2.05,2.58
		c-1.93-2.43-0.49-4.18,0.33-5.94c3.49-7.47,7.09-14.88,10.51-22.37c4.66-10.23,8.94-20.67,11.23-31.69
		c1.86-8.93,3.89-17.98,1.55-27.23c-2.02-7.99-6.62-13.21-15.01-14.76c-4.47-0.83-8.91-0.98-13.42-0.46
		c-12.4,1.43-24.07,5.42-35.5,10.16c-18.55,7.71-36.13,17.35-53.28,27.74c-19.73,11.96-38.65,25.1-56.73,39.44
		c-17.49,13.86-34.26,28.55-49.66,44.7c-11.94,12.53-22.16,26.38-29.75,42.05c-0.98,2.02-2.19,3.92-3.35,5.84
		C1467.33,919.54,1466.83,919.83,1465.99,920.6z"/>
	<path d="M472.03,1146.22c-0.67-5.94,4-7.14,8.89-9.3c-6.23-2.16-9.6,2.63-15.32,2.18c-0.18-0.19-1.04-1.1-1.7-1.8
		c0.49-1.32,0.56-1.93,0.89-2.32c0.46-0.56,1.05-1.21,1.7-1.39c8.88-2.49,15.45-8.15,21.08-15.14c0.22-0.28,0.58-0.45,1.18-0.91
		c0.74,0.36,1.64,0.79,2.57,1.24c0.06,5.87-4.96,7.82-8,11.55c1.13,1.35,2.29,2.73,3.36,4c0.62,3.1-0.63,5.38-2.72,7.13
		c-2.46,2.07-4.32,4.51-6.21,7.1c-2.06,2.83-4.83,5.25-7.65,7.39c-11.52,8.77-24.17,15.56-37.33,21.61
		c-12.89,5.93-25.94,11.46-39.21,16.44c-9.96,3.74-20.05,7.13-30.16,10.43c-7.63,2.5-15.35,4.75-23.1,6.88
		c-12.08,3.33-24.34,5.86-36.75,7.64c-5.91,0.85-11.87,1.39-17.79,2.17c-7.23,0.94-14.42,2.4-21.67,2.86
		c-8.96,0.57-17.96,0.5-26.94,0.34c-2.29-0.04-4.6-1.34-6.8-2.31c-1.31-0.58-1.85-1.81-0.97-3.47c0.4-0.03,0.96-0.22,1.41-0.08
		c9,2.85,18.1,1.75,27.21,0.8c3.35-0.35,6.74-0.25,10.09-0.62c10.03-1.11,20.05-2.32,30.06-3.57c4.25-0.53,8.5-1.13,12.7-1.93
		c10.44-2,21.02-3.03,31.37-5.75c17.76-4.67,35.02-10.65,52.01-17.56c11.1-4.52,22.03-9.35,32.72-14.76
		c11.67-5.9,23.16-12.12,33.8-19.76C464.57,1152.62,468.05,1149.47,472.03,1146.22z"/>
	<path d="M913.44,427.23c-0.53,2.23-0.78,3.64-1.2,5c-2.31,7.44-2.57,14.84-1.59,22.67c1.01,8.15,4.41,14.55,9.84,20.23
		c1.41,1.47,3.03,2.79,4.73,3.91c8.09,5.32,17.03,8.56,26.49,10.44c1.46,0.29,2.97,0.47,4.46,0.5c12.77,0.27,25.43-0.63,37.85-3.74
		c3.42-0.86,6.72-2.27,9.97-3.67c1.96-0.84,1.87-1.05,3.56-4.22c-0.53-2.86-2.63-4.8-4.84-6.48c-4.32-3.28-8.69-6.53-13.26-9.44
		c-5.55-3.54-10.64-7.57-15.59-11.92c-10.97-9.66-22.4-18.76-35.36-25.71c-1.48-0.79-2.92-1.67-4.32-2.61
		c-0.58-0.39-0.99-1.04-1.85-1.99c4.93-0.25,8.16,2.46,11.6,4.43c3.56,2.04,6.93,4.4,10.52,6.71c0.65-1.11,1.2-2.06,2-3.43
		c1.21,1.17,2.09,2.03,2.97,2.89c7.91,7.72,15.65,15.67,24.61,22.17c13.13,9.52,27.21,17.3,43.38,20.34
		c9.03,1.7,18.19,2.07,27.36,1.15c2.59-0.26,2.59-0.27,6.6,1.38c-1.91,0.72-3.26,1.53-4.71,1.72c-12.71,1.69-25.38,1.98-37.88-1.56
		c-2.3-0.65-4.64-1.16-7.57-1.89c0.45,2.2,0.8,3.93,1.11,5.45c-0.6,3.25-2.64,4.87-5.15,6.46c-5.91,3.75-12.63,4.86-19.23,5.78
		c-9.62,1.35-19.36,2.08-29.07,2.39c-13.09,0.42-25.17-3.47-36.06-10.65c-11.12-7.33-16.96-17.76-16.69-31.23
		c0.13-6.34-0.06-12.75,2.2-18.86C909.17,431.15,909.86,428.82,913.44,427.23z"/>
	<path d="M1098.36,677.9c-1.65-0.67-3.16-0.94-4.2-1.78c-2.33-1.87-4.81-3.76-6.54-6.14c-3.77-5.18-8.23-9.7-12.65-14.25
		c-2.46-2.53-5.4-4.58-8.03-6.95c-5.36-4.83-11.8-7.9-18.18-11c-6.39-3.1-12.9-6-19.53-8.53c-13.91-5.28-28.54-5.86-43.13-5.23
		c-12.24,0.53-24.08,3.41-34.73,9.92c-2.88,1.76-6.06,3.29-6.38,7.45c-1.67-0.11-2.91-0.2-4.62-0.31c-0.52-1.72-1.02-3.39-1.48-4.91
		c6.55-8.74,15.99-11.6,25.28-15.17c0.07-1.07,0.14-2.25,0.27-4.26c1.43,1.28,2.29,2.06,3.35,3.01c10.01-1.74,20.26-2.19,30.59-1.76
		c19.72,0.83,37.73,7.17,54.96,16.36c11.84,6.32,22.47,14.17,31.58,24.04c1.01,1.1,1.92,2.3,2.9,3.44c2.68,3.11,5.04,6.47,8.78,8.59
		c1.3,0.74,2.23,2.47,2.82,3.95C1099.71,675.12,1098.87,676.33,1098.36,677.9z"/>
	<path d="M487.63,1014.18c-1.26,1.14-1.61,1.74-2.05,1.82c-5.5,0.93-10.99,2.08-16.53,2.57c-7.78,0.69-15.61,0.88-23.41,1.28
		c-0.93,0.05-1.87,0.1-2.8,0.08c-5.22-0.07-10.46-0.01-15.67-0.28c-8.73-0.46-17.49-0.34-26.18-1.66
		c-4.77-0.72-9.66-0.66-14.43-1.37c-8.5-1.27-16.99-2.64-25.4-4.38c-6.19-1.29-12.26-3.14-18.34-4.92
		c-8.76-2.57-16.65-6.64-22.75-13.7c-3.99-4.61-4.62-9.95-2.5-15.25c3.44-8.63,10.26-14.07,18.74-17.51
		c0.36-0.15,0.94,0.22,1.99,0.49c-0.92,0.94-1.48,1.61-2.14,2.16c-2.31,1.9-4.88,3.55-6.93,5.7c-2.3,2.41-4.54,5.04-6.12,7.95
		c-3.36,6.15-1.9,12.22,3.69,16.43c6.04,4.54,12.81,7.82,19.96,10.1c6.22,1.98,12.68,3.16,18.98,4.9c6.89,1.9,13.99,2.32,20.99,3.42
		c4.24,0.66,8.45,1.57,12.72,2.02c5.72,0.59,11.48,0.95,17.23,1.21c8.78,0.4,17.59,1.02,26.36,0.83
		c12.71-0.28,25.41-1.23,38.12-1.86C482.96,1014.1,484.8,1014.18,487.63,1014.18z"/>
	<path d="M681.73,596.84c2.25-1.03,3.53-1.61,4.95-2.25c7.68,2.78,15.67,3.76,23.74,2.9c6.31-0.67,12.58-1.84,18.8-3.12
		c10.98-2.26,21.9-4.84,32.39-8.9c9.08-3.52,17.9-7.58,25.74-13.47c3.85-2.89,7.01-6.22,6.48-11.47c-1.4-2.34-3.59-2.82-5.83-3.19
		c-7.26-1.2-14.49-1.3-21.71,0.41c-2.28,0.54-4.62,0.84-7.21,0.42c0.91-0.54,1.75-1.35,2.73-1.58c4.36-1.03,8.74-1.95,13.14-2.78
		c2.01-0.38,4.1-0.34,6.1-0.75c4.98-1.01,9.68-0.19,14.19,1.96c4.79,2.27,6.26,6.27,4.24,11.13c-1.34,3.23-3.47,5.87-6.38,7.64
		c-5.58,3.4-11.13,6.95-17.05,9.67c-13.1,6.02-26.67,10.95-40.83,13.76c-6.91,1.37-13.76,3.16-20.96,3.46
		c-5.2,0.21-10.4,0.95-15.62,0.54C693.15,600.77,687.84,599.33,681.73,596.84z"/>
	<path d="M837.55,516.94c-1.62,2.83-4.02,2.31-5.86,2.93c-6.24,2.12-8.4,5.26-8.04,12.35c2.28,4.11,6.27,5.44,10.65,6.13
		c8.46,1.33,16.84,0.58,24.93-1.84c8.57-2.57,16.92-5.89,25.39-8.8c8.51-2.92,16.35-7.28,24.43-11.13c0.81-0.39,1.7-0.62,2.95-1.06
		c0.38,3.18-1.23,4.84-3.37,6.02c-4.09,2.26-8.14,4.64-12.42,6.48c-8.75,3.77-17.58,7.38-26.49,10.73c-8.63,3.24-17.63,5.06-26.88,5
		c-4.07-0.03-8.21-0.55-12.19-1.44c-5.53-1.24-10.02-4.13-12.13-10.01c-1-5,0.96-9.33,3.92-13.47
		C827.06,516.27,831.77,514.53,837.55,516.94z"/>
	<path d="M397.34,1070.93c2.11-0.13,3.33-0.28,4.54-0.26c6.28,0.12,9.24-2.73,9.55-9.06c0.31-6.32-2.77-11.16-6.77-15.51
		c-5.03-5.47-11.42-9.12-17.98-12.34c-13.03-6.4-26.74-10.77-41.21-12.37c-4.27-0.47-8.61-0.23-12.92-0.28
		c-2.6-0.03-5.2-0.01-8.99-0.01c1.46-1.39,1.94-2.25,2.58-2.4c2.17-0.5,4.4-0.96,6.61-1.06c17.57-0.75,34.22,3.18,50.13,10.38
		c5.45,2.47,10.78,5.26,15.95,8.27c5.71,3.33,10.62,7.62,13.91,13.56c2.69,4.85,3.06,10.01,2.13,15.27
		c-1.09,6.16-6.79,10.38-12.55,9.63C400.3,1074.5,400.08,1074.34,397.34,1070.93z"/>
	<path d="M930.78,618.15c-0.68-0.56-1.63-1.36-2.61-2.17c1.12-1.67,1.62-2.41,2.31-3.45c7.9,0.72,15.89,2.45,24.06-0.5
		c0.1-1.94,0.19-3.91,0.31-6.17c2.98,0.33,4.91,1.7,6.15,4.69c-0.3,1.31-0.68,2.91-1.04,4.46c0.9,0.95,1.72,1.83,2.91,3.08
		c-1.56,0.54-2.58,1.2-3.57,1.17c-2.23-0.08-4.49-0.31-6.65-0.84c-6.09-1.51-12.17-1.87-18.32-0.53
		C933.61,618.05,932.85,618.01,930.78,618.15z"/>
	<path d="M314.08,1028.76c1-1.61,1.75-2.81,2.44-3.92c0.65,0.15,1.16,0.12,1.26,0.31c2.2,4.1,5.96,5.31,10.23,5.61
		c3.13,0.22,6.25,0.43,9.55,0.65c0.19,2.72-1.67,3.68-3.47,5.08C326.82,1036.37,319.43,1036.31,314.08,1028.76z"/>
	<path d="M1796.64,1057.58c6.17-3.29,15.01,0.08,19.99,7.68c-0.58,0.51-1.2,1.06-1.87,1.66c-1.69-0.79-3.17-1.56-4.7-2.19
		c-3.42-1.4-6.83-2.83-10.32-4.02C1798.23,1060.19,1796.95,1059.78,1796.64,1057.58z"/>
	<path d="M1006.24,611.2c-2.1-0.75-3.57-1.27-5.01-1.78c0.14-3.12,3.31-1.69,4.6-3.13c-0.09-1.43-0.17-2.85-0.28-4.58
		c1.4-0.12,2.61-0.23,4.28-0.38c0.43,1.71,0.8,3.22,1.35,5.43C1009.6,608.19,1007.97,609.65,1006.24,611.2z"/>
	<path d="M968.29,1024.66c-0.98,1.18-1.76,2.13-2.57,3.12c-3.01-1.93-3.88-4.77-4.67-8.12c-2.02-0.41-4.14-0.84-6.42-1.3
		c-0.29-0.52-0.63-1.16-0.96-1.77c0.33-0.3,0.58-0.69,0.77-0.66c1.48,0.18,2.98,0.34,4.41,0.72c1.24,0.33,2.67,0.65,3.55,1.48
		C964.35,1019.96,966.03,1022.11,968.29,1024.66z"/>
	<path d="M701.49,801.12c1.3-0.72,2.59-1.43,3.63-2.01c-0.41-2.39-0.68-3.96-1.04-6.04c1.59,0.37,2.89,0.67,4.16,0.96
		c0.81,2.63,1.74,4.89-0.61,7.23c-1.64,0.38-3.5,0.81-5.37,1.24C702,802.03,701.75,801.57,701.49,801.12z"/>
</g>
</svg>
