<?xml version="1.0" encoding="utf-8"?>
<!-- Generator: Adobe Illustrator 27.4.0, SVG Export Plug-In . SVG Version: 6.00 Build 0)  -->
<svg version="1.1" id="Calque_1" xmlns="http://www.w3.org/2000/svg" xmlns:xlink="http://www.w3.org/1999/xlink" x="0px" y="0px"
	 viewBox="0 0 2000 2000" style="enable-background:new 0 0 2000 2000;" xml:space="preserve">
<g>
	<path d="M690.39,900.93c7.59,6.33,14.93,12.45,22.27,18.58c2.62-0.85,4.94-1.61,7.91-2.58c5.46,3.17,11.28,6.29,16.84,9.83
		c5.37,3.43,9.93,8.18,16.1,10.14c1.88-1.16,3.42-2.11,5.45-3.36c6.88,4.08,13.92,8.25,20.82,12.35c1.81-1.12,3.05-1.89,5.08-3.15
		c5.25,3.83,10.7,7.81,15.81,11.53c2.86-1.74,4.79-2.91,7.1-4.32c4.36,2.57,8.56,5.17,12.89,7.52c1.69,0.91,3.83,1.99,5.53,1.69
		c7.13-1.26,12.99,1.3,18.58,5.18c0.4,0.28,0.9,0.42,1.59,0.73c5.57-0.86,10.86,0.8,16.01,3.28c1.44,0.69,3.27,1.53,4.68,1.22
		c6.79-1.5,12.22,1.61,17.05,4.34c8.53,2.29,14.04-5.16,22.43-4.9c2.28,3.54,4.82,7.49,7.62,11.85c-1.61,1.5-2.82,2.61-3.84,3.56
		c-8.78-4.04-8.78-4.04-21.46,1.78c-2.45-0.99-5.61-1.94-8.44-3.5c-3.99-2.2-7.95-3.04-12.37-1.71c-3.66,1.1-7.09,0.71-10.43-1.42
		c-3.4-2.17-7.15-3.03-11.34-2.86c-2.41,0.1-5.09-1.02-7.28-2.24c-3.23-1.81-6.28-3.81-10.19-2.93c-5.88,1.32-10.53-1.29-15.13-4.43
		c-2.65-1.81-5.56-3.24-8.35-4.83c-0.1,0.39-0.21,0.79-0.31,1.18c-2.66,0.99-5.31,1.97-7.62,2.83c-4.66-3.78-8.61-6.98-12.47-10.11
		c-1.59,0.54-2.74,0.77-3.73,1.29c-2.35,1.24-4.36,0.82-6.45-0.69c-3.62-2.61-7.36-5.08-11.07-7.57c-3.18-2.14-6.42-3.46-10.1-0.92
		c-0.74,0.51-1.9,0.4-3.2,0.63c-5.14-3.61-10.35-7.38-15.68-10.98c-3.14-2.12-6.47-3.98-9.71-5.96c-3.26-1.99-6.64-2.84-10.41-1.48
		c-3.31,1.2-5.75-0.67-8.05-2.61c-3.16-2.66-6.22-5.42-9.33-8.14c-3.92-3.43-7.93-6.24-13.71-5.79c-2.13,0.16-4.6-1.58-6.61-2.91
		c-5.1-3.38-9.98-7.09-15.03-10.55c-3.34-2.28-7.03-4.07-11.18-3.19c-7.66,1.63-13.95-1.19-19.92-5.46
		c-2.56-1.83-5.08-3.73-7.78-5.32c-5.36-3.14-11.03-5.44-17.44-4.56c-4.82,0.66-9.14-0.52-13.34-2.79
		c-5.09-2.75-10.19-5.55-15.49-7.84c-2.29-0.99-5.28-1.54-7.64-0.97c-4.64,1.12-8.92,0.38-13.13-1.12
		c-10.26-3.66-20.44-7.52-30.65-11.33c-0.92-0.34-1.77-0.87-2.99-1.48c-0.15-1.3-0.32-2.7-0.5-4.25c1.13-0.54,2.03-1.37,2.84-1.29
		c4.59,0.43,9.36,0.43,13.69,1.79c7.23,2.27,14.12,5.57,21.25,8.18c2.06,0.75,4.74,1.45,6.62,0.76c5.25-1.93,9.97-1.18,14.72,1.23
		c4.57,2.33,9.27,4.44,13.72,6.97c3.54,2.01,7.08,2.27,10.94,1.47c1.55-0.32,3.41-0.6,4.79-0.05c8.58,3.42,17.54,6,25.08,11.75
		c3.87,2.95,8.51,3.76,13.23,2.58c5.02-1.26,9.49-0.43,13.67,2.51c4.74,3.33,9.61,6.48,14.18,10.03
		C680.56,901.28,684.75,902.98,690.39,900.93z"/>
	<path d="M760.91,1206.03c-1.14-0.96-2.48-2.5-4.16-3.43c-8.81-4.88-13.48-12.5-14.78-22.24c-0.62-4.64-2.72-8.33-5.43-12
		c-3.62-4.89-6.81-10.1-10.18-15.18c-0.73-1.1-1.15-2.56-2.12-3.32c-6.23-4.87-6.84-12.16-8.38-19.02
		c-2.16-9.65-5.51-18.68-12.51-26.12c-2.56-0.12-5.01-0.24-7.33-0.36c-6.21-7.92-13.31-5.25-21.38-1.36
		c0.5-7.06,3.88-11.58,8.48-16.61c6.09,1.39,12.46,2.84,18.83,4.29c0.43,1.6,0.77,2.85,1.18,4.37c8.02,3.27,11.29,10.69,14.28,18.04
		c2.66,6.57,4.43,13.49,6.7,20.22c1.54,4.57,2.95,9.32,8.48,10.76c1.53,8.44,6.5,14.62,11.45,20.86c3.21,4.04,5.55,8.45,6.26,13.82
		c0.9,6.84,4.27,12.68,10.23,16.3c5.09,3.09,7.86,7.27,8.86,12.98c2.42,13.84,9.53,25.17,18.77,35.46c2.27,2.53,3.82,5.75,5.49,8.77
		c5.43,9.84,10.59,19.84,16.22,29.56c1.87,3.23,4.68,5.97,7.33,8.68c3.79,3.88,6.23,8.41,8.08,13.49
		c1.96,5.39,4.55,10.56,6.74,15.53c2.19,0.48,3.62,0.8,5.86,1.29c0.88,2.08,2.21,4.53,2.95,7.15c1.41,4.93,2.64,9.92,3.64,14.95
		c1.03,5.17,3.03,9.3,8.42,11.22c2.48,0.88,4.75,2.43,4.89,5.79c-1.7,2.16-3.71,2.31-6,0.9c-0.98-0.61-1.91-1.48-2.98-1.74
		c-7.57-1.87-10.53-7.03-11-14.4c-0.24-3.77-1.08-7.54-1.94-11.24c-0.55-2.35-1.63-4.58-2.45-6.81c-6.18-0.66-9.03-4.49-10.95-9.36
		c-1.82-4.62-3.58-9.26-5.55-13.82c-0.84-1.94-1.74-4.12-3.26-5.47c-9.03-7.98-14.29-18.53-19.96-28.79
		c-2.88-5.21-5.51-10.57-8.37-15.79c-1.02-1.87-2.22-3.71-3.64-5.29c-8.41-9.34-15.16-19.64-18.69-31.8
		C762.07,1213.13,761.66,1209.82,760.91,1206.03z"/>
	<path d="M674.63,837.79c-1.67,0.13-3.11,0.25-4.55,0.36c-9.83-5.6-18.16-14.75-31.29-12.16c-5.96-5.61-13.37-7.45-21.31-7.94
		c-1.36-0.08-2.63-1.22-4.01-1.66c-2.03-0.66-4.12-1.13-6.72-1.83c0,2.84,0,4.59,0,6.79c-1.89,0.66-3.7,1.3-5.68,1.99
		c-1.73,2.12-3.59,4.38-4.71,5.74c-1.37,4.63-2.46,8.3-3.77,12.73c0.36,0.35,1.43,1.31,2.43,2.33c2.74,2.79,4.99,5.66,3.67,10.08
		c-0.93,3.12,1.21,5.25,3.21,7.32c2.05,2.11,3.27,4.31-0.63,6.76c-1.41-1.13-3.38-2.03-4.25-3.56c-2.45-4.29-4.52-8.82-6.61-13.3
		c-1.23-2.64-2.31-5.37-3.31-8.1c-0.98-2.68-1.77-5.42-2.52-7.74c1.88-2.29,3.13-3.8,4.47-5.44c-0.5-1.93-0.99-3.82-1.44-5.59
		c1.79-2.92,3.5-5.7,5.37-8.74c1.53-0.32,3.27-0.69,5.38-1.13c0.4-1.86,0.81-3.75,1.3-6.05c4.26-3,8.89-2.81,13.83-0.97
		c3.36,1.25,6.95,1.91,10.33,3.1c4.62,1.63,9.14,3.52,15.64,6.06c13.54-1.1,23.42,9.51,34.26,18.49c1.57-0.24,3.14-0.48,4.87-0.75
		c7.28,10.09,18.48,12.14,29.47,14.51c4.52,0.98,9.22,1.22,13.66,2.45c4.24,1.17,9.01,2.29,12.19,5.02
		c7.87,6.76,17.36,9.34,26.75,12.49c5.64,1.89,11.25,3.9,16.74,6.17c14.27,5.88,27.89,12.98,40.38,22.12
		c3.3,2.41,7.12,4.62,5.45,10.29c-1.09-0.5-2.1-0.85-2.99-1.39c-8.03-4.93-15.73-10.55-24.14-14.7
		c-10.5-5.17-21.55-9.26-32.45-13.59c-4.91-1.95-10.2-3-15.01-5.16c-4.29-1.93-8.38-4.53-12.14-7.38
		c-4.9-3.71-10.13-5.92-16.25-6.68c-10.17-1.26-20.33-2.68-29.8-7.06C683.8,848.57,678.63,843.89,674.63,837.79z"/>
	<path d="M1017.46,1609.87c-3.06-7.02-5.75-13.19-8.62-19.77c-1.16-0.18-2.77-0.43-5.17-0.8c-5.2-9.4-10.63-19.19-16.35-29.52
		c-0.97-0.18-2.56-0.47-4.7-0.86c-2.42-4.37-4.99-8.97-7.51-13.59c-2.09-3.83-4.6-7.09-8.62-9.3c-4.08-2.25-6.25-9.37-4.77-15.55
		c2.55,2.79,4.65,5.1,6.76,7.4c1.87,2.04,3.88,3.97,5.62,6.12c2.77,3.45,5.39,7.03,8.03,10.59c3.13,4.22,6.26,8.44,9.29,12.72
		c2.95,4.17,5.82,8.4,8.67,12.65c5.51,8.2,11.07,16.37,16.44,24.65c9.51,14.64,19.07,29.26,28.27,44.09
		c4.86,7.85,9.01,16.14,13.99,25.16c-1.31,1.07-3.1,2.53-5.22,4.27c-2.04-3.46-3.53-6-5.07-8.61c-1.56-0.1-3.03-0.19-5.27-0.33
		c-1.23-1.78-2.97-3.76-4.1-6.05c-3.4-6.88-7.1-13.15-14.03-17.48c-5.53-3.46-8.46-9.55-10.38-15.89c-0.56-1.84-1.25-3.8-2.41-5.28
		c-6.52-8.33-13.21-16.53-19.93-24.88c-1.9,0-3.87,0-6.86,0c-3.15-3.61-6.77-7.63-10.23-11.79c-2.66-3.2-2.35-7.13-2.05-10.93
		c0.19-2.38,1.29-4.12,4.78-3.58c1.17,4.58,0.98,10.02,5.15,14.03c1.51-1.67,2.96-3.28,4.98-5.53c1.57,1.93,2.81,3.33,3.91,4.82
		c7.43,10.13,14.82,20.3,22.27,30.42C1015,1607.97,1016.03,1608.61,1017.46,1609.87z M1035.41,1634.27
		c-2.7-6.83-4.49-14.1-9.92-19.48c-0.95-0.94-2.53-1.24-4.02-1.93C1020.36,1620.77,1026.93,1630.88,1035.41,1634.27z"/>
	<path d="M1582.45,1050.61c3.15,2.5,10.52,0.28,11.22,8.01c-5.16,1.35-10.59,2.41-15.77,4.22c-6.26,2.19-12.66,1.82-19.06,2.29
		c-4.56,0.33-9.13,1.34-13.57,2.51c-11.89,3.14-23.69,6.63-35.6,9.74c-2.99,0.78-6.21,0.8-9.34,0.86
		c-7.91,0.15-15.03,3.17-22.25,5.86c-4.31,1.61-8.61,3.25-12.97,4.71c-7.93,2.66-15.88,5.28-23.87,7.73
		c-3.88,1.19-7.89,1.95-12.95,3.17c-1.32-0.55-3.7-1.53-6-2.48c1.92-10.09,11.74-10.94,17.22-16.52c1.73,0.3,3.17,0.56,5.08,0.89
		c5.82-6.13,13.31-3.21,20.86-2.78c6.12-5.83,13.96-6,22.01-4.98c1.33-1.69,2.44-3.09,3.59-4.55c3.29-2.14,6.89-2.63,10.8-1.87
		c3.66,0.7,7-0.34,10.58-1.43c4.96-1.51,10.35-1.74,15.58-2.14c2.74-0.21,4.76-1.04,7.12-2.63c6.26-4.23,12.84-8.16,21.1-5.01
		c1.85,0.7,4.31,0.48,6.31-0.02C1568.84,1054.62,1575.06,1052.71,1582.45,1050.61z"/>
	<path d="M1095.16,581.71c4.7,0.13,9.61-2.05,13.28,3.12c-0.5,1.79-0.98,3.49-1.51,5.37c-2.38,0-4.48,0-6.58,0
		c0.09,0.3,0.19,0.61,0.28,0.91c-7.32,3.17-14.55,6.57-22,9.39c-2.27,0.86-5.13,0.13-8.22,0.13c-0.49,0.85-1.2,2.08-1.88,3.26
		c-2.03,0.84-3.97,1.66-6.39,2.66c-1.28-0.09-3.08-0.21-5.14-0.35c-1.39,1.55-2.8,3.13-4.35,4.87c-2.37-0.21-4.79-0.42-7.34-0.65
		c-1.49,1.93-2.89,3.73-4.7,6.08c-2.83-0.32-5.94-0.45-8.95-1.07c-4.56-0.94-8.22-0.66-11.27,3.72c-3.36,4.84-5.53,5.07-11.59,3.22
		c-1.25-0.38-2.57-0.55-4-0.85c-0.86,1.04-1.68,2.04-2.66,3.24c-1.28,0-2.73,0-4.22,0c-1.13,1.01-2.22,1.99-3.41,3.06
		c-1.16-0.09-2.3-0.22-3.43-0.24c-0.98-0.02-1.96,0.1-3.07,0.16c-0.91,1.16-1.81,2.31-2.77,3.55c-1.13-0.13-2.26-0.26-3.56-0.41
		c-0.81,0.93-1.66,1.91-2.64,3.04c-1.87,0.09-3.82,0.18-6.03,0.29c-0.99,1.19-2.03,2.44-3.64,4.37c-3.49,1.28-7.8,2.64-11.9,4.47
		c-1.71,0.76-2.98,2.51-4.82,4.14c-0.83-0.1-2.08-0.25-3.41-0.41c-0.91,0.79-1.87,1.64-2.85,2.5c-4.71,0.29-9.61-0.01-11.93,4.74
		c-5.46,1.25-10.49,2.41-16.74,3.84c-2.26-1.32,0.07-4.48-0.32-6.91c3.35-4.57,7.8-2.08,12.03-2.42c4.88-6.89,12.04-6.81,19.17-5.45
		c1.6-2.99,3.07-5.75,4.67-8.74c4.55,0.72,8.38,1.33,12.4,1.97c0.19-1.1,0.41-1.89,0.46-2.69c0.44-6.24,1.64-7.31,7.92-7
		c1.81,0.09,3.61,0.27,5.41,0.36c0.28,0.01,0.58-0.28,0.64-0.31c1.01-2.64,1.95-5.11,3.03-7.93c5.08,0.76,9.43,1.41,14.11,2.12
		c0.54-2.33,1.13-4.93,1.93-8.4c5.43,0.73,10.38,1.4,15.84,2.14c4.52-11.43,13.87-9.21,22.86-6.64c1.86-2.68,3.35-4.83,4.98-7.19
		c2.37,0.12,4.64,0.24,7.18,0.37c0.74-1.02,1.59-2.19,2.8-3.86c3.14,0.33,6.51,0.69,10.22,1.08c0.31-2.25,0.62-4.46,0.95-6.79
		c4.54-3.13,10.04,3.3,13.66-1.53c2.7,0.16,4.83,0.29,7.1,0.43c0.45-1.39,0.83-2.59,1.3-4.04c2.36,0,4.59,0,7.01,0
		C1093.65,585.05,1094.25,583.73,1095.16,581.71z"/>
	<path d="M661.42,1024.91c-0.62,0.23-1.07,0.54-1.21,0.43c-4.9-3.78-11.91-4.39-15.12-10.87c-1.71-3.46-4.9-6.16-7.23-9.35
		c-4.97-6.79-9.93-13.6-14.65-20.57c-1.14-1.68-1.32-4-2.27-7.07c-1.34-0.93-3.44-2.49-5.65-3.88c-4.97-3.14-9.17-6.99-12.15-12.15
		c-4.8-8.29-9.92-16.4-14.5-24.81c-2.52-4.63-4.34-9.66-6.23-14.6c-1.11-2.89-2.84-4.61-5.91-5.36c-4.75-1.15-8.85-3.07-11.24-8.03
		c-1.01-2.09-3.96-3.23-6.84-5.42c0-2.21,0-5.19,0-8.41c1.49-0.41,2.7-0.75,2.96-0.82c12.35,7.17,23.88,13.97,35.55,20.51
		c1.73,0.97,4.28,1.33,6.21,0.9c5.03-1.13,9.39,0.45,13.93,2.09c2.05,0.74,4.44,0.44,6.65,0.81c1.7,0.29,4,0.35,4.9,1.45
		c4.35,5.24,9.98,8.96,15.01,13.38c0.45,0.4,0.67,1.06,1.07,1.71c-3.09,4.02-6.67,1.21-10.09,0.87c-0.5,1.8-0.96,3.46-1.47,5.31
		c-3.18-0.8-4.22-2.85-4.44-5.46c-0.25-3.01-1.96-4.74-4.62-5.86c-6.56-2.78-13.04-5.6-20.47-5.18c-2.13,0.12-4.37-1.09-6.49-1.88
		c-2.53-0.95-4.98-2.1-7.46-3.17c-0.33,0.31-0.65,0.62-0.98,0.94c0.32,1.5,0.5,3.05,0.99,4.5c2.5,7.41,5.78,14.39,10.74,20.57
		c2.15,2.68,3.99,5.74,5.35,8.9c2.68,6.2,6.95,10.86,12.67,14.2c4.82,2.82,7.9,6.87,9.87,12c3.14,8.16,8.49,14.89,14.12,21.43
		c3,3.49,5.83,7.15,8.96,10.52c1.29,1.39,3.06,2.41,4.77,3.3C660.25,1017.96,661.88,1020.54,661.42,1024.91z"/>
	<path d="M1404.11,1212.93c-0.46-5,1.65-8.25,5.91-11.04c1.34,0.49,3.01,1,4.61,1.69c6.05,2.64,12.02,5.51,18.15,7.96
		c2.56,1.02,5.5,1.87,8.18,1.65c4.94-0.41,9,1.38,13.14,3.53c3.67,1.9,7.33,3.94,11.23,5.22c3.38,1.11,7.1,1.8,10.63,1.65
		c5.35-0.22,9.91,0.93,14.46,3.83c4.28,2.73,9.15,4.53,13.76,6.73c4.34,2.06,8.88,2.15,13.59,1.7c3.53-0.34,7.11-0.07,10.96-0.07
		c0,1.65,0,2.56,0,3.19c3.17,2.38,6.17,4.64,9.22,6.94c-0.38,3.2,1.62,6.96-3.3,8.51c-3.8-2.22-7.52-4.7-11.51-6.61
		c-2.11-1.02-4.81-1.77-7.05-1.42c-10.93,1.7-20.68-1.36-29.8-6.9c-4.93-2.99-9.73-4.93-15.79-4.46c-7.85,0.6-14.71-3.41-21.51-6.76
		c-4.22-2.07-8.37-3.19-13.12-3.69c-5.46-0.57-10.81-2.83-16.05-4.79C1414.6,1217.83,1409.55,1215.33,1404.11,1212.93z"/>
	<path d="M633.34,1101.77c0-1.68,0-3.38,0-5c-4.64,2.09-9,4.05-13.2,5.94c-3.73-4.44-3.21-8.6,1.51-14.74
		c1.73,0.43,3.6,0.89,5.57,1.38c1.6-2.45,3.18-4.85,4.49-6.86c6.54-0.36,4.15,7.68,9.33,8.29c2.96-3.3,2.91-8.84,8.35-11.33
		c1.01,3.05,1.88,5.66,2.97,8.93c1.69-2.6,2.75-4.83,4.36-6.55c1.55-1.65,3.55-3,5.57-4.07c2.17-1.14,4.53-2.14,6.92-2.61
		c10.36-2.06,20.8-3.71,31.12-5.95c2.93-0.64,5.55-2.73,8.26-4.27c2.86-1.63,5.51-3.69,8.5-5.03c5.38-2.41,10.48-0.68,14.9,2.49
		c1.54,1.1,1.99,3.73,2.69,5.17c-2.14,3.39-4.43,3.18-6.73,2.43c-8.18-2.65-14.89-0.54-20.51,5.89c-2.96,3.38-6.85,4.75-11.41,5.18
		c-5.88,0.55-11.76,1.56-17.5,2.97c-7.61,1.87-15.08,4.31-22.62,6.51c0.04,0.36,0.07,0.72,0.11,1.08c-1.25-0.68-2.51-1.36-4.06-2.2
		c-1.17,0.92-2.41,1.9-4.22,3.31c5.48,4.74,11.49,4.51,18.29,4.04c0.13,2.72,0.25,5.17,0.36,7.39c-6.11,3.59-11.62,4.37-17.72,2.06
		C643.94,1104.43,638.95,1103.37,633.34,1101.77z"/>
	<path d="M461.5,866.93c-2.84,1.73-4.95,3.03-7.08,4.29c-4.61,2.72-5.3,4.71-3.37,9.81c0.51,1.35,0.98,2.72,1.66,4.61
		c-2.07,0.3-3.62,0.53-5.44,0.79c-5.15,4.04-6.97,10.41-9.73,16.06c-5.14,0.37-8.05-3.41-6.36-8.69c1.09-3.42,2.71-6.82,4.78-9.75
		c4.82-6.85,4.99-6.74,5.52-15.79c-0.6-1.44-1.27-3.06-1.93-4.65c2.89-4.05,6.3,0.8,9.2-0.97c-1.94-0.49-3.84-0.97-6.03-1.52
		c-0.42-1.91-0.84-3.8-1.48-6.69c-4.49-1.19-9.32-2.77-14.28-3.73c-7.3-1.42-15.07-1.31-21.94-3.8
		c-14.57-5.28-30.43-6.46-44.19-14.26c-2.77-1.57-6.26-1.88-9.44-2.69c-2.4-0.61-4.98-0.76-7.21-1.72c-2.6-1.13-4.89-2.94-3.41-7.08
		c1.7,0.19,3.43,0.27,5.12,0.59c7.67,1.45,14.9,4.03,21.94,7.49c4.4,2.16,9.37,3.18,14.1,4.65c6.78,2.11,13.49,4.47,20.38,6.15
		c6.9,1.68,14,2.51,20.96,3.95c5.98,1.23,11.87,2.86,17.83,4.18c2.85,0.63,5.76,0.96,8.64,1.43c0.14-0.33,0.28-0.65,0.42-0.98
		c8.47,6.2,16.95,12.39,25.36,18.66c0.26,0.2-0.08,1.22-0.14,1.85C469.96,872.21,465.99,866.61,461.5,866.93z"/>
	<path d="M1458.68,1121.98c1.68-1.89,3.3-3.71,4.98-5.61c2.19,0,4.29,0,6.89,0c1.04,2.01,2.05,3.98,3.2,6.2
		c1.61-1.9,3.32-3.93,4.95-5.86c4.09,1.58,4.09,1.58,2.83,10.51c-4.52,2.56-9.36,2.46-14.33,1.42c-2.99-0.63-6.02-1.09-7.73-1.4
		c-4.34,2.38-7.37,4.04-10.4,5.71c0.05,0.33,0.09,0.65,0.14,0.98c-5.85,0-11.71,0-18,0c-3.63,6.37-9.49,2.77-14.91,2.45
		c-1.81,1.32-3.74,2.74-5.33,3.91c-5.68,5.3-2.58,10.84-0.79,17.13c4.28,2.66,9.14,5.67,14.09,8.74c2.18-1.93,3.86-3.42,5.79-5.13
		c2.89,3.86,9.58,4.44,8.09,12.16c-7.07,1.05-14.47,3.85-21.66,0.44c-6.75-3.2-12.91-7.65-18.95-11.32
		c0.52-7.96-3.93-15.17,0.76-22.04c3.4-4.97,6.89-9.89,10.18-14.61c5.56,1.98,6.41,2.95,7.49,8.35c2.07-2.86,3.92-5.41,5.88-8.12
		c2.45,0.24,4.72,0.45,7.48,0.72c4.82-6.71,10.96-5.21,16.66-1.64c2.9-2.94,5.36-5.42,8.16-8.26
		C1456.03,1118.91,1457.28,1120.36,1458.68,1121.98z"/>
	<path d="M653.14,939.72c1.03-2.29,2.23-4.96,3.26-7.26c9.26-1.41,15.26,3.3,21.07,8.33c4.22,3.65,9.16,5.71,14.43,7.52
		c1.77-2.54,3.34-4.82,5.24-7.54c2.01,0.82,4.01,1.46,5.85,2.43c8.63,4.56,17.11,9.4,25.83,13.76c6.44,3.22,13.21,4.19,20.07,0.83
		c0.7-0.34,1.62-0.25,3.07-0.44c10.64,9.54,21.54,19.32,32.91,29.52c4.9-2.03,9.39-3.89,14.62-6.05c3.53,4.66,7.38,9.73,11.23,14.81
		c-2.22,3.39-4.9,3.06-7.43,1.36c-4.15-2.79-8.15-5.38-13.55-5.3c-1.99,0.03-4-1.94-6.91-3.47c-5.55,0.45-10.52-3.23-15.51-6.78
		c-5.25-3.74-10.39-7.64-15.67-11.34c-1.31-0.91-2.92-1.54-4.49-1.9c-4.79-1.11-9.76-1.62-14.42-3.1
		c-11.02-3.5-21.88-7.48-32.85-11.14c-1.32-0.44-3-0.54-4.32-0.15c-4.05,1.2-7.87,0.67-11.62-0.96c-4.85-2.11-9.65-4.34-14.52-6.41
		C664.33,944.24,659.19,942.2,653.14,939.72z"/>
	<path d="M345.44,585.33c0.69-1.63,1.31-3.12,2.11-5.02c-3.87-2.79-8.53-5.04-8.19-10.93c-1.7-0.94-3.2-2.04-4.87-2.64
		c-6.06-2.15-8.29-7.05-9.72-12.72c-0.79-3.13-1.9-6.18-2.92-9.25c-0.58-1.75-1.28-3.46-1.92-5.2c0.34-0.4,0.69-0.81,1.03-1.21
		c1.7,0.53,3.64,0.7,5.04,1.67c3.23,2.25,6.3,4.77,9.22,7.41c1.17,1.06,1.81,2.72,2.83,4.33c-1.96,1.12-3.2,1.83-4.64,2.66
		c0.69,3.88,3.39,6.03,6.36,7.69c4.61,2.59,9.44,4.79,14.12,7.26c3.55,1.87,6.11,4.51,5.97,9.21c-2.25,2.55-4.63,5.26-7.02,7.97
		c0.26,0.44,0.52,0.87,0.78,1.31c2.39-0.12,4.78-0.24,7.17-0.36c0.27-0.2,0.55-0.41,0.82-0.61c4.46,6.11,8.91,12.21,13.53,18.55
		c-1.8,1.42-3.05,2.4-4.33,3.41c-0.31,6.46-0.62,12.85-0.94,19.57c1.34,1.04,2.76,2.14,4.17,3.26c5.68,4.48,9.47,10.07,10.27,17.44
		c0.43,3.97,2.51,6.94,5.26,9.8c3.27,3.41,5.94,7.4,8.92,11.1c1.22,1.51,2.42,3.1,3.92,4.29c5.12,4.07,9.64,8.4,11.39,15.11
		c0.73,2.78,2.71,5.24,4.18,7.81c1.13,1.98,2.35,3.9,3.43,5.69c-0.75,1.83-1.31,3.19-1.89,4.6c0.27,1.72,0.55,3.45,0.87,5.45
		c-3.82,0.81-5.02-2.11-7.33-4.17c2.41-8.64-4.28-15-6.34-22.71c-0.62-2.31-3.54-4.25-5.79-5.82c-3.78-2.64-6.6-5.74-8.28-10.17
		c-0.94-2.47-2.82-4.95-4.94-6.53c-4.64-3.45-7.71-7.58-8.35-13.41c-0.7-6.33-3.77-11.1-9.26-14.48c-4.75-2.93-5.95-7.4-5.33-12.85
		c0.59-5.23,0.99-10.59,0.5-15.79c-0.52-5.44-3.1-10.1-8.82-12.13c-1.87-0.66-3.74-1.33-5.55-2.14
		C347.85,591.4,345.74,589.23,345.44,585.33z"/>
	<path d="M855.08,794.56c1.87-1.12,3.23-1.92,4.78-2.85c4.9,7.36,9.61,14.42,14.64,21.97c1.74-2.29,2.85-3.75,4.06-5.34
		c3.78,6.77,3.84,13.12,0.71,15.31c-2.78-2.21-5.47-4.34-8.17-6.48c-0.25,0.29-0.5,0.57-0.75,0.86c-2.77-3.27-5.51-6.57-8.32-9.81
		c-0.86-0.99-1.76-2.24-2.89-2.63c-8.73-3.02-12.98-10.31-17.23-17.65c-1.47-2.54-3.02-5.02-4.7-7.81c-1.3,0.75-2.2,1.27-3.01,1.74
		c2.41,10.12,2.42,8.28,0.77,11.54c-0.9-0.65-1.85-1.16-2.56-1.9c-1.03-1.07-2.01-2.22-2.81-3.47
		c-5.38-8.48-11.06-16.81-15.93-25.57c-3.66-6.58-6.54-13.65-9.28-20.69c-2.44-6.29-1.07-12,4.71-16.88
		c5.18,6.31,5.57,15.79,13.43,20.12c3.09,7.71,6.21,15.49,9.41,23.46c2.89-0.29,4.98-0.5,7.88-0.8
		C844.74,776.33,849.83,785.3,855.08,794.56z"/>
	<path d="M1373,1194.57c2.02-0.95,3.95-1.86,6.66-3.14c3.83,1.84,8.08,3.88,11.81,5.67c0.48,3.88,0.88,7.11,1.36,10.95
		c-2.4,0-4.25,0.37-5.9-0.06c-11.01-2.86-21.97-5.88-32.94-8.88c-9.01-2.47-18.01-4.99-29.01-8.05c-3.31-3.16-9.06-6.1-16.07-6.1
		c-0.49,0-1.08,0.06-1.47-0.17c-6.64-4.06-14.48-4.29-21.55-6.9c-2.24-0.83-3.91-3.18-6-4.97c1.71-2.98,3.07-5.34,4.52-7.86
		c6.55,2.48,11.86,7.62,19.01,6.21c4.62,2.18,9.07,4.28,13.36,6.3c1.8-0.72,3.16-1.25,4.56-1.81c0.81,0.29,1.67,0.43,2.32,0.87
		c5.55,3.73,11.34,6.68,18.27,6.7c1.07,0,2.13,0.83,3.21,1.22C1354.42,1187.9,1363.7,1191.23,1373,1194.57z"/>
	<path d="M1838.58,839.09c1.36,1.58,2.73,3.18,4.34,5.05c-0.44,1.53-0.88,3.03-1.29,4.42c-9.6,2.69-18.8,5.26-28.05,7.85
		c-0.19,1.71-0.36,3.16-0.6,5.33c-1.64,0.73-3.44,1.84-5.4,2.35c-15.04,3.89-30.15,7.51-45.15,11.55c-4.76,1.28-9.34,3.37-13.81,5.5
		c-1.97,0.94-3.46,2.9-5.41,4.61c-4.7,0.99-5.66-2.52-5.06-13.67c2.64-0.99,5.45-2.36,8.43-3.11c15.71-3.92,31.48-7.65,47.2-11.54
		c2.14-0.53,4.14-1.61,5.98-2.34c-0.17-3.01-0.3-5.27-0.45-7.85C1812.55,844.49,1825.42,841.82,1838.58,839.09z"/>
	<path d="M1270.39,1037.79c-5.96,1.76-11.8,3.49-17.64,5.19c-1.74,0.51-3.62,1.55-5.24,1.26c-5.98-1.09-11.39,1.34-17.04,2.23
		c-6.38,1.01-8.03-0.44-7.76-7.03c0.05-1.29,0.17-2.57,0.32-4.87c3.61,0.23,7.02,0.09,10.26,0.76c3.27,0.68,5.92,0.45,8.94-1.23
		c2.6-1.45,5.85-1.75,8.84-2.48c3.49-0.85,7.09-1.36,10.5-2.43c7.36-2.32,14.63-4.91,22.42-7.55c0.48-0.8,1.22-2.07,2.1-3.55
		c4.86-0.49,9.87-0.99,15.28-1.53c0.64-3.25,1.18-5.94,1.84-9.32c4.79-1.81,10.23-1.29,15.95-0.23c-1.25,0.88-2.49,1.77-3.98,2.82
		c2.08,2.69,4.33,5.37,1.46,8.9c-4.21,1.42-9.03,2.14-12.84,4.51c-7.88,4.88-16.75,6.72-25.22,9.83
		C1275.75,1034.1,1273.27,1036.09,1270.39,1037.79z"/>
	<path d="M658.98,677.24c2.09-0.21,4.22-0.41,6.35-0.67c0.27-0.03,0.5-0.39,0.99-0.8c-0.58-2.94-1.2-6.49,2.39-7.97
		c2.65-1.09,5.76-1.07,9.01-1.6c0-1.8,0-3.53,0-5.7c1.81,0,3.48,0,5.51,0c0,2.5,0,4.74,0,6.61c-6.03,6.38-11.83,12.52-17.63,18.66
		c-0.17-0.17-0.34-0.34-0.51-0.5c-1.33,3.19-2.66,6.38-4.03,9.67c-2.12,0.16-4.04,0.3-6.6,0.49c1.35,8.74-4.8,10.79-11.29,11.85
		c-0.52,3-0.91,5.26-1.39,8.05c-2.15,1.25-4.55,2.64-5.82,3.38c-2.99,3.69-5.22,6.44-8.29,10.21c-0.41,2.84,2.28,4.79,5.62,6.06
		c-0.64,6.28-4.05,7.91-13.86,6.43c-0.9-1.08-2.17-2.59-3.74-4.47c0-3.98,0-8.42,0-13.71c2.55-1.46,5.49-3.13,8.76-5
		c0.18-2.41,0.38-5.11,0.54-7.26c3.85-0.29,7.17-0.53,10.28-0.77c0.26-3.32,0.48-6.02,0.71-9.02c2.94-1.42,5.73-2.77,8.88-4.29
		c0-2.39,0-4.95,0-8.37c3.92-0.26,7.59-0.5,11.48-0.75C658.35,684.72,654.11,680.11,658.98,677.24z"/>
	<path d="M1466.21,899.01c-0.2,2.12-0.42,4.39-0.64,6.63c-2.24,1.27-3.65,0.56-4.69-1.3c-2.51-4.47-2.67-9.22-0.95-13.87
		c0.53-1.43,2.37-2.81,3.91-3.35c5.59-1.96,11.47-3.18,16.94-5.39c7.02-2.84,14.01-5.9,16.93-14.08c1.1-3.09,1.71-7,5.49-8.47
		c3.22-1.25,6.5-2.35,9.79-3.4c2.03-0.65,4.14-1.1,5.96-1.57c-1.31,1.79-1.39,1.57-7.86,3.55c-2.87,0.88-5.49,2.57-8.23,3.89
		c0.21,0.48,0.41,0.96,0.62,1.44c6.36-2.2,12.71-4.4,18.29-6.33c1.95-6.04,3.59-11.15,5.24-16.25c1.45-0.65,2.75-1.41,4.15-1.84
		c4.99-1.53,8.65-4.37,10.95-9.24c1.8-3.81,4.82-6.63,9.95-8.03c-1.11,1.5-1.78,2.4-2.75,3.72c2.95-0.46,5.58-3.83,8.59,0.14
		c-1.99,1.78-4.05,3.38-5.81,5.26c-2.34,2.5-5.06,4.92-6.51,7.91c-2.04,4.19-4.81,7-9.16,8.38c-3.93,1.25-6.45,3.47-7.11,7.94
		c-0.26,1.78-2.13,3.83-3.81,4.81c-4.13,2.39-8.49,4.44-12.92,6.22c-4.45,1.79-8.39,3.88-10.11,8.75c-0.38,1.07-0.97,2.22-1.81,2.93
		c-6.71,5.74-12.48,12.69-21.79,14.86C1471.89,893.94,1469.56,895.64,1466.21,899.01z"/>
	<path d="M1117.69,955.89c-0.7-5.04,3.31-7.73,5.84-11.97c8.15,4.99,10.58,13.02,13.82,21.01c1.23-1.1,2.53-2.25,3.85-3.43
		c5.6-0.32,11.87,6.31,14.78,15.07c3.33,2.16,5.99,3.88,8.9,5.76c1.11-0.82,2.41-1.78,4.32-3.2c2.38,0.86,5.09,1.83,8.43,3.03
		c3.77-1.45,4.7-8.89,11.99-6.86c0.73,2.05,1.62,4.57,2.76,7.76c-3.29,1.53-6.04,2.8-8.78,4.08c-0.16-0.21-0.32-0.43-0.48-0.64
		c-1.18,1.56-2.47,3.05-3.5,4.71c-2.78,4.48-3.73,4.82-8.3,2.58c-0.59-0.29-1.18-0.58-2.1-1.04c-0.93,1.32-1.85,2.61-3.18,4.49
		c-1.19-0.25-3.07-0.1-4.07-0.96c-3.83-3.32-7.58-6.79-10.98-10.54c-3.31-3.65-6.15-7.73-9.28-11.72c-1.71,0.55-3.06,0.98-5.39,1.73
		c-1.78-1.89-4-3.97-5.89-6.32c-1.65-2.05-2.69-4.61-4.41-6.58c-2.2-2.51-4.81-4.66-7.25-6.97
		C1118.4,955.89,1118.04,955.89,1117.69,955.89z"/>
	<path d="M1124.76,585.06c-3.9,0.55-7.8,1.1-11.8,1.67c-3.16-4.48-3.28-6.05-0.36-10.19c3.15-0.17,6.58-0.36,10.13-0.55
		c4.05-5.71,10.94-5.46,16.52-8c3.57-1.63,7.32-2.9,11.06-4.08c3.08-0.97,6.27-2.09,9.44-2.18c3.74-0.11,7.04-0.89,10.45-2.38
		c6.18-2.69,12.66-4.7,18.87-7.33c3.46-1.46,6.63-3.61,10.88-5.98c2.29,0,5.71,0,9.68,0c0.64-0.82,1.63-2.08,3.01-3.85
		c1.97,0.76,4,1.55,5.73,2.23c1.04,3.64-1.07,5.4-3.1,6.59c-2.51,1.47-5.4,2.97-8.21,3.12c-5.03,0.28-8.86,2.26-12.24,6.21
		c-9.62,1.12-18.81,4.09-26.84,10.51c-6.86-1.34-12.84,0.97-18.85,4.13c-4.33,2.27-9.31,3.27-13.95,4.98
		c-3.47,1.28-6.85,2.78-10.28,4.18C1124.86,584.45,1124.81,584.76,1124.76,585.06z"/>
	<path d="M1427.49,960.71c3.74,2.36,7.02,4.43,10.2,6.43c1.38,3.51,2.69,6.85,4.04,10.3c2.53,0,4.61,0,6.78,0
		c1.02-1.21,1.96-2.32,2.93-3.46c3.92-1.03,9.13,1.48,10.99-4c3.68-0.89,7.03-1.71,10.39-2.53c0.78-1.48,1.46-2.75,1.82-3.44
		c4.55-1.13,8.61-2.13,12.67-3.13c-0.04-0.13-0.09-0.27-0.13-0.4c7.36-0.82,14.72-1.64,22.73-2.54c1.05,1.3,2.28,2.83,3.57,4.44
		c-2.21,5.82-9.98,8.73-26.23,9.36c-0.68,0.84-1.72,2.12-2.03,2.51c-4.9,2.31-8.84,4.16-13.61,6.41
		c-7.01,2.35-14.97,4.99-22.91,7.69c-3.62,1.23-8.14,0.45-10.16-3.03c-4.15-7.12-7.68-14.61-11.39-21.98
		C1426.92,962.89,1427.29,962.13,1427.49,960.71z"/>
	<path d="M977.47,1211.21c-2.8,6.1-1.9,14.71-10.21,18.87c0,2.73,0,5.48,0,8.36c-2.76,0.89-4.23,0.1-4.23-2.5
		c0-2.13-0.04-4.49,0.82-6.35c2.72-5.93,5.84-11.67,9.35-17.21c0.68-2.89,1.3-5.79,2.05-8.66c0.29-1.1,0.74-2.21,1.35-3.16
		c3.75-5.79,7.84-11.39,11.25-17.37c1.83-3.21,2.51-7.08,3.77-10.63c0.27-0.75,0.76-1.43,1.2-2.22c1.4-0.08,2.68-0.16,4.1-0.24
		c0.94-1.08,1.91-2.19,3.05-3.5c1.24-0.24,2.65-0.51,3.53-0.68c4.29-5.72,8.28-11.04,12.92-17.22c2.73,0.61,5.95,1.33,9.47,2.12
		c1.58-2.53,3.21-5.15,4.67-7.5c3.21-1.37,5.24,0.15,5.81,2.49c0.88,3.62,2.84,7.64-1,11.25c-1.49-0.66-2.93-1.29-4.68-2.06
		c-1.95,2.93-3.81,5.73-5.75,8.66c-3.27-1.12-6.13-2.11-7.99-2.75c-6.19,8.43-11.87,16.15-17.63,23.99
		c-1.26,0.25-2.51,0.51-3.72,0.75c-0.77,3.51-1.52,6.96-2.28,10.41c-2.21,0.18-3.65,0.29-4.57,0.36
		C985.04,1201.3,981.56,1205.86,977.47,1211.21z"/>
	<path d="M1239.93,1113.53c1.04-4.5,2.08-8.97,3.26-14.04c1.99-1.45,4.38-3.19,6.4-4.66c3.17,2.83,5.56,4.97,8.24,7.37
		c0.18,1.04,0.46,2.62,0.72,4.21c0.23,1.37,0.44,2.75,0.68,4.25c-1.87,0.72-3.22,1.24-4.41,1.7c-1.66,1.98-3.22,3.83-4.93,5.86
		c0.45,0.7,0.94,1.47,1.34,2.09c5.43-0.72,10.53-1.39,17.36-2.29c4,2.12,8.4-0.97,12.94-4.45c1.64,0.6,3.27,1.2,4.67,1.71
		c1.06,3.24,1.96,6.01,3.07,9.4c-2.9,0.84-5.67,1.76-8.49,2.42c-3.37,0.79-6.78,1.41-10.19,2c-5.15,0.89-10.42,2.73-15.47,2.28
		c-8.68-0.76-18.01,0.96-25.83-5.45C1228.88,1121.2,1232.84,1116.1,1239.93,1113.53z"/>
	<path d="M1008.62,945.74c1.49-2.87,2.55-4.92,3.93-7.57c1.28,0.25,3.26,0.04,4.16,0.92c5.17,5.04,10.43,10.06,14.96,15.65
		c2.8,3.47,4.34,7.95,6.56,12.18c0.99-0.91,2.14-1.97,3.71-3.42c5.46,2.55,8.03,7.33,10.01,13.03c1.8-1.19,3.24-2.15,4.93-3.28
		c1.29,0.94,2.57,1.87,4.14,3.01c2.01-1.68,3.91-3.61,3.46-6.47c-0.78-4.86,1.68-8.53,4.2-13.58c4.43,10.23,3.45,19.73,2.26,29.48
		c-0.95,1.25-1.9,2.51-3.12,4.12c-1.68-1.38-3.02-2.48-4.98-4.1c-1.2,1.82-2.44,3.7-3.81,5.79c-2.13-1.88-3.45-3.05-4.96-4.39
		c-6.49,0.42-8.34-5.93-12.78-9.3c-3.84,0.28-6.2-2.4-8.72-5.14c-7.12-7.74-14.47-15.27-21.64-22.97
		C1009.87,948.59,1009.33,947,1008.62,945.74z"/>
	<path d="M481.6,766.08c1.64,0.92,3.99,2.11,6.21,3.52c2.48,1.58,3.94,3.7,4.06,6.92c0.09,2.54,1.08,5.05,1.7,7.71
		c-1.58,1.25-2.97,2.35-4.76,3.77c0.46,2.37,0.95,4.88,1.47,7.55c-1.24,1.04-2.47,2.07-3.8,3.2c0.49,1.64,0.96,3.19,1.5,4.99
		c-2.7,1.45-5.33,2.87-7.59,4.08c0,3.96,0,7.08,0,10c-2.29,1.75-4.45,3.4-6.94,5.3c-3.64-0.58-4.52-3.17-4.13-6.97
		c1.78-1.26,3.63-2.56,5.69-4.01c-0.65-4.47-1.4-9.05,3.05-11.99c-0.09-1.97-0.17-3.6-0.24-5.23c-0.28-0.32-0.56-0.63-0.84-0.95
		c1.82-1.38,3.64-2.76,4.95-3.75c1.36-4.86,2.58-9.23,3.78-13.49c-3.69-3.43-12.78-4.24-17.22-1.86c-1.84,0.99-3.9,1.58-5.9,2.24
		c-5.47,1.8-11.11,3.2-16.43,5.38c-9.37,3.84-19.88,4.79-28.39,12.23c-1.87-2.11-3.24-3.65-4.99-5.63c2.03-1.26,3.17-2.2,4.49-2.74
		c9.31-3.83,18.6-7.74,28.02-11.29c4.52-1.71,8.58-5.17,13.93-4.22C465.36,765.48,473.13,767.01,481.6,766.08z"/>
	<path d="M1469.06,1035.03c0.92-4.02,1.53-6.69,2.33-10.19c2.79-1.02,5.74-2.46,8.85-3.16c10-2.27,20.06-4.28,30.1-6.35
		c7.17-1.48,13.16-5.35,18.87-9.61c5.82-4.34,12.1-6.63,19.42-5.98c3.29,0.29,6.62,0.11,9.93,0.31c2.7,0.17,5.23,0.85,6.45,4.56
		c-1.43,0.62-2.78,1.3-4.2,1.79c-1.39,0.47-3.01,0.45-4.26,1.14c-5.54,3.05-11.16,5.63-17.71,5.49c-1.39-0.03-2.9,0.71-4.18,1.41
		c-16.13,8.85-33.54,13.92-51.47,17.47C1478.9,1032.75,1474.64,1033.79,1469.06,1035.03z"/>
	<path d="M938.3,879.8c1.39-3.39,2.38-5.82,3.56-8.69c4.83,0.61,8.49,3.19,11.8,6.43c3.25,3.18,6.45,6.41,9.78,9.72
		c1.64-1.29,2.76-2.16,4.24-3.32c4.5,7.09,9.61,13.68,13.08,21.04c2.89,6.12,6.94,10.77,12.04,14.73c5.26,4.09,8.29,9.38,9.21,15.85
		c0.27,1.88-0.31,3.89-0.49,5.84c-0.49,0.11-0.98,0.22-1.46,0.32c-1.14-1.28-2.39-2.49-3.41-3.85c-3.61-4.79-7.68-8.99-13.07-11.89
		c-1.57-0.85-2.7-2.73-3.74-4.34c-4.66-7.19-9.21-14.46-13.8-21.7c-0.32,0.33-0.65,0.66-0.97,0.98c-2.32-1.57-4.93-2.84-6.91-4.76
		c-5-4.84-9.92-9.67-16.34-12.72C940.37,882.75,939.42,881,938.3,879.8z"/>
	<path d="M1653.44,909.36c0.13-2.65,0.21-4.25,0.31-6.13c8.78-1.87,17.41-3.71,26-5.55c1.34,2.12,2.28,3.62,3.3,5.24
		c-2.68,4.13-6.83,5.7-10.94,7.36c-8.67,3.49-17.34,6.97-25.95,10.59c-4.88,2.05-9.64,4.21-15.18,3.7c-1.7-0.15-3.59,0.56-5.24,1.25
		c-7.48,3.14-15.4,3.33-23.3,3.97c-2.47-3.27-4.37-6.39-3.51-10.69c10.07-0.42,20.32,0.81,29.61-5.65
		C1637.05,916.06,1644.61,910.03,1653.44,909.36z"/>
	<path d="M1136.18,1138.01c0.61-0.68,1.18-1.25,1.69-1.88c0.52-0.65,0.97-1.35,1.08-1.5c6.54-1.17,6.54-1.17,16.96,3.55
		c7.14-3.74,13.86-0.95,20.4,2.4c6.96-4.14,13.05-1.66,18.53,2.4c3.8,2.81,3.12,7.22,2.3,12.21c-1.75-0.23-3.44-0.19-4.92-0.71
		c-1.69-0.59-3.17-1.76-4.8-2.53c-4-1.9-7.96-2.07-11.22,0.65c-7.22-0.87-13.35-8.41-21.1-1.36c-6.99-3.46-14.18-9.46-22.33-1.71
		c-2.8-1.5-5.31-2.84-8.3-4.45c1.58-3.57,2.87-6.5,4.35-9.85C1131.47,1136.23,1133.57,1137.02,1136.18,1138.01z"/>
	<path d="M381.19,614.12c1.79,0,3.23,0,4.97,0c4.13,7.32,12.38,9.31,18.85,13.74c7.01,4.8,13.58,9.96,19.14,16.42
		c1.44,1.67,3.4,3.16,5.43,4c4.1,1.71,8.41,2.92,12.72,4.36c7.15-2.39,12.99,1.37,18.09,5.28c5.57,4.26,10.44,6.32,15.96,1.29
		c5.82,1.18,6.67,3,4.94,10.16c-6.61,0-13.25,0-17.96,0c-4.69-3.63-7.84-6.08-10.85-8.4c-4.57,2.11-8.02,1-11.67-0.53
		c-4.71-1.98-9.64-3.53-14.56-4.92c-3.19-0.9-4.89-2.91-6.36-5.69c-1.35-2.55-2.89-5.31-5.09-7.05
		c-5.02-3.99-10.45-7.49-15.79-11.06c-4.53-3.03-9.23-5.8-13.73-8.86C381.79,620.49,380.99,618.59,381.19,614.12z"/>
	<path d="M1535.35,1115.09c8.3-6.26,9.68-6.23,18.61,0.47c2.41-2.54,4.86-5.12,7.58-7.98c1.88,0.46,3.75,0.91,5.99,1.46
		c1.12-0.96,2.47-2.12,4.45-3.82c2.51,0.48,5.51,1.04,7.85,1.49c3.41-1.71,6.36-3.19,9.71-4.87c1.64,1.67,2.76,2.82,3.44,3.51
		c0,3.2,0,5.5,0,8.18c-1.09,0.93-2.27,1.94-3.44,2.94c-1.91-0.84-3.39-1.48-5.1-2.23c-2.67,1.64-5.41,3.31-7.85,4.81
		c-2.15-0.75-3.67-1.29-5.4-1.89c-1.9,1.59-3.76,3.15-5.88,4.94c-1.86-0.67-3.68-1.32-6.13-2.2c-2.64,0.86-5.83,1.9-9.02,2.94
		c0.01,0.42,0.01,0.83,0.02,1.25c-3.91-0.91-7.82-1.82-11.75-2.74c-1.38,1.58-2.57,2.93-4.04,4.6c-6.21,1.1-12.82-5.9-18.97,0.73
		c-3.1-4.36,0.1-6.72,1.96-8.98C1522.07,1111.99,1526.2,1111.5,1535.35,1115.09z"/>
	<path d="M766.05,1161.56c0.96,1.86,2.11,3.6,2.81,5.51c2.05,5.57,5.03,10.51,9.9,13.96c3.51,2.49,5.21,5.85,6.16,9.81
		c0.62,2.57,1.17,5.17,1.88,7.72c1.31,4.7,3.17,8.93,7.79,11.57c3.86,2.21,5.05,6.38,6.14,10.41c0.95,3.51,1.77,7.05,2.69,10.57
		c0.99,3.8,3.02,6.64,6.36,9.06c2.33,1.69,3.55,4.95,5.18,7.56c0.33,0.52,0.27,1.28,0.4,1.93c1.38,6.78,2.27,13.78,8.32,18.33
		c-2.45,4.08-6.48,4.34-8.91,0.35c-1.86-3.04-2.88-6.63-4.03-10.06c-0.57-1.7-0.81-3.57-0.84-5.38c-0.1-4.93-2.22-8.18-7.16-9.38
		c-0.63-0.15-1.19-0.56-1.95-0.94c-3.13-4.67-4.82-9.98-5.52-15.61c-0.74-6-2.6-10.91-8.45-14.16c-5.35-2.98-6.03-9.21-7.54-14.57
		c-0.8-2.84-0.91-5.87-1.4-9.24c-2.07-1.74-4.28-3.71-6.61-5.54c-5.54-4.36-8.16-10.22-9-17.04
		C762,1164.23,762.47,1162.48,766.05,1161.56z"/>
	<path d="M787.07,1041.79c0.73,1.13,1.53,2.36,2.42,3.73c1.56,0.38,3.15,0.78,5.47,1.34c3.33-2.64,7.05-5.33,10.48-8.36
		c3.4-3.01,7.14-4,11.83-2.66c1.25-1.58,2.47-3.12,3.96-5c6.52,2.49,10.34-0.95,13.48-6.03c0.94-1.51,2.3-2.86,3.72-3.96
		c2.59-2,4.45-4.18,4.89-7.67c0.22-1.75,1.77-3.33,2.8-5.14c5.67,3.11,1.96,8.2,3.66,11.47c-2.27,5.51-4.66,10.24-10.99,10.09
		c-1.54,1.82-2.9,3.27-4.08,4.85c-2.18,2.91-5.08,4.49-8.53,5.58c-3.07,0.96-5.89,2.7-8.88,3.96c-3.26,1.37-6.58,2.57-9.87,3.84
		c-0.13-0.29-0.26-0.59-0.39-0.88c-0.52,0.39-1.14,0.7-1.56,1.18c-5.79,6.55-12.86,7.41-20.82,4.95c-1.74-0.54-3.66-0.52-5.04-0.7
		c-2.36,4.24-4.23,7.68-6.23,11.05c-0.21,0.35-1.24,0.41-1.83,0.29c-0.59-0.11-1.1-0.61-1.57-0.89
		C770.63,1050.66,778.91,1040.42,787.07,1041.79z"/>
	<path d="M1018.14,1283.23c6.66,0.61,12.91,6.96,19.21-0.19c0.93,0.21,1.86,0.48,2.81,0.64c3.35,0.57,6.79,1.88,10.03,1.49
		c6.61-0.79,13.28-0.8,19.81-3.46c4.07-1.66,9.38-0.31,14.26-0.31c0,4.05,0,7.26,0,10.69c-6.86,0-12.95,0-18.55,0
		c-7.37,4.98-15.24,5.12-23.12,4.12c-2.64-0.33-4.84-0.89-7.6,0.09c-2.49,0.89-5.55,0.61-8.29,0.27c-3.42-0.42-6.77-1.42-10.28-2.19
		C1013.15,1289.9,1017.17,1286.82,1018.14,1283.23z"/>
	<path d="M1026.88,833.98c3.26,8.14,6.69,16.28,9.77,24.55c1.42,3.82,1.95,7.96,3.3,11.81c1.25,3.56,2.77,7.09,6.4,9.12
		c0.78,0.44,1.31,1.44,1.8,2.28c5.27,8.9,7.22,18.66,7.36,28.88c0.01,0.99,0.02,1.98,0.13,2.96c0.07,0.65,0.3,1.28,0.52,2.14
		c1,0.83,2.12,1.75,3.24,2.67c0,5.87,0,11.7,0,17.72c-3.78,2.26-4.39-1.96-7.06-3.27c0.32-2.55,0.34-5.18,1.06-7.61
		c0.69-2.3,2.12-4.37,3.22-6.54c-9.57-4.73-10.47-6.58-9-18.22c-4.92-9.6-10.12-19.35-14.9-29.3c-1.21-2.52-1.12-5.68-0.9-8.76
		c-2.95-5.15-6.02-10.23-8.82-15.46C1020.24,841.79,1021.93,836.9,1026.88,833.98z"/>
	<path d="M1203.52,1025.61c1.81,1.29,2.99,2.14,4.25,3.03c-0.24,2.09-0.45,4.02-0.71,6.33c2.85,0.91,5.62,1.79,9.11,2.9
		c-0.22,2.24-0.42,4.35-0.66,6.89c-4.9-0.78-8.45,4.14-13.24,1.53c-0.15-1.96-0.27-3.52-0.37-4.91c-0.44-0.23-0.59-0.38-0.73-0.37
		c-8.32,0.54-9.84-0.8-10.01-9.56c-0.07-3.44,0.42-6.89,0.69-10.84c1.81-0.52,3.65-1.05,6.44-1.86c0.54-1.65,1.26-3.87,1.99-6.1
		c-0.17-0.08-0.35-0.16-0.52-0.25c3.06-3.23,6.11-6.45,9.08-9.58c2,0,3.63,0,5.26,0c4.86-4.23,10.02-7.8,17.66-7.91
		c0.35,2.79,0.66,5.26,1.05,8.43c-5.85,1.86-11.25,3.57-17.81,5.65C1211.78,1013.61,1205.23,1017.82,1203.52,1025.61z"/>
	<path d="M277,798.83c2.75,1.19,6.36,0.6,7.37,4.76c-6.06,2.54-13.14,2.75-17.48,8.23c-4.98-0.27-5.49-1.33-3.16-7.18
		c2.3-1.14,4.91-2.43,8.65-4.27c-4.08-2.45-7.3-5.09-10.99-6.48c-8.8-3.32-17.74-6.37-26.8-8.92c-5.7-1.6-11.78-1.78-17.55-3.17
		c-5.75-1.38-11.49-3.09-16.95-5.35c-6.7-2.76-13.11-6.24-19.86-9.51c0-1.72,0-3.26,0-5.57c1.96,0.7,3.48,1.13,4.9,1.78
		c3.92,1.78,7.93,3.41,11.65,5.55c8.22,4.73,17.15,7.26,26.43,7.89c8.79,0.59,16.54,4.47,24.84,6.52c2.24,0.55,4.31,1.76,6.55,2.29
		C263.59,787.53,271.13,792.01,277,798.83z"/>
	<path d="M1356.42,1104.23c5.53-6.1,13.82-2.34,20.89-3.21c2.69-1.69,5.04-3.17,7.48-4.71c1.33,0.64,2.49,1.19,3.65,1.76
		c2.59,1.25,4.96,1.14,7.47-0.53c1.62-1.08,3.67-1.5,5.7-2.29c0.84,3.42,1.45,5.93,2.06,8.39c-1.68,2.94-4.43,3.28-7.26,3.69
		c-10.02,1.47-20.03,3-30.02,4.69c-1.72,0.29-3.28,1.48-4.37,1.99c-5.12,0.57-9.68,1.08-14.37,1.6c-1.12,0.86-2.29,1.75-3.95,3.02
		c-2.65-0.58-5.58-1.22-9.7-2.12c1.87-4.08,3.31-7.22,4.94-10.78C1344.49,1105.26,1349.7,1104.81,1356.42,1104.23z"/>
	<path d="M900.16,1274.16c1.26-0.11,2.52-0.21,4.51-0.38c-0.72,4.78,2.7,9.52-1.69,13.85c-0.93-0.24-1.81-0.26-2.44-0.67
		c-3.32-2.11-6.76-4.1-9.81-6.56c-3.28-2.64-6.45-5.53-9.17-8.73c-4.82-5.66-9.36-11.56-13.8-17.52c-1.51-2.03-2.42-4.53-3.48-6.88
		c-0.39-0.88-0.08-2.25-0.65-2.85c-7.42-7.71-6.63-19.31-13.38-27.08c0.37-3.11,0.7-5.85,1.13-9.48c1.3,1.23,2.29,1.79,2.7,2.63
		c2.09,4.31,4.72,8.51,5.88,13.08c2.69,10.6,8.33,19.28,15.6,27.14c0.22,0.24,0.48,0.47,0.64,0.76
		C881.67,1261.39,888.81,1269.6,900.16,1274.16z"/>
	<path d="M673.93,997.63c2.59,1.46,5.05,3.08,7.69,4.29c6,2.76,9.39,7.1,9.15,13.91c-0.03,0.98-0.11,2.07,0.25,2.94
		c2.79,6.86,5.79,13.63,8.49,20.53c0.87,2.22,1.43,4.73,1.4,7.09c-0.03,2.45-1.62,3.89-4.67,3.1c-4.19-10.77-8.4-21.61-12.95-33.31
		c0.07-0.96,0.22-2.93,0.41-5.46c-1.85-1.14-3.7-2.47-5.71-3.48c-6.73-3.39-10.72-8.32-11.02-16.28c-0.1-2.64-1.95-5.62-3.82-7.71
		c-4.34-4.85-8.13-9.89-10.91-15.85c-1.57-3.36-4.47-6.08-6.68-9.15c-1.24-1.72-2.29-3.57-3.43-5.37c2.96-2.12,4.7-1.06,5.99,0.52
		c3.24,3.95,6.84,7.74,9.3,12.15c3.25,5.82,6.47,11.52,11.34,16.16C673.13,985.88,674.54,991.18,673.93,997.63z"/>
	<path d="M1091.81,1288.14c0.07-5.04,1.88-8.7,7.94-15.85c2.18,0.12,4.64,0.42,7.09,0.36c5.51-0.12,10.41-1.92,12.09-7.61
		c2.35-7.97,6.58-11.88,15.49-11.37c6.98,0.4,7.19-0.52,14.52-5.15c0.69,1.22,1.38,2.41,1.82,3.19
		c-2.07,8.46-7.79,11.62-15.21,12.72c-3.26,0.48-6.49,1.14-10.05,1.77c-1.09,1.94-2.58,3.82-3.26,5.95
		c-1.71,5.35-5.86,8.32-10.31,10.85c-1.89,1.08-4.43,1.55-6.63,1.44c-3.57-0.18-6.52,0.62-8.92,3.25
		C1094.97,1289.23,1093.52,1289.91,1091.81,1288.14z"/>
	<path d="M924.62,1363.76c1.56,0.27,2.84,0.5,4.16,0.73c3.61,4.79,7.17,9.52,10.71,14.21c1.87-0.16,3.31-0.28,4.86-0.41
		c4.08,4.24,8.18,8.51,12.76,13.27c-0.27,1.53-0.66,3.74-1.1,6.27c-1.37-0.4-2.44-0.44-3.15-0.97
		c-8.03-6.03-15.89-12.31-24.04-18.18c-8.22-5.93-12.52-14.02-15.34-23.54c-1.36-4.6-5.01-8.5-7.37-12.85
		c-2.11-3.9-1.66-7.77,1.43-12.66C913.51,1341.54,918.98,1352.49,924.62,1363.76z"/>
	<path d="M835.3,519.11c1.53,7.59-1.96,13.03-4.9,18.42c-3,5.52-7.7,9.42-13.77,11c-0.96,1.95-1.76,3.57-2.69,5.44
		c-1.21,0.43-2.57,0.92-4.08,1.46c-0.77,1.74-1.56,3.53-2.35,5.33c-0.2-0.21-0.39-0.42-0.59-0.63c-3.42,2.7-6.83,5.41-10.93,8.66
		c-0.66,0.04-2.29,0.14-4.04,0.26c-1.02,1.4-2.04,2.8-3.25,4.47c-3.91-3.21-5.15-6.99-4.55-11.69c3.43-3.08,7.61-0.35,11.38-1.29
		c0.49-2.36,0.98-4.72,1.47-7.04c2.19-0.41,3.95-0.75,5.73-1.08c0.48-2.08,0.92-3.97,1.4-6.02c1.72-0.36,3.29-0.68,3.72-0.77
		c2.7-2.42,4.34-4.77,6.56-5.7c5.23-2.17,8.59-5.99,11.26-10.67c1.72-3.01,3.34-6.07,5.23-9.53
		C832,519.56,833.38,519.38,835.3,519.11z"/>
	<path d="M567.06,390.59c0.61,1.85,1.12,3.74,1.86,5.53c2.2,5.31,2.38,10.58-0.14,15.81c-1.36,2.82-2.81,5.61-4.28,8.37
		c-3.82,7.18-5.43,14.43-1.66,22.25c1.13,2.34,2.37,5.16-0.44,7.85c-0.77-0.49-1.58-0.78-2.06-1.35c-8.19-9.73-8.77-26.56-1.34-37.1
		c1.04-1.48,2.14-2.94,3.01-4.52c2.11-3.84,2.37-7.66,0.52-11.85c-1.56-3.52-2.35-7.38-3.33-10.62c4.4-5.97,8.2-11.11,11.85-16.06
		c4.44,0.29,4.34,3,3.51,5.36c-1.89,5.4-4.18,10.66-6.32,15.97C567.85,390.36,567.45,390.47,567.06,390.59z"/>
	<path d="M876.72,1138.1c0.78,3.11,1.55,6.22,2.27,9.12c-1.31,1.72-2.3,3.02-2.95,3.88c-0.63,3.1-0.6,5.96-1.77,8.19
		c-3.45,6.52-2.38,12.94,0.17,19.12c2.47,6.01,3.77,11.95,4.49,18.49c0.8,7.26,3.09,15.01,10.23,19.88
		c0.37,2.72,0.74,5.51,1.09,8.07c-4.44,2.15-6.88-0.27-8.35-2.58c-4.5-7.08-7.88-14.76-9.17-23.14c-0.34-2.19,0.31-4.53,0.59-7.74
		c-0.3-0.46-1.3-1.59-1.86-2.91c-0.94-2.19-1.77-4.46-2.35-6.77c-0.64-2.55-0.66-5.27-1.45-7.75c-1.68-5.27-1.44-10.3,0.31-15.53
		c1.87-5.6,3.1-11.4,4.81-17.05c0.41-1.37,1.59-2.51,2.42-3.75C875.71,1137.78,876.22,1137.94,876.72,1138.1z"/>
	<path d="M952.35,1117.6c-1.12-1.82-2.2-3.59-3.33-5.43c-3.68-0.3-7.39-0.6-12.3-1c-2.64,1.59-6.52,2.33-9.98-0.26
		c-8.11,3.13-15.83,6.1-23.72,9.14c-2.01-5.86,0.8-9.81,2.57-14.89c2.33,0.58,4.55,1.13,7.21,1.79c0.58-1.14,1.37-2.68,2.25-4.4
		c1.65,0.19,3.23,0.37,5.49,0.62c0.74-1.14,1.64-2.54,2.71-4.2c3.77,0.68,7.09,1.29,9.23,1.67c2.82,2.21,4.72,3.71,6.84,5.37
		c1.5-1.99,2.47-3.27,3.14-4.17c2.76-1.22,5.13-2.26,7.5-3.3C955.34,1107.33,956.34,1114.2,952.35,1117.6z"/>
	<path d="M436.39,989.55c1.09,3.01,2.11,5.83,3.13,8.66c-0.35,0.31-0.69,0.62-1.04,0.94c-1.09-0.38-2.64-0.43-3.2-1.2
		c-2.24-3.04-4.26-6.26-6.18-9.51c-1.48-2.51-0.84-5.15,1.36-6.65c7.88-5.39,9.16-12.73,6.95-21.3c-0.04-0.14,0.06-0.32,0.3-1.47
		c9.2-5.1,12.7-13.66,9.84-24.94c2.95-1.99,5.61-3.78,8.17-5.5c3.5,3.13,3.99,4.82,1.63,7.69c-2.26,2.75-2.99,5.65-3.02,9.11
		c-0.06,7.16-1.97,10.94-8.77,19.07c-0.34,4.71,0.24,9.6-1.26,13.74C442.81,982.28,439.23,985.63,436.39,989.55z"/>
	<path d="M877.25,484.24c-1.95,1.08-3.96,2.19-5.65,3.12c-1.24,2.95-2.31,5.52-3.48,8.3c-7.05,2.82-14.06,5.62-21.29,8.5
		c0.15,2.2,0.29,4.29,0.44,6.48c-1.71,1.4-3.35,2.73-4.63,3.78c-0.76,2.79-1.39,5.08-2.06,7.51c-5.19-2.86-7.74-11.02-5.5-16.08
		c3.64-8.23,9.13-14.05,18.67-15.03c3.43-0.35,6.8-1.23,10.62-1.94c0.46-2.57,0.91-5.13,1.38-7.77c2.88-3.31,6.38-4.61,9.41-3.3
		C878.16,479.1,877.97,481.53,877.25,484.24z"/>
	<path d="M389.9,753.27c-5.08,0-9.76,0-14.86,0c-1.69,6.15-6.84,6.57-11.64,7.74c-4.55,1.11-8.89,2.73-11.09,7.3
		c-6.37,1.03-13.51-0.68-17.67,7.24c-1.96-2.57-3.37-4.41-4.83-6.32c0.7-2,1.29-3.67,1.89-5.37c-1.59-4.9-10.25-2.71-10.17-10.09
		c7.77-0.77,11.86,4.74,17.26,8.8c4.29-0.42,8.59-0.61,12.9-3.86c4.29-3.23,10-4.58,16.33-7.29c3.64-5.33,6.69-6.65,14.01-5.12
		C387.33,747.41,389.09,748.9,389.9,753.27z"/>
	<path d="M1476.01,1175.28c4.93,2.3,9.96,4.65,15.23,7.12c-0.27,2.41-0.49,4.31-0.69,6.12c-3.65,2.2-7.17,1.88-10.81,1.18
		c-3.74-0.71-7.53-1.17-11.39-0.96c-8.04-3.1-16.09-6.19-24.67-9.49c-1.03-4.73,0.48-8.1,6.12-11.76
		c6.77,3.8,13.64,7.67,20.49,11.52C1472.15,1177.8,1473.65,1176.82,1476.01,1175.28z"/>
	<path d="M1247.07,1155.9c3.43,0.44,6.64,0.85,9.78,1.25c4,1.3,7.99,2.6,11.98,3.9c0.04-0.17,0.07-0.34,0.11-0.51
		c2.04,1.57,4.08,3.14,6.29,4.84c0.65,2.49,0.1,4.75-2.51,6.08c-4.79,2.44-7.62-1.41-10.36-3.29c-3.51-0.5-6.39-0.9-9.97-1.41
		c-4.13,2.45-9,2.35-14.02-0.26c-1.1,0.54-2.26,1.11-3,1.47c-4.55-0.25-8.64-0.48-12.69-0.71c-2.24-4.01-1.57-6.06,3.71-10.95
		c3.31,0,6.89,0,10.61,0c0.54,1.61,0.99,2.94,1.4,4.15c1.72-0.86,3.2-1.58,4.66-2.35
		C1244.48,1157.36,1245.88,1156.56,1247.07,1155.9z"/>
	<path d="M460.51,826.26c0.93,1.81,2.05,3.98,3.68,7.16c-2.15-0.31-3.48-0.35-4.71-0.71c-3.14-0.92-6.24-1.99-9.36-2.99
		c-4.52-1.45-9.05-2.89-13.58-4.32c-2.52-0.79-5.07-2.25-7.57-2.18c-4.71,0.14-8.16-1.84-11.66-4.54c-2.05-1.59-4.66-2.47-7.03-3.63
		c-6.8-3.34-13.64-6.6-20.37-10.08c-1.12-0.58-1.78-2.06-2.56-3.02c3.69-4.61,8.22-6.14,13.45-4.44c-0.66,1.86-1.32,3.7-2.3,6.47
		c10.4,3,19.2,9.92,29.97,12.78C438.94,819.55,449.28,822.91,460.51,826.26z"/>
	<path d="M737.14,725.92c-1.13-2.03-2.19-3.94-3.71-6.67c-2.67,4.36-5.11,8.35-7.68,12.56c-3.24-0.78-2.98-3.36-2.35-5.71
		c1.61-6.03,4.84-11.13,9.91-16.06c1.76,1.03,3.62,1.87,5.18,3.1c1.52,1.2,2.74,2.79,4.47,4.61c8.74-3.69,17.36-7.33,26-10.98
		c1.11-2.17,2.15-4.21,3.12-6.11c6.99-2.37,13.24-0.17,14.1,5.3c-2.88,0.39-5.77,0.78-8.5,1.15c-5.64,5.85-13.04,8.46-20.11,11.45
		C751.21,721.24,744.58,723.27,737.14,725.92z"/>
	<path d="M165.82,877.07c3.28-1.33,6.35-2.77,9.55-3.82c5.61-1.85,11.31-3.45,16.96-5.19c7.71-2.37,15.47-4.58,23.07-7.24
		c4.5-1.57,8.65-4.1,13.13-5.76c2.99-1.11,6.26-1.44,9.18-2.08c2.3,3.39,1.08,4.94-1.39,6.1c-4.47,2.1-8.86,4.41-13.44,6.24
		c-2.68,1.07-5.75,1.12-8.49,2.09c-7.78,2.73-15.48,5.7-23.22,8.54c-1.07,0.39-2.23,0.56-3.33,0.9c-4.84,1.51-9.75,2.83-14.48,4.65
		C169.33,883.05,167.36,882.4,165.82,877.07z"/>
	<path d="M526.2,606.65c-1.53,4.83,3.73,7.52,1.19,11.39c-5.55-1.16-10.3-8.62-10-16.6c4.55-3.42,9.59-7.2,14.72-11.05
		c-4.05-6.45-8.5-12.13-6.82-19.69c1.52-6.86,5.14-12.42,11.8-17.42c0.43,2.44,1.29,4.29,0.93,5.85c-0.85,3.68-2.03,7.34-3.54,10.81
		c-2.57,5.89-2.91,11.46,0.84,15.83C536.31,595.45,532.17,601.9,526.2,606.65z"/>
	<path d="M193.3,849.23c5.32-8.47,11.37-10.01,15.63-4.16c-5.73,2.57-11.43,5.12-17.86,8c-7.62-0.81-14.67,1.8-20.45,8.26
		c-1.39,1.55-4.24,3.13-6.02,2.77c-9.94-2.04-17.92,2.96-26.37,6.45c-2.03,0.84-4.17,1.38-6.31,2.07c-1.2-4.68-0.61-6.05,2.59-7.23
		c1.84-0.68,4.04-0.95,5.46-2.14c5.17-4.3,11.13-4.69,17.32-4.03c4.31,0.46,7.55-0.91,10.56-4.09c5.95-6.28,13.57-7.78,21.89-6.57
		C190.88,848.72,191.99,848.98,193.3,849.23z"/>
	<path d="M1315.4,1079.34c-0.68,1.62-1.44,3.42-2.28,5.42c-1.16,0.15-2.43,0.32-3.58,0.47c-3.86,4.33-13.33,6.24-18.6,3.85
		c-3.25-1.48-3.91-4.42-1.5-7.25c0.95-1.11,2.23-1.94,3.34-2.93c0.99-0.87,1.95-1.77,3.23-2.95c5.29-0.41,10.86-0.85,16.74-1.31
		c0.6-1.09,1.29-2.35,2.22-4.05c5.55-0.31,11.27-2.22,17.73,0.71c-1.1,2.54-2.04,4.69-3.11,7.16
		C1324.94,1078.75,1320.54,1079.02,1315.4,1079.34z"/>
	<path d="M519.45,489.58c3.7-0.75,5.56,0.62,5.47,3.33c-0.11,3.03-1.05,6.05-1.77,9.05c-0.53,2.2-1.96,4.4-1.81,6.52
		c0.41,5.89-0.77,11.16-4.54,15.52c0.2,2.14,0.36,3.94,0.53,5.74c-0.27-0.07-0.55-0.13-0.82-0.2c-2.38,10.13-4.77,20.25-7.25,30.79
		c-5.01-1.58-5.33-5.24-5.56-9.04c1.08-1.37,2.09-2.66,2.75-3.51c0.79-12.19,2.41-23.61,8.16-34.06c0.55-1,1.01-2.12,1.21-3.23
		C517.08,503.6,518.23,496.69,519.45,489.58z"/>
	<path d="M1006.65,782.14c1.54,3.08,2.86,5.2,3.68,7.5c0.86,2.43,1.25,5.03,1.85,7.56c0.83,3.51,1.64,7.03,2.5,10.53
		c0.41,1.67,0.94,3.31,1.4,4.93c-2.64,1.73-5.4,1.51-6.11-0.41c-1.04-2.8-0.69-6.13-0.93-9.23c0.44-0.12,0.89-0.25,1.33-0.37
		c-1.84-2.9-3.73-5.76-5.49-8.7c-0.92-1.53-2.27-3.18-2.29-4.8c-0.11-7.55-3.03-14.16-6.39-20.62c-2.49-4.79-2.05-9.21,1.09-13.44
		c0.54-0.72,1.45-1.16,2.34-1.85c4.95,4.07,2.2,10.33,4.39,15.22c1.81-0.63,3.16-1.1,5.39-1.88c0.57,4.23,1.1,8.18,1.68,12.54
		C1009.63,780.11,1008.27,781.04,1006.65,782.14z"/>
	<path d="M898.29,1448.48c0-2.5,0-4.46,0-6.79c1.28-0.35,2.42-0.66,3.34-0.91c0.59,0.55,0.87,0.75,1.06,1
		c1.7,2.33,3.02,5.08,5.14,6.91c3.73,3.22,6.19,6.66,5.86,11.86c-0.24,3.87,0.97,7.26,5.6,8.31c0,4.3-0.18,8.26,0.04,12.2
		c0.45,8.11,2.46,11.17,9.58,14.99c-0.09,0.95-0.2,2.02-0.4,4.04c-2.91-0.41-6.09-0.01-8.06-1.37c-2.52-1.75-5.11-4.66-5.8-7.52
		c-1.35-5.53-1.39-11.37-2.04-17.76c-3.26-1.98-4.32-6-4.29-10.21c0.04-5.17-1.94-8.82-6.4-11.38
		C900.52,1451.07,899.5,1449.64,898.29,1448.48z"/>
	<path d="M955.59,1253.22c1.58,4.61,3.16,9.23,4.47,13.04c-0.89,3.42-1.56,6-2.23,8.59c-4.88,11-0.56,20.06,6.01,28.75
		c-0.31,1.65-0.62,3.24-0.99,5.19c-1.52,0.22-2.9,0.42-4.49,0.65c-1.94-2.49-3.75-4.83-5.58-7.15c-2.87-3.64-3.21-7.59-2.34-12.12
		c0.89-4.65,1.04-9.48,1.08-14.24c0.02-1.62-1.34-3.23-1.92-4.9c-0.57-1.65-1.72-3.64-1.25-5.01c1.54-4.44,3.72-8.66,5.65-12.96
		C954.53,1253.12,955.06,1253.17,955.59,1253.22z"/>
	<path d="M424.7,731.74c1.82-4.63-0.41-7.91-1.86-11.34c-0.95-2.24-2.38-4.55,1.14-6.78c4.66,4.13,6.49,9.95,9.64,14.81
		c-1.45,3.58-2.72,6.71-3.92,9.67c-3.07,0.36-5.5,0.65-8.05,0.96c-0.72,1.41-1.38,2.71-2.49,4.88c-7.66,1.25-15.89,2.58-25.16,4.09
		c-0.73-1.42-1.74-3.36-2.86-5.52c5.84-4.01,11.31-3.22,16.78-1.98C413.62,737.4,416.94,730.19,424.7,731.74z"/>
	<path d="M541.77,550.79c-4.84-2.47-5.52-6.08-5.99-9.28c-0.96-6.54-0.54-12.96,0.94-19.62c1.83-8.26,4.68-15.78,9.45-22.64
		c1.48-2.13,3.17-4.12,4.77-6.19c4.19,1.99,2.83,5.06,2.16,7.49c-0.74,2.67-2.19,5.17-3.5,7.66c-6.05,11.54-9.02,23.71-7.85,36.78
		C541.89,546.54,541.77,548.11,541.77,550.79z"/>
	<path d="M559.72,853.97c-10.3-3.19-11.94-10.53-10.73-18.67c-5.23-6.99-5.23-6.99-21.36-2.5c-2.9-1.9-5.68-3.99-5.66-8.45
		c7.31-0.96,14.24-1.86,22.27-2.92c3.7,4.45,8.84,8.83,11.54,14.39C558.39,841.24,558.5,847.87,559.72,853.97z"/>
	<path d="M929.02,970.65c-0.49-5.65-2.46-11.62,1.82-16.76c2.53,2.31,7.79,20.35,7.89,26.85c-1.7,4.21-5.85,2.75-8.36,3.77
		c-3.32-0.82-6.14-1.51-8.71-2.15c-1.92,1.73-3.35,3.01-4.79,4.31c-3.1-4.34-1.65-9.1,5.14-16.47
		C923.86,970.31,926.22,970.47,929.02,970.65z"/>
	<path d="M1590.62,998.78c3.12-10.39,11.57-17.14,20.81-17.46c3.47-0.12,6.93-0.32,10.39-0.46c3.11-0.13,5.52,0.82,6.63,5.12
		c-1.45,0.95-3.13,2.01-4.77,3.13c-1.76,1.2-3.48,2.47-5.82,4.14c-2.23,0.23-5.21,0.35-8.11,0.9c-3.21,0.61-6.34,1.63-9.52,2.41
		C1597.27,997.29,1594.29,997.93,1590.62,998.78z"/>
	<path d="M884.48,866.56c0.53,2.18,1.55,4.37,1.48,6.52c-0.16,5.02,2.28,8.84,4.93,12.64c0.94,1.35,2.01,2.62,3.02,3.92
		c5.13,6.6,10.78,12.94,10.55,22.57c-1.44,0.89-2.93,0.37-4.44-1.36c-4.34-4.97-8.92-9.73-13.14-14.8
		c-5.54-6.67-7.81-14.52-6.72-23.08c0.3-2.35,2.15-4.5,3.28-6.74C883.79,866.34,884.13,866.45,884.48,866.56z"/>
	<path d="M1863.85,1277c-1.06,4.37,6.39,4.81,4.48,9.96c-7.45,1.42-13.97-1.02-20.35-3.63c-4.96-2.03-9.71-4.34-14.92-1.6
		c-2.09-2.23-1.37-3.84,0.06-5.51c4.77-5.53,10.99-7.27,17.74-4.68C1855.01,1273.14,1859.06,1274.98,1863.85,1277z"/>
	<path d="M1533.57,947.32c-0.33-2.32-0.53-3.73-0.78-5.52c3.61,0.28,6.97,0.54,10.28,0.8c1.67,1.68,3.37,3.39,5.09,5.13
		c-3.05,4.91-24.59,15.23-32.27,14.88c-1.33-3.36-2.8-7.06-4.36-11c4.49-0.49,8.18-0.66,11.77-1.37
		C1526.75,949.58,1530.09,948.34,1533.57,947.32z"/>
	<path d="M1791.47,1271.63c0.51-1.97,0.52-3.33,1.16-4.23c4.34-6.11,13.66-8.62,20.47-5.32c4.01,1.94,7.75,4.42,11.6,6.66
		c0.36,2.93,0.69,5.65,1.02,8.36c-2.94,2.22-5.87,1.53-8.66,0.53c-2.64-0.94-5.21-2.14-7.66-3.49c-4.04-2.22-8.18-3.45-12.83-2.54
		C1795.32,1271.84,1793.98,1271.63,1791.47,1271.63z"/>
	<path d="M430,920.24c-4.31,2.92-4.46,7.76-4.35,12.7c-0.92,0.8-1.77,1.55-2.83,2.47c-0.3,3.53-0.62,7.25-0.94,10.99
		c-5.73,0.78-9.24-6.24-6.57-13.72c1.23-0.36,2.6-0.77,3.96-1.17c-2.35-8.25-1.74-12.94,2.19-17.45
		c1.52-10.52,3.78-12.33,10.36-7.27c-0.37,1.84-0.9,4.01-1.21,6.21C430.29,915.11,430.23,917.24,430,920.24z"/>
	<path d="M996.32,1405.01c-0.16,2.39-0.32,4.76-0.45,6.64c-4.97-0.68-9.35-1-13.57-1.97c-2.49-0.57-4.85-2-7.06-3.37
		c-4.6-2.86-9.06-5.94-14.29-9.4c-0.09-1.29-0.23-3.35-0.36-5.23c5.16-2.6,8.9-2.2,12.58,1.15c1.22,1.11,2.42,2.28,3.47,3.55
		c2.63,3.21,5.7,4.75,10.01,3.82C990.66,1399.34,993.7,1401.2,996.32,1405.01z"/>
	<path d="M720.91,1081.82c-0.03,4.9,2.24,7.07,6.88,8.31c2.4,0.64,4.77,4.05,5.78,6.72c2.33,6.2,4,12.59,8.69,17.65
		c0.92,0.99,0.95,2.81,1.49,4.58c-4.77,0.79-7.44-1.68-9.5-4.23c-2.14-2.64-4.05-5.81-4.92-9.05c-1.54-5.71-3.01-11.19-9.89-14.42
		c-2.09-0.14-5.49-0.38-9.03-0.62c-0.81-5.36,1.75-9.21,4.2-13.7C716.71,1078.65,718.62,1080.09,720.91,1081.82z"/>
	<path d="M1182.66,1283.74c0.85,1.59,1.61,3.01,2.27,4.25c-2.26,5.55-6.35,9.01-10.77,12.34c-6.18,4.66-12.05,9.72-18.09,14.56
		c-1.31,1.05-2.79,1.87-4.36,2.92c-2.81-4.41-0.41-7.55,1.51-10.01C1161.11,1297.65,1171.01,1289.82,1182.66,1283.74z"/>
	<path d="M1110.44,943.66c-1.21-0.9-2.45-1.47-3.17-2.43c-5.52-7.37-11.16-14.67-16.32-22.29c-4.55-6.72-4.3-6.97,1.64-13.19
		c4.77,3.07,4.52,10.97,11.25,11.92c2.9,6.52,5.77,12.82,8.49,19.19C1113.43,939.41,1113.09,940.29,1110.44,943.66z"/>
	<path d="M1708.2,967.71c-0.69,3.67-3.19,5.32-5.91,5.76c-8.12,1.33-16.3,2.23-24.47,3.23c-0.9,0.11-1.86-0.23-2.82-0.37
		c1.51-6.58,8.32-13.78,14.25-14.29C1696.09,961.45,1703.64,959.48,1708.2,967.71z"/>
	<path d="M1098.23,1369.04c-2.64-0.73-4.67-1.29-6.93-1.92c-1.53-6.18-3.08-12.48-4.64-18.79c0.28-0.11,0.55-0.23,0.83-0.34
		c-1.55-1.68-3.1-3.36-5.17-5.62c0.38-2.55,0.83-5.56,1.3-8.74c2.92-0.39,5.46-0.73,8.28-1.11c1.09,6.43,6.92,12.07,2.57,18.84
		C1095.08,1357.5,1101.23,1362.04,1098.23,1369.04z"/>
	<path d="M783.94,570.99c0,3.06,0,5.43,0,7.97c-1.88,0.19-3.12,0.32-4.43,0.46c-0.65,1.45-1.25,2.78-1.98,4.39
		c-1.24,0.28-2.63,0.59-4.3,0.96c-0.17,1.16-0.36,2.42-0.43,2.91c-3.18,4.02-5.96,7.55-8.66,10.97c-2.26,1-4.53,2.01-7.01,3.11
		c-3.63-3.15-4.32-5.68-2.49-11.28c2.9,0.21,5.93,0.43,9.46,0.69c0-3.34,0-6.48,0-10.55c3.26,0.53,5.89,0.96,9.27,1.51
		c0-3.49,0-7.11,0-11.14C777.02,570.99,779.88,570.99,783.94,570.99z"/>
	<path d="M1369.94,1066.04c-2.31,1.35-4.52,2.94-6.96,4c-3.27,1.42-6.79,2.26-10.07,3.66c-6.75,2.89-14.8,1.83-20.29-3.35
		c0.62-1.58,1.34-3.41,1.86-4.75c9.72-1.21,18.61-2.5,27.54-3.31c2.48-0.22,5.09,0.99,7.63,1.55
		C1369.74,1064.57,1369.84,1065.3,1369.94,1066.04z"/>
	<path d="M1752.63,737.82c-0.67,1.02-0.97,2.1-1.56,2.3c-8.08,2.66-11.65,11-18.8,14.79c-1.63,0.86-3.2,1.84-5.43,3.14
		c-0.91-3-1.56-5.13-2.08-6.83c1.69-5.51,5.44-8.33,9.81-10.39c4.27-7.97,6.62-9.47,14.04-8.71
		C1749.76,733.74,1751.07,735.6,1752.63,737.82z"/>
	<path d="M1060,1324.73c0.59,2.85,0.94,4.58,1.35,6.55c-3.11,3.1-7.23,2.45-10.99,1.94c-5.93-0.81-11.77-2.25-18.17-3.53
		c-1.56-3.86,2.13-7.14,2.49-11.83C1043.89,1318.54,1051.41,1323.89,1060,1324.73z"/>
	<path d="M1690.55,887.42c9.17-1.09,17.44-2.08,25.87-3.08c1.17,1.77,2.22,3.36,3.35,5.08c-6.24,7.81-16.68,5.38-23.29,10.92
		C1690.77,897.8,1692.46,892.43,1690.55,887.42z"/>
	<path d="M416.86,1039.4c-0.16,3.24,0.29,5.38-0.44,7c-2.07,4.62-1.37,9.32-1.39,14.08c-0.01,2.45-0.69,5.29-2.06,7.26
		c-3.24,4.66-5.9,9.33-4.77,15.4c-4.42-1.39-5.99-3.63-7.29-10.15c0.8-0.88,1.67-2.09,2.78-2.99c5.54-4.48,6.97-9.96,4.88-16.78
		c-1.88-6.15-0.9-8.75,3.74-12.11C413.24,1040.43,414.55,1040.24,416.86,1039.4z"/>
	<path d="M1666.51,1231.33c-0.29,2.26-0.55,4.37-0.81,6.39c-2.33,2.36-4.74,2.21-7.29,0.8c-1.01-0.56-2.16-0.92-3.05-1.62
		c-3.67-2.9-7.6-3.69-12-1.87c-0.54,0.22-1.26,0.03-1.87,0.03c-0.65-4.03,1.79-8.33,5.71-10.2
		C1654.71,1221.27,1658.24,1222.4,1666.51,1231.33z"/>
	<path d="M1015.77,1321.02c0.45,2.18,0.84,4.07,1.39,6.74c-9.32,2.49-17.86-0.47-26.14-3.09c-2.11-4.72,0.96-7.82,1.52-11.75
		C1000.43,1315.66,1007.97,1318.29,1015.77,1321.02z"/>
	<path d="M883.39,1141.94c-4.09-2.83-2.94-9.93,2.5-15.84c1.42-0.15,3.03-0.33,5.13-0.55c0.43-1.84,0.77-3.74,1.34-5.58
		c0.57-1.84,1.37-3.62,2.03-5.31c4.92,0.62,6.16,2.84,6.24,10.68c-1.04,0.74-2.22,1.56-3.48,2.46c0.07,1.52,0.15,2.98,0.2,4.02
		c-2.01,1.75-3.73,3.24-5.45,4.74c0.22,0.26,0.43,0.52,0.65,0.79c-1.62,0-3.25,0-5.27,0
		C886.03,1138.81,884.69,1140.4,883.39,1141.94z"/>
	<path d="M1609.34,840c0.07,6.86-5.78,7.73-9.06,10.64c-1.77,0.15-3.24,0.27-4.64,0.38c-1.33,1.12-2.57,2.16-4.2,3.53
		c-1.4-1.16-2.72-2.27-4.62-3.85c0.5-3.44,1.02-7.03,1.67-11.49c3.68,0.78,6.41,1.36,9.58,2.04c0-2.24,0-4.71,0-7.67
		C1603.79,833.39,1605.54,838.45,1609.34,840z"/>
	<path d="M1098.49,1315.12c6.52,1.55,12.25,2.92,18.48,4.4c0.79,1.94,1.7,4.15,2.61,6.4c-6.39,4.5-12.84,2.93-19.4,1.65
		c-1.69,0.85-3.51,1.76-5.95,2.98C1092.39,1323.95,1096.96,1320.21,1098.49,1315.12z"/>
	<path d="M488.37,632.12c-5.67-3.5-6.15-6.47-2.47-11.13c-0.35-7.11-2.31-14.57,4.23-20.25c0.89-4.18-0.31-9.16,4.34-11.8
		c4.28,1.93,4.6,3.35,3.33,7.21c-3.22,9.82-9.27,18.91-7.69,30.04C490.37,627.98,489.03,630,488.37,632.12z"/>
	<path d="M1430.06,1048.48c-1.11-4.91,0.9-7.68,2.55-9.08c10-1.69,18.54-3.13,27.8-4.69c0.19,0.69,0.59,2.09,1.06,3.78
		c-2.09,0.95-3.7,1.68-5.6,2.54c-0.68,0.98-1.52,2.19-2.61,3.77C1446,1046.79,1438.4,1048.61,1430.06,1048.48z"/>
	<path d="M684.15,741.88c0,2.37,0,4.01,0,6.48c-2.45-0.86-4.2-1.47-6.19-2.17c-7.66,2.7-15.58,5.5-23.68,8.35c0,1.23,0,2.52,0,3.64
		c-1.68,2.43-3.26,4.7-5.17,7.45c-1.14,0.06-2.7,0.15-4.1,0.22c-1.89-4.48-1.8-4.67,3.82-8.13c-0.15-1.68-0.3-3.45-0.44-5.05
		c3.78-7.46,10.22-5.31,16.48-4.8C669.5,741.37,676.53,742.07,684.15,741.88z"/>
	<path d="M926.35,950.36c-2.22-0.22-4.26,0.21-5.08-0.6c-7-6.94-13.63-14.26-13.29-25.02c0.09-2.95,1.46-5.86,2.24-8.78
		c0.54-0.04,1.08-0.07,1.63-0.11c0.73,1.65,2.32,3.47,2.04,4.92c-1.09,5.63,2.1,9.6,4.86,13.59
		C921.94,938.96,924.98,943.5,926.35,950.36z"/>
	<path d="M363.65,1081.29c1.04-1.29,2.17-2.69,3.43-4.26c-1.45-4.12-2.89-8.22-4.32-12.3c3.91-2.62,8.69-1.51,9.99,2.46
		c1.17,3.56,2.18,7.18,3.08,10.81c0.3,1.23,0.05,2.59,0.05,4.27c-3.94,2.32-7.61,5.14-7.29,10.79c-1.83,0-3.17,0-4.94,0
		C363.65,1088.93,363.65,1085.19,363.65,1081.29z"/>
	<path d="M1568.58,926.39c7.95,0,14.83,0,21.84,0c1.25,1.36,2.66,2.9,4.33,4.72c-2.13,3.37-5.25,5.24-9.34,6.06
		c-3.21,0.65-6.29,1.89-10.33,3.16C1571.7,937.27,1570.36,932.14,1568.58,926.39z"/>
	<path d="M656.27,1032.11c11.51,3.83,17.04,10.87,17.33,21.1c0.11,3.89,2.7,5.75,5.33,7.78c1.72,1.33,3.3,2.83,5.35,4.62
		c-1.72,1.37-2.67,2.13-3.78,3.01c-6.99-3.6-12.23-7.96-12.59-16.41c-0.2-4.54-1.42-8.71-6.24-10.95c-1.84-0.86-3.43-2.64-4.65-4.34
		C656.31,1035.93,656.56,1034.25,656.27,1032.11z"/>
	<path d="M876.91,1088.48c2.46-0.4,4.36-0.7,6.38-1.03c3.9-1.95,6.87-6.04,12.11-6.17c1.36,2.05,2.69,4.06,4.36,6.59
		c-0.98,0.96-1.8,2.19-2.95,2.84c-4.72,2.68-9.57,5.15-14.33,7.78c-2.06,1.14-4.02,2.46-6.34,3.9
		C873.42,1097.32,877.14,1093.41,876.91,1088.48z"/>
	<path d="M1332.68,983.54c3.53-0.18,7.19-1.76,8.62,1.68c0.87,2.09-0.41,5.07-0.64,6.99c-4.12,1.69-7.12,2.91-10.05,4.11
		c-0.81,2.4-1.49,4.41-2.18,6.43c-5.4,1.75-8.64,0.78-11.47-3.66c0.35-0.84,0.95-1.84,1.16-2.91c0.21-1.07,0.05-2.22,0.05-3.51
		C1323.84,990.97,1332.14,993.54,1332.68,983.54z"/>
	<path d="M333.76,1202.71c-3.22,1.83-5.99,3.41-9.06,5.15c1.34,3.33,2.41,5.99,3.55,8.81c-2.21,1.63-4.16,3.07-5.88,4.34
		c-0.92,2.14-1.7,3.97-2.51,5.86c-6.47-3.67-6.39-7.92-0.23-15.33c-0.27-2.3-0.56-4.73-0.86-7.2c3.14-4.21,6.75-7.08,12.17-6.27
		C333.05,1198.39,333.58,1199.56,333.76,1202.71z"/>
	<path d="M533.47,475.33c-3.32,0.56-4.24-1.16-4.7-3.48c-0.62-3.07-1.64-6.11-1.78-9.19c-0.13-2.87,0.56-5.79,1.06-8.66
		c1.14-6.49,5.77-12.46,1.85-20.03c2.67,0,4.31,0,6.93,0c0,4.6,1.05,9.15-0.21,12.92c-2.89,8.63-4.35,17.18-2.85,26.19
		C533.86,473.67,533.61,474.33,533.47,475.33z"/>
	<path d="M939,1509.59c1.18-0.09,2.26-0.17,3.4-0.25c0.19,0.71,0.5,1.21,0.4,1.61c-1.36,5.62,0.89,9.98,4.67,13.86
		c3.46,3.56,6.83,7.2,10.34,10.7c1.54,1.53,2.67,2.97,1,5.38c-3.56,0.7-6.06-1.66-8.44-3.72c-3.12-2.7-5.96-5.73-8.82-8.72
		C935.43,1522.09,934.91,1518.42,939,1509.59z"/>
	<path d="M850.54,1336.72c-1.32-5.73-5.53-10.73-1.89-17.78c1.59,1.66,2.82,2.52,3.46,3.69c6.03,10.89,11.96,21.84,17.88,32.69
		c-3.36,2.42-5.4,1.1-6.65-0.94c-3.17-5.15-6.01-10.49-8.99-15.76c0.29-0.24,0.58-0.48,0.87-0.72
		C853.83,1337.56,852.45,1337.21,850.54,1336.72z"/>
	<path d="M740.08,1068.86c-1.06-0.81-1.91-1.47-3.04-2.34c0.7-1.96,1.35-3.78,2.12-5.94c6.67-2.87,11.92-9.37,21.09-8.06
		c1.22,3.01,2.52,6.22,4.17,10.3c-2.75,0.24-4.61,0.93-6.09,0.44c-4.55-1.49-8.37-0.3-12.12,2.2
		C744.43,1066.63,742.47,1067.54,740.08,1068.86z"/>
	<path d="M791.38,538.09c-0.76,1.28-1.28,2.85-2.35,3.78c-1.71,1.5-3.65,2.88-5.72,3.79c-5.43,2.37-11.17,4.21-13.7,10.56
		c-5.62-2.73-2.7-7.54-4.21-11.29c7.25-6.75,15.97-7.76,24.84-8.31C790.62,537.11,791,537.6,791.38,538.09z"/>
	<path d="M1714.21,1249.47c0.65-1.65,1.02-3.51,2.03-4.89c1.24-1.69,3.02-3,4.58-4.46c2.12-1.98,4.48-2.06,6.74-0.46
		c3.06,2.18,5.96,4.58,8.69,6.71c0,2.93,0,5.35,0,7.87c-7.34,4.28-10.96-3.56-17.59-4.59c-0.32,0.06-1.73,0.34-3.14,0.62
		C1715.08,1250.01,1714.64,1249.74,1714.21,1249.47z"/>
	<path d="M1780.8,1254.91c0.23,3.05,0.39,5.21,0.57,7.59c-2.35,1.66-4.9,2.11-7.77,1.13c-5.07-1.71-10.16-3.33-16.05-5.26
		c-1.01-3.72,2.9-5.75,5.6-7.23C1769.96,1247.44,1775.29,1252.46,1780.8,1254.91z"/>
	<path d="M976.09,1321.62c-3.3-2.25-7.17-4.88-10.96-7.46c-1.28-4.25-0.07-7.63,2.88-11.31c4.41,3.53,8.71,6.96,13.33,10.66
		c-0.4,3.31-0.76,6.28-1.24,10.19c2.05,4.58,2.05,4.58-1.6,7.82C972.78,1329.85,976.73,1325.62,976.09,1321.62z"/>
	<path d="M1504.76,1118.58c1.61-1.28,3.31-2.63,5.26-4.18c2.26,3.46,0.09,6.68,0.58,9.6c-4.62,4.67-10.82,5.42-16.19,1.9
		c-1.36,0-2.97,0-4.55,0c-0.74-3.73,1.59-8.86,4.87-10.95C1497.43,1113.22,1498.34,1113.53,1504.76,1118.58z"/>
	<path d="M541.46,894.45c-1.66,1.98-3.69,1.94-5.77,0.83c-5.82-3.12-11.6-6.31-17.37-9.45c-0.35-4.39-2.38-8.47,1.66-11.73
		C525.93,877.75,540.49,891.6,541.46,894.45z"/>
	<path d="M871.74,858.51c-4.84,1.44-6.82-1.87-8.27-4.41c-3.02-5.29-5.52-10.91-7.79-16.58c-1.66-4.14,0.07-7.92,3.17-12.51
		C863.35,836.7,867.5,847.47,871.74,858.51z"/>
	<path d="M1511.65,1196.26c-7.14,2.84-11.96-2.59-17.64-3.27c-1.72-5.71-1.19-7.05,5.15-12.56c4.27,2.77,8.76,5.68,13.52,8.78
		C1512.3,1191.8,1511.96,1194.15,1511.65,1196.26z"/>
	<path d="M215.9,716.28c0.36-1.4,0.62-2.43,0.93-3.68c6.93,0.41,12.72,3.1,17.98,6.88c3.65,2.63,7.14,5.22,11.76,6.04
		c2.03,0.36,4.03,1.56,5.74,2.79c1.09,0.78,1.65,2.32,3.01,4.38c-6.75-0.44-12.14-1.32-16.63-4.55c-5.29-3.8-10.74-7.03-17.04-8.83
		C219.68,718.76,217.93,717.38,215.9,716.28z"/>
	<path d="M280.88,791.09c5.25-4.74,11.81-5.25,18-6.61c2.53-0.56,5.25-0.5,7.88-0.39c2.78,0.12,4.66,1.49,4.62,4.97
		c-7.72,1.49-15.48,2.98-22.59,4.35c-1.47,2.54-2.37,4.08-3.32,5.72C280.81,798.28,281.13,794.77,280.88,791.09z"/>
	<path d="M521.64,660.3c-1.32-0.67-3-1.03-3.9-2.06c-4.42-5.11-7.46-10.9-7.39-17.89c0.05-5.09,5.94-10.16,11.59-9.8
		c2.02,5.39-3.01,8.18-5.14,13.55c1.78,4.31,3.97,9.63,6.16,14.95C522.53,659.47,522.08,659.89,521.64,660.3z"/>
	<path d="M655.79,633.61c-5.12-1.95-7.73-6.5-7.17-12.37c6.3-1.42,12.69-2.9,19.1-4.25c1.03-0.22,2.18,0.1,4.22,0.22
		c-2.03,3.89-3.68,7.1-7.36,8.71C660.8,627.57,657,629.15,655.79,633.61z"/>
	<path d="M1682.89,1240.93c-1.35,0.97-2.49,1.8-4.35,3.14c-1.25-7.51,3.96-10.52,8.36-15.01c3.83,2.62,7.63,5.22,11.31,7.73
		c-0.43,3.15-0.77,5.55-1.12,8.09C1691.26,1248.08,1687.79,1242.63,1682.89,1240.93z"/>
	<path d="M890.68,1426.37c-13.09-2.4-20.42-16.81-15.77-31c0.94-0.12,2.01-0.26,3.08-0.4c0.3,0.67,0.7,1.13,0.67,1.54
		c-0.76,9.84,2.76,17.77,10.5,23.86C891.24,1422.01,891.8,1423.96,890.68,1426.37z"/>
	<path d="M1762.16,955.91c-6.31,2.57-12.32,6.74-19.94,5.69c-0.59-10.12,10.66-17.37,16.92-13.04
		C1761.53,950.2,1763.21,951.85,1762.16,955.91z"/>
	<path d="M1115.21,1149.48c-1.99-1.01-3.88-1.97-6.25-3.17c-1.97,0.47-4.34,1.03-6.67,1.58c-3.44-2.72-3.08-5.53,1.23-10.07
		c4.19-4.41,9.57-4.08,14.21,1.09C1117.45,1142.32,1119.83,1146.5,1115.21,1149.48z"/>
	<path d="M490.53,864.71c4.98,3.01,9.73,5.58,14.13,8.66c2.46,1.73,5.95,3.31,4.72,8.36c-2.4-0.29-4.83-0.31-7.08-0.93
		c-3.64-1-7.17-2.37-10.73-3.65C486.82,875.45,486.28,868.62,490.53,864.71z"/>
	<path d="M877.98,1069.77c-8.71,0-17.42,0-26.2,0c-0.27-5.15,4.9-10.94,10.06-9.8c6.05,1.33,11.42,4.51,16.63,7.77
		C878.3,1068.41,878.14,1069.09,877.98,1069.77z"/>
	<path d="M477.93,890.52c-0.98,0.83-1.96,1.66-3.11,2.64c0,2.31,0,4.64,0,7.21c-4.77-2.17-7.48-7.69-7.17-14
		c0.99-0.77,2.14-1.67,3.42-2.66c0-2.27,0-4.56,0-7.28c1.9-0.85,3.79-1.7,5.55-2.49c3.62,1.5,4.1,3.77,3.02,6.95
		c-0.98,2.89-1.53,5.93-2.27,8.9C477.56,890.03,477.74,890.27,477.93,890.52z"/>
	<path d="M1055.68,1379.29c0.16-2.35,0.3-4.57,0.46-6.92c2.24-0.48,4.13-0.89,6.36-1.37c1.05-1.64,2.18-3.42,3.47-5.43
		c1.16,0.1,2.41,0.21,4.05,0.36c1.35-2.23,2.75-4.53,4.21-6.94c2.87,3.82,2.43,7.88-0.73,10.93c-2.11,2.04-4.28,4.1-5.98,6.47
		C1063.93,1381.38,1062.36,1381.96,1055.68,1379.29z"/>
	<path d="M417.77,1009.95c5.29-3.86,10.63-7.76,15.95-11.64c3.4,4.35,3.4,4.35-7.03,16.39c0.17,1.13,0.39,2.41,0.55,3.7
		c0.13,1.09,0.18,2.2,0.27,3.4C422.92,1020.58,419.09,1016.15,417.77,1009.95z"/>
	<path d="M333.69,1190.4c-4.22,0.68-4.58-2.58-5.14-5.42c-1.5-7.7,2.27-14.54,9.77-17.97c3.79-1.74,5.51-1.35,8.18,2.25
		c-1.05,1.02-2,2.39-3.3,3.13c-6.08,3.47-9.9,8.08-8.6,15.59c0.08,0.45-0.1,0.98-0.25,1.44
		C334.27,1189.71,334,1189.95,333.69,1190.4z"/>
	<path d="M707.83,592.59c-1.02,2.47-1.92,4.64-2.87,6.94c-2.72,1.28-5.37,2.52-8.28,3.88c-0.82,1.81-1.73,3.81-3.14,6.94
		c-3.35-5.12-6.34-9.12-6.19-15.01C694.3,595.31,700.2,590.8,707.83,592.59z"/>
	<path d="M790.08,680.85c-2.87-5.52-2.03-10.51,2.04-12.93c6.34-3.76,13.27-4.23,21.67-3.1c-1.87,2.05-2.87,4.15-4.35,4.59
		C802.18,671.58,795.73,675,790.08,680.85z"/>
	<path d="M630,644.61c-1.89,5.07-5.9,8.31-10.75,10.92c-0.67,1.59-1.36,3.21-2.05,4.85c-5.68-2.86-8.52-7.39-8.15-12.7
		c6.64-1.5,13.26-3,19.87-4.5C629.29,643.66,629.64,644.14,630,644.61z"/>
	<path d="M1675.33,1118.04c-2.17-1.35-4.36-2.7-7.33-4.55c1.96-3,3.68-5.62,5.55-8.47c1.74,0.45,3.07,0.8,4.36,1.14
		c0.32,2.38,0.58,4.29,0.89,6.55c1.5-0.4,2.7-0.71,4.16-1.1c0.98,0.93,2.02,1.93,2.94,2.81c-0.17,2.43-0.32,4.55-0.52,7.5
		c-2.12,0.51-4.37,1.06-6.99,1.69C1677.28,1121.59,1676.38,1119.95,1675.33,1118.04z"/>
	<path d="M543.18,701.08c-0.97,5.97-5.11,9.33-12.68,9.99c-1.08-1.98-2.34-4.27-3.6-6.57c0.21-0.15,0.42-0.3,0.62-0.45
		c-1.34-0.58-2.68-1.16-4.31-1.87c0-1.34,0-2.71,0-3.94c6.01-3.79,10.25-1.15,13.89,3.1C539.28,701.25,541.19,701.16,543.18,701.08z
		"/>
	<path d="M552.14,489.2c-5.94-2.74-5.88-7.87-6.27-12.85c2.77-5.11,6.11-9.62,11.88-13.46c0.34,2.29,0.81,3.77,0.72,5.22
		c-0.1,1.61-0.4,3.35-1.13,4.76C554.69,477.94,551.24,482.69,552.14,489.2z"/>
	<path d="M904.24,1239.1c0.44-3.01,0.88-6.02,1.29-8.84c1.36-1.24,2.44-2.23,3.18-2.91c1.04-5.81,2.01-11.23,3.02-16.85
		c2.12-0.16,3.52-0.27,5.2-0.4c0.69,2.52,1.28,4.7,1.96,7.2c-1.3,1.59-2.64,3.23-3.7,4.53c-1.43,4.07-2.71,7.73-4,11.39
		c0.17,0.1,0.35,0.21,0.52,0.31c-1.95,2.09-3.9,4.18-5.85,6.26C905.33,1239.57,904.78,1239.33,904.24,1239.1z"/>
	<path d="M1634.17,1220.19c0,2.2,0,4.26,0,6.3c-6.35,3.93-11.13-1.4-16.52-2.47c-1.01-3.65,0.7-7.89,4.33-9.25
		C1627.59,1212.67,1630.51,1217.36,1634.17,1220.19z"/>
	<path d="M338.8,1261.06c-2.1-1.16-4.54-2.51-7.04-3.9c-0.12-1.82-0.21-3.25-0.29-4.58c4.37-4.75,8.55-9.29,12.82-13.93
		c3.06,2.12,3.07,4.47,2.23,6.89c-0.59,1.7-1.54,3.27-2.35,4.88C342.6,1253.56,341.01,1256.69,338.8,1261.06z"/>
	<path d="M1608.99,1044.52c1.44-0.39,3.18-0.87,5.04-1.38c1.44,0.73,2.9,1.48,5.1,2.59c0.51,2.99,1.09,6.46,1.74,10.29
		c-7.65,1.64-12.95-1.93-19.02-5.03C1604.4,1048.69,1606.39,1046.88,1608.99,1044.52z"/>
	<path d="M760.51,840.09c4.12,1.48,8.48,2.51,12.29,4.55c3.83,2.06,7.12,5.13,11.02,8.03c-0.21,1.33-0.46,2.9-0.71,4.45
		c-5.69,2.04-7.67-1.63-9.46-5.83c-7.15,0.3-10.96-4.11-14.23-9.24C759.78,841.4,760.14,840.75,760.51,840.09z"/>
	<path d="M857.37,641.3c6.34,0,12.22,0,17.86,0c2.29,3.79,0.03,5.3-2.54,7.03c-5.02-0.24-9.73,1.24-13.51,5.95
		C855.69,649.94,856.84,645.68,857.37,641.3z"/>
	<path d="M795.51,1077.12c-1.24-4.69,2.61-6.53,5.61-9.71c3.29,0.5,6.92,1.04,10.25,1.55c1.28,3.02,2.23,5.25,3.16,7.43
		C810.75,1079.41,808.24,1079.5,795.51,1077.12z"/>
	<path d="M395.34,996.23c1.3,3.79-2.09,16.22-6.48,23.57c-3.17-0.1-4.32-2.33-5.34-5.16c1.2-1.52,2.41-3.06,3.93-4.99
		c0-2.39-0.02-5.18,0-7.97C387.51,996.03,389.58,994.6,395.34,996.23z"/>
	<path d="M584.83,681.36c-5.78-2.71-8.1-6.26-7.69-11.52c6.23-0.58,12.48-1.17,19-1.78C595.69,676.26,587.56,676.4,584.83,681.36z"
		/>
	<path d="M998.14,1351.64c-2.31,0.27-4.33,0.5-6.02,0.69c-2.81-2.42-5.19-4.45-7.55-6.5c-0.37-0.32-0.67-0.72-1.67-1.83
		c0.6-2.96,1.32-6.47,2.07-10.16C991.53,1336.43,997.47,1344.5,998.14,1351.64z"/>
	<path d="M513.89,679.9c1.69-4.77,5.27-7.38,9.1-9.76c2.97,2.28,2.57,4.59,1.13,6.86c-2.49,3.94-3.03,7.74-0.48,11.99
		c0.97,1.61,0.81,3.89,1.21,6.09C520.18,694.61,517.43,690.56,513.89,679.9z"/>
	<path d="M1220.7,967.18c-0.88,1.1-1.86,2.34-2.78,3.49c-2.59,0.23-4.87,0.43-6.84,0.61c-4.2,2.02-4.99,7.66-10.72,8.7
		c0-1.84-0.51-3.49,0.09-4.41c2.6-3.96,5.15-8.07,8.43-11.44C1212.57,960.34,1217.82,961.81,1220.7,967.18z"/>
	<path d="M732.67,611.59c2.66,0.5,4.6,0.87,6.25,1.18c1.95,6.33,2.73,10.01-2.86,11.53c-0.46,1.14-0.95,2.35-1.5,3.73
		c-1.38,0.46-2.76,0.92-3.79,1.26c-4.02-1.19-6.17-5.7-5.66-11.39c1.43,0.45,2.81,0.91,4.19,1.33c1.2,0.36,2.41,0.69,3.92,1.13
		C733.03,617.4,732.87,614.89,732.67,611.59z"/>
	<path d="M767.68,1082.62c-5.5-0.41-10.18-0.76-15.69-1.17c-1.75-5.12,3.33-7.99,5.31-13.11c3.14,1.39,5.8,2.56,8.02,3.54
		C766.13,1075.58,766.75,1078.4,767.68,1082.62z"/>
	<path d="M906.29,848.83c-3.27-4.59-4.37-10.69-10.65-10.59c-2.56-4.78,1.13-7.07,2.61-10.01C906.6,828.75,911.36,840,906.29,848.83
		z"/>
	<path d="M317.52,825.55c-2.19-3.17-1.44-4.79,0.2-6.31c6.44-5.96,14.09-5.07,22.31-4.5c-0.25,2.03-0.42,3.4-0.61,4.91
		c-4.07,0.71-7.86,1.1-11.49,2.08C324.38,822.69,320.98,824.25,317.52,825.55z"/>
	<path d="M1312.98,1121.2c0.81-3.19,1.48-5.84,2.33-9.2c4.04-0.9,8.08-1.81,12.66-2.84c1.12,3.03,2,5.38,3.11,8.37
		C1324.85,1118.42,1319.96,1123.48,1312.98,1121.2z"/>
	<path d="M1003.14,1288.29c0.45,1.76,0.93,3.67,1.39,5.49c-4.42,3.88-9.07,3.48-13.99-1.07c-2.89-2.67-2.59-6.85,0.83-11.48
		C995.11,1283.47,998.86,1285.72,1003.14,1288.29z"/>
	<path d="M455.83,908.75c3.59-1.98,7.58-4.18,11.98-6.59c1.26,1.32,2.3,2.41,4.02,4.21c-2.96,2.93-5.56,5.51-8.44,8.37
		c0.27,2.09,0.59,4.57,0.95,7.34C459.07,920.39,455.21,914.37,455.83,908.75z"/>
	<path d="M556.03,699.82c-5.25-1.18-6.12-5.05-7.49-9.35c6.25-1.99,12.33-3.1,18.9-3.34C567.93,695.87,559.49,695.29,556.03,699.82z
		"/>
	<path d="M1395.51,1059.5c-1.55,1.17-3.11,2.33-4.93,3.7c-2.21,0.43-4.77,0.93-7.55,1.46c-2.44-0.79-5.04-1.64-8.2-2.67
		c0.62-2.3,1.15-4.23,1.75-6.44c6.57-0.23,12.87-2.17,18.35,2.1C1395.12,1058.27,1395.32,1058.88,1395.51,1059.5z"/>
	<path d="M507.65,849.33c-3.27-2.38-7.47-3.69-6.6-9.13c6.03-1.47,11.96-2.92,18.4-4.49C520.66,845.68,511.71,845.14,507.65,849.33z
		"/>
	<path d="M1612.14,1111.9c-3.08,0-5.75,0-8.03,0c-2.35,0.98-4.36,1.83-6.64,2.78c-0.6-1.7-0.97-2.74-1.38-3.89
		c2.9-3.3,5.72-6.5,8.53-9.69c2.52,0,4.87,0,7.51,0C1612.14,1104.86,1612.14,1108.06,1612.14,1111.9z"/>
	<path d="M1059.59,882.1c-4.17-1.91-2.46-5.93-4.04-9.23c-0.77-0.9-1.94-2.27-3.29-3.85c-0.45-4.52,1.93-7.81,4.85-10.99
		C1062.21,862.61,1063.7,876.85,1059.59,882.1z"/>
	<path d="M1587.62,1213.94c-0.59-6.2,3.25-8.93,6.98-12.8c2.66,3.01,5,5.65,7.33,8.29c-0.52,2.4-0.97,4.48-1.44,6.66
		C1595.37,1219.83,1592.32,1213.49,1587.62,1213.94z"/>
	<path d="M911.39,628.63c-4.52,7-13.04,6.43-17.84,12.85c-1.68-5.06-2.27-8.55,0.39-11.62
		C896.87,626.47,903.89,625.89,911.39,628.63z"/>
	<path d="M543.89,387.24c1.55,0,2.81,0,4.13,0c1.39,2.81,1.53,5.28,0.56,8.21c-1.28,3.87-1.86,7.98-2.59,12.01
		c-0.39,2.16-1.29,3.3-3.98,2.73C538.94,402.43,539.51,394.94,543.89,387.24z"/>
	<path d="M968.88,1273.41c4.05,2.63,7.61,4.93,11.47,7.43c0.5,2.01,1.08,4.33,1.65,6.65c-4.72,2.01-12.35-0.03-14.83-4.12
		c-0.68-1.12-0.89-2.84-0.62-4.14C966.95,1277.35,967.97,1275.61,968.88,1273.41z"/>
	<path d="M349.37,1227.43c-5.69-9.28-3.97-14.64,6.07-19.47c0.41,0.15,1,0.19,1.3,0.51c0.66,0.68,1.18,1.51,1.69,2.19
		c-0.77,5.91-6.7,9.95-4.85,16.77C351.89,1227.43,350.56,1227.43,349.37,1227.43z"/>
	<path d="M848.17,652.9c-0.89,4.91-4.49,5.61-7.63,6.78c-3.02,1.13-6.11,2.1-9.56,3.27c-2.54-3.26-2.41-7-2.16-11.33
		C835.42,653.28,841.85,650.81,848.17,652.9z"/>
	<path d="M752.9,682.43c7.35-2.07,13.57-1.59,19.92-0.35c-4.35,6.59-12.08,6.48-18.66,11.34
		C753.66,689.04,753.31,685.96,752.9,682.43z"/>
	<path d="M734.97,573.2c-1.36,2.75-2.29,4.61-3.2,6.44c-1.79,0.78-3.43,1.49-5.13,2.23c-0.78,1.43-1.55,2.83-2.31,4.23
		c-4.26-2.35-6.24-6.47-5.52-11.69C723.69,572.1,728.82,571.83,734.97,573.2z"/>
	<path d="M259.82,815.55c-8.11-0.05-15.72,1.32-22.32,8.56c-0.98-3.22-1.58-5.18-2.19-7.2c7.09-5.49,14.55-6.4,22.4-5.26
		c1,0.14,1.78,1.82,2.67,2.79C260.19,814.81,260.01,815.18,259.82,815.55z"/>
	<path d="M759.89,1152.9c-6.83,3.66-11.09,1.93-11.95-4.06c-0.68-4.73-2.22-9.64,1.25-15.02c1.26,1.52,2.57,2.51,3.08,3.82
		C754.29,1142.85,754.05,1149.02,759.89,1152.9z"/>
	<path d="M807.92,693.37c0,1.77,0,2.98,0,4.35c-4.54,0.54-8.89,1.06-12.74,1.51c-1.55,2.04-2.63,3.46-3.85,5.07
		c-4.22-1.51-1.96-5.08-3.04-7.66C793.99,690.67,800.65,692.4,807.92,693.37z"/>
	<path d="M845.07,1309.49c-10.08,1.19-16.96-9.42-13.51-20.16c1.45,1.76,2.83,3,3.66,4.53c2.23,4.16,3.71,8.74,8.31,11.26
		C844.45,1305.63,844.49,1307.72,845.07,1309.49z"/>
	<path d="M402.74,1094.63c-1.53,3.08-3.15,6.36-5.11,10.31c0.14,1.48,0.35,3.73,0.61,6.56c-4.68-1.75-7.11-4.73-8.13-8.94
		c-0.87-3.61,1.61-5.69,4.08-7.26C396.43,1093.88,398.79,1090.87,402.74,1094.63z"/>
	<path d="M743.95,692.51c-1.95,4.27-4.98,5.47-8.82,5.46c-1.14,1.06-2.3,2.14-3.67,3.41c-3.77-3.42-4.03-7.52-3.11-12.51
		C733.87,689.23,739.31,688.23,743.95,692.51z"/>
	<path d="M1475.07,940.56c-5.62-1.2-7.65-8.18-4.08-14.27c4.86,0.14,8.33,3.11,12.54,6.43
		C1480.67,935.36,1478.03,937.81,1475.07,940.56z"/>
	<path d="M927.38,855.95c3.11,6.59,8.04,12.15,8.11,20.08c-1.26,0.51-2.26,0.92-3.22,1.31c-0.54-0.5-0.98-0.77-1.25-1.16
		c-1.76-2.6-3.39-5.3-5.24-7.84C922.31,863.55,922.51,860.97,927.38,855.95z"/>
	<path d="M1556.05,946.87c-5.13-3.27-5.58-8.08-7.19-13.19c4.07,0.45,7.41,0.81,10.88,1.19c1.85,1.72,3.76,3.49,6.46,5.99
		C1562.74,942.91,1559.53,944.81,1556.05,946.87z"/>
	<path d="M1714.94,755.34c2.36,2.11,4.07,3.64,5.84,5.23c-0.23,6.39-7.24,5.05-9.03,8.89c-5.08-0.86-3.74-4.93-5.35-7.83
		c1.46-1.94,2.92-3.88,4.44-5.9C1712.43,755.57,1713.87,755.44,1714.94,755.34z"/>
	<path d="M1214.02,1161.15c-3.83-0.32-6.88-0.58-10.29-0.87c-2.48-5.81,2.59-8.79,5.18-13.44c2.11,1.5,3.78,2.69,5.42,3.86
		C1214.74,1154.36,1216.66,1157.81,1214.02,1161.15z"/>
	<path d="M699.48,730.76c3.27-1.61,5.29,3.95,8.74,0.5c-0.27-2.18-0.59-4.66-0.9-7.19c4.43-0.13,6.6,2.62,6.4,7.39
		c-0.2,4.87-4.14,7.89-9.28,7.13C700.4,737.99,698.6,735.2,699.48,730.76z"/>
	<path d="M1628.36,1110.21c-1.3,0.28-2.73,0.59-4.87,1.05c-0.45-6.18,3.54-9.19,7.41-12.7c1.55,0.32,3.1,0.65,4.37,0.91
		c2.26,5.51,1.49,9.61-2.2,12.17C1631.65,1111.21,1630.09,1110.74,1628.36,1110.21z"/>
	<path d="M1069.96,890.97c1.37-2.23,3.02-4.92,4.97-8.1c5.14,5.65,5.11,11.92,4.97,18.04c-0.05,2.21-2.07,3.23-4.39,1.97
		C1073.85,899.32,1072.2,895.79,1069.96,890.97z"/>
	<path d="M1246.7,960.86c0.68,1.52,1.39,3.09,2.12,4.73c-1.63,1.92-3.01,3.54-4.38,5.14c-4.06,0.85-7.9,1.56-11-1.77
		C1234.62,962.56,1238.77,959.91,1246.7,960.86z"/>
	<path d="M1293.5,1123.52c0.49-2.52,0.86-4.41,1.28-6.52c1.38-0.88,2.89-1.85,4.6-2.94c2.3,0.21,4.73,0.44,7.11,0.66
		c0.89,2.23,1.72,4.29,2.86,7.14C1303.79,1121.63,1299.52,1127.72,1293.5,1123.52z"/>
	<path d="M1616,839.86c-5.2-5.27-3.68-10.86-3.46-16.27c3.91-0.18,3.91-0.18,10.62,6.21C1623.37,834.89,1618.58,836.29,1616,839.86z
		"/>
	<path d="M306.29,1268.36c-4.81,1.71-7.91-0.77-10.94-3.19c0.81-6.69,5.35-9.63,12.98-8.43c0.39,1.08,0.86,2.38,1.37,3.81
		c-1.39,1.09-2.52,1.97-3.83,2.99C306,1265,306.13,1266.56,306.29,1268.36z"/>
	<path d="M1557.97,1206.21c1.35-5.35,3.1-9.49,8.39-11.66c2.12,1.65,4.15,3.22,6.38,4.95c-0.72,2.37-1.37,4.5-2.23,7.34
		C1566.55,1206.64,1562.74,1206.45,1557.97,1206.21z"/>
	<path d="M903.74,668.63c-5.11-1.6-5.8-4.99-2.86-12.02c3.83-1.26,7.78-2.91,12.44-0.2c-0.12,1.46-0.25,2.99-0.4,4.78
		c-2.13,0.38-3.86,0.69-6.06,1.08C905.93,664.16,904.88,666.29,903.74,668.63z"/>
	<path d="M753.72,841.53c-1.07,1.13-1.66,2.29-2.54,2.58c-3.89,1.27-13.52-2.47-15.84-5.95c-1.21-1.83-1.29-3.59,0.47-6.07
		C741.36,835.94,748.27,836.63,753.72,841.53z"/>
	<path d="M1415.63,1055.17c-12.44,1.82-15.95,0.26-14.3-6.63c5.19,0,10.56,0,16.87,0
		C1417.17,1051.17,1416.4,1053.16,1415.63,1055.17z"/>
	<path d="M331.6,778.44c-4.55,2.88-11.29-0.5-14.52,5.17c-4.18-1.65-4.2-4.31-3.1-7.34C321.15,771.16,329.02,772,331.6,778.44z"/>
	<path d="M1461.51,949.36c-3.58-3.21-5.25-6.87-4.31-12.13c1.47-0.8,3.09-1.68,4.6-2.49c3.18,2.25,5.94,4.2,9.18,6.49
		C1467.82,943.94,1465.03,946.33,1461.51,949.36z"/>
	<path d="M1049.92,1152.19c-1.56-0.29-2.81-0.52-4.12-0.76c-1.47,0.74-3,1.51-4.52,2.28c-2.18-4.15-1.06-7.79,4.69-14.94
		c1.37,0.74,3.83,1.25,4.26,2.47C1051.43,1144.7,1051.99,1148.46,1049.92,1152.19z"/>
	<path d="M1011.19,825.96c1.6-4.13,2.95-7.64,4.3-11.14c0.5,0.03,1,0.07,1.5,0.1c4.1,4.77,4.05,11.01,5.96,17.01
		C1016.66,833.87,1015.64,828.05,1011.19,825.96z"/>
	<path d="M157.09,890.06c-7.41,4.76-9.47,5.4-17.13,5.35c-0.38-1.45-0.82-3.09-1.09-4.13c6.63-2.51,12.42-4.7,19.29-7.3
		C157.65,886.87,157.36,888.53,157.09,890.06z"/>
	<path d="M1658.46,803.59c-0.1,2.29-0.19,4.31-0.28,6.48c-3,0-5.43,0-7.72,0c-3.86-4.42-4.18-8.39-0.79-14.15
		C1652.51,798.41,1655.26,800.8,1658.46,803.59z"/>
	<path d="M1074.09,1319.03c3.83,2.53,6.76,4.47,9.88,6.52c-0.16,2.21-0.31,4.27-0.47,6.6c-4.44-0.17-8.69,1.36-12.34-3.36
		C1071.97,1326.07,1072.92,1322.93,1074.09,1319.03z"/>
	<path d="M356.96,1132.32c-0.23,2.22-0.41,3.98-0.6,5.8c-4.24,0.8-4.98-1.96-5.54-4.79c-1.08-5.56,0.73-8.12,8.11-11.01
		c1.27,1.41,2.71,3.01,4.18,4.64C360.63,1129.13,358.68,1130.83,356.96,1132.32z"/>
	<path d="M1019.52,787.2c3.62,6.38,1.25,12.91,3.77,19.39c-1.01,1.01-1.99,1.98-2.97,2.96c-0.52-0.13-1.05-0.27-1.57-0.4
		c-0.84-2.35-2.09-4.65-2.44-7.07C1015.6,797.23,1013.85,792.03,1019.52,787.2z"/>
	<path d="M325.87,1288.82c-2.01,0-3.13,0-4.5,0c-1.19-1.64-2.41-3.33-3.53-4.87c2.56-6.11,6.9-8.99,12.88-8.48
		C332.75,1281.3,325.3,1283.36,325.87,1288.82z"/>
	<path d="M1010.96,1412.61c-3.95,0.93-7.68,1.8-12,2.81c0-2.93,0-5.12,0-7.58c3.67-1.65,6.7-5.23,12-3.76
		C1010.96,1406.9,1010.96,1409.73,1010.96,1412.61z"/>
	<path d="M1027.56,1402.48c0,2.87,0,5.12,0,7.74c-3.83,3.54-8.68,2.23-13.2,3c-0.64-6.29-0.21-7.21,4.15-9.47
		c0.45,1.38,0.88,2.7,1.48,4.56c0.63-0.97,1.08-1.66,1.52-2.35c0.53-0.83,1.05-1.65,1.69-2.66
		C1024.38,1403.07,1025.62,1402.84,1027.56,1402.48z"/>
	<path d="M701.54,710.75c-0.41-2.66-0.81-5.3-1.39-9.12c5.71,1.17,10.43,2.13,14.93,3.05C716.36,710.41,712.84,712,701.54,710.75z"
		/>
	<path d="M1284.01,1083.56c0.7,2.95,1.3,5.45,2.08,8.72c-1.01,1.65-2.35,3.85-4.03,6.6c-2.48-0.61-4.73-1.17-7.23-1.78
		C1275.58,1090.5,1278.42,1086.22,1284.01,1083.56z"/>
	<path d="M350.93,1151.28c-0.21,6.16-0.21,6.16-3.7,7.9c-3.32-3.73-2.67-8.48-3.37-12.63c3.91-4.92,7.5-4.76,10.56,0.52
		C353.39,1148.32,352.26,1149.68,350.93,1151.28z"/>
	<path d="M354.64,809.27c3.92-1.04,7.54-2.09,11.19-2.93c3.31-0.77,5.29,0.61,6.07,4.35c-3.96,1.58-7.65,3.32-11.51,4.52
		C356.51,816.42,354.15,813.96,354.64,809.27z"/>
	<path d="M230.89,830.8c-5.42,3.23-10.49,6.31-15.65,9.24c-0.53,0.3-1.54-0.22-2.23-0.35c-1.14-4.44-0.21-5.89,5.52-8.88
		C225.01,827.43,227.89,827.39,230.89,830.8z"/>
	<path d="M267.59,843.14c-0.12,1.66-0.19,2.77-0.29,4.22c-5.41,1.73-9.76,6.94-16.61,4.43c-0.21-1.45-0.39-2.7-0.68-4.7
		C255.93,846.42,260.64,841.93,267.59,843.14z"/>
	<path d="M1434.36,913.34c0.37,1.25,0.58,1.99,0.81,2.76c1.41,0.22,2.77,0.43,4.55,0.71c-2.64,3.74-5,7.09-7.62,10.8
		c-4.94-0.71-6-3.25-3.76-11.71C1430.04,915.17,1431.99,914.35,1434.36,913.34z"/>
	<path d="M317.34,1235.91c0.38,1.28,0.78,2.62,1.19,4.03c-1.69,1.01-3.08,1.83-4.75,2.83c-0.15,2.18-0.31,4.42-0.47,6.61
		c-2.92,1.33-4.29-0.26-5.23-2.35c-1.32-2.94-2.1-5.94,0.07-8.9C310.5,1234.94,313.55,1234.76,317.34,1235.91z"/>
	<path d="M840.61,1008.46c-2.16,1.04-3.28,1.58-4.39,2.11c-2.79-1.93-5.34-3.69-8.59-5.93c1.56-2.88,3.05-5.64,4.74-8.75
		C838.61,998.32,837.36,1004.29,840.61,1008.46z"/>
	<path d="M1420.63,1100.49c-4.66,3.35-8.39,2.78-12.76,0.06c1.22-2.85,2.41-5.61,3.65-8.51c2.04-0.3,3.75-0.55,6.03-0.89
		C1418.64,1094.47,1419.63,1097.46,1420.63,1100.49z"/>
	<path d="M557.63,331.86c1.4,0,2.94,0,4.51,0c3.08,5.82,0.61,10.63-1.95,15.44C555.03,346.19,554.05,340.37,557.63,331.86z"/>
	<path d="M544.37,428.74c-5.43-1.85-7.67-6.09-6.57-11.17c0.71-3.26,2.51-4.11,8.02-3.69c3.98,3.35,0.43,5.65-1.45,8.5
		C544.37,424.16,544.37,426.22,544.37,428.74z"/>
	<path d="M507.79,562.47c0.12,1.67,0.25,3.36,0.38,5.05c-0.31-0.1-0.62-0.21-0.93-0.31c-2.04,3.22-4.07,6.44-6.35,10.04
		c-2.75,0.04-3.93-1.26-4.04-5.32C496.7,566.56,500.93,562.7,507.79,562.47z"/>
	<path d="M1065.68,937.19c0,6.75,0,12.69,0,18.64c-3.12,0.35-5.75-1.42-6.7-4.52C1057.76,947.36,1060.8,940.01,1065.68,937.19z"/>
	<path d="M923.16,1160.67c3.19,8.01,2.5,19.78-1.13,22.96C918.14,1178.96,918.57,1167.77,923.16,1160.67z"/>
	<path d="M1632.65,826.95c-2.38,0.83-4.54,1.58-7.03,2.44c-3.96-3.68-3.86-8.24-3.51-12.94
		C1627.81,816.2,1633.67,821.99,1632.65,826.95z"/>
	<path d="M1008.03,1354.84c8.36,2.98,11.05,7.4,7.88,12.34c-3.51,0.96-6.75-0.04-8.82-2.8
		C1004.81,1361.35,1006.52,1358.16,1008.03,1354.84z"/>
	<path d="M1540.41,1204.72c-1.45-4.99,2.29-6.91,4.73-10.39c2.39,0.92,4.85,1.87,7.32,2.82c0,1.9,0,3.35,0,4.76
		C1549.26,1206.34,1544.88,1204.85,1540.41,1204.72z"/>
	<path d="M1670,797.95c-0.83,1.14-1.48,2.02-2.17,2.97c-3.34-0.47-6.52-0.92-10.03-1.41c-0.55-2.83-1.03-5.28-1.63-8.38
		c2.81-0.19,4.84-0.34,6.96-0.48C1665.47,793.13,1667.67,795.48,1670,797.95z"/>
	<path d="M917.58,1208.27c-3.18-6.82,0.55-12.81,2.55-19.25c4.75,0.52,3.4,4.11,4.18,5.89c-1.7,4.89-3.22,9.3-4.75,13.71
		C918.9,1208.49,918.24,1208.38,917.58,1208.27z"/>
	<path d="M933.97,1475.94c-1.28,0.85-3.1,2.06-4.65,3.09c-4.56-3.22-6.38-9.72-4.82-15.52c2.98-0.54,4.38,1.27,5.45,3.67
		C931.12,1469.79,932.33,1472.38,933.97,1475.94z"/>
	<path d="M819.85,692.05c-0.28-2.53-0.57-5.06-0.78-6.93c3.43-4.73,7.41-3.96,11.23-2.87c1.85,0.53,4.42,1.22,3.18,4.8
		c-2.49,0.31-5.19,0.65-8.45,1.06c-0.94,1.24-2.11,2.78-3.28,4.33C821.11,692.32,820.48,692.18,819.85,692.05z"/>
	<path d="M1485.13,915.71c3.74,2.72,6.9,5.02,10.9,7.92c-2.23,2.69-4.1,4.95-5.87,7.1C1485.19,928.82,1483,922.96,1485.13,915.71z"
		/>
	<path d="M1048.39,842.32c2.8,5.02,1.3,10.45,1.45,15.59c0.04,1.33-1.56,2.7-2.65,4.44
		C1042.71,854.57,1041.81,845.64,1048.39,842.32z"/>
	<path d="M1400.68,931.95c1.24-0.21,2.52-0.43,3.05-0.52c3.15,1.21,5.64,2.16,8.55,3.28c-1.98,2.43-4.07,4.99-6.24,7.66
		c-3.15,1.05-5.33-0.13-6.77-3.23C1399.69,937,1400.12,934.8,1400.68,931.95z"/>
</g>
</svg>
