<?xml version="1.0" encoding="utf-8"?>
<!-- Generator: Adobe Illustrator 27.4.0, SVG Export Plug-In . SVG Version: 6.00 Build 0)  -->
<svg version="1.1" id="Calque_1" xmlns="http://www.w3.org/2000/svg" xmlns:xlink="http://www.w3.org/1999/xlink" x="0px" y="0px"
	 viewBox="0 0 2000 2000" style="enable-background:new 0 0 2000 2000;" xml:space="preserve">
<g>
	<path d="M1234.9,907.51c-0.42,1.09-0.63,2.33-1.28,3.25c-4.57,6.45-8.92,13.1-13.93,19.19c-12.8,15.57-25.74,31.03-38.95,46.25
		c-14.55,16.77-29.73,32.99-44.15,49.87c-20.09,23.51-39.09,47.85-53.08,75.66c-8.56,17.03-13.97,35.12-16.24,53.98
		c-1.12,9.29-1.42,18.74,0.29,28.19c1.22,6.74,0.88,13.75,1.83,20.56c0.99,7.06,2.33,14.11,4.16,20.99
		c3.7,13.87,11.57,25.5,21.09,35.95c9.28,10.18,19.04,19.89,30.11,28.25c16.48,12.44,34.83,20.03,55.23,22.83
		c0.76,0.1,1.5,0.3,2.91,0.59c0.96,1.47,2.17,3.32,3.45,5.27c-0.73,1.12-1.07,2.21-1.82,2.71c-4.52,3.01-9.68,3.21-14.75,2.42
		c-6.04-0.95-12.11-2.07-17.93-3.88c-16.72-5.2-32.04-13.1-45.73-24.21c-12.33-10.01-23.74-20.84-33.62-33.3
		c-8.23-10.38-13.49-22.2-17.16-34.76c-3.97-13.57-4.33-27.65-5.65-41.63c-1.36-14.45-0.27-28.61,3.06-42.56
		c4.05-16.95,10.67-32.98,18.97-48.32c6.21-11.48,13.8-22.03,21.17-32.77c17.46-25.41,39.58-46.68,60.32-69.19
		c14.36-15.58,28.79-31.09,43.1-46.71c8.78-9.6,17.29-19.44,26.1-29c3.43-3.72,7.38-6.97,11.1-10.43
		C1233.98,906.98,1234.44,907.24,1234.9,907.51z"/>
	<path d="M1626.29,1558.55c-5.45-1.46-10.42-3.16-14.06-7.35c-2.84-3.27-5.78-6.53-8.1-10.17c-4.18-6.57-9.84-11.64-15.38-16.94
		c-6.44-6.15-12.44-12.76-18.66-19.15c-2.84-2.92-5.51-6.07-8.65-8.63c-9.1-7.41-18.19-14.87-27.68-21.76
		c-24.78-18-51.77-31.69-81.48-39.53c-12.8-3.38-25.85-5.86-39.66-8.95c-2.24-1.81-5.17-4.19-8.65-7.02
		c1.37-1.19,2.31-2.7,3.38-2.79c3.27-0.28,6.66-0.42,9.89,0.1c33.37,5.32,64.53,16.49,93.68,33.82
		c20.51,12.19,39.17,26.75,57.56,41.73c5.3,4.32,9.81,9.63,14.51,14.65c4.32,4.61,8.19,9.66,13.34,13.14c0.65-0.36,1-0.45,1.02-0.59
		c2.09-10.62,10.25-14.7,19.29-17.43c11.36-3.43,23.05-4.51,34.78-2.4c20.98,3.77,41.04,10.27,59.5,21.2
		c2.41,1.43,4.89,2.77,7.38,4.04c20.14,10.31,35.56,25.49,46.4,45.28c4.28,7.82,8.37,15.77,12.08,23.87
		c1.44,3.15,1.91,6.85,2.3,10.36c1.07,9.55-2.42,16.87-10.98,21.73c-11.68,6.63-23.83,11.67-37.51,11.94
		c-2.04,0.04-4.11,0.14-6.11-0.15c-15.41-2.24-29.66-7.35-41.97-17.18c-0.8-0.64-1.58-1.29-2.35-1.96
		c-4.69-4.02-8.2-8.69-6.43-15.28c1.96-7.3,6.33-12.82,13.6-15.45c3.22-1.16,6.62-0.87,9.42,1.46c2.47,2.06,4.25,4.48,2.3,8.48
		c-5.95,2.15-10.51,6.12-11.14,13.37c2.54,3.9,6.29,6.12,10.15,8.04c15.41,7.64,31.24,9.03,47.34,2.36
		c4.93-2.04,9.77-4.44,14.32-7.22c6.65-4.06,8.31-8.76,6.55-16.3c-0.12-0.5-0.24-1-0.42-1.47c-8.43-21.98-19.13-42.64-39.07-56.38
		c-19.87-13.68-41.27-24.48-65.51-28.18c-10.9-1.66-21.9-1.83-32.71,0.89c-3.68,0.93-7.23,2.44-10.72,3.95
		c-4.8,2.08-6.63,6.04-6.41,11.13c0.23,5.64,2.93,10.25,6.21,14.54c2.01,2.63,4.34,5.02,6.61,7.43
		C1626.54,1552.21,1627.36,1554.89,1626.29,1558.55z"/>
	<path d="M1395.91,1305.16c2.06-0.78,4.12-1.55,5.38-2.03c23.67,7.12,46.8,13.44,69.49,21.08c24.04,8.09,48.73,13.16,73.48,18.19
		c16.99,3.46,33.86,7.45,51.16,9.36c22.66,2.51,45.35,2.24,68.07,1.62c9.56-0.26,18.71-2.44,27.51-5.93
		c9.64-3.83,16.27-11,18.35-21.08c1.88-9.11,0.72-18.32-3.8-26.8c-4.88-9.16-11.62-15.97-22.09-18.66
		c-9.63-2.47-19.09-5.64-28.72-8.1c-8.88-2.27-17.74-2.05-26.1,2.35c-5.76,3.03-8.26,7.02-8.96,14.28
		c5.35,6.21,12.6,8.98,20.64,9.87c3.92,0.43,7.46,1.46,10.86,3.98c0,1.78,0,3.69,0,5.48c-4.99,3.01-9.81,2.13-14.48,0.95
		c-6.99-1.76-13.44-4.91-19.35-8.99c-13.29-9.17-11.56-30.78,2.86-38.23c8.97-4.64,18.36-4.4,27.64-2.17
		c12.14,2.93,24.3,6.07,36.08,10.16c29.35,10.18,41.05,34.3,37.79,61.64c-1.42,11.91-8.26,21.31-19.77,26.42
		c-8.04,3.57-16.55,5.52-25.26,5.6c-22.96,0.22-45.98,1.27-68.86-1.53c-12.65-1.55-25.25-3.66-37.75-6.12
		c-21.78-4.27-43.52-8.79-65.18-13.63c-8.94-1.99-17.65-5.02-26.43-7.65c-14.41-4.32-28.86-8.53-43.18-13.13
		c-11.16-3.58-22.17-7.62-33.18-11.62c-2.3-0.84-4.34-2.39-6.5-3.61C1395.7,1306.3,1395.8,1305.73,1395.91,1305.16z"/>
	<path d="M673.21,236.83c2.99,2.71,7.12,3.89,7.19,9.17c-1.35,0.49-2.65,1.17-4.04,1.44c-20.6,4.03-40.42,10.78-60.28,17.35
		c-13.28,4.39-23.9,12.41-31.96,23.86c-2.2,3.13-4.82,5.96-6.95,9.14c-5.17,7.72-9.13,15.9-8.56,25.33
		c3.99,5.55,11.4,9.54,6.62,17.84c-7.25,4.45-14.37,3.65-21.71,0.04c3.45-1.28,6.9-2.56,10.43-3.86c-2.59-5.11-4.85-9.58-7.53-14.87
		c-17.23-11.41-36.49-20.58-57.39-26.13c-10.11-2.68-20.23-5.38-30.46-7.57c-5.95-1.28-12.1-1.79-18.19-2.21
		c-3.82-0.27-6.88-1.75-9.64-4.12c-1.68-1.44-2.48-3.22-0.82-5.81c6.54-1.06,13.36-0.25,20.13,0.53c13.18,1.5,26.32,3.44,39.5,4.95
		c9.69,1.1,19.39,0.91,28.95-1.25c5.25-1.19,10.41-2.72,13.65-7.41c1.48-4.61,0.45-8.89-1.46-12.79
		c-3.02-6.16-6.36-12.19-9.92-18.07c-3.31-5.47-6.1-11.1-8.14-17.28c1.11-1.37,2.02-2.49,2.98-3.68
		c7.87,3.25,9.04,10.88,12.41,17.31c6.68,4.62,14.65,6.54,22.58,8.35c18.46,4.23,37.1,3.52,55.58,0.62
		c15.86-2.49,31.56-6.04,47.33-9.11C666.54,238.02,669.56,237.5,673.21,236.83z M517.95,292.83c-0.16,0.51-0.32,1.02-0.48,1.53
		c6.81,3.23,13.64,6.41,20.42,9.7c6.76,3.27,12.47,8.55,20.27,11.35c3.8-23.21,18.76-38.8,34.67-54.42c-1.82-0.31-2.8-0.6-3.78-0.62
		c-12.85-0.2-25.4-2.15-37.6-6.29c-1.24-0.42-2.67-0.31-4.38-0.48c1.75,4.69,3.57,8.65,4.7,12.8c3.05,11.22-1.23,19.02-12.11,22.76
		C532.64,291.57,525.54,293.48,517.95,292.83z"/>
	<path d="M959.09,410.88c-2.07,0-4.25,0-6.07,0c-4.32-4.38-3.24-9.32-2.77-14.52c-1.66-0.66-3.2-1.43-4.83-1.89
		c-12-3.44-24.05-6.72-36.03-10.26c-4.19-1.24-7.42-4.17-10.53-7.19c0.68-4.52,3.75-5.15,7.2-5.63c9.6-1.32,19.17-2.79,28.75-4.25
		c1.24-0.19,2.44-0.6,4.25-1.06c-0.86-1.83-1.25-3.62-2.32-4.79c-4.82-5.25-9.45-10.78-14.87-15.34
		c-7.59-6.39-15.86-11.98-23.78-17.98c-3.82-2.89-7.51-5.95-11.77-9.34c1.66-1.86,2.9-3.24,4.46-5c3.31,1.54,6.35,2.77,9.2,4.33
		c8.59,4.71,17.79,7.62,27.34,9.54c5.49,1.1,7.03,0.85,12.8-1.64c7.17-10.84,13.46-22.43,17.82-35c2.62,0,4.56,0,6.63,0
		c1.89,2.7,3.63,5.19,4.93,7.06c1.36,4.19-0.08,7.24-1.17,10.37c-3.49,10.05-0.83,16.3,8.67,21.45
		c14.06,7.62,29.18,11.94,44.72,15.15c9.98,2.06,19.93,4.28,29.88,6.52c2.97,0.67,5.87,1.68,8.81,2.53c2.31,2.73,5.42,4.82,5.32,9
		c-0.8,0.36-1.46,0.94-2.12,0.92c-10.03-0.18-19.72,1.96-29.44,4.05c-8.71,1.88-17.53,3.29-26.3,4.92
		c-8.34,1.55-16.25,4.33-23.78,8.22c-11.6,5.99-20.17,14.58-23.72,27.53C960.18,409.29,959.65,409.9,959.09,410.88z M1027.59,357.18
		c-0.01-0.42-0.03-0.84-0.04-1.25c-1.62-0.51-3.22-1.1-4.87-1.5c-4.71-1.13-9.51-1.95-14.16-3.3
		c-18.27-5.33-35.75-12.18-49.19-26.51c-0.29-0.3-0.91-0.29-2.05-0.62c-1.34,2.17-2.91,4.44-4.19,6.86
		c-3.1,5.83-8.2,8.17-14.45,8.38c-2.79,0.09-5.6-0.31-8.4-0.43c-1.31-0.06-2.63-0.01-5.25-0.01c2.75,2.54,4.48,3.99,6.04,5.6
		c5.15,5.3,10.38,10.54,15.29,16.05c1.82,2.04,3.21,4.65,4.2,7.22c1.79,4.69,0.15,8.01-4.61,9.54c-2.65,0.85-5.49,1.08-8.22,1.71
		c-1.62,0.37-3.18,0.96-5.9,1.79c8.27,2.83,15.33,5.25,22.88,7.83c0.3-0.28,1.13-0.88,1.72-1.66c5.38-7.06,12.42-11.94,20.22-16
		c8.46-4.41,17.27-7.55,26.68-9.06c6.04-0.97,12.08-1.98,18.11-3.06C1023.49,358.36,1025.53,357.71,1027.59,357.18z"/>
	<path d="M1461.83,1647c-4.31,0.78-7.67,0.67-11.2-0.24c-20.66-5.36-40-13.93-58.35-24.59c-24.93-14.48-49.57-29.47-74.31-44.28
		c-15.98-9.56-32.19-18.78-47.81-28.9c-15.41-9.99-30.4-20.65-45.23-31.49c-25.16-18.38-50.55-36.37-77.66-51.81
		c-4.87-2.78-9.53-5.94-14.21-9.04c-4.47-2.97-8.87-5.98-14.23-7.27c-1.34-0.32-2.48-1.47-3.68-2.22c2.81-5.69,8.77-8.27,14.66-6.08
		c3.79,1.41,7.39,3.47,10.83,5.63c35.93,22.47,71.24,45.81,104.95,71.57c28.43,21.73,59.26,39.91,89.94,58.23
		c21.47,12.82,43.03,25.5,64.75,37.89c15.09,8.61,30.98,15.59,47.32,21.53C1454.62,1638.47,1454.61,1638.5,1461.83,1647z"/>
	<path d="M853.23,1263.81c-2.39,4.75-6.21,8.27-10.87,10.38c-11.6,5.25-23.34,10.22-35.18,14.9c-4.85,1.92-7.65,1.54-14.41,0.53
		c-0.99-3.09,0.83-4.72,3.28-5.83c5.57-2.53,11.23-4.87,16.79-7.44c5.55-2.56,11.13-5.11,16.48-8.06c2.56-1.41,4.63-3.74,6.6-5.39
		c-0.53-5.16-3.28-7.87-6.99-9.21c-6.2-2.24-12.49-4.57-18.95-5.71c-11.8-2.08-23.72-3.5-35.63-4.87
		c-21.54-2.48-43.09-4.89-64.67-6.99c-11.17-1.09-22.4-1.66-33.62-2.09c-21.93-0.83-43.87-1.42-65.81-2.05
		c-28.34-0.81-56.57-2.88-84.62-7.11c-5.54-0.84-11.04-2.04-16.47-3.41c-2.55-0.64-5.61-0.88-7.14-4.22
		c4.57-3.66,9.66-3.92,15.08-3.1c8.31,1.25,16.62,2.7,24.98,3.44c18.3,1.61,36.61,3.23,54.95,4.11c27.01,1.3,54.07,1.74,81.09,3
		c16.05,0.75,32.07,2.18,48.08,3.65c17.53,1.6,35.05,3.38,52.52,5.47c14.94,1.79,29.88,3.77,44.69,6.38
		c6.96,1.23,13.78,3.72,20.37,6.39C851.24,1249.62,854.63,1255.51,853.23,1263.81z"/>
	<path d="M1543.39,350.49c13.81,0.67,25.98,8.02,39.59,8.52c11.57-7.95,15.53-21.97,24.86-31.48c3.62-0.23,6.26,1.43,8.82,2.99
		c4.21,2.57,6.51,6.33,6.25,11.46c-0.21,4.08-0.38,8.16-0.45,12.24c-0.07,4.11,0.34,8.16,3.13,12.42c2.29,0.79,5.13,1.84,8.02,2.76
		c11.65,3.73,23.33,7.38,34.97,11.16c2.87,0.93,5.92,1.8,7.47,5.13c-0.99,2.82-3.88,2.9-6.07,3.81
		c-10.12,4.23-20.33,8.22-30.42,12.51c-2.71,1.15-5.11,3.04-7.68,4.6c-1.11,14.89,2.5,28.32,7.56,41.69
		c-6.09,3.06-11.47,1.75-16.7-0.11c-5.95-2.11-10.23-6.61-14.46-11.05c-2.98-3.13-5.81-6.4-8.85-9.78
		c-9.12-0.18-18.28,2.13-27.69-0.9c0.23-1.49,0.02-2.98,0.67-3.77c1.06-1.3,2.57-2.36,4.1-3.11c1.08-0.53,2.5-0.38,3.76-0.53
		c5.31-0.63,10.62-1.25,17.13-2.02c1.26,0.45,3.64,1.29,5.89,2.08c6.87,6.98,12.71,14.75,21.69,21.5
		c-1.24-7.43-2.39-13.3-3.16-19.21c-0.59-4.54-0.8-9.13-0.98-13.7c-0.22-5.7,2.24-9.74,7.69-11.93c7.34-2.94,14.61-6.04,21.91-9.09
		c1.36-0.57,2.7-1.19,4.93-2.17c-2.12-1.09-3.3-1.93-4.61-2.34c-9.49-2.97-18.94-6.1-28.54-8.68c-4.83-1.29-7.65-3.96-8.52-8.65
		c-0.78-4.23-1.3-8.52-1.69-12.81c-0.25-2.74-0.05-5.53-0.05-8.96c-3.68,1.91-4.66,5.24-6.54,7.75c-2.14,2.86-3.95,5.98-6.25,8.7
		c-2.12,2.52-4.69,4.66-7.17,7.07c-12.06,2.09-23-3.04-35.42-5.52c1.08,1.93,1.55,3.2,2.38,4.16c6.31,7.36,12.73,14.63,19.03,22
		c1.78,2.09,3.26,4.43,4.78,6.52c-1.98,6.26-6.62,9.64-10.69,13.37c-3.93,3.59-8.26,6.74-12.9,10.47c2.46,1.12,4.48,2.04,7.75,3.53
		c-7.96,2.48-14.23,1.02-20.81-0.54c0-2.2,0-3.9,0-5.68c8.65-6.45,17.97-11.93,24.6-21.16c-0.97-1.5-1.75-3.06-2.85-4.34
		c-6.46-7.57-13.14-14.95-19.46-22.64C1544.9,362.47,1540.81,358.14,1543.39,350.49z"/>
	<path d="M832.72,1356.23c1.21-1.77,1.77-3.4,2.88-4.06c2.83-1.67,5.84-3.15,8.93-4.27c10.81-3.93,21.31-8.5,31.28-14.29
		c4.5-2.61,8.29-5.95,11.23-10.19c0.97-1.4,1.48-3.11,2.43-5.17c-1.76-0.63-3.13-1.6-4.43-1.5c-7.35,0.54-14.8,0.78-22.01,2.15
		c-34.07,6.45-68.04,13.46-102.13,19.82c-27.83,5.19-55.73,10.07-84.04,11.96c-14.5,0.97-29.01,1.99-43.53,2.19
		c-17.08,0.24-34.17-0.35-51.26-0.62c-2.21-0.03-4.62,0.3-6.3-2.41c3.64-3.29,7.8-4.76,12.49-4.92c9.44-0.32,18.87-0.89,28.31-0.84
		c38.89,0.21,77.47-2.97,115.74-9.92c24.09-4.37,48.14-8.93,72.2-13.42c23.06-4.3,46.09-8.78,69.19-12.84
		c7.25-1.27,14.69-1.58,22.06-2.04c2.44-0.15,4.93,0.6,7.21,0.92c3.65,6.19,3.35,11.73-0.59,16.87c-2.3,3.01-4.8,6.07-7.8,8.32
		c-15.68,11.75-33.2,19.87-51.95,25.42C839.61,1358.3,836.66,1358.19,832.72,1356.23z"/>
	<path d="M1516.14,1000.32c0.05,3.43-2.03,4.25-4.26,5.06c-10.31,3.72-20.57,7.58-30.91,11.22c-33.43,11.78-67.38,22.27-99.65,37.05
		c-34.55,15.82-68.9,32.12-102.97,48.94c-35.22,17.39-70.05,35.57-104.93,53.62c-7.45,3.86-14.56,8.46-21.54,13.15
		c-5.94,3.98-11.22,8.8-15.05,15.38c0.8,1.82,1.59,3.63,2.47,5.65c-2.61,3.35-6.61,3.27-10.28,3.81c-4.22,0.62-7.56-0.65-9.29-5.88
		c1.85-5.77,4.56-11.64,9.56-16.33c6.59-6.18,14.2-10.86,22.16-14.91c26.37-13.41,52.73-26.86,79.34-39.79
		c46.11-22.41,92.36-44.54,138.64-66.6c25.12-11.97,51.16-21.74,77.38-31c17.56-6.2,35.09-12.44,52.61-18.73
		C1504.8,999.03,1510.14,997.76,1516.14,1000.32z"/>
	<path d="M976.02,1475.1c1.62-3.77,2.92-7.61,4.83-11.12c10.61-19.58,23.22-37.83,37.08-55.23c17.03-21.38,39.23-35.39,64.47-45.06
		c21.74-8.33,43.99-15.09,66.93-18.84c31-5.07,62.22-8.94,93.74-6.73c22.17,1.55,43.12,7.79,62.56,18.74
		c6.87,3.87,14.24,7.1,19.23,13.6c2.13,2.78,4.01,5.75,5.93,8.52c-1.04,3.02-1.86,5.38-2.82,8.18c-2.72-0.23-5.18-0.44-6.97-0.59
		c-1.07-0.69-1.6-0.88-1.91-1.25c-13.5-15.64-31.31-24.17-50.41-30.54c-22.63-7.55-45.94-9.39-69.57-7.67
		c-37.55,2.74-74.5,8.71-110.02,21.77c-12.01,4.41-23.6,9.78-34.28,16.83c-13.34,8.8-24.48,20.02-33.99,32.81
		c-12.79,17.21-25.44,34.51-35.81,53.35C982.47,1476.48,981.82,1476.66,976.02,1475.1z"/>
	<path d="M929.21,1259.19c0.24-2.53,0.63-5.02,3.82-6.55c23.65,12.88,37.62,32.64,40.77,59.69c0.91,7.83,0.99,15.8,0.76,23.69
		c-0.2,6.95-2.86,13.45-5.67,19.76c-5.74,12.92-13.72,24.49-22.15,35.72c-20.58,27.4-44.85,50.93-74.22,68.83
		c-9.58,5.84-19.58,11.01-29.51,16.24c-3.82,2.01-7.94,3.47-12.01,4.96c-3.12,1.14-6.35,1.45-9.67,0.06
		c0.13-0.98-0.04-2.05,0.37-2.37c3-2.31,5.83-5.27,9.26-6.54c14.04-5.18,26.36-13.39,38.95-21.16
		c19.13-11.81,34.7-27.62,49.21-44.52c10.32-12.03,19.17-25.16,27.26-38.79c5.7-9.59,8.93-20.01,10.34-31.02
		c2.76-21.57-0.86-41.72-13.78-59.66C938.64,1271.56,934.11,1265.73,929.21,1259.19z"/>
	<path d="M897.33,1247.56c1.09-1.17,1.98-2.65,3.3-3.45c8.47-5.14,17.43-9.57,25.49-15.27c19.84-14.05,30.82-33.41,33.03-57.76
		c2.78-30.66-6.13-57.98-23.57-82.77c-6.3-8.95-13.55-17.23-20.38-25.79c-6.18-7.76-12.39-15.49-18.74-23.42
		c2.85-2.93,5.54-2.79,8.01-1.28c3.68,2.25,7.48,4.51,10.6,7.44c15.09,14.19,28.87,29.54,40.15,47
		c8.53,13.21,14.19,27.63,17.69,42.92c1.31,5.71,2.43,11.47,3.6,17.21c0.2,0.99,0.35,2.02,0.36,3.03
		c0.19,35.35-13.86,63.21-43.82,82.48c-9.05,5.82-18.75,10.4-29.7,11.46c-1.7,0.17-3.44,0.02-5.15,0.02
		C897.89,1248.78,897.61,1248.17,897.33,1247.56z"/>
	<path d="M865.45,1168.65c-3.2-0.52-7.39-1.2-11.9-1.94c-2.68-10.72-10.21-17.72-17.52-24.78c-14.13-13.64-28.11-27.45-42.73-40.54
		c-32.12-28.76-65.65-55.86-99.35-82.75c-20.39-16.27-38.89-34.54-56.74-53.5c-4.18-4.44-7.24-9.63-11.06-15.75
		c2.17,0.23,3.53-0.05,4.22,0.51c8.34,6.7,17.19,12.92,24.74,20.43c24.49,24.33,51.02,46.2,78.22,67.37
		c19.32,15.04,38.14,30.7,57.28,45.97c22.16,17.68,42.53,37.36,63.39,56.48c3.93,3.6,7.62,7.58,10.81,11.84
		c2.07,2.76,3.3,6.26,4.43,9.59C870.12,1164.19,869.24,1166.62,865.45,1168.65z"/>
	<path d="M629.65,299.09c2.75,2.75,5.14,4.62,6.88,6.96c6.69,9.01,13.44,17.99,19.7,27.3c35.79,53.2,74.55,104.16,115.12,153.78
		c23.27,28.45,46.17,57.19,69.42,85.65c21.15,25.89,42.82,51.37,63.76,77.43c18.05,22.47,35.41,45.51,53.05,68.31
		c1.66,2.15,3.57,4.22,4.17,8.12c-1.96-0.82-3.5-1.04-4.4-1.92c-2.92-2.83-5.79-5.74-8.36-8.89
		c-30.79-37.79-61.56-75.59-92.26-113.45c-27-33.31-53.92-66.68-80.84-100.05c-16.35-20.26-32.88-40.37-48.9-60.88
		c-33.47-42.86-64.76-87.3-94.64-132.74c-1.39-2.12-2.49-4.43-3.64-6.7C628.58,301.72,628.99,301.13,629.65,299.09z"/>
	<path d="M1551.98,1158.31c-5.36,3.52-11.12,4.32-16.79,5.16c-8.07,1.19-16.2,2.05-24.33,2.74c-30.28,2.58-60.2,7.67-90.07,13.04
		c-26.6,4.78-53.16,9.77-79.78,14.45c-26.37,4.64-52.75,9.24-79.2,13.43c-27.2,4.32-54.49,8.19-82.03,9.44
		c-9.65,0.44-19.36-0.42-29.04-0.83c-3.32-0.14-6.57-0.87-9.68-4.02c0.47-1.71,1.03-3.74,1.52-5.52c3.94-1.13,7.07-1.27,10.45-0.53
		c4.69,1.02,9.51,1.78,14.3,1.95c18.92,0.68,37.68-1.56,56.48-3.33c38.14-3.6,75.74-10.62,113.39-17.31
		c36.9-6.55,73.7-13.63,110.59-20.17c24.11-4.28,48.38-7.58,72.79-9.66c5.84-0.5,11.67-1.23,17.52-1.59
		C1542.87,1155.26,1547.45,1156.37,1551.98,1158.31z"/>
	<path d="M1536.61,447.48c-0.59,1.21-0.89,2.73-1.82,3.58c-5.46,4.98-11.06,9.8-16.62,14.67c-13.61,11.94-27.17,23.93-40.83,35.81
		c-9.05,7.87-18.56,15.23-27.3,23.41c-19.56,18.3-38.76,36.97-58.13,55.47c-4.98,4.76-10.08,9.38-15.08,14.12
		c-13.14,12.46-26.44,24.75-39.26,37.54c-4.42,4.41-7.58,10.08-11.97,16.07c-1.34,0-3.74,0-6.09,0c-3.2-4.55-0.82-8.68,0.9-12.4
		c1.56-3.39,4.04-6.54,6.71-9.19c14.12-14.01,28.44-27.82,42.67-41.72c6.02-5.88,11.96-11.84,18-17.71
		c27.64-26.89,56.89-51.94,86.85-76.18c14.08-11.39,28.13-22.83,42.09-34.37c5.59-4.62,12.05-7.43,18.58-10.17
		C1535.74,446.77,1536.18,447.13,1536.61,447.48z"/>
	<path d="M580.28,745.23c2.28,0.24,4.26,0.45,6.28,0.66c2.39-3.39,4.7-6.64,7.03-9.94c4.66,1.31,7.72,4.07,10.61,6.86
		c8.08,7.78,15.93,15.8,23.96,23.64c19.16,18.72,38.32,37.44,57.56,56.06c21.26,20.58,42.57,41.1,63.94,61.56
		c13.08,12.52,26.37,24.83,39.46,37.35c7,6.7,13.62,13.79,20.67,20.43c8.16,7.69,16.63,15.07,24.92,22.62
		c1.5,1.37,3.04,2.77,4.19,4.42c0.58,0.84,0.34,2.25,0.55,3.99c-8-0.37-14.27-3.33-19.65-8.16c-7.96-7.16-15.94-14.33-23.54-21.87
		c-12.5-12.39-24.52-25.26-37.07-37.6c-30.56-30.04-61.28-59.91-91.99-89.8c-15.53-15.12-31.26-30.05-46.72-45.25
		c-6.18-6.08-11.85-12.66-17.78-18.99c-1.37-1.46-2.85-2.82-4.23-4.19c-3.54,2.57-6.46,5.59-10.02,7.04
		c-3.62,1.48-7.87,1.41-11.82,2.01c-1.07-2.84-1.92-5.09-2.85-7.54C575.75,747.54,577.76,746.51,580.28,745.23z"/>
	<path d="M641.61,633.53c-5.02,5.33-10.12,1.48-15.8,1.33c1.05,1.72,1.58,3,2.46,3.96c10.91,12,23.67,21.72,37.38,30.27
		c1.72,1.08,3.53,2.13,4.96,3.54c0.94,0.94,1.27,2.5,2.11,4.29c-6.49,0.69-11.64-1.18-16.52-3.98
		c-17.46-9.99-32.8-22.49-45.46-38.22c-3.83-4.76-8.24-9.04-12.19-13.7c-4.12-4.85-8.21-9.76-11.94-14.9
		c-4.79-6.6-9.23-13.45-13.76-20.23c-0.68-1.02-1.07-2.24-1.76-3.71c6.64-5.31,10.68,1.38,16.02,2.92c1.58-1.25,3.34-2.66,5.75-4.57
		c2,0.6,4.45,1.07,6.69,2.04c13.29,5.74,23.4,15.35,31.78,26.86c3.14,4.31,5.76,9.02,8.32,13.71
		C641.34,626.29,642.2,629.79,641.61,633.53z"/>
	<path d="M998.03,1066.5c-1.69-4.6,0.3-7.26,2.64-10.3c7.11-0.07,13.21-3.84,19.38-7.31c42.33-23.78,76.85-56.07,104.42-95.94
		c11.91-17.22,23.26-34.74,31.97-53.87c2.95-6.48,6.43-12.72,9.77-19.01c1.14-2.14,1.95-4.66,5.24-6.19
		c0.14,2.47,0.65,4.43,0.28,6.21c-1.78,8.45-3.21,16.97-7.2,24.84c-10.05,19.82-21.44,38.78-33.79,57.27
		c-8.82,13.22-18.94,25.3-29.5,37.02c-6.8,7.55-14.56,14.28-22.14,21.1c-17.7,15.92-36.97,29.62-58.13,40.66
		C1013.76,1064.71,1006.27,1066.1,998.03,1066.5z"/>
	<path d="M448.43,589.85c-7.92-5.04-16.3-9.18-23.18-15.54c-12.55-11.6-24.95-23.36-37.59-34.85
		c-19.44-17.67-39.13-35.06-58.52-52.78c-15.62-14.28-31.02-28.81-46.41-43.34c-19.84-18.73-39.57-37.57-59.33-56.39
		c-1.07-1.02-1.91-2.26-2.69-3.21c0.68-2.76,2.48-3.31,4.19-2.45c3.15,1.58,6.44,3.21,9.01,5.55c16.02,14.6,32.19,29.06,47.69,44.2
		c27.93,27.28,57.19,53.1,86.12,79.29c17.77,16.09,35.01,32.76,52.46,49.2c6.87,6.47,13.6,13.09,20.54,19.48
		C444.07,582.09,446.68,585.57,448.43,589.85z"/>
	<path d="M1165.06,637.65c-4.46-0.64-8.49-1.85-11.47-5.24c-2.18-2.48-4.44-5.02-6.01-7.89c-14.68-26.74-33.43-50.66-51.83-74.8
		c-18.12-23.77-34.68-48.59-50.58-73.85c-9.78-15.53-18.74-31.58-28.05-47.41c-1.24-2.11-3.2-4.18-0.61-7.33
		c3.63,2.83,6.11,6.54,8.7,10.09c14.61,19.97,27.81,40.88,41.32,61.59c15.63,23.95,32.71,46.85,50.13,69.52
		c15.08,19.64,29.91,39.45,42.24,60.99c1.38,2.42,3.32,4.51,4.87,6.85C1165.16,632.29,1166.4,634.52,1165.06,637.65z"/>
	<path d="M1483.97,704.66c-12.7,12.52-25.27,25.16-38.14,37.51c-13.98,13.42-28.19,26.61-42.38,39.82
		c-17.36,16.16-35.01,32.02-52.13,48.43c-16.2,15.52-31.83,31.65-47.83,47.38c-7.27,7.15-14.84,14-22.28,20.99
		c-3.33,3.13-7.48,4.29-11.86,4.6c-1,0.07-2.08-0.98-3.21-1.56c0.54-3.46,2.81-5.15,4.86-7.02c8.68-7.89,17.36-15.79,25.99-23.74
		c5.25-4.84,10.57-9.63,15.57-14.72c16.46-16.76,34.06-32.27,51.65-47.82c12.23-10.81,23.84-22.31,35.91-33.3
		c17.34-15.79,34.78-31.47,52.31-47.05c8.19-7.28,16.67-14.23,25.08-21.25c1.65-1.38,3.61-2.39,5.43-3.56
		C1483.29,703.81,1483.63,704.23,1483.97,704.66z"/>
	<path d="M1768.44,818.95c-0.98,0.95-1.82,2.16-2.98,2.82c-24.44,13.86-47.44,30.01-71.26,44.85
		c-16.86,10.51-34.41,20.07-52.23,28.88c-28.89,14.29-56.37,30.9-83.7,47.87c-12.78,7.93-26.09,15-39.2,22.39
		c-2.15,1.21-4.4,2.77-7.76,0.72c1.01-1.39,1.7-3.01,2.92-3.88c4.36-3.11,8.93-5.93,13.37-8.92c30.27-20.42,61.43-39.34,93.79-56.3
		c18.53-9.71,37.14-19.3,55.39-29.52c11.12-6.23,21.43-13.87,32.43-20.31c12.31-7.2,24.95-13.84,37.52-20.59
		c5.39-2.89,10.92-5.52,16.47-8.11c1.41-0.66,3.12-0.69,4.69-1.01C1768.07,818.21,1768.26,818.58,1768.44,818.95z"/>
	<path d="M808.9,777.72c3.43,1.29,5.89,3.47,7.76,6.2c5.05,7.34,10.13,14.66,14.89,22.18c13.91,21.96,26.48,44.89,41.84,65.78
		c15.76,21.44,28.05,44.95,43.26,66.65c3.79,5.41,7.41,11.12,5.48,18.34c-2.93,3.51-5.87,1.95-7.74,0.89
		c-11.5-18.8-22.31-36.67-33.32-54.41c-15.47-24.9-31.23-49.61-46.59-74.58c-8.15-13.24-15.77-26.8-23.53-40.27
		C809.19,785.46,807.09,782.35,808.9,777.72z"/>
	<path d="M323.61,1744.12c5.83-4.52,11.97-6.19,14.27-12.28c13.62-6.06,27.12-12.09,40.64-18.07
		c42.81-18.92,83.72-41.18,121.47-69.03c4.92-3.63,10.07-6.98,15.32-10.1c4.31-2.56,6-2.02,10.62,2.94
		c-1.24,0.73-2.59,1.43-3.83,2.28c-20.18,13.85-39.73,28.61-60.87,41.04c-31.92,18.76-65.03,35.16-99.02,49.8
		c-9.13,3.93-18.17,8.08-27.28,12.05c-2.33,1.02-4.75,1.86-7.2,2.54C326.98,1745.48,326.01,1744.83,323.61,1744.12z"/>
	<path d="M481.51,503.71c-3.01-0.75-4.85-0.77-6.13-1.62c-3.39-2.24-6.77-4.59-9.73-7.35c-9.41-8.73-17.18-18.79-23.15-30.18
		c-2.97-5.65-6.57-10.71-10.82-15.57c-4.79-5.49-8.38-12.09-12.13-18.41c-1.22-2.06-1.31-4.78-1.87-6.98
		c3.82-5.17,8.42-8.06,14.8-9.54c1.8,0.88,4.26,1.68,6.25,3.13c7.65,5.61,14.75,11.82,19.15,20.46c3.12,6.12,6.11,12.32,8.95,18.57
		c1.14,2.51,2.25,5.22,0.62,8.04c-3.56,3.71-7.81-0.71-12.29,1.19c2.75,4.2,5.15,8.38,8.05,12.17c3.71,4.85,7.72,9.49,11.81,14.02
		C477.82,494.72,479.74,498.14,481.51,503.71z M454.05,453.38c-2.88-10.78-7.52-20.01-16.63-26.51c-0.37-0.26-1.31,0.29-2.39,0.57
		c2.11,6.61,7.18,10.48,11.91,14.78c0.32,2.73,0.64,5.5,0.95,8.14C449.24,452.4,450.56,454.22,454.05,453.38z"/>
	<path d="M596.32,1523.6c7.39-3.68,14.55-7.98,22.23-10.93c31.4-12.07,62.57-24.62,92.85-39.3c14.22-6.9,28.38-13.92,42.59-20.83
		c2.51-1.22,5.13-2.24,7.76-3.19c3.04-1.1,5.43-0.14,7.48,2.96c-1.25,1.27-2.26,2.75-3.65,3.62c-3.88,2.44-7.83,4.8-11.91,6.89
		c-43.61,22.35-88.2,42.39-134.97,57.3c-5.83,1.86-11.69,3.59-17.53,5.42C599.36,1526.11,597.69,1526.43,596.32,1523.6z"/>
	<path d="M842.36,1008.16c-3.77,1.27-5.68-0.79-7.83-1.97c-10.59-5.8-19.7-13.58-28.69-21.53c-29.64-26.21-57.53-54.22-84.73-82.93
		c-2.62-2.77-4.97-5.8-7.26-8.85c-0.59-0.78-0.47-2.09-0.94-4.52c2.16,1.5,3.17,2.13,4.1,2.86c15.31,11.93,29.48,25.11,43.55,38.46
		c24.04,22.83,48.5,45.21,72.82,67.74C836.73,1000.53,840.15,1003.53,842.36,1008.16z"/>
	<path d="M615.75,1164.8c0,2.42,0,4.39,0,6.34c-3.87,2.62-7.58,1.6-11.18,0.3c-9.12-3.28-18.22-6.6-27.28-10.06
		c-22.16-8.47-44.32-16.92-66.39-25.61c-6.15-2.42-12.02-5.57-17.93-8.55c-1.65-0.84-3.82-1.68-3.36-4.43
		c8.76-0.51,17.01,1.15,25.19,4.26c29.56,11.23,59.24,22.16,88.87,33.2C607.7,1161.75,611.72,1163.28,615.75,1164.8z"/>
	<path d="M379.5,876.37c-3.23,1.28-5.37-0.52-7.29-1.9c-6.61-4.73-13.45-9.27-19.46-14.71c-7.15-6.47-13.85-13.52-20.17-20.81
		c-9.17-10.59-12.57-23.67-14.43-37.21c-1.2-8.73-1.76-7.19,1.3-15.95c1.95-1.81,3.74-4.43,7.84-4.1
		c1.72,6.87,3.45,13.71,5.13,20.57c1.75,7.15,3.18,14.4,5.25,21.46c2.18,7.44,6.47,13.86,11.6,19.57
		c5.27,5.86,11.01,11.29,16.49,16.96c4.24,4.38,8.42,8.82,12.55,13.31C378.9,874.21,379.04,875.27,379.5,876.37z"/>
	<path d="M1029.93,800.29c1.81,0,3.79,0,5.66,0c0.67,0.76,1.3,1.26,1.64,1.91c2.62,4.97,5.13,9.99,7.77,14.94
		c6.91,12.95,15.21,24.9,27.03,33.82c7.53,5.69,15.71,10.44,25.18,12.45c3.31,0.7,6.26,2.18,8.17,5.88
		c-0.63,1.25-1.37,2.72-2.34,4.64c-2.21-0.37-4.2-0.53-6.08-1.06c-11.65-3.28-22.44-8.54-32.48-15.19
		c-16.97-11.25-28.01-27.3-35.74-45.8C1026.66,806.92,1027.09,805.11,1029.93,800.29z"/>
	<path d="M1558.11,1668.82c3.99-0.44,6.96-0.77,10.26-1.14c8.1,5.42,16.33,10.95,24.58,16.45c1.7,1.13,3.35,2.45,5.22,3.17
		c9.61,3.7,17.97,9.62,26.77,14.76c6.17,3.61,12.36,7.2,18.74,10.4c7.59,3.81,13.29,9.16,16.3,17.93c-1.32-0.07-2.58,0.21-3.45-0.25
		c-9.24-4.89-18.52-9.71-27.58-14.92c-8.84-5.08-17.39-10.65-26.13-15.89c-8.97-5.37-18.02-10.62-27.05-15.89
		c-2.86-1.67-5.86-3.12-8.68-4.85C1563.58,1676.46,1560.57,1673.78,1558.11,1668.82z"/>
	<path d="M1365.97,848.78c4.65-6.17,10.96-9.71,16.67-13.86c24.71-17.99,49.51-35.85,74.36-53.66c8.48-6.08,17.17-11.88,25.79-17.77
		c0.58-0.4,1.38-0.47,2.1-0.71c1.92,2.19-0.02,3.43-1.16,4.44c-4.2,3.71-8.55,7.25-12.88,10.81c-26.38,21.7-53.08,42.96-81.78,61.57
		c-3.41,2.21-6.57,4.83-9.79,7.33c-3.05,2.37-6.3,4.29-10.59,5C1367.87,850.97,1366.97,849.94,1365.97,848.78z"/>
	<path d="M1596.36,937.24c1.07,2.98-0.89,3.57-2.4,4.35c-12.68,6.53-25.23,13.36-38.12,19.46c-17.28,8.17-34.77,15.89-52.29,23.54
		c-5.81,2.54-11.97,4.3-18,6.34c-1.93,0.65-3.93,0.92-6.05-1.07c0.75-1.09,1.19-2.37,2.08-2.93c4.1-2.55,8.16-5.26,12.53-7.25
		c16.24-7.37,32.63-14.43,48.92-21.71c9.31-4.16,18.61-8.34,27.76-12.84C1578.81,941.18,1586.85,937.56,1596.36,937.24z"/>
	<path d="M1320.29,1468.04c0.97-0.9,2.58-2.41,4.01-3.74c6.71,2.07,10.3,5.87,11.29,11.44c0.88,4.94,1.39,10.13,0.89,15.09
		c-0.97,9.68-4.23,18.84-8.73,27.44c-1.61,3.08-4.05,5.73-5.65,7.94c-8.39,2.42-8.76,2.45-14.48,1.33c0.5-5.31,5.28-8.45,6.74-13.22
		c1.49-4.85,3.46-9.57,4.67-14.48c1.15-4.66,2-9.48,2.21-14.26C1321.44,1480.54,1320.73,1475.47,1320.29,1468.04z"/>
	<path d="M451.4,1571.26c-0.52,3.89-3.74,4.87-6.4,6.04c-11.64,5.13-23.24,10.38-35.1,14.97c-17.09,6.61-34.39,12.66-51.58,19.01
		c-2.86,1.06-5.55,2.56-8.4,3.61c-1.02,0.38-2.3,0.06-4.3,0.06c1.91-3.11,3.44-5.59,5.32-8.64c16.44-6.15,33.44-12.25,50.23-18.87
		c13.48-5.32,26.75-11.19,40.04-16.99C444.93,1568.83,448.28,1567.56,451.4,1571.26z"/>
	<path d="M1411.96,1582.57c6.03-3.99,11.1-3.71,16.11-1.36c8.07,3.78,15.88,8.13,24.05,11.65c9.25,3.99,16.96,10.2,24.98,16.01
		c7.85,5.69,14.79,12.37,21.62,19.18c0.45,0.45,0.5,1.3,0.75,2.02c-2.85,1.49-4.44-0.77-6.21-1.89
		c-12.92-8.14-25.54-16.78-39.45-23.25c-9-4.19-17.98-8.41-26.92-12.72c-3.44-1.66-6.78-3.52-10.06-5.48
		C1415.4,1585.88,1414.25,1584.56,1411.96,1582.57z"/>
	<path d="M1083.84,785.87c-3.93-1.35-7.46-2.56-10.37-3.56c-2.28-4.13-1.07-7.26,0.3-10.28c5.7-12.6,15.53-20.44,28.48-24.71
		c4.49,0.99,9.54,0.86,10.32,7.55c-3.86,2.55-8.12,4.79-11.66,7.87c-3.42,2.97-6.14,6.77-9.08,10.27
		C1088.78,776.66,1088.6,782.14,1083.84,785.87z"/>
	<path d="M817.76,724.94c-3.23,0.94-5.1-0.46-6.58-2.23c-1.62-1.93-3.08-4.06-4.3-6.27c-10.59-19.22-19.26-39.31-26.91-59.84
		c-0.32-0.85-0.19-1.87-0.34-3.58c5.48,1.75,8.69,5.04,10.97,9.29c2.89,5.38,5.63,10.85,8.29,16.34
		c5.77,11.91,11.52,23.84,17.13,35.83C817.48,717.62,819.33,720.86,817.76,724.94z"/>
	<path d="M1065.2,1546.97c3.16-0.38,5.58-0.67,7.49-0.9c2.98,2.31,2.28,5.08,2.68,7.5c0.58,3.5,0.77,7.08,1.57,10.52
		c1.85,7.95,6.11,13.82,14.52,15.92c4.11,1.02,7.4,3.33,9.28,7.25c0.4,0.83,0.33,1.89,0.52,3.11c-1.24,0.27-2.22,0.74-3.12,0.62
		c-4.28-0.53-8.52-1.28-12.8-1.83c-10.05-1.28-15.74-7.42-18.67-16.64C1064.1,1564.43,1063.45,1556.22,1065.2,1546.97z"/>
	<path d="M537.2,881.92c1.49-0.82,2.33-1.28,3.49-1.93c5.6,4.19,10.89,8.73,14.25,14.65c5.13,9.04,9.57,18.49,13.83,27.99
		c2.09,4.66,2.87,9.78-0.59,14.36c-5.41,0.78-8.03-0.11-8.84-4.45c-3.14-16.92-12.84-30.83-20.32-45.77
		C538.36,885.44,537.97,883.98,537.2,881.92z"/>
	<path d="M1494.58,910.98c2.63,1.97,3.06,4.46,1.79,6.92c-9.69,18.8-23.22,32.83-45.37,35.86c-2.15,0.29-4.38-0.03-7.77-0.09
		c1.66-2.96,2.7-4.83,3.83-6.85c12.2-1.33,20.61-8.67,28.31-17.04c3.96-4.31,7.66-8.87,11.34-13.42
		C1488.85,913.71,1491.25,911.66,1494.58,910.98z"/>
	<path d="M1682.33,1744.17c11.18,1.69,20.17,4.29,28.41,9.79c6.09,4.07,12.93,7.03,19.53,10.3c4.73,2.34,8.64,5.3,10.22,11.12
		c-0.37,0.75-0.89,1.82-1.57,3.2c-2.43-0.43-4.8-0.42-6.81-1.26c-17.21-7.23-33.13-16.62-47.16-29.03
		C1684.1,1747.52,1683.66,1746.3,1682.33,1744.17z"/>
	<path d="M1473.55,844.79c12.6-1.54,22.79,3.54,31.46,12.2c3.75,3.74,7.14,7.9,6.08,14.61c-2.78,0.72-5.57,1.45-8.65,2.25
		c-3.67-7.14-7.67-13.18-14.19-17.24c-6.25-3.89-13.45-3.75-20.3-5.12C1469.01,847.24,1469.01,847.24,1473.55,844.79z"/>
	<path d="M840.86,1404.69c2.31,1.75,3.83,2.91,5.11,3.88c-0.48,3.68-3.03,4.72-5.27,5.73c-13.71,6.17-27.48,12.2-41.23,18.26
		c-1.88,0.83-3.8,1.55-5.71-0.33c-0.31-4.27,4.4-5.36,5.02-8.79C812.89,1417.16,826.59,1411.05,840.86,1404.69z"/>
	<path d="M1264.43,1435.78c-4.33,3.23-9.26,1.81-12.76,2.36c-5.57-4.59-10.06-8.7-14.98-12.22c-4.71-3.36-10.49-5.12-14.96-9.54
		c0.58-1.24,1.08-2.3,1.63-3.48c6.15-0.21,11.84,0.19,17.13,3.34c5.9,3.51,12.14,6.5,17.85,10.28
		C1261.35,1428.52,1264.57,1431.1,1264.43,1435.78z"/>
	<path d="M1351.04,1007.23c-5.54-0.69-10.81-1.13-15.99-2.06c-5.79-1.04-9.44-4.94-11.09-10.38c-1.24-4.11-1.85-8.42-2.54-12.67
		c-0.48-2.97,0.51-5.49,3.75-7.68c2.77,1.42,5.85,2.99,8.77,4.47c1.51,6.11,2.9,11.72,3.9,15.79c4.27,5.76,11.27,4.62,13.82,10.04
		C1351.82,1005.08,1351.45,1005.67,1351.04,1007.23z"/>
	<path d="M998.54,1584.52c9.41,8.38,18.07,16.09,26.55,23.64c-0.61,3.18-2.43,4.52-4.94,4.33c-2.48-0.18-5.2-0.49-7.31-1.66
		c-8.75-4.85-16.56-10.87-21.84-19.63c-1.44-2.38-3.02-4.76-1.1-7.98C993.21,1583.72,996.4,1584.2,998.54,1584.52z"/>
	<path d="M1146.45,1596.31c1.32-3.31,4.57-2.86,7.21-3.97c1.4,0.33,2.98,0.45,4.35,1.05c8.44,3.67,17.27,4.18,26.27,3.37
		c3.65-0.33,7.06-0.01,10.2,3.31c-0.89,0.97-1.52,2.32-2.44,2.55c-9.17,2.33-18.43,4.14-27.98,3.36c-4.64-0.38-9.07-1.48-13.01-4.06
		C1148.93,1600.54,1146.62,1599.25,1146.45,1596.31z"/>
	<path d="M770.79,1626.09c6.1,2.14,11.38,2.92,16.04,6.1c13.86,9.44,27.87,18.67,41.85,28c-0.2,1.42-0.33,2.37-0.47,3.31
		c2.08,1.16,4.14,2.37,6.24,3.48c1.97,1.04,3.99,1.99,6.56,3.26c-0.87,1.19-1.63,2.22-2.26,3.08c-7.23-1.66-11.73-6.83-17.14-10.46
		c-9.28-6.24-18.24-12.97-27.43-19.36c-7.11-4.94-14.37-9.66-21.52-14.54C772.12,1628.6,771.87,1627.79,770.79,1626.09z"/>
	<path d="M513.22,1052c0.49-1.27,1.01-2.62,1.51-3.94c5.67-0.57,10.79,0.11,15.8,2.43c6.05,2.81,12.31,4.81,19.22,4.07
		c3.72-0.4,6.87,1.13,9.31,4.82c-4.11,3.61-8.73,4.61-13.56,4.07c-10.75-1.2-20.96-4.33-30.47-9.55
		C514.41,1053.56,513.99,1052.83,513.22,1052z"/>
	<path d="M383.68,779.44c0.34-2.96,2.11-3.85,4.29-3.82c2.78,0.03,5.64,0.03,8.32,0.67c10.92,2.64,20.67,7.98,30.66,13.21
		c0,2.31,0,4.2,0,6.19c-1.07,0.21-1.9,0.64-2.47,0.43c-4.26-1.59-8.44-3.43-12.72-4.97c-5.47-1.97-10.96-3.9-16.54-5.54
		C390.82,784.32,386.84,782.5,383.68,779.44z"/>
	<path d="M1154.83,1565.7c0.17-1.6,0.33-3.04,0.46-4.24c0.72-0.51,1.1-0.99,1.55-1.06c5.1-0.8,10.06-0.25,15.02,1.19
		c6.07,1.76,12.24,3.18,18.35,4.83c1.42,0.38,2.74,1.1,4.57,1.85c-0.4,1.8-0.75,3.36-1.05,4.7
		C1179.58,1576.22,1166.19,1573.78,1154.83,1565.7z"/>
	<path d="M1025.21,1533.44c-3.91-6.27-1.9-12.52-0.92-18.89c1.73-2.11,3.48-4.25,5.39-6.57c3.54,1.51,6.04,2.57,9.15,3.89
		c0.12,6.8,0.3,13.58,0.31,20.37c0,0.86-0.92,1.73-1.31,2.42C1032.3,1535.8,1032.3,1535.8,1025.21,1533.44z"/>
	<path d="M1549.82,928.86c4.92-5.3,11.04-8.98,17.17-12.43c8.98-5.05,17.29-11.67,28.79-13.33c-0.48,1.62-0.59,3.02-1.27,4.01
		c-0.69,0.99-1.93,1.6-2.98,2.32c-9.24,6.29-18.51,12.55-27.74,18.86c-2.97,2.03-5.98,3.87-9.71,4.02
		C1552.17,932.39,1550.5,932.07,1549.82,928.86z"/>
	<path d="M1193.27,1594.53c1.55-4.05,3.99-6.28,7.56-6.13c8.86,0.36,16.95-2.29,25.05-5.36c2.28-0.86,4.88-1.09,7.35-1.14
		c0.97-0.02,1.96,1.26,2.72,1.79c0.27,2.9-1.41,4.17-3.15,5.18c-10.85,6.29-22.68,8.49-35.07,7.86
		C1196.26,1596.66,1194.86,1595.35,1193.27,1594.53z"/>
	<path d="M389.12,913.84c1.79,0,3.75,0,5.5,0c2.86,1.74,4.06,4.35,4.18,7.19c0.32,7.43-1.4,14.51-3.82,21.43
		c-9.19-2.27-11.92-5.72-10.63-14.01C385.12,923.54,385.04,918.2,389.12,913.84z"/>
	<path d="M669.52,1184.48c0,2.48,0,4.44,0,6.35c-0.79,0.58-1.35,1.33-1.99,1.4c-2.5,0.26-5.04,0.58-7.52,0.35
		c-4.61-0.42-16.33-5.09-21.46-8.27c0-0.98,0-2.16,0-3.38c3.69-0.7,7.11-1.36,11.73-2.24
		C655.66,1180.31,662.19,1182.27,669.52,1184.48z"/>
	<path d="M1376.17,1574.99c1.54-3.4,4.13-5.01,7.26-5.37c6.3-0.72,12.6-0.93,18.79,1.09c4.18,1.37,6.75,4.02,7.79,8.52
		c-3.89,3.11-7.29,0.71-10.75-0.28c-3.36-0.96-6.77-1.76-10.28-2.67c-1.52,1.88-2.74,3.4-4.17,5.17c-1.43-0.16-2.94-0.13-4.32-0.52
		C1377.79,1580.16,1376.23,1578.32,1376.17,1574.99z"/>
	<path d="M833.12,1174.56c2.26-1.39,4.14-2.54,5.04-3.09c11.37,1.89,21.63,3.52,31.84,5.35c2.1,0.38,4.08,1.5,6.26,2.34
		c-1.16,4.17-3.86,4.69-6.7,4.55c-3.29-0.17-6.59-0.55-9.83-1.13c-6.5-1.16-12.97-2.47-19.43-3.84
		C837.88,1178.23,835.26,1177.93,833.12,1174.56z"/>
	<path d="M574.79,520.61c-3.9,2.22-6.48,0.88-8.78-0.69c-8.43-5.73-14.48-13.36-18.24-23.23c1.43-1.1,2.55-1.95,3.99-3.05
		C561.57,500.87,568.39,510.15,574.79,520.61z"/>
	<path d="M1235.52,924.97c3.03-0.36,5.74-0.68,9.03-1.08c0,1.82,0.39,3.35-0.07,4.54c-1.92,4.95-6.07,8.17-10.26,10.8
		c-3.05,1.92-7.03,2.48-10.68,3.21c-1.13,0.22-2.54-0.99-4.42-1.81C1223.02,933.05,1230.54,930.25,1235.52,924.97z"/>
	<path d="M567.23,1005.8c4.71,0.42,6.36,3.75,8.66,6.34c0.49,5.6-0.18,10.63-5.27,14.54c-3.65-0.85-7.87,0.01-11.55-3.87
		C561.45,1017.01,563.23,1010.83,567.23,1005.8z"/>
	<path d="M1088.06,1443.67c1.66-2.2,3.58-4.1,7.38-4.13c4.03,5.96,8.2,12.14,12.13,17.96c-1.54,3.78-4.05,3.94-6.64,3.28
		c-3.88-0.99-6.5-3.82-8.95-6.79C1088.62,1449.92,1088.26,1448.99,1088.06,1443.67z"/>
	<path d="M1624.31,879.76c-1.33-1.2-2.38-2.14-3.89-3.5c5.34-7.93,14.9-8.81,21.15-14.44c2.6,0,5.04,0,8.05,0
		c-0.36,1.37-0.29,2.64-0.85,3.05c-5.49,4.02-11,8.04-16.71,11.73C1629.79,878.06,1627,878.7,1624.31,879.76z"/>
	<path d="M1189.34,753.12c1.02-1.15,2.17-2.44,3.18-3.58c5.58,0.78,10.81,1.41,16.01,2.26c5.02,0.82,7.74,2.94,10.22,7.53
		c-4.17,1.04-19.33-0.01-24.45-1.62C1192.01,756.99,1190.06,755.99,1189.34,753.12z"/>
	<path d="M856.98,1032.76c4.83-3.2,8.9-5.9,13.27-8.8c3.91,1.27,7.91,2.49,10.15,6.43C877.21,1038.87,866.66,1038.81,856.98,1032.76
		z"/>
	<path d="M444.9,1011.66c4.44-1.93,7.71,0.5,10.36,3.04c3.44,3.29,8.66,5.6,8.42,11.56c-3.37,2.73-5.98,0.19-8.71-0.7
		c-4.24-1.38-7.71-3.86-10.21-7.59C443.52,1016.14,443.32,1014.21,444.9,1011.66z"/>
	<path d="M577.22,1593.29c-0.13-2.15-0.22-3.81-0.35-6c5.77-2.42,11.35-4.75,16.8-7.03c2.52,0.17,4.81,0.36,5.74,3.04
		C595.86,1588.4,587.93,1592.1,577.22,1593.29z"/>
	<path d="M466.83,1598.83c-5.98,7.46-31.14,22.54-38.5,23.58C431.98,1615.98,449.48,1605.12,466.83,1598.83z"/>
	<path d="M1319.79,890.75c-4.7,6.4-9.97,10.06-16.64,11.68c-2.04,0.5-3.98,0.6-5.8-1.6c0.52-1.05,0.76-2.46,1.6-3.09
		c3.85-2.89,7.75-5.74,11.87-8.21c1.62-0.97,3.86-1.17,5.82-1.17C1317.54,888.36,1318.45,889.68,1319.79,890.75z"/>
	<path d="M837.97,981.46c1.84-3.26,4.06-3.63,6.8-3.03c6.05,1.32,10.13,4,12.73,8.87c-1.35,0.5-2.72,1.54-3.89,1.35
		C847.93,987.69,842.09,986.84,837.97,981.46z"/>
	<path d="M1464.6,1567.39c1.75-2.59,4.11-3.45,6.29-2.75c4.47,1.45,9.29,2.57,12.15,6.69c-0.37,3.18-2.32,4.03-5.3,4.36
		C1473.57,1573.08,1467.7,1572.39,1464.6,1567.39z"/>
	<path d="M1432.41,1553.5c-8.29-1.88-12.82-3.94-16.96-7.52c2.01-2.28,4.34-3.25,7.21-2.11
		C1426.81,1545.54,1430.76,1547.52,1432.41,1553.5z"/>
	<path d="M869.17,829.56c-0.83,1.52-1.5,2.74-1.97,3.59c-4.38,1.24-9.03-3.12-10.33-9.4C861.74,823.55,865.69,824.86,869.17,829.56z
		"/>
	<path d="M860.31,1688.54c-0.67,0.23-1.35,0.46-1.74,0.59c-4.82-4.09-9.43-8.01-14.58-12.38c1.62,0.31,2.93,0.32,4.01,0.82
		c3.25,1.49,5.38,4.74,9.09,5.66C859.05,1683.72,858.98,1684.02,860.31,1688.54z"/>
	<path d="M523.29,1544.41c4.22-6.35,5.18-6.66,10.52-3.54c0.1,2.58-1.96,3.28-3.75,4.02
		C528.02,1545.72,525.85,1546.8,523.29,1544.41z"/>
</g>
</svg>
