<?xml version="1.0" encoding="utf-8"?>
<!-- Generator: Adobe Illustrator 27.4.0, SVG Export Plug-In . SVG Version: 6.00 Build 0)  -->
<svg version="1.1" id="Calque_1" xmlns="http://www.w3.org/2000/svg" xmlns:xlink="http://www.w3.org/1999/xlink" x="0px" y="0px"
	 viewBox="0 0 2000 2000" style="enable-background:new 0 0 2000 2000;" xml:space="preserve">
<g>
	<path d="M830.77,1797.14c-1.4,0.61-2.27,0.83-2.95,1.31c-11.29,8.11-23.59,7.9-36.23,4.28c-4.47-1.28-8.81-3.02-13.22-4.52
		c-12.95-4.41-20.09-13.96-23.68-26.68c-0.36-1.27-0.69-2.54-1.07-3.96c-1.66-0.78-3.21-1.61-4.84-2.24
		c-8.43-3.25-15.39-8.57-21.91-14.74c-11.31-10.7-16.95-24.27-20.07-39c-2.05-9.67,0.11-19.04,5.06-27.57
		c6.6-11.37,15.8-20.22,27.08-26.94c0.56-0.33,1.21-0.54,1.83-0.76c0.19-0.07,0.44,0.02,1.21,0.09c0.52,0.96,1.19,2.18,2.01,3.67
		c-1.4,1.23-2.39,2.44-3.66,3.17c-9.22,5.29-16.72,12.32-22.46,21.3c-6.07,9.5-7.77,19.38-4.72,30.47
		c5.38,19.56,18.08,32.66,35.31,42.09c1.25,0.68,2.82,0.78,3.75,1.02c1.63-5.02,2.63-9.83,4.7-14.13
		c3.75-7.75,10.52-12.45,18.33-15.59c3.75-1.5,6.95-0.01,9.51,2.91c3.35,3.82,3.9,8.44,3.22,13.16c-0.98,6.77-4.03,12.67-8.67,17.67
		c-3.32,3.58-7.77,5.03-12.47,5.72c-1.95,0.28-3.93,0.29-6.31,0.45c2.08,8.09,5.74,15.04,12.78,18.92
		c11.75,6.47,24.28,10.82,38.05,10.31c7.55-0.28,13.6-3.48,18.91-8.84c0.25-1.73,0.62-3.47,0.73-5.22
		c0.39-6.55,3.03-12.46,5.38-18.41c1.14-2.87,3.46-4.43,6.61-4.16c0.38,0.61,0.87,1.02,0.8,1.31c-1.86,7.96-3.63,15.95-5.74,23.85
		c-1.36,5.09-0.75,10.14-0.41,15.2c0.16,2.39,1.13,4.72,1.66,7.09c2.48,11.2,8.92,19.63,18.24,25.99
		c12.16,8.29,24.83,15.61,39.52,18.51c14.68,2.9,29.28,3.68,44.26,1.03c15.66-2.76,29.77-8.79,43.07-16.95
		c9.74-5.97,17.87-13.83,23.44-24.05c4.57-8.4,9.09-16.89,10.76-26.37c4.07-23.16-1.08-44.06-16.39-62.16
		c-9.46-11.18-20.79-19.93-34.35-25.67c-1.84-0.78-3.67-1.6-5.42-2.55c-5.62-3.04-11.47-4.17-17.95-3.6
		c-8.45,0.75-16.82-0.72-25.07-2.58c-2.78-0.63-5.57-1.47-7.36-4.05c0.23-0.75,0.26-1.5,0.63-1.98c1.36-1.73,2.84-3.38,4.58-5.42
		c10.51,0.82,21.14,1.06,31.51,3.52c5.09,1.21,10.05,1.23,15.17,0.37c11.73-1.98,22.89-5.38,32.69-12.4
		c0.69-0.49,1.26-1.15,2.29-2.1c-1.07-1.04-1.88-1.99-2.84-2.73c-8.08-6.22-16.43-12.1-24.23-18.65
		c-11.39-9.56-22.01-20.01-31.85-31.15c-7.92-8.97-15.28-18.44-22.76-27.79c-9.43-11.8-17.63-24.46-25.37-37.41
		c-7.52-12.57-14.72-25.31-20.82-38.64c-1.46-3.19-3.07-6.31-4.87-9.99c-2.41,1.33-4.36,2.26-6.16,3.43
		c-13.29,8.6-25.65,18.44-36.14,30.28c-6.44,7.27-12.03,15.36-17.44,23.46c-4.22,6.32-6.47,13.59-7.55,21.17
		c-0.18,1.24-0.47,2.46-0.99,3.63c-1.72-8.98,1-17.08,4.92-24.89c9.41-18.78,22.8-34.32,39.18-47.32
		c6.42-5.09,13.21-9.7,19.82-14.56c0.69-0.51,1.27-1.17,2.17-2.01c-12.41-31.4-22.57-63.39-26.29-97.39
		c-5.3-1.12-10.41-2.46-15.6-3.25c-10.78-1.63-20.18-6.58-29.51-11.76c-13.88-7.71-25.74-18.04-37.56-28.49
		c-9.05-8-16.66-17.19-23.9-26.75c-15.74-20.79-28.32-43.43-38.98-67.16c-4.27-9.51-8.43-19.07-12.49-28.68
		c-1.2-2.84-1.87-5.9-2.83-8.85c-2.8-8.62-5.84-17.18-8.35-25.88c-1.71-5.94-2.6-12.12-4.03-18.15
		c-2.98-12.55-3.09-25.47-4.96-38.16c-1.16-7.84-1.1-15.96-0.66-23.91c0.64-11.5,1.92-22.98,3.31-34.43
		c3-24.89,10.57-48.49,21.52-70.93c8.19-16.81,17.89-32.8,31.27-46.09c7.52-7.47,15.33-14.62,24.78-19.97
		c6.36-3.6,12.47-7.67,19.26-10.39c15.7-6.28,31.99-10.33,48.8-12.28c24.82-2.89,49.64-3.03,74.3,1.16
		c19.7,3.35,38.99,8.39,57.46,16.29c18.99,8.12,37.52,17.15,54.92,28.27c8.94,5.71,17.28,12.36,25.88,18.61
		c1.94,1.41,3.81,2.93,5.97,4.59c1.07-0.99,1.96-1.61,2.6-2.44c7.79-10.12,17.3-18.46,27.46-26c8.74-6.48,18.36-11.34,28.71-15.08
		c16.66-6.01,33.73-9.38,51.33-10.01c10.4-0.37,20.9-0.78,31.21,0.29c16.55,1.71,33.3,3.95,47.53,13.55
		c9.63,6.5,20.24,12.1,26.84,22.98c-0.81,0.34-1.78,0.74-2.58,1.08c1.89,4.59,4.86,6.56,9.08,7.05c-0.17,1.75-0.31,3.23-0.48,5.05
		c2.89,2.55,3.98,6.94,8.52,8.34c-1.25-1.59-2.51-3.17-3.76-4.76c0.14-0.25,0.28-0.5,0.42-0.74c0.78,0.33,1.78,0.46,2.31,1.03
		c3.17,3.42,6.07,7.04,7.32,11.68c0.23,0.84,0.41,1.75,0.87,2.46c6.48,9.82,9.38,20.84,11.48,32.26
		c4.07,22.12,3.89,44.23-0.07,66.24c-2.16,11.99-5.92,23.66-10.79,34.88c-5.75,13.24-11.75,26.42-19.97,38.32
		c-7.06,10.21-14.85,19.91-22.34,29.82c-1.47,1.94-3.03,3.82-4.76,5.99c0.78,1.11,1.3,2.75,2.25,3.07
		c6.63,2.18,11.78,6.84,17.74,10.13c0.78,0.43,1.64,0.76,2.31,1.31c2.54,2.07,5.03,4.21,7.88,6.62c0.03,0,0.67,0,0.81,0
		c3.39,2.96,6.11,6.37,9.65,8.09c2.55,1.23,5.06,2.42,7.39,4.03c8.78,6.06,17.11,12.53,23.89,20.96
		c4.55,5.66,9.93,10.65,14.99,15.88c6.96,7.19,13.09,15,18.22,23.6c4.08,6.84,9.4,12.94,11.92,20.68c2.74,8.4,5.64,16.76,8.3,25.18
		c5.96,18.87,4.34,38.22,3.08,57.46c-0.42,6.37-2.36,12.63-3.46,18.96c-4.8,27.52-17.96,50.6-36.47,71.23
		c-11.02,12.28-23.74,21.91-38.1,29.68c-2.91,1.58-5.73,3.32-8.59,4.99c0,4.49-0.32,8.71,0.06,12.86
		c1.05,11.4-0.07,22.63-2.61,33.68c-1.93,8.39-4.48,16.68-7.27,24.83c-4.06,11.83-10.07,22.67-17.59,32.7
		c-7.32,9.76-14.43,19.62-23.75,27.71c-26.8,23.25-57.62,35.93-93.26,37.13c-28.1,0.95-54.7-4.63-79.98-16.75
		c-9.78-4.69-19.42-9.69-29.96-14.96c-1.72,1.08-4.32,2.34-6.49,4.13c-8.09,6.65-17.36,10.54-28.37,12.37
		c1.16,1.03,1.78,1.97,2.64,2.29c14.29,5.37,26.06,14.36,35.68,25.94c13.8,16.62,21.49,35.51,19.61,57.65
		c-1.4,16.42-7.59,30.98-17,44.14c-14.2,19.86-33.97,32.19-56.79,39.83c-5.64,1.89-11.68,2.62-17.57,3.69
		c-23.32,4.22-45.48,0.26-66.48-10.19c-8.11-4.03-15.74-9.06-22.47-15.27c-2.11-1.95-4.57-3.55-6.46-5.69
		c-4.06-4.59-6.39-10.11-7.39-16.14c-0.66-3.93-1.07-7.89-1.66-11.83C831.61,1801.24,831.19,1799.37,830.77,1797.14z
		 M1031.58,995.27c4.42,4.14,8.6,7.77,12.44,11.72c8.98,9.23,17.34,19,24.91,29.44c7.09,9.77,12.63,20.33,16.63,31.72
		c1.65,4.69,2.26,9.49,1.87,14.42c-1.1,13.89-5.81,26.26-14.97,36.99c-13.4,15.72-38.04,16.95-52.65,2.48
		c-11.43-11.33-16.33-25.78-19.02-40.97c-2.35-13.23-0.99-26.52,2.52-39.53c0.63-2.35,0.99-4.8,1.79-7.08
		c3.74-10.66,8.2-21.01,13.88-30.81c0.74-1.28,1.25-2.7,1.95-4.23c-7.56-7.06-15.63-12.99-23.94-18.44
		c-22.52-14.79-46.37-27.07-71.72-36.3c-20.53-7.48-41.61-12.4-63.47-14.16c-26.52-2.13-52.78-1.33-78.7,5.11
		c-24.86,6.17-46.71,17.73-64.95,36.03c-12.88,12.93-22.56,28.03-30.49,44.2c-23.37,47.64-29.08,97.72-20.08,149.83
		c2.54,14.72,6.48,29.02,11.29,43.06c4.6,13.41,8.99,26.95,15.53,39.63c5.79,11.24,11.35,22.6,17.1,33.86
		c6.47,12.68,14.63,24.3,23.05,35.71c6.97,9.45,14.74,18.28,23.45,26.23c10.99,10.04,22.16,19.78,35.1,27.34
		c12.19,7.12,24.98,12.5,38.92,14.96c1.4,0.25,2.88,0.03,4.52,0.03c0.16-1.75,0.31-3.06,0.39-4.37c0.41-6.86,0.53-13.76,1.28-20.59
		c0.7-6.37,1.44-12.86,3.27-18.97c3.85-12.83,9.88-24.79,17.95-35.45c9.89-13.07,22.18-23.63,36.98-30.88
		c16.19-7.93,33.38-10.26,51.21-8c6.64,0.84,9.34,3.29,10.88,9.87c2.91,12.44,1.63,24.85-1.69,36.89
		c-4.67,16.97-13.55,31.83-26.05,44.21c-22.38,22.19-49.1,35.39-80.84,37.66c-1.48,0.11-2.95,0.39-4.33,0.58
		c-0.98,15.74,17.74,81.11,26.65,93.18c2.3-1.11,4.68-2.24,7.04-3.4c17.29-8.44,35.29-14.49,54.59-16.08
		c13.62-1.12,27.07,0.03,40.22,3.78c28.02,7.99,50.02,24.56,66.68,48.15c19.56,27.68,21.86,57.34,8.81,88.42
		c-7.14,17-17.69,31.72-29.99,45.29c-2.19,2.42-4.36,4.85-6.91,7.69c5.47,3.92,10.66,7.27,16.28,9.82c7.45,3.39,15,6.55,22.58,9.63
		c11.32,4.59,23.16,7.22,35.15,9.42c12.57,2.31,25.19,1.48,37.78,1.21c6.17-0.13,12.44-0.87,18.45-2.25
		c17.41-3.99,33.57-10.64,48.5-20.93c22.2-15.31,38.97-34.69,49.29-59.58c1.69-4.08,2.63-8.45,4.15-12.61
		c6.68-18.3,7.59-37.24,6.43-56.42c-0.09-1.42-0.78-2.8-1.35-4.74c-3.42,0.94-6.36,1.79-9.31,2.55c-4.29,1.11-8.54,2.45-12.89,3.2
		c-15.3,2.64-30.61,1.18-45.67-1.5c-17.05-3.03-33.54-8.16-49.34-15.57c-13.6-6.38-25.85-14.68-37.3-24.21
		c-7.23-6.01-12.21-13.97-16.98-22.03c-3.48-5.89-5.74-11.94-5.09-18.87c0.29-3.08,0.49-6.16,0.79-9.24
		c1.39-14.19,8.45-25.67,18.46-35.07c8.6-8.07,19.69-12.22,31.37-13.19c15.97-1.33,31.86-0.83,47.21,5.19
		c8.16,3.2,15.85,7.09,22.57,12.52c8.59,6.94,17.33,13.72,24.58,22.26c6.77,7.97,13.26,16.1,18.55,25.1
		c9.64,16.4,16.25,33.97,19.89,52.65c0.32,1.64,1.08,3.19,1.79,5.23c2.59-1.17,4.68-1.91,6.57-3.01c6.32-3.7,12.61-7.44,18.8-11.33
		c2.62-1.65,5.06-3.61,7.42-5.61c10.06-8.55,18.41-18.59,25.6-29.62c7.58-11.63,13.41-24.15,16.39-37.65
		c2.47-11.21,4.51-22.57,5.45-34.1c1.47-18.11,0.24-35.88-4.74-53.38c-5.75-20.21-16.36-37.77-29.36-54.02
		c-20.3-25.39-44.93-45.99-71.79-64c-7.14-4.79-14.43-9.5-22.77-12.97c-4.19,4.08-8.29,8.08-12.39,12.08
		c-3.97,3.88-7.73,8-11.95,11.58c-4.38,3.73-9.31,6.8-13.79,10.43c-4.37,3.53-10.16,4.94-14.65,9.6c7.91,3.3,15.2,6.35,22.69,9.48
		c0.18,4.21-0.05,7.79-4.46,9.7c-0.87-0.24-1.75-0.38-2.56-0.7c-5.94-2.44-11.91-4.81-17.77-7.45c-1.98-0.89-3.69-2.43-5.44-3.79
		c-1.38-1.07-2.63-2.32-3.45-3.06c-8.4,1.61-16.2,3.14-24.02,4.58c-8.49,1.57-16.83,0.41-25-1.94c-2.47-0.71-5.17-1.57-6.13-4.61
		c0.55-2.98,2.35-5.08,4.73-7.04c6.74,3.44,13.56,5.84,21.08,5.47c7.5-0.38,15.03-0.47,22.52-3.16c-3.34-6.27-6.79-12.16-9.67-18.32
		c-2.89-6.2-5.21-12.67-7.72-18.86c3.72-8.47,7.29-16.55,13.92-22.87c3.3-3.15,6.83-5.4,11.36-6.47c6.63-1.56,13.14-1.73,19.77-0.24
		c3.67,0.82,7.45,1.2,11.09,2.14c3.19,0.82,6.42,1.83,9.34,3.32c7.7,3.95,15.83,6.61,24.58,9.16c2.55-2.95,5.25-5.85,7.68-8.95
		c6.28-8.02,12.71-15.95,18.55-24.28c4.05-5.78,7.12-12.24,10.83-18.27c6.56-10.66,10.65-22.4,14.89-34.06
		c1.96-5.37,3.5-10.96,4.56-16.58c1.15-6.08,1.44-12.31,2.24-18.46c2.35-18.07,0.72-36.07-3.52-53.5
		c-6.35-26.07-19.82-48.37-40.65-65.71c-13.53-11.26-28.88-19.13-46.39-21.99c-25.42-4.15-50.76-4.27-76.04,1.79
		c-19.73,4.73-37.97,12.24-53.65,25.36C1043.94,981.4,1037.26,987.21,1031.58,995.27z M1007.1,1661.56c2.59-2.45,4.8-4.31,6.74-6.42
		c4.19-4.58,8.47-9.1,12.3-13.97c9.95-12.64,17.81-26.29,22-42.12c5.78-21.81,2.69-42.23-7.82-61.74
		c-8.36-15.51-20.46-27.73-34.61-38.09c-24.6-18.02-52.14-23.72-81.95-19.61c-13.49,1.86-26.28,6.26-38.59,12.06
		c-3.56,1.68-7.08,3.41-11.2,5.4c15.56,35.72,35.34,68,59.88,97.51C955.08,1620.13,979.23,1642.32,1007.1,1661.56z M1249.31,1530.76
		c0-2.13,0.16-3.24-0.02-4.29c-2.24-12.98-6.36-25.46-12.01-37.26c-10.7-22.32-25.86-41.21-45.29-56.76
		c-11.73-9.38-24.63-15.56-39.33-18.41c-10.4-2.01-20.76-1.67-31.15-0.55c-12.08,1.3-22.93,5.59-31.15,14.8
		c-8.41,9.43-11.97,20.51-9.63,33.23c2.01,10.92,8.14,19.63,15.38,27.43c10.67,11.49,23.61,20.17,37.62,27.06
		c17.8,8.75,36.58,14.55,56.19,17.8c14.11,2.34,28.18,3.41,42.33,0.79C1237.87,1533.58,1243.42,1532.11,1249.31,1530.76z
		 M844.3,1387.94c8.3-0.31,15.92-1.01,23.55-2.48c12.35-2.39,23.89-7.03,34.65-13.14c17.82-10.13,32.33-23.82,42.36-42.14
		c7.11-12.99,9.48-26.61,7.83-41.07c-0.34-2.99-1.77-5.85-2.46-8.01c-4.04-3.39-8.09-3.55-12.06-3.74
		c-21.18-0.99-40.22,4.6-57.14,17.74c-19.01,14.77-31.6,33.33-35.68,57.24c-1.08,6.33-1.79,12.75-2.3,19.15
		C842.61,1376.77,842.7,1382.09,844.3,1387.94z M1025.53,1003.67c-4.77,6.91-8.04,13.9-11.12,21c-9.05,20.88-11.45,42.08-4.04,64.09
		c3.49,10.37,8.86,19.27,17.07,26.45c10.91,9.54,28.64,10.02,39.23,1.09c11.67-9.84,16.86-27.91,11.84-42.37
		c-1.88-5.42-4.18-10.76-6.85-15.83c-7.8-14.84-18.34-27.68-29.95-39.66C1036.79,1013.38,1032.13,1008,1025.53,1003.67z
		 M1204.37,1218.58c-5.53-2.96-10.66-4.95-15.8-6.89c-10.23-3.86-20.69-6.7-31.68-7.19c-8.66-0.39-16.14,2.09-22.01,8.85
		c-3.38,3.89-4.6,7.84-2.38,12.79c2.63,5.86,4.67,11.99,7.4,17.81c2.63,5.62,6.1,10.76,11.13,14.84c1.16-0.28,2.31-0.34,3.25-0.82
		c4.15-2.1,8.28-4.24,12.34-6.51c13.34-7.48,23.53-18.78,34.75-28.84C1202.33,1221.76,1202.95,1220.52,1204.37,1218.58z
		 M759.13,1759.62c10.11,2.44,17.08-0.24,20.64-7.72c3.41-7.17,2.37-12.48-3.33-17C764.21,1737.59,758.83,1745.13,759.13,1759.62z
		 M1310.78,1298.82c-0.37,0.24-0.74,0.48-1.1,0.72c4.17,5.91,8.34,11.82,12.51,17.73
		C1321.04,1309.35,1314.39,1305.09,1310.78,1298.82z"/>
	<path d="M1285.21,907.27c-2.78-3.96-1.1-6.77,0.88-8.72c9.74-0.91,18.55-1.69,27.34-2.58c7.82-0.79,15.12-3.59,22.25-6.56
		c17.55-7.32,33.66-17.08,47.24-30.52c7.3-7.23,13.24-15.67,16.83-25.32c3.78-10.15,4.92-20.71,1.48-31.33
		c-2.53-7.81-5.29-15.51-9.33-22.73c-7.59-13.54-18.67-23.55-31.51-31.85c-21.81-14.11-45.69-18.63-71.3-15.85
		c-9.34,1.01-18.44,2.72-27.11,6.37c-2.62,1.1-5.14,2.44-7.58,3.61c0,1.64-0.17,2.77,0.03,3.82c2.61,13.95-0.28,27.36-3.97,40.68
		c-0.89,3.2-1.96,6.36-3.19,9.45c-4.19,10.48-11.33,18.46-21.04,24.1c-6.68,3.88-14.08,5.42-21.71,5.45
		c-8.73,0.03-12.62-3.33-13.88-12.02c-1.9-13.12,1-25.26,8.98-35.85c4.65-6.17,9.82-12,15.17-17.58c8.2-8.53,17.7-15.45,28.21-20.94
		c0.75-0.39,1.34-1.07,2.16-1.73c-2.91-6.77-8.12-11.21-13.85-15.03c-11.62-7.74-24.63-10.91-38.46-11.19
		c-21.09-0.43-39.05,7.2-54.25,21.48c-16.85,15.83-26.9,35.7-32.64,57.77c-2,7.7-2.3,15.8-1.35,23.82c0.3,2.51,0.88,5.03-0.18,8.84
		c-2.21-4.94-3.05-8.96-3.53-13.11c-1.72-14.97,1.27-29.23,7.09-42.87c6.76-15.82,15.33-30.53,28.31-42.26
		c9.53-8.61,20.64-14.54,32.47-19.1c6.9-2.66,14.39-2.39,21.67-2.79c10.09-0.56,20,0.94,29.36,4.66
		c12.12,4.83,23.16,11.29,29.67,23.38c0.51,0.95,1.21,1.79,2.01,2.94c1.97-0.83,3.77-1.59,5.57-2.36c7.81-3.3,15.82-5.82,24.36-6.25
		c1.1-0.06,2.33,0.08,3.26-0.38c4.6-2.23,9.53-1.96,14.39-1.99c12.9-0.08,25.72,0.59,38.16,4.58c16.08,5.16,30.27,13.41,42.92,24.66
		c16.04,14.26,24.34,32.55,28.16,53.04c2.21,11.81,0,23.52-5.1,34.4c-7.68,16.39-18.85,30.08-33.83,40.33
		c-7.49,5.12-15.37,9.73-23.35,14.05c-17.75,9.59-37.02,13.33-57,13.98C1287.73,907.83,1286.44,907.45,1285.21,907.27z
		 M1248.19,745.26c-2.43,1.18-4.45,2.01-6.32,3.09c-16,9.26-28.72,22.07-39.47,36.93c-1.93,2.67-3.37,5.72-4.97,8.62
		c-2.42,4.4-3.12,9.19-2.93,14.14c0.17,4.56,2.08,7.02,6.47,7.97c1.92,0.41,4,0.57,5.94,0.33c17.48-2.19,29.85-11.33,37.05-27.46
		c3.76-8.42,5.08-17.42,6.03-26.42C1250.56,757.05,1251.02,751.4,1248.19,745.26z"/>
	<path d="M628.08,858.33c-5.06,3.83-12.03,2.05-17.56,5.49c-0.29,0.83-0.61,1.88-1.01,2.9c-0.3,0.76-0.7,1.48-1.26,2.64
		c-3.8-1.84-3.72-5.04-3.57-8c0.15-3.03,1.57-5.7,4.47-6.92c2.41-1.01,5.06-1.44,8.02-2.23c-0.37-0.99-0.45-1.93-0.95-2.42
		c-11.85-11.63-16.93-26.28-18.86-42.31c-2-16.66-1.43-33.19,2.3-49.62c3.18-14.01,9.64-26.22,19.65-36.39
		c8.14-8.27,17.63-15.06,28.24-19.62c11.38-4.88,23.28-8.53,35.53-10.84c15.39-2.9,30.33-1.29,45.25,3.19
		c6.8,2.04,13.39,4.48,20.01,6.97c8.87,3.34,16.49,8.6,24.1,13.89c14.6,10.15,27.99,21.79,40.68,34.22
		c4.54,4.45,8.78,9.21,13.68,14.39c0.77-1.74,1.39-3.02,1.93-4.34c5.43-13.36,15.27-20.21,29.76-20.45
		c12.36-0.21,23.59,3.4,34.15,9.56c18.3,10.65,31.32,25.69,39.28,45.43c4.66,11.57,7.48,23.24,6.1,35.67
		c-1.38,12.33-5.34,23.76-12.93,33.76c-2.98,3.93-6.97,6.54-11.64,9.28c-0.45-3.41,1.4-5,3.17-6.53c3.9-3.38,7.18-7.26,9.49-11.88
		c7.96-15.89,8.95-32.47,3.53-49.15c-8.55-26.33-25.34-45.5-51.31-55.99c-7.74-3.13-15.9-4.17-24.19-3.34
		c-12.58,1.25-20.56,8.54-22.42,22.33c-0.41,3.04-0.73,6.09-1.14,9.45c-1.96,0-3.4,0-4.24,0c-4.45-5.81-8.22-11.58-12.82-16.6
		c-10.07-10.97-21.17-20.85-32.88-30.07c-10.14-7.99-20.54-15.53-32.28-21.03c-12.92-6.05-26.24-10.62-40.62-12
		c-16.37-1.58-31.77,2.05-46.91,7.55c-10.48,3.81-20.3,8.88-29.25,15.59c-15.43,11.56-25.26,26.73-28.33,45.79
		c-1.95,12.05-2.34,24.21-1.02,36.49c1.89,17.62,9.11,32.3,21.98,44.28C627.39,850.42,629.18,853.59,628.08,858.33z"/>
	<path d="M1458.36,1806.01c-2.05-0.65-3.43-1.09-5.05-1.6c0.47-1.78,0.85-3.2,1.42-5.37c-4.09-7.33-7.89-15.41-12.81-22.73
		c-12.23-18.23-24.83-36.21-37.57-54.08c-5.14-7.2-11.17-13.76-16.53-20.81c-7.93-10.43-16.22-20.53-25.28-30
		c-12.57-13.14-24.98-26.43-37.78-39.34c-11.09-11.19-22.59-21.96-33.98-32.85c-2.72-2.6-5.77-4.87-8.55-7.41
		c-2.27-2.07-4.38-4.33-6.62-6.57c1-2.89,2.17-5.11,5.37-6.26c3.95,3.37,8.06,6.7,11.98,10.24c14.47,13.09,28.14,26.97,41.47,41.21
		c11.51,12.27,23.45,24.14,34.82,36.54c14.08,15.35,27.71,31.14,39.45,48.39c5.85,8.59,12.88,16.22,18.68,24.81
		c5.2,7.7,10.49,15.35,15.71,23.04c2.36,3.48,4.88,6.89,6.94,10.55c4.12,7.32,8,14.77,11.92,22.2c0.4,0.75,0.42,1.7,0.75,3.08
		C1461.48,1801,1460.11,1803.21,1458.36,1806.01z"/>
	<path d="M1323.74,1152.49c-2.86-3.43-2.86-3.43-2.45-8.51c0.99-0.81,2.12-1.86,3.36-2.74c7.93-5.67,15.73-11.55,23.88-16.89
		c11.31-7.41,21.57-16.26,33.27-23.16c6.24-3.68,11.91-8.54,17.2-13.54c10.85-10.24,22.81-19,34.88-27.67
		c7.02-5.04,13.65-10.61,20.59-15.76c4.61-3.42,9.44-6.56,14.23-9.76c1.91-1.27,3.98-2.04,6.81-0.27c0.19,1.4,0.43,3.25,0.72,5.42
		c-7.48,2.03-12.81,6.75-18.42,11.04c-14.09,10.77-28.24,21.45-42.31,32.26c-2.63,2.02-5.01,4.37-7.4,6.67
		c-9.12,8.8-19.18,16.39-29.77,23.31c-0.56,0.36-1.12,0.72-1.66,1.11c-14.24,10.52-28.47,21.06-42.74,31.55
		C1330.73,1147.91,1327.37,1150.03,1323.74,1152.49z"/>
	<path d="M622.96,1455.23c-2.77-2.53-3.08-4.63-0.98-7.26c4.17-0.3,8.55-0.71,12.94-0.9c10.24-0.46,20.2-2.64,30.2-4.63
		c7.17-1.43,14.37-2.73,21.52-4.26c4.33-0.93,8.58-2.24,12.89-3.28c19.39-4.67,38.77-9.38,58.2-13.87c4.29-0.99,8.77-1.27,13.18-1.6
		c2.1-0.16,4.25,0.35,7.01,0.61c-0.85,2.09-1.38,3.41-2.1,5.18c-3.7,0.61-7.39,1.13-11.05,1.84c-7.18,1.39-14.34,2.84-21.5,4.33
		c-5.64,1.18-11.27,2.39-16.87,3.72c-4.72,1.13-9.37,2.59-14.11,3.66c-21.18,4.79-42.35,9.61-63.59,14.15
		C640.24,1454.74,631.62,1455.51,622.96,1455.23z"/>
	<path d="M613.75,963.92c-0.26,1.9-0.47,3.38-0.64,4.64c-0.73,0.36-1.18,0.78-1.49,0.69c-2.76-0.75-5.7-1.19-8.2-2.48
		c-17.56-9.02-35.19-17.93-52.47-27.47c-9.68-5.35-18.72-11.87-28.08-17.8c-13.83-8.76-26.91-18.75-41.49-25.46
		c-2.12-3.13-1.62-5.35,1.19-7.41c1.2,0.48,2.47,0.85,3.61,1.46c10.52,5.7,20.74,11.78,30.53,18.81
		c15.83,11.36,32.22,21.99,49.76,30.69c14.71,7.29,29.29,14.83,43.92,22.28C611.34,962.36,612.24,963,613.75,963.92z"/>
	<path d="M537.83,1378.19c-0.73-2.27-1.24-3.87-1.94-6.06c2.08,0.15,3.65-0.03,5.02,0.4c9.52,2.98,19.01,6.03,28.48,9.15
		c9.48,3.13,18.99,6.18,28.37,9.6c10.84,3.95,21.54,8.27,32.3,12.42c6,2.31,12.02,4.58,18.01,6.91c1.85,0.72,3.73,1.46,5.45,2.45
		c1.58,0.91,2.7,2.29,2.09,4.69c-3.16,1.76-6.41,0.54-9.42-0.45c-8.16-2.69-16.25-5.59-24.29-8.6c-4.34-1.63-8.52-3.69-12.8-5.49
		c-14.31-6.02-28.71-11.76-43.69-16C556.26,1384.6,547.3,1381.31,537.83,1378.19z"/>
	<path d="M1404.98,959.05c-1.3-2-2.1-3.24-2.7-4.17c0.21-3.27,2.27-4.7,4.23-6.13c5.36-3.92,10.69-7.9,16.19-11.62
		c11-7.43,22.26-14.49,33.13-22.11c7.6-5.33,14.66-11.43,22.1-17.01c4.02-3.02,8.33-5.67,12.4-8.42c2.44,2.48,2.44,2.48,2.08,6.19
		c-2.72,1.8-5.76,3.58-8.56,5.7c-6.69,5.08-13.11,10.54-19.93,15.45c-14.19,10.22-28.58,20.16-42.84,30.28
		C1415.86,950.91,1410.77,954.79,1404.98,959.05z"/>
	<path d="M1369.12,1160.82c0-1.26,0-2.11,0-3.2c13.43-9.97,26.92-19.97,40.43-30c3.66,3.45,3.96,6.66,0.78,9.85
		c-0.47,0.47-1,0.89-1.55,1.26c-9.92,6.7-19.79,13.46-29.8,20.02C1376.28,1160.53,1373.33,1162.37,1369.12,1160.82z"/>
	<path d="M1307.42,1639.45c7.64,10.39,16.21,19.69,22.07,30.92c1.58,3.02,2.49,6.4,3.59,9.66c0.17,0.5-0.31,1.23-0.67,2.47
		c-1.58-1.21-3.18-2.02-4.2-3.3c-3.59-4.46-6.92-9.14-10.47-13.64c-4.09-5.19-8.32-10.27-12.44-15.43c-1.36-1.7-2.55-3.54-3.58-4.99
		C1302.09,1641.5,1303.73,1639.8,1307.42,1639.45z"/>
	<path d="M1406.15,925.41c3.35,2.84,3.12,6.12,1.51,8.74c-3.81,6.2-8.15,12.09-12.34,18.05c-0.3,0.43-1.18,0.45-1.76,0.65
		c-2.34-1.59-2.34-3.63-1.46-5.91C1393.47,943.38,1402.49,929.42,1406.15,925.41z"/>
	<path d="M1416.1,965.56c5.78-4.27,11.16-6.56,17.13-7.47c2.54,1.89,1.96,4.27,1.48,6.56c-3.65,2.58-11.75,5.57-17.12,6.18
		C1417.13,969.21,1416.64,967.48,1416.1,965.56z"/>
	<path d="M1344.84,1177.63c-3.3,2.98-6.39,5.82-11.52,5.23c-0.65-1.25-1.3-2.51-1.99-3.84c3.32-3.75,6.48-7.05,10.96-8.52
		C1345.84,1171.87,1345.76,1174.36,1344.84,1177.63z"/>
	<path d="M1299.38,1170.94c-3.55,1.99-6.78,3.78-10.3,5.75c-0.85-1.2-1.83-1.99-1.95-2.89c-0.16-1.22-0.09-2.87,0.62-3.74
		c2.62-3.23,5.33-6.49,9.69-7.75C1300.02,1164.7,1299.83,1167.49,1299.38,1170.94z"/>
	<path d="M1277.98,1615.5c0.75-3.78,2.88-4.14,5.52-3.84c2.81,3.04,2.13,5.86-0.21,8.93
		C1280.23,1620.14,1279.29,1617.7,1277.98,1615.5z"/>
	<path d="M1167.54,400.16c-8.47,16.58-18.71,31.57-26.32,48.04c-0.52,1.12-0.79,2.36-1.2,3.62c5.51-2.05,10.57-3.97,15.64-5.83
		c9.83-3.6,18.72-2.12,26.67,5.15c0.53,5.14,0.94,10.35-0.64,15.63c-0.93,3.1-2.23,5.77-4.6,7.9c-5.45,4.88-10.91,9.76-16.42,14.56
		c-3.12,2.72-6.73,4.06-10.99,3.9c-3.53-0.13-7.08,0.3-11.02,0.49c-1.27-0.59-2.81-1.5-4.48-2.04c-7.71-2.49-11.07-13.15-9.68-19.95
		c2.46-12.03,6.32-23.55,12.38-34.25c7.74-13.68,15.63-27.28,23.37-40.95c1.41-2.48,2.44-5.17,3.71-7.92
		c-3.71-11.52-7.38-22.88-10.83-33.57c-6.82-5.47-13.02-10.49-19.26-15.44c-19.29-15.3-29.83-35.92-35.77-59.22
		c-2.69-10.56-3.3-21.45-3.92-32.29c-0.39-6.74,1.27-13.19,3.41-19.54c0.7-2.07,1.18-4.21,1.7-6.1
		c6.99-13.53,17.65-22.44,32.12-26.96c2.57,2.46,4.77,4.57,6.69,6.4c-2.49,14.33-14.44,24.53-32.24,27.66
		c-3.1,5.15-4.52,11.21-4.41,17.39c0.15,8.4,1.04,16.8,1.76,25.19c1.26,14.64,6.37,28.09,13.73,40.6
		c4.02,6.82,8.46,13.68,13.99,19.25c5.64,5.67,11.71,11.3,19.92,15.56c-0.44-2.83-0.44-4.84-1.09-6.6
		c-3.32-9.03-4.64-18.47-5.82-27.93c-0.96-7.68-2.03-15.4-2.22-23.12c-0.17-6.82,0.53-13.71,1.38-20.5
		c0.71-5.69,1.94-11.35,3.39-16.9c1.22-4.67,3.07-9.18,4.7-13.93c1.77,0.33,3.04,0.56,4.71,0.86c3.65-5.17,9.02-7,15.81-6.36
		c1.8,1.96,3.73,4.06,6.05,6.58c-1.21,9.19-6.73,15.96-12.47,22.3c-4.2,2.19-8.21,2.99-12.82,1.14c-0.57,1.6-1.27,2.95-1.53,4.38
		c-3.07,17.01-2.21,33.96,0.66,50.92c1.63,9.62,4.38,18.95,6.49,28.44c1.36,6.1,5.06,9.65,9.75,12.73
		c3.13,2.06,6.46,3.81,10.15,5.96c0.88-0.87,2.11-1.75,2.92-2.93c2.75-4.02,5.3-8.17,8.02-12.21c0.97-1.45,2.18-2.73,3.04-3.79
		c1.42-3.33,2.71-6.36,3.95-9.27c7.21-3.29,13.96-6.25,21.58-7.53c9.36-1.57,18.72-3.84,27.66-6.99c7-2.46,14.1-5.3,19.92-10.41
		c1.58-1.39,3.8-2.04,5.76-3.06c2.4,1.38,4.46,2.57,6.61,3.8c-1.03,3.38-4.14,4.19-6.25,5.95c-5.51,4.6-11.77,7.79-18.84,9.45
		c-11.2,2.63-22.34,5.47-33.51,8.22c-0.43,0.11-0.87,0.15-1.31,0.23c-9.52,1.71-16.72,6.4-21.17,15.35
		c-2.35,4.73-5.76,8.94-8.66,13.4c-0.7,1.08-1.27,2.25-2,3.55c1.11,0.82,1.9,1.61,2.86,2.08c17.99,8.76,36.47,16.22,56.13,20.33
		c9.33,1.95,18.71,3.55,28.32,3.2c4.2-0.15,8.44,0.42,12.64,0.19c17.02-0.92,34.14-1.25,50.53-6.89c1.67-0.58,3.39-1.25,5.12-1.37
		c5.03-0.36,9.37-2.58,13.74-4.73c9.93-4.88,14.38-8.25,20.26-15.42c-1.18-0.56-2.22-1.11-3.31-1.56
		c-7.3-2.99-12.34-8.56-16.46-14.95c-2.66-4.12-3.14-8.7-0.52-13.25c1.75-3.04,3.39-6.15,4.85-8.81c10.7-1.95,25.89,2.92,37.23,11.7
		c0.11,4.88-0.24,9.87-2.52,14.58c-1.06,2.2-2,4.45-3.01,6.67c-1.77,3.89-4.25,7.26-7.51,10.05c-2.01,1.73-4.09,3.4-5.94,5.3
		c-6.48,6.65-14.4,10.92-23.02,13.95c-5.84,2.05-11.7,4.19-17.71,5.57c-5.56,1.28-11.32,2.09-17.01,2.22
		c-8,0.18-15.83,1.18-23.71,2.42c-4.33,0.68-8.85,0.34-13.27,0.14c-5.31-0.23-10.61-0.73-15.9-1.24
		c-11.9-1.13-23.74-2.61-35.17-6.41c-5.45-1.81-10.98-3.36-16.44-5.14c-2.94-0.96-5.85-2.06-8.69-3.29
		c-7.31-3.18-14.56-6.48-21.86-9.7c-0.79-0.35-1.68-0.46-3.15-0.85c-3.48,5.53-7.49,10.75-9.74,17.4c0.61,1.96,1.01,4.18,1.96,6.13
		c2.21,4.58,4.66,9.05,7.03,13.55c1.64,3.12,3.19,6.3,4.98,9.33c4.72,7.98,10.33,15.34,16,22.65c2.01,2.59,3.64,5.48,5.43,8.24
		c0.72,1.1,1.25,2.37,2.14,3.31c3.19,3.35,6.5,6.59,9.75,9.87c0.47,0.47,1.04,0.9,1.35,1.46c7.27,13.58,19.43,22.14,31.6,30.63
		c10.96,7.64,22.87,13.75,35.1,18.9c12.55,5.28,25.87,7.73,39.67,5.49c6.51-1.06,12.33-3.83,17.59-7.54
		c10.87-7.67,19.08-17.68,24.67-29.8c2.05-4.45,2.32-8.95,0.81-13.59c-1.36-4.18-4.36-6.29-9.29-7.5c1.12,4.45,4.12,7.82,2.46,12.58
		c-3.89,4.4-8.08,9.9-15.6,7.92c-6.02-1.58-9.61-6.03-10.53-12.39c2.16-4.88,5.26-8.89,8.98-12.4c2.56-2.41,5.7-3.36,9.23-2.62
		c10.54,2.21,18.1,8.08,21.84,18.3c2.31,6.3,0.46,12.39-2.51,17.91c-2.72,5.05-6.01,9.85-9.48,14.43
		c-8.05,10.62-18.73,17.47-31.63,20.71c-4.27,1.07-8.62,1.76-13.15,0.88c-4.31-0.83-8.76-0.97-13.11-1.63
		c-12.43-1.88-23.8-6.61-34.59-12.96c-5.91-3.48-12.21-6.33-18.03-9.94c-12.84-7.97-25.03-16.97-34.7-28.63
		c-7.19-8.67-15.23-16.66-21.34-26.28c-5.45-8.58-11.88-16.53-17.47-25.03c-3.4-5.16-6.04-10.82-8.99-16.27
		C1171.39,404.76,1170.29,402.37,1167.54,400.16z M1174.93,369.31c-3.77-2.66-7.57-5.34-11.36-8.02c1.33,6.1,1.11,12.41,5.54,17.54
		C1171.76,375.82,1174.36,373.46,1174.93,369.31z"/>
	<path d="M919.05,425.99c-0.31,4.24-3.35,7.19-5.44,10.41c-6.27,9.67-12.8,19.2-19.76,28.38c-7.8,10.27-17.54,18.75-27,27.46
		c-9.6,8.84-20.76,15.08-32.79,19.8c-6.39,2.51-13.06,3.97-20.04,4.06c-7.75,0.1-13.71-3.5-18.59-8.87
		c-4.09-4.5-5.39-10.06-3.6-16.14c2.75-9.33,7.34-17.58,14.18-24.51c6.06-6.14,12.8-9.71,21.44-4.77c4.78,2.9,3.04,8.9,5.96,12.65
		c-1.18,5.04-2.7,9.61-7.2,12.55c-3.47,0.57-5.88-1.25-8.22-3.45c-1.39-5.84,1.32-9.85,6.04-13.39c-0.52-1.79-1.03-3.56-1.67-5.8
		c-2.56,1.27-4.76,1.93-6.42,3.26c-9.78,7.8-16.2,17.59-16.77,30.43c-0.39,8.81,6.15,14.85,14.83,13.56
		c10.57-1.57,20.56-4.86,29.99-10.17c9.83-5.54,17.56-13.43,25.52-21.09c12.69-12.2,22.97-26.4,32.74-40.96
		c4.81-7.17,9.44-14.47,14.07-21.76c0.76-1.2,1.09-2.67,1.86-4.61c-3.75,0.25-6.78,0.65-9.81,0.62c-5.97-0.07-11.95-0.17-17.89-0.62
		c-12.27-0.94-24.07-3.96-35.12-9.4c-7.21-3.55-13.52-8.47-19.02-14.35c-3.52-3.75-6.15-8.02-7.86-12.97
		c-4.6-13.34-7.41-26.99-6.45-41.12c0.75-11.09,6.27-19.66,15.68-25.65c6.86-4.37,13.78-2.95,19.21,1.41
		c5.51,4.42,7.82,10.33,5.28,17.78c-2.68,7.84-8.51,13.52-17.26,15.41c-6.87-2.39-10.65-7.42-11.98-15.86
		c-1.3,2.16-2.1,3.1-2.45,4.17c-0.47,1.46-0.73,3.02-0.82,4.56c-0.89,14.6,1.19,28.75,6.66,42.34c0.57,1.41,1.28,2.9,2.32,3.96
		c3.72,3.8,7.35,7.75,11.5,11.04c3.78,2.99,8.01,5.6,12.38,7.66c8.5,4,17.57,6.25,26.97,6.61c9.52,0.37,19.05,0.36,28.58,0.46
		c1.08,0.01,2.17-0.35,3.71-0.62c4.09-6.84,8.21-13.9,12.5-20.87c2.54-4.12,5.33-8.09,8.01-12.13c-0.66,1.85-1.09,3.82-2.02,5.53
		c-4.22,7.79-8.59,15.51-12.87,23.27c-0.39,0.7-0.54,1.53-0.91,2.61c3.12,0.55,3.6-1.68,4.5-3.26
		c7.35-12.86,14.81-25.67,21.99-38.63c8.78-15.84,17.5-31.7,26.87-47.2c0.08-0.14-0.39-0.62-0.84-1.29
		c-1.65,1.39-3.28,2.76-4.9,4.13c2.27-6.87,7.15-12.2,10.81-18.25c1.02-1.68,2.27-3.22,3.91-5.52c-5.1-0.52-9.6-1.42-11.78-6.59
		c0.23-4.46,2.61-7.46,7.12-8.99c2.51-0.85,4.97-1.92,7.39-3.01c2.91-1.31,5.85-2.06,8.94-1.27c5.45,2.62,7.77,7.72,10.86,13.02
		c-4.76-1.08-7.4,1.72-9.97,4.48c-7.73,8.32-14.38,17.49-20.17,27.22c-10.55,17.73-20.85,35.61-31.21,53.45
		c-5.01,8.63-9.93,17.32-14.88,26c-0.97,1.7-1.85,3.45-2.81,5.26c7.46,1.67,13.29-0.49,16.71-6.09
		c7.41-12.13,15.39-23.81,25.72-33.74c2.05-1.97,3.55-4.5,5.48-6.61c1.32-1.45,2.95-2.61,4.43-3.92c1.96-1.73,3.92-3.46,5.84-5.24
		c1.14-1.05,2.07-2.36,3.33-3.23c1.24-0.86,2.77-1.33,4.07-1.92c3.54-6.1,9.82-8.88,14.69-13.24c5.45-4.88,11.94-3.52,17.71-3.32
		c13.95-27.54,28.99-68.23,28.16-75.93c-1.74,1.12-3.39,2.18-5.26,3.39c-1.58,0-3.33,0-5.74,0c-1.4-1.68-3.06-3.67-4.45-5.34
		c0-3.89,0-7.2,0-10c6.21-12.25,12.79-17.54,20.95-16.72c2.14,2.34,4.51,4.93,6.92,7.57c-0.25,1.78-0.44,3.29-0.69,4.78
		c-0.68,4.14-1.29,8.29-2.11,12.4c-0.86,4.28-1.57,8.73-6.72,10.77c0.82,1.37,1.45,2.43,2.11,3.54c-0.76,5.37-3.12,10.03-6.88,14.54
		c1.41,2.62,1.52,5.45,0.23,8.53c-2.14,5.08-3.87,10.34-5.79,15.52c-2.14,5.76-5.62,10.65-9.48,15.39
		c-1.88,2.31-2.87,5.35-4.37,8.27c2.4,1.99,4.67,1.66,6.57,0.71c6.94-3.45,14.68-3.03,21.91-4.91c5.1-1.33,9.97-3.49,14.98-5.2
		c3.55-1.21,7.14-2.26,10.49-3.31c2.58,1.34,4.73,2.46,6.97,3.62c0.04,2.72-1.81,3.81-3.95,4.51c-5.25,1.73-10.5,3.48-15.81,5.02
		c-8.73,2.53-17.45,5.09-26.27,7.28c-6.84,1.7-13.82,2.85-21.46,4.38c-5.57,11.29-13.02,22-21.15,32.2
		c-8.16,10.22-17.82,19-28.32,27.31c-2.24,0.97-4.83,2.1-7.4,3.22c0.4,1.1,0.65,1.81,1.03,2.84c-7.32,1.64-15.05,1.01-21.55,5.99
		c-8.3,14.43-16.89,29.05-21.21,47.26c3.9-3.15,6.81-5.16,9.3-7.6c4.68-4.58,10.48-5.75,16.54-5.44c6.75,0.35,13.1,2.35,17.92,6.93
		c4.49,7.01,5.71,14.27,3.49,21.91c-0.91,3.15-2.39,6.15-3.77,9.15c-2.84,6.17-7.53,10.99-12.3,15.58c-2.1,2.02-5.38,3.03-8.3,3.9
		c-3.56,1.06-7.39,2.4-10.94,2.05c-13.44-1.31-22.52-12.13-22.5-26.45c0.65-0.69,1.54-1.62,2.64-2.78
		c-0.06-1.14-0.13-2.53-0.23-4.35c-0.47,1.43-0.8,2.44-1.65,5.02c-0.66-1.58-1.11-2.15-1.08-2.69c0.25-4.2-0.06-8.57,1.02-12.56
		c3.48-12.83,7.57-25.47,14.28-37.08c1.63-2.82,3.41-5.62,4.21-9.38c-4.24,0-7.91,0-11.56,0c-3.46,4.48-6.84,8.83-10.21,13.19
		c0.16-1.53,0.31-3.07,0.44-4.26c1.72-2.66,4.44-4.45,3.55-7.95c-4.39,2.16-5.48,6.83-7.96,10.39c-2.39,3.43-4.6,7-6.67,10.63
		c-2.04,3.58-5.15,6.69-6.14,12.47c2.7-3.38,4.61-5.49,6.2-7.82c2.49-3.63,4.66-7.47,7.19-11.06
		C916.29,427.44,917.84,426.83,919.05,425.99z M958.96,400.65c1.12,0.1,1.8,0.34,2.36,0.17c5.33-1.57,10.61-3.37,15.01-6.89
		c5.18-4.14,10.37-8.31,15.24-12.81c8.44-7.82,16.51-16.04,22.74-25.81c2.73-4.29,5.1-8.8,7.56-13.25c0.44-0.8,0.53-1.79,0.91-3.14
		c-10.4,2.85-18.48,8.23-25.44,15.13c-7.7,7.64-15.14,15.58-22.23,23.79c-5.06,5.85-9.39,12.33-13.97,18.58
		C960.28,397.59,959.78,399.03,958.96,400.65z M940.03,427.01c1.35-2.88,2.63-5.06,3.39-7.4c0.8-2.45,3.71-4.18,2.95-7.54
		C941.13,415.32,938.88,420.43,940.03,427.01z"/>
	<path d="M1384.57,308.54c-7.17,0.77-7.17,0.77-10.54-3.29c0.72-1.34,1.66-2.8,2.31-4.37c1.01-2.43,2.17-4.88,2.62-7.44
		c0.59-3.31-0.82-6.09-3.72-7.94c-3.4-2.17-7.05-3.7-11.1-4.23c-15.76-2.06-29.97,1.06-41.95,12.15c-2.58,2.39-5.49,4.42-8.86,7.1
		c-0.7-0.07-2.14-0.22-3.66-0.37c-0.05-1-0.28-1.69-0.09-2.24c1.66-5.02,4.83-8.81,9.15-11.9c13.34-9.54,28.21-12.72,44.2-10.35
		c10.69,1.58,19.85,6.16,25.07,16.7c4.12-1.89,7.85-3.8,11.72-5.32c15.52-6.12,31.55-7.04,47.73-3.57
		c22.21,4.77,41.56,14.93,57.57,31.31c12.23,12.52,16.14,27.54,14.58,44.56c-1.52,16.7-8.25,31.16-18.65,43.97
		c-6.98,8.61-14.29,17.04-23.43,23.5c-5.4,3.82-11.13,7.19-16.89,10.86c0.41,1.94,2.56,1.73,4.05,2.17
		c7.29,2.17,14.01,5.56,20.55,9.35c6.47,3.74,11.92,8.49,14.63,16.19c0.66,3.26-0.22,6.55-1.86,9.85
		c-5.45,10.99-13.34,19.8-23.38,26.74c-1.27,0.88-2.6,1.78-4.04,2.29c-2.83,1-5.53,0.99-7.81-2.26c1.21-0.75,2.03-1.41,2.96-1.81
		c12.3-5.31,20.03-15.13,25.71-26.7c3.4-6.93,1.79-11.99-4.51-16.88c-7.82-6.08-16.81-10.04-26.21-12.65
		c-5.01-1.39-10.56-0.84-15.87-1.09c-4.34-0.21-4.34-0.16-6.64-4.54c1.43-0.51,2.79-1.4,4.16-1.42c10.6-0.12,19.05-5.58,27.31-11.17
		c11.52-7.79,20.4-18.37,29.05-29.07c9.4-11.61,13.47-25.3,14.82-39.93c0.59-6.43,0.4-12.78-1.29-19.14
		c-1.99-7.51-5.67-13.93-10.98-19.48c-6.97-7.28-15.12-13.02-24.06-17.62c-11.28-5.81-22.83-10.76-35.65-12.19
		c-8.01-0.89-15.9-0.47-23.84,0.61c-12.19,1.66-22.04,7.54-30.39,16.27C1386.27,306.32,1385.35,307.59,1384.57,308.54z"/>
	<path d="M815.13,248.45c-0.67,1.05-1.36,2.15-1.91,3.02c-2.62,0.68-4.15-0.72-5.75-1.9c-2.68-1.97-5.27-4.06-8-5.94
		c-11.27-7.78-20.9-4.76-28.59,4.78c-8.2,10.18-12.36,21.99-12.07,35.12c0.34,15.45,6,28.96,15.9,40.69
		c1.48,1.75,3.65,2.93,5.87,4.67c-2.61,1.61-4.52,0.31-6.5-0.2c-5.3-5.41-10.38-10.76-14.02-17.61c-6.92-13-8.32-26.67-5.83-40.71
		c1.85-10.43,7.04-19.59,14.28-27.4c7.48-8.07,16.72-9.41,26.84-6.24c2.7,0.85,5.22,2.3,8.37,3.72c-0.09-1.45,0.01-2.64-0.25-3.75
		c-2.19-9.26-5.21-18.41-6.48-27.79c-1.81-13.35-3.68-26.87-0.7-40.35c2.41-10.89,7.45-20.35,16.07-27.67
		c4.49-3.81,9.85-4.96,15.54-4.75c9.49,0.34,18.1,3.73,26.7,7.51c10.79,4.74,18.81,12.42,25.12,22.03
		c9.05,13.77,16.19,28.49,20.63,44.43c0.7,2.53,1.13,5.2,1.22,7.82c0.16,5.05,1.85,9.52,4.37,13.78c0.56,0.94,0.96,1.98,1.51,3.13
		c-3.17,5.45-4.04,11.54-5.29,17.61c-1.45,7.08-5.14,13.3-10.85,17.84c-7.68,6.1-20.64,1.74-24.2-7.9
		c-3.01-8.15-1.02-15.79,2.84-23.03c4.49-8.44,11.37-13.44,21.3-13.53c1.24-0.01,2.48-0.51,3.97-0.83c0-1.36,0.17-2.45-0.03-3.49
		c-2.47-13.37-6.19-26.27-13.06-38.19c-4.65-8.07-8.74-16.43-14.73-23.69c-5.36-6.5-11.67-11.51-19.68-14.23
		c-4.4-1.49-8.77-3.18-13.28-4.24c-9.57-2.24-17.1,0.94-23.45,8.54c-7.07,8.46-9.59,18.35-10.68,28.83
		c-1.48,14.3,0.47,28.42,4.14,42.15c1.98,7.4,5.33,14.48,7.42,21.94C812.42,244.63,813.96,246.41,815.13,248.45z M877.07,268.62
		c4.93,1.14,9.17-0.03,12.18-4.31c6.96-9.91,8.2-21.01,7.01-32.54c-8.07-1.92-15.75,1.76-20.36,9.37
		C869.64,251.45,869.99,260.17,877.07,268.62z"/>
	<path d="M692.98,552.92c1.36,1.03,2.37,1.79,3.13,2.36c-0.75,1.35-0.86,1.92-1.18,2.08c-14.1,7.21-28.39,8.43-42.65,0.71
		c-5.49-2.98-10.29-6.88-12.29-13.35c-0.98-3.16-1.07-6.23,0.2-9.1c2.45-5.53,5.7-10.33,11.33-13.43c10.89-6,22.35-9.65,34.81-10.13
		c4.59-0.18,9.17-0.51,14.87-0.83c-3.22-3.06-6.12-5.11-8.03-7.83c-1.98-2.82-3.64-6.2-4.29-9.55c-0.65-3.36,0.11-7,0.24-10.14
		c4.62-4.75,8.4-9.42,14.57-11.12c2.51-0.69,4.8-0.89,6.9,0.83c0.44,0.36,0.59,1.07,0.91,1.7c-2.38,0.55-4.75,0.66-6.7,1.62
		c-9.76,4.81-11.96,17.25-4.41,25.16c2.1,2.2,4.76,3.94,7.33,5.62c2.75,1.8,5.69,3.29,9.19,5.27c-1.34,1.25-2.06,2.44-3.04,2.73
		c-1.43,0.43-3.06,0.38-4.58,0.25c-11.81-0.97-23.51,0.05-35.1,2.23c-7.28,1.37-13.95,4.34-19.95,8.74
		c-2.74,2.01-4.79,4.51-6.29,7.59c-3.37,6.92-1.85,12.77,4.49,17.33c8.28,5.95,17.29,7.67,27.13,5.02
		C683.82,555.52,688.07,554.29,692.98,552.92z"/>
	<path d="M1175.34,519.07c-3.45,3.86-6.04,6.76-8.92,9.99c-2.44-1.92-4.48-3.52-6.86-5.39c-1.09-0.1-2.61-0.24-4.51-0.42
		c-0.13-1.24-0.79-2.77-0.3-3.66c1.87-3.42,3.41-7.18,7.53-9.79c2.34,0.74,5.01,1.59,8.79,2.8c0.53-0.95,1.39-2.48,1.96-3.49
		c5.16-0.36,7.63,2.23,9.99,5.98c-2.93,5.04-5.9,10.15-8.95,15.4c-1.12-0.18-1.91-0.3-2.96-0.47
		C1171.18,526.1,1175.03,524.08,1175.34,519.07z"/>
	<path d="M913.54,539.46c-2.71-0.93-5.13-1.77-7.49-2.58c0.47-5.03,2.97-10.04,7.42-15.06c5.72,0.86,6.88,1.55,9.46,5.7
		c3.85-3.18,7.22-1.92,10.73,1.27c-1.54,5.4-4.93,9.72-7.47,14.77c-2.85-0.96-5.45-1.84-8.38-2.83c0.4-2.78,0.77-5.32,1.36-9.41
		c-1.69,2.06-2.6,3-3.32,4.07C915.02,536.64,914.36,538,913.54,539.46z"/>
	<path d="M1012.59,528.1c13.75,4.22,27.08,4.68,41.12,2.73c2.81-1.39,6.17-3.06,9.95-4.94c2.02,0.89,4.17,1.84,6.32,2.79
		c-2.27,4.68-7.64,8.21-12.77,8.56c-6.39,0.43-12.79,1.1-19.18,0.99c-7.32-0.12-14.5-1.6-21.19-4.81
		C1015.1,532.58,1013.15,531.79,1012.59,528.1z"/>
	<path d="M974.03,320.57c-2.3,4.44-4.64,8.87-6.9,13.34c-0.79,1.55-1.51,3.15-2.1,4.79c-1.28,3.51-2.71,6.83-5.64,9.42
		c-1.41,1.25-2.49,3.1-3.21,4.88c-2.23,5.56-5.59,10.39-9.19,15.1c0.89-2.47,1.44-5.13,2.71-7.38c6.87-12.1,13.9-24.12,20.95-36.12
		C971.53,323.12,972.9,321.91,974.03,320.57z"/>
</g>
</svg>
