<?xml version="1.0" encoding="utf-8"?>
<!-- Generator: Adobe Illustrator 27.4.0, SVG Export Plug-In . SVG Version: 6.00 Build 0)  -->
<svg version="1.1" id="Calque_1" xmlns="http://www.w3.org/2000/svg" xmlns:xlink="http://www.w3.org/1999/xlink" x="0px" y="0px"
	 viewBox="0 0 2000 2000" style="enable-background:new 0 0 2000 2000;" xml:space="preserve">
<g>
	<path d="M110.85,1660.2c1.77-0.4,2.89-0.65,3.52-0.79c6.7,10.79,5.66,21.79,3.91,33c-0.71,4.55-0.06,9.32-0.05,13.99
		c0.01,5.41,0,10.82,0,16.27c-3.22,0.55-5.48-0.77-6.21-3.92c-0.23-0.99-0.25-2.05-0.22-3.07c0.13-5.68,0.41-11.22-0.64-17.01
		c-0.86-4.75,0.68-10.3,2.39-15.06c2.17-6.04,1.45-11.5-0.64-17.15C112.25,1664.7,111.73,1662.89,110.85,1660.2z"/>
	<path d="M241.76,751.7c-0.44-1.49-0.91-2.44-0.97-3.42c-1.4-21.92-3.05-43.86-1.24-65.82c1.04-12.61,2.87-25.16,4.33-37.74
		c2.03-17.43,5.21-34.62,10.13-51.5c8.62-29.53,21.39-57.02,39.33-82.06c3.17-4.43,6.15-9.03,9.71-13.12
		c3.96-4.54,4.8-9.89,5.5-15.47c3.12-25,5.65-50.02,6.58-75.23c0.64-17.26,0.65-34.45-0.31-51.68c-0.51-9.12-2.78-17.68-7.4-25.64
		c-4.74-8.17-13.73-11.24-22.38-7.55c-9.02,3.85-15.25,11.04-21.34,18.19c-21.17,24.88-35.41,53.74-47.34,83.89
		c-7.6,19.19-14.03,38.76-18.82,58.82c-3.31,13.87-6.71,27.81-8.6,41.91c-2.18,16.31-3.2,32.83-2.07,49.34
		c0.12,1.83,0.95,3.62,1.66,6.2c-3.13,2.46-6.63,5.21-9.51,7.47c-3.86-0.35-4.89-2.25-5.09-4.61c-0.36-4.25-0.66-8.52-0.69-12.78
		c-0.08-14.14-0.39-28.33,2.21-42.31c2.23-12.01,4.52-24.03,7.34-35.91c6.71-28.27,15.67-55.83,27.07-82.57
		c11.97-28.07,27.23-54.15,46.94-77.58c7.24-8.61,14.9-16.75,23.96-23.41c3.75-2.76,7.93-5.29,12.31-6.77
		c9.25-3.13,17.46,0.02,24.26,6.4c7.6,7.14,10.85,16.55,12.68,26.63c3.36,18.61,1.68,37.3,1.12,55.97
		c-0.38,12.8-1.07,25.6-2.06,38.37c-0.94,12.17-2.45,24.29-3.69,36.43c-0.14,1.36-0.15,2.74-0.22,4.11
		c0.33,0.18,0.66,0.35,0.98,0.53c1.19-0.92,2.47-1.75,3.55-2.78c10.44-10.01,21.4-19.38,33.87-26.81c9-5.36,18.16-10.34,28.63-12.39
		c14.76-2.89,28.83,3.02,36,16.25c3.11,5.74,5.23,12.18,6.8,18.55c2.07,8.41,3.6,17.02,4.53,25.63c1.18,10.96,2.13,22.02,2.11,33.03
		c-0.03,18.41-0.22,36.87-1.6,55.22c-1.54,20.53-4.22,40.99-6.88,61.42c-2.05,15.75-4.55,31.45-7.36,47.09
		c-3.1,17.22-6.79,34.34-10.21,51.5c-2.93,14.71-5.7,29.45-8.77,44.13c-3.56,17-7.35,33.95-11.06,50.92
		c-1.26,5.74-2.58,11.47-3.8,17.23c-0.17,0.79,0.07,1.66,0.16,3.21c1.31-1.1,2.18-1.76,2.97-2.51c6.98-6.54,13.64-13.46,20.98-19.55
		c7.86-6.52,17.23-9.41,27.58-8.52c6.14,0.53,10.81,3.75,14.46,8.4c5.11,6.51,7.87,13.98,9,22.22c1.96,14.37,2.23,28.78,1.47,43.22
		c-0.79,15-1.21,30.05-2.92,44.95c-1.84,16.06-4.87,31.98-7.6,47.93c-2.24,13.06-4.81,26.06-7.21,39.1
		c-0.12,0.63-0.02,1.31-0.02,2.94c1.37-1.53,2.14-2.31,2.84-3.16c10.66-13.09,22.4-25.02,36.83-34.02
		c4.47-2.79,9.28-4.62,14.65-4.03c7.08,0.78,13.78,4.58,11.4,14.54c-5.3,22.21-16.07,40.98-34.27,55.18
		c-11.48,8.96-22.83,18.11-34.38,26.97c-4.31,3.31-9.04,6.06-13.55,9.04c-3.39,7.1-12.93,11.84-19.88,9.47
		c1.11-3.87,2.11-7.82,3.36-11.69c6.17-19.08,10.34-38.66,14.26-58.28c2.39-11.97,4.07-24.08,6.12-36.12
		c1.66-9.7,3.37-19.4,5.11-29.08c3.64-20.22,4.56-40.69,4.98-61.15c0.29-14.26-0.12-28.55-0.6-42.81
		c-0.23-6.79-1.91-13.37-5.61-19.3c-5.36-8.58-12.42-10.02-20.39-3.96c-9.2,7.01-17.18,15.27-24.12,24.47
		c-4.07,5.4-7.6,11.2-11.27,16.89c-3.75,5.82-4.69,12.61-6.54,19.11c-4.73,16.56-9.71,33.04-14.62,49.55
		c-1.29,4.35-2.67,8.67-3.98,12.94c-5.34,2.26-9.66,6.35-15.6,4.46c2.31-19.51,4.65-38.46,12.36-56.24
		c2.99-6.89,6.24-13.71,8.49-20.84c2.7-8.53,4.64-17.32,6.59-26.06c3.74-16.8,7.37-33.62,10.83-50.48
		c4.08-19.91,7.93-39.86,11.88-59.79c3.58-18.05,7.34-36.06,10.69-54.15c2.95-15.93,5.86-31.89,8.02-47.94
		c2.26-16.77,4.05-33.64,5.27-50.52c1.78-24.53,3.21-49.09,4.09-73.66c0.35-9.65-0.76-19.43-1.97-29.06
		c-1.54-12.26-3.07-24.59-7.18-36.35c-3.26-9.32-8.62-16.72-18.86-19.38c-5.71-1.48-11.13-0.51-16.35,1.73
		c-16.19,6.94-30.07,17.3-42.76,29.35c-3.63,3.45-7,7.17-10.67,10.58c-2.98,2.76-4.4,6.13-5.08,10.02
		c-2.81,16.1-5.47,32.22-8.61,48.26c-3.59,18.33-7.62,36.56-11.47,54.84c-3.52,16.7-6.96,33.41-10.59,50.09
		c-4.8,22.01-10.02,43.93-18.01,65.03c-3.01,7.94-7.12,15.48-10.91,23.11C257.42,746.64,249.9,749.21,241.76,751.7z M254.38,727
		c0.44,0.11,0.87,0.21,1.31,0.32c0.73-1.01,1.71-1.92,2.16-3.04c1.87-4.64,3.89-9.25,5.31-14.03c7.63-25.69,13.18-51.87,18.35-78.14
		c5.2-26.4,10.29-52.83,15.36-79.25c1.91-9.97,3.65-19.97,5.4-29.97c0.22-1.26,0.03-2.58,0.03-3.88c-1.4,0.45-1.97,0.93-2.36,1.52
		c-1.54,2.33-3.11,4.64-4.52,7.05c-14.75,25.2-25.28,52.03-32.1,80.45c-4.44,18.5-6.98,37.2-8.62,56.1
		c-1.7,19.55-1.6,39.12-0.89,58.71C253.86,724.23,254.18,725.61,254.38,727z"/>
	<path d="M1268.41,803.25c0.27-3.4,0.54-6.8,0.89-11.18c10.31-11.79,17.42-27.41,30.47-39.26c1.03-3.53,1.03-3.53,7.41-9.08
		c1.81-6.97,11.86-17.85,18.15-18.18c-0.77-1.24-1.58-2.57-2.78-4.52c2.14-0.28,3.24-0.42,4.38-0.57c3.54-3.6,7.13-7.23,10.71-10.87
		c-0.19-0.3-0.37-0.61-0.56-0.91c-0.88-0.06-1.75-0.11-2.66-0.17c5.98-6.62,12.03-13.15,17.87-19.85
		c5.71-6.56,12.28-12.41,17.84-20.13c-23.04-5.57-45.34-5.13-67.75-2.43c-0.09-0.39-0.18-0.78-0.27-1.17
		c2.89-1.32,5.78-2.63,8.98-4.09c1.1,0.3,2.54,0.69,3.97,1.08c-2.72-3.6-6.4-2.48-9.89-2.47c-2.28,0.01-4.56-0.39-6.83-0.32
		c-2.54,0.08-5.31-0.06-7.57,0.89c-5.28,2.22-10.86,1.56-16.26,2.44c-0.86,0.14-1.75,0.17-2.87,0.27c-0.52,1.1-1.05,2.23-1.76,3.72
		c-3.05-3.72-6.07-2.73-8.95-0.21c-1.4-0.54-2.59-1.01-3.28-1.27c-1.86,0.77-3.35,1.2-4.63,1.97c-1.21,0.72-2.2,1.8-3.38,2.79
		c-0.26-0.48-0.57-1.05-0.84-1.54c-2.69,0.45-5.36,0.81-7.99,1.36c-2.63,0.55-5.21,1.31-7.57,1.91c-3.41,0.72-6.59,1.27-9.72,2.09
		c-4.68,1.22-9.29,2.67-13.96,3.93c-1.52,0.41-3.13,0.5-4.53,1.03c-5.72,2.04-11.46,4.03-17.15,6.14
		c-5.34,1.98-10.68,3.96-15.89,6.24c-1.66,0.73-2.89,2.42-4.23,3.6c-2.87-4.39-6.77,3.44-10.05-0.26
		c18.46-8.52,37.33-16.75,57.58-21.16c1.64-0.86,3.19-2.11,4.93-2.53c13.58-3.27,27.15-6.56,40.81-9.48
		c10.62-2.27,21.32-4.31,32.06-5.92c21.01-3.16,42.15-4.64,63.36-2.49c7.59,0.77,15.09,2.53,22.63,3.85c1.14,0.2,2.27,0.42,3,0.56
		c2.5-2.19,4.65-4.08,6.8-5.97c3.2-5.1,8.22-8.62,12.59-12.69c6.14-5.72,12.43-11.3,18.87-16.67c10.06-8.38,19.99-16.96,30.54-24.69
		c16.25-11.91,32.72-23.56,49.57-34.61c42.37-27.79,86.76-51.87,134.16-70.01c14.29-5.47,28.97-9.92,43.53-14.69
		c23.16-7.59,46.99-12.33,71-16.13c22.46-3.56,44.85-3.39,67.24,1.3c19.45,4.07,32.01,15.67,38.58,33.92
		c9.63,26.74,9.97,53.47-2.14,79.59c-6.5,14.02-13.52,27.82-20.83,41.43c-10.8,20.12-21.88,40.1-33.21,59.93
		c-6.36,11.12-13.46,21.82-20.22,32.71c-0.68,1.09-1.3,2.21-2.48,4.22c1.83-0.56,2.81-0.64,3.54-1.11
		c13.87-8.93,28.88-15.34,44.73-19.69c5.35-1.47,10.97-2.01,16.49-2.83c7.21-1.07,10.76,7.38,8,12.74
		c-9.84,19.17-23.7,34.8-41.08,47.23c-11.37,8.14-23.41,15.33-35,23.18c-10.85,7.35-21.38,15.17-32.25,22.49
		c-13.07,8.8-26.32,17.32-39.54,25.89c-5.67,3.67-11.47,7.15-17.35,10.8c-4.18-2.35-9.32-2.08-12.57-5.93
		c4.26-11.4,12.52-19.74,19.84-28.63c18.08-21.94,36.73-43.46,52.68-67.03c10.9-16.1,21.47-32.47,31.16-49.31
		c17.78-30.9,34.86-62.21,52.13-93.41c5.87-10.61,10.59-21.76,13.09-33.66c3.19-15.17,2-30.28-2.54-44.99
		c-2.02-6.55-4.96-12.92-8.28-18.93c-3.44-6.22-9.14-10.24-15.9-12.71c-9.93-3.63-20.19-5.2-30.72-5.66
		c-25.29-1.09-49.91,3.19-74.36,8.94c-30.18,7.09-59.52,16.7-87.98,29.02c-29.4,12.73-57.84,27.34-85.06,44.19
		c-21.52,13.33-42.67,27.29-63.58,41.57c-10.91,7.45-21.27,15.82-31.3,24.45c-14.05,12.1-27.55,24.83-41.26,37.31
		c-0.72,0.65-1.16,1.6-2.08,2.91c3.61,1.9,6.88,3.8,10.29,5.39c19.38,9.04,30.36,26.69,28.91,47.89
		c-0.88,12.86-4.71,25.17-9.2,37.19c-9.24,24.78-20.8,48.47-34.35,71.16c-17.35,29.03-38.44,55.04-64.13,77.12
		c-22,18.92-46.16,34.56-72.78,46.25c-12.16,5.34-24.54,10.11-37.69,12.27c-8.59,1.42-17.29,1.93-25.86-0.58
		c-7.05-2.06-9.06-5.25-7.15-11.94c4.07-14.22,10.13-27.6,16.39-40.91c1.88-3.99,3.97-7.88,6.04-11.95c1.07,0,2.1,0,3.84,0
		c-1.03-1.22-1.63-1.92-2.42-2.86c3.01-5.58,6.08-11.27,9.02-16.73c2-0.79,3.7-1.45,5.8-2.27c-0.88-1.39-1.45-2.28-2.35-3.69
		c1.37-0.26,2.5-0.47,3.7-0.7c1.19-2.38,2.43-4.87,3.67-7.35c0.23,0.07,0.45,0.14,0.68,0.21c0.11-1.88,0.22-3.76,0.34-5.9
		c1.19,0,2.25,0,3.53,0c0-1.4,0-2.53,0-3.53c2.14-1.77,4.11-3.39,5.89-4.87c0.8-3.83,1.56-7.53,2.28-10.97
		c5.83-1.36,11.19-10.18,11.34-18.04c1.22-0.42,2.53-0.87,3.82-1.31c-0.92-4.77-0.19-5.62,6.46-7.56c1.06-2.31,1.59-5.54,5.51-4.72
		c-4.42,7.01-8.83,14.02-13.25,21.03c-0.08-0.04-0.17-0.07-0.25-0.11c-2.11,3.33-4.22,6.65-6.8,10.73c1.7-0.18,2.82,0.03,3.13-0.38
		c2.35-3.1,4.51-6.35,6.81-9.49c1.33-1.81,2.81-3.5,4.23-5.24c-0.08-0.04-0.17-0.08-0.25-0.11c2.88-4.58,5.77-9.16,8.97-14.24
		c0.69-0.43,1.93-1.2,2.67-1.66c2.08-3.99,3.93-7.54,5.79-11.1c-0.26-0.13-0.52-0.27-0.78-0.4c1.17-0.9,2.34-1.8,3.51-2.71
		c-0.13-0.35-0.26-0.69-0.39-1.04c-1.8,0.12-3.59,0.25-5.4,0.37c-1.8,4.7-3.5,9.13-5.27,13.75
		C1270.37,802.76,1269.39,803.01,1268.41,803.25z M1384.51,672.91c-9.38,9.97-18.74,19.55-27.67,29.51
		c-10.42,11.62-20.74,23.35-30.63,35.42c-16.89,20.63-32.54,42.2-47.4,64.33c-6.55,9.76-13.51,19.24-19.9,29.11
		c-5.66,8.75-10.97,17.74-16.09,26.81c-8.17,14.48-16.44,28.93-23.93,43.77c-5.5,10.88-10.12,22.24-14.56,33.61
		c-3.65,9.35-0.3,13.02,9.58,11.78c12.24-1.54,23.8-5.41,35.08-10.15c12.91-5.42,25.28-11.93,37.08-19.47
		c26.15-16.7,49.31-36.8,68.23-61.47c11.04-14.39,20.98-29.55,29.34-45.7c12.21-23.61,22.7-47.93,30.1-73.49
		c3.16-10.91,3.94-22.07,1.35-33.22C1411.33,687.58,1399.53,679.15,1384.51,672.91z M1287.43,782.29
		c4.6-6.94,8.89-13.42,13.47-20.34c-1.45-0.38-2.22-0.58-2.99-0.78c-2.17,2.18-4.72,3.37-6.98,4.95c-1.53,1.07-2.69,2.67-3.94,4.1
		c-0.11,0.13,0.33,0.74,0.6,1.29c1.05,0.07,2.14,0.14,3.67,0.25c-1.6,2.07-2.91,3.76-4.11,5.32c-1.66,0.45-3.12,0.85-4.57,1.25
		c-0.07,0.31-0.14,0.61-0.21,0.92C1283.78,780.1,1285.18,780.94,1287.43,782.29z"/>
	<path d="M1179.04,619.76c-1.84-1.81-3.7-3.21-5-5.02c-2.11-2.92-2.27-6.05,0.42-8.85c2.21-2.3,4.39-4.67,6.8-6.76
		c8.54-7.41,17.08-14.83,25.77-22.05c17.55-14.59,35.03-29.27,52.87-43.5c15.08-12.03,30.81-23.24,45.94-35.21
		c15.28-12.09,29.16-25.68,41.98-40.4c14.22-16.33,28.81-32.35,43.17-48.55c2.6-2.93,4.92-6.12,7.94-9.9
		c-2.22-0.95-3.68-2.03-5.2-2.14c-4.1-0.31-8.24-0.49-12.34-0.22c-11.76,0.76-23.54,1.47-35.24,2.82
		c-5.62,0.65-11.09,2.68-17.41,4.28c-1.4-1.72-3.62-3.75-4.95-6.26c-2.36-4.45-1.78-10.03,3.98-12.57
		c9.71-4.28,19.36-8.67,29.02-13.07c16.75-7.64,33.91-14.52,48.87-25.52c2.9-2.13,5.08-5.2,7.68-7.76c1.5-1.48,3.17-2.8,4.68-4.13
		c3.35,1.94,4.2,4.72,4.23,7.46c0.07,5.61-1.31,11.15-5.6,14.89c-5.85,5.11-12.28,9.56-18.55,14.17c-2.32,1.71-4.89,3.08-7.35,4.6
		c0.04,0.36,0.08,0.72,0.12,1.08c1.62,0.36,3.24,0.72,4.86,1.07c7.15,1.52,12.27,5.56,14.96,12.38c1.7,4.29,1.59,8.89-0.58,12.82
		c-3.25,5.89-6.67,11.85-10.98,16.97c-10.54,12.5-21.72,24.44-32.47,36.76c-14.54,16.68-29.62,32.84-46.5,47.17
		c-10.88,9.24-22.24,17.92-33.44,26.79c-8.2,6.49-16.49,12.87-24.71,19.33c-0.76,0.59-1.33,1.42-1.54,2.86
		c2.81-1.39,5.63-2.75,8.42-4.17c32.8-16.75,65.72-33.28,98.37-50.32c34.5-18.01,70.11-33.66,105.24-50.34
		c18.9-8.97,37.44-18.72,56.24-27.9c12.98-6.33,26.14-12.28,39.21-18.42c1.94-0.91,3.81-1.94,5.72-2.92
		c-0.11-0.36-0.22-0.72-0.33-1.08c-3.83,0.58-7.65,1.2-11.48,1.72c-2.47,0.34-4.96,0.54-7.44,0.78
		c-16.18,1.52-24.59-18.06-18.88-30.02c5.63-11.8,13.98-21.43,23.33-30.25c5.99-5.65,12.54-10.7,18.83-16.04
		c1.01-0.86,1.93-1.83,2.89-2.75c-0.18-0.27-0.37-0.55-0.55-0.82c-0.93,0.21-1.93,0.28-2.79,0.66
		c-26.48,11.52-52.92,23.14-79.42,34.6c-13.24,5.73-26.48,11.5-39.96,16.62c-4.23,1.61-9.27,1.7-13.9,1.5
		c-7.73-0.33-14.72-7.06-17.05-15.2c-1.85-6.45-1.38-12.78,0.37-19.16c2.29-8.35,5.92-16.08,11.41-22.73
		c2.06-2.49,5.2-4.25,8.14-5.78c1.41-0.73,3.5-0.13,6.39-0.13c-2.66,4.56-4.7,8.24-6.92,11.81c-3.96,6.38-8.34,12.55-10.06,20.04
		c-0.43,1.86-0.77,3.76-0.93,5.66c-0.34,4.19,1.13,6.73,4.88,8.53c4.77,2.29,9.89,2.44,14.68,0.8c9.6-3.28,19.11-6.88,28.47-10.81
		c36.41-15.28,72.63-31.04,109.17-46c17.6-7.21,35.17-14.33,51.45-23.94c4.09,2.4,5.61,6.93,3.72,11.57
		c-1.67,4.09-3.78,7.82-7.7,10.49c-15.09,10.28-30.05,20.74-44.99,31.23c-13.76,9.66-27.32,19.61-38.5,32.33
		c-3.84,4.37-7.27,9.09-11.51,14.43c2.62,1.15,4.21,2.06,5.91,2.55c8.05,2.28,16.26,1.25,24.11-0.35
		c15.7-3.2,31.33-6.92,46.76-11.22c18.72-5.2,37.18-11.34,55.83-16.82c7.32-2.15,14.76-4.12,22.41-3.85
		c5.74,5.14,4.59,15.76-2.35,19.22c-6.71,3.34-13.7,6.2-20.76,8.75c-11.33,4.08-23.03,7.22-34.19,11.68
		c-20.93,8.37-41.51,17.62-62.39,26.11c-37.88,15.41-73.67,35.13-110.45,52.83c-17.92,8.62-36.09,16.74-54,25.41
		c-16.97,8.22-33.77,16.8-50.59,25.34c-31.79,16.13-63.77,31.93-95.25,48.66c-22.36,11.88-44.12,24.92-65.98,37.72
		c-6.94,4.07-13.34,9.06-20.02,13.59C1182.72,617.76,1181.28,618.47,1179.04,619.76z M1208.43,581.89c0.07,0.28,0.13,0.57,0.2,0.85
		c-3.99,1.43-8.62,1.97-9.62,6.98c-4.33,1.09-7.52,2.86-7.3,6.43c-2.09,2.44-3.52,4.1-5.18,6.05c-3.69,0.64-3.69,0.64-6.16,5.41
		c-1.44,0.6-2.65,1.1-4.52,1.88c1.77,1.11,2.72,1.7,3.79,2.36c3.22-2.69,6.28-5.26,9.65-8.08c0.94,0.35,2.29,0.85,3.99,1.49
		c8.94-6.99,18.67-13.2,27.43-21.64c8.16-4.62,14.82-11.43,18.83-20.85c-2.44,1.61-4.82,3.37-6.58,5.63
		c-1.63,2.08-3.11,3.81-5.96,3.95c-0.96,0.05-1.9,0.68-2.8,1.02c-1.09,2.05-2.12,3.97-3.25,6.1c-0.78-0.43-1.36-0.74-1.96-1.07
		c1.36-3.76,5.15-5.89,5.95-9.62c-0.34-0.24-0.68-0.48-1.02-0.72c-1.32,1.42-2.64,2.84-4.04,4.35c-1.94,0.69-3.99,1.42-6.04,2.15
		c0.11,0.18,0.22,0.36,0.34,0.53C1212.26,577.36,1210.35,579.62,1208.43,581.89z"/>
	<path d="M237.64,1425.21c-8.44-2.54-10.92-14.52-4.27-20.7c8.51-7.91,16.6-16.28,25.27-24.02c17.19-15.35,36.73-27.41,56.11-39.75
		c10.01-6.37,19.03-14.34,28.25-21.89c23.18-18.98,44.24-40.23,65.28-61.49c13.89-14.04,28.17-27.7,41.72-42.06
		c9.47-10.04,18.03-20.95,26.9-31.55c1.38-1.65,2.26-3.71,3.57-5.92c-4.21-2.68-8.59-3.32-12.88-3.72
		c-13.6-1.28-27.03,0.33-40.4,2.83c-19.74,3.7-38.6,10.43-57.71,16.34c-20.63,6.38-39.97,15.71-59.43,24.8
		c-4.08,1.9-7.65,4.9-11.51,7.43c-0.98,3.77-1.88,7.48-2.92,11.15c-3.91,13.75-11.96,25.13-20.79,36.05
		c-12.47,15.43-27.54,27.78-44.79,37.42c-10.2,5.71-21.27,9.39-32.78,11.43c-8.52,1.51-17.13,2.55-25.74,3.5
		c-7.3,0.81-10.81-4.25-13.68-9.8c-2.56-4.95-2.87-10.16,1.05-14.4c6.99-7.55,13.83-15.42,21.79-21.86
		c12.69-10.25,25.87-20,39.51-28.93c18.21-11.92,37.08-22.84,55.64-34.23c1.42-0.87,2.66-2.04,4.33-3.33
		c-3.28-2.41-6.52-3.03-9.63-2.74c-7.45,0.68-14.98,1.26-22.25,2.91c-21.7,4.93-41.6,14.57-61.45,24.3
		c-18.8,9.22-37.21,19.14-54.22,31.36c-6.52,4.69-12.19,10.57-18.19,15.98c-0.71,0.64-0.93,1.79-1.54,2.59
		c-1.25,1.63-2.61,3.18-3.79,4.6c-8.28-4.18-10.38-9.74-5.62-16.43c4.22-5.94,9.05-11.76,14.67-16.34
		c16.37-13.35,34.54-24.06,53.43-33.39c18.86-9.32,37.92-18.3,57.24-26.62c12.3-5.29,25.39-8.5,38.91-9.12
		c10.41-0.48,19.53,2.34,25.96,11.21c0.69,0.95,1.32,1.94,2.07,3.05c7.92-3.64,15.01-7.18,22.31-10.21
		c15.35-6.38,30.62-13.03,46.27-18.57c12.46-4.41,25.54-7.02,38.16-11.02c13.24-4.19,26.8-6.98,40.47-8.74
		c10.01-1.29,20.29-1.26,30.4-0.82c6.87,0.3,13.14,3.31,17.2,9.47c4.2,6.38,2.58,13.12,0.66,19.61c-2.93,9.9-8.5,18.38-15.37,26.02
		c-7.58,8.43-14.84,17.16-22.75,25.27c-6.67,6.83-14.26,12.75-21.08,19.44c-12.72,12.49-25.03,25.39-37.77,37.87
		c-10.72,10.5-21.8,20.64-32.72,30.94c-0.53,0.5-1.07,1-2.16,2.03c0.64,1.63,1.02,3.66,2.12,5.17c2.07,2.85,2.11,5.53,0.82,8.69
		c-10.91,26.61-30.33,44.37-56.83,54.69c-20.59,8.02-40.8,16.83-60.36,27.12C242.54,1422.2,240.06,1423.79,237.64,1425.21z
		 M283.77,1234.02c-15.59,3.8-96.59,59.91-101.19,69.43c7.79,1.29,36.77-5.8,55.19-18.26
		C257.34,1271.97,272.97,1255.14,283.77,1234.02z"/>
	<path d="M1826.9,1326.95c3.73,3.34,3.92,7.05,1.68,10.65c-5.6,9-11.14,18.07-17.29,26.68c-12.79,17.92-23.24,37.22-34.09,56.31
		c-5.81,10.22-12.6,19.88-18.93,29.8c-0.83,1.3-1.6,2.63-2.4,3.95c0.25,0.27,0.51,0.54,0.76,0.8c3.68-2.19,7.37-4.37,11.05-6.57
		c8.28-4.95,17.05-8.71,26.5-10.7c2.39-0.5,4.92-0.36,7.2-0.5c1.33,1.42,2.33,2.48,3.96,4.23c-0.82,2.57-1.15,5.79-2.73,8.18
		c-8.54,12.95-17.68,25.72-30.4,34.73c-16.01,11.33-33.93,18.4-54.12,17.42c-4.06-0.2-7.73-2.07-11.48-4.17
		c3.48-6.67,8.23-11.59,13.31-16.25c1.41-1.29,2.9-2.57,3.98-4.11c9.96-14.24,20.12-28.35,29.62-42.89
		c5.46-8.36,9.51-17.64,14.74-26.18c10.61-17.33,21.6-34.44,32.42-51.65c2.12-3.37,4.24-6.73,6.27-10.15
		c0.71-1.2,1.17-2.56,1.75-3.84c-0.26-0.33-0.52-0.66-0.77-0.99c-3.87,1.84-7.82,3.53-11.59,5.55c-16,8.58-31.09,18.57-45.59,29.49
		c-16.36,12.31-32.85,24.44-49.17,36.8c-19.88,15.06-38.58,31.54-56.22,49.11c-19.3,19.23-37.93,39.13-56.87,58.73
		c-2.15,2.22-4.33,4.44-6.68,6.43c-1.18,1.01-2.73,1.69-4.21,2.22c-2.06,0.73-4.2,1.25-6.34,1.73c-1.79,0.4-3.62,0.62-5.33,0.9
		c-1.5-2.89,0.12-4.53,1.3-6.06c8.06-10.51,16.14-21.01,24.35-31.41c13.23-16.76,26.56-33.44,39.84-50.16
		c10.07-12.68,20.49-25.11,30.11-38.13c11.56-15.63,22.69-31.59,33.55-47.7c21.05-31.23,38.33-64.58,54.76-98.41
		c14.09-29.02,27.38-58.48,44.36-85.99c20.59-33.35,41.43-66.54,62.37-99.67c6.76-10.7,14.21-20.97,21.23-31.52
		c1.23-1.85,1.9-4.08,2.83-6.13c-0.28-0.39-0.56-0.77-0.84-1.16c-3.85,0.49-7.91,0.36-11.52,1.57
		c-10.59,3.56-21.28,7.06-31.44,11.65c-30.9,13.98-61.11,29.37-89.24,48.46c-10.96,7.43-21.14,16.01-32.18,23.32
		c-13.5,8.94-24.81,20.31-36.78,30.99c-4.24,3.78-9.36,6.61-14.19,9.69c-0.89,0.57-2.32,0.29-3.51,0.4
		c-0.13-0.37-0.27-0.74-0.4-1.11c0.9-1.1,1.72-2.28,2.72-3.28c14.95-15.06,29.7-30.37,46.76-43.1c12.74-9.5,25.55-18.97,38.83-27.7
		c32.61-21.42,67.33-38.91,103.3-53.94c9.25-3.87,18.68-7.32,28.75-8.39c3.64-0.39,7.35-0.54,11.01-0.39
		c3.73,0.15,6.62,3.46,7.01,7.34c0.48,4.72-1.5,8.7-4.02,12.36c-4.68,6.79-9.78,13.29-14.4,20.12
		c-14.28,21.11-28.55,42.23-42.57,63.51c-8.75,13.29-16.58,27.2-25.66,40.26c-17.67,25.41-31.25,53.01-44.65,80.73
		c-13.6,28.14-27.73,56.02-44.36,82.5c-10.49,16.7-21.79,32.91-33.12,49.06c-9.13,13.01-18.7,25.72-28.34,38.37
		c-7.85,10.3-16.26,20.18-24.11,30.48c-5.33,6.98-10.13,14.37-14.74,22.07c1.74-1.43,3.53-2.8,5.21-4.3
		c18.95-17.04,37.44-34.62,56.95-50.99c16.8-14.09,34.67-26.91,52.21-40.11c17.31-13.03,35.03-25.51,54.04-35.97
		c7.6-4.18,15.49-7.85,23.38-11.47C1818.51,1326.72,1822.6,1325.95,1826.9,1326.95z"/>
	<path d="M1361.73,1071.56c15.08-29.46,22.06-61.93,33.52-92.84c-1.18-1.02-2.27-1.93-3.31-2.9c-0.16-0.15-0.08-0.56-0.19-1.67
		c3.94-2.34,7.98-5.32,12.45-7.31c15.34-6.82,30.68-13.67,46.29-19.8c25.77-10.12,51.73-19.76,77.66-29.48
		c12.25-4.59,24.46-9.38,36.95-13.22c24.49-7.53,49.02-14.97,73.79-21.47c22.35-5.87,45.04-10.46,67.59-15.56
		c12.2-2.76,24.42-5.46,36.66-8.05c4.26-0.9,8.61-1.38,12.89-2.05c1.28,2.14,2.18,3.63,3.38,5.63c-0.93,1.91-1.42,4.55-3.01,5.94
		c-8.33,7.29-13.99,16.66-20.61,25.3c-5.73,7.47-11.82,14.68-17.72,22.03c-0.87,1.09-1.6,2.28-2.4,3.43
		c0.21,0.24,0.41,0.48,0.62,0.72c9.6-3.74,19.1-7.76,28.82-11.14c9.84-3.43,19.79-6.79,30.18-6.64c5.7,4.55,6,8.8,0.53,13.79
		c-7.94,7.25-16.06,14.32-24.42,21.07c-6.95,5.6-15.03,9.47-23.66,11.6c-12.86,3.18-25.84,5.87-37.82,11.81
		c-1.64-1.22-3.03-2.26-4.38-3.27c-4.07,2.25-8.01,4.43-11.71,6.47c-2.17-1.28-3.88-2.4-5.69-3.32c-3.52-1.79-4.41-4.44-1.96-7.46
		c7.15-8.8,14.08-17.83,21.79-26.12c13.59-14.62,25.71-30.32,36.73-46.92c0.79-1.19,1.38-2.52,2.47-4.53
		c-54.44,10.02-107.16,23.63-159.3,40.55c-8.93,15.74-15.88,32.63-21.86,49.93c0.27,0.3,0.55,0.61,0.82,0.91
		c1.51-0.65,3.06-1.22,4.52-1.96c9.75-4.94,19.77-9.14,30.5-11.52c5.66-1.26,7.39-0.71,10.84,4.35c0.25,3.62-0.99,6.61-3.9,9.19
		c-7.38,6.55-14.52,13.37-21.89,19.94c-6.34,5.65-13.72,9.6-21.66,12.54c-3.03,1.12-5.92,2.64-8.95,3.75
		c-2.43,0.89-4.99,1.43-8.01,2.27c-2.26,2.73-4.95,5.97-7.64,9.23c-5.29-0.87-11.02,1.14-13.98-5.65c1.35-2.14,2.61-4.45,4.16-6.54
		c10.23-13.73,15.6-29.53,20.23-45.77c2.41-8.46,6.13-16.55,9.3-24.79c0.88-2.29,1.92-4.51,3.27-7.68c-2.62,0.5-4.32,0.66-5.92,1.15
		c-24.09,7.42-47.54,16.6-70.89,26.04c-17.48,7.06-34.91,14.25-52.35,21.38c-1.35,0.55-2.69,1.15-3.56,1.52
		c-6.57,20.52-13,40.6-19.43,60.68c0.23,0.26,0.46,0.52,0.69,0.78c1.79-0.98,3.58-1.98,5.38-2.95c7.52-4.01,14.95-8.2,22.62-11.91
		c2.7-1.31,5.95-1.85,8.99-2c6.55-0.32,10.33,5.86,6.89,11.41c-1.89,3.06-4.5,5.84-7.29,8.15c-5.31,4.42-11.08,8.28-16.47,12.6
		c-9.28,7.43-19.78,12.75-30.31,18.06c-1.56,0.79-3.09,1.7-4.47,2.77c-3.12,2.4-6.38,3.91-10.5,3.78
		C1364.19,1075.71,1362.43,1075,1361.73,1071.56z"/>
	<path d="M1269.79,1252.04c2.25,4.51,2.42,8.43,0.13,12.01c-2.13,3.33-4.68,6.42-7.33,9.36c-12.34,13.67-24.97,27.07-37.12,40.9
		c-16.43,18.7-32.68,37.56-48.68,56.64c-11.06,13.19-21.46,26.93-32.31,40.3c-9.09,11.2-18.43,22.2-27.65,33.3
		c-1.11,1.34-2.2,2.69-3.3,4.03c0.22,0.29,0.45,0.57,0.67,0.86c2.4-1.62,4.74-3.33,7.2-4.83c8.66-5.28,17.22-10.77,26.14-15.6
		c3.79-2.05,8.35-2.75,12.61-3.87c1.17-0.31,2.53,0.11,3.54,0.17c2.54,3.62-0.29,5.13-2.27,7.2c1.29,1.13,2.46,2.16,3.58,3.14
		c1.94,0,3.7,0,6.04,0c0.57,1.32,1.19,2.75,1.78,4.09c-0.87,0.65-1.25,1.16-1.56,1.13c-6.62-0.65-11.61,3.66-17.33,5.7
		c-2.63,0.94-4.79,1.48-6.45-2.36c3.37-3.34,6.86-6.8,10.36-10.25c-0.2-0.26-0.4-0.51-0.6-0.77c-13.1,6.74-26.34,13.26-37.76,23.03
		c3.96,0.32,8.01-2.12,11.33,1.61c3.47-1.4,6.77-2.66,10.01-4.04c3.16-1.34,6.26-2.96,9.3-0.57c6.11-2.53,11.81-4.89,17.57-7.28
		c1.4,0.55,2.75,1.08,4.73,1.86c2.31-7.3,7.86-11.92,14.04-16.65c1.27,0.7,2.59,1.43,4.14,2.29c-1.22,7.56-3.93,14.13-8.73,19.7
		c-6.41,7.43-14.56,12.8-22.47,18.46c-21.38,15.27-45.3,25.11-70.3,32.35c-9.86,2.85-20.18,4.1-30.27,6.13
		c-3.38,0.68-5.64-1-7.34-3.25c-1.87-0.43-3.41-0.79-4.77-1.1c-1.32-2.56,0.31-3.93,1.63-5.22c7.35-7.22,14.4-14.81,22.24-21.45
		c13.22-11.19,25.2-23.54,36.3-36.75c9.57-11.38,18.78-23.07,28.08-34.67c13.27-16.54,26.24-33.33,39.79-49.64
		c14.78-17.79,29.98-35.23,45.15-52.69c10.43-12.01,21.14-23.78,31.65-35.71c1.41-1.6,2.4-3.58,4.11-6.19
		c-2.42-0.53-4.01-1.13-5.61-1.18c-10.56-0.31-20.96,1.39-30.97,4.36c-30.35,9-60.69,18.06-90.75,27.95
		c-21.39,7.04-42.47,15.09-63.42,23.36c-21.81,8.6-42.8,19.11-63.05,30.92c-28.4,16.56-57.46,31.83-87.07,46.09
		c-26.32,12.68-51.57,27.27-75.53,44c-16.2,11.31-29.82,25.34-41.86,40.92c-3.22,4.17-5.9,8.76-8.77,13.19
		c-0.52,0.81-0.74,1.8-0.54,3.35c2.89-1.82,5.92-3.46,8.64-5.5c10-7.51,19.86-15.2,29.85-22.73c5.17-3.89,10.46-7.62,15.75-11.35
		c4.8-3.39,9.65-6.72,14.53-10c2.35-1.58,4.82-3.01,7.81-4.86c0.3,3.63-1.4,5.31-2.91,6.97c-7.74,8.53-16.27,16.22-25.59,22.96
		c-14.9,10.78-29.87,21.49-44.99,31.95c-4.57,3.16-9.69,5.59-14.73,8.01c-1.78,0.86-4.06,0.67-6.35,0.99
		c-0.31-3.98,1.12-6.42,2.91-8.79c1.58-2.1,3.31-4.17,4.46-6.51c4.99-10.18,12-18.95,19.6-27.16c9.59-10.37,19.49-20.5,29.89-30.05
		c13.17-12.1,28.66-21.07,43.63-30.74c18.24-11.8,37.39-21.88,57.07-30.94c24.13-11.12,47.06-24.39,70.08-37.56
		c23.92-13.68,48.85-25.37,74.58-35.44c32.14-12.58,64.92-23.22,97.76-33.68c21.88-6.97,43.96-13.4,66.14-19.33
		c7.57-2.02,15.73-2.09,23.65-2.45C1263.23,1250.03,1266.67,1251.41,1269.79,1252.04z"/>
	<path d="M621.61,1192.65c-7.23-6.19-7.44-10.73-1.52-17.35c14.17-15.84,31.13-28.3,48.45-40.33c8.58-5.96,17.4-11.58,25.99-17.53
		c2.26-1.57,4.24-3.63,6.05-5.73c4.33-5.02,8.51-10.16,12.67-15.32c0.97-1.2,1.62-2.65,2.59-4.26c-3.99-1.63-7.54-0.95-10.83-0.18
		c-25.26,5.9-48.4,16.53-69.4,31.75c-4.04,2.93-7.85,6.24-11.39,9.75c-2.02,2-3.25,4.79-4.93,7.15c-0.71,0.99-1.67,1.79-2.41,2.56
		c-5.51-2.61-8.14-9.11-5.47-13.84c1.85-3.28,4.3-6.32,6.91-9.05c19.05-19.86,42.94-31.72,68.4-40.84c6.64-2.38,13.45-4.34,20.31-6
		c5.13-1.24,10.44-1.96,15.62,0.28c7.17,3.12,10.56,11.56,7.5,18.84c-0.44,1.04-0.93,2.07-1.74,3.88c1.63-0.45,2.59-0.54,3.37-0.96
		c28.03-15.21,57.01-28.34,87.38-38.07c17.22-5.52,34.75-10.4,53.14-10.36c1.62,0,3.27-0.03,4.85,0.24
		c10.6,1.84,14.24,8.44,10.18,18.32c-2.49,6.06-7.02,11.64-11.69,16.39c-12.49,12.71-25.56,24.85-38.4,37.22
		c-1,0.97-1.96,1.99-3.7,3.76c2.65-0.12,4.16-0.19,5.62-0.25c4.56,5.2,5.16,8.31,2.19,13.91c-2.82,5.32-6,10.45-8.89,15.74
		c-3.46,6.33-8.96,10.19-15.56,12.31c-14.99,4.81-30.05,9.42-45.2,13.72c-2.74,0.78-6.01-0.3-8.87-0.51
		c-6.15-4.71-6.48-12.56-0.35-16.89c8.77-6.2,17.47-12.52,25.86-19.21c12.89-10.29,25.79-20.59,38.12-31.53
		c13.98-12.41,27.34-25.51,40.94-38.35c1.54-1.46,2.84-3.17,4.99-5.6c-2.69-0.41-4.32-0.83-5.95-0.87
		c-13.27-0.28-26.05,2.67-38.69,6.19c-29.37,8.18-57.04,20.63-84.04,34.5c-13.74,7.06-26.86,15.33-40.17,23.21
		c-1.97,1.16-3.6,3.01-5.13,4.77c-12.01,13.82-24.78,26.81-39.54,37.76c-9.84,7.3-20.05,13.97-31.24,19.03
		c-1.21,0.54-2.45,1.02-3.71,1.41C623.22,1192.55,622.46,1192.54,621.61,1192.65z"/>
	<path d="M696.62,956.99c-1.33-1.03-2.59-2-4.24-3.27c0.18-1.92,0.06-4,0.6-5.9c2.42-8.48,2.96-17.11,2.55-25.85
		c-0.49-10.3-8.67-16.44-18.52-13.69c-4.22,1.18-8.26,3-12.7,4.65c-6.81-3.02-7.86-7.6-2.13-12.83c5.08-4.64,10.91-8.49,15.87-13.24
		c4.85-4.64,9.53-9.64,13.39-15.11c7.06-9.98,13.31-20.49,17.96-31.89c1.12-2.75,1.72-5.28,0.79-8.09
		c-1.53-4.63-0.25-8.41,3.48-11.4c2.95-2.37,4.29-5.47,4.7-9.15c1.08-9.79,2.36-19.55,3.29-29.35c0.2-2.08-0.45-4.41-1.26-6.39
		c-2.76-6.74-6.44-7.94-12.21-3.12c-5.74,4.79-11.19,10.11-15.91,15.9c-8.55,10.48-16.5,21.46-24.63,32.28
		c-1.31,1.74-2.74,3.7-4.95,2.74c-1.82-0.8-3.76-2.52-4.46-4.3c-0.73-1.85-0.67-4.54,0.13-6.39c7.56-17.43,11.47-35.88,15.67-54.26
		c6.4-27.99,12.69-56.01,19.23-83.97c3.55-15.19,7.77-30.22,11.13-45.44c1.38-6.27,1.82-12.86,1.76-19.3
		c-0.08-8.98-6.79-13.43-15.64-11.79c-15.71,2.92-28.98,10.51-41,20.57c-18.83,15.76-34.5,34.2-46.22,55.84
		c-4.31,7.95-7.13,16.44-8.36,24.99c1.39,3.73,6.16,5.46,4.21,10.2c-2.35,1.88-4.86,3.87-8.25,2.4c-3.35-1.45-4.45-4.6-4.9-7.88
		c-1.04-7.66,0.95-14.98,3.18-22.14c5.54-17.74,15.52-32.98,27.46-46.99c5.82-6.83,11.75-13.62,18.11-19.95
		c10.38-10.32,21.7-19.5,35.18-25.63c7.56-3.44,15.37-6.05,23.75-6.36c2.34-0.09,4.7,0.17,7.04,0.42
		c6.84,0.76,10.89,4.84,12.65,11.23c2.57,9.32,3.18,18.67,1.66,28.4c-3.2,20.44-9.41,40.15-13.87,60.27
		c-4.65,20.99-9.04,42.03-13.62,63.04c-2.23,10.21-4.64,20.37-6.94,30.56c-0.41,1.82-0.65,3.68-0.97,5.52
		c0.3,0.21,0.6,0.41,0.9,0.62c0.96-0.89,1.96-1.75,2.87-2.69c6.66-6.86,13.2-13.84,20.01-20.54c2.28-2.24,5.12-3.99,7.92-5.59
		c7.81-4.49,15.26-2.21,19.66,5.74c4.12,7.44,4.77,15.53,3.6,23.62c-1.95,13.53-4.48,26.99-6.88,40.45
		c-0.64,3.57,0.08,6.85,1.92,9.73c2.52,3.96,5.51,7.61,8.26,11.42c4.47,6.2,9.5,12.09,13.22,18.72c4.86,8.67,12.2,14.15,20,18.76
		c4.13,0,7.82-0.1,11.49,0.04c1.74,0.07,3.54,0.36,5.17,0.95c4.47,1.63,5.86,4.76,3.99,9.09c-4.59,10.59-10.18,13.77-22.24,10.52
		c-4.3-1.16-8.15-1.69-12.39-0.5c-16.66,4.66-31.05,12.98-41.27,27.13c-4.62,6.4-7.85,13.82-11.61,20.83
		C702.67,953.64,700.54,955.86,696.62,956.99z M694.12,887.71c1.03,0.68,2.36,1.5,3.63,2.41c1.78,1.28,3.73,2.42,5.22,3.98
		c5.46,5.73,7.51,12.82,7.75,20.57c0.03,1.06,0.27,2.11,0.41,3.17c0.34,0.17,0.68,0.33,1.01,0.5
		c10.35-10.82,21.76-20.31,34.33-27.63c-9.58-13.86-18.06-27.55-29.21-39.08C709.62,863.55,702.1,875.27,694.12,887.71z"/>
	<path d="M832.92,618.54c-1.59-1.29-2.66-2.15-3.82-3.09c0.35-1.44,0.41-2.66,0.92-3.66c7.32-14.28,14.15-28.85,22.19-42.72
		c10.14-17.47,25.38-29.57,43.71-37.91c13.17-5.99,26.58-11.29,40.62-14.84c8.65-2.18,17.38-2.78,26.27-0.98
		c13.07,2.66,20.72,10.08,23.4,23.26c1.94,9.56,0.86,19.1-0.32,28.6c-1.12,9.03-2.68,18.01-4.06,27.01
		c-1.89,12.39-4.63,24.55-9.39,36.19c-0.71,1.73-1.13,3.58-1.07,6.05c0.91-0.69,1.94-1.27,2.71-2.09
		c17.46-18.7,37.98-33.37,60.39-45.43c9.21-4.95,18.89-8.96,29.28-10.96c8.14-1.57,12.61,0.6,15.07,8.15
		c2.85,8.73,4.45,17.42,0.62,26.65c-2.84,1.9-6.08,4.06-9.87,6.59c1.54,2.72,2.79,4.92,3.87,6.84c5.61,2.12,8.41-1.36,11.92-4.52
		c-0.33-2.85-0.67-5.83-1.05-9.15c7.3,1.05,14.84,2.04,22.34,3.24c15.58,2.48,17.52,3.05,32.36-2.55c0.52,1.94,1.02,3.83,1.63,6.15
		c1.07,0.34,2.51,0.79,4.48,1.41c0-1.95,0-3.17,0-4.25c1.75-0.9,3.4-1.76,5.35-2.76c1.6,0.31,4.05,2.62,5.18-1.47
		c-1.42-1.24-2.82-2.46-4.78-4.17c2.35-1.09,4.26-1.97,6.77-3.12c-0.07,1.25-0.12,1.95-0.18,3.03c1.14,0,2.27,0,3.76,0
		c-0.33-1.56-0.57-2.64-0.84-3.9c2.8-0.94,5.49-2.02,8.28-2.68c1.01-0.24,2.26,0.55,3.66,0.94c-1.47,7.37-4.3,12.85-10.93,16.18
		c-9.33,4.68-18.55,9.62-27.58,14.86c-6.44,3.73-12.47,8.17-18.73,12.22c-1.46,0.94-3.13,1.56-4.49,2.51
		c-2.3,1.95-4.48,4.09-6.94,5.83c-11.38,8.04-20.59,18.33-29.94,28.49c-5.18,5.63-10.59,11.04-15.81,16.64
		c-1.39,1.49-2.48,3.27-3.67,4.93c-2.42,3.38-5.31,6.18-9.46,8.18c-1.56-1.81-2.96-3.43-4.82-5.58c0.95-2.35,1.72-4.81,2.9-7.06
		c2.32-4.43,4.9-8.73,7.29-13.12c0.43-0.8,0.45-1.82,0.86-3.61c-1.93,0.65-3.16,0.91-4.24,1.46c-14.7,7.44-29.41,14.87-44.05,22.42
		c-4.18,2.15-6.14,2.14-8.52-0.8c-2.33-2.87-2.24-6.79,0.95-9.47c6.54-5.47,13.52-10.42,20.06-15.89c8-6.69,16.52-13,23.34-20.76
		c6.02-6.85,10.32-15.3,14.84-23.35c4.18-7.44,7.49-15.36,11.45-22.93c3.67-7,1.76-12.99-2.84-19.5c-2.87,0.47-5.97,0.6-8.82,1.5
		c-10.29,3.25-20.05,7.67-29.17,13.51c-15.65,10.04-30.63,21-43.18,34.75c-7.8,8.53-14.4,18.15-21.59,27.24
		c-10.57,13.35-17.07,29.17-26.42,43.58c-0.93,0.15-2.01,0.32-3.28,0.53c0.37,1.06,0.69,1.99,1.11,3.21
		c-2.86,6.1-5.89,12.28-12,17.25c-1.68-0.82-3.53-1.72-4.79-2.33c-1.57-4.37-1-7.53,0.87-10.89c6.51-11.7,12.91-23.46,19-35.38
		c6.9-13.51,13.42-27.21,20.07-40.85c0.97-1.98,1.61-4.12,2.57-6.11c1.05-2.18,2.3-4.27,3.55-6.56c0.5-2.1,0.69-4.65,1.71-6.8
		c4.41-9.28,6.02-19.33,7.99-29.22c1.95-9.77,3.18-19.72,4.19-29.64c0.61-5.98,0.5-12.08,0.15-18.09
		c-0.52-8.86-7.12-15.98-16.25-18.08c-8.84-2.03-17.63-1.2-26.25,1.14c-17.86,4.86-35.01,11.57-50.47,21.85
		c-12.25,8.15-21,19.55-28.11,32.38c-5.06,9.12-10.74,17.9-16.21,26.79C835.75,615.33,834.5,616.58,832.92,618.54z M1073.03,667.82
		c-2.48,4.25-4.97,8.5-7.43,12.7c-1.6,0.13-3.05,0.24-4.94,0.39c-3.45,3.77-7.06,7.71-10.07,11.01c-0.5,3.06-0.85,5.26-1.21,7.45
		c0.34,0.21,0.69,0.43,1.03,0.64c2.15-2.57,4.3-5.14,6.63-7.92c1.09-0.19,2.47-0.43,3.32-0.58c1.01-2.31,1.47-4.41,2.69-5.86
		c2-2.38,4.5-4.35,7-6.7c0.33,0.06,1.13,0.19,1.18,0.2c3.34-4.19,6.33-7.93,9.38-11.75c-2.91-1.79-5.3-0.66-7.68,0.52
		c2.33-4.15,4.82-8.11,10.29-8.58c-1.66,1.27-3.31,2.53-4.97,3.8c0.33,0.46,0.66,0.91,1,1.37c3.59,1.41,6.52-0.88,9.83-2.2
		c0.69-4.26,4.55-4.04,8.6-5.04c-1.87-1.88-3.18-3.2-4.6-4.63c0.7-1.41,1.29-2.62,2.2-4.45c-4.42,2.14-5.1,8.25-11.56,7.37
		c7.66-8.16,16.55-13.76,24.35-21c-3.39-1.11-6.67-1.53-9.89-2.25c-8.53-1.91-17.61-0.36-25.63-4.32
		c-7.66,13.11-15.22,26.04-22.77,38.96c4.22-0.2,7.76-1.02,11.24-2.03c3.24-0.94,6.08-0.94,8.22,2.19
		C1070.19,668.54,1071.52,668.91,1073.03,667.82z M963.79,656.99c2.43-2.9,4.89-5.37,6.77-8.22c1.87-2.82,3.16-6.02,4.7-9.05
		c-0.3-0.26-0.59-0.53-0.89-0.79c-2.97,2.37-5.94,4.75-8.88,7.09c0.38,1.4,0.72,2.64,1.04,3.78c-1.07,1.31-1.99,2.43-2.8,3.41
		c-3.27,1.04-6.33,2.02-10.02,3.19c0.66,1.99,1.28,3.86,1.91,5.76c-0.77,0.19-2,0.5-3.22,0.8c0.21,0.25,0.41,0.5,0.62,0.76
		c-1.69,1.4-3.74,2.54-4.99,4.25c-1.38,1.9-1.85,4.43-3.05,6.5c-4.2,7.24-8.61,14.37-12.8,21.62c-2.25,3.88-4.21,7.92-6.69,12.62
		c0.13,0.6,0.46,2.09,1.02,4.59c4.14-4.04,7.65-7.48,11.22-10.97c-1.17-0.97-2.37-1.97-4.06-3.38c2.52-0.92,4.24-1.55,5.46-1.99
		c0-3.49,0-6.46,0-10.37c1.17,2.07,1.84,3.24,2.83,4.99c1.23-3.09,2.21-5.54,3.34-8.38c2.99,0.2,3.69-2.51,4.31-4.8
		c1.54-0.85,2.77-1.53,4.15-2.29c-0.57-1.24-0.99-2.14-1.64-3.56c1.9-2.25,3.96-4.68,6.02-7.12c0.17,0.14,0.33,0.29,0.5,0.43
		c0.85-1.83,1.71-3.67,2.66-5.71c-0.35-0.95-0.76-2.06-1.23-3.33C961.5,656.88,962.5,656.93,963.79,656.99z M1029.11,685.44
		c-4.29-3.33-6.25-3.36-10.21-1.02c-3.36,1.99-6.88,3.7-10.58,5.67c0,1.28,0,2.89,0,5.41c1.43-1.93,2.32-3.14,3.36-4.55
		c1.19,0.58,2.24,1.09,2.72,1.32c1.98-1.89,3.71-3.55,5.23-5C1023.07,687.22,1026.6,689.77,1029.11,685.44z"/>
	<path d="M1220.86,1660.5c-13.43,0.2-23.9-4.76-31.42-15.46c-4.53-6.44-5.92-13.73-4.74-21.43c1.66-10.86,5.35-21.09,10.42-30.81
		c1.36-2.61,1.78-5.1,1.53-8.02c-0.77-8.98,0.2-17.73,5.57-25.32c1.92-2.71,4.27-5.42,7.03-7.19c6.18-3.96,12.56-7.69,19.17-10.86
		c18.98-9.08,48.93,1.49,57.07,22.99c4.37,11.54,6.53,23.64,3.78,35.97c-1.73,7.73-3.82,15.44-6.49,22.9
		c-5.78,16.1-18.04,25.75-33.47,31.76C1240.05,1658.64,1230.44,1660.74,1220.86,1660.5z M1267.05,1615.09
		c0.45-0.38,0.78-0.52,0.87-0.76c5.28-14.24,6.12-28.46,1.02-43.09c-5.62-16.12-25.36-21-36.03-17.48c-0.84,2.39-1.3,4.92-2.53,7
		c-3.71,6.31-7.47,12.62-11.68,18.61c-4.22,6.01-2.36,10.62,3,14.82c9.24,7.24,20.79,10.16,31.12,15.38
		c0.38,0.19,0.86,0.32,1.28,0.3C1259.21,1609.68,1263.51,1611.57,1267.05,1615.09z"/>
	<path d="M520.5,1578.8c1.01,1.02,2.05,2.05,3.07,3.07c0.25,1.57,0.48,3,0.75,4.64c-1.58,1.3-3.15,2.6-4.97,4.09
		c0.31,1.06,0.55,2.18,0.97,3.22c3.21,7.98,1.06,17.24-4.59,23.61c-7.9,8.88-18.31,13.13-29.05,16.87
		c-14.8,5.15-30.13,7.83-45.68,9.42c-7.02,0.72-14.03,1.75-21.07,2.08c-8.76,0.41-17.2-0.87-25.12-5.28
		c-8.95-4.99-10.72-14.04-3.72-21.63c1.94-2.11,3.99-4.12,5.99-6.17c-0.16-0.26-0.33-0.52-0.49-0.79c-1.41,0.14-2.84,0.17-4.23,0.44
		c-17.2,3.28-34.42,6.45-51.57,9.96c-11.52,2.35-22.91,5.35-34.42,7.76c-7.9,1.66-15.9,2.91-23.88,4.12
		c-3.34,0.51-6.32-0.48-8.56-4.1c1.39-1.02,2.5-2.25,3.87-2.77c5.76-2.19,11.48-4.67,17.44-6.12c20.73-5.02,41.5-9.88,62.35-14.35
		c13.5-2.89,27.21-4.75,40.75-7.47c19.85-3.99,39.99-6.73,59.37-12.87c3.36-1.06,6.5-2.77,9.82-3.97c3.02-1.09,6.11-2.58,9.23-2.73
		c13.97-0.68,27.95-0.95,41.93-1.36C519.08,1578.46,519.51,1578.62,520.5,1578.8z M485.42,1613.69c2.23,1.44,4.39,2.84,6.96,4.51
		c4.89-3.56,9.83-7.06,10.65-13.96c0.76-6.44-3.64-11.16-10.06-10.3c-6.83,0.92-13.58,2.56-20.42,3.27
		c-5.93,0.62-8.55,4.35-10.68,8.93c2.22,4.05,5.43,5.9,13.7,9.1C479.06,1616.6,481.84,1615.72,485.42,1613.69z M426.17,1631.18
		c-0.01-7.01-3.47-12.97-9.24-15.9c-3.26,2.69-6.72,5.55-10.05,8.3c-0.12,0.87-0.28,1.45-0.26,2.01c0.02,0.56,0.23,1.12,0.43,1.96
		C412.95,1630.57,419.22,1631.71,426.17,1631.18z"/>
	<path d="M1398.48,1653.14c-9.01-0.9-18.82-1.19-27.97-5.8c-12.16-6.11-18.44-18.51-15.73-31.84c1.93-9.51,5.22-18.53,10.77-26.4
		c7.1-10.08,14.54-19.99,22.6-29.3c5.69-6.57,13.48-10.02,22.49-10.71c3.53-0.27,6.98-2.11,10.38-3.48
		c7.23-2.91,10.26-2.17,15.33,3.92c1.79,2.15,3.64,4.26,5.58,6.26c12.67,13.04,17.83,28.41,14.5,46.44
		c-1.02,5.5-1.33,11.26-3.26,16.43c-2.65,7.1-6.05,14.05-10.03,20.5c-3.2,5.18-9.2,7.13-14.8,9.08
		C1418.94,1651.52,1409.19,1652.78,1398.48,1653.14z M1434.35,1618.84c0.64-1.24,1.26-1.96,1.38-2.75
		c1.36-8.88,3.66-17.76,3.7-26.65c0.06-12.95-8.24-21.75-17.67-29.65c-6.55,2.62-12.63,5.35-16.37,11.21
		c-4.82,7.55-3.74,19.81,2.27,26.93C1414.96,1606.58,1424.14,1612.9,1434.35,1618.84z"/>
	<path d="M673.78,1604.25c-0.46-4.46,1.96-7.32,4.73-9.77c2.74-2.43,5.86-4.45,8.79-6.66c1.23-0.93,2.44-1.9,4.44-3.47
		c-3.61-0.21-6.2-0.59-8.77-0.46c-8.82,0.45-17.63,1.21-26.45,1.62c-9.41,0.44-18.84,0.6-28.26,0.92c-2.35,0.08-4.71,0.6-7.04,0.44
		c-2.88-0.19-5.81-0.62-8.56-1.47c-1.1-0.34-1.77-2.08-2.67-3.22c5.8-5.07,12.34-5.29,18.52-5.92c20.05-2.06,40.13-3.97,60.24-5.44
		c13.51-0.99,27.08-1.13,40.62-1.71c1.75-0.07,3.58-0.24,5.2-0.82c8.25-2.95,16.75-2.69,25.26-2.02c2.89,0.23,5.92,0.59,8.54,1.71
		c5.85,2.5,6.72,6.45,3.03,11.59c-0.34,0.47-0.75,0.88-1.39,1.6c0.89,1.48,1.75,2.97,2.66,4.43c4.82,7.66,3.23,17.03-5.85,22.22
		c-6.16,3.52-12.92,4.95-19.65,6.37c-14.34,3.01-28.94,3.74-43.53,2.99c-6.1-0.32-12.16-1.93-18.16-3.31
		C680.19,1612.64,676.5,1609.09,673.78,1604.25z M729,1603.39c0.07-0.33,0.15-0.67,0.22-1c-0.38-0.36-0.71-0.94-1.16-1.06
		c-8.69-2.29-17.45-4.15-26.52-3.83c-2.06,0.07-3.72,0.69-4.33,3.85C707.81,1604.49,718.44,1603.41,729,1603.39z M751.86,1600.2
		c2.12-2.33,4.15-4.57,6.41-7.06c-3.95-4.85-8.12-8.24-12.67-11.09c-1.13-0.71-3.07-0.11-5.43-0.11
		C744.32,1588.44,747.9,1594.01,751.86,1600.2z"/>
	<path d="M1049.96,771.32c-0.96,1.54-1.6,3.5-2.94,4.55c-14.6,11.44-29.42,22.6-43.95,34.12c-7.03,5.57-13.5,11.84-20.34,17.65
		c-5.44,4.63-11.1,8.99-16.56,13.59c-1.48,1.24-2.48,3.02-3.87,4.39c-18.83,18.46-38.01,36.58-56.47,55.41
		c-20.03,20.44-38.27,42.45-54.04,66.4c-6.49,9.86-12.57,19.98-16.14,31.34c-1.58,5.03-5.48,7.52-9.94,9.3
		c-1.1,0.44-2.63-0.17-4.73-0.37c3.15-7.79,5.74-14.95,8.9-21.85c8.43-18.45,19.74-35.11,32.03-51.19
		c17.86-23.36,38.05-44.59,59.12-64.98c16.19-15.67,32.79-30.93,49.43-46.13c9.24-8.44,18.71-16.64,28.46-24.47
		c14.45-11.59,29.09-22.96,43.94-34.04c12.13-9.05,24.35-18.04,37.12-26.15c17.76-11.27,36.03-21.72,54.14-32.43
		c4.38-2.59,8.97-4.81,13.46-7.2c0.19,0.32,0.38,0.65,0.57,0.97c-6.85,3.92-13.7,7.85-20.55,11.77c0.1,0.18,0.21,0.37,0.31,0.55
		c-1.16,0.17-2.32,0.34-3.48,0.51c0.09,0.17,0.19,0.35,0.28,0.52c-4.77,2.77-9.55,5.52-14.3,8.32c-5.11,3.02-10.22,6.05-15.25,9.2
		c-1.83,1.14-3.35,2.76-5.16,3.95c-2.8,1.84-5.55,3.98-8.64,5.08c-2.8,1-4.74,2.12-5,5.24c-6.18,1.81-10.96,5.38-15.09,10.11
		c-1.46,1.67-3.98,2.39-5.94,3.65c-1.9,1.22-3.71,2.58-5.42,4.1c-1.59,0.99-3.21,1.91-4.76,2.97c-5.76,3.93-11.66,7.68-17.14,11.96
		c-2.44,1.91-5.43,4.07-5.11,8.06c-2.06,0.53-4.13,1.06-5.76,1.48c-4.5,3.67-8.69,7.09-12.87,10.51c0.02,0.05,0.04,0.09,0.06,0.14
		c-2.27,1.66-4.54,3.32-6.41,4.68c-3.55,3.15-6.77,6-9.99,8.85c-0.02-0.03-0.05-0.07-0.07-0.1c-5.86,5.33-11.71,10.66-18.22,16.58
		c1.62,0.94,2.86,1.66,3.25,1.89c8.44-7.07,16.1-13.49,23.76-19.9c0.18,0.2,0.37,0.4,0.55,0.6c0.77-1.25,1.54-2.5,2.46-4.01
		c1.07-0.18,2.34-0.4,4.04-0.69c0.55-1.77,1.14-3.69,1.54-4.96c2.39-1.26,4.49-2.08,6.27-3.36c5.1-3.68,10.06-7.54,15.45-11.6
		c0.29-0.75,0.77-1.96,1.19-3.03c3.08-1.36,5.96-2.64,9.57-4.24c2.76-2.42,6.13-5.38,9.95-8.73c0.38,0.17,1.39,0.62,2.4,1.07
		L1049.96,771.32z"/>
	<path d="M1005.23,1181.53c0.42,0.85,0.94,1.94,1.49,3.07c-0.94,0.85-1.48,1.68-2.24,1.98c-9.88,4.05-17.66,11.49-26.84,16.66
		c-0.76,0.43-1.5,0.99-2.08,1.64c-6.88,7.87-16.42,10.5-25.93,13.16c-16.05,4.5-31.81,9.87-46.89,16.93
		c-6.05,2.83-11.3,7.32-17.12,10.7c-3.65,2.12-7.53,4.46-11.59,5.19c-25.54,4.63-48.89,15.06-71.77,26.67
		c-6.5,3.3-12.19,8.18-18.45,12.02c-5.33,3.27-10.38,7.07-17.05,7.73c-6.41,0.63-12.74,2.07-19.12,3.11
		c-0.64,0.1-1.34-0.13-2.35-0.24c1.92-3.66,4.14-6.27,7.92-7.5c5.73-1.86,11.38-4,17.07-5.99c4.59-1.6,8.95-3.42,12.97-6.4
		c18.15-13.49,38.43-22.72,59.94-29.51c11.35-3.58,22.54-7.71,33.78-11.65c1.23-0.43,2.51-1.02,3.49-1.86
		c8.91-7.69,19.84-11.54,30.54-15.57c16.4-6.17,33.11-11.49,49.63-17.34c2.26-0.8,4.32-2.41,6.21-3.97
		c10.84-8.93,23.11-15.08,36.53-19.02C1003.78,1181.24,1004.26,1181.43,1005.23,1181.53z"/>
	<path d="M1114.39,1187.14c-3.09-2.78-3.72-5.6-2.22-8.93c3.34-7.42,7.41-14.38,13.07-20.31c0.79-0.83,1.45-1.77,2.87-3.53
		c-2.42-0.43-4.12-0.92-5.84-1.01c-18.15-1-35.86,1.86-53.15,6.99c-11.67,3.46-23.07,7.87-34.52,12.07
		c-2.86,1.05-5.35,3.09-8.15,4.38c-4.12,1.9-8.32,3.63-12.58,5.2c-1.2,0.44-2.71,0.07-4.38-0.5c3.36-3.74,6.51-7.48,10.69-10.11
		c11.28-7.1,23.59-11.99,36.07-16.48c21.22-7.62,43.19-11.33,65.62-12.99c6.83-0.5,13.48-0.63,20.17,0.97
		c4.15,3.95,4.26,7.38,0.19,12.2c-2.94,3.49-6.26,6.68-8.96,10.33c-4.03,5.46-8.01,10.82-13.61,14.91
		C1117.54,1181.89,1116.28,1184.64,1114.39,1187.14z"/>
	<path d="M1495.2,1242.69c3.34-5.63,5.93-11.94,10.18-16.78c8.46-9.63,17.95-18.27,30.26-23.1c9.73-3.82,19.64-6.2,30.16-5.14
		c1.74,0.18,3.52,0.48,5.15,1.06c7.46,2.65,8.83,4.71,8.83,12.71c0,1.89,0,3.79,0,6.25c-1.5,0-2.96,0.36-4.14-0.07
		c-3.72-1.33-7.39-2.82-10.96-4.5c-5.96-2.79-12.14-2.18-18.2-1.05c-5.03,0.93-9.93,2.64-14.85,4.16
		c-6.17,1.9-10.77,5.91-14.38,11.15c-1.84,2.67-3.4,5.58-5.55,7.96c-2.62,2.9-5.51,5.65-8.69,7.89
		C1500.95,1244.68,1498.15,1245.35,1495.2,1242.69z"/>
	<path d="M526.13,1410.37c-6.32,7.06-14.67,8.38-22.78,10.19c-0.97,0.22-2.11-0.31-3.17-0.49c-0.19-0.38-0.37-0.76-0.56-1.14
		c2.6-2.41,4.85-5.44,7.86-7.09c5.97-3.29,11.21-7.1,16.04-12.06c4.63-4.76,10.49-8.63,16.41-11.75
		c10.27-5.4,21.01-9.92,31.56-14.79c0.93-0.43,1.92-0.99,2.9-1.03c8.78-0.36,15.09-5.95,22.06-10.2c5.11-3.12,10.15-6.57,16.45-6.87
		c0.72-0.03,1.45,0.12,2.53,0.22c0.2,1.06,0.39,2.12,0.61,3.29c-9.64,4.54-17.64,10.9-25.6,17.47c-5.9,4.87-12.44,9.15-20.85,9.49
		c-3.98,0.16-8.07,1.81-11.78,3.51c-8.56,3.9-16.93,8.21-25.36,12.39C528.55,1403.44,525.48,1406,526.13,1410.37z"/>
	<path d="M1098.4,1214.37c3.75,1.52,4.04,3.84,3.21,5.95c-1.66,4.21-3.26,8.58-5.79,12.27c-8.12,11.84-18.64,21.56-28.7,31.7
		c-10.15,10.24-19.81,20.98-29.76,31.42c-2.93,3.08-6.13,5.9-9.38,9c-0.71-0.54-1.35-1.02-2-1.51c0.21-0.62,0.24-1.12,0.5-1.41
		c20.57-23.09,39.46-47.55,58.34-72.02C1089,1224.35,1093.89,1219.45,1098.4,1214.37z"/>
	<path d="M1494.56,1367.78c4.87-5.79,9.74-11.57,14.6-17.35c1.66,0,3.11,0,4.23,0c13.78-9.8,21.54-24.36,31.75-36.67
		c2.49-0.53,3.67,0.65,3.39,2.79c-0.36,2.73-0.75,5.6-1.91,8.04c-3.23,6.76-6.76,13.34-12.5,18.52c-6.97,6.3-13.32,13.34-20.6,19.24
		c-4.11,3.33-9.5,5.13-14.44,7.35c-1.04,0.47-2.62-0.27-3.96-0.45C1494.94,1368.76,1494.75,1368.27,1494.56,1367.78z"/>
	<path d="M1423.46,1298.01c0.98-1.42,1.85-2.94,2.95-4.26c13.93-16.67,29.06-32.04,47.75-43.5c5.59-3.43,11.73-4.83,18.49-4.97
		c-0.48,0.57-0.85,1.38-1.46,1.67c-16.07,7.76-28.56,20.02-40.88,32.49c-4.96,5.02-9.79,10.19-14.87,15.09
		c-1.76,1.7-3.98,3.06-6.21,4.07c-1.54,0.7-3.48,0.52-5.24,0.73C1423.81,1298.89,1423.64,1298.45,1423.46,1298.01z"/>
	<path d="M406.62,1457.98c1.42,1.59,2.18,2.45,2.76,3.09c3.4,1.06,6.93-1.22,10.86,1.65c-1.78,1.26-2.95,2.44-4.37,3.02
		c-8.39,3.46-15.25,9.19-22.36,14.61c-4.3,3.28-8.79,6.37-13.49,9.03c-3.91,2.22-6.48,1.53-9.37-1.81
		c4.56-5.31,6.66-12.55,13.77-16.27c5.17-2.7,9.71-6.57,14.66-9.71C401.38,1460.15,403.99,1459.22,406.62,1457.98z"/>
	<path d="M638.25,1350.1c0.77-1.42,1.36-2.98,2.35-4.24c4.41-5.62,10.06-9.94,16.2-13.35c7.02-3.89,13.95-8.22,22.1-9.59
		c1.95-0.33,3.95-0.43,5.92-0.63c0.21,0.39,0.41,0.79,0.62,1.18c-1.03,0.93-1.9,2.21-3.11,2.74c-10.97,4.78-20.78,11.39-30.29,18.57
		c-3.75,2.84-7.8,5.51-12.51,6.54C639.1,1350.91,638.67,1350.5,638.25,1350.1z"/>
	<path d="M454.04,1450.89c0.36-1.91,0.23-3.86,1.07-5.21c5.16-8.31,12.08-14.36,21.99-16.43c1.85-0.38,3.54-1.46,5.36-2.03
		c0.95-0.3,2.04-0.17,3.06-0.24c0.18,0.38,0.35,0.77,0.53,1.15c-1.08,0.97-2.05,2.14-3.28,2.86c-2.91,1.72-5.99,3.16-8.92,4.84
		c-3.63,2.09-6.53,4.7-8.17,8.87C464.06,1448.81,458.79,1451.6,454.04,1450.89z"/>
	<path d="M1580.47,1248.84c1.15,7.41-1.64,13.12-4.57,18.77c-2.97,5.72-7.1,9.93-14.78,10.3c4.59-10.02,11.09-18.43,16.29-27.57
		C1577.78,1249.69,1579.01,1249.53,1580.47,1248.84z"/>
	<path d="M1525.05,1648.07c4.05,5.19,4.15,8.56,0.46,13.19c-6.56,0.68-12.6-0.3-17.18-5.6
		C1509.9,1651.47,1519.42,1647.28,1525.05,1648.07z"/>
	<path d="M1503.15,1690.19c-9.9,0.69-14.9-1.53-16.21-7.48c4.91-2.75,9.86-5.62,15.61-5.88
		C1507.09,1682.75,1507.17,1685.25,1503.15,1690.19z"/>
	<path d="M1438.38,1667.18c2.04,4.66,0.52,7.36-1.73,9.83c-9.19,1.97-15.17,0.1-16.56-5.75c3.93-1.81,7.89-4.07,12.14-5.36
		C1434.1,1665.34,1436.57,1666.76,1438.38,1667.18z"/>
	<path d="M1129.6,714.56c7.42,3.59,11.88-3.63,18-4.96c0.16,0.37,0.31,0.73,0.47,1.1c-18.5,10.91-37,21.82-55.5,32.73
		c-0.11-0.13-0.23-0.27-0.35-0.4c1.53-1.16,3.09-2.29,4.57-3.51c1.31-1.08,2.5-2.31,3.82-3.39c1.21-0.98,2.44-1.97,3.79-2.74
		c2.79-1.57,5.75-2.84,8.48-4.51c5.46-3.34,10.81-6.86,16.36-10.4C1129.33,717.41,1129.44,716.32,1129.6,714.56z"/>
	<path d="M1110.95,1675.83c3.85-4.74,8.95-7.66,13.57-10.58c4.11,1.71,4.39,4.54,4.21,7.53
		C1123.71,1679.52,1116.7,1680.96,1110.95,1675.83z"/>
	<path d="M1050.07,771.42c-0.07-0.84-0.14-1.68-0.15-1.83c3.5-2.4,6.52-4.48,10.85-7.46c3.78-0.61,8.82-4.81,9.95-9.76
		c1.8-0.37,3.85-0.79,5.98-1.23c2.43-1.13,5.04-2.34,7.64-3.55c0.15,0.31,0.3,0.62,0.45,0.93c-7.58,5.43-15.16,10.87-22.75,16.3
		c-2.26,1.62-4.45,3.37-6.85,4.73c-1.57,0.89-3.48,1.19-5.24,1.76L1050.07,771.42z"/>
	<path d="M1248.22,674.19c0.83-0.66,1.51-1.2,2.26-1.79c1.29,0.25,2.57,0.5,3.59,0.69c1.71-0.73,3.18-1.36,5.03-2.16
		c0.41-0.77,1.01-1.89,1.75-3.27c1.27,0.74,2.35,1.37,3.48,2.03c2.56,0.19,5.24-3.34,8.39,0.56c-15.44,3.44-30.43,6.78-45.57,10.16
		C1229.83,677.11,1242.84,673.25,1248.22,674.19z"/>
</g>
</svg>
