<?xml version="1.0" encoding="utf-8"?>
<!-- Generator: Adobe Illustrator 27.4.0, SVG Export Plug-In . SVG Version: 6.00 Build 0)  -->
<svg version="1.1" id="Calque_1" xmlns="http://www.w3.org/2000/svg" xmlns:xlink="http://www.w3.org/1999/xlink" x="0px" y="0px"
	 viewBox="0 0 2000 2000" style="enable-background:new 0 0 2000 2000;" xml:space="preserve">
<g>
	<path d="M749.97,1472.74c-1.18,0-2.69,0.23-4.09-0.04c-4.33-0.84-6.06-4.67-4.49-8.76c4.69-12.22,9.22-24.51,13.79-36.78
		c0.31-0.85,0.38-1.78,0.66-3.12c-3.15,0-6.04-0.28-8.86,0.05c-13.8,1.62-27.56,3.48-40.99,7.24c-3.32,0.93-6.86,1.05-10.29,1.62
		c-9.99,1.66-19.96,3.39-29.95,5.04c-10.02,1.66-20.06,3.17-30.07,4.9c-6.44,1.11-12.82,2.58-19.26,3.75
		c-6.93,1.26-13.89,2.36-20.84,3.54c-3.29,0.56-6.55,1.24-9.86,1.67c-4.37,0.56-8.75,1.11-13.14,1.31
		c-7.53,0.35-14.72,2.31-22.02,3.9c-6.12,1.33-12.42,1.8-18.65,2.62c-14.57,1.9-29.12,3.88-43.7,5.63
		c-7.78,0.93-15.62,1.34-23.42,2.14c-4.5,0.46-8.97,1.34-13.47,1.83c-4.64,0.51-9.33,0.64-13.97,1.17
		c-5.14,0.59-10.26,1.41-15.38,2.21c-2.63,0.41-5.24,1-7.86,1.52c-7.31,1.45-14.62,2.93-21.93,4.34c-1.83,0.35-3.71,0.45-5.56,0.71
		c-7.38,1.05-14.74,2.27-22.15,3.15c-7.25,0.86-14.54,1.38-21.41,2.01c-6.82-3.79-7.26-4.33-7.1-8.16
		c10.39-4.86,20.64-9.71,30.95-14.44c13.72-6.3,27.47-12.55,41.24-18.73c22.43-10.07,44.98-19.87,67.31-30.15
		c14.09-6.49,27.82-13.73,41.79-20.49c21.19-10.25,42.43-20.38,63.66-30.55c14.71-7.05,29.59-13.76,44.11-21.19
		c18.09-9.25,36.04-18.79,53.72-28.8c9.15-5.18,17.57-11.66,26.35-17.49c3.78-2.51,7.77-4.71,11.47-7.34
		c7.06-5.02,13.97-10.26,20.98-15.36c1.6-1.17,3.34-2.16,5.42-3.49c-0.83-20.2,1.22-40.26,6.33-59.91
		c5.81-1.04,10.11,1.98,11.56,6.27c2.02,5.94,4.52,11.72,6.99,17.49c0.77,1.8,2.13,3.34,3.32,5.16c3.49-0.2,6.79-0.36,10.1-0.58
		c15.6-1,31.2-1.96,46.8-3.02c10.4-0.71,20.81-1.37,31.17-2.4c12.09-1.2,24.15-2.68,36.19-4.21c10.6-1.35,21.16-2.97,31.74-4.41
		c7.41-1.01,14.84-1.86,22.25-2.86c10.46-1.41,20.89-3,31.36-4.32c11.81-1.49,23.65-2.75,35.47-4.14
		c15.51-1.82,31.02-3.7,46.54-5.49c11.69-1.35,23.4-2.46,35.07-3.92c10.01-1.26,19.95-3.04,29.96-4.29
		c8.6-1.07,17.27-1.62,25.89-2.61c5.56-0.64,11.06-1.78,16.62-2.49c7.27-0.93,14.58-1.61,21.86-2.49
		c10.07-1.22,20.12-2.68,30.2-3.77c13.91-1.51,27.85-2.73,41.77-4.15c5.44-0.56,10.85-1.45,16.3-1.95
		c8.12-0.75,16.25-1.4,24.39-1.89c12.53-0.75,25.07-1.35,37.61-1.95c2.54-0.12,5.1,0.18,7.62-0.04c4.31-0.38,7.43,1.64,10.25,4.52
		c1.64,1.68,1.97,3.42,0.21,5.57c-8.07,3.15-16.34,6.51-24.7,9.59c-8.27,3.05-16.68,5.71-24.96,8.73
		c-9.01,3.29-18.21,6.22-26.83,10.34c-14.12,6.74-28.87,11.84-43.31,17.73c-4.02,1.64-8.35,2.49-12.52,3.79
		c-4.18,1.3-8.33,2.72-12.51,4.04c-1.5,0.47-3.07,0.71-4.57,1.17c-5.96,1.82-11.89,3.72-17.85,5.54c-8.68,2.64-17.34,5.35-26.08,7.8
		c-8.71,2.45-17.52,4.51-26.24,6.94c-10,2.78-19.94,5.78-29.91,8.65c-0.89,0.26-1.86,0.21-2.75,0.45
		c-5.78,1.54-11.54,3.16-17.32,4.68c-13.29,3.5-26.58,7-39.88,10.44c-9.02,2.33-18.07,4.57-27.11,6.85
		c-13.81,3.48-27.65,6.87-41.42,10.48c-7.08,1.85-14.03,4.2-21.09,6.14c-7.83,2.15-15.72,4.11-23.59,6.09
		c-8.26,2.07-16.55,4.05-24.81,6.13c-1.63,0.41-3.18,1.11-5.67,2.01c2.3,1.62,3.93,2.63,5.41,3.83c5.81,4.71,11.45,9.66,17.4,14.19
		c9.26,7.04,18.73,13.78,28.09,20.69c7.74,5.72,15.42,11.5,23.13,17.25c7.71,5.75,15.5,11.41,23.13,17.26
		c4.34,3.33,8.45,6.97,12.93,10.7c-0.15,1.3-0.3,2.69-0.54,4.82c-2.06-0.17-3.93,0.06-5.51-0.52c-8.14-2.98-16.75-3.1-25.16-4.49
		c-8.01-1.32-16.17-1.4-24.01-4.17c-4.86-1.72-10.18-2.32-15.35-2.9c-15.8-1.76-31.59-3.78-47.44-4.7
		c-14.4-0.84-28.87-0.41-43.31-0.46c-4.48-0.02-7.98,1.99-11.42,4.95c-5.24,4.51-11.19,8.18-16.69,12.4
		c-4.55,3.48-8.87,7.26-13.32,10.87c-4.76,3.87-9.47,7.8-14.33,11.54c-7.19,5.54-14.3,11.22-21.81,16.31
		c-6.95,4.71-13.21,10.23-19.74,15.44C756.27,1468.96,753.3,1470.57,749.97,1472.74z M372.76,1470.99c0.1,0.3,0.2,0.6,0.3,0.89
		c0.75,0.06,1.52,0.28,2.24,0.16c6.31-0.99,12.62-2,18.92-3.09c8.15-1.41,16.28-2.93,24.42-4.33c4.6-0.79,9.21-1.96,13.83-2.06
		c7.36-0.16,14.62-0.67,21.92-1.71c9.64-1.37,19.38-2.05,29.08-3.04c3.46-0.35,6.92-0.69,10.36-1.14c7.9-1.05,15.78-2.2,23.68-3.24
		c4.37-0.57,8.77-0.88,13.13-1.52c12.4-1.83,24.77-3.78,37.16-5.65c8.05-1.21,16.12-2.31,24.17-3.56c8.3-1.28,16.61-2.56,24.88-4.05
		c8.9-1.6,17.75-3.53,26.65-5.16c5.25-0.96,10.59-1.49,15.84-2.46c9.56-1.75,19.08-3.78,28.64-5.5c7.35-1.32,14.77-2.25,22.13-3.55
		c4.19-0.74,8.27-2.24,12.48-2.76c11.26-1.4,22.55-2.68,33.93-2.46c4.91,0.09,9.67,0.65,12.9,6.2c-3.77,9.64-7.7,19.69-11.62,29.73
		c0.27,0.17,0.54,0.34,0.81,0.51c0.65-0.32,1.39-0.53,1.94-0.97c8.96-7.17,17.85-14.43,26.86-21.53c5.54-4.37,11.39-8.36,16.87-12.8
		c6.53-5.29,12.02-11.87,19.65-15.77c6.71-3.43,11.88-8.52,16.19-14.6c0.46-0.64,1.07-1.18,1.11-1.23c6.02,0,11.46-0.11,16.9,0.02
		c9.76,0.24,19.53,0.37,29.26,1.03c15.32,1.03,30.65,2.18,45.92,3.79c9.41,0.99,18.72,2.94,28.07,4.47
		c9.6,1.58,19.19,3.25,28.81,4.71c2.38,0.36,4.87,0.05,7.31,0.05c0.1-0.28,0.21-0.55,0.31-0.83c-2.13-1.47-4.31-2.87-6.39-4.41
		c-13.54-10-27.05-20.04-40.59-30.05c-9.87-7.3-19.78-14.54-29.64-21.85c-5.04-3.74-10.01-7.56-15-11.37
		c-4.24-3.23-8.55-6.39-12.67-9.77c-1.98-1.62-2.79-3.86-1.39-6.72c2.67-0.38,5.45-0.61,8.16-1.19c6.65-1.44,13.28-2.97,19.88-4.6
		c6.09-1.5,12.14-3.18,18.22-4.77c9.28-2.42,18.57-4.8,27.85-7.25c6.81-1.8,13.58-3.76,20.4-5.52c5.53-1.43,11.12-2.66,16.68-4
		c7.37-1.78,14.76-3.49,22.1-5.39c8.12-2.11,16.18-4.46,24.29-6.59c8.78-2.3,17.62-4.35,26.39-6.69c9.54-2.55,19-5.36,28.53-7.94
		c5.52-1.5,11.13-2.64,16.64-4.17c10.68-2.97,21.3-6.13,31.96-9.14c7.71-2.17,15.51-4.01,23.16-6.37
		c14.02-4.33,27.98-8.88,41.93-13.46c12.15-3.99,24.34-7.88,36.32-12.32c9.38-3.48,18.48-7.73,27.71-11.63
		c1.23-0.52,2.47-1.03,3.71-1.52c10.9-4.38,21.81-8.74,32.7-13.17c0.59-0.24,0.95-1.05,1.42-1.59c-0.08-0.27-0.17-0.55-0.25-0.82
		c-1.89,0.12-3.77,0.26-5.66,0.34c-6.6,0.28-13.22-0.4-19.79,1.41c-3,0.83-6.37,0.24-9.55,0.52c-12.09,1.1-24.18,2.27-36.27,3.46
		c-4.9,0.48-9.79,1.04-14.68,1.63c-2.24,0.27-4.44,0.82-6.68,1.06c-7.95,0.83-15.93,1.44-23.86,2.38
		c-6.61,0.78-13.16,1.98-19.76,2.84c-3.94,0.51-7.94,0.65-11.89,1.08c-6.88,0.75-13.74,1.64-20.63,2.37
		c-5.55,0.58-11.15,0.78-16.66,1.57c-4.87,0.7-9.61,2.3-14.49,2.97c-10,1.37-20.04,2.36-30.06,3.57
		c-5.28,0.64-10.54,1.46-15.82,2.12c-3.96,0.5-7.94,0.87-11.91,1.31c-8.09,0.89-16.18,1.77-24.26,2.7
		c-2.52,0.29-5.01,0.85-7.53,1.09c-7.58,0.72-15.16,1.33-22.74,2.02c-3.72,0.34-7.44,0.65-11.13,1.18
		c-8.97,1.29-17.88,3.04-26.88,3.97c-11.54,1.19-23.09,1.99-34.48,4.5c-10.86,2.4-22.08,2.3-33.1,4.04
		c-15.13,2.38-30.46,3.53-45.73,4.98c-10.9,1.03-21.83,1.7-32.74,2.51c-3.73,0.28-7.46,0.44-11.19,0.71
		c-10.63,0.78-21.29,1.29-31.87,2.51c-5.47,0.63-9.85-0.55-14.06-3.93c-4.01-3.22-6.44-7.41-8.51-11.93
		c-0.51-1.1-1.1-2.16-1.66-3.25c-0.35,0.06-0.69,0.13-1.04,0.19c-0.18,1.1-0.43,2.2-0.54,3.32c-0.68,6.91-1.67,13.8-1.88,20.73
		c-0.22,6.88-1.17,13.85,1.27,20.67c0.57,1.6-0.3,3.71-0.5,5.58c-0.34-0.17-0.69-0.34-1.03-0.51c-2.88,1.86-5.84,3.61-8.64,5.59
		c-5.32,3.77-10.45,7.81-15.83,11.47c-7.16,4.87-14.69,9.21-21.68,14.3c-11.59,8.43-23.66,15.99-36.49,22.36
		c-9.7,4.82-19.37,9.68-29.02,14.59c-10.36,5.27-20.55,10.89-31.05,15.88c-12.42,5.91-25.15,11.17-37.63,16.96
		c-11.64,5.41-23.12,11.16-34.68,16.74c-13.48,6.5-26.99,12.94-40.46,19.48c-3.85,1.87-7.46,4.24-11.37,5.96
		c-13.66,6.02-27.4,11.86-41.11,17.78c-1.84,0.79-3.63,1.7-5.45,2.53c-11.07,4.99-22.14,9.98-33.22,14.96
		c-0.48,0.22-1.04,0.29-1.52,0.5c-9.64,4.27-19.29,8.52-28.9,12.85C374.52,1469.42,373.68,1470.3,372.76,1470.99z"/>
	<path d="M1493.63,1204.66c-4.21-0.14-8.45-0.63-12.64-0.38c-25.49,1.54-49.01,9.29-70.42,23.16c-6.71,4.34-13.42,8.88-19.34,14.2
		c-8.23,7.4-16.16,15.26-23.4,23.63c-6,6.92-11.01,14.74-16.1,22.39c-3.47,5.21-6.23,10.9-9.49,16.26
		c-9.4,15.43-17.38,31.62-25.31,47.81c-4.39,8.97-7.88,18.4-11.45,27.75c-2.95,7.72-5.48,15.61-8.05,23.47
		c-0.61,1.87-0.59,3.94-0.98,5.89c-0.32,1.6-0.81,3.16-1.34,5.2c-3.21-0.73-5.76-1.31-7.82-1.79c-2.65-2.67-2.99-5.11-2-8.13
		c2.69-8.25,4.74-16.72,7.74-24.85c6.58-17.82,14.33-35.17,23.3-51.91c7.12-13.3,15-26.19,22.62-39.22
		c3.71-6.34,7.18-12.88,11.54-18.75c4.99-6.72,10.62-13,16.38-19.08c5.79-6.1,11.89-11.94,18.22-17.48
		c6.8-5.97,13.57-12.01,21.99-15.87c5.68-2.61,10.88-6.25,16.52-8.93c4.29-2.04,8.89-3.48,13.44-4.89
		c7.13-2.21,14.22-4.77,21.53-6.07c7.17-1.28,14.59-1.64,21.89-1.52c5.78,0.09,11.54,1.53,17.97,2.46
		c1.82-3.44,3.81-7.17,5.78-10.93c4.21-8.04,8.19-16.21,12.7-24.08c3.44-6.01,7.31-11.81,11.41-17.4
		c4.89-6.66,10.17-13.03,15.4-19.43c4.81-5.87,9.45-11.93,14.75-17.34c9.64-9.83,19.39-19.59,29.68-28.71
		c9.69-8.59,20.16-16.27,31.18-23.16c6.43-4.02,12.61-8.45,18.9-12.69c0.33-0.22,0.65-0.49,1.01-0.65
		c6.41-2.96,12.83-5.89,19.23-8.88c3.63-1.69,7.1-3.83,10.85-5.14c7.02-2.46,14.12-4.75,21.33-6.59c8.02-2.04,16.14-3.83,24.31-5.15
		c18.77-3.03,36,0.81,50.66,13.29c6.9,5.88,13.11,12.45,17.18,20.91c4.77,9.91,9.55,19.77,12.15,30.49
		c2.23,9.2,2.31,18.62,1.02,27.91c-1.76,12.6-5.09,24.9-9.67,36.76c-3.61,9.36-8.36,18.14-14.21,26.41
		c-5.55,7.85-12.01,14.69-19.45,20.6c-8.61,6.83-17.75,12.84-28.77,15.26c-1.67,0.36-3.22,1.23-4.71,1.82
		c-6.4-2.21-8.49-5.07-7.62-10.78c0.78-0.27,1.74-0.89,2.7-0.89c8.89-0.01,16.27-4.38,23.35-8.79
		c17.67-11.02,29.75-27.08,38.64-45.61c5.45-11.37,8.51-23.56,11.09-35.88c1.95-9.3,2.12-18.75,0.34-27.9
		c-1.36-6.98-4.8-13.56-7.38-20.29c-0.52-1.37-1.33-2.63-1.99-3.94c-11.16-22.18-29.71-31.63-53.9-30.83
		c-12.64,0.42-24.86,3.38-36.73,7.72c-8.02,2.93-16.24,5.39-24.02,8.86c-8.64,3.86-16.98,8.45-25.27,13.03
		c-12.65,6.98-24.28,15.58-35.65,24.38c-8.63,6.68-16.5,14.42-24.23,22.17c-8.86,8.89-17.4,18.11-25.66,27.55
		c-8.44,9.64-16.08,19.91-23.2,30.63c-7.58,11.43-13.68,23.58-19.83,35.75c-0.82,1.63-1.31,3.43-2.06,5.45
		c2.9,1.95,5.57,3.66,8.15,5.49c9.46,6.74,16.66,15.3,21.18,26.08c4.57,10.89,8.03,22.17,10.26,33.7
		c2.16,11.15,1.05,22.25-3.57,32.92c-4.84,11.17-11.15,21.39-20.34,29.31c-8.01,6.91-17,12.93-28.33,12.19
		c-8.06-0.52-14.47-4.43-18.23-11.95c-4.23-8.45-5.46-17.55-5.77-26.83c-0.52-15.52,2.3-30.58,5.9-45.59
		c3.34-13.95,8.18-27.37,13.24-40.74c0.61-1.62,1.65-3.07,2.29-4.68c0.75-1.9,1.29-3.89,1.92-5.84
		C1494.16,1205.54,1493.89,1205.1,1493.63,1204.66z M1504.4,1208.3c-0.72,1.38-1.44,2.49-1.91,3.68
		c-4.23,10.95-9.05,21.73-12.46,32.93c-3.76,12.35-6.63,25.02-9.06,37.72c-1.39,7.29-1.36,14.9-1.56,22.38
		c-0.21,7.9,0.47,15.8,3.21,23.29c1.95,5.33,5.22,7.17,10.91,6.65c8.45-0.77,15.06-5.49,20.94-10.94
		c8.92-8.26,15.58-18.26,20.19-29.58c2.7-6.64,4.28-13.47,4.25-20.67c-0.05-10.85-2.8-21.16-6.49-31.22
		c-2.99-8.17-6.29-16.24-11.95-23.04C1516.23,1214.41,1511.15,1210.48,1504.4,1208.3z"/>
	<path d="M1180.54,918.74c-5.26,0.01-7.7-2.16-8.85-5.86c-1.35-4.33-2.51-8.73-3.82-13.07c-3.31-10.94-9.73-19.17-20.57-23.53
		c-11.37-4.58-23.01-3.3-34.31-0.44c-23.31,5.89-40.9,19.75-52.98,40.51c-1.73,2.97-2.81,6.31-4.25,9.63
		c-2.28,0.7-4.83,1.28-6.67-0.73c-2.03-2.22-2.31-5.24-1.15-7.95c1.74-4.05,3.5-8.18,5.96-11.8c12.74-18.79,30.3-31.11,52.11-37.1
		c9.33-2.56,19.13-3.35,28.66-1.92c10.09,1.51,19.65,5.18,27.52,12.18c0.35,0.31,0.94,0.37,1.93,0.73c0.15-3,0.23-5.71,0.43-8.41
		c0.43-5.7,0.93-11.4,1.4-17.1c0.06-0.66,0.08-1.36,0.29-1.98c2.32-6.92,4.18-14.05,7.16-20.67c2.88-6.41,6.5-12.61,10.56-18.36
		c7.55-10.68,15.4-21.17,23.66-31.31c3.82-4.69,8.85-8.41,13.45-12.44c3.91-3.43,7.69-7.15,12.06-9.89
		c8.57-5.39,17.4-10.41,26.33-15.17c12.39-6.6,25.84-10.76,38.96-15.49c13.11-4.73,26.71-8.37,40.84-9.16
		c2.5-0.14,4.94-1.24,7.44-1.52c16.39-1.82,32.79-2.59,49.16,0.15c8.55,1.43,17.22,2.43,25.61,4.54c8.78,2.21,17.47,5.07,25.89,8.44
		c20.07,8.03,37.96,19.64,53.9,34.26c6.93,6.36,13.17,13.32,18.47,21.07c4.74,6.94,9.19,14.09,13.54,21.29
		c6.19,10.26,9.42,21.53,10.45,33.42c1.04,12.1,2.48,24.21,2.67,36.34c0.22,14.28-1.08,28.58-5.38,42.31
		c-1.61,5.14-4.72,9.81-7.14,14.69c-0.41,0.82-0.81,1.63-1.29,2.61c2.37,4.09,4.99,7.97,6.94,12.17c1.73,3.72,2.79,7.75,4.01,11.69
		c1.66,5.35,3.19,10.73,4.76,16.1c0.78,2.66,1.51,5.33,2.17,7.68c-3.2,3.63-5.05,3.96-7.45,0.83c-1.7-2.22-2.87-5.08-3.53-7.83
		c-2.35-9.73-3.56-19.76-7.94-28.92c-0.73-1.52-1.7-2.91-2.73-4.65c-2.71,2.84-5.09,5.28-7.41,7.79
		c-6.5,7.04-14.57,11.81-23.36,15.12c-12.66,4.76-25.09,4.1-35.98-4.63c-7.06-5.65-9.14-13.46-4.79-23.64
		c5.19-12.16,15.39-18.2,28.11-20.7c13.68-2.69,25.23,1.94,36.02,9.68c0.96,0.69,1.98,1.28,3.35,2.17c0.95-1.49,1.9-2.72,2.6-4.09
		c5.51-10.75,8.56-22.2,9.14-34.23c0.51-10.67,1.06-21.36,0.85-32.03c-0.23-11.77-1.57-23.52-4.64-34.92
		c-3.2-11.89-9.21-22.5-16.32-32.46c-3.56-5-7.3-9.92-11.42-14.46c-13.91-15.35-30.42-27.18-49.3-35.73
		c-15.09-6.83-31.01-10.6-47.2-13.72c-15.91-3.07-31.93-2.89-47.96-2.67c-5.17,0.07-10.36,1.12-15.48,2.04
		c-7.09,1.27-14.21,2.54-21.18,4.35c-10.85,2.81-21.73,5.63-32.33,9.22c-15.73,5.33-30.78,12.35-44.91,21.14
		c-16.05,9.98-29.59,22.76-41.41,37.51c-7.9,9.86-14.87,20.24-20.26,31.64c-5.68,12-10.02,24.3-11.1,37.81
		c-0.71,8.86,0.33,17.35,2.17,25.8c1.07,4.9,3.5,9.49,5.19,14.27c0.53,1.49,0.95,3.17,0.82,4.71
		C1181.87,915.68,1181.03,917.28,1180.54,918.74z M1522.08,935.39c-1.2-0.69-2.37-1.33-3.5-2.02c-13.28-8.17-30.04-10.65-44.02-0.44
		c-6.48,4.73-9.98,11.31-11.32,19.09c-0.43,2.5,0.17,5.11,2.55,6.3c6.12,3.07,12.86,4.57,19.44,2.88
		C1500.1,957.38,1511.43,948.01,1522.08,935.39z"/>
	<path d="M1101.95,626.45c0.92,0.36,1.3,0.65,1.64,0.61c9.41-0.95,18.72,0.51,27.87,2.02c14.01,2.32,28.45,10.89,32.35,26.8
		c0.8,3.24,0.12,6.84,0.12,10.66c-1.88,1.08-3.45,2.53-5.24,2.93c-14.01,3.1-27.35,2.35-40.16-5.4
		c-9.63-5.83-15.45-14.42-20.76-23.74c-0.65-1.15-1.3-2.31-2.03-3.61c-2.58,0-5.12-0.24-7.59,0.05c-4.49,0.54-8.93,1.5-13.42,2.12
		c-11.14,1.53-21.34,6.2-31.99,9.38c-19.76,5.91-37.64,15.74-55.51,25.68c-13.39,7.45-25.43,16.67-36.21,27.51
		c-14.47,14.55-26.74,30.61-33.29,50.4c-3.91,11.83-6.5,23.98-7.59,36.37c-0.63,7.16-0.54,14.41-0.36,21.61
		c0.09,3.53,1.1,7.04,1.77,10.98c-0.73,0.68-1.67,1.55-2.44,2.26c-5.57-1.08-9.6-4.52-9.47-11.36c0.2-10.27-0.52-20.68,0.92-30.79
		c1.57-11.02,5.32-21.72,7.78-32.64c2.43-10.79,8.18-19.96,13.74-29.21c2.03-3.38,4.97-6.22,7.53-9.27
		c2.82-3.36,5.55-6.81,8.56-9.99c7.88-8.33,16.42-15.87,25.91-22.4c22.48-15.47,46.54-27.8,72.34-36.63
		c12.34-4.22,24.63-8.8,37.63-10.77c5.67-0.86,11.38-1.5,17.07-2.26c0.76-0.1,1.5-0.35,2.81-0.67c0-4.69-0.14-9.34,0.06-13.98
		c0.09-2.07,0.61-4.21,1.36-6.16c2.49-6.48,5-12.96,7.83-19.29c2.39-5.36,4.96-10.69,7.99-15.7c1.67-2.77,4.52-4.8,6.75-7.26
		c4.66-5.14,8.96-10.64,13.93-15.44c7.04-6.8,15.08-12.47,24.18-16.07c11.41-4.52,22.99-8.76,34.78-12.16
		c7.09-2.05,14.71-2.27,22.09-3.34c1.97-0.29,3.91-0.79,5.89-0.98c12.79-1.24,25.59-1.66,38.39-0.13
		c7.15,0.86,14.54,0.94,21.39,2.88c13.7,3.88,27.38,7.98,39.1,16.86c6.47,4.9,11.74,10.48,15.13,17.8c1.62,3.5,2.97,7.13,2.22,11.61
		c-1-0.47-1.91-0.66-2.46-1.22c-0.73-0.73-1.42-1.67-1.73-2.65c-5.07-15.75-17.92-22.93-31.86-28.8c-5.15-2.17-10.38-4.4-15.8-5.59
		c-7.34-1.62-14.88-2.32-22.35-3.3c-2.11-0.28-4.27-0.21-6.4-0.27c-8.01-0.22-16.03-0.77-24.02-0.52
		c-6.75,0.22-13.46,1.48-20.21,2.1c-9.52,0.88-18.6,3.47-27.61,6.49c-2.33,0.78-4.97,0.57-7.44,0.97c-1.26,0.21-2.56,0.6-3.68,1.21
		c-3.02,1.66-5.82,3.79-8.95,5.17c-11.72,5.19-22.3,11.99-31.06,21.41c-1.9,2.04-3.48,4.39-5.08,6.68
		c-6.44,9.19-12.64,18.54-17.32,28.79c-3.79,8.31-6.86,16.85-7.09,26.15C1101.93,623.69,1101.95,625,1101.95,626.45z
		 M1103.78,635.77c0.2,1.47,0.15,2.42,0.46,3.24c2.82,7.46,7.77,13.39,13.93,18.24c2.21,1.73,5.09,3.12,7.84,3.53
		c5.12,0.78,10.37,0.87,15.57,0.97c2.5,0.05,5.08-0.26,7.52-0.85c5.87-1.42,7.23-4.36,5.16-10.05c-2.47-6.79-8.26-9.46-14.34-11.75
		c-9.18-3.46-18.83-3.5-28.44-3.72C1109.02,635.32,1106.54,635.62,1103.78,635.77z"/>
	<path d="M216.04,887.36c-1.34,0.6-2.4,1.07-3.34,1.49c-9.57-7.42-12.36-15.77-6.37-26.29c6.67-11.7,15.51-21.72,25.17-31.02
		c1.42-1.36,3.35-2.18,4.94-3.37c5-3.76,9.91-7.66,14.96-11.35c2.43-1.78,5.11-3.24,7.75-4.76c12.13-10.31,25.69-16.79,41.93-18.62
		c13.13-1.47,26.12-1.17,39.18-0.59c3.04,0.14,6.09,0.87,9.05,1.67c11.96,3.22,24.09,6.15,35.22,11.62
		c10.66,5.24,20.94,11.3,31.16,17.4c7.22,4.31,14.28,8.96,20.98,14.03c7.12,5.39,14.4,10.85,20.4,17.39
		c9.46,10.31,18.1,21.4,24.78,33.84c2.33,4.33,4.84,8.56,7.37,13c4.21-0.61,8.24-1.49,12.31-1.71c8.61-0.48,16.94,1.37,25.31,3.21
		c7.38,1.62,14.5,3.83,21.06,7.46c16.82,9.3,31.4,21.36,42.72,36.93c7.59,10.45,12.8,22.01,15.53,34.88
		c2.83,13.36,3.89,26.69,3.12,40.24c-0.1,1.72-0.3,3.49-0.82,5.13c-3.1,9.9-4.79,20.28-9.89,29.49c-1.47,2.66-3.23,5.15-4.71,7.48
		c-6.96-0.52-9.68-2.45-11.02-7.68c3.74-1.41,5.33-4.77,6.88-8.16c4.18-9.13,8.24-18.35,9.44-28.43
		c1.44-12.02,1.18-24.04-1.23-35.93c-1.51-7.46-2.94-14.92-6.14-21.95c-4.91-10.8-12.37-19.57-20.73-27.78
		c-7.78-7.63-16.63-13.84-26.05-19.06c-7.46-4.13-15.77-6.14-24.45-6.86c-6.24-0.52-12.42-2.02-18.72-1.04
		c-2.93,0.46-5.78,1.42-8.1,2.01c1.2,6.72,2.48,12.55,3.23,18.45c1.22,9.56-1.33,18.55-4.99,27.26c-1.29,3.06-2.49,6.29-4.44,8.92
		c-5.74,7.75-16.91,8.72-24.4,5.8c-2.97-1.16-5.96-2.5-8.58-4.28c-11.37-7.74-15.07-20.77-10.3-33.2
		c5.48-14.28,16.82-22.14,30.56-27.23c1.75-0.65,3.54-1.23,5.29-1.88c0.35-0.13,0.62-0.45,1.4-1.04c-1.06-1.9-2.07-3.86-3.2-5.75
		c-6.36-10.67-12.26-21.62-20.22-31.27c-8.32-10.08-17.76-18.85-28.69-26.06c-13.61-8.97-27.2-17.98-42.1-24.7
		c-7.05-3.18-14.21-6.22-21.58-8.52c-5.5-1.72-11.42-2.11-17.13-3.16c-3.11-0.57-6.17-1.75-9.28-1.85
		c-8.4-0.29-16.86-0.65-25.23-0.04c-10.53,0.76-20.71,3.36-30.58,7.41c-10.44,4.29-19.08,11.03-27.95,17.74
		c-9.1,6.88-17.96,13.93-25.62,22.38c-6.2,6.84-12.11,13.92-15.68,22.6c-1.98,4.82-2.94,9.5,1.21,13.78
		C215.78,885.69,215.76,886.34,216.04,887.36z M485.51,912.17c-1.59,0.24-2.42,0.21-3.13,0.49c-7.14,2.76-13.93,6.23-19.46,11.58
		c-6.59,6.37-11.27,13.83-11.38,23.45c-0.08,6.37,3.63,12.48,8.9,14.39c5.92,2.14,15.11-0.26,18.28-5.44
		c2.41-3.93,4.03-8.37,5.76-12.68c3.19-7.95,4.38-16.2,2.97-24.7C487.06,916.95,486.22,914.72,485.51,912.17z"/>
	<path d="M844.77,969.59c-3.65-1.69-6.78-3.46-10.13-4.62c-7.82-2.71-15.76-5.06-23.62-7.67c-3.22-1.07-6.23-2.55-6.58-6.07
		c10.6-5.89,20.94-11.64,31.97-17.77c1.32,0.26,3.48,0.7,5.41,1.08c0-2.41-0.33-4.62,0.06-6.7c1.93-10.38,4.04-20.72,6.08-31.07
		c0.13-0.65,0.28-1.31,0.33-1.97c0.72-9.43,1.42-18.87,2.15-28.31c0.04-0.51,0.27-1.01,0.55-2.03c2.71,0.72,5.34,1.41,8.44,2.23
		c6.12,14.28,13.43,28.16,22.48,41.01c1.07,0,1.76,0.14,2.37-0.02c13.25-3.59,26.48-7.26,39.75-10.81
		c5.66-1.51,11.35-2.93,17.09-4.08c3.62-0.72,7.22-0.38,10.07,2.51c1.51,1.53,1.95,3.22,0.72,5.05c-3.2,4.76-6.13,9.76-9.79,14.14
		c-6.42,7.68-13.32,14.95-19.99,22.42c-0.87,0.98-1.55,2.13-2.49,3.46c5.65,10.22,10.58,20.71,17.53,30.14
		c4.42,6,8.24,12.45,12.14,18.81c1.55,2.54,1.9,5.32-0.96,7.67c-0.55,0.07-1.31,0.4-1.85,0.19c-4.74-1.85-9.75-1.08-14.6-1.67
		c-6.46-0.78-12.86-2.25-19.18-3.85c-5.94-1.51-11.78-3.44-17.59-5.43c-3.59-1.23-6.13-0.26-8.46,2.53
		c-6.24,7.49-12.49,14.99-18.94,22.3c-7.42,8.41-15.08,16.61-22.3,24.54c-5.46,0.53-8.24-1.92-9.2-4.26
		c0-6.42,0.09-11.07-0.02-15.71c-0.22-9.73,1.49-19.11,4.39-28.38C842.31,981.79,843.26,976.1,844.77,969.59z M937.01,988.13
		c0.25-0.41,0.49-0.82,0.74-1.22c-3.71-9.35-11.23-16.4-15.89-25.18c-4.66-8.78-10.47-16.97-14.21-25.68
		c8.35-8.95,16.09-17.23,23.8-25.54c1.37-1.47,3.09-2.9,2.31-5.3c-16.87,4.31-33.51,8.56-50.22,12.83
		c-5.91-2.87-6.41-3.32-9.54-8.56c-4.32-7.22-8.63-14.45-12.98-21.65c-0.5-0.82-1.26-1.48-2.03-2.38
		c-2.62,17.05-5.17,33.62-7.84,51.02c-1.06,0.45-2.65,1.12-4.18,1.77c-3.19,4.72-9.18,4.81-13.43,7.82
		c-4.27,3.03-8.92,5.53-13.4,8.26c0.02,0.37,0.05,0.75,0.07,1.12c12.49,2.68,23.85,8.05,35.7,13.81
		c-1.23,5.49-2.33,10.69-3.58,15.85c-1.63,6.74-3.62,13.4-4.98,20.2c-0.76,3.77-1.04,7.75-0.39,11.61c0.37,0.14,0.74,0.28,1.1,0.42
		c11.32-13.36,22.65-26.73,34.56-40.79c6.14,1.81,12.79,3.64,19.35,5.75c7.61,2.45,15.14,5.2,23.18,5.78
		C929.08,988.36,933.05,988.13,937.01,988.13z"/>
</g>
</svg>
