<?xml version="1.0" encoding="utf-8"?>
<!-- Generator: Adobe Illustrator 27.4.0, SVG Export Plug-In . SVG Version: 6.00 Build 0)  -->
<svg version="1.1" id="Calque_1" xmlns="http://www.w3.org/2000/svg" xmlns:xlink="http://www.w3.org/1999/xlink" x="0px" y="0px"
	 viewBox="0 0 2000 2000" style="enable-background:new 0 0 2000 2000;" xml:space="preserve">
<g>
	<path d="M1537.49,518.24c5.08,0.81,8.75,1.4,12.34,1.97c1.89,3.6-0.74,5.36-2.7,7.25c-18.14,17.45-37.82,33.02-58.21,47.72
		c-12.34,8.9-24.69,17.79-36.54,26.33c-6.53,1.17-12.37,2.22-17.72,3.18c-5.94-3.28-11.36-6.03-12.89-13.05
		c1.74-6.9,3.55-14.07,5.48-21.67c-8.39-3.26-16.27-6.96-19.83-16.72c-9.73,12.86-14.03,28.03-23.96,38.86
		c-11.73-1.58-14.41-3.53-19.1-14.12c12.73-34.51,24.85-70.45,39.23-105.45c14.38-35,31.02-69.08,46.47-103.12
		c10.88-1.01,16.14,2.51,19.87,13.14c-14.98,31.69-33.12,62.57-44.76,96.84c2.17-2.74,4.38-5.44,6.49-8.22
		c2.14-2.82,4.1-5.79,6.27-8.58c2.39-3.07,4.9-6.05,7.44-9.01c2.31-2.68,4.62-5.38,7.14-7.86c2.73-2.7,5.71-5.15,8.51-7.65
		c8.53,1.51,15.54,4.14,20.13,12.27c-5.43,16.94-15.12,32.31-21.66,49.22c4.35,4,8.57,7.88,13.42,12.35
		c5.87-8.88,11.59-17.73,17.51-26.44c14.93-21.96,29.07-44.53,45.19-65.57c13.52-17.64,26.92-35.47,42.18-51.81
		c15.45-16.53,29.84-34.06,44.89-50.97c8.71-9.78,18.09-18.96,26.68-28.83c14.38-16.53,28.5-33.3,42.45-50.2
		c3.54-4.29,6.04-9.46,9.42-14.88c7.96,0.94,13.57,5.54,17.4,12.44c0.89,4.84-0.54,8.68-3.52,12.02
		c-7.54,8.43-15.06,16.88-22.68,25.25c-11.92,13.09-23.75,26.26-35.91,39.12c-26.29,27.78-51.8,56.22-76.16,85.73
		c-17.38,21.05-33.72,42.82-49.59,64.99c-1.8,2.51-3.25,5.27-5.58,9.09c6.22-2.1,7.99-6.9,11.22-10.08
		c3.52-3.48,6.81-7.2,10.19-10.84c3.37-3.63,6.62-7.38,10.12-10.89c3.19-3.21,6.57-6.24,10-9.21c3.72-3.22,7.62-6.23,11.4-9.38
		c3.77-3.14,7.49-6.35,12.17-10.32c0.51,4.49-0.42,7.23-2.36,9.77c-4.52,5.89-9.14,11.7-13.5,17.71c-2.46,3.4-4.37,7.2-6.73,10.68
		c-3.77,5.55-7.69,11.01-11.6,16.46c-3.23,4.49-6.55,8.91-8.77,14.32c5.07-4.65,10.13-9.3,15.85-14.54
		c3.25,0.16,7.04,0.34,11.29,0.55c-0.14,2.06,0.27,3.75-0.39,4.66c-7.01,9.64-11.8,20.84-20.99,28.96
		C1547.31,504.81,1542.76,511.01,1537.49,518.24z"/>
	<path d="M879.24,1340.94c-3.07,0-5.08,0-7.44,0c-3.1-6.68-2.6-13.05,0.72-19.29c3-5.63,6.24-11.12,9.25-16.74
		c1.97-3.68,3.71-7.48,6.29-12.72c-7.27,6.95-30.54,45.13-43.21,69.86c-5.18,5.29-9.66,9.87-14.69,15.01
		c-4.4-6.11-1.99-11.89-2.68-18.5c-1.84,2.37-3.44,3.93-4.44,5.81c-3.47,6.58-7.28,13.05-9.93,19.96
		c-3.82,9.98-10.1,16.05-21.19,16.03c-7.73,13.5-15.29,26.68-22.83,39.86c-28.3,49.49-57.07,98.73-83.25,149.39
		c-12.02,23.27-23.25,46.94-34.84,70.42c-9.08,18.39-18.23,36.73-27.22,55.16c-4.66,9.54-8.97,19.25-13.57,28.83
		c-1.04,2.16-2.63,4.05-3.93,6c-6.47,1.11-10.64-1.23-13.82-7.27c3.82-7.96,7.81-16.2,11.73-24.48
		c23.82-50.25,46.32-101.15,73.15-149.91c21.86-39.72,44.18-79.19,66.42-118.7c26.93-47.85,53.85-95.7,81.04-143.4
		c10.7-18.77,22.07-37.16,33.21-55.68c1.81-3,3.96-5.8,6.04-8.83c9.22,4.01,18.07,7.83,26.89,11.72c4.86,2.14,7.91,5.82,9.04,11.56
		c-0.54,1.96-1.18,4.31-1.79,6.52c0.36,0.8,0.47,1.68,0.96,2.02c5.98,4.3,10.32,10.55,17.35,13.71c4.46,2,6.37,6.45,6.55,12.6
		c-2.52,5.09-5.31,11.2-8.49,17.1c-21.88,40.52-43.9,80.95-65.76,121.48c-18.33,33.98-36.52,68.03-54.76,102.06
		c-2.67,4.97-5.15,10.05-7.91,14.97c-1.37,2.44-3.17,4.65-4.76,6.97c-2.18,3.17-5.06,6.07-6.38,9.56
		c-4.53,11.99-11.16,22.78-17.5,33.81c-9.35,16.26-18.07,32.89-26.75,49.52c-17.18,32.93-34.41,65.85-51.11,99.02
		c-11.25,22.35-21.64,45.14-32.28,67.43c-4.45,3.65-8.61,7.07-12.77,10.48c-0.38-0.29-0.77-0.59-1.15-0.88
		c1.04-2.88,1.87-5.87,3.16-8.64c17.83-38.16,35.72-76.3,53.6-114.43c4.81-10.25,9.39-20.61,14.52-30.7
		c10.44-20.49,21.22-40.8,31.8-61.22c14.82-28.61,29.51-57.28,44.39-85.86c17.5-33.61,35.17-67.13,52.74-100.7
		c14.78-28.25,29.54-56.51,44.28-84.78C878.41,1344.17,878.57,1343.1,879.24,1340.94z"/>
	<path d="M1264.2,991.16c-14.07-12.29-8.07-24.2,0.03-37.52c-6.01,1.53-8.92,4.58-12.06,6.92c-15.29,11.46-30.43,23.13-45.68,34.64
		c-2.25,1.69-4.7,3.23-7.26,4.36c-8.22,3.63-14.91,0.74-17.52-7.81c-1.33-4.37-1.78-9.01-2.69-13.82
		c2.71-8.74,7.37-16.75,13.24-23.81c15.84-19.05,31.04-38.81,48.44-56.34c30.43-30.66,62.18-60.02,93.68-89.61
		c9.79-9.2,20.51-17.41,30.88-25.98c1.57-1.3,3.55-2.1,5.3-3.11c7.11,3.38,8.89,9.03,8.75,16.55
		c-30.18,24.31-58.6,50.87-86.36,78.17c-42.09,41.39-71.58,74.23-78.33,88.58c29.16-23.21,58.56-42.6,88.01-61.59
		c6.55,1.1,9.91,5.8,13.54,9.65c1.96,6.45-0.26,11.19-4.19,15.86c-6.35,7.54-12.22,15.48-18.79,23.88c5.01,1.2,7.57-1.67,10.32-3.49
		c14.19-9.36,28.31-18.82,42.42-28.3c28.79-19.33,57.57-38.67,86.32-58.06c3.8-2.56,7.41-5.42,11.51-8.43
		c6.16,2.18,9.46,7.69,13.13,11.77c1.74,6.47-0.49,9.91-5.44,12.99c-39.1,24.31-77.4,49.84-115.19,76.15
		c-19.16,13.34-39.43,25.08-59.16,37.62C1272.79,993.17,1268.52,993.39,1264.2,991.16z"/>
	<path d="M325.74,693.69c-1.77-2.1-3.54-4.21-5.84-6.93c1.39-2.03,2.9-4.24,4.32-6.31c7.28-2.28,13.77,0.04,19.92,2.39
		c41.64,15.93,83.37,31.65,124.68,48.41c25.57,10.37,50.33,22.71,75.67,33.67c33.78,14.61,67.37,29.83,103.44,38.3
		c4.48,1.05,9.04,1.76,13.57,2.53c1,0.17,2.08-0.08,4.16-0.19c-1.44-2.41-2.28-4.58-3.75-6.16c-30.19-32.45-61.15-64.02-97.52-89.83
		c-25.72-18.25-50.74-37.47-76.36-55.87c-41.21-29.6-81.15-60.71-117.58-96.14c-3.52-3.43-7.14-6.75-11.06-10.45
		c1.3-2.8,2.44-5.25,3.56-7.66c6.05-1.14,10.93,0.42,15.32,3.76c8.17,6.21,16.79,11.93,24.36,18.81
		c36,32.72,74.88,61.68,114.42,89.92c30.84,22.03,60.84,45.23,91.04,68.15c17,12.9,31.42,28.58,45.92,44.15
		c8.69,9.33,17.65,18.4,26.37,27.7c2.16,2.3,4.29,4.82,5.71,7.6c6.13,12-1.41,25.3-14.89,26.38c-9.32,0.75-18.31-1.47-27.28-3.56
		c-26.27-6.14-51.7-14.89-76.41-25.65c-25.98-11.3-51.67-23.27-77.68-34.5c-29.9-12.91-60.04-25.24-90.01-37.99
		c-20.86-8.87-41.57-18.07-62.41-26.97c-3.84-1.64-7.99-2.57-12-3.83L325.74,693.69z"/>
	<path d="M1043.25,850.79c-7.06,1.23-13.03,0.59-17.99-6.1c0.38-2.2,0.33-5.12,1.38-7.57c15.41-35.84,27.31-72.91,39.21-110
		c18.07-56.29,36.05-112.62,54.54-168.78c16.41-49.8,36.69-98.14,56.81-146.52c19.04-45.78,38.67-91.32,57.32-137.25
		c13.32-32.79,25.44-66.07,38.18-99.1c1.2-3.11,1.35-7.26,6-7.76c8.16,6.55,10.95,13.9,7.99,22.99
		c-3.4,10.43-7.28,20.71-11.01,31.04c-20.58,56.99-44.9,112.48-67.52,168.64c-18.39,45.65-37.04,91.2-54.86,137.07
		c-16.8,43.24-30.62,87.53-44.71,131.72c-6.34,19.89-13.3,39.59-19.83,59.42c-9.08,27.57-17.88,55.23-27.07,82.76
		c-5.15,15.43-10.83,30.69-16.31,46.01C1045.05,848.33,1044.3,849.15,1043.25,850.79z"/>
	<path d="M1522.29,1319.27c-19.87-7.66-37.71-16.29-55.38-25.28c-34.73-17.66-69.29-35.66-104.12-53.13
		c-28.81-14.45-57.93-28.28-86.87-42.49c-5.39-2.65-10.54-5.77-15.4-8.45c-4.62-7.87-1.29-13.17,4.79-18.87
		c12.8,4.57,24.38,12.1,36.79,17.75c12.24,5.58,24,12.18,36.03,18.21c12.34,6.19,24.73,12.28,37.15,18.32
		c12.42,6.04,24.93,11.88,37.33,17.95c12.4,6.07,24.71,12.33,37.07,18.49c12.05,6.01,24.04,12.11,36.17,17.95
		c12.33,5.93,24.8,11.59,39.46,18.42c-3.63-5.52-7.39-6.6-10.6-8.2c-40.87-20.43-81.82-40.68-122.65-61.18
		c-25.65-12.88-51.25-25.91-74.93-42.26c-8.45-5.83-16.53-12.2-24.65-18.49c-2.2-1.71-3.93-4.02-5.64-5.81
		c-1.81-6.71-0.04-11.57,6.09-15.25c1.87,1.02,4.11,1.98,6.07,3.34c29.16,20.16,58.96,39.29,90.72,55.15
		c21.86,10.92,44.02,21.26,65.78,32.39c34.68,17.74,69.12,35.96,103.69,53.93c17.85,9.28,35.19,19.63,54.51,26.17
		c1.32,6.96-2.49,10.78-6.91,14.17c-7.24,0.99-13.61-0.43-19.78-3.68c-16.6-8.74-33.29-17.31-50.52-26.24
		c-1.57,3.34-2.57,7.1-4.83,9.82C1529.29,1314.87,1525.71,1316.72,1522.29,1319.27z"/>
	<path d="M1331.57,1444.38c3.87-1.44,7.17-2.58,10.4-3.89c21.35-8.7,42.98-16.54,65.83-20.28c17.14-2.8,34.39-4.48,51.8-3.17
		c15.23,1.15,24.09,9.54,25.66,24.73c0.62,6.02,0.01,11.92-2.52,17.65c-7.16,16.27-17.7,29.89-32.02,40.31
		c-19.74,14.37-39.27,29.14-59.85,42.22c-29.56,18.8-59.28,37.49-91.17,52.24c-12.51,5.79-25.39,10.81-38.29,15.7
		c-4.54,1.72-9.64,1.95-14.48,2.92c-4.5,0.9-8.98,1.86-13.46,2.81c-6.89,1.46-13.77,2.94-20.45,4.37c-2.69-3.77-4.87-6.83-6.81-9.55
		c1.31-4.65,4.99-4.22,7.92-4.98c28.55-7.4,56.27-17.17,82.48-30.69c18.55-9.57,36.77-19.88,54.6-30.72
		c20.56-12.5,40.85-25.52,60.68-39.15c13.68-9.4,26.81-19.73,39.33-30.63c6.26-5.45,10.9-12.9,15.65-19.87
		c2.06-3.02,2.54-7.11,3.63-10.38c-3.27-4.7-7.32-5.3-11.62-5.94c-13.13-1.94-26.16-0.71-39.16,0.98
		c-29.78,3.87-57.82,13.51-84.89,26.19c-9.93,4.65-20.05,8.91-28.8,15.82c-2.21,1.74-5.71,1.85-8.09,2.56
		c-9.34-10.13-8.76-17.19,1.01-24.58c5.03-3.8,10.19-7.5,13.55-13.14c-14.96-7.93-53.69,1.41-87.96,21.16
		c-2.26-0.87-5.11-1.96-7.76-2.98c0.33-4.38,0.61-8.04,0.91-11.94c11.95-11.74,26.37-19.71,42.92-23.59
		c9.98-2.34,20.05-4.4,30.18-5.93c5.18-0.78,10.59-0.3,15.88-0.1c9.36,0.35,15.98,4.97,20.13,13.34
		C1328.16,1438.64,1329.82,1441.28,1331.57,1444.38z"/>
	<path d="M325.43,693.43c2.25,1.71,4.37,3.64,6.76,5.1c43.5,26.68,87.67,52.06,134.45,72.8c25.55,11.33,50.51,24.11,73.94,39.54
		c14.6,9.62,26.7,22.1,38.69,34.67c3.29,3.45,5.6,7.28,5.58,13.99c-2.36,3.34-5.55,7.85-7.86,11.12
		c-9.41,3.94-17.44,3.94-25.67,3.12c-35.42-3.53-69.79-11.53-103.36-23.32c-9.67-3.4-19.71-5.76-29.53-8.76
		c-5.07-1.55-10.15-3.18-15.03-5.25c-3.11-1.32-5.84-3.5-9.16-5.55c2.25-3.88,3.97-6.86,5.8-10.01c7.24-1.56,14.05-0.26,20.9,1.75
		c23.44,6.87,46.91,13.66,70.39,20.39c20.15,5.78,40.79,8.95,61.6,11.09c0.64,0.07,1.33-0.37,2.88-0.84
		c-1.09-1.79-1.74-3.78-3.09-4.92c-8.39-7.06-16.54-14.49-25.52-20.73c-21.28-14.81-44.46-26.38-67.62-37.89
		c-20.3-10.08-41.03-19.36-61-30.03c-21.85-11.68-43.02-24.63-64.57-36.89c-13.54-7.7-27.23-15.12-40.83-22.71
		c-2.09-1.17-4.02-2.62-5.9-3.86c3.75-11.3,6.16-13.72,16.86-16.68c6.88,4.51,14.23,9.33,21.58,14.14
		C325.74,693.69,325.43,693.43,325.43,693.43z"/>
	<path d="M872.44,607.13c-3.63-1.19-6.55-2.14-9.78-3.2c-1.72-4.09-3.74-7.85-4.93-11.86c-8.79-29.51-17.53-59.03-26.03-88.62
		c-3.42-11.9-6.42-23.93-9.14-36c-1.07-4.77-1.44-9.88-1.08-14.75c0.59-7.98,4.69-13.88,12.37-17.05
		c11.51-4.76,22.59-5.06,33.42,2.05c8.11,5.32,15.27,11.43,20.06,20.06c2.37,4.28,5.15,8.33,8.39,13.52
		c9.37-10.99,20.14-16.42,35.09-13.43c2.93,4.4,6.78,9.08,9.43,14.36c13.54,26.94,20.64,55.65,22.39,85.7
		c0.72,12.39-3.5,22.8-12.85,31.32c-5.08-0.42-10.39,3.15-14.8-1.42c0.24-1.32,0.12-2.27,0.5-2.57
		c9.05-7.02,11.35-16.56,10.78-27.42c-1.34-25.8-6.92-50.46-19.26-73.34c-1.51-2.79-3.34-5.42-5.18-8.02
		c-0.78-1.1-1.95-1.91-3.59-3.48c-4.48,6.28-3.76,12.92-3.78,19.38c-0.02,6.72,0,13.45,0,21.08c-3.28,3.69-6.99,7.86-9.88,11.12
		c-5.57,1.95-8.91,0.37-12.26-2.88c-2.3-6.22-4.97-12.77-7.17-19.47c-4.37-13.31-11.63-25.04-19.66-36.3
		c-5.16-7.23-11.76-12.94-21.27-16.46c-0.31,2.83-1.02,4.85-0.65,6.65c3.19,15.59,6.1,31.27,10.02,46.69
		c6.27,24.68,13.29,49.18,19.89,73.78C875.44,583.87,874.96,598.39,872.44,607.13z"/>
	<path d="M438.44,1191.33c12.83,9.47,16.13,20.33,9.97,34.26c-2.26,5.13-4.98,10.26-8.47,14.6c-18.93,23.54-40.58,44.36-64.46,62.85
		c-1.64,1.27-3.5,2.27-5.27,3.4c-6.77-3.25-8.83-9.06-10.53-15.18c13.16-11.83,26.47-22.91,38.72-35.05
		c11.95-11.85,24.32-23.56,33.14-38.85c-3.9-2.5-6.78-0.16-9.27,0.91c-12.35,5.31-24.8,10.49-36.72,16.67
		c-20.09,10.41-39.78,21.59-59.68,32.36c-7.44,4.03-14.75,8.21-23.48,9.41c-4.44,0.61-8.57,3.24-12.95,4.63
		c-2.51,0.8-5.22,0.95-8.11,1.44c-1.45-7.1,4.63-10.09,5.41-15.34c6.61-3.77,13.09-7.38,19.49-11.12
		c20.76-12.15,41.21-24.86,62.32-36.36c16.44-8.96,33.59-16.66,50.63-24.48C425.2,1192.72,431.59,1190.17,438.44,1191.33z"/>
	<path d="M1321.75,1305.91c-6.76-6.13-13.77-12.49-20.08-18.21c-2.03-4.79-3.66-8.64-5.62-13.29c0.55-2.6,1.28-5.98,2.2-10.3
		c-2.67-1.83-5.57-3.82-8.78-6.03c2.56-6.45,4.61-11.61,7.08-17.81c-6.07-3.62-12.62-7.53-18.59-11.08
		c-2.25-11.71-1.41-13.8,7.12-19.19c45.53,24.29,91.06,48.58,136.56,72.92c1.5,0.8,2.67,2.21,3.76,3.13
		c-0.18,7.3-0.18,7.3-5.66,14.29c-8.75-1.97-18.18-3.02-26.72-7.56c-8.41-4.48-16.74-9.1-25.23-13.73
		c-4.2,4.48-7.96,8.49-11.98,12.77c-5.09-2.29-9.54-4.29-14-6.29C1333.09,1289.9,1333.91,1302.76,1321.75,1305.91z"/>
	<path d="M1075.61,1255.54c-1.67,4.34-2.67,6.91-3.75,9.72c-5.5-2.1-9.02-6.04-11.98-10.47c-14.36-21.48-27.83-43.5-40.05-66.29
		c-14.06-26.23-25.96-53.45-37.91-80.67c-2.52-5.73-3.67-11.38-2.6-18.22c1.34-1.72,2.87-4.12,4.82-6.11
		c6.87-6.98,15.9-8.74,24.1-3.24c10.84,7.28,21.4,15.13,31.25,23.7c14.69,12.77,28.65,26.37,43.14,39.82
		c2.83,8.09-4.58,10.67-7.88,14.89c-5.86,2.28-9.41-0.49-12.8-3.91c-8.98-9.04-17.81-18.26-27.07-27
		c-7.97-7.53-16.41-14.57-24.76-21.69c-2.06-1.76-4.56-3.02-8.49-5.56c0.98,3.61,1.31,5.55,2.03,7.34
		c12.98,32.21,27.75,63.58,44.14,94.21C1057.31,1219.85,1066.41,1237.83,1075.61,1255.54z"/>
	<path d="M494.65,603.31c1.66-4,2.71-6.51,4.06-9.78c3,0.75,5.84,0.99,8.24,2.15c4.45,2.16,8.79,4.62,12.9,7.37
		c32.39,21.67,64.71,43.45,97.06,65.17c17.35,11.65,34.71,23.3,52.11,34.87c6.05,4.02,12.34,7.63,20.13,10.89
		c-0.6-7.37-6.96-12.15-2.76-19.08c3.42-2.78,7.32-1.96,11.06,0.75c7.04,5.1,12.29,11.79,15.79,19.63
		c2.81,6.28,2.15,12.72-2.84,17.78c-4.79,4.85-10.83,7.09-17.47,4.13c-9.67-4.32-19.65-8.28-28.6-13.84
		c-18.04-11.21-35.66-23.14-53.13-35.25c-29.7-20.59-59.26-41.4-88.65-62.43C513.12,618.9,504.37,611.14,494.65,603.31z"/>
	<path d="M714.92,1096.46c0,3.15,0,5.86,0,8.42c-1.26,0.86-2.06,1.58-2.99,2c-18.71,8.35-37.44,16.66-56.17,24.99
		c-24.21,10.77-48.56,21.25-72.58,32.42c-18.25,8.49-36.57,17.02-52.72,29.35c-1.96,1.5-3.9,3.04-5.97,4.65
		c-0.93,3.33-1.87,6.69-3.05,10.92c-4.33,0.88-8.69,1.77-13.56,2.77c-3.35-3.51-6.47-6.77-9.74-10.19c0.14-2.91,0.27-5.67,0.4-8.4
		c6.58-7.89,14.32-14.04,22.29-19.91c14.34-10.55,30.29-18.21,46.52-25.27c25.29-11,50.65-21.85,76.07-32.53
		c16.29-6.85,32.7-13.4,49.16-19.85C701.64,1092.27,705.27,1092.54,714.92,1096.46z"/>
	<path d="M938.31,998.85c1.35-16.75,1.7-17.31,12.28-20.17c10.12,11.19,11.29,30.32,2.51,41.92c-3.62,4.78-8.5,5.98-14.3,4.79
		c-10.45-5.63-17.65-14.99-25.47-23.58c-24.33-26.7-46.2-55.36-66.87-84.94c-4.65-6.65-8.6-13.8-12.69-20.83
		c-3.19-5.48-4.26-11.05,1.07-17.37c2.29,1.91,4.71,3.28,6.25,5.31c13.28,17.42,25.96,35.31,39.7,52.36
		c11.52,14.29,24.12,27.72,36.42,41.37c5.44,6.04,11.28,11.71,16.98,17.52C935.35,996.4,936.66,997.41,938.31,998.85z"/>
	<path d="M1098.15,788.72c-7.05-0.13-12.8-1.98-17.36-8.11c0.6-2.07,0.88-4.56,1.97-6.63c12.28-23.22,20.28-48.2,29.99-72.48
		c3.54-8.86,6.88-17.81,9.82-26.88c2.17-6.68,3.51-13.62,5.32-20.42c0.43-1.6,1.29-3.08,2.13-5.03c7.79,0.85,13.62,4.21,18.33,9.4
		C1146.7,675.38,1108.93,773.55,1098.15,788.72z"/>
	<path d="M961.94,1176.62c-2.89,3.85-5.17,9.14-13.26,7.28c-1.35-2.87-3.18-6.2-4.51-9.71c-7.34-19.38-17.92-36.84-31-52.84
		c-1.08-1.32-2.33-2.5-4.63-4.93c-0.37,2.78-0.87,4.27-0.71,5.69c0.93,8.08,2.19,16.14,2.99,24.23c0.4,4.11,0.07,8.3,0.07,12.88
		c-3.28,0-5.62,0-8.81,0c-2.03-4.96-4.65-9.65-5.86-14.68c-2.4-9.96-4.19-20.07-5.91-30.18c-1.06-6.19,0.48-11.95,5.35-18.05
		c2.88-1.44,6.93-3.46,10.15-5.07c6.34,0.85,10.33,3.68,13.69,7.46c16.57,18.64,30.38,39.09,40.24,62.08
		C962.58,1167.43,962.5,1167.47,961.94,1176.62z"/>
	<path d="M364.08,1123.38c4.81-4.19,10.3-3.72,15.31-3.2c11.26,1.18,22.3,3.67,32.8,8.06c9.72,4.07,16.89,10.31,17.3,23.23
		c-0.23,7.24-4.66,13.25-12.22,16.9c-9.5,4.6-19.09,9.04-28.79,13.2c-2.77,1.19-6.06,1.16-8.75,1.62c-5.21-4.47-7.8-9.15-6.78-16.57
		c10.37-6.96,24.61-8.16,35.3-17.79c-3.03-2.88-6.42-3.59-9.63-4.66c-7.36-2.45-14.67-5.08-22.08-7.36
		C369.77,1134.73,366.5,1129.81,364.08,1123.38z"/>
	<path d="M1018.67,1016.97c2.64,8.8,7.65,15.18,11.65,21.98c4.11,6.98,8.69,13.69,13.26,20.83c-2.24,3.47-4.28,6.64-6.41,9.95
		c-7.51-1.17-11.83-5.86-15.62-10.93c-10.74-14.37-23.14-27.9-25.21-45.89c3.92-15.48,20.93-19.84,32.12-14.04
		c9.05,4.69,18.73,8.46,25.53,18.08c-2.63,3.45-5.29,6.91-7.87,10.29C1036.24,1025.18,1029.47,1017.55,1018.67,1016.97z"/>
	<path d="M1140.83,761.27c-11.99-0.09-12.13-0.16-18.43-8.83c7.68-21.9,15.59-44.43,23.53-67.07c6.54-0.12,10.92,2.92,14.38,7.91
		c1.47,9.58-1.63,18.52-5.17,26.77c-5.05,11.74-9.01,23.71-12.13,36.03C1142.58,757.75,1141.67,759.3,1140.83,761.27z"/>
	<path d="M1174.31,739.14c-4.83-0.27-8.92-0.49-12-0.66c-5.2-3.93-6.36-8.18-4.6-12.99c2.9-7.91,6.09-15.72,9.12-23.47
		c8.41-1.31,13.23,2.68,17.45,9.39C1182.81,720.87,1178.5,729.62,1174.31,739.14z"/>
</g>
</svg>
