<?xml version="1.0" encoding="utf-8"?>
<!-- Generator: Adobe Illustrator 27.4.0, SVG Export Plug-In . SVG Version: 6.00 Build 0)  -->
<svg version="1.1" id="Calque_1" xmlns="http://www.w3.org/2000/svg" xmlns:xlink="http://www.w3.org/1999/xlink" x="0px" y="0px"
	 viewBox="0 0 2000 2000" style="enable-background:new 0 0 2000 2000;" xml:space="preserve">
<g>
	<path d="M1668.38,1589.33c-5.48,0.88-10.56-2.46-12.2-7.54c-2.47-7.68-5.62-15.17-7.63-22.96c-2.17-8.4-3.55-17.01-4.91-25.59
		c-2.28-14.44-1.07-29.02-1.31-43.55c-0.02-1.41-0.18-2.82-0.31-4.78c-2.05,0.57-3.44,0.99-4.85,1.34
		c-7.37,1.86-14.67,4.22-22.14,5.42c-7.44,1.19-14.11,3.92-20.66,7.33c-1.87,0.97-3.98,1.47-6.25,2.28c-2.4-3.23-4.39-5.9-6.27-8.44
		c10.34-18.58,25.45-32.28,38.48-47.48c-1.01-10.74-6.36-19.91-9.61-30.73c11.06,1.71,19.51,8.47,29.66,8.02
		c26.39-23.18,56.58-40.23,87-56.59c3.83,1.19,7.16,2.23,10.42,3.25c0,2.25,0,3.72,0,5.65c-14.88,20.15-29.95,40.56-45.01,60.95
		c0.48,0.62,0.68,1.11,1.04,1.28c14.08,6.99,26.13,16.89,38.59,26.3c13.99,10.56,28.75,20.1,43.16,30.11
		c1.59,1.11,3.08,2.37,4.87,3.76c-0.1,1.71-0.21,3.44-0.33,5.49c-1.37,0.32-2.48,0.79-3.6,0.81c-13.52,0.26-27.06,0.17-40.36-2.46
		c-13.24-2.62-26.36-5.82-39.56-8.66c-4.95-1.06-9.96-1.83-15.4-2.81c-0.45,1.59-1.04,2.8-1.1,4.04c-0.53,11.1-1,22.21-1.44,33.32
		c-0.4,10.18-0.53,20.37-1.19,30.53c-0.69,10.6-4.86,20.36-8.23,30.28C1669.05,1588.45,1668.63,1588.91,1668.38,1589.33z
		 M1762.29,1495.45c0.13-0.5,0.26-1.01,0.39-1.51c-0.53-0.46-1.04-0.95-1.61-1.36c-13.94-10.12-27.95-20.15-41.83-30.36
		c-9.89-7.28-19.44-14.99-31.54-18.61c-4.81-1.44-7.92-5.18-9.47-9.8c6.4-7.85,12.86-15.3,18.77-23.17
		c5.82-7.75,12.32-15.1,16.54-24.02c-24.29,14.24-48.5,28.36-68.61,48.09c-1.51,0-2.84,0-4.36,0c-3.51-4.63-8.28-6.42-14.78-6.08
		c1.74,5.65,3.07,10.96,5.05,16.02c1.09,2.78,1.02,4.79-0.96,6.94c-6.5,7.06-13.02,14.11-19.36,21.3
		c-2.81,3.19-5.23,6.73-7.83,10.11c0.24,0.31,0.49,0.62,0.73,0.93c1.13-0.06,2.28,0.02,3.38-0.19c4.41-0.85,8.79-1.87,13.21-2.68
		c8.2-1.52,15.64-4.29,20.54-11.64c0.4-0.6,1.1-0.99,2.03-1.81c2.83,0.72,5.84,1.49,9.38,2.39c0.34,1.9,0.97,3.74,0.94,5.57
		c-0.16,13.06-0.74,26.12-0.63,39.18c0.11,13.83,1.93,27.48,6.08,40.76c0.85,2.72,1.34,5.54,2.08,8.29
		c0.31,1.17,0.82,2.29,1.23,3.43c0.39,0.01,0.77,0.03,1.16,0.04c0.6-1.26,1.57-2.48,1.75-3.8c0.97-7.28,2.17-14.57,2.49-21.89
		c0.84-19.36,1.24-38.74,1.9-58.11c0.06-1.65,0.72-3.29,1.17-5.24c2.24,0.66,3.81,1.11,5.36,1.59c4.29,1.33,8.51,3.03,12.88,3.95
		c16.43,3.47,32.86,7.02,49.41,9.86C1745.82,1495.01,1754.12,1494.89,1762.29,1495.45z"/>
	<path d="M232.25,711.2c-5.07,1.14-10.62-2.33-11.18-7.32c-0.99-8.75-2.42-17.54-0.73-26.39c0.14-0.74,0.26-1.48,0.49-2.2
		c0.13-0.4,0.44-0.75,0.86-1.41c0.88,1.14,1.65,2.13,2.56,3.32c3.7-3.15,0.34-7.22,2.28-10.33c-0.26-0.13-0.52-0.26-0.78-0.39
		c-1.2,1.44-2.39,2.88-3.59,4.32c-0.24-0.04-0.49-0.08-0.73-0.12c0.54-3.29,1.07-6.58,1.61-9.88c0.46-0.2,0.92-0.39,1.38-0.59
		c0.41,0.91,0.82,1.82,1.27,2.82c3.77-5.53,10.98-24.99,10.48-26.83c2.51-3.82,4.67-7.34,7.06-10.69c2.32-3.25,4.87-6.33,7.47-9.69
		c-0.08-1.35-0.17-2.82-0.3-4.88c4.32-5.58,8.95-11.42,16.33-15.65c0.38,1.01,0.82,2.16,1.31,3.44c4.75-3.23,6.54-10.29,13.3-6.41
		c4.74-6.94,11.49-8.65,19.01-8.73c4.2-0.04,8.49-1.04,12.57-0.45c10.64,1.53,21.19,3.72,31.78,5.62c3.48,0.62,6.96,1.18,11,1.86
		c-0.63-4.78-1.26-8.7-1.64-12.63c-0.8-8.12-0.87-16.21,2.46-23.88c0.66-1.52,2.05-2.78,3.26-4.01c1.39-1.43,2.94-2.69,4.43-4.02
		c-0.2-0.32-0.41-0.65-0.61-0.97c-0.96,0.3-1.93,0.61-3.58,1.13c1.39-6.58,5.53-11.14,8.78-16.42c1.19,0.32,2.27,0.62,3.48,0.95
		c2.53-2.77,5.05-5.52,7.72-8.44c-0.44-0.94-0.86-1.83-1.34-2.88c9.75-12.97,22.9-21.85,36.43-30.39c1.25,0.45,2.34,0.84,3.74,1.35
		c0.27-1.26,0.5-2.35,0.8-3.8c6.21-3.6,12.09-8.15,19.89-9.34c4.77-0.73,9.31-2.91,13.97-4.39c5.4-1.72,10.65-3.5,16.64-2.84
		c3.83,0.42,7.87-1.11,11.81-1.79c2.2-0.38,4.38-1.03,6.6-1.21c17.84-1.48,34.16,3.32,49.29,12.45c8.45,5.1,16.84,10.35,24.87,16.09
		c3.83,2.74,7.02,6.55,10.02,10.27c5.92,7.33,11.72,14.79,17.15,22.49c3.19,4.52,5.55,9.61,8.32,14.42c0.87,1.5,1.89,2.92,3.2,4.93
		c21.97-8.49,44.2-8.11,66.88-2.93c1.35-3.92,2.9-7.19,3.57-10.64c2.44-12.47,9.09-22.74,16.58-32.57c1.09-1.44,2.88-2.35,4.88-3.93
		c0.22-2.4,2.15-4.26,4.98-5.47c0.92-0.39,1.97-1.03,2.44-1.86c5.39-9.41,14.28-15.19,22.64-21.35
		c13.54-9.98,27.67-19.21,43.43-25.33c13.52-5.25,27.19-10.3,41.14-14.18c10.89-3.03,22.26-4.47,33.51-5.98
		c5.9-0.79,12.03-0.75,17.96-0.17c9.67,0.93,19.25,2.87,28.91,3.9c10.08,1.08,19.88,3.22,29.32,6.82
		c19.53,7.44,37.8,17.22,52.75,32.03c14.44,14.31,25.43,31,31.55,50.66c2.09,6.73,4.6,13.34,7.12,19.92
		c4.17,10.88,3.51,22.12,2.7,33.37c-0.27,3.72-0.88,7.41-1.32,11.06c4.65,3.12,8.75,6.52,13.38,8.83
		c5.86,2.92,8.87,8.25,11.52,13.37c4.17,8.08,7.34,16.75,10.27,25.39c1.36,4.03,1.52,8.58,1.57,12.9c0.03,2.81-1.39,5.46-4.77,7.32
		c-2.42-2.45-4.87-4.94-7.34-7.44c-0.06-1.14-0.21-2.19-0.15-3.22c0.87-13.55-4.55-25.23-11.18-36.42
		c-4.06-6.87-10.3-10.3-18.84-9.03c-4.01-3.43-6.37-7.62-5.77-13.19c0.74-6.86,1.43-13.73,2.18-20.59
		c1.14-10.4-1.04-20.34-4.42-30.04c-3.36-9.63-6.84-19.24-10.76-28.65c-3.84-9.2-9.54-17.33-16.33-24.63
		c-14.75-15.86-32.9-26.6-53.22-33.38c-10.45-3.49-21.49-5.36-32.38-7.38c-16.2-3-32.61-3.31-48.88-0.98
		c-10.2,1.46-20.35,3.89-30.25,6.8c-18.94,5.58-36.84,13.8-53.93,23.65c-15.93,9.18-30.91,19.66-42.73,34.07
		c-4.28,5.21-9.18,9.96-13.13,15.4c-6.58,9.06-11.09,19.22-13.45,30.2c-0.68,3.18-0.54,6.54-0.8,10.21
		c-1.25,0.55-2.56,1.13-3.6,1.59c-17.42-7.83-50.9-8.19-72.61,1.66c0.12,0.92,0.05,1.99,0.4,2.9c6.18,15.91,6.47,32.19,3.57,48.79
		c-3.4,19.44-9.26,37.89-20.51,54.33c-0.51,0.74-0.98,1.52-1.43,2.3c-0.74,1.3-1.45,2.62-2.38,4.31c0.89,0.67,1.7,1.54,2.7,2
		c10.57,4.89,20.04,11.51,29.15,18.65c9.56,7.5,19.64,14.48,28.38,22.84c18.51,17.72,32.05,38.77,39.06,63.69
		c4.5,16.03,6.6,32.46,5.89,49c-0.64,14.7-3.88,29.06-8.51,43.16c-2.88,8.77-7.93,16.02-12.61,23.51
		c-7.05-1.82-10.42-5.84-10.51-12.23c5.46-3.19,7.56-8.86,9.69-14.18c10.83-26.98,12.6-54.67,6.48-83.09
		c-3.31-15.36-9.62-29.2-17.96-42.38c-9.29-14.67-21.12-26.79-35.27-36.72c-8.83-6.2-17.47-12.7-26.6-18.41
		c-4.75-2.97-10.32-4.69-15.65-6.61c-3.14-1.13-8.63-6.17-8.88-9.38c-0.12-1.51,0.36-3.29,1.15-4.6c4.32-7.19,9.38-14,13.09-21.48
		c3.85-7.76,7.04-15.97,9.46-24.28c3.31-11.39,5.05-23.16,5.78-35.04c0.49-8.01-2.44-15.19-5.03-23.09
		c-4.7,1.98-9.03,3.58-13.16,5.6c-4.58,2.24-9.15,4.59-13.43,7.36c-18.93,12.22-35.13,27.41-49.98,44.38
		c-9.87,11.27-17.73,23.51-23.37,37.13c-6.65,16.07-13.53,32.3-13.14,50.17c0.18,8.49,1.62,16.96,2.62,25.42
		c0.45,3.82,1.25,7.59,1.88,11.32c-5.71,2.11-12.06-1.17-13.24-6.53c-3.16-14.31-4.59-28.69-2.57-43.32
		c1.84-13.34,6.08-25.95,11.13-38.34c5.7-14,13.9-26.55,22.6-38.81c0.43-0.61,0.89-1.22,1.42-1.74c8.74-8.43,17.43-16.9,26.26-25.24
		c4.91-4.63,9.78-9.35,15.12-13.45c9.43-7.23,19.74-13.07,30.66-17.82c4.78-2.08,9.52-4.23,15.09-6.71
		c-2.97-5.93-5.2-11.7-8.52-16.74c-6.86-10.39-13.99-20.61-22.91-29.44c-7.97-7.89-17.17-14.09-26.96-19.31
		c-7.94-4.23-16.19-8.03-25.29-9.18c-10.82-1.37-21.54-0.78-32.17,1.8c-5.09,1.24-10.33,1.91-15.41,3.18
		c-20.73,5.15-39.11,14.99-55.97,27.99c-9.46,7.31-17.99,15.49-24.99,25.14c-5.77,7.95-9.85,16.82-12.81,26.21
		c-2.5,7.93-2.62,16.02-1.67,24.1c0.41,3.45,2.09,6.76,3.91,9.93c0,1.79,0,3.57,0,5.67c-1.09,0.81-2.25,1.67-3.38,2.51
		c-7.49-4.8-15.95-4.97-23.95-6.65c-8.78-1.85-17.64-3.52-26.54-4.54c-13.03-1.49-24.84,2.52-36.03,9.06
		c-18.36,10.73-30.82,26.52-39.42,45.57c-2.39,5.29-3.97,10.99-5.48,16.62c-4.07,15.14-3.74,30.53-2.11,45.95
		C232.51,709.51,232.33,710.25,232.25,711.2z"/>
	<path d="M1442.27,995.76c-2.29-1.68-4.34-2.94-6.08-4.53c-1.16-1.06-2.24-2.48-2.73-3.94c-1.59-4.83-2.98-9.74-4.3-14.66
		c-3.33-12.39-8.56-24.01-13.71-35.71c-5.8-13.18-10.76-26.73-16.54-39.92c-7.59-17.32-15.75-34.38-23.44-51.66
		c-7.5-16.85-14.82-33.79-22.02-50.77c-6.86-16.15-13.48-32.4-20.16-48.62c-1.2-2.91-2.1-5.94-3.25-8.87
		c-0.41-1.06-1.15-1.98-1.75-2.97c-0.29,0.13-0.57,0.27-0.86,0.4c1.18,10.33,2.36,20.66,3.54,30.99c-0.48,0.22-0.95,0.43-1.43,0.65
		c0.97,0.66,1.93,1.32,3.09,2.11c0.24,4.11,0.22,8.33,0.78,12.47c0.68,5.02,2.01,9.95,2.77,14.97c0.58,3.83,0.71,7.73,1.02,11.37
		c0.7,2.38,1.62,4.56,1.97,6.83c1.41,9.18,2.59,18.39,4.01,27.56c0.28,1.79,1.2,3.48,1.5,5.29c6.15,21.87,12,43.83,18.52,65.59
		c6.47,21.58,13.63,42.96,21.79,68.48c5,10.83,8.71,26.62,14.04,41.73c-3.18,3.11-6.5,2.32-9.87,2.18
		c-0.55-0.94-1.25-1.76-1.57-2.71c-5.36-15.76-10.85-31.47-15.95-47.32c-3.54-11.01-7.07-22-10.91-32.91
		c-2.33-6.62-3.91-13.5-5.93-20.23c-2.25-7.52-4.62-15-6.91-22.5c-2.67-8.74-5.47-17.47-4.72-26.79c-4.5-2.31-4.24-6.92-5.17-10.61
		c-2.29-9.06-4.89-18.23-5.44-27.48c-0.52-8.67-4.85-16.58-3.97-25.39c0.16-1.63-0.98-3.39-1.49-4.99c3.1-5.42,3.1-5.42,1.07-9.45
		c-0.66,1-1.12,1.7-1.62,2.46c0.11,0.09-0.19-0.03-0.22-0.2c-0.26-1.45-1.11-3.19-0.6-4.31c2.42-5.34,1.98-10.71,0.23-16.28
		c-0.26,2.59-0.53,5.18-0.79,7.78c-0.47-0.09-0.95-0.15-0.95-0.18c0.3-6.51-1.59-12.81-1.03-19.49c0.55-6.5,3.33-13.23,0.14-19.89
		c-0.51-1.07-0.3-2.76,0.13-3.98c1.42-4.02,0.63-7.64-1.7-11.42c2.12-7.36-2.42-13.92-3.62-21.87c2.46-0.55,4.8-1.07,6.89-1.53
		c1.82,1.12,3.22,1.97,4.77,2.93c1.94,13.02,9.43,23.87,14.18,35.82c5.87,14.77,12.04,29.42,18.19,44.08
		c4.52,10.77,9.11,21.52,13.89,32.18c7.68,17.11,15.57,34.12,23.29,51.21c2.3,5.08,4.24,10.32,6.5,15.41
		c1.87,4.21,4.17,8.23,5.91,12.49c2.37,5.78,4.33,11.73,6.57,17.57c1.66,4.33,3.5,8.6,5.25,12.9c4.1,10.13,8.33,20.21,12.22,30.42
		c1.66,4.35,2.61,8.97,4.76,13.65c0.35-1.43,0.91-2.84,1-4.29c1.19-18.42,2.33-36.84,3.46-55.27c0.62-10.03,0.11-20.29,2.17-30
		c1.54-7.25,0.66-14.77,3.27-21.74c0.76-2.04,1.87-3.94,3.03-6.35c-1.08,0.11-1.8,0.18-3.31,0.34c0.82-8.29,1.61-16.38,2.41-24.48
		c0.25,0,0.5-0.01,0.75-0.01c0.35,3.71,0.7,7.42,1.06,11.13c0.28,0.01,0.56,0.01,0.85,0.02c0-4.74,0-9.47,0-14.76
		c-0.23-0.19-1.02-0.81-1.84-1.45c3.33-20.8,7.73-41.22,14.92-61.47c0.64-0.56,1.64-1.44,2.76-2.43c-1.3-3.63-0.36-6.9,2.02-10.13
		c0.86,0.27,1.65,0.53,2.77,0.88c-0.43,1.31-0.8,2.43-1.17,3.55c0.19,0.13,0.38,0.27,0.57,0.4c1.18-0.89,2.36-1.79,3.55-2.68
		c0.28,0.11,0.55,0.23,0.83,0.34c-0.54,2.66-0.79,5.43-1.69,7.96c-0.94,2.64-2.51,5.06-3.98,7.89c1.86,1.25,3.55,2.38,6.1,4.09
		c0.17,6.04,0.63,12.6,0.46,19.15c-0.21,8.08-1.4,16.15-1.34,24.21c0.12,14.66,1.02,29.31,1.26,43.98
		c0.16,9.71-0.31,19.44-0.42,29.16c-0.08,7.35,0.06,14.7-0.09,22.04c-0.17,9-0.52,17.99-0.83,26.99
		c-0.24,6.84-0.49,13.68-0.83,20.51c-0.29,5.83-0.76,11.65-1.09,17.47c-0.05,0.95,0.19,1.92,0.3,2.91
		c11.08-11.47,22.21-22.48,32.75-34.03c10.44-11.44,20.29-23.43,30.4-35.18c0.4,0.02,0.8,0.05,1.2,0.07
		c0.47,2.26,0.94,4.52,1.48,7.15c0.4,0.08,1.38,0.26,2.6,0.49c-1.82,7.04-3.44,13.97-5.41,20.8c-1.94,6.72-4.13,13.38-6.41,19.99
		c-1.22,3.52-2.62,7.03-4.39,10.31c-2.48,4.6-4.85,5.41-11.15,4.25c5.69-13.81,11.33-27.52,16.97-41.22
		c-0.3-0.14-0.59-0.28-0.89-0.41c-2.78,3.62-5.46,7.34-8.38,10.85c-2.78,3.33-5.77,6.49-8.74,9.66c-8,8.52-16.06,16.98-24.06,25.49
		c-3.81,4.05-7.46,8.24-11.36,12.19c-3,3.03-6.68,4.55-11.59,3.45c-0.55-0.65-1.38-1.64-2.22-2.64c0.25-0.06,0.49-0.12,0.74-0.18
		c0-7.94-0.12-15.89,0.02-23.83c0.54-30.04,1.3-60.08,1.68-90.13c0.15-12.16-0.8-24.33-0.62-36.49c0.23-15.89,1.09-31.76,1.68-47.64
		c0.11-2.85,0.25-5.7,0.33-8.55c0.01-0.35-0.3-0.71-0.85-1.95c-1.33,4.5-2.72,8.15-3.46,11.92c-1.33,6.72-1.27,13.89-3.65,20.17
		c-2.47,6.54-1.22,13.34-3.32,19.76c-0.75,2.3-0.25,5.02-0.29,7.54c-0.01,0.6,0.34,1.28,0.15,1.78c-3.14,8.27-0.37,17.21-3.09,25.62
		c-1.15,3.58-0.29,7.76-0.72,11.63c-0.32,2.84-1.24,5.61-2.12,9.35c0.19,1.58,0.88,4.32,0.79,7.04c-0.26,7.34-0.93,14.66-1.29,22
		c-0.2,4.03-0.02,8.07-0.14,12.1c-0.26,9.27-0.52,18.54-0.97,27.79c-0.12,2.51-1.14,4.97-1.36,7.48c-0.59,6.57-0.9,13.17-1.44,19.74
		C1449.88,994.61,1448.34,995.94,1442.27,995.76z"/>
	<path d="M1027.19,1305.82c-2.76-1.89-4.68-3.4-6.77-4.61c-10.52-6.13-21.24-12.09-33.13-14.94c-9.03-2.16-18.4-2.31-27.71-0.95
		c-12.26,1.8-23.81,5.54-33.27,13.74c-5.05,4.37-9.35,9.66-13.7,14.79c-3.66,4.32-7.17,8.78-7.73,14.87
		c-0.44,4.8-1.45,9.55-2.14,13.92c-0.65-0.56-1.98-1.73-3.45-3c0-0.94,0-1.97,0-2.92c-1.29-1.04-2.45-1.97-3.16-2.55
		c-4.07-13.71,2.42-23.67,10.56-32.83c4.06-4.57,8.48-9.08,13.52-12.44c10.28-6.86,21.29-11.89,34.14-12.62
		c7.13-0.41,14.05-0.2,21.03,0.8c12.73,1.82,24.92,5.42,36.22,11.66c7.21,3.98,14.26,8.25,22.02,12.77
		c8.67-5.23,17.67-10.66,26.68-16.1c0.03,0.04,0.06,0.07,0.09,0.11c2.78-1.52,5.64-2.93,8.33-4.6c2.77-1.71,5.32-3.78,8.08-5.5
		c9.79-6.12,19.49-12.4,29.49-18.16c13.76-7.93,27.71-15.55,41.67-23.13c20.85-11.32,41.74-22.56,62.68-33.7
		c5.32-2.83,10.9-5.15,15.98-7.54c2.43,1.49,4.22,2.58,6.42,3.92c0.53,1.07,1.24,2.53,2.04,4.15c-0.98,1.64-1.89,3.15-2.92,4.88
		c-6.08-0.96-10.71,2.52-15.58,4.99c-14.86,7.55-29.66,15.23-44.39,23.03c-7.4,3.92-14.56,8.3-21.92,12.3
		c-4.66,2.54-9.54,4.68-14.22,7.2c-3.16,1.7-5.93,4.31-9.23,5.55c-10.3,3.88-18.74,11.03-28.62,15.7
		c-7.39,3.49-13.9,8.83-20.93,13.14c-7.6,4.66-15.34,9.11-23.04,13.62c-3.69,2.16-7.43,4.26-12.1,6.93
		c2.97,2.48,5.31,4.67,7.88,6.54c5.8,4.22,10.2,9.56,13.73,15.76c1.45,2.55,3.7,4.64,5.29,7.13c6.85,10.77,10.42,22.85,13.78,35.01
		c1.66,6.01,3.37,12.02,5.38,19.2c1.29-2.06,2.09-3.18,2.72-4.39c8.58-16.45,19.42-31.34,34.31-42.38
		c21.66-16.06,38.7-19.17,64.81-1.68c9.93,6.65,14.51,16.54,18.48,26.84c2.06,5.35,1.93,11.33,1.69,17.28
		c-0.43,10.35-4.01,19.34-10.01,27.41c-3.81,5.13-8.41,9.68-13.14,15.04c1.3,0.62,2.33,1.35,3.47,1.6
		c7.05,1.6,10.92,6.21,13.02,12.88c3.72,11.83,1.66,22.84-4.34,33.34c-1.67,2.92-5.35,4.43-8.46,3.79
		c-3.69-0.77-5.65-2.87-6.12-6.87c5.94-6.15,8.25-13.88,7.88-22.47c-0.1-2.23-0.53-4.47-0.99-6.66c-1.51-7.14-3.49-8.47-10.65-7.28
		c-2.77,0.46-5.53,1.02-8.37,1.54c-2.1-3.17-7.73-2.75-6.76-8.7c8.52-2.94,13.29-10.74,18.67-17.29
		c10.06-12.25,16.91-26.59,12.69-42.91c-4.67-18.02-15.35-29.2-35.58-29.68c-1.61-0.04-3.31,0.28-4.85,0.8
		c-14.92,4.96-26.9,13.7-36.67,26.23c-6.68,8.57-12.98,17.25-17.71,26.96c-2.4,4.93-3.72,10.38-5.73,15.51
		c-1.84,4.7-2.2,9.51-2.08,14.5c0.04,1.58-1.26,3.19-2.29,5.59c-4.48-2.37-8.44-4.46-11.45-6.06c-1.76-12.44-3.08-23.59-5.01-34.62
		c-1.13-6.47-3.01-12.84-4.96-19.13c-3.41-11.01-6.54-22.13-12.07-32.36c-5.48-10.15-12.37-19.09-22.54-26.45
		c-47.55,30.02-95.18,60.08-142.25,89.79c-2.96,2.02-5.43,3.63-7.82,5.35c-4.3,3.1-9.21,5.09-13.32,8.7
		c-4.91,4.32-11.74,7.29-17.42,1.58c2.54-2.21,4.86-4.69,7.61-6.53c12.07-8.1,24.23-16.06,36.41-24
		c9.65-6.29,19.39-12.44,29.07-18.69c8.54-5.51,17.05-11.08,25.69-16.43c3.08-2.04,6.14-4.13,9.26-6.12
		c5.43-3.47,10.91-6.88,16.36-10.32c10.87-6.85,21.73-13.7,32.6-20.55C1017,1312.21,1021.65,1309.3,1027.19,1305.82z"/>
	<path d="M436.51,1566.28c-3.2,0.37-6.48,0.9-9.91-2.23c0.57-4.31,1.28-9,1.82-13.72c1.17-10.24,2.19-20.49,3.39-30.72
		c0.78-6.69,1.79-13.35,2.64-20.03c0.38-2.97,0.59-5.96,0.98-8.93c0.72-5.33,1.7-10.62,2.23-15.96c0.57-5.78,0.89-11.59,1.07-17.4
		c0.4-12.74,0.69-25.48,0.96-38.23c0.18-8.33,0.26-16.67,0.35-25.01c0.01-0.57-0.27-1.15-0.6-2.47c-1.7,0.78-3.4,1.22-4.66,2.22
		c-3.75,2.96-7.32,6.15-10.96,9.24c-7.08,5.99-14.14,12-21.24,17.96c-5.61,4.71-10.97,9.81-16.98,13.94
		c-9.29,6.38-16.98,14.55-25.65,21.6c-2.67,2.17-5.59,4.05-8.2,6.29c-9.75,8.37-19.46,16.78-29.09,25.29
		c-4.84,4.27-9.46,8.78-14.29,13.29c-6.78,0.85-11.05-1.29-11.69-6.19c8.62-8.56,17.38-17.17,26.01-25.9
		c2.82-2.85,5.2-6.12,7.95-9.04c5.81-6.16,11.74-12.2,17.6-18.3c5.78-6.02,11.52-12.08,17.32-18.08c6.5-6.71,13.15-13.28,19.54-20.1
		c2.33-2.49,3.97-5.62,6.16-8.27c2.65-3.19,5.56-6.16,8.33-9.25c2.6-2.9,5.27-5.75,7.7-8.79c9.15-11.42,19.25-22.15,25.51-35.65
		c0.66-1.43,2.07-2.51,3.3-3.95c2.83,0.26,5.59,0.51,9.09,0.83c-1.64,3.72-2.7,6.99-4.44,9.85c-3.62,5.94-7.15,12.03-11.53,17.39
		c-6.56,8.02-13.03,16.12-19.82,23.96c-1.94,2.24-4.6,3.86-6.57,6.08c-3.26,3.7-6.07,7.78-9.34,11.46c-2.87,3.22-6.33,5.92-9.12,9.2
		c-3.03,3.55-5.59,7.51-8.35,11.29c0.3,0.28,0.59,0.56,0.89,0.84c1.07-0.88,2.16-1.73,3.22-2.63c4.65-3.95,9.27-7.95,13.95-11.87
		c6.31-5.3,12.65-10.56,19.01-15.81c7.74-6.39,15.48-12.79,23.27-19.12c4.74-3.85,9.93-5.47,16.45-2.37
		c-0.74,29.8-1.48,59.81-2.22,89.81c0.26,0.29,0.52,0.59,0.78,0.88c0.16-0.6,0.32-1.2,0.47-1.8c2.87-11.91,5.7-23.82,8.64-35.71
		c0.97-3.91,2.32-7.72,3.37-11.61c2.11-7.81,4.36-15.6,6.09-23.5c0.68-3.13,0.11-6.53,0.11-9.67c6.46-2.26,11.32-0.48,13.39,5.39
		c3.83,10.86,9.92,20.46,15.58,30.36c6.31,11.05,11.71,22.63,17.51,33.97c0.72,1.41,1.5,2.79,3.02,3.88
		c-2.38-9.84-4.75-19.69-7.27-30.14c2.83,0.45,4.98,0.78,7.86,1.24c1.41,3.06,3.31,6.31,4.44,9.8c3.43,10.65,6.55,21.4,9.81,32.11
		c0.35,1.14,0.8,2.26,1.29,3.35c3.8,8.47,7.66,16.89,8.93,26.26c0.33,2.41,1.94,4.65,2.91,6.85c-4.09,4.71-9.72,4.33-11.97-1.05
		c-7.42-17.72-19.68-32.6-28.52-49.48c-5.92-11.3-11.96-22.55-18.05-33.76c-2.72-5.01-5.65-9.92-8.56-14.82
		c-0.63-1.07-1.63-1.92-2.94-3.42c-0.6,1.7-1.03,2.59-1.24,3.53c-1.76,8.12-4.17,16.15-5.7,24.24c-2.47,13.12-6.56,25.7-10.22,38.44
		c-1.72,5.99-5.16,11.5-4.94,18.03c0.01,0.42-0.17,0.92-0.42,1.27c-4.22,6.15-4.46,13.38-5.89,20.37
		c-1.91,9.36-5.15,18.45-7.23,27.78c-1.42,6.36-1.88,12.94-2.64,19.44C438.9,1561.54,439.57,1564.26,436.51,1566.28z"/>
	<path d="M1260.89,1704.59c-1.92,3.91-3.42,4.55-9.71,3.56c-4.84-10.34-9.84-20.87-14.72-31.46c-4.96-10.76-9.57-21.68-14.75-32.34
		c-5.12-10.53-10.73-20.82-16.15-31.21c-5.49-10.52-11.03-21-16.5-31.53c-5.33-10.27-10.6-20.57-15.9-30.86
		c-0.46,0.05-0.92,0.1-1.38,0.15c-1.84,5.33-3.64,10.67-5.55,15.97c-2.48,6.9-5.11,13.75-7.57,20.66
		c-4.31,12.13-9.04,24.15-12.68,36.49c-3.9,13.21-6.75,26.72-10.06,40.1c-0.65,2.61-1.29,5.22-1.97,7.94
		c-3.92,4.56-8.28,5.39-12.66,1.82c3.62-14.05,7.17-28.41,11.03-42.69c3.25-12,7.25-23.81,8.41-36.3c0.25-2.68,1.04-5.3,1.49-7.97
		c0.7-4.12,1.61-8.23,1.93-12.38c1.31-17.35,2.44-34.72,3.67-52.62c2.83-3.01,3.71-3.02,9.45,0.59c1.32,12.08,0.63,24.36-0.39,36.79
		c6.13-7.05,7.38-16.59,12.59-23.55c5.92-0.94,9.13,0.47,11.9,5.61c4.83,8.99,9.41,18.11,14.11,27.17
		c8.5,16.38,17.01,32.75,25.54,49.11c0.17,0.33,0.63,0.52,1.71,0.5c-2.47-9.51-5.05-19-7.39-28.55c-2.43-9.89-4.77-19.81-6.88-29.77
		c-2.08-9.78-3.82-19.63-5.75-29.65c4.91-1.73,9.38-1.5,13.42,1.45c6.14,4.49,12.1,9.24,18.21,13.77c3.97,2.94,8.27,5.48,12.1,8.59
		c6.38,5.18,12.51,10.69,18.75,16.05c0.53,0.46,1.15,0.82,1.98,0.97c-5.17-10.27-16.82-15.35-21.52-26.06
		c4.24-2.39,8.55-2.21,11.14,0.49c9.46,9.83,19.46,19.19,27.47,30.33c1.22,1.7,2.34,3.5,3.32,5.35
		c4.32,8.13,10.21,15.11,15.99,22.17c1.12,1.37,2.66,2.41,4.25,3.83c0.08,0.88,0.18,2.05,0.27,3c-2.3,3.41-9.08,4.2-11.38,1.13
		c-8.79-11.66-20.98-19.65-31.42-29.52c-13.99-13.21-29.24-24.89-44.66-36.34c-1.02-0.76-2.15-1.37-4.27-2.71
		c0.29,2.35,0.41,3.56,0.59,4.77c0.75,4.88,1.32,9.81,2.32,14.64c1.75,8.43,3.71,16.82,5.68,25.2c1.1,4.67,2.33,9.31,3.62,13.93
		c3.42,12.23,6.78,24.47,10.4,36.64c4.06,13.61,8.25,27.19,12.63,40.69C1254.38,1687.08,1257.61,1695.45,1260.89,1704.59z"/>
	<path d="M1146.46,961.91c-5.57-0.84-8.54-3.34-11.74-6.36c-9.05-8.52-18.33-16.93-28.34-24.27c-8.71-6.39-18.81-4.83-28.54-1.44
		c-22.12,7.7-34.1,24.32-40.36,45.93c-0.36,1.26-0.13,2.68-0.27,4.02c-0.27,2.81-0.6,5.6-0.94,8.63c-1.77,0.41-3.17,0.73-4.48,1.04
		c-4.9-3.72-6.7-8.15-6.41-14.18c0.53-11.13,4.33-21.08,11.16-29.39c8.6-10.45,18.57-19.97,31.74-24.37
		c8.75-2.93,17.9-4.05,27.44-1.69c11.21,2.77,20.08,9.11,28.83,15.94c3.63,2.84,7.02,5.99,11,9.42c0.69-1.07,1.56-1.89,1.81-2.86
		c3.34-13.27,10.4-24.34,21.06-32.63c6.17-4.8,12.73-9.49,20.71-11.44c4.18-1.02,8.12-3.03,12.3-4.03
		c12.79-3.06,25.19-0.88,36.84,4.49c16.66,7.67,31.03,18.75,43.96,31.73c9.45,9.49,17.57,20.07,24.97,31.16
		c15.05,22.54,27.42,46.54,37.62,71.65c4.46,10.97,8.83,21.98,13.13,33.02c0.97,2.49,1.62,5.13,2.22,7.74
		c2.36,10.37,4.62,20.76,6.96,31.12c0.28,1.25,0.89,2.42,1.63,4.37c2.18-2.61,3.88-4.59,5.52-6.61c10.82-13.37,27.2-7.53,34.19,1.56
		c2.88,3.75,4.67,8.35,6.83,12.62c0.37,0.72,0.14,1.75,0.21,3.08c-1.99,0.58-3.96,1.15-5.51,1.6c-4.78-1.09-7.12-3.79-7.94-8.09
		c-0.27-1.43-1.11-2.78-1.81-4.11c-3.61-6.86-11.04-7.59-15.19-0.88c-4.89,7.93-11.82,15.08-11.37,25.14
		c-4.96,3.05-12.04-0.41-13.34-6.25c-2.61-11.7-5.26-23.4-7.61-35.16c-3.77-18.87-9.93-36.89-17.27-54.68
		c-8.91-21.6-19.97-42.05-31-62.55c-6.72-12.48-15.49-23.54-24.53-34.38c-10.39-12.46-22.78-22.58-36.43-31.24
		c-9.07-5.75-19.12-8.18-29.69-7.28c-9.22,0.78-17.63,4.57-25.71,9.07c-14.74,8.22-23.51,21.06-28.66,36.68
		c-0.92,2.79-0.67,5.94-1.23,8.88C1147.93,958.62,1147.08,960.24,1146.46,961.91z"/>
	<path d="M337.34,1176.21c5.44,0.69,10.41,1.22,15.35,1.99c4.71,0.73,9.36,2.39,11.84,6.51c1.6,2.67,1.44,6.39,2.08,9.64
		c-0.41,0.22-0.81,0.44-1.22,0.67c1.89,1.37,3.71,2.86,5.69,4.07c8.34,5.11,11.19,18.19,2.79,25.78c-2.86-1.07-6.11-2.29-10-3.75
		c0.46-2.16,0.53-3.92,1.21-5.4c3.01-6.49,0.84-12.13-5.72-15c-2.84-1.24-5.48-2.93-8.16-4.52c-0.43-0.25-0.56-1.01-0.86-1.61
		c1.12-2.43,2.21-4.83,3.71-8.1c-2.33-0.79-4.13-1.9-5.96-1.94c-6.85-0.16-13.48,1.47-19.43,4.7c-4.8,2.61-9.01,1.76-13.18-0.64
		c-1.4-0.81-2.13-2.79-2.77-3.68c14-15.76,27.32-30.79,40.7-45.77c2.9-3.25,6.05-6.26,9.02-9.45
		c10.41-11.18,20.65-22.51,31.21-33.53c8.21-8.56,16.88-16.67,25.21-25.11c7.68-7.78,15.05-15.87,22.81-23.58
		c11.39-11.31,23-22.39,34.52-33.57c5.01-4.86,9.97-9.77,15.04-14.58c12.96-12.29,25.96-24.54,38.94-36.8
		c3.58-3.38,7.17-6.75,10.7-10.07c1,1.04,1.86,1.94,3.05,3.17c0.56-2.85,0.94-4.78,1.32-6.72c0.38,0.06,0.76,0.13,1.13,0.19
		c-0.19,1.16-0.38,2.33-0.72,4.44c1.7-1.31,2.68-2.07,3.56-2.75c0.12-1.95,0.21-3.58,0.34-5.63c1.8-1.06,3.72-2.19,6.16-3.62
		c-0.01-0.2-0.08-1.27-0.19-3.02c1.4,1.12,2.23,1.79,3.47,2.79c1.59-1.12,3.34-2.01,4.65-3.33c2.79-2.81,5.21-6,8.04-8.76
		c5.14-5.02,10.43-9.89,15.75-14.72c1.43-1.3,2.58-3.43,5.96-2.69c-3.07,3.96-5.5,7.89-8.68,11.05
		c-8.07,8.01-16.53,15.63-24.75,23.5c-6.4,6.12-12.69,12.35-18.98,18.58c-5.2,5.16-10.23,10.48-15.5,15.57
		c-16.95,16.39-34.07,32.62-50.95,49.08c-11.06,10.79-21.85,21.86-32.73,32.83c-10.15,10.23-20.36,20.41-30.35,30.8
		c-7.68,7.99-15.07,16.28-22.58,24.43c-0.41,0.44-0.77,0.93-1.18,1.36c-8.77,9.23-17.73,18.29-26.25,27.74
		c-7.61,8.44-14.75,17.3-22.05,26.02C338.53,1173.78,338.01,1175.05,337.34,1176.21z"/>
	<path d="M1118.59,630.01c-20.04,22.15-42.72,41.67-58.57,67.02c-5.72,1.43-8.61,0.11-11.52-5.38c4.91-8.11,10.59-15.84,17.22-22.81
		c13.02-13.7,26.03-27.42,39.43-40.75c7.84-7.8,16.46-14.81,24.66-22.25c4.88-4.43,9.57-9.07,14.48-13.48
		c9.04-8.11,18.09-16.22,27.3-24.15c9.09-7.82,18.29-15.51,27.58-23.09c11.26-9.19,22.64-18.22,33.99-27.29
		c5.97-4.78,11.95-9.55,17.99-14.25c5.76-4.49,11.57-8.92,17.45-13.26c1.28-0.94,2.94-1.37,4.24-2.23
		c21.01-19.42,44.71-35.38,67.5-51.92c6.77-0.33,8.47,0.22,11.37,3.61c-1.19,4.67-5.41,6.52-8.84,9
		c-9.22,6.67-18.74,12.95-27.81,19.82c-16.5,12.5-32.71,25.37-49.14,37.96c-5.8,4.45-12.01,8.36-17.78,12.84
		c-8.6,6.68-16.97,13.67-25.45,20.5c-9.92,7.99-19.89,15.91-29.77,23.95c-2.67,2.17-5.07,4.67-7.64,6.97
		c-10.17,9.11-20.38,18.17-30.52,27.31c-7.35,6.63-14.62,13.36-21.91,20.07c-3.54,3.25-6.98,6.61-10.59,9.78
		C1121.16,628.97,1119.66,629.44,1118.59,630.01z"/>
	<path d="M811.17,732.36c-2.37-5.59-4.85-10.86-6.86-16.3c-4.8-13.05-6.14-26.35-3.87-40.26c1.74-10.65,5.79-20.11,11.17-29.19
		c1.44-2.44,3.05-4.87,5.01-6.89c5.41-5.59,11.03-10.98,16.6-16.42c8.75-8.55,19.56-13.02,31.25-15.87
		c22.03-5.37,41.2,1.95,59.08,13.74c5.16,3.4,9.14,8.65,13.5,13.2c1.66,1.73,2.87,3.89,4.28,5.85c0.56-0.32,1.12-0.63,1.68-0.95
		c-0.37,2.39-0.73,4.78-1.12,7.31c-1.9,0-3.21,0-4.38,0c-0.38-0.24-0.67-0.36-0.88-0.57c-4.92-5.06-9.8-10.16-14.75-15.2
		c-6.8-6.91-14.61-11.31-24.5-13.1c-8.94-1.62-17.46-1.65-26.28-0.13c-13.15,2.26-23.57,9.37-33.22,17.92
		c-7.91,7.01-14.63,15.07-19.92,24.26c-3.81,6.62-5.71,13.9-6.49,21.41c-1.43,13.78-0.64,27.32,5.36,40.15
		c2.54,5.42,5.14,10.82,7.36,16.36c0.61,1.53-0.03,3.55-0.11,5.75c-2.26-0.12-3.77,0-5.18-0.3c-9.85-2.13-18.98,1.12-28.25,3.57
		c-11.57,3.06-18.77,11.74-26.34,19.98c-7.36,8-9.8,18.11-11.58,28.35c-1.03,5.89-2.32,12.05-1.63,17.86
		c1.04,8.69,3.48,17.25,5.81,25.74c1.85,6.76,4.35,13.36,6.74,19.96c0.76,2.09,2.17,3.94,3.14,5.96c0.5,1.03,0.7,2.2,1.25,4
		c-2.84-1.59-4.76-2.67-6.69-3.74c-0.33,0.27-0.66,0.54-0.99,0.81c-1.89-3.5-4.01-6.9-5.63-10.52c-2.94-6.57-5.55-13.29-8.36-19.93
		c-3.79-8.98-5.13-18.42-5.73-28.07c-1.31-20.86,5.87-38.61,19.68-53.84c7.11-7.84,16.1-12.95,26.17-16.08
		c7.46-2.32,15-4.31,22.94-3.99C809.81,733.19,810.21,732.82,811.17,732.36z"/>
	<path d="M305.96,366.12c-0.15-2.07-0.3-4.15-0.45-6.22c-0.31,0.01-0.63,0.01-0.94,0.02c-0.25,0.6-0.5,1.19-0.97,2.29
		c-2.46-5.16-5.83-9.64-2.53-15.94c2.38,2.8,4.64,5.12,6.49,7.72c3.21,4.51,6.19,9.17,9.22,13.8c3.34,5.09,6.78,10.12,9.9,15.35
		c4.6,7.71,9.02,15.52,13.39,23.36c4.91,8.82,10.29,17.45,14.33,26.67c3.22,7.36,7.22,14.12,11.46,20.84
		c1.6,2.53,3.24,5.03,5.1,7.91c0.43,4.75-3.31,6.84-6.68,9.08c-17.19-6.07-31.87-16.32-47.29-25.2
		c-13.64-7.85-27.54-15.26-41.34-22.84c-4.3-2.36-8.64-4.64-13.37-6.45c1.6,2,3.21,4,4.81,6c0.13-0.17,0.27-0.34,0.4-0.51
		c4.71,3.56,9.68,6.82,14.07,10.74c8.05,7.19,15.83,14.69,23.56,22.23c2.55,2.48,4.43,5.66,6.96,8.17c3.07,3.04,6.62,5.6,9.75,8.59
		c2.37,2.27,4.45,4.85,6.59,7.36c4.07,4.77,8.08,9.58,12.28,14.56c0,1.17,0,2.48,0,3.98c-1.5,1.4-3.02,2.82-4.35,4.06
		c-3.76,0.54-5.57-1.92-7.4-4c-4.75-5.39-9.16-11.1-14.04-16.36c-6.56-7.08-13.5-13.82-20.16-20.82c-3.28-3.44-6.29-7.13-9.44-10.69
		c-0.69-0.78-1.35-1.62-2.14-2.29c-4.69-3.93-9.41-7.81-14.29-11.85c-0.32-1.13-0.68-2.4-1.04-3.69c-1.37-0.79-2.66-1.53-4.31-2.48
		c-0.8-2.82-1.69-5.93-2.57-9.04c-0.27-0.25-0.53-0.5-0.8-0.76c-0.49,1.03-0.97,2.05-1.46,3.08c-0.27-0.07-0.54-0.14-0.81-0.21
		c-0.34-1.35-0.67-2.7-1.07-4.28c-1.06-1.25-2.3-2.71-3.56-4.19c-1.07,0.21-2.2,0.43-3.57,0.69c-0.36-2.13-0.68-4-0.95-5.61
		c-2.27-1.37-4.61-2.24-6.21-3.86c-3.05-3.1-5.67-6.61-8.19-10.26c4.62,0.74,6.28,6.53,11.71,5.87c-1.35-1.16-2.71-2.33-4.29-3.68
		c1.85-0.87,3.42-1.61,5-2.36c2.78,1.2,5.57,2.41,7.21,3.11c16.81,9.29,32.4,18.28,48.34,26.61c15.04,7.86,29.89,15.97,43.91,25.55
		c0.97,0.66,2.29,0.8,3.89,0.71C335.49,422.37,323.35,392.82,305.96,366.12z"/>
	<path d="M673.57,1051.88c-1.44-0.63-3.33-1.17-4.91-2.19c-7.58-4.86-15.3-4.24-23.18-0.91c-12.08,5.11-21.24,13.94-29.96,23.35
		c-5.63,6.08-9.01,13.34-11.6,21.07c-0.42,1.25-0.99,2.45-1.61,3.97c-6.58-3.9-11.96-8.44-14.77-15.53
		c-0.66-1.67-1.52-3.29-2.53-4.77c-2.7-3.95-6.27-6.4-11.33-5.95c-7.07,0.63-13.39,3.09-18.97,7.54c-2.98,2.38-6.16,4.52-9.59,7.01
		c-2.77-3.26-4.98-5.85-7.42-8.72c0.77-0.81,1.32-1.68,2.12-2.17c3.19-1.96,6.57-3.61,9.65-5.72c8.32-5.7,17.3-5.83,26.76-3.89
		c7.29,1.5,12.78,5.64,17.79,10.76c0.7,0.72,1.48,1.36,2.61,2.39c1.15-1.96,2.05-3.63,3.09-5.22c8.47-12.9,19.57-22.97,33.05-30.41
		c8.05-4.44,16.69-5.61,25.72-3.94c1.28,0.24,2.57,0.38,3.4,0.5c0.35-7.59,0.68-14.86,1.02-22.13c0.3-6.46,2.67-12.33,5.65-17.89
		c5.05-9.45,11.21-18.12,19.54-25.04c6.21-5.15,12.04-10.96,18.89-15.06c7.28-4.35,15.33-7.77,23.46-10.25
		c9.76-2.97,20.08-4.33,30.25-2.13c7.42,1.61,14.88,3.71,21.8,6.76c6.29,2.77,11.45,7.65,15.61,13.29c1.81,2.45,1.68,4.33-0.24,8.12
		c-3.77,0.99-5.73-2.31-8.35-3.96c-0.96-0.6-1.66-1.75-2.24-2.79c-3.7-6.52-9.78-10.1-16.66-11.29c-7.29-1.27-15.02-2.06-22.28-1.04
		c-14.32,2-27.19,8.36-39.1,16.5c-13.86,9.48-23.86,22.28-30.86,37.35c-5.27,11.33-5.43,23.28-2.17,35.25
		C677.01,1047.67,677.27,1050.07,673.57,1051.88z"/>
	<path d="M367.99,360.16c1.02,3.65,1.9,7.35,3.1,10.94c2.21,6.66,4.76,13.21,6.9,19.89c3.51,10.96,6.59,22.07,10.28,32.96
		c1.53,4.51,4.15,8.65,6.3,12.95c0.8,1.6,1.69,3.15,2.47,4.6c-2.84,4.58-5.73,7.06-9.58,7.85c-13.18-22.54-29.1-43.49-44.97-64.52
		c-1.17-0.66-2.33-1.31-2.75-1.54c-24.09-29.3-46.31-58.92-65.79-91.85c3.81,0.47,6.76,0.83,10.89,1.33
		c5.28,6.32,11.87,12.74,16.64,20.31c5.07,8.05,11.3,15.09,16.79,22.74c3.49,4.88,6.86,9.85,10.49,14.62
		c4.24,5.56,8.68,10.97,13.07,16.42c3.29,4.08,6.64,8.12,9.95,12.19c3.2,3.92,6.46,7.79,9.55,11.79c2.09,2.7,3.9,5.62,5.91,8.39
		c0.82,1.12,1.82,2.11,2.75,3.16c0.39-0.19,0.78-0.38,1.16-0.57c-0.93-3.31-1.73-6.66-2.84-9.91c-1.49-4.36-3.57-8.54-4.78-12.96
		c-1.97-7.19-4.08-14.45-4.93-21.82c-0.78-6.77,0.01-13.72,0.12-20.96c2.79-1.71,5.23-3.2,7.82-4.78c0.91,1.28,1.66,1.92,1.87,2.7
		c1.91,7.22,5.18,13.63,10.35,19.13c1.35,1.43,1.67,3.8,2.69,5.6c5.27,9.24,10.57,18.46,15.94,27.63c2.59,4.43,4.99,8.88,4.68,15.32
		c-0.71,0.7-1.94,1.91-3.9,3.85c-9.9-15.94-19.28-31.04-28.66-46.15C369,359.69,368.5,359.92,367.99,360.16z"/>
	<path d="M573.68,1228.03c3.93-0.18,6.47-0.12,8.96-0.43c7-0.89,13.97-1.93,20.96-2.9c13.5-1.87,26.98-3.96,40.52-5.51
		c8.03-0.92,16.18-0.81,24.25-1.46c26.22-2.11,52.49-1.82,78.76-1.91c21.29-0.07,42.6-0.69,63.88-1.51
		c11.23-0.44,22.42-2.04,33.65-2.77c22.3-1.44,44.61-2.76,66.92-3.85c6.42-0.31,12.9,0.17,19.34,0.56
		c3.91,0.24,7.74,1.14,10.45,4.36c-0.92,4.23-1.88,4.96-6.49,5.01c-9.76,0.11-19.53-0.04-29.28,0.37
		c-12.27,0.52-24.52,1.49-36.78,2.25c-8.53,0.53-17.07,0.93-25.59,1.56c-9.55,0.7-19.08,1.72-28.64,2.32
		c-6.14,0.38-12.31,0.25-18.46,0.35c-12.82,0.22-25.65,0.54-38.47,0.66c-18.27,0.17-36.54,0.01-54.81,0.37
		c-14.4,0.29-28.8,0.99-43.18,1.81c-8.97,0.51-17.97,1.19-26.86,2.5c-10.51,1.55-20.89,3.97-31.37,5.8
		c-4.71,0.82-9.51,1.12-14.27,1.68c-4.44,0.52-7.79-1.87-10.97-4.35C575.14,1232.12,574.82,1230.35,573.68,1228.03z"/>
	<path d="M802.48,1181.43c-0.23-1.02-0.48-2.14-0.69-3.07c0.43-0.48,0.6-0.85,0.83-0.9c10.57-2.08,21.2-3.85,31.69-6.27
		c11.81-2.73,23.5-5.97,35.2-9.16c9.81-2.68,19.57-5.58,29.33-8.44c15.91-4.66,31.79-9.45,47.73-14.01
		c4.82-1.38,9.81-2.17,13.13-2.88c14.49-5.25,27.71-8.97,41.57-10.45c1.01-0.61,2.01-1.21,3-1.8c0.93,0.4,1.73,0.74,2.53,1.08
		c-0.06-0.32-0.12-0.65-0.17-0.97c2.61-0.64,5.21-1.65,7.85-1.8c2.17-0.12,4.41,0.75,6.61,1.23c2.51,0.55,3.49,2.08,2.8,5.21
		c-2.01,0.7-4.17,1.67-6.43,2.22c-9.53,2.31-19.16,4.27-28.64,6.77c-11,2.9-21.92,6.1-32.8,9.42c-8.3,2.53-16.41,5.69-24.72,8.15
		c-12.75,3.77-25.63,7.11-38.42,10.75c-8.34,2.37-16.56,5.16-24.94,7.37c-9.55,2.52-19.2,4.66-28.83,6.87
		c-6.13,1.41-12.33,2.49-18.43,4.01C814.29,1186.34,808.52,1185.07,802.48,1181.43z"/>
	<path d="M859.1,778.55c4.15-2.7,8-4.43,13.07-3.22c2.71,4.15,5.67,8.47,8.41,12.93c6.84,11.12,13.44,22.38,20.43,33.4
		c3.36,5.3,7.48,10.12,11.08,15.28c6.49,9.32,13.02,18.62,19.22,28.14c6.69,10.27,13.14,20.7,19.43,31.23
		c1.89,3.16,2.9,6.86,4.35,10.38c0.17,3.98-3.54,4.22-6.11,6.29c-1.15-1.27-2.42-2.3-3.25-3.61c-10.68-16.87-21.07-33.93-32-50.64
		c-6.23-9.52-13.54-18.33-19.95-27.74c-7.02-10.28-13.49-20.92-20.35-31.31c-4.2-6.36-8.68-12.54-13.03-18.81
		C859.98,780.27,859.68,779.6,859.1,778.55z"/>
	<path d="M961,885.71c-0.12,0.77-0.31,1.94-0.57,3.59c-2.18,0.92-4.48,1.88-7.62,3.2c-1.39-1.88-3.25-3.61-4.18-5.75
		c-7.15-16.48-13.95-33.12-21.24-49.55c-3.39-7.66-7.62-14.94-11.48-22.39c-0.67-1.29-1.38-2.55-2.46-4.55
		c3.52-1.26,6.5-2.33,9.2-3.3c6.16,4.11,8.12,10.29,10.9,15.83c3.11,6.21,5.6,12.68,8.81,18.89c4.98,9.63,8.32,20.11,12.46,30.19
		C956.64,876.3,958.71,880.6,961,885.71z"/>
	<path d="M1125.9,667.25c-1.79,5.92-35.45,31.58-44.19,33.95c-6.22-2.08-7.3-3.09-7.73-7.56c1.43-0.97,3.03-2.01,4.59-3.12
		c10.14-7.17,20.26-14.36,30.41-21.51c1.59-1.12,3.4-1.92,4.98-3.05C1118.26,662.87,1122.06,663.86,1125.9,667.25z"/>
	<path d="M1087.82,705c5.87-6.01,14.45-9,18.11-4.15c0.54,4.33-2.12,8.36-6.51,9.84C1095.34,712.08,1090.35,709.71,1087.82,705z"/>
	<path d="M761.36,1264.36c-2.98,0-5.61,0-8.59,0c-1.94-2.59-6.15-3.85-5.88-8.43C754.17,1255.71,760.49,1259.17,761.36,1264.36z"/>
</g>
</svg>
