<?xml version="1.0" encoding="utf-8"?>
<!-- Generator: Adobe Illustrator 27.4.0, SVG Export Plug-In . SVG Version: 6.00 Build 0)  -->
<svg version="1.1" id="Calque_1" xmlns="http://www.w3.org/2000/svg" xmlns:xlink="http://www.w3.org/1999/xlink" x="0px" y="0px"
	 viewBox="0 0 2000 2000" style="enable-background:new 0 0 2000 2000;" xml:space="preserve">
<g>
	<path d="M357.87,1331.99c-0.13-2.62,1.69-3.85,3.57-5.07c7.11-4.61,14.21-9.24,21.29-13.89c0.8-0.53,1.48-1.25,2.18-1.93
		c6.11-5.93,12.2-11.88,18.78-18.28c0.96,1.14,1.62,1.92,2.31,2.73c5.33-1.17,6.63-6.79,10.81-9.39c-0.44-1.84-0.83-3.46-1.33-5.53
		c0.42-1.12,0.98-2.63,1.64-4.39c-1.07-0.07-1.91-0.39-2.44-0.11c-2.98,1.58-5.89,3.3-10.31,5.83c2.39-4.51,5.32-5.96,8.33-7.83
		c0.08-1.47,0.17-3.12,0.27-5c3.7-3.92,7.51-7.97,11.75-12.47c-4.38-3.29-9.35-3.44-13.97-4.29c-7.46-1.38-14.98-0.76-22.56-0.49
		c-10.88,0.39-21.33,2.27-31.59,5.48c-3.43,1.07-6.83,2.67-9.83,4.65c-9.98,6.57-19.6,13.69-29.69,20.07
		c-6.57,4.15-13.71,7.42-20.62,11.03c-3.86,2.02-7.78,3.95-11.57,5.87c-2.91-1.26-4.69-3.04-5.13-6.73c4.63-3.4,9.37-7.18,14.4-10.5
		c10.18-6.71,20.4-13.37,30.85-19.65c5.63-3.38,11.69-6.06,17.67-8.82c8.32-3.86,14.93-10.06,21.94-15.7
		c4.12-3.31,7.95-6.98,11.44-10.07c1.13-3.86,2.07-7.06,3-10.24c2.19-0.31,3.85-0.55,6.56-0.94c4.64-5.44,9.99-11.31,14.87-17.55
		c3.29-4.21,5.87-8.96,8.87-13.41c4.67-6.93,5.99-14.84,6.8-22.9c0.54-5.32-1.2-10.14-3.5-14.75c-6.77-13.58-15.72-25.3-29.33-32.72
		c-4.26-2.32-8.71-4.35-13.24-6.08c-6.61-2.51-13.25-5.12-20.1-6.8c-9.69-2.37-19.51-4.59-29.41-5.7
		c-15.5-1.74-31.11-3.38-46.74-1.56c-13.54,1.58-27.23,2.25-40.4,6.28c-1.74,0.53-3.68,0.42-5.97,0.66c0-2.42,0-4.25,0-6.46
		c12.13-1.26,22.54-6.67,33.26-11.3c9.17-3.96,18.48-7.58,28.32-11.6c0.94,0.82,2.35,2.04,3.98,3.45c21.9-4.54,43.76-1.89,66.7,2.26
		c-1.6,0.83-2.26,1.17-3.07,1.58c6.24,3.86,13.33,3.71,20.49,4.63c3.21,4.14,8.11,5.61,12.91,7.48c4.5,1.75,8.75,4.19,13.04,6.44
		c2.36,1.23,4.45,3.22,6.93,3.96c7.16,2.12,13.25,5.8,18.62,10.92c1.19,1.13,2.87,1.86,4.44,2.46c5.2,1.96,9.63,4.7,11.12,10.57
		c2.59,0.62,4.92,1.17,7.85,1.87c0.3,2.29,0.6,4.58,0.97,7.43c2.17,0.85,4.6,1.79,7.67,2.99c3.03,6.53,6.34,13.66,9.62,20.73
		c-1.6,1.06-2.59,1.71-3.54,2.35c0.11,0.52,0.07,1.24,0.32,1.36c4.04,1.98,5.47,5.13,4.97,9.57c-0.24,2.13,0.47,4.34,0.56,6.53
		c0.09,2.17,0.1,4.36-0.16,6.51c-0.5,4.07-1.22,8.11-1.97,12.94c-0.69,0.45-2.04,1.34-3.35,2.2c3.42,3.07,0.5,7.37,2.6,10.87
		c-2.44,3.3-4.74,6.42-6.08,8.23c-3,6.46-5.07,11.66-7.79,16.51c-2.57,4.57-1.85,10.63-7.74,14.29c3.25,0.36,5.39,0.6,7.63,0.84
		c1.32-0.58,2.75-0.99,3.96-1.77c6.47-4.18,12.93-8.38,19.31-12.7c10.5-7.11,22.37-10.48,34.58-13.05
		c6.61-1.39,13.16-3.11,19.76-4.56c2.35-0.52,4.82-1.18,7.16-0.95c8.43,0.84,16.45-1.08,24.46-3.15c5.06-1.31,9.71-1.56,12.87,3.11
		c1.91,0,3.35,0,4.77,0c0.81-1.07,1.53-2.02,2.15-2.84c2.32,0.53,4.6,1.05,6.99,1.59c0.96-1.6,1.68-2.8,2.54-4.23
		c22.2-0.51,43.89,3.31,66.82,8.95c-0.08,0.02,1.33-0.26,2.46-0.48c10.28,3.23,19.8,7.35,28.99,12.49
		c6.12,3.43,13.04,5.41,19.46,8.34c2.83,1.29,5.44,3.18,7.93,5.09c9.83,7.57,19.56,15.26,29.33,22.89
		c5.53,4.32,11.59,8.13,16.47,13.09c5.26,5.35,9.48,11.73,14.03,17.75c2.65,3.49,5.05,7.18,7.6,10.74c3.39,4.73,7.13,9.1,8.33,15.21
		c0.67,3.45,3.25,6.5,4.83,9.79c2.3,4.77,4.49,9.6,7.41,15.86c0.78-3.6,1.35-5.78,1.69-7.99c0.37-2.41,0.57-4.84,0.76-7.28
		c0.93-12.4,1.31-24.87,2.86-37.19c2.16-17.25,8.79-32.88,19.41-46.75c3.26-4.25,6.53-8.52,9.45-13
		c6.38-9.8,15.03-17.43,24.66-23.52c5.7-3.6,12.01-6.85,19.58-7.14c6.43-0.25,12.86-2.58,19.12-4.52
		c13.57-4.22,27.4-6.76,41.57-7.37c11.43-0.49,22.87-0.82,34.31-1.22c1.46-0.05,2.93-0.29,4.37-0.15
		c15.27,1.48,30.55,2.85,45.79,4.62c7,0.81,13.9,2.42,21.44,3.77c0.94-0.4,2.48-1.05,3.61-1.53
		c55.03,15.24,109.33,31.31,163.53,50.65c-1.48-4.76-6.03-6.05-7.28-10.2c1.91,1.25,3.82,2.51,6.05,3.96
		c0.82-0.59,1.77-1.28,2.72-1.96c8.42,0.96,13.46,8.6,21.49,10.64c1.31,1.67,2.65,3.37,4.32,5.49c8.69,1.11,16.91,4.32,24.44,9.92
		c-1.22,0.85-2.15,1.5-3.44,2.41c1.98,3.21,5.96,3.04,8.29,5.19c2.83,0,5.45,0,8.18,0c0.37,1.67,0.67,2.99,1.05,4.72
		c2-0.13,3.88-0.26,6.72-0.44c5.93,3.6,12.53,7.61,19.21,11.66c0.85,2.42,1.64,4.67,2.53,7.21c-1.72,0.98-3.14,1.79-4.91,2.8
		c-4.15-1.52-8.4-3.08-13.82-5.07c1.31,2.73,2.21,4.32,2.86,6.01c2.01,5.21,4.12,10.41,5.8,15.73c0.69,2.19,1.12,4.96-2.56,6.28
		c-1.17-0.75-2.74-1.46-3.93-2.57c-10.09-9.46-22.06-16.02-34.22-22.26c-6.94-3.57-13.83-7.27-20.97-10.4
		c-10.25-4.49-20.61-8.8-31.11-12.67c-14.87-5.47-29.83-10.72-44.91-15.61c-19.92-6.45-39.38-14.36-59.91-18.94
		c-7.35-1.64-14.59-3.98-21.7-6.53c-15.98-5.73-32.63-8.06-49.28-10.56c-32.49-4.87-65.12-5.34-97.83-3.17
		c-17.24,1.15-33.67,5.55-49.06,13.42c-4.96,2.53-9.65,5.7-14.15,9c-5.88,4.32-11.64,8.83-17.09,13.67
		c-10.45,9.3-16.68,21.48-22.26,34.02c-3.07,6.91-5.64,13.98-6.88,21.51c-0.43,2.59-2.04,4.97-2.66,7.55
		c-1.43,5.9-2.59,11.86-3.84,17.8c-0.86,4.05-1.6,8.13-2.6,12.15c-0.25,1.02-1.28,1.86-1.84,2.63c0,2.62,0.39,5.31-0.07,7.86
		c-1.68,9.33-3.63,18.62-5.5,27.92c-0.19,0.95-0.34,2-0.83,2.8c-3.86,6.33-5.02,13.63-7.43,20.48c-0.14,0.4-0.66,0.67-1.12,1.13
		c-2.59,0.97-4.48-0.55-6.63-2.36c-0.05-0.74-0.22-1.69-0.17-2.62c1.01-18.48-2.11-36.24-7.68-53.91
		c-6.47-20.53-19.83-36.16-33.85-51.46c-5.41-5.9-10.76-12.04-17.98-15.98c-2.57-1.4-5.02-3.04-7.69-4.22
		c-25.05-11.09-50.79-20.19-77.84-24.91c-17.06-2.98-34.29-5.1-51.68-4.69c-8.03,0.19-16.11,0.72-24.04,1.91
		c-20.99,3.14-41.94,6.56-62.43,12.28c-16.28,4.55-31.68,11.35-47.15,17.99c-21.1,9.06-41.72,19.12-61.07,31.54
		c-18.88,12.11-37.56,24.53-56.21,37c-7.29,4.87-14.29,10.18-21.3,15.45c-3.06,2.31-5.81,5.04-9.08,7.92
		c-2.19-1.8-3.99-3.28-5.98-4.91c3.44-5.87,9.11-8.63,13.33-12.86c4.12-4.12,7.98-8.5,11.58-12.37c0-1.58,0-2.47,0-3.77
		c2.28-0.25,4.41-0.49,5.65-0.63c2.97-2.37,5.22-4.56,7.83-6.15c2.85-1.73,4.94-3.87,6.01-7.01
		C356.77,1333.14,357.32,1332.56,357.87,1331.99z"/>
	<path d="M1040.37,720.83c3.88,9.2,4.26,17.78,1.2,26.62c1.43,1.49,2.65,3,4.1,4.23c6.6,5.6,7.48,12.66,5.45,20.53
		c-2.06,7.99-7.73,13.5-13.51,18.66c-10.02,8.94-21.7,15.6-33.06,22.62c-12.37,7.65-25.6,13.79-37.97,21.52
		c-6.34,3.97-13.59,6.53-20.53,9.51c-7.59,3.26-15.53,5.8-22.89,9.5c-12.68,6.36-26,10.76-39.61,14.47
		c-2.12,0.58-4.24,1.16-6.32,1.85c-11.49,3.8-23.16,2.48-34.79,1.1c-2.36-0.28-4.73-1.31-6.86-2.45
		c-8.24-4.39-15.6-9.92-21.87-16.92c-8.08-9.02-9.28-19.67-7.18-30.9c1.12-5.96,3.24-11.74,4.89-17.6c0.44-1.56,0.82-3.15,1.41-5.46
		c-1.85,0.32-2.97,0.43-4.05,0.72c-6.82,1.86-13.64,3.76-20.46,5.63c-0.94,0.26-1.91,0.39-2.86,0.61c-9.57,2.24-16.89-1.26-21.9-9.3
		c-2.68-4.3-4.77-9.07-6.41-13.88c-0.97-2.86-1.07-6.27-0.65-9.3c1.16-8.46,3.45-16.65,7.08-24.44c0.59-1.27,0.89-2.77,0.95-4.18
		c0.95-21.52,10.8-39.25,23.89-55.48c7.36-9.13,15.49-17.62,24.74-24.88c9.38-7.37,18.72-14.85,28.61-21.48
		c10.36-6.94,21.59-12.37,33.99-14.91c1.6-0.33,3.15-0.94,5.05-1.52c-1.07-3.33-2.02-6.3-2.99-9.26c-3.64-11.1-1.8-21.72,3.06-31.97
		c4.97-10.47,11.98-19.53,20.19-27.65c13.7-13.55,29.02-24.68,47.75-30.19c5.79-1.7,11.9-2.75,17.93-3.15
		c12.01-0.8,21.62,5.11,30.37,12.47c13.23,11.13,19.38,25.92,21.44,42.74c1.36,11.06,0.05,21.88-2.26,32.68
		c-2.82,13.18-6.7,26.06-12.95,37.97c-3.7,7.06-8.86,13.37-13.64,19.82c-1.24,1.67-3.34,2.92-5.3,3.78
		c-1.28,0.56-3.03,0.07-5.62,0.04c1.49-2.57,2.18-4.38,3.38-5.74c15.45-17.58,23.5-38.51,28.31-61.05
		c3.01-14.09,3.66-28.1-0.46-41.99c-2.58-8.73-6.77-16.48-13.84-22.78c-12.36-11.02-26.24-12.95-41.66-8.81
		c-18.92,5.08-34.46,15.65-48.31,29.15c-8.33,8.12-14.96,17.36-19.65,27.96c-4.41,9.96-5.75,20.21-1.3,30.51
		c1.52,3.52,3.88,6.67,6.28,10.71c-0.16,0.54-0.55,1.86-0.95,3.19c-19.22-0.36-35.28,7.89-50.43,17.83
		c-17.39,11.4-32.94,25.11-46.4,41.06c-10.71,12.7-18.21,27.06-21.66,43.33c-1.37,6.45-1.27,13.1,0.42,19.61
		c2.58,9.94,9.5,15.13,19.85,14.71c6.91-0.28,13.59-1.93,19.77-4.88c9.03-4.3,18.12-8.62,26.61-13.86
		c9.32-5.77,19.36-10.2,28.58-16.14c3.42,0.13,6.26,1.04,7.03,5.56c-4.23,6.31-8.88,12.82-13.05,19.61
		c-3.82,6.23-7.76,12.52-10.49,19.25c-2.53,6.23-3.45,13.11-5.25,19.65c-1.03,3.74,1.36,7.15,0.35,11.15
		c-0.79,3.15,1.03,6.96,1.7,10.47c2.37,12.42,13.81,19.53,24.65,20.4c8.43,0.67,16.64-0.69,24.53-3.12
		c20.27-6.23,40.71-12.13,59.81-21.59c10.73-5.31,20.77-11.71,29.93-19.56c11.69-10.02,22.94-20.47,33.59-31.57
		c6.12-6.38,11.33-13.4,14.45-21.81c2.1-5.65,2.6-11.4,1.28-17.25c-0.3-1.32-1.33-2.47-2.25-4.11c-12.24,2.73-23.74,9.68-37.03,6.33
		c-1.12-2.14-2.11-4.04-3.2-6.13c3.67-3.63,8.41-4.22,12.58-5.87c4.29-1.7,8.73-3.41,13.25-3.99c4.5-0.58,9.18,0.23,15.85,0.52
		c8.03-2.48,17.73-6.42,27.06-11.25c25.97-13.43,47.6-32.16,66.19-54.55c14.31-17.22,16.25-40.95,3.59-62.2
		c-3.31-5.55-8.14-9.03-14.68-9.78c-7.51-0.86-14.97-1.56-22.6-0.9c-10.69,0.93-21.44,1.13-32.16,1.68
		c-6.09,0.31-12.18,0.58-18.25,1.04c-2.9,0.22-2.89,0.37-7.11-1.27c-0.69-2.97,0.96-4.6,3.6-5.09c4.06-0.76,8.19-1.34,12.31-1.61
		c4.87-0.32,9.77-0.05,14.64-0.35c7.54-0.47,15.08-0.98,22.57-1.91c8.3-1.03,16.5-0.9,24.78,0.24c10.03,1.38,17.25,6.96,22.13,15.23
		c9.77,16.57,12.04,34.38,6.45,52.89c-2.06,6.83-5.88,12.94-10.72,18.15c-8.29,8.94-16.39,18.18-25.56,26.15
		c-10.42,9.06-21.31,17.65-33.47,24.54c-8.95,5.07-18.32,9.05-27.7,13.11C1044.38,718.58,1042.75,719.58,1040.37,720.83z"/>
	<path d="M544,1023.3c13.43,3.63,26.58,7.22,39.76,10.75c4,1.07,8.06,1.93,12.08,2.94c13.57,3.4,27.42,4.48,41.34,4.51
		c17.08,0.04,34.16-0.09,51.24-0.39c5.59-0.1,11.17-0.86,16.74-1.45c7.27-0.77,14.54-1.56,21.79-2.55
		c19.84-2.71,39.34-6.98,58.44-12.98c9.76-3.07,19.49-6.23,29.21-9.41c1.36-0.45,2.63-1.19,3.9-1.88
		c8.36-4.54,16.69-9.14,25.08-13.63c2.57-1.37,5.3-2.43,8.79-4.02c4.76-5.68,12.3-8.06,20.34-9.8c-1.16,1.04-2.15,2.45-3.51,3.07
		c-11.82,5.36-22.44,12.71-33.32,19.65c-1.44,0.92-2.86,1.9-4.39,2.61c-7.9,3.63-15.73,7.48-23.81,10.66
		c-6.32,2.49-12.95,4.23-19.51,6.09c-10.79,3.05-21.54,6.26-32.46,8.76c-9.22,2.11-18.62,4.26-28.01,4.63
		c-10.7,0.42-21.17,2.65-31.87,2.87c-7.27,0.15-14.51,1.51-21.79,1.98c-5.81,0.38-11.66,0.22-17.49,0.38
		c-0.8,0.02-1.58,0.49-3.86,1.26c5.66,1.85,10.07,0.81,14.21,2.09c-13.03,0.97-26.06-0.35-38.86,0.26
		c-1.68-1.34-2.99-2.39-4.37-3.49c-3.56-0.18-7.19-0.4-10.83-0.54c-2.68-0.1-5.38-0.28-8.05-0.12c-7.96,0.49-15.31-1.8-22.78-4.16
		c-6.42-2.03-13.17-3.02-21.27-4.81c3.8,5.27,6.78,9.41,10.05,13.95c-5.45,6.79-12.34,10.54-20.17,12.89
		c-1.57,3.16-0.64,6.37-0.47,9.43c0.7,12.66,1.57,25.31,2.54,37.95c0.18,2.31,1.08,4.56,1.79,7.45c-0.34,0.72-1.35,2.1-1.62,3.62
		c-0.29,1.62,0.12,3.36,0.27,5.98c-0.65,0.68-1.62,1.69-2.62,2.72c-2.52-0.97-4.26-1.64-6.11-2.35c-0.46-12.78-6.95-17-19.12-14.04
		c-1.22,2.49-2.59,4.79-3.5,7.26c-1.53,4.14-1.07,8.05,1.59,11.79c2.72,3.82,5.65,7.32,9.59,9.94c8.45,5.62,17.21,4.8,25.74,0.67
		c5.89-2.85,9.44-7.68,8.14-15.46c-2.47-2.5-5.31-5.36-8.92-9.01c5.94-0.36,10.03,1.14,13.54,4.24c2.17,1.91,2.76,4.55,2.48,7.35
		c-0.26,2.66-0.63,5.32-0.92,7.77c-8.24,15.21-31.44,18.02-43.17,9.4c-5.74-4.22-11.37-8.3-14.21-15.29
		c-4.54-11.19,3.11-23.79,15.15-24.11c3.31-0.09,6.66,1,9.98,1.63c1.12,0.21,2.18,0.7,3.89,1.27c-0.6-15.61-1.23-30.55-3.4-45.61
		c-1.88,0-3.08-0.16-4.23,0.02c-16.94,2.76-33.86,3.42-50.96,1.1c-14.24-1.94-28.61-2.97-42.93-4.32
		c-21.32-2.01-42.69-3.42-63.9-6.59c-7.93-1.19-15.96-1.69-24.41-2.55c-5.31,10.14-15.9,12.68-25.94,14.97
		c-11.1,2.54-22.47,4.75-34.83,3.35c-1.33-0.86-3.5-2.02-3.73-5.36c1.04-0.59,2.16-1.68,3.4-1.86c4.58-0.67,9.2-1.15,13.82-1.51
		c11.05-0.86,21.56-3.71,31.68-8.14c0.65-0.29,1.2-0.8,1.83-1.22c-0.22-2.78-2.78-2.35-4.31-3.14c-4.97-2.56-5.7-3.98-4.78-10.49
		c0.45-0.1,0.97-0.38,1.35-0.26c13.3,4.5,27.25,5.29,41.01,7.14c14.01,1.88,28.01,3.78,42.06,5.33c7.5,0.83,15.1,0.71,22.62,1.39
		c17.48,1.57,34.94,3.38,52.4,5.07c3.4,0.33,6.81,0.77,10.21,0.74c11.7-0.08,23.42,0.04,34.97-2.21c1.15-0.22,2.22-0.84,3.95-1.52
		c-0.17-8.55-1.51-16.83-3.88-25.47c-2.81-1.31-5.64-2.64-8.98-4.21c-0.72-2.75-1.55-5.89-2.62-9.95c3.28,0.83,5.51,1.39,7.76,1.96
		c1.36-7.59-8.2-51.78-17.91-83.12c-11.24-36.27-25.55-71.16-32.59-78.96c-0.17,1.74-0.42,3.1-0.42,4.46
		c-0.12,34.78-6.68,68.35-19.02,100.82c-2.16,5.69-4.43,11.36-6.93,16.92c-2.61,5.79-6.87,9.97-13.29,12.09
		c-6.49-2.42-11.17-7.39-13.76-13.3c-3.5-7.97-6.35-16.3-8.09-24.99c-2.09-10.45-1.8-20.84-1.09-31.31
		c0.67-9.83,3.72-19.01,7.6-27.99c2.03-4.69,3.38-9.67,5.45-14.34c3.77-8.5,8.35-16.53,14.76-23.41c6.7-7.19,14.86-10.77,24.71-10.4
		c0.69,0.03,1.39-0.17,2.45-0.32c0.83-3.13,0.91-6.19-0.37-9.2c-4.68-11-10.03-21.65-16.3-32.11c-9.01-1.5-16.96,1.12-24.34,5.79
		c-9.31,5.89-15.89,14.37-21.17,23.84c-11.54,20.68-22.15,41.82-31.83,63.45c-8.12,18.14-13.52,37.11-18.33,56.3
		c-2.85,11.35-5.46,22.76-8.21,34.14c-0.28,1.14-0.84,2.22-1.22,3.21c-3.18,0.76-4.87-0.85-6.84-3.46c0.96-4.54,1.8-9.56,3.1-14.45
		c2.63-9.89,5.53-19.7,8.26-29.56c1.23-4.46,2.03-9.05,3.52-13.41c2.72-8.01,4.49-16.3,8.78-23.86c4.18-7.36,7.01-15.48,10.53-23.23
		c8.58-18.87,18.35-37.1,28.98-54.89c2.87-4.8,5.6-9.58,9.47-13.82c9.14-10.04,20.03-16.05,33.64-16.95
		c0.4-0.03,0.77-0.49,1.59-1.05c-0.37-0.96-0.69-2.07-1.2-3.09c-11.12-22-22.21-44.03-36.78-64.03
		c-6.17-8.47-12.8-16.62-19.47-24.71c-10.09-12.24-20.26-24.41-30.64-36.4c-7.71-8.91-16.64-16.37-27.07-22.08
		c-15.61-8.54-31.01-17.47-46.54-26.16c-6.19-3.47-12.65-6.28-19.69-7.67c-3.78-0.75-7.35-2.13-10.12-6.45
		c1.91-0.16,2.99-0.41,4.05-0.32c8.13,0.69,15.84,2.81,22.96,6.88c12.71,7.27,25.39,14.58,38.1,21.83
		c3.81,2.18,7.63,4.36,11.56,6.32c15.15,7.56,27.28,18.78,38,31.6c13.14,15.7,26.29,31.42,38.92,47.53
		c6.9,8.8,13.32,18.08,18.95,27.74c9.69,16.63,18.6,33.71,28.29,51.44c0.18,0.1,1.16,0.89,2.28,1.29
		c8.79,3.11,12.96,10.01,14.87,18.5c1.01,4.49,1.11,9.19,1.81,13.76c0.48,3.1,0.79,6.37,2.03,9.18
		c6.51,14.72,13.39,29.27,19.94,43.98c6.25,14.03,11.86,28.31,16.11,43.1c2.55,8.89,5.62,17.64,8,26.58
		c2.94,11.06,5.59,22.21,8.04,33.39c2.3,10.48,4.16,21.05,6.25,31.57C542.86,1020.09,543.34,1021.21,544,1023.3z M448.65,973.62
		c-1.18-4.4-2.14-7.91-3.06-11.43c-3.43-13.05-5.57-26.19-2.83-39.68c1.64-8.1,2.96-16.28,5.07-24.26c1.48-5.62,3.94-11,6.14-16.41
		c3.92-9.67,6.55-19.95,13.16-28.39c0.28-0.36-0.08-1.22-0.17-2.22c-6.63,2.3-12.36,5.3-16.44,10.74c-2.62,3.5-5.18,7.09-7.35,10.88
		c-11.41,19.92-16.51,41.46-16.45,64.34c0.02,6.14,0.53,12.19,2.34,18.04c2.08,6.73,4.31,13.42,6.78,20.02
		c1.09,2.91,2.74,5.73,7.02,6.39C444.73,979.04,446.68,976.34,448.65,973.62z M562.28,1046.43c-1.19-1.77-1.98-3.2-3.03-4.43
		c-1.08-1.26-2.4-2.32-3.61-3.46c-1.18-1.11-2.21-2.52-3.59-3.26c-1.32-0.71-3.02-0.74-4.55-1.07c-0.5,1.19-1.09,1.89-1,2.49
		c0.8,5.65,1.7,11.29,2.61,17.09C555.16,1054.38,558.08,1050.34,562.28,1046.43z"/>
	<path d="M1487.11,1303.42c3.36,0.91,4.72,2.61,4.64,5.02c-0.09,2.63-0.45,5.3-1.07,7.86c-2.88,11.74,1.8,22.9,12.44,28.53
		c10.16,5.38,20.93,7.51,32.51,6.14c9.04-1.07,17.84-2.51,25.92-7.01c14.43-8.04,23.05-20.58,28.26-35.89
		c2.9-8.52-2.49-23.2-12.16-29.27c-2.1-1.32-5.03-1.66-7.62-1.8c-3.39-0.17-6.81,0.35-10.21,0.49c-7.27,0.3-13.08-2.94-18.71-7.49
		c0.23-2.31,0.45-4.41,0.69-6.75c6.87-1.28,13.33-1.53,19.77,0.41c1.4,0.42,2.86,0.76,4.16,1.41c6.56,3.27,12.7,2.01,18.83-1.3
		c13.6-7.33,24.86-17.11,32.68-30.62c7.82-13.5,5.59-25.9-6.28-35.8c-9.29-7.75-20.01-12.17-31.9-13.31
		c-11.13-1.07-22.22-2.39-33.55-1.09c-13.74,1.57-26.61,5.57-39.18,10.99c-9.54,4.11-17.5,10.56-25.33,17.17
		c-1.53,1.29-2.84,2.7-5.13,1.96c-2.36-1.39-2.06-3.56-1.56-6.26c6.76-6.97,14.64-13.1,23.76-17.37
		c28.54-13.36,58.27-17.06,89.15-10.29c10.45,2.29,19.72,7.06,27.69,14.15c11.35,10.09,15.84,25.26,7.94,41.15
		c-8.2,16.48-21.35,28.09-37.32,36.75c-0.81,0.44-1.6,0.89-2.85,1.58c1.41,1.81,2.54,3.32,3.73,4.77
		c9.38,11.44,12.3,24.43,7.73,38.4c-2,6.1-6.13,11.52-9.46,17.16c-1.22,2.07-2.89,3.87-4.34,5.78c0.3,2.62,0.58,5.03,0.85,7.35
		c-0.79,2.65-1.55,5.2-2.37,7.95c-5.02,4.71-9.87,9.87-15.34,14.26c-11.55,9.26-24.93,12.9-39.64,11.15
		c-9.95-1.19-19.83-3.05-28.83-7.68c-12.07-6.21-21.58-15-25.89-28.36c-0.87-2.68-1.16-5.55-1.9-9.25c-2.55,1.7-4.58,2.9-6.44,4.31
		c-8.73,6.61-18.45,9.61-29.43,8.51c-9.29-0.93-18.25-2.73-26.68-7.1c-7.58-3.93-13.41-9.53-18.4-16.34
		c-5.52-7.53-9.23-16-13.19-24.35c-2-4.21-2.69-8.74-2.62-13.51c0.2-12.53,3.29-24.12,10.31-34.56c2.97-4.41,5.07-9.42,9.8-12.6
		c1.61-1.08,2.26-3.59,3.47-5.64c-1.07-2.91-1.99-5.66-3.08-8.35c-2.18-5.38-2.6-10.91-1.47-16.54c1.26-6.21,2.44-12.47,4.19-18.55
		c3.79-13.15,11.85-21.07,27.2-22.56c13.14-1.28,23.67,4.51,34.2,10.73c5.99,3.54,10.61,8.56,14.11,14.57
		c1.98,3.4,1.96,3.41,0.73,8.47c-1.32-0.2-2.67-0.4-4.15-0.62c-2.62-8.8-9.41-13.53-16.56-17.84c-2.71-1.63-5.61-2.97-8.47-4.33
		c-7.88-3.74-16.1-3.72-24.3-1.55c-7.61,2.02-12.68,7.22-15.37,14.5c-3.06,8.29-4.37,16.98-4.88,25.79
		c-0.27,4.61,1.32,8.66,3.78,12.38c1.66,2.52,3.05,5.01,2.08,8.69c-4.13,4.44-6.02,10.43-7.37,16.69
		c-1.75,8.1-3.81,16.11-4.13,24.48c-0.33,8.63,3.11,15.61,8.26,22.07c7.15,8.97,16.77,14.1,27.57,16.97
		c9.68,2.57,19.58,4.2,29.7,2.85c6.35-0.85,12.06-2.72,17.51-6.62C1478.3,1310.95,1483.26,1307.99,1487.11,1303.42z"/>
	<path d="M887.85,1372.18c-1.76-1.95-2.69-2.97-3.58-3.95c0.55-8.78,5.55-15.33,10.33-21.65c9.15-12.08,19.43-23.11,32.53-31.23
		c5.77-3.58,10.74-8.44,16.53-11.99c8.71-5.34,17.58-10.52,26.81-14.87c11.5-5.41,23.8-8.35,36.44-10.3
		c10.33-1.59,20.39-1.07,30.53,0.67c1.92,0.33,3.86,0.69,5.71,1.27c6.5,2.02,13.03,3.97,19.44,6.27c3.35,1.2,6.47,3.07,10.1,4.84
		c-0.93,2.37-1.6,4.08-2.39,6.08c0.02,0.11,0,0.61,0.18,1.04c2.34,5.61,5,11.11,6.99,16.84c2.09,5.99,0.89,12.27-0.85,18.02
		c-7.51,24.68-20.61,45.93-41.82,61.06c-11.43,8.15-24.6,12.96-39.13,12.27c-6.14-0.29-10.96-2.57-14.89-7.79
		c-9.03-11.99-10.59-25.18-8.46-39.52c1.87-12.6,7.37-23.56,13.43-34.48c3.21-5.8,6.86-11.14,11.11-16.18
		c9.63-11.43,21.66-18.72,36.3-21.71c1.09-0.22,2.12-0.7,4.04-1.34c-5.07-2.13-9.38-2.29-13.71-2.19
		c-25.55,0.57-48.7,8.62-70.35,21.95c-15.47,9.52-29.59,20.62-42.28,33.55c-7.22,7.35-12.82,15.93-18.03,24.78
		C891.34,1366.09,889.92,1368.6,887.85,1372.18z M1020.2,1300.11c-2.26,0.44-2.77,0.45-3.19,0.65c-0.65,0.31-1.25,0.74-1.86,1.14
		c-8.55,5.62-14.57,13.59-19.96,22.02c-10.15,15.85-17.1,32.74-16.38,52.11c0.34,9.23,3.79,16.92,9.35,23.58
		c13.16,2.81,35.77-4.61,42.25-13.29c-3.94-2.18-8.49-3.77-11.8-6.74c-7.59-6.8-13.26-15.51-15.06-25.39
		c-3.13-17.17-0.02-33.44,11.46-47.38C1016.51,1304.98,1017.91,1303.07,1020.2,1300.11z"/>
	<path d="M476.1,1443.37c0.51,3.16-0.88,4.77-3.34,5.18c-8.88,1.49-17.77,2.93-26.69,4.16c-7.24,1-14.58,1.28-21.76,2.57
		c-8.63,1.54-17.15,3.7-25.67,5.79c-15.64,3.83-31.16,8.06-45.81,14.95c-19.09,8.99-36.69,20.11-51.98,34.85
		c-8.08,7.79-14.46,16.47-17.56,27.25c-2.94,10.2-2.23,20.38,2.52,29.92c3.13,6.31,6.25,12.89,10.76,18.17
		c4.66,5.46,10.53,10.24,16.68,13.98c12.78,7.77,26.95,8.87,41.69,7.39c24.28-2.43,45.49-12.12,65.24-25.79
		c7.02-4.86,14.26-9.41,21.16-14.43c4.09-2.98,7.72-6.59,12.63-10.86c1.96-0.57,4.03,1.47,5.99,3.41c0.15,0.72,0.4,1.21,0.34,1.66
		c-1.26,9,3.8,14.71,10.28,19.59c7.09,5.33,15.39,7.46,24.01,7.84c13.89,0.62,27.81,0.66,41.71,1.06
		c11.78,0.34,23.34-1.3,34.83-3.67c16.07-3.33,31.38-8.67,46.16-15.94c12.25-6.03,16.52-14.36,13.4-31.05
		c-0.35-1.89-1.09-3.74-1.81-5.54c-4.97-12.3-12.07-23.41-19.75-34.13c-4.13-5.76-9.21-10.73-15.32-14.53
		c-2.96-1.84-5.68-3.95-3.91-7.99c0.77-0.28,1.31-0.69,1.64-0.56c9.1,3.47,18.16,2.35,27.3,0.11c8.56-2.09,16.99-4.46,24.71-8.85
		c8.01-4.55,14.68-10.51,19.11-18.67c4.24-7.8,3.28-14.4-2.98-20.64c-5.96-5.95-12.92-10.35-20.98-12.97
		c-3.93-1.28-7.85-2.62-11.69-3.9c-1.92-2.05-2.72-4.13-0.92-6.8c6.12-0.97,12.35-1.92,18.56-2.97
		c10.29-1.74,19.77-5.21,27.48-12.63c7.62-7.34,10.03-16.54,5.46-25.98c-8.65-17.85-21.84-30.53-42.32-33.39
		c-5.74-0.8-11.75-0.68-17.52-0.01c-9.14,1.06-18.67,1.39-26.48,7.21c-2.66,1.98-5.61,0.4-8.28,1.71c0.5-2.95,2.39-4.52,4.86-5.72
		c12.2-5.91,25.03-10.17,38.57-10c13.66,0.17,26.33,4.41,36.69,14.06c6.27,5.84,11.64,12.21,16.26,19.57
		c11.35,18.08,3.73,34.88-11.88,44.19c-6.31,3.77-12.82,7.08-20.16,8.41c-0.9,0.16-1.73,0.69-3.34,1.35
		c1.55,1.22,2.53,2.09,3.6,2.81c4.03,2.72,8.28,5.17,12.11,8.14c4.74,3.68,7.84,8.61,9.41,14.46c1.52,5.64,1.24,11.04-1.39,16.36
		c-4.71,9.53-11.85,16.76-21.36,21.2c-11.9,5.56-24.38,9.63-37.23,12.5c-0.68,0.15-1.3,0.61-1.91,0.91
		c-0.87,2.77,1.37,3.96,2.64,5.63c10.39,13.61,19.79,27.79,25.66,44.05c2.11,5.85,2.52,11.86,2.15,18.03
		c-0.4,6.56-3.09,12.05-8.55,15.39c-7.04,4.31-14.39,8.27-21.99,11.49c-13.04,5.52-26.69,9.33-40.65,11.69
		c-8.61,1.46-17.38,2.56-26.09,2.62c-14.12,0.11-28.25-0.72-42.38-1.22c-18.41-0.66-33.51-7.7-44.14-23.19
		c-0.69-1.01-1.16-2.17-1.79-3.37c-3.29,1.88-5.42,2.97-7.42,4.26c-11.25,7.27-22.2,15.06-33.77,21.77
		c-21.44,12.45-44.43,20.19-69.59,18.69c-15.14-0.91-29.1-5.94-41-15.68c-8.02-6.57-14.58-14.36-18.89-23.92
		c-7.46-16.54-8.29-33.09,0.93-49.13c4.23-7.36,9.52-14.13,16.17-19.69c18.22-15.27,37.65-28.57,59.97-37.2
		c7.03-2.72,13.96-5.83,21.56-6.78c1.19-0.15,2.31-0.74,3.49-1.06c9.4-2.57,18.78-5.21,28.2-7.68c12.52-3.28,25.29-5.15,38.14-6.53
		c1.59-0.17,3.11-0.92,4.73-2.5c-2.03-0.51-4.03-1.15-6.08-1.49c-10.38-1.71-16.28-8.58-19.48-17.8c-3.19-9.2-1.43-17.96,5.28-25.18
		c7.85-8.45,17.08-15.26,26.82-21.38c26.69-16.77,55.89-26.48,87.02-30.34c7.42-0.92,15.07-1.18,22.56,0.85
		c6.26,1.7,10.1,5.59,11.8,11.73c0.09,0.34-0.33,0.82-0.73,1.74c-1.16-0.91-2.43-1.57-3.23-2.6c-2.77-3.56-6.5-4.76-10.8-5.33
		c-9.06-1.19-18.04-0.43-26.97,0.87c-24.65,3.58-47.8,11.73-69.6,23.71c-10.26,5.64-19.71,12.44-28.1,20.66
		c-4.27,4.18-7.32,9.15-8.78,14.95c-2.14,8.51,0.42,19.34,12.31,22.23c7.09,1.72,14.3,2.98,21.49,4.22
		C471.09,1440.14,473.85,1440.73,476.1,1443.37z"/>
	<path d="M1270.75,1371.92c-9.45-3.17-17.79-2.21-26.2-0.66c-18.81,3.47-33.63,13.86-46.74,27.04c-7.57,7.6-14.66,15.68-22.03,23.48
		c-0.93,0.98-2.26,1.57-3.92,2.68c-1.17-1.91-2.09-3.44-3-4.93c4.77-7.44,10.21-13.67,16.22-19.39
		c5.82-5.53,11.84-10.85,17.74-16.31c14.83-13.74,32.6-20.24,52.56-20.85c8.68-0.27,16.93,1.76,24.21,6.96
		c2.56,1.83,5.26,3.76,8.2,4.72c11.74,3.83,17.55,12.47,20.24,23.85c0.17,0.71,0.23,1.44,0.4,2.57c-0.65,1.2-1.44,2.66-2.56,4.73
		c1.27,7.72-0.93,15.81-2.2,23.96c-0.43,2.8-1.76,5.66-3.35,8.05c-5.13,7.69-9.56,15.88-16.12,22.57
		c-11.21,11.44-24.95,15.75-40.61,14.42c-6.18-0.53-10.99-4.04-14.71-8.78c-7.33-9.34-10.06-20.34-7.96-31.71
		c2.41-13.11,6.71-25.66,14.07-37.26c5.43-8.57,11.78-15.46,20.76-19.78C1260.05,1375.2,1264.76,1374.02,1270.75,1371.92z
		 M1271.39,1459.88c-8.67-4.76-16.15-9.31-19.93-17.85c-3.69-8.33-5.78-16.91-6.19-26.09c-0.4-9.13,3.67-16.84,7.1-25.56
		c-1.31,0.59-2.05,0.7-2.42,1.12c-11.99,13.42-19.7,28.89-22.09,46.81c-0.99,7.41,0.48,14.57,3.37,21.41
		c1.76,4.17,4.37,7.59,8.75,9.01C1251.21,1469.91,1261.34,1467.74,1271.39,1459.88z"/>
	<path d="M672.96,844.54c1-3.35,2.04-6.09,2.61-8.93c1.59-7.88,3.19-15.77,4.39-23.72c0.62-4.07,0.63-8.27,0.51-12.41
		c-0.17-5.77-2.28-10.94-5.75-15.55c-5.9-7.83-13.54-10.78-23.18-8.38c-7.42,1.85-14.3,4.91-20.6,9.2
		c-14.18,9.67-27.14,20.75-38.06,34.04c-13.01,15.83-26.4,31.37-37.18,48.88c-2.81,4.55-5.11,9.42-7.65,14.14
		c-0.89,1.66-1.82,3.3-3.21,5.82c-1.08-1.9-2.31-3.04-2.2-4.06c0.24-2.37,0.73-4.88,1.81-6.98c6.57-12.82,13.99-25.09,23.58-35.97
		c5.79-6.57,11.3-13.41,16.7-20.31c12.29-15.71,26.72-29.1,43.49-39.84c5.5-3.52,11.48-6.58,17.63-8.78
		c11.4-4.09,22.22-2.93,30.93,6.45c4.9,5.28,7.89,11.67,9.34,18.75c1.55,7.55,1.11,15.1-0.33,22.55
		c-4.42,22.76-9.71,45.31-17.49,67.2c-2.77,7.81-5.28,15.73-8.32,23.44c-2.77,7.01-6,13.85-9.19,20.68
		c-4.33,9.29-11.56,16.24-19.04,22.93c-2.95,2.64-6.34,4.46-10.54,4.44c-4.62-0.02-8.12-1.93-10.1-5.99
		c-3.9-8-4.57-16.47-2.03-24.93c3.15-10.5,6.23-21.08,10.42-31.18c3.8-9.15,7.07-18.7,13.94-26.38c2.88-3.22,4.62-7.45,7.37-10.82
		c2.9-3.56,6.28-6.77,9.64-9.92c5.11-4.78,11.08-6.97,18.14-5.27C669.74,843.95,670.93,844.14,672.96,844.54z M625.94,949.35
		c-2.62-12.11-4.74-23.04-0.96-34.17c2.5-7.36,4.67-14.84,7.1-22.22c0.6-1.84,1.54-3.58,2.46-5.3c4.67-8.79,8.73-17.92,14.7-25.97
		c0.38-0.51,0.48-1.24,1.17-3.15c-1.95,1.6-3.21,2.27-3.96,3.31c-4.29,5.91-8.74,11.74-12.6,17.92
		c-9.14,14.63-13.98,31.09-18.87,47.4c-1.55,5.17-0.83,11.1-0.64,16.66c0.11,3.12,1.37,6.14,4.71,8.66
		C621.16,951.53,623.47,950.48,625.94,949.35z"/>
	<path d="M1613.33,1006.32c4.28-1.06,7.05-1.85,9.85-2.41c7.24-1.45,12.8,0.79,16.84,7.22c6.97,11.1,6.99,22.66,2.24,34.32
		c-3.03,7.43-6.81,14.57-10.51,21.7c-3.57,6.87-8.9,12.16-15.79,15.79c-9.79,5.17-21.18,0.67-24.93-9.75
		c-4.38-12.16-4.47-24.66-0.56-36.64c7.32-22.42,18.19-43.09,34.51-60.46c5.83-6.2,11.76-12.39,18.25-17.88
		c14.91-12.6,32.41-19.62,51.71-22.07c9.43-1.2,18.89-2.11,28.35-2.98c3.12-0.29,6.29-0.05,8.58-0.05c3.95,2.45,6.12,4.84,5.9,8.99
		c-3.96,0-7.76-0.16-11.53,0.04c-3.64,0.19-7.26,0.81-10.9,1.15c-13.37,1.26-26.69,2.72-39.45,7.27
		c-16.67,5.95-30.75,15.7-42.22,29.13c-6,7.02-11.67,14.33-17.43,21.55C1615.37,1002.35,1614.82,1003.72,1613.33,1006.32z
		 M1636.27,1014.16c-2.99-1.71-5.24-2.09-6.98-0.96c-0.35,4.3-0.16,8.21-1.07,11.84c-2.23,8.95-4.36,17.99-10.49,25.41
		c-1.69,2.04-3.11,4.46-4.03,6.94c-2.17,5.82-5.75,10.7-9.47,15.54c-1.11,1.44-1.87,3.15-2.87,4.89c3.06,1.09,5.23,0.15,7.48-0.88
		c6.66-3.07,11.82-7.76,15.29-14.17c3.83-7.07,7.77-14.13,11.02-21.47C1639.04,1032.54,1639.4,1023.41,1636.27,1014.16z"/>
	<path d="M1765.7,529.91c0.7-0.66,1.58-1.21,2.08-2c12.46-20.09,24.92-40.19,37.3-60.33c4.34-7.06,8.45-14.27,12.73-21.37
		c1.61-2.68,3.1-5.53,6.38-6.91c3.81,1.48,2.95,4.49,2.71,7.21c-9.76,15.94-19.4,31.76-29.11,47.53c-3.07,4.98-6.26,9.88-9.51,14.75
		c-10.18,15.25-18.58,31.45-26.4,48.01c-8.43,17.86-17.99,35.13-28.31,51.99c-8.26,13.5-16.43,27.06-24.37,40.75
		c-9.18,15.82-17.9,31.89-27.11,47.69c-6.87,11.79-14.26,23.27-21.3,34.96c-5.03,8.34-9.93,16.76-14.75,25.23
		c-8.44,14.82-17.01,29.58-25.08,44.6c-7.6,14.16-14.59,28.66-21.91,42.97c-2.77,5.43-5.7,10.78-8.59,16.14
		c-3.22,5.98-6.49,11.94-9.81,18.04c-3.46,1.28-6.02,0.01-8.17-3.19c0.22-0.81,0.29-1.82,0.74-2.62
		c5.88-10.38,12.51-20.4,17.61-31.14c11.52-24.27,24.69-47.6,38.15-70.8c8.57-14.76,16.85-29.69,25.47-44.42
		c8.25-14.1,16.83-28.01,25.17-42.06c8.59-14.46,17.08-28.99,25.59-43.5c10.24-17.45,20.81-34.72,30.59-52.43
		c10.01-18.14,19.25-36.71,28.77-55.13c0.66-1.27,0.85-2.78,1.26-4.17L1765.7,529.91z"/>
	<path d="M1765.83,529.72c-1.58,1.57-3.22,2.71-5.65,2.94c-29.41,2.79-58.36,8.52-87.41,13.62c-24.49,4.3-49.03,8.27-73.49,12.74
		c-17.01,3.11-33.89,6.93-50.88,10.22c-18.66,3.62-37.38,6.9-56.03,10.52c-16.25,3.15-32.44,6.64-48.68,9.84
		c-16.25,3.2-32.61,5.89-48.78,9.42c-23.57,5.14-47.33,9.65-70.21,17.57c-7.13,2.47-14.03,5.59-21.1,8.26
		c-2.67,1.01-5.51,1.58-8.42,2.39c-1.83-1.86-3.3-3.35-4.87-4.94c0.78-0.89,1.13-1.64,1.69-1.87c19.19-7.88,38.73-14.74,58.98-19.36
		c14.26-3.25,28.56-6.32,42.86-9.32c23.14-4.86,46.28-9.67,69.45-14.38c12.9-2.62,25.86-4.96,38.78-7.49
		c16.51-3.23,32.98-6.63,49.5-9.79c21.78-4.16,43.34-9.3,65.29-12.7c26.23-4.06,52.23-9.58,78.38-14.14
		c20.4-3.55,40.89-6.61,61.35-9.86c1.18-0.19,2.41-0.12,3.14-0.16c3.57,1.29,4.74,4,5.94,6.69L1765.83,529.72z"/>
	<path d="M577.88,773.91c-2.39-1.16-4.25-2.07-6.11-2.98c-0.76-9.55-3.68-17.89-9.06-25.98c-1.75,1.19-3.19,1.94-4.36,3
		c-5.37,4.84-9.01,10.9-11.51,17.59c-1,2.68-1.48,5.68-1.54,8.55c-0.09,4.08,2.12,6.91,6.08,8.14c1.61,0.5,3.29,0.74,5.63,1.25
		c-0.14,1.66-0.04,3.26-0.47,4.7c-0.41,1.37-1.43,2.54-2.08,3.84c-2.68,5.32-2.47,6.5,2,11.57c4.07,0.45,5.25-3.94,8.98-5.38
		c0.98,0.48,2.36,1.15,3.65,1.78c-1.93,8.36-7.62,11.92-15.14,9.74c-4.82-1.4-7.84-4.86-9.61-9.35c-1.78-4.52,0.89-8.48,2.46-12.65
		c-1.15-0.93-2.02-1.76-2.99-2.42c-6.68-4.52-8.87-12.48-5.72-20.01c3.14-7.51,7.29-14.37,12.78-20.33c2.41-2.62,5.52-4.6,8.21-6.79
		c2.98,0.52,5.35,0.92,7.12,1.23c6.41,4.91,7.75,12.25,11.49,18.71c3.37-2.98,4.94-6.55,6.76-9.85
		c8.73-15.78,17.41-31.59,25.95-47.48c5.19-9.66,9.99-19.53,15.14-29.22c7.19-13.54,14.44-27.04,21.84-40.47
		c9.41-17.07,18.99-34.05,28.49-51.07c9.4-16.83,20.15-32.79,31.08-48.65c7.86-11.41,16.97-21.99,23.14-34.54
		c0.09-0.18,0.41-0.24,1.03-0.59c0.57,0.15,1.61,0.17,2.31,0.67c0.93,0.67,1.6,1.71,2.37,2.58c-0.68,5.27-3.3,9.3-6.08,13.33
		c-12.19,17.65-25,34.92-36.25,53.15c-14.34,23.22-27.76,47.04-40.92,70.96c-11.05,20.08-21,40.75-31.72,61.01
		c-8.09,15.3-16.58,30.38-24.96,45.52c-4.84,8.74-9.8,17.42-14.75,26.09C580.42,770.82,579.41,771.89,577.88,773.91z"/>
	<path d="M1137.56,1115.45c-4.1,2.32-6.93,3.65-9.46,5.4c-10.89,7.49-20.85,16.05-29.56,26.03c-1.9,2.18-4.04,4.14-5.62,5.75
		c-3.56,0.68-5.34-0.68-7.36-3.23c15.3-16.92,32.35-31.18,52.88-42.44c4.45-12.52,9.5-25.38,18.59-36.4
		c1.99-0.93,4.18-1.94,7.58-3.52c-7.23,11.66-15.08,21.75-18.75,34.66c3.42,0.29,5.7-1.31,8.04-2.29
		c18.76-7.79,38.13-13.63,58.04-17.44c26.83-5.14,53.85-9.12,81.2-10.19c23.93-0.93,47.75,0.15,71.52,3.32
		c21.76,2.9,43.26,7.05,64.65,11.84c6.9,1.54,13.74,3.39,20.51,5.4c2.22,0.66,4.4,2.03,6.14,3.59c1.04,0.93,1.18,2.85,1.94,4.9
		c-1.63,0.15-2.68,0.59-3.38,0.26c-11.58-5.44-24.06-7.93-36.37-10.82c-17.79-4.16-35.73-7.64-53.9-9.87
		c-27.89-3.42-55.77-4.85-83.89-2.56c-19,1.54-37.79,4.25-56.48,7.6c-24.52,4.4-48.41,11.12-71.27,21.39
		c-8.05,3.61-11.42,8.62-11.06,17.47c0.47,11.48,0.83,22.81,6.08,33.39c0.69,1.39,0.41,3.27,0.5,4.2c2.84,3.19,5.23,5.88,7.73,8.71
		c-2,5.68,2.36,9.52,3.45,14.35c-7.93-9.39-12.99-20.29-16.75-31.78C1138.77,1141.55,1137.02,1129.55,1137.56,1115.45z"/>
	<path d="M1682.2,1095.55c0.39-4.18,0.68-7.26,0.93-9.95c5.58-11.17,10.4-22.42,16.68-32.81c3.95-6.54,9.89-11.94,15.27-17.53
		c3.36-3.49,7.19-6.59,11.1-9.48c3.89-2.88,7.92-5.73,12.27-7.79c11.42-5.4,23.7-7.37,36.23-7.28c8.67,0.06,13.12,3.68,15.86,12.27
		c-0.36,0.33-1.04,0.95-1.65,1.51c-16.54-8.35-31.77-3.95-46.83,2.56c-6.77,2.93-12.43,7.49-18.23,12.97
		c1.21,0.97,2.29,1.73,3.25,2.62c4.77,4.44,4.83,10.19,3.16,15.62c-2.27,7.42-5.06,14.78-8.5,21.72
		c-5.54,11.17-15.44,17.96-26.16,23.53c-4.14,2.15-7.43,1.19-10.24-2.59C1684.03,1099.18,1683.12,1097.16,1682.2,1095.55z
		 M1695.44,1093.33c8.08-4.07,15.05-9.14,19.45-17.09c6.24-11.26,9.5-20.92,9.01-27.15c-0.68,0-1.36,0-2.01,0
		C1717.26,1066.39,1706.31,1079.79,1695.44,1093.33z"/>
	<path d="M406.82,386.86c3.8,0.85,5.45,2.85,6.51,5.36c6.04,14.38,12.39,28.64,17.94,43.2c8.51,22.33,16.39,44.9,24.68,67.31
		c3.21,8.69,6.67,17.29,10.27,25.82c6.27,14.82,12.2,29.79,20.29,43.77c8.42,14.56,16.87,29.11,25.04,43.81
		c3.91,7.03,7.3,14.35,10.73,21.62c2.71,5.73,5.13,11.59,7.67,17.4c0.87,1.99,2.1,3.93,0.95,6.28c-1.71,1.62-3.68,1.52-5.18-0.01
		c-1.48-1.51-2.86-3.37-3.58-5.33c-7.54-20.44-17.62-39.58-28.42-58.48c-8.82-15.44-18.19-30.6-25.21-47.05
		c-11.39-26.7-21.63-53.83-31.39-81.15c-3.77-10.56-7.24-21.23-11.27-31.69c-3.68-9.55-7.94-18.87-11.9-28.32
		c-1.79-4.27-3.68-8.52-5.15-12.9C407.84,393.61,407.53,390.47,406.82,386.86z"/>
	<path d="M938.5,929.77c8.03-4.69,11.09-13.74,16.86-20.59c5.77-6.87,11.17-14.04,17.09-21.53c1.44,0.56,3.16,1.22,5.17,2
		c0,1.49,0.5,3.17-0.09,4.25c-2.9,5.3-5.39,10.91-10.37,14.78c-6.22,4.83-10.52,11.41-15.61,17.28
		c-6.98,8.03-11.56,17.52-16.06,26.9c-5.44,11.34-8.48,23.7-5.71,36.24c1.92,8.72,5.93,16.81,12.28,23.73
		c11.28,12.3,25.38,20.29,39.96,27.63c4.1,2.07,8.56,3.4,12.85,5.11c3.55,1.41,7.08,2.87,11.82,4.79c4.63-1.06,10.2,1.25,15.82,2.63
		c8.54,2.09,17.22,2.37,25.9,3.01c10.93,0.8,21.81,0.11,32.71-0.57c1.46-0.09,2.97,0.58,4.44,2.29c-1.77,0.37-3.55,1.06-5.32,1.05
		c-14.85-0.03-29.71-0.2-44.56-0.32c-1.22-0.01-2.71,0.4-3.61-0.15c-3.53-2.17-7.49-2.01-11.28-2.28
		c-6.45-0.46-12.18-2.97-18.04-5.29c-2.01-0.8-4.18-1.58-6.29-1.63c-4.33-0.1-7.99-1.76-11.7-3.7c-3.41-1.79-7.16-2.93-10.54-4.77
		c-11-5.96-20.94-13.37-29.61-22.44c-0.66-0.69-1.43-1.28-2.18-1.87c-0.09-0.07-0.38,0.12-1.04,0.35c3.66,5.53,9.02,9.36,14.1,15.31
		c-6.62-2.47-10.04-6.79-13.51-10.77c-5.44-6.24-10.2-13.02-13.55-20.71c-2.09-4.78-3.34-9.64-3.39-14.84
		c-0.02-1.46,0.23-3-0.14-4.37c-1.63-5.98-0.12-11.48,1.69-17.18c1.46-4.6,1.84-9.54,2.84-15.15c0.95-1.47,2.35-3.62,3.75-5.77
		c-4.44,1.13-6.24,4.97-9.09,7.63c-3.18,2.98-6.05,6.31-9.32,9.2c-3.01,2.66-6.37,4.92-10.35,6.49c1.63-1.64,3.29-3.26,4.89-4.93
		c3.52-3.69,7.25-7.22,10.44-11.17c4.61-5.7,10.75-9.59,16.38-14.7C936.79,934.04,937.6,932.02,938.5,929.77z"/>
	<path d="M1543.56,881.48c-2.13,0.26-3.36,0.8-4.23,0.46c-2.93-1.16-5.87-2.42-8.57-4.04c-5.5-3.31-11.22-3.4-16.86-1.03
		c-13.53,5.69-22.64,15.85-27.94,29.36c-2.62,6.69-1.48,13.45,1.43,19.88c2.16,4.75,5.69,7.86,11.09,8.39
		c2.42,0.24,4.84,0.45,7.27,0.65c2.59,0.21,4.8,0.9,5.28,3.45c-3.61,5.32-7.23,10.15-10.32,15.31c-5.06,8.45-3.95,17.31-0.78,26.07
		c3.57,9.85,11.1,15.1,20.99,17.36c2.58,0.59,5.41,0.53,6.9,3.26c-0.04,0.53,0.1,1.16-0.14,1.44c-0.77,0.89-1.69,1.65-2.74,2.62
		c-14.73-2.61-28.1-6.89-33.84-22.77c-5.26-14.55-3.42-27.8,7.75-39.47c-1.23-0.89-1.89-1.72-2.71-1.91
		c-21.18-4.97-23.12-29.22-15.13-41.9c5.06-8.04,10.78-15.72,19.02-20.95c2.87-1.82,5.77-3.72,8.89-5.02
		C1521.44,867.43,1533.24,870.24,1543.56,881.48z"/>
	<path d="M1441.17,789.36c6.26,3.4,11.06,6.22,16.05,8.66c6.87,3.36,13.32,2.15,19.01-2.75c3.5-3.02,6.77-6.32,10.06-9.58
		c4.12-4.09,5.89-13.68,1.37-19.67c-2.2-2.91-4.55-5.74-7.12-8.32c-3.12-3.12-7.13-2.81-11.02-1.91c-2.1,0.49-4.08,1.51-5.78,2.16
		c-3.34-0.48-4.55-2.25-4.5-4.85c1.74-4.52,5.74-4.45,9.21-5.28c4.05-0.97,8.1-0.27,11.13,2.3c10.38,8.82,18.19,19.21,16.9,33.83
		c-0.27,3.01-1.36,6.47-3.27,8.7c-3.94,4.59-8.55,8.65-13.14,12.63c-3.72,3.24-8.39,3.97-13.12,3.07
		c-9.67-1.84-17.81-6.48-24.11-14.11C1442.04,793.3,1441.95,791.77,1441.17,789.36z"/>
	<path d="M1262.56,983c1.43,1.85,2.43,3.14,3.18,4.11c-0.2,3.29-2.06,4.84-4.15,6.18c-10.45,6.71-20.44,14.07-31.58,19.78
		c-8.63,4.43-16.58,10.18-24.76,15.47c-3.85,2.49-7.44,5.39-11.31,7.85c-1.98,1.26-4.32,1.97-6.98,3.15
		c0.43-1.66,0.69-2.7,1.09-4.24c-4.52-0.98-7.81,2-11.43,3.37c-3.79,1.43-7.42,3.31-11.83,2.6c2.14-0.75,4.31-1.41,6.41-2.25
		c5.4-2.16,10.81-4.28,16.12-6.64c2.66-1.18,5.36-2.52,7.6-4.33c5.07-4.1,11.8-5.98,15.64-11.69c7.45-2.32,12.46-8.33,18.77-12.34
		c5.74-3.65,11.93-6.59,17.72-10.18c3.91-2.43,7.43-5.47,11.16-8.18C1259.34,984.82,1260.62,984.16,1262.56,983z"/>
	<path d="M829.79,1122.03c-2.2-0.91-3.9-1.61-5.47-2.26c-0.25-1.09-0.71-1.88-0.52-2.47c1.4-4.38,2.42-8.99,4.53-13.01
		c4.87-9.26,10.41-18.17,15.46-27.35c3.51-6.4,6.47-13.1,9.99-19.49c5.28-9.57,10.83-18.98,16.31-28.44
		c0.31-0.54,1.02-0.84,2.78-2.22c-4.38,13.1-12.79,22.58-17.17,33.78c0.46,1.7,0.84,3.09,1.23,4.52
		C848.72,1084.12,837.18,1101.52,829.79,1122.03z"/>
	<path d="M1444.99,773.05c3.42-3.03,7.84-0.28,12.23-0.95c1.23,1.65,2.36,3.16,3.76,5.02c-1.38,1.55-2.59,2.91-3.34,3.74
		c-8.54-2.03-16.24-4.29-24.1-5.63c-14.17-2.42-28.42-4.43-42.67-6.35c-29.8-4.02-59.76-5.03-89.79-4.32
		c-2.43,0.06-4.85,0.5-7.28,0.6c-1.34,0.06-2.7-0.23-4.19-1.51c1.23-0.34,2.45-0.94,3.68-0.97c20.93-0.47,41.87-1.2,62.77,0.32
		c15.29,1.11,30.56,2.56,45.82,4.11c6.76,0.69,13.44,2.05,20.17,2.99C1429.52,771.13,1436.99,772.03,1444.99,773.05z"/>
	<path d="M210.64,710.85c-4.96,0.34-6.53-1.94-7.99-5.5c1.66-4.02,3.31-8.59,5.38-12.95c5.76-12.1,11.4-24.23,13.77-37.4
		c5.72-1.21,8.59,0.88,8.09,5.71c-0.15,1.43-0.59,2.88-1.14,4.22c-3.91,9.44-7.92,18.85-11.84,28.29c-1.29,3.11-2.41,6.3-3.55,9.48
		C212.42,705.38,211.56,708.11,210.64,710.85z"/>
	<path d="M357.87,1331.99c-0.55,0.58-1.1,1.15-1.65,1.73c-9.83,4.63-18.44,11.62-29.22,14.69c0.27,1.18,0.46,2.04,0.69,3.06
		c-3.43,1.68-6.89,3.38-10.54,5.17c-1.62-2.79-3-5.18-4.28-7.39c0.2-0.53,0.22-0.87,0.38-0.95c8.19-4.14,13.69-11.49,20.48-17.29
		c3.78-3.23,3.65-3.38,9.19-4.72c3.08-8.1,11.04-11.46,17.65-16.21c2.16-1.55,4.46-0.43,7.1,2.96c-2.93-0.63-4.39-0.95-6.39-1.38
		c-0.34,1.84-0.67,3.66-1.15,6.26c-0.78-1.53-1.1-2.16-1.42-2.79c-0.23-0.01-0.52-0.12-0.68-0.02c-5.75,3.72-11.56,7.68-14.94,13.61
		c-1.86,3.26-4.2,5.71-6.64,8.29c-0.44,0.46-0.63,1.15-1.37,2.54c5.11-0.65,8.9-2.5,12.6-4.79
		C350.76,1332.84,353.93,1330.91,357.87,1331.99z"/>
	<path d="M1458.05,1117.14c-7.94-4.34-9.24-6.46-8.38-14.04c1.11,0.58,2.27,0.86,2.94,1.59c1.42,1.55,2.59,3.34,3.89,5.06
		c9.56-2.16,13.77-8.36,16.18-17.22c-2.78-0.17-5.06-0.3-8.1-0.49c-0.83-1.39-1.86-3.11-3.04-5.07c5.2-3.52,9.77-3.15,14.14-0.32
		c2.79,1.81,4.74,4.73,4.05,8.08c-1.44,6.98-3.94,13.61-9.7,18.36C1466.75,1115.81,1462.96,1117.37,1458.05,1117.14z"/>
	<path d="M273.74,566.42c-3.99-0.16-4.88-2.86-5.85-5.98c8.85-12.65,21.03-21.95,31.59-32.47c3.54,0.19,5.43,1.61,5.81,5.59
		c-4.31,5.86-10.9,10.15-16.16,15.71C283.84,554.86,278.82,560.73,273.74,566.42z"/>
	<path d="M238.93,563.24c1.7-6.32,3.68-11.87,4.58-17.59c0.94-5.98,1.19-12.12,1.09-18.18c-0.1-5.74-1.06-11.47-1.69-17.6
		c4.55,0.35,6.06,3.59,7.82,5.51c1.1,18.56,1.95,36.51-5.46,53.82C241.02,569.57,240.61,565.95,238.93,563.24z"/>
	<path d="M247.31,656.02c6.74,1.13,7.83,2.06,8.47,7.23c0.71,5.76,1.16,11.56,1.79,17.34c0.29,2.63,0.74,5.24,1.15,8.15
		c-0.79,0.75-1.62,1.53-2.31,2.18c-3.5-0.17-4.87-2.54-6.69-5.04C248.95,676.42,248.16,666.6,247.31,656.02z"/>
	<path d="M172.85,617.15c0.18-2.29,1.62-3.45,3.74-3.71c8.58-1.06,16.91-0.01,24.83,3.5c1.97,0.87,3.73,2.28,2.96,5.69
		c-2.05-0.27-4.14-0.37-6.15-0.84c-6.61-1.55-13.22-2.9-20.08-2.05C175.92,620.02,173.71,619.9,172.85,617.15z"/>
	<path d="M1216.9,773.47c1.64-2.39,2.54-3.7,3.54-5.16c0.76,0.93,1.35,1.65,2.14,2.61c4.59-0.71,9.49-0.75,13.43-3.92
		c5.73,0.82,11.16-0.07,16.67-1.03c5.25-0.92,10.64-1.4,15.96-1.36c5.42,0.04,10.73-2.42,16.23-0.47
		c-5.26,2.59-11.07,1.8-16.58,2.72c-5.49,0.92-11.12,1.01-16.67,1.67c-5.77,0.69-11.51,1.64-17.26,2.47
		C1228.95,771.76,1223.52,772.53,1216.9,773.47z"/>
	<path d="M304.53,587.65c12-1.58,17.14-1.38,22.22,1.05c-0.91,0.89-1.54,2-2.45,2.33c-3.63,1.33-7.27,2.84-11.05,3.48
		C308.35,595.34,306.51,593.66,304.53,587.65z"/>
	<path d="M1114.24,1056.54c1.06-0.47,2.09-1.21,3.2-1.38c13.62-2.02,26.2-8.14,39.8-10.23
		C1143.52,1050.94,1129.3,1055.14,1114.24,1056.54z"/>
	<path d="M1119.02,1051.44c-3.85,0.86-7.68,2.35-11.55,2.44c-5.74,0.13-10.88,4.11-17.36,2.62
		C1099.92,1051.41,1109,1049.68,1119.02,1051.44z"/>
	<path d="M1172.95,784.28c5.6-4.04,12.04-5.43,18.99-5.74c-1.01,0.6-1.94,1.46-3.03,1.75
		C1183.61,781.71,1178.27,782.97,1172.95,784.28z"/>
	<path d="M1073.52,1063.45c-10.15,0.66-20.3,1.92-30.52,0c1.79,0,3.57,0,5.36,0C1056.75,1063.46,1065.13,1063.45,1073.52,1063.45z"
		/>
	<path d="M1118.3,806.27c0.42-1.28,0.63-1.91,0.99-3.01c6.62,0.1,11.1-5.73,17.58-6.59c0.1-0.01,0.24,0.35,0.63,0.94
		C1131.53,801.13,1125.41,804.09,1118.3,806.27z"/>
</g>
</svg>
