<?xml version="1.0" encoding="utf-8"?>
<!-- Generator: Adobe Illustrator 27.4.0, SVG Export Plug-In . SVG Version: 6.00 Build 0)  -->
<svg version="1.1" id="Calque_1" xmlns="http://www.w3.org/2000/svg" xmlns:xlink="http://www.w3.org/1999/xlink" x="0px" y="0px"
	 viewBox="0 0 2000 2000" style="enable-background:new 0 0 2000 2000;" xml:space="preserve">
<g>
	<path d="M526.85,1020.71c-0.7-8.02-1.27-15.27-1.98-22.5c-1.67-16.79-0.1-33.22,6.72-48.73c6.9-15.72,16.89-29.04,32.27-37.65
		c11.93-6.68,24.69-7.98,37.96-6.12c3.44,0.48,6.86,1.13,10.5,1.74c0.49-1.18,1.01-2.04,1.22-2.97c3.3-14.69,13.6-22.09,27.37-24.57
		c12.12-2.18,24.43-2.17,36.55,1.39c10.84,3.18,19.87,9.42,28.69,16.04c5.15,3.86,8.14,9.48,10.94,15.15
		c0.77,1.56,1.48,3.15,2.33,4.95c4.57-3.03,8.7-6.23,13.25-8.63c3.71-1.96,7.81-3.49,11.92-4.29c10.17-1.98,20.49-1.85,30.79-0.83
		c26.53,2.63,51.72,10.14,75.59,21.77c13.97,6.8,27.92,13.91,40.91,22.38c11.77,7.67,23.63,15.2,35.41,22.86
		c8.19,5.33,15.74,11.65,23.47,17.65c11.93,9.25,23.28,19.18,33.26,30.54c5.29,6.02,10.09,12.46,15.1,18.72
		c3.29,4.11,6.62,8.19,9.8,12.38c6.98,9.19,14.03,18.34,20.75,27.72c4.38,6.12,8.29,12.58,12.3,18.96c1.33,2.11,2.75,4.32,3.42,6.68
		c2.55,8.93,5.03,17.89,7.12,26.93c1.46,6.33,0.6,7.65-5.88,12.39c-2.94-0.5-6.53-1.11-9.45-1.61c-2.21-4.43-3.97-7.94-6.14-12.3
		c-0.01,0.03-0.02-1.02,0.41-1.86c0.43-0.84,1.29-1.45,2.08-2.3c2.25,0.36,4.42,0.7,7.33,1.16c0-1.9,0.21-3.56-0.03-5.15
		c-1.38-9.17-6.15-16.95-10.62-24.78c-9.12-16-21.11-29.94-32.4-44.39c-8.54-10.93-17.67-21.24-27.92-30.54
		c-8.93-8.1-17.99-16.05-27.08-23.96c-6.99-6.09-13.88-12.33-21.26-17.92c-5.58-4.23-11.87-7.52-17.82-11.26
		c-2.97-1.87-6.07-3.61-8.8-5.79c-7.11-5.69-14.92-10.21-23.06-14.2c-15.34-7.51-30.46-15.5-46.64-21.14
		c-9.24-3.22-18.5-6.45-27.89-9.2c-7.93-2.32-15.38,0.1-22.51,3.63c-2.02,1-3.91,2.37-6.02,3.08c-1.12,0.38-2.59-0.3-3.84-0.49
		c-0.7-4.77,3.59-6.2,4.94-9.23c-0.44-0.43-0.76-1.01-1.14-1.06c-12.4-1.49-24.62-1.45-35.78,5.26c-7.28,4.38-8.05,6.56-6.01,14.86
		c0.35,1.44,0.61,2.91,0.97,4.63c1.78,0,3.48,0.08,5.18-0.01c11.34-0.59,22.69-0.86,33.53,3.16c5.62,2.09,11.23,4.44,16.42,7.41
		c7.17,4.09,14.26,8.47,20.83,13.47c8.07,6.14,14.45,13.89,18.71,23.27c2.65,5.83,2.34,11.78,1.08,17.72
		c-0.43,2.05-2.13,3.83-3.28,5.77c-2.66,0-4.85,0-7.16,0c-2.08-1.96-4.07-3.83-6.48-6.1c0.17-2.54,0.34-5.22,0.52-7.96
		c1.73-0.94,3.18-1.72,5.13-2.77c-8.93-17.7-22-30.67-39.57-39.01c-12.18-5.79-31.81-7.98-40.75-4.61c0.7,1.49,1.12,3.15,2.11,4.32
		c5.43,6.37,9.65,13.45,13.17,21.01c5.78,12.41,8.23,25.19,5.12,38.8c-1.05,4.59-0.62,9.65-5.29,13.26c-1.53,0-3.44,0-5.28,0
		c-0.23,0.67-0.64,1.21-0.51,1.55c2.1,5.57,5.79,10.11,8.53,15.27c0.48-0.2,0.95-0.41,1.43-0.61c0.13-2.89,0.26-5.77,0.38-8.64
		c1.66-1.73,3.26-3.31,4.74-4.98c5.69-6.44,13.14-8.5,21.15-7.16c7.11,1.19,14.29,3.02,20.9,5.84c17.5,7.45,32.93,18.05,45.98,32.08
		c7.9,8.5,15.3,17.31,21.14,27.37c2.58,4.44,4.74,8.93,3,13.72c2.7,8.21,9.45,14.68,6.91,23.65c-2.13,3.38-4.88,5.26-9.12,5.18
		c-8.41-2.14-11.4-10.39-17.15-16c0.41-1.33,0.76-2.45,1.33-4.32c3.74,2.41,7.04,4.54,11.24,7.26c-0.37-2.12-0.32-3.49-0.86-4.56
		c-2.43-4.85-6.09-8.57-10.88-10.76c-0.89-2.49-1.65-4.6-2.64-7.38c-13.94-12.45-26.9-26.97-43.74-36.92
		c-3.88-2.29-7.99-4.19-12-6.27c-2.43-1.26-4.99-2.31-7.25-3.81c-2.85-1.89-5.75-2.93-9.88-2.17c1.35,1.34,2.2,2.5,3.33,3.27
		c21.12,14.31,39.85,31.34,57.17,49.98c2.22,2.39,4.14,5.05,6.1,7.66c12.84,17.13,24.73,34.83,32.25,55.08
		c0.51,1.36,1.34,2.6,2.11,4.08c1.44-0.16,2.7-0.14,3.87-0.45c5.8-1.55,11.51-0.8,17.1,0.86c12.09,3.6,23.48,8.88,34.43,15.11
		c15.56,8.84,29.8,19.46,43.36,31.14c7.81,6.73,14.58,14.39,21.84,21.6c6.11,6.08,10.68,13.25,15.89,19.97
		c4.45,5.74,9.34,11.17,14.3,16.48c10.4,11.12,18.59,23.69,25.09,37.4c4.35,9.17,6.57,19.01,7.94,28.97
		c1.47,10.7-5.02,22.01-14.64,26.75c-6.11,3.01-10.45,1.11-12.62-6.09c1.52-0.51,3.03-1.27,4.61-1.51
		c7.66-1.14,9.77-3.28,11.13-12.05c-4.73,0.69-9.17-0.16-12.55-3.5c-3.08-3.06-7.78-4.88-8.54-10.49
		c6.69-3.66,10.92,3.46,16.59,3.79c1.69-2.56,0.45-5.01-0.36-7.22c-6.01-16.31-13.27-32.04-23-46.5c-2.79-4.15-6.31-7.82-9.65-11.57
		c-5.67-6.37-11.22-12.87-17.26-18.88c-13.87-13.83-30.1-24.19-48.26-31.53c-8.28-3.35-16.8-5.08-25.77-4.23
		c-5.48,0.52-10.07,2.75-14.03,6.56c-5.14,4.94-8.59,11-12.18,16.87c0.58,0.68,0.84,1.29,1.24,1.4c14,3.95,22.84,14.34,30.66,25.48
		c14.11,20.09,20.09,42.55,17.09,67.07c-1.9,15.58-8.13,28.95-21.89,38.49c0.63,2.22,0.94,4.46,1.89,6.39
		c2.48,5.08,3.54,10.45,3.87,16.01c1.07,17.93,0.72,35.71-6.48,52.61c-1.37,3.21-2.88,6.5-5.01,9.22
		c-6.01,7.72-13.91,11.31-23.83,9.56c-1.18-0.21-2.39-0.3-4.4-0.55c0.25,3.38,0.12,6.39,0.75,9.23c4.37,19.57-6.94,32.28-24.4,35.57
		c-26.05,4.9-51.51,3.08-75.81-8.6c-7.56-3.63-14.32-8.37-20.67-13.7c-10.23-8.58-19.5-18.06-26.81-29.36
		c-5.41-8.36-9.23-17.24-10.28-27.22c-0.18-1.72-0.67-3.41-1.05-5.34c-3.62-2.69-7.39-5.2-10.84-8.09
		c-20.89-17.53-35.64-39.41-44.97-64.91c-3.57-9.77-4.93-19.96-2.83-30.63c2.11-1.64,4.26-3.31,6.48-5.04
		c0.26-0.96,0.68-1.91,0.74-2.88c0.93-16.85,16.23-25.72,28.42-27.7c6.36-1.03,12.49-0.13,18.79,1.54c2.42-2.79,3.56-7.02,9.12-7.1
		c4.97,0.66,7.09,5,9.02,10.32c-1.71,0.96-3.12,1.75-4.82,2.71c0.51,1.07,0.93,2.22,1.55,3.25c3.36,5.57,6.94,11.03,10.11,16.71
		c1.86,3.32,2.59,7.06,1.57,11.58c-2.02,1.46-4.41,3.2-6.85,4.97c-3.21-0.53-6.16-1.02-9.54-1.58c-1.28-1.96-2.63-4.02-3.99-6.1
		c2.28-8.49,0.18-16.03-3.45-22.85c-7.63-5.05-15.19-6.02-23.52-4.11c-8.56,1.96-13.68,6.99-15.83,15.26
		c-0.63,2.41-0.82,4.94-1.26,7.71c-0.93,1.21-1.98,2.59-3.05,3.97c-3.37,4.36-4.96,9.23-4.23,14.76c1.23,9.32,4.02,18.21,8.77,26.25
		c5.62,9.51,11.42,18.97,18.01,27.81c8.16,10.93,18.44,19.77,30.31,26.61c2.83-0.93,5.42-1.79,8.08-2.67
		c2.38,0.95,4.69,1.87,6.93,2.77c10.14-1.85,20.56-5.33,27.9,6.42c-0.27,1.79-0.57,3.71-0.9,5.9c-9.35,6.05-19.38,6.02-30,3.82
		c-1.66,1.92-3.25,3.76-5.25,6.08c1.62,3.42,2.87,6.97,4.84,10.08c12.02,19.08,27.59,34.43,47.95,44.56
		c11.39,5.67,23.43,8.97,36.19,9.33c9.81,0.28,19.6,0.09,29.27-1.92c13.9-2.89,18.83-11.89,17.58-25.43
		c-0.46-4.97-1.8-9.83-5.57-13.56c2.16-4.31,6.08-1.95,9.28-3.29c1.63-2.77,2.82-6.77,8.4-6.78c2.17,1.09,5.05,2.53,7.99,4
		c5-0.22,8.31-2.75,10.73-7.06c4.91-8.76,6.54-18.42,7.92-28.12c1.46-10.29,0.36-20.58-0.96-30.79c-0.57-4.42-1.6-8.95-5.24-12.55
		c-1.94-0.5-4.1-1.06-6.03-1.56c-3.44-4.54-4.02-9.4-3.54-15.28c1.46-1.61,3.28-3.61,4.86-5.35c6.53-0.17,6.53-0.17,12.7,6.24
		c3.95-1.85,6.28-5.43,8.14-9.11c3.77-7.46,5.75-15.4,6.21-23.86c1.32-24.58-6.47-46.02-21.89-64.82
		c-3.78-4.61-8.48-8.47-12.15-12.07c-3.33-0.41-5.56-0.68-7.34-0.9c-5.5-3.34-2.29-9.28-5.37-13.2
		c5.29-16.54,14.68-28.59,32.42-32.27c2.66-0.55,5.49-0.67,8.21-0.5c8.58,0.52,16.89,2.33,24.76,5.96c2.22,1.03,4.58,1.75,7.61,1.75
		c-0.45-0.62-0.78-1.39-1.36-1.84c-19.61-15.16-40.5-27.93-64.76-34.35c-4.6-1.22-9.2-2.11-14.3,0.65
		c4.41,17.15,7.21,34.35,2.18,52.95c2.57,6.04,2.5,13.55,2.22,21.09c-0.29,7.94-3.74,14.65-9.06,20.17
		c-5.24,5.43-12.49,6.08-19.61,5.92c-3.98-0.09-7.94-0.96-12.57-1.56c0.64,6.79,1.22,13.35,2.77,19.56
		c-5.48,12.28-13.81,16.63-26.39,15.33c-19.93-2.05-36-11.95-51.08-24.01c-13.66-10.91-25.21-23.77-34.44-38.66
		c-1.46-2.36-2.77-4.85-6.59-5.55c-2.39,1.09-5.32,2.42-8.31,3.78c-2.25-0.29-4.48-0.57-6.71-0.86c0,0.21,0,0.43,0,0.64
		c-3.43,0.11-6.98,0.85-10.25,0.17c-3.32-0.69-6.36-2.76-9.75-4.33c-1.35,2.11-2.44,4.06-3.77,5.82c-3.9,5.16-7.96,6.67-13.79,3.95
		c-5.64-2.64-10.83-6.24-16.18-9.48c-1.46-0.89-2.78-2.01-5.21-3.8c0.7,2.76,1,4.38,1.53,5.91c2.85,8.37,2.63,16.78,0.35,25.21
		c-2.38,8.81-6.11,16.8-11.98,24.05c-9.09,11.23-23.76,13.91-36.14,9.07c-16.48-6.44-30.26-16.71-41.36-31.34
		c-5.33-1.45-11.1-3.11-16.92-4.59c-17.44-4.43-31.71-13.74-42.72-27.92c-9.5-12.24-14.53-26.24-15.74-41.66
		c-0.55-7.03,1.95-12.74,7.46-18c1.98-0.11,4.39-0.24,7.1-0.38c0.51,2.14,0.89,3.74,1.36,5.71c-2.26,1.04-4.23,1.95-5.99,2.76
		c-2.21,2.82-2.12,5.8-1.79,8.85c3.59,33,29.79,54.35,56.05,60.98c0.69,0.17,1.48-0.07,2.14-0.12c4.6-5.24,4.6-5.24,9.5-5.88
		c1.41,2.55,3.09,5.29,4.48,8.16c8.93,18.41,24.02,29.02,43.21,34.75c8.9,2.65,16.59,0.9,22.68-5.83
		c9.22-10.19,13.88-22.1,10.81-36.01c-0.79-3.58-2.81-6.88-4.42-10.68c0.61-1.07,1.27-2.39,2.1-3.59c0.69-1.01,1.59-1.88,2.49-2.93
		c-2.2-3.42-4.31-6.72-6.24-9.73c2.31-4.56,2.31-4.56,6.67-6c3.8,1.93,6.2,5.51,9.01,8.68c6.46,7.28,14.39,12.3,23.41,15.6
		c4.52-2.38,3.33-5.96,2.97-9.6c-2.59-2.93-5.35-5.84-7.88-8.94c-6.3-7.68-10.48-16.51-13.56-25.89c-5.68-17.3-9.8-34.91-8.36-53.25
		c1.27-16.19,8.86-28.57,23.93-35.64c2.45-1.15,5.19-1.68,7.77-2.49c-1.4-8.12-7.45-17.6-15.31-23.81
		c-1.57,1.31-3.22,2.68-5.27,4.39c-1.76,0.3-3.98,0.67-5.9,0.99c-3.49-0.63-6.03-2.25-7.4-5.14c-2.14-4.52-4.47-9.04-5.88-13.81
		c-2.58-8.75-3.43-17.76-1.55-26.83c2.84-13.74,14.19-24.06,28.1-25.79c4.8-0.6,8.92,0.51,12.51,3.77c1.4,1.27,3.03,2.3,4.98,3.75
		c1.29-5.42-0.42-9.25-3.86-12.07c-3.46-2.83-4.72-6.15-4.78-10.48c-0.04-2.95-0.94-5.9-1.64-8.81c-0.89-3.66-2.31-7.21-2.89-10.91
		c-1.18-7.53,0.98-13.91,7.49-18.42c1.03-0.72,1.98-1.68,3.12-2.09c7.71-2.77,13.7-8.11,20.16-12.86
		c4.56-3.35,10.01-5.48,15.55-8.42c-1.12-1.65-2.31-3.39-3.56-5.23c-2.78,0-5.25,0-7.11,0c-3.6-2-2.99-5.02-3.6-7.64
		c1.13-2.07,2.19-4.03,3.31-6.09c-2.5-9.41-8.8-16.02-16.59-20.65c-6.83-4.06-14.56-6.73-22.1-9.41
		c-11.51-4.09-23.27-2.75-34.83-0.09c-8.82,2.03-17.25,10.84-15.83,21.03c1.53,1.22,3.61,2.88,5.57,4.45
		c2.66-0.33,4.87-0.61,6.86-0.86c7.09,7.07,7.1,18.3-0.13,27.01c-2.7,0.43-5.87,0.95-9.26,1.49c-0.92-1.49-1.65-2.68-2.61-4.22
		c2.03-2.41,3.91-4.65,5.98-7.12c-0.76-1.06-1.32-2.19-2.19-2.99c-2.56-2.37-5.18-4.69-7.9-6.88c-1.54-1.24-3.19-2.57-5.02-3.2
		c-17.74-6.15-35.17-6.5-51.15,4.73c-11.53,8.1-19.94,19-25.07,32.26c-5.29,13.65-6.45,27.78-4.96,42.24
		c0.67,6.5,1.15,13.01,1.8,19.51c0.14,1.38,0.67,2.73,1.39,5.52c1.63-3.99,2.7-6.59,3.9-9.51c2.04-0.28,3.92-0.53,6.45-0.87
		c1.25,4.11,2.39,7.85,3.63,11.91c1.56,1.23,3.31,2.62,5.26,4.15c1.05,2.52,1.34,5.32-0.55,7.64c-1.14,1.39-3.08,2.11-4.61,3.09
		c-2.46-1.59-4.32-2.8-6.46-4.18c-3.28,1.29-5.5,5.36-10.78,4.23c-1.19-1.88-2.76-4.34-4.33-6.8c-19.07-4.77-32.48,6.71-38.32,21.01
		c-3.74,9.17-4.11,18.59-3.37,28.14c0.66,8.5,1.54,17.03,3.05,25.42c1.52,8.44,4.17,16.68,10.74,22.78
		c5.93,5.51,12.85,8.64,21.26,7.31c3.27-4.66,5.23-10.93,12.48-9.69c2.21,2.12,2.16,4.43,1.31,6.56
		c-2.23,5.61-6.22,9.65-11.69,12.22c-14.18,3.77-30.02-7.49-35.7-19.49c-1.29-2.72-2.57-5.52-3.24-8.42
		c-4.1-17.68-6.58-35.55-4.93-53.76c1.19-13.04,6.57-24.14,16.02-33.18c6.45-6.17,14.43-8.94,23.16-9.79
		C520.67,1020.97,523.4,1020.91,526.85,1020.71z M760.73,1051.08c-0.05,0.23-0.1,0.46-0.16,0.69c-9.19-0.82-18.49-1.06-27.55-2.64
		c-7.27-1.26-13.68-4.77-17.12-12.19c-1.34-2.9-3.58-5.41-5.56-7.98c-5.08-6.57-10.01-13.22-12.78-21.19
		c-0.47-1.35-1.15-2.63-1.95-4.41c-2.06,3.48-0.15,5.76,0.75,8.19c3.49,9.35,0.67,19.62-7.74,26.16c-2.04-0.51-4.67-1.03-7.22-1.82
		c-5.42-1.68-8.01-6.46-10.79-10.56c-11.05,0.93-17.67,6.86-19.05,17.18c-1.26,9.38,0.39,18.52,3.17,27.47
		c0.26,0.84,1.28,1.44,2.05,2.26c1.33-0.31,2.6-0.42,3.72-0.89c5.81-2.44,10.72-0.84,15.35,2.98c5.93,4.89,10.35,10.71,13.3,17.93
		c3.88,9.5,6.28,19.61,11.73,28.48c0.75,1.22,0.84,2.84,1.29,4.44c-1.18,1.96-2.33,3.86-3.3,5.48c-7.12,2.8-12.42-2.45-18.02-2.64
		c-3.75-2.74-4.35-6.37-4.58-11.39c-2.69,2.55-4.65,4.06-6.18,5.92c-6.01,7.31-8.57,15.89-8.3,25.21
		c0.33,11.58,1.66,23.11,4.83,34.26c2.88,10.13,6.15,20.2,12.47,28.92c2.24,3.09,4.43,6.09,8.65,6.41
		c2.23,5.78,5.29,10.55,10.51,12.81c3.65-0.67,6.78-1.25,9.99-1.84c1.84,2.04,3.34,3.7,4.82,5.37c1.75,1.98,3.64,3.21,6.4,1.63
		c-7.06-11.77-7.09-12.73-0.73-19.2c4.19-1.58,7.77-0.05,11.42,2.59c1.07,1.65,2.3,3.53,3.38,5.2c2.05,0.99,3.83,1.85,6.1,2.95
		c0.34,2.07,0.61,4.26,1.07,6.41c0.46,2.17,0.65,4.57,1.74,6.42c3.06,5.18,6.2,10.37,9.88,15.11c10.88,14.04,24.21,25.4,39.16,34.97
		c7.75,4.96,16.19,7.98,25.09,9.72c3.15,0.62,6.52,0.53,9.74,0.23c2.74-0.25,5.31-1.38,5.82-4.62c-2.34-2.47-4.51-4.77-6.52-6.91
		c1.24-4.32,3.06-7.06,7.35-7.83c1.98,0.83,4.1,1.72,6.38,2.68c0.85-4.08-0.39-6.55-3.19-8.31c-13.88-0.86-18.44-3.27-19.18-10.55
		c0.66-1.43,1.49-3.22,1.97-4.26c2.89-2.15,5.08-3.79,7.28-5.41c3.28-2.42,6.68-3.44,10.64-0.71c0.57,0.8,1.5,1.72,2,2.85
		c2.01,4.59,5.9,6.76,10.37,7.99c3.13,0.87,6.37,1.58,9.6,1.83c6.3,0.48,11.15-2.82,13.48-8.72c2.71-6.86,2.1-13.75,0.68-19.57
		c-2.6-3.1-4.47-5.34-5.46-6.52c0-5.67,0-9.87,0-14.14c1.88-2.18,3.66-4.24,5.59-6.47c0.15-1.63,0.55-3.38,0.42-5.1
		c-0.39-5-0.64-10.06-1.59-14.97c-2.43-12.63-6.71-24.71-12.06-36.38c-10.35-22.57-24.18-42.74-41.26-60.83
		c-14.47-15.33-31.55-27.13-49.16-38.32C766.73,1053.71,763.65,1052.52,760.73,1051.08z M715.28,950.29
		c-2.62,1.72-5.3,3.47-8.14,5.32c0.55,5.14-3.08,7.81-5.74,10.68c-4.61,13.96,0.73,36.37,12.31,52.02c1.96,0.65,4.06,1.35,6.89,2.3
		c0.99,2.71,2.1,5.71,3.19,8.7c0.5,1.38,0.85,2.83,1.52,4.12c0.26,0.5,1.22,0.64,2.28,1.15c1.45-1.66,2.87-3.28,4.32-4.94
		c-2.4-7.27,0.26-11.82,6.67-14.93c2.6-1.26,4.66-3.64,6.55-5.18c2.44-8.63,0.54-16.23-2.2-23.49
		C737.54,971.74,729.81,958.99,715.28,950.29z M783.73,1034.35c6.5,5.18,13.59,6.99,19.46,10.81c6.28,4.09,12.69,8.01,18.84,12.29
		c5.84,4.07,11.43,8.51,18.21,13.6C830.56,1054.8,797.82,1033.34,783.73,1034.35z M692.37,966.97c-5.62,1.89-8.36,5.07-8,9.89
		c0.44,6,1.74,11.92,4.74,17.24c0.58,1.03,2.09,1.53,3.26,2.33C692.37,986.47,692.37,977.06,692.37,966.97z"/>
	<path d="M1596.52,744.08c3.6-9.04,10.52-8.06,17.21-8.27c7.37,3.46,13.98,8.31,19.76,14.48c3.06-2.13,5.33-5.48,9.8-3.65
		c0.75,1.18,1.66,2.62,2.56,4.03c0.9,0.1,1.66,0.36,2.37,0.24c8.95-1.47,14.92-6.3,17.98-15.05c3.37-9.66,4.62-19.41,3.71-29.62
		c-1.41-15.88-5.02-31.23-10.66-46.07c-7.28-19.16-17.48-36.69-31.11-52.08c-2.15-2.43-4.75-4.47-7.21-6.61
		c-0.5-0.43-1.31-0.5-2.72-0.99c0.37,2.63,0.74,4.74,0.96,6.87c0.82,7.84,0.9,15.46-3.94,22.44c-8.35,12.05-26.33,16.41-38.93,9.02
		c-1.91-1.12-3.64-2.71-5.1-4.38c-2.69-3.07-2.63-4.56-0.36-9.57c3.75-1.44,6.67,0.22,9.53,2.55c4.38,3.57,9.2,6.05,15.08,5.95
		c7.23-0.12,13.2-4.73,14.27-11.87c1.34-8.85,0.21-17.63-3.18-25.87c-1.15-2.78-4.04-4.84-6.76-7.95c0.8-9.48-6.07-16.6-11.37-24.43
		c-7.38-10.92-16.68-20.02-26.95-28.15c-7.67-6.07-23.54-13.13-37.6-9.61c-2.69,1.6-3.37,4.03-2.61,7.05
		c0.67,2.68,1.53,5.38-0.45,8.07c-1.93,1.29-3.68,0.62-5.22-0.98c-5-5.18-4.56-12.61,1.11-17.22c7.06-5.74,15.31-7.39,24.07-6.12
		c8.27,1.2,16.01,4.13,23.15,8.56c1.68,1.04,3.41,2.03,5.14,3.05c1.62-0.53,3.1-0.85,4.43-1.49c4.04-1.97,8.36-2.18,12.54-1.31
		c9.09,1.9,17.89,4.6,26.13,9.22c10.99,6.17,21.48,13.06,31.19,21c6.79,5.55,13.07,11.77,19.14,18.12
		c12.74,13.35,23.46,28.2,30.72,45.27c2.74,6.44,5.17,13.13,6.72,19.94c2.2,9.68,1.29,19.03-6.32,26.6
		c-0.68,0.67-1.04,1.67-1.74,2.85c2.82,4.08,5.54,8.24,8.49,12.23c7.33,9.92,13.78,20.37,19.13,31.49
		c7.12,14.79,11.82,30.36,15.69,46.26c3.17,13.05,4.14,26.32,4.14,39.61c0,7.19-1.42,14.48-3.01,21.54
		c-1.33,5.91-4.37,11.23-9.3,15.16c-1.38,1.1-2.71,2.24-4.2,3.47c-0.3,5.81-0.72,11.29-0.83,16.78c-0.21,10.61-1.4,21.05-4.64,31.19
		c-4.94,15.45-14.34,27.49-28.19,35.92c-6.61,4.02-13.76,6.02-21.6,4.42c-0.93-0.19-1.96,0.11-3.59,0.23
		c-0.05,1.73-0.28,3.37-0.1,4.97c0.66,5.98,2,11.94,2.02,17.92c0.02,4.65-1.19,9.41-2.47,13.94c-2.77,9.85-14.61,18.64-27.25,16.75
		c-2.98-0.45-5.96-0.96-8.89-1.63c-1.18-0.27-2.24-1.05-3.12-1.49c-2.15-3.01-2.16-5.82-0.38-9.02c2.93-2.17,6.34-3.36,10.52-2.57
		c1.29,1.7,2.63,3.46,4.06,5.35c2.81,0,5.51,0,8.39,0c6.9-6.1,8.87-14.12,8.24-22.53c-0.58-7.71-2.13-15.44-4.08-22.94
		c-2.66-10.22-7-19.83-11.94-29.21c-10-18.97-21.55-36.85-35.98-52.77c-3.2-3.53-6.32-7.21-9.93-10.29
		c-2.79-2.38-6.29-3.93-9.58-5.91c-0.11-5.36-0.11-5.36,8.25-8.09c4.39,0.87,8.06,3.51,11.09,6.91c6.51,7.3,12.83,14.77,19.21,22.19
		c1.78,2.07,3.48,4.21,5.38,6.5c2.5-1.34,4.67-2.5,7.28-3.9c1.28,0.28,2.92,0.64,4.69,1.03c0.76,2.02,1.44,3.82,2.16,5.74
		c7.64,0.77,14.92,3.28,22.73,1.48c3.74-2.73,4.57-6.76,4.47-11.2c-0.23-11.18-2.72-21.91-6.67-32.32
		c-7.11-18.74-17.2-35.75-30.53-50.7c-4.32-4.85-9.41-9.03-14.3-13.34c-4.27-3.77-9.24-5.93-15.12-5.8
		C1600.47,745.47,1598.86,744.68,1596.52,744.08z M1663.72,913.93c8.13,4.11,15.47,5.14,23-0.33c9.49-6.9,16.38-15.77,19.42-27.01
		c2.35-8.68,3.63-17.69,4.85-26.62c0.67-4.89,0.84-9.95-0.21-14.74c-3.98-0.74-7.58-1.4-11.07-2.05c-3.49-6.3-3.84-11.81,0.12-17.1
		c3.22-1.56,6.13-2.96,9.23-4.46c-0.38-6.81-2.5-13.55,0.58-19.78c-2.1-7.89-6.3-14.03-12.11-19.07c-1.72-1.49-3.89-2.34-6.4-1.12
		c-0.97,1.84-1.99,3.76-3.28,6.19c-1.97-1.22-3.56-2.2-4.87-3.01c-0.23-9.64,3.55-12.46,16-12.27c2.34,1.27,4.98,2.7,7.06,3.83
		c1.83,2.88,3.17,5.29,4.79,7.49c3.64,4.93,6.18,10.37,7.53,16.29c1.01,4.4,1.45,8.92,2.35,13.35c0.63,3.12,1.62,6.17,2.7,10.21
		c3.27-4.56,3.84-8.77,4.55-12.87c2.47-14.32,1.13-28.57-1.47-42.7c-4.27-23.16-12.23-44.99-24.11-65.4
		c-7.5-12.89-16.08-24.88-26.98-35.12c-0.83-0.78-1.85-1.34-3.68-2.65c0.39,2.51,0.47,3.97,0.87,5.34
		c1.12,3.85,2.59,7.61,3.53,11.51c3.66,15.01,5.6,30.18,1.93,45.46c-2,8.33-4.53,16.78-11.54,22.36c-4.64,3.7-10.17,6.31-15.39,9.26
		c-1.89,1.06-4.02,1.69-6.66,2.77c1.51,2.35,2.67,4.18,3.86,6.01c4.38,6.73,9.21,13.21,13.02,20.24
		c4.05,7.47,7.04,15.51,10.67,23.22c5.1,10.87,7.63,22.32,7.67,34.26c0.05,14.44-8.39,23.01-22.77,23.49
		c-1.75,0.06-3.51-0.1-5.25-0.33c-3.48-0.46-6.94-1.12-10.43-1.53c-1.36-0.16-2.77,0.17-4.53,0.3c1.54,7.68,6.91,12.71,9.9,18.97
		c3.1,6.5,6.2,13.01,8.93,18.74c3.82,1.73,7.77-1.03,9.93,3.12C1665,909.7,1664.5,911.36,1663.72,913.93z M1685.64,659.58
		c4.08-2.34,4.44-5.52,4.49-8.81c0.15-8.43-2-16.31-5.22-24.06c-9.42-22.62-23.36-41.95-41.68-58.16c-0.9-0.8-2.2-1.14-4.1-2.1
		c8.75,18.02,8.34,20.51-4.7,31.89c5.57,7.59,11.49,14.96,16.63,22.85c5.17,7.94,9.55,16.39,14.43,24.87
		c5.46,1.63,9.69,6.76,16.19,6.13C1683,654.66,1684.15,656.8,1685.64,659.58z M1626.97,556.46c-8.5-8.72-19.2-13.94-30.35-18.17
		c-5.4-2.05-11.03-4.54-18.08-2.92c3.4,5.8,8.47,9.24,12.19,13.79c3.9,4.77,6.4,10.65,11.19,14.66
		C1612.45,556.7,1612.45,556.7,1626.97,556.46z M1628.65,592.99c4.82-2.27,4.82-2.27,7.03-7.49c-2.89-12.83-13.09-20.86-24.21-19.05
		c-3.4,6.23-3.15,10.89,1.42,14.67C1617.86,585.22,1623.18,588.9,1628.65,592.99z"/>
	<path d="M320.96,1219.76c3.06,3.02,6.4,6.8,10.24,9.98c7.02,5.83,14.55,5.55,20.89-0.89c2.94-3,5.41-6.62,7.47-10.3
		c6.45-11.53,9.66-24.2,12.35-37.01c4.37-20.81,5.5-41.84,3.56-62.98c-1.98-21.5-4.3-42.97-6.78-64.42
		c-2.26-19.54-7.93-38.34-13.58-57.08c-1.86-6.17-5.43-11.83-8.34-17.66c-0.62-1.23-1.78-2.2-3.05-3.71
		c-1.64,2.53-2.91,4.65-4.34,6.65c-4.87,6.83-12.78,6.44-16.9,1.91c-5.41-5.94-10.94-11.77-16.28-17.78
		c-0.91-1.03-1.11-2.69-1.56-3.85c2.88-4.08,2.88-4.08,7.47-3.88c1.45,10.56,9.67,16.01,16.99,22.55c6.69-3.98,7.34-9.66,6.62-16.26
		c1.22-1.82,2.6-3.88,4.1-6.13c1.82-19.2,0.99-38.4-2.15-57.61c-3.41-20.9-8.47-41.31-16.03-61.09
		c-10.63-27.8-24.68-53.86-40.28-79.13c-5.28-8.55-10.36-17.24-16.01-25.55c-4.08-6-8.87-11.52-13.48-17.13
		c-1.19-1.45-2.93-2.47-5.42-4.51c0,2.3-0.17,3.42,0.03,4.46c2.01,10.42,2.12,20.97,2.18,31.53c0.04,7.36-1.33,14.48-3.2,21.54
		c-1.81,6.83-5.65,12.22-11.09,16.31c-6.52-0.04-6.52-0.04-7.28-5.6c0.1-0.23,0.13-0.54,0.3-0.69c8.49-7.43,10.35-17.41,10.77-27.94
		c0.71-17.98-2.2-35.52-6.03-53c-2.86-13.05-7.15-25.62-11.89-38.06c-6.67-17.51-16.93-32.4-31.84-43.95
		c-4.02-3.12-8.3-5.61-13.35-6.7c-1.38-0.3-2.61-1.26-3.62-1.77c-0.79-2.54,0.18-4.19,1.99-4.6c2.61-0.59,5.66-1.32,8.02-0.52
		c4.71,1.59,9.63,3.48,13.49,6.49c13.83,10.81,24.75,23.94,31.77,40.37c6.44,15.07,12,30.34,15.64,46.31
		c0.16,0.69,0.67,1.3,1.11,2.12c3.88,0.46,7.78,0.91,12.26,1.44c10.03-5.4,14.18-15.33,16.42-26.08c3.5-16.76,2.36-33.5-2.18-49.97
		c-2.8-10.16-5.51-20.35-10.61-29.72c-3.32-6.1-6.76-11.83-14.34-13.25c-0.38-0.07-0.66-0.7-1.45-1.59c0.6-1.41,1.31-3.09,1.97-4.63
		c8.51-1.89,13.46,2.43,17.43,8.35c5.09,7.58,8.2,16.08,10.93,24.72c5.95,18.87,8.59,38.19,7.37,57.96
		c-0.6,9.64-3.01,18.85-8.03,27.21c-2.6,4.33-5.67,8.29-9.86,11.27c-1.6,1.13-3,2.54-4.48,3.82c0.3,1.04,0.31,1.89,0.72,2.41
		c11.32,14.22,20.27,29.97,29.13,45.73c9.1,16.2,18.23,32.43,26.29,49.15c11.9,24.68,22.02,50.12,27.46,77.14
		c2.97,14.78,5.81,29.63,6.12,44.74c0.2,9.52-0.66,19.06-1.07,28.6c-0.07,1.73-0.23,3.46-0.28,4.21
		c4.07,6.56,7.94,12.13,11.11,18.07c5.96,11.16,9.16,23.35,12.21,35.54c1.77,7.06,3.18,14.21,4.71,21.32
		c3.29,15.27,4.41,30.82,5.81,46.33c1.16,12.75,2.41,25.5,3.02,38.28c0.84,17.55,1.13,35.14-1.57,52.59
		c-2.67,17.23-7.3,33.9-15.57,49.35c-3.58,6.69-8.22,12.4-15.38,16.01c-7.47,3.77-14.59,3.25-21.7-0.08
		c-3.36-1.58-6.28-4.12-9.41-6.21c-1.21-0.81-2.45-1.58-4.23-2.73c-0.71,2.34-1.33,4.18-1.81,6.06
		c-3.76,14.62-7.78,29.15-15.11,42.48c-2.9,5.27-5.76,10.6-9.13,15.56c-7.18,10.56-17.65,16.8-29.34,21.26
		c-5.54,2.11-10.95,1.71-15.9-1.44c-9.3-5.91-15.72-13.95-16.92-25.27c-0.39-3.7-0.21-7.53,2.85-10.55
		c5.44,1.28,6.36,6.06,8.21,10.04c1.69,3.63,2.99,7.47,4.98,10.91c1.2,2.07,3.16,3.95,5.2,5.23c4.5,2.83,9.12,2.15,13.52-0.58
		c8.7-5.41,15.67-12.51,20.83-21.37c7.64-13.12,12.84-27.25,16.92-41.79c1.42-5.06,2.4-10.3,2.97-15.52
		c3.29-30.21,1.54-60.02-5.15-89.8c-9.43-41.94-27.8-79.49-53.01-113.93c-9.54-13.03-20.52-24.79-34.55-33.22
		c-3.86-2.32-7.92-4.43-12.13-6.01c-13.69-5.15-22.92,1.19-23.18,15.92c-0.08,4.75,0.25,9.58,1.11,14.25
		c2.27,12.34,4.93,24.61,7.46,36.9c0.69,3.37,1.84,6.73-0.42,10.77c-1.38-1.2-2.73-1.89-3.35-3c-1.58-2.84-3.13-5.76-4.17-8.83
		c-5.31-15.53-8.09-31.59-9.76-47.87c-0.53-5.12,0.54-10.04,2.44-14.73c1.63-4.04,4.21-7.41,8.21-9.5c2-1.05,3.95-2.18,5.55-3.07
		c13.82-2.61,25.57,1.32,36.83,8.48c16.24,10.32,28.8,24.32,39.79,39.68c16.42,22.96,30.2,47.47,40.09,74.02
		c5.09,13.66,8.97,27.67,12.32,41.87c5.02,21.21,6.15,42.7,6.09,64.35c-0.01,3.52-0.03,6.86,1.88,10.18
		C320.73,1213.64,320.46,1216.45,320.96,1219.76z"/>
	<path d="M1319.52,815.77c-2.91,0-5.14,0-7.54,0c-1.62-1.93-3.22-3.83-5.03-5.98c-2.06-0.79-4.37-1.68-6.39-2.46
		c-1.7-2.46-1.3-4.47-0.25-6.68c1.16-2.43,2.35-4.96,2.87-7.58c2.72-13.55,9.35-18.49,22.35-21.06c8.18-1.62,16.51-1.24,24.55,1.52
		c4.27,1.46,8.63,2.73,12.8,4.44c7.69,3.14,13.64,8.11,17.24,15.93c3.59,7.79,6.84,15.48,7.44,24.27
		c0.75,10.95-3.16,19.06-12.45,24.7c-0.85,0.52-1.64,1.13-2.48,1.71c-1.21,3.82,0.77,6.27,3.29,8.59c2.68-0.43,5.3-0.84,8.43-1.34
		c6.16,7.45,12.91,14.31,18.14,22.19c14.46,21.77,24.68,45.42,28.59,71.47c2.11,14.02,1.75,28.06-0.72,42
		c-1.52,8.62-5.63,16.1-11.62,22.45c-4.07,4.31-9.15,6.96-14.98,8.13c-1.66,0.33-3.29,0.76-5.52,1.28c1.05,2.23,1.73,4.05,2.69,5.69
		c10.91,18.64,17.31,38.84,21.51,59.94c2.02,10.17,3.06,20.41,3.34,30.65c0.38,14.12-2.62,27.52-12.86,38.25
		c-8.1,8.49-17.5,14.19-29.77,13.77c-5.25-0.18-10.53,0.16-15.75-0.26c-2.93-0.24-5.82-1.41-8.65-2.39
		c-3.57-1.23-5.92-3.68-6.59-7.46c2.22-6.87,3.48-8.07,11.5-10.8c0.93,0.36,2.12,0.74,3.23,1.27c1.13,0.53,2.2,1.21,3.62,2
		c0.24,2.03,0.5,4.2,0.78,6.54c0.52,0.34,1.12,1.07,1.75,1.09c5.52,0.19,11.1,0.82,16.54,0.23c9.16-1,15.55-6.58,19.96-14.42
		c4.02-7.14,5.83-14.95,5.97-23.1c0.27-15.68-2.43-31.02-5.94-46.21c-4.52-19.54-12.31-37.68-24.33-53.87
		c-4.2-5.65-9.32-10.21-16.22-14.64c0.21,3.26,0.16,5.43,0.51,7.54c2.01,12.19,3.05,24.47,2.21,36.79
		c-0.91,13.45-3.61,26.4-13.44,36.71c-1.51,1.58-3.01,3.64-3.45,5.7c-1.59,7.55-5.48,13.38-12.22,17.59c0,2.3-0.26,4.54,0.04,6.7
		c3.18,22.65,1.12,45.13-2.46,67.51c-1.79,11.21-5.11,22.07-10.8,31.96c-12.33,21.44-31.2,32.76-55.65,34.99
		c-12.28,1.12-24.01-1.02-34.72-6.62c-5.23,3.92-10.12,7.75-15.17,11.35c-7.95,5.65-17.08,8.49-26.52,10.18
		c-9.9,1.77-19.86,2.4-29.97,0.89c-16.74-2.51-32.91-6.76-48.24-14.01c-2.47-1.17-2.43-1.24-4.41-4.51
		c2.36-1.49,4.35,0.22,6.36,0.83c18.83,5.7,37.91,10.05,57.69,9.97c15.4-0.06,29.86-3.9,42.72-12.62c3.47-2.36,6.41-5.5,9.72-8.39
		c-3.43-9.39,1.33-14.74,8.15-18.65c7.34-14.66,15.14-69.06,12.02-84.26c0.99-1.26,2.18-2.77,3.39-4.32c1.04,0.42,2.05,0.51,2.3,1
		c0.9,1.73,1.89,3.52,2.24,5.41c2.43,13.19,2.85,26.43,0.7,39.71c-0.81,4.96-1.68,9.91-2.28,14.9c-1.51,12.59-5.2,24.54-10.26,36.11
		c-0.98,2.25-1.81,4.57-2.62,6.64c2.21,3.47,5.32,4.54,8.42,5.5c19.59,6.07,37.79,2.78,54.39-8.85c7.33-5.14,12.01-12.72,15.91-20.7
		c5.03-10.29,7.34-21.35,8.86-32.57c2.05-15.2,2.82-30.48,1.76-45.8c-0.43-6.24-1.25-12.46-1.86-18.41
		c-1.57-1.65-2.82-2.86-3.94-4.18c-4.45-5.28-4.04-9.29,1.41-13.35c1.79-1.33,3.73-2.47,5.8-3.83c-0.17-2.54-0.34-5.02-0.51-7.5
		c-0.34-4.84,1.8-8.14,6.12-10.24c4.37-2.12,7.73-0.69,10.69,2.68c0.47,0.54,1.11,0.93,2.01,1.68c2.47-1.59,3.38-4.16,4.45-6.63
		c4.29-9.93,4.69-20.44,4.81-31.02c0.11-9.62-1.69-19-3.45-28.37c-3.25-17.3-7.25-34.42-14.58-50.53
		c-2.69-5.92-5.91-11.65-9.31-17.2c-4.01-6.53-9.39-11.74-16.67-14.67c-0.67-0.27-1.22-0.84-1.74-1.21
		c-1.16-5.7,1.21-8.79,6.09-7.79c2.42,0.5,4.7,1.64,7.58,2.69c1.2-5.44,0.6-11.74,6.71-14.96c4.38,2.47,0.19,9.52,6.5,11.18
		c7.87-3.46,12.11-10.12,13.46-18.84c1.36-8.82,0.42-17.64-1.42-26.23C1351.21,851.38,1338.77,831.52,1319.52,815.77z
		 M1312.27,798.1c2.01,1.36,4.09,2.71,6.1,4.15c4.26,3.07,8.77,5.86,12.67,9.34c18.04,16.07,28.95,36.41,34.56,59.68
		c2.62,10.86,3.4,21.96,0.16,32.8c-3.77,12.59-10.68,22.7-24.18,26.67c-0.59,0.17-1.02,0.91-1.89,1.74
		c13.53,18.12,20.13,39.15,25.73,60.57c3.69,1.62,7.28,2.85,10.49,4.71c3.23,1.87,6.14,4.31,9.1,6.62c2.84,2.22,4.68,5.66,8.24,7.62
		c2.34-5.1,4.11-10.17,10.68-8.9c0.95,1.66,1.77,3.1,2.5,4.38c3.81,0.11,6.29-1.81,7.89-4.34c2.25-3.56,4.39-7.34,5.66-11.32
		c5.18-16.27,4.15-32.93,0.87-49.21c-4.4-21.83-13.01-42.19-25.58-60.71c-1.8-2.65-4.03-4.99-5.91-7.29c-2.86,0-5.09,0-7.54,0
		c-2.81-2.49-5.71-4.88-8.41-7.49c-4.55-4.39-8.45-9.31-10.98-15.16c-2.5-5.77-0.37-11.2,5.39-13.59c2.29-0.95,4.77-1.43,7.06-2.1
		c4.02-3.03,5.59-7.05,5.64-11.87c0.13-11.3-3.37-21.11-11.23-29.39c-7.84-8.27-17.85-11.82-28.63-13.87
		c-6.26-1.19-12.53-1.06-18.71,0.3c-7.69,1.7-10.41,5.43-10.18,13.36C1311.78,795.55,1311.98,796.29,1312.27,798.1z"/>
	<path d="M417.97,943.97c7.04-0.92,7.04-0.92,9.78,5.13c-4.04,4.7-5.77,10.12-2.46,16.62c1.16,0.37,2.51,0.8,3.85,1.22
		c4.05-2.92,6.17-6.9,8.11-10.98c5.66-11.89,8.97-24.49,11.21-37.4c3.24-18.62,4.54-37.37,3.52-56.25
		c-0.58-10.81-2.1-21.5-4.87-31.96c-0.68-2.58-2.08-4.97-3.54-8.36c-0.17-1.57,0.08-4.43-0.82-6.86
		c-6.9-18.61-14.18-37.07-25.29-53.7c-0.27-0.41-0.71-0.7-1.12-1.09c-2.64,0.92-1.17,2.93-0.96,4.36
		c2.48,17.26,0.46,34.03-5.09,50.48c-1.82,5.39-4.87,9.92-9,13.7c-5.78,5.3-15.36,6.29-21.67,1.89
		c-7.49-5.22-13.83-11.71-18.03-19.91c-1.2-2.35-1.63-5.26-1.71-7.94c-0.04-1.43,1.41-2.91,1.99-3.99c3.97-0.72,5.15,1.56,6.17,3.92
		c3.04,7.07,8.03,12.7,13.3,18.12c2.47,2.54,5.13,4.85,9.07,5.19c4.13-0.83,6.88-3.49,9.03-7.13c3.51-5.95,5.46-12.48,6.51-19.16
		c2.54-16.03,2.92-32.02-2.74-47.61c-0.17-0.47-0.22-1.01-0.47-1.43c-5.44-9.2-9.08-19.42-16.19-27.69
		c-7.08-8.23-14.54-15.98-23.9-21.66c-1.7-1.03-3.55-1.82-3.88-1.99c-6.8,0-12.01,0-17.81,0c-2.06,1.28-1.84,3.85-1.63,6.35
		c0.19,2.25,0.64,4.48,0.81,6.73c0.19,2.56-0.01,5.05-2.39,6.62c-2.69,0.69-4.04-0.92-4.45-2.97c-0.86-4.42-1.92-8.93-1.85-13.38
		c0.13-8.76,8.69-15.65,17.53-14.74c1.73,0.18,3.46,0.39,5.2,0.56c0.23,0.02,0.48-0.13,1.16-0.33c3.95-4.45,5.13-10.27,6.13-16.24
		c4.58-27.44-1.02-53.44-10.99-78.84c-1.56-3.97-3.21-7.9-4.69-11.9c-7.25-19.58-18.5-36.7-32.38-52.14
		c-8.1-9.02-17.49-16.58-27.8-22.94c-5.84-3.6-12.22-5.87-19.12-6.41c-9.61-0.75-16.01,4.64-16.62,14.65
		c2.14,0.63,4.44,1.3,7.12,2.09c2.31,3.77,0.82,6.68-2.62,9.02c-6.42-0.88-7.22-1.27-13.89-6.72c-1.35-9.36,2.83-16.77,10.26-22.28
		c9.06-6.71,19.22-6.6,29.44-2.81c10.32,3.82,18.89,10.41,26.82,17.83c6.41,6.01,13.17,11.81,18.67,18.59
		c8.02,9.9,16.11,19.91,20.71,32.13c1.67,4.45,4.33,8.52,6.07,12.94c4.6,11.66,9.38,23.28,13.27,35.19
		c4.56,13.94,5.71,28.51,6.03,43.13c0.07,2.98,0.01,5.96,0.01,9.8c2.39-1.13,3.92-1.8,5.4-2.57c8.78-4.53,17.56-5.17,26.75-0.9
		c14.1,6.55,24.72,17.24,34.02,29.12c6.94,8.86,13.19,18.44,18.47,28.37c8.49,15.97,12.31,33.37,12.23,51.51
		c-0.02,4.76-0.06,9.58-0.75,14.28c-1.92,13.03-4.98,25.7-14.47,35.73c1.38,6.15,2.83,11.97,3.97,17.84
		c4.8,24.91,4.78,49.87,1.04,74.94c-2.01,13.48-5.33,26.55-9.81,39.38c-2.17,6.2-5.04,12.03-8.98,17.32
		c-3.76,5.04-8.61,8.08-14.93,6.27c-6.28-1.8-9.94-6.35-11.12-12.96C412.4,955.19,413.7,949.38,417.97,943.97z M452.05,813.46
		c1.25-2.77,1.91-4.12,2.47-5.51c0.56-1.4,1.06-2.82,1.53-4.25c8.37-25.5,6.24-50.7-3.61-75.12c-7.39-18.32-19.02-34.16-33.24-47.96
		c-5.24-5.08-10.99-9.52-17.56-12.86c-3.9-1.99-7.92-2.94-12.32-2.73c-9.21,0.43-14.76,6.23-14.53,15.52
		c0.05,2.25,0.61,4.51,0.52,6.74c-0.05,1.26-0.95,2.48-2.41,6c-2.02-3.38-3.27-5.46-4.72-7.9c-2.7,2.75-3.22,5.16-2.62,7.66
		c6.04,4.71,12.17,8.74,17.38,13.73c7.42,7.12,13.78,15.27,19.26,24.01c2.57,4.1,5.5,7.75,9.34,10.69
		c6.69,5.12,11.54,11.78,15.96,18.85c9.11,14.55,15.79,30.21,21.53,46.32C449.67,808.5,450.59,810.23,452.05,813.46z"/>
	<path d="M1688.56,549.16c-1.79-1.03-3.02-1.73-4.13-2.36c-0.1-1.13-0.33-1.9-0.2-2.6c0.63-3.31,2.89-5.09,5.9-6.22
		c5.52-2.07,10.84-1.35,16.13,0.82c9.83,4.04,17.48,10.84,23.54,19.37c11.94,16.8,22.89,34.21,31.75,52.88
		c0.84,1.77,1.91,3.43,2.91,5.19c1.29,0,2.31,0.17,3.26-0.03c7.15-1.47,13.37,1.08,19.36,4.44c8.48,4.76,15.04,11.66,20.99,19.19
		c11.05,13.98,18.51,29.77,23.42,46.84c2.4,8.34,2.71,16.9,1.76,25.41c-1.22,10.97-7.84,18.32-17.59,22.72
		c-3.05,1.38-6.79,1.24-10.4,1.82c-1.41,3.46,0.15,6.42,1.08,9.45c3.4,11.07,5.34,22.4,5.88,33.97c0.08,1.75,0.01,3.52-0.13,5.27
		c-0.97,12.46-9.44,19.47-21.96,18.17c-0.99-0.1-1.96-0.42-2.81-0.6c-5.42-6.18-4.98-10.51,1.74-15.69c2.33,1.6,4.74,3.25,7.08,4.86
		c3.55-1.3,4.07-4.01,3.94-6.83c-0.27-5.75-0.58-11.5-1.23-17.21c-2.51-22.08-10.45-42.41-21.65-61.3
		c-5.44-9.18-12.92-17.2-19.9-25.39c-4.15-4.87-10.18-7.32-16.03-9.59c-2.43-0.94-5.35-0.62-7.49-0.81c-3.05,2.5-5.48,4.5-7.78,6.38
		c-3.22-2.47-3.22-2.47-4.09-5.46c2.2-7.1,9.31-7.51,14.81-10.35c-4.17-7.19-8.15-14.05-11.56-19.93
		c-0.05-8.04-0.05-8.04,1.87-12.22c0.59-0.21,1.27-0.6,1.99-0.66c0.98-0.09,1.98,0.05,2.81,0.09c3.43,2.47,4.68,6.11,6.24,9.5
		c3.29,7.17,7.51,13.62,13.58,18.76c2.89,2.45,5.89,4.61,9.96,5.26c4.4-4.79-0.11-9.54,0.72-13.98c-1.57-1.35-2.63-2.42-3.84-3.28
		c-4.29-3.07-5.74-7.46-5.8-12.45c-0.02-2,0.55-4.02,0.43-6c-0.17-2.7-0.2-5.61-1.22-8.03c-8.16-19.28-18.6-37.26-31.21-53.99
		c-4.28-5.68-9.41-10.34-15.39-14.22C1699.76,546.75,1694.5,543.32,1688.56,549.16z M1800.5,728.61
		c13.55,0.49,19.22-3.97,21.35-15.91c1.25-7.02,0.98-14.03-0.53-20.93c-4.53-20.58-14.36-38.39-28.71-53.76
		c-4.9-5.25-10.87-8.86-17.41-11.59c-2.01-0.84-4.2-1.92-6.63,0.34c0.41,1.72,0.78,3.65,1.35,5.52c1.3,4.32,2.8,8.59,4.02,12.94
		c1.92,6.83,3.16,13.71-0.26,21.42c-2.37,1.89-5.38,4.31-8.9,7.13C1781.54,689.23,1792.49,707.9,1800.5,728.61z"/>
	<path d="M1051.04,817.47c0-3.98-0.37-7.99,0.15-11.88c0.27-2.01,1.85-4.04,3.3-5.63c1.3-1.43,3.25-2.27,4.76-3.27
		c3.12-16.73-16.39-41.59-35.11-36.44c-3.74,3.65-2.79,9.88-6.81,14.35c-1.36-1.31-2.89-2.11-3.2-3.23
		c-0.64-2.35-1.19-4.98-0.77-7.32c1.4-7.77,9.54-16.42,20.89-13.54c6,1.52,11.66,4.35,17.95,6.78c0.91-1.47-0.42-3.18-1.12-4.81
		c-7.71-18.08-16.62-35.47-28.88-50.98c-10.13-12.82-20.63-25.3-32.27-36.82c-12.2-12.08-25.73-22.48-40.03-31.85
		c-9.23-6.04-18.73-11.73-28.44-16.96c-15.21-8.19-31.5-12.99-48.84-14.11c-7.44-0.48-14.52,0.51-21.45,3.84
		c-2.96,2.57-4.74,6.97-9.37,7.71c-2.18-1.87-1.21-3.83-0.41-5.59c2.89-6.35,7.96-10.49,14.55-12.16c5.31-1.34,10.9-2.2,16.36-2.18
		c18.13,0.06,35.36,4.23,51.42,12.78c26.49,14.1,51.38,30.54,72.93,51.59c8.06,7.88,16,15.95,22.15,25.53
		c1.08,1.68,2.2,3.45,3.67,4.76c11.47,10.25,18.62,23.54,26.02,36.65c3.08,5.45,5.72,11.15,8.69,16.67
		c9.74,18.14,12.9,37.86,13.95,58.07c0.3,5.68-0.95,10.96-4.88,15.4C1061.78,819.88,1057.78,820.63,1051.04,817.47z"/>
	<path d="M1204.55,720.59c3.5,0,7.03,0.23,10.51-0.04c8.54-0.67,12.47-5.2,12.42-13.86c-0.05-8.32-3.14-15.68-7.25-22.67
		c-7.63-12.98-18.32-23.21-29.76-32.74c-17.24-14.37-37.11-23.75-58.32-30.58c-7.26-2.34-14.68-3.46-22.26-2.74
		c-5.1,0.48-6.18,2.09-6.55,8.35c1.08,1.03,2.23,2.36,3.6,3.4c18.85,14.26,32.32,32.92,42.82,53.71c4.75,9.41,5.2,19.97,1.76,30.11
		c-3.33,9.83-12.83,13.05-23.16,7.85c2.35-0.71,4.15-1.33,6-1.79c7.94-1.96,12.3-6.64,12.87-14.6c0.48-6.56-0.05-13.09-2.95-19.15
		c-6.21-13-13.98-24.97-24.3-35.11c-2.1-2.06-4.68-3.74-7.28-5.17c-5.58-3.08-10.02-7.28-14.29-12.02
		c-4.48-4.96-9.68-9.58-15.34-13.11c-12.32-7.68-24.68-15.32-37.89-21.56c-11.13-5.26-22.21-10.54-33.75-14.81
		c-14.06-5.2-28.53-8.2-43.55-6.66c-4.9,0.5-9.92,1.9-14.4,3.94c-7.23,3.3-9.91,9.39-8.83,17.34c0.3,2.18,0.46,4.38,0.8,7.71
		c-1.98-1.27-3.43-1.72-4.08-2.7c-5.19-7.74-3.02-18.97,4.93-24.86c4.88-3.62,10.36-6.22,16.46-7.04c9.74-1.3,19.35-1.07,29.19,0.37
		c18.54,2.72,34.62,11.42,51.17,19.12c6.6,3.07,13.07,6.41,19.59,9.63c9.46,4.68,18.24,10.41,26.6,16.84
		c1.71,1.31,3.81,2.11,5.42,2.98c0.8-0.49,1.12-0.57,1.2-0.76c4.37-9.63,12.73-10.57,21.6-9.4c6.18,0.81,12.41,2.11,18.32,4.08
		c28.36,9.46,53.25,24.7,74.16,46.14c9.95,10.2,17.55,21.97,21.56,35.78c1.92,6.6,2.47,13.28-0.2,19.95
		c-1.5,3.73-3.96,6.31-7.5,8.04c-5.57,2.73-11.24,2.11-16.85,0.35c-1.22-0.38-2.1-1.83-3.14-2.78
		C1204.11,721.63,1204.33,721.11,1204.55,720.59z"/>
	<path d="M1175.43,808.1c-1.26,2.17-2.52,4.34-3.24,5.57c-4.24-0.17-4.98-1.87-4.76-4.13c0.53-5.3,4.99-9.84,10.29-10.36
		c2.2-0.22,4.45-0.04,7.3-0.04c0.81,2.29,2.11,4.32,2.16,6.38c0.43,19.73-2.71,38.59-15.36,54.58c-5.27,6.66-12.43,10.71-20.69,13
		c-13.18,3.65-26.37,3.11-39.52,0.28c-10.3-2.22-20.48-4.85-30.28-8.95c-11.16-4.67-20.45-11.6-27.93-20.88
		c-2.13-5.69,0.81-9.22,4.98-12.45c2.85-0.95,5.69-1.12,8.39,1.78c-0.25,1.75-0.52,3.67-0.79,5.62c2.5,6.58,7.82,10.4,13.6,13.52
		c14.97,8.08,31.07,13.13,47.87,15.05c10.15,1.16,20.56,0.83,30.2-4.13c5.57-2.87,10.07-6.78,12.91-12.22
		c6.05-11.56,8.97-23.93,8.14-37.04c-0.1-1.64-0.81-3.24-1.24-4.86C1176.79,808.57,1176.11,808.34,1175.43,808.1z"/>
	<path d="M1035.01,818.35c-3.42-0.19-5.28-2.71-6.98-5.04c-4.73-6.52-8.45-13.59-10.85-21.34c-1.87-6.04-0.32-11.36,3.12-16.3
		c1.48-2.13,3.41-3.57,6.78-2.49c-0.26,1.59-0.21,3.1-0.76,4.36c-2.92,6.71-2.04,13.31,0.72,19.69c1.98,4.58,4.58,8.89,6.94,13.3
		C1035.73,813.78,1035.76,813.77,1035.01,818.35z"/>
</g>
</svg>
