<?xml version="1.0" encoding="utf-8"?>
<!-- Generator: Adobe Illustrator 27.4.0, SVG Export Plug-In . SVG Version: 6.00 Build 0)  -->
<svg version="1.1" id="Calque_1" xmlns="http://www.w3.org/2000/svg" xmlns:xlink="http://www.w3.org/1999/xlink" x="0px" y="0px"
	 viewBox="0 0 2000 2000" style="enable-background:new 0 0 2000 2000;" xml:space="preserve">
<g>
	<path d="M342.91,1004.98c36.96-32.25,70.15-66.49,98.01-106.15c-8.24-7.52-13.13-17.22-17.29-27.16
		c-4.26-10.18-7.87-20.68-11-31.26c-3.37-11.4-6.1-23-8.62-34.62c-2.25-10.36-4.03-20.84-5.65-31.32
		c-1.65-10.7-2.65-21.51-4.31-32.21c-1.7-11-1.24-22.06-1.56-33.1c-0.46-15.97,0.56-31.9,2.51-47.74c1.04-8.42,2.51-16.82,4.35-25.1
		c2.62-11.81,5.58-23.56,8.72-35.24c1.82-6.74,4.03-13.41,6.53-19.93c3.65-9.52,7.44-19.02,11.71-28.28
		c2.65-5.76,6.23-11.1,9.5-16.56c3.48-5.81,8.37-8.88,15.73-7.28c1.77-2.86,3.53-5.7,5.46-8.82c-2.14-4.15-4.3-8.27-6.39-12.42
		c-3.83-7.58-7.54-15.22-11.45-22.76c-2.54-4.9-5.83-9.45-7.92-14.52c-2.98-7.23-8.28-13.37-9.8-21.26
		c-0.15-0.8-0.58-1.62-1.09-2.27c-7.63-9.64-11.36-21.37-17.07-32.03c-3.9-7.28-6.86-15.07-10.29-22.61
		c-0.52-1.14-1.24-2.2-1.92-3.27c-1.01-1.6-2.25-3.09-3.05-4.79c-3.06-6.53-6-13.12-8.96-19.7c-0.32-0.7-0.49-1.47,0.07-2.71
		c0.85,0.99,1.87,1.89,2.52,3c10.52,18,20.11,36.5,29.69,55.01c16.41,31.73,33.01,63.37,49.78,94.92
		c13.07,24.57,26.06,49.19,39.2,73.72c9.44,17.63,18.81,35.29,28.52,52.77c10.64,19.15,21.52,38.17,32.52,57.12
		c13.89,23.91,27.91,47.74,42.06,71.51c9.9,16.62,20.09,33.07,30.2,49.69c1.03,0.65,2.09,1.35,3.19,1.99
		c4.01,2.34,6.15,6.05,6.38,10.44c0.19,3.62,1.47,6.61,3.25,9.5c8.47,13.76,16.89,27.56,25.57,41.19
		c11.2,17.58,22.64,35.01,34,52.48c1.67,2.57,3.52,5.04,6.2,7.04c-1.42-3.22-2.72-6.5-4.29-9.65
		c-13.37-26.84-26.83-53.63-40.16-80.49c-6.13-12.37-11.95-24.89-18.04-37.28c-3.66-7.44-7.64-14.72-11.35-22.14
		c-7.02-14.06-13.88-28.2-20.93-42.24c-8.2-16.34-16.31-32.72-24.84-48.88c-11.32-21.43-23.16-42.6-34.52-64.01
		c-9.67-18.22-18.99-36.63-28.49-54.94c-4.21-8.12-8.55-16.16-12.71-24.3c-4.74-9.28-9.38-18.61-14.02-27.94
		c-3.31-6.66-6.54-13.36-9.8-20.05c-3.92-8.02-7.85-16.02-11.74-24.05c-4.9-10.11-10.34-20.02-14.44-30.45
		c-3.12-7.93-6.41-15.75-10.44-23.19c-4.15-7.65-6.87-15.9-11.04-23.55c-4.06-7.45-7.28-15.37-10.67-23.17
		c-2.01-4.61-3.64-9.38-6.31-16.33c-4.75-6.96-6.75-11.36-6.81-16.78c3.79,5.48,6.23,10.98,8.74,16.43
		c4.7,10.23,9.18,20.57,14.08,30.7c7.59,15.67,15.42,31.22,23.22,46.78c9.61,19.19,19.17,38.41,28.98,57.5
		c15.94,31.03,32.02,61.99,48.11,92.93c7.07,13.59,14.22,27.13,21.52,40.59c8.22,15.14,16.78,30.08,24.97,45.24
		c8.69,16.09,17.38,32.2,25.61,48.53c19.52,38.75,38.76,77.64,58.15,116.46c2.17,4.34,4.51,8.61,7.64,12.67
		c-0.17-0.99-0.1-2.1-0.54-2.95c-9.61-18.27-16.61-37.7-25-56.51c-9.7-21.72-18.69-43.76-27.79-65.74
		c-5.36-12.96-10.28-26.09-15.51-39.11c-5.23-13.02-10.58-25.98-15.89-38.97c-2.9-7.08-5.87-14.12-8.73-21.22
		c-3.89-9.64-7.65-19.34-11.58-28.97c-2.17-5.31-4.63-10.49-6.85-15.78c-3.69-8.81-7.41-17.62-10.91-26.5
		c-3.48-8.82-6.52-17.83-10.12-26.6c-3.53-8.62-7.53-17.04-11.31-25.56c-0.35-0.78-0.86-1.53-0.99-2.34
		c-1.43-9.15-7.37-16.68-9.2-25.7c-0.59-2.89-1.71-5.67-2.7-8.86c0.66-0.59,1.41-1.26,2.39-2.13c-0.26-19.21,3.42-38.17,6.38-57.25
		c2.3-14.83,6.92-28.89,11.42-43.06c2.7-8.51,5.26-17.08,8.34-25.45c6.92-18.77,14.96-37.1,25.15-54.33
		c8.1-13.69,16.88-26.97,26.74-39.54c7.89-10.07,16.09-19.84,25.24-28.72c6.85-6.64,14.26-12.76,21.8-18.63
		c12.62-9.83,26.14-18.29,40.73-24.94c8.35-3.81,16.93-7.03,26.15-7.88c2.67-0.25,5.53,0.07,8.11,0.82c2.84,0.83,4.36,3.3,4.78,6.25
		c0.43,2.95-1.07,4.84-3.57,6.01c-4.96,0.74-6.72-2.6-7.99-6.44c-6.46-0.27-11.81,2.54-17.27,4.68
		c-11.54,4.54-22.04,11.09-32.33,17.87c-13.52,8.91-26.06,19.17-37.55,30.56c-6.93,6.87-13.15,14.48-19.37,22.03
		c-14.4,17.47-26.22,36.67-36.45,56.78c-8.39,16.48-15.96,33.39-20.85,51.35c-1.17,4.3-2.82,8.47-4.13,12.74
		c-5.16,16.89-9.64,33.98-12.21,51.45c-1.85,12.6-2.82,25.35-3.78,38.06c-0.69,9.13-0.49,18.3,2.36,27.36
		c-0.51,1.51-1.04,3.1-1.63,4.89c1.49,3.82,2.91,7.83,4.58,11.73c8.83,20.5,17.9,40.9,26.56,61.47
		c16,38.03,31.76,76.15,47.62,114.23c7.12,17.08,14.21,34.16,21.39,51.21c8.34,19.78,16.66,39.56,25.2,59.25
		c6.77,15.6,13.78,31.09,20.82,46.56c10.56,23.23,21.12,46.46,31.91,69.58c8,17.15,16.35,34.14,24.56,51.19
		c0.42,0.87,1.03,1.65,1.72,2.74c0.22-0.83,0.51-1.27,0.41-1.59c-3.4-10.5-6.74-21.02-10.3-31.46c-3.15-9.24-6.64-18.37-9.78-27.62
		c-3.55-10.46-6.93-20.97-10.29-31.49c-4.91-15.37-9.93-30.7-14.54-46.16c-4.25-14.24-8.02-28.63-12.02-42.95
		c-1.99-7.13-4.03-14.26-6.03-21.39c-0.34-1.22-0.74-2.47-0.84-3.72c-0.81-11.06-4.37-21.58-6.26-32.43
		c-0.58-3.32-1.02-6.66-0.72-10.32c0.59,0.89,1.33,1.72,1.72,2.69c0.64,1.57,1.12,3.21,1.56,4.85c3.35,12.53,6.52,25.11,10.06,37.59
		c4.64,16.35,9.48,32.64,14.39,48.91c3.74,12.4,7.66,24.74,11.64,37.06c2.22,6.86,4.78,13.61,7.11,20.43
		c2.47,7.23,4.79,14.52,7.29,21.75c4.99,14.46,10.19,28.86,15.06,43.36c7.24,21.56,14.26,43.19,21.39,64.79
		c0.78,2.36,1.65,4.69,2.8,7.93c0.7-1.46,1.17-1.96,1.11-2.38c-2.54-17.45-5.01-34.9-7.75-52.32c-1.65-10.5-3.72-20.93-5.59-31.39
		c-0.34-1.88-0.59-3.78-0.89-5.67c-1.67-10.26-3.39-20.51-5-30.77c-0.59-3.78-1.18-7.59-1.32-11.4c-0.23-6.2-1.53-12.18-3.01-18.16
		c-0.66-2.66-0.92-5.43-1.29-8.15c-0.4-2.94-0.66-5.9-1.11-8.84c-0.87-5.66-1.9-11.29-2.73-16.96c-0.82-5.6-1.48-11.22-1.73-16.92
		c3.89,8.48,4.19,17.78,6.15,26.69c1.96,8.91,4.13,17.77,6.01,26.7c1.92,9.14,3.6,18.33,5.34,27.5c1.74,9.19,3.44,18.4,5.14,27.6
		c1.7,9.2,3.38,18.41,5.07,27.62c1.66,8.99,3.42,17.95,4.97,26.96c1.57,9.14,2.94,18.33,5.58,27.52c0.23-1.08,0.66-2.16,0.65-3.24
		c-0.16-14.03-0.24-28.06-0.65-42.08c-0.35-11.89-1.01-23.78-1.73-35.66c-0.62-10.17-1.53-20.32-2.29-30.48
		c-0.46-6.15-1.15-12.29-1.29-18.45c-0.36-15.92-2.04-31.79-1.36-47.75c0.18-4.17-0.99-8.38-1.15-12.58
		c-0.55-14.38-0.96-28.77-1.33-43.16c-0.11-4.34,0.05-8.69,0.63-13.06c2.46,4.62,1.66,9.7,2.25,14.55
		c0.64,5.27,0.78,10.6,1.19,15.91c0.39,5.08,0.85,10.16,1.28,15.24c0.45,5.3,0.93,10.59,1.35,15.89c0.4,5,0.73,10,1.19,16.43
		c1.62-2.07,2.38-2.92,3-3.87c2.66-4.08,4.95-8.46,8.04-12.18c2.1-2.53,5.07-4.57,8.03-6.08c7.46-3.82,14.26-2.36,19.25,4.35
		c3.15,4.23,5.52,9.05,8.19,13.63c0.82,1.41,1.48,2.92,2.78,5.52c0.41-2.62,0.77-4,0.83-5.39c1.01-22.36,4.02-44.44,8.79-66.3
		c4.22-19.32,8.91-38.54,15.01-57.35c2.16-6.66,2.9-13.19,2.18-20.05c-2.25-21.45-1.69-42.9-0.07-64.37
		c2.15-28.48,6.6-56.61,12.98-84.41c5.04-22,12.23-43.33,20.69-64.29c6.62-16.4,14.31-32.25,22.39-47.95
		c7.4-14.37,15.44-28.35,24.58-41.72c5.15-7.54,9.68-15.5,15.32-22.72c6.27-8.03,12.35-16.21,18.61-24.25
		c8.76-11.26,18.32-21.84,28.25-32.05c6.66-6.85,14.03-13.02,20.61-19.94c8.41-8.84,18.16-16.02,27.76-23.38
		c15.02-11.5,30.39-22.52,46.75-32.08c10.46-6.11,20.76-12.51,31.34-18.4c7.23-4.03,14.81-7.42,21.28-10.63
		c4.13-0.13,7.25-0.32,10.37-0.29c2.93,0.02,5.85,0.27,9.24,0.45c8.3-25.59,14.37-52.08,25.61-77.03c-0.16,1.5-0.16,3.03-0.51,4.48
		c-3.22,13.19-6.5,26.36-9.78,39.54c-1.44,5.77-2.82,11.55-4.39,17.28c-3.99,14.52-8.09,29.02-12.14,43.53
		c-4.62,16.58-9.21,33.16-13.84,49.73c-4.4,15.75-8.94,31.46-13.23,47.24c-5.86,21.54-11.45,43.15-17.32,64.69
		c-6.77,24.81-13.49,49.63-20.65,74.32c-10.42,35.93-21.21,71.76-31.88,107.63c-9.34,31.38-18.71,62.75-28.11,94.11
		c-5.86,19.55-11.92,39.03-17.67,58.61c-6.53,22.23-12.71,44.56-19.22,66.8c-5.61,19.17-11.47,38.28-17.23,57.41
		c-8.65,28.7-17.17,57.44-26.02,86.09c-3.89,12.59-8.47,24.97-12.69,37.45c-0.57,1.69-0.92,3.45-1.55,5.89
		c1.17-0.78,1.7-0.94,1.84-1.26c2.46-5.87,5.08-11.69,7.26-17.67c7.98-21.97,15.88-43.96,23.66-66
		c5.02-14.23,9.75-28.57,14.68-42.83c2.98-8.63,6.12-17.21,9.16-25.83c5.16-14.63,10.35-29.25,15.43-43.91
		c6.4-18.48,12.78-36.98,19.02-55.52c4.41-13.09,8.53-26.29,12.87-39.41c2.93-8.87,6.04-17.69,9.03-26.54
		c3.18-9.43,6.06-18.97,9.55-28.29c4.78-12.74,8.67-25.74,12.54-38.77c0.54-1.81,1.36-3.53,2.42-6.25c0.36,4.4-0.73,7.43-1.71,10.61
		c-2.44,7.91-4.4,15.96-6.62,23.94c-1.93,6.93-3.89,13.86-5.94,20.75c-2.73,9.15-5.92,18.19-8.27,27.43
		c-3.2,12.56-7.66,24.7-11.61,37.01c-9.36,29.14-18.73,58.27-28.36,87.32c-5.15,15.54-10.9,30.88-16.28,46.34
		c-5.45,15.66-10.73,31.38-16.16,47.05c-4.73,13.66-9.47,27.32-14.37,40.92c-11.91,33-23.9,65.97-35.89,98.94
		c-2.98,8.19-6.09,16.34-9.1,24.52c-0.4,1.08-0.52,2.27,0.05,3.73c0.99-1.83,2.11-3.6,2.95-5.5c10.6-23.91,21.09-47.87,31.75-71.75
		c8.15-18.25,16.63-36.36,24.73-54.63c5.43-12.24,10.51-24.63,15.67-36.99c8.93-21.38,17.62-42.87,26.75-64.17
		c7.96-18.56,16.25-36.99,24.68-55.34c12.42-27.04,25.36-53.82,39.38-80.08c6-11.25,11.29-22.88,17.02-34.28
		c2.19-4.36,4.91-8.46,7.03-12.85c3.51-7.26,6.71-14.68,10.07-22.01c10.61-23.21,21.4-46.34,31.8-69.65
		c5.8-13,10.9-26.31,16.43-39.43c4.45-10.57,9.1-21.04,13.58-31.6c0.91-2.13,1.28-4.49,2.16-6.64c4.84-11.78,9.83-23.51,14.64-35.31
		c2.8-6.88,5.34-13.86,8.03-20.78c0.83-2.13,4.69-7.23,6.82-9.07c0,1.02,0.24,1.91-0.03,2.6c-8.27,20.73-16.62,41.42-24.89,62.15
		c-2.99,7.49-5.63,15.12-8.71,22.57c-10.46,25.34-20.79,50.74-31.64,75.91c-15.49,35.95-32.42,71.23-49.85,106.28
		c-8.62,17.33-16.92,34.82-25.31,52.26c-7.1,14.75-14.25,29.48-21.15,44.32c-7.97,17.15-15.86,34.34-23.45,51.65
		c-3.92,8.94-7.21,18.17-10.67,27.32c-14.6,38.61-30.91,76.48-48.03,114.03c-10.93,23.98-20.85,48.43-31.33,72.62
		c-3.97,9.17-8.25,18.2-12.38,27.3c-0.59,1.31-1.17,2.63-1.05,4.53c0.63-0.59,1.41-1.07,1.86-1.78
		c11.76-18.45,24.78-36.09,35.5-55.22c7.26-12.97,15.08-25.64,22.28-38.64c6.49-11.71,12.36-23.78,18.76-35.54
		c5.89-10.83,12.18-21.43,18.18-32.2c6.93-12.44,13.65-25,20.61-37.43c7.06-12.6,14.25-25.12,21.48-37.62
		c15.43-26.67,30.81-53.36,46.94-79.63c9.45-15.39,18.24-31.19,27.64-46.61c9.4-15.42,18.15-31.23,28.2-46.27
		c6.47-9.7,11.95-20.07,17.88-30.14c2.59-4.39,5.22-8.76,7.79-13.17c8.99-15.42,17.92-30.87,26.94-46.27
		c12.24-20.9,24.58-41.74,36.81-62.65c10.72-18.34,21.43-36.68,31.99-55.12c8.66-15.13,17.29-30.28,25.55-45.63
		c9.15-17.03,17.86-34.3,26.76-51.46c2.54-4.9,5.07-9.81,7.68-14.69c0.96-1.81,1.75-3.89,4.82-4.48c-0.18,1.48-0.07,2.68-0.49,3.65
		c-1.95,4.48-4.25,8.82-6.03,13.37c-2.31,5.91-4.76,11.67-7.98,17.21c-3.26,5.6-4.84,12.21-8.29,17.66
		c-4.24,6.69-6.67,14.16-10.51,20.99c-7.08,12.57-13.94,25.27-20.99,37.86c-8.61,15.37-17.28,30.69-26,46
		c-4.1,7.19-8.08,14.48-12.63,21.38c-5.49,8.32-10.39,16.93-15.04,25.72c-0.6,1.13-1.25,2.22-1.94,3.3
		c-4.25,6.6-8.7,13.06-11.98,20.28c-1.73,3.8-4.78,6.97-6.87,10.63c-2.1,3.66-3.54,7.7-5.65,11.36
		c-3.71,6.41-6.81,13.23-11.85,18.82c-0.82,0.91-1.2,2.23-1.79,3.35c-2.8,5.23-5.14,10.79-8.5,15.63
		c-8.5,12.22-15.09,25.57-23.14,38.05c-4.59,7.11-8.6,14.58-13.09,21.76c-1.2,1.92-3.21,3.35-5.1,5.26
		c-1.24,8-7.13,13.99-10.85,21.1c-2.26,4.31-4.55,8.65-7.36,12.6c-5.16,7.26-8.62,15.51-14.15,22.62
		c-4.63,5.97-7.52,13.26-11.36,19.87c-5.77,9.91-11.8,19.67-17.53,29.61c-6.03,10.48-11.66,21.19-17.78,31.61
		c-5.47,9.33-10.56,18.88-16.88,27.74c-3.89,5.45-6.41,11.87-9.7,17.77c-10.13,18.2-20.44,36.3-30.46,54.56
		c-9,16.41-17.7,32.97-26.49,49.49c-0.14,0.27,0.15,0.77,0.61,2.76c1.09-1.81,1.63-2.91,2.36-3.87
		c10.82-14.2,21.75-28.31,32.48-42.58c11.37-15.11,22.5-30.4,33.85-45.53c6.49-8.64,13.25-17.08,19.79-25.68
		c2.95-3.87,5.72-7.88,8.47-11.9c4.55-6.65,8.93-13.43,13.54-20.04c3.64-5.22,7.56-10.23,11.27-15.41c1.85-2.59,3.5-5.32,5.23-8
		c0.46-0.71,0.74-1.59,1.32-2.17c6.93-7.01,11.41-15.8,17.11-23.69c6.21-8.59,11.77-17.64,17.67-26.45c2.01-3,4.23-5.85,6.27-8.83
		c7.57-11.03,15.17-22.04,22.64-33.14c7.24-10.74,14.28-21.62,21.53-32.35c3.67-5.42,7.65-10.63,11.45-15.97
		c4.43-6.24,8.8-12.52,13.22-18.77c13.86-19.62,27.61-39.31,41.62-58.82c11.15-15.53,22.57-30.88,33.98-46.22
		c11.79-15.86,24-31.41,35.51-47.47c10.89-15.21,21.1-30.9,31.6-46.38c1.18-1.73,1.92-3.86,4.89-4.6c0.86,0.94,1.9,2.07,2.93,3.18
		c-2.37,7.22-6.62,12.86-10.61,18.56c-11.22,16.02-22.57,31.96-34.14,47.73c-8.67,11.82-17.86,23.26-26.65,35
		c-9.04,12.07-17.85,24.32-26.79,36.46c-5.67,7.69-11.47,15.28-17.06,23.03c-3.47,4.81-6.58,9.88-9.99,14.73
		c-4.38,6.24-8.9,12.39-13.35,18.58c-1.86,2.58-3.74,5.15-5.53,7.78c-4.41,6.48-8.75,13.01-13.18,19.47
		c-0.95,1.39-2.18,2.6-3.28,3.89c-0.96,1.13-2.09,2.15-2.85,3.39c-6.07,9.98-12.28,19.84-19.37,29.17
		c-4.35,5.73-7.84,12.11-11.81,18.13c-2.57,3.9-5.35,7.67-7.97,11.55c-4.16,6.16-8.17,12.43-12.41,18.54
		c-3.49,5.02-7.38,9.75-10.82,14.8c-2.74,4.03-4.85,8.49-7.62,12.49c-5.3,7.67-10.84,15.17-16.35,22.7
		c-1.98,2.71-4.16,5.27-6.74,8.51c-3.66,6.96-7.59,14.71-14.24,20.64c-2.08,1.86-3.08,4.4-4.44,6.79
		c-3.45,6.06-7.67,11.69-11.72,17.4c-0.69,0.97-2.01,1.48-2.52,2.61c-1.71,2.62-3.33,5.32-5.16,7.86
		c-3.6,4.99-7.28,9.94-11.01,14.83c-1.27,1.67-2.82,3.13-4.22,4.7c-3.22,3.61-6.32,7.23-8.51,11.67c-1.56,3.17-3.99,5.94-6.26,8.71
		c-4.43,5.41-8.73,10.89-12.04,17.1c-0.59,1.11-1.48,2.07-2.29,3.06c-5.06,6.2-10.25,12.31-15.18,18.62
		c-3.63,4.65-6.81,9.65-10.4,14.33c-3.59,4.67-7.47,9.11-11.16,13.71c-1.33,1.65-2.74,3.32-3.63,5.21
		c-2.57,5.48-6.54,9.88-10.33,14.48c-3.87,4.69-7.16,9.87-10.81,14.74c-5.09,6.78-10.3,13.48-15.42,20.24
		c-0.72,0.95-1.2,2.09-1.12,3.85c0.69-0.5,1.51-0.89,2.06-1.51c3.78-4.31,7.46-8.72,11.28-13c3.09-3.46,6.62-6.56,9.47-10.19
		c4.85-6.18,10.18-11.86,15.47-17.64c4.82-5.27,9.57-10.76,14.09-16.37c0.67-0.83,1.25-1.73,1.97-2.5
		c7.65-8.25,15.32-16.48,22.98-24.71c9.71-10.43,19.89-20.47,28.99-31.4c8.58-10.31,17.93-19.86,26.9-29.78
		c4.83-5.34,9.05-11.22,13.74-16.7c6.07-7.1,12.36-14,18.48-21.04c12.83-14.76,25.57-29.61,38.45-44.32
		c7.98-9.12,16.18-18.06,24.26-27.09c4.66-5.21,9.21-10.51,13.93-15.66c2.72-2.97,5.79-5.62,8.5-8.61
		c6.71-7.4,13.18-15.02,19.98-22.34c5.05-5.44,10.45-10.55,15.72-15.78c0.51-0.5,1.17-0.84,2.42-0.55
		c-2.81,3.36-5.59,6.75-8.43,10.09c-9.09,10.68-18.16,21.39-27.33,32c-7.06,8.17-14.32,16.17-21.37,24.34
		c-7.91,9.18-15.73,18.44-23.52,27.72c-14.64,17.43-29.11,35-43.86,52.32c-14.34,16.84-28.92,33.48-43.47,50.14
		c-11.88,13.61-23.79,27.2-35.8,40.69c-6.93,7.79-14.19,15.28-21.11,23.08c-14.53,16.38-29.09,32.74-43.34,49.36
		c-13.83,16.13-27.26,32.59-40.91,48.88c-6.15,7.33-12.32,14.64-18.61,21.86c-6.76,7.77-11.74,16.66-16.67,25.6
		c-2.35,4.27-4.68,8.58-7.37,12.64c-1.07,1.62-3.06,2.62-4.78,4.03c-4.36-2.99-10.12-1.65-13.62-6.88c0.23-2.29,0.18-5.08,0.83-7.69
		c3.26-13.2,6.68-26.37,10.09-39.53c5.07-19.57,12.27-38.42,19.27-57.35c7.15-19.34,14.16-38.74,21.07-58.17
		c1.92-5.4,3.12-11.04,4.93-16.48c2.41-7.26,5.37-14.34,7.6-21.65c7.89-25.82,15.57-51.7,23.35-77.55
		c2.26-7.53,4.47-15.07,6.87-22.55c5.13-15.98,8.99-32.32,14.21-48.3c7.31-22.42,13.28-45.27,19.92-67.92
		c3.11-10.61,6.49-21.13,9.66-31.72c5.61-18.73,11.07-37.51,16.76-56.22c4.02-13.21,8.47-26.3,12.46-39.52
		c9.21-30.52,18.32-61.08,27.35-91.66c3.61-12.21,6.85-24.53,10.35-36.77c4.09-14.3,8.42-28.53,12.42-42.85
		c4.62-16.56,8.97-33.19,13.47-49.78c2.28-8.4,4.6-16.79,6.94-25.17c4.69-16.77,9.38-33.54,14.11-50.3
		c2.66-9.41,5.4-18.79,8.09-28.19c3.63-12.66,7.24-25.33,10.83-38c0.16-0.57-0.05-1.24-0.09-1.9c-2.18-1.73-4.47-0.72-6.73-0.45
		c-2.94,0.36-5.91,1.02-8.84,0.88c-3.57-0.18-6.62,0.88-9.8,2.23c-20.7,8.75-39.21,21.3-58.05,33.27
		c-13.12,8.34-25.3,17.92-37.39,27.71c-26.6,21.54-49.91,46.19-70.81,73.17c-6.38,8.23-12.33,16.81-18.06,25.5
		c-8.07,12.24-15.98,24.6-23.53,37.16c-11.53,19.18-20.92,39.47-29.33,60.17c-5.6,13.77-10.54,27.85-15.07,42.01
		c-3.17,9.9-5.27,20.15-7.62,30.3c-2.21,9.52-4.49,19.06-6.07,28.69c-1.82,11.11-3.3,22.31-4.22,33.52
		c-1.29,15.67-1.97,31.4-2.81,47.11c-0.27,5.07-0.25,10.17-0.27,15.25c-0.01,1.22,0.31,2.44,0.63,4.71
		c1.25-1.61,2.14-2.39,2.57-3.37c6.3-14.66,13.13-29.08,21.1-42.9c9.66-16.76,19.78-33.27,32.09-48.27
		c8.93-10.88,18.72-20.86,30.25-29.12c8.07-5.78,16.8-9.92,26.24-12.75c3.1-0.93,5.88-0.49,8.4,2.21c0,1.63,0,3.48,0,4.83
		c-3.33,5.38-7.72,3.28-12.71,2.48c-4.26,2.21-9.38,4.37-13.98,7.34c-13.76,8.88-24.74,20.75-34.61,33.64
		c-19.23,25.11-34.87,52.37-47.85,81.17c-2.71,6.01-5.25,12.1-7.73,18.2c-0.79,1.95-1.19,4.05-1.73,6.1
		c-0.21,0.82-0.11,1.76-0.47,2.49c-6.98,13.8-9.78,28.92-13.76,43.65c-4.21,15.59-7.68,31.37-10.29,47.32
		c-2.71,16.59-4.49,33.26-4.58,50.08c-0.06,12.33-0.44,24.68-0.01,37c0.91,25.95,3.13,51.8,7.99,77.34
		c1.67,8.78,4.07,17.38,8.83,25.46c-0.94,1.11-1.84,2.17-2.95,3.48c-1.9-0.5-3.69-0.98-5.44-1.44c-3.53-6.93-6.02-13.89-7.59-21.2
		c-4.45-20.65-6.23-41.63-7.52-62.65c-0.51-8.28-0.22-16.64-1.18-24.86c-1.73-14.79-4.6-29.36-12.93-42.2
		c-1.62-2.49-2.94-5.22-4.8-7.51c-4.01-4.96-7.79-5.15-12.44-0.84c-3.45,3.2-6.57,6.65-8.24,11.2c-1.1,2.99-2.48,5.88-3.65,8.84
		c-2.23,5.63-3.43,11.4-1.77,17.63c-1.06,1.29-2.11,2.56-3.43,4.17c0.68,9.9,1.31,20.09,2.09,30.25
		c1.54,19.93,3.23,39.85,4.73,59.79c2.16,28.7,1.01,57.41,0.18,86.13c-0.1,3.58,0.54,7.17,0.55,10.75c0.01,4.02-0.1,8.08-0.59,12.06
		c-0.19,1.5-1.6,2.85-2.74,4.72c-3.02-0.53-5.85-1.03-8.68-1.54c-1.35-2.38-2.6-4.34-3.62-6.42c-5.63-11.48-12.12-22.44-19.01-33.21
		c-6.53-10.2-12.53-20.75-18.81-31.12c-3.19-5.27-6.38-10.55-9.73-15.72c-5.78-8.92-11.72-17.74-17.55-26.63
		c-7.7-11.73-15.98-23.13-22.84-35.33c-5.02-8.93-11.45-16.84-16.5-25.7c-5.05-8.86-10.67-17.39-15.92-26.14
		c-2.08-3.46-3.66-7.21-5.75-10.67c-3.05-5.05-6.92-9.51-9.49-14.95c-2.15-4.55-6.94-5.62-11.47-2.76
		c-3.34,2.11-6.56,4.87-8.88,8.04c-4.16,5.66-7.12,12.01-8.74,18.99c-2.01,8.71-4.57,17.33-4.88,26.3
		c-0.19,5.49,0.39,11.01,0.68,16.51c0.07,1.27,0.52,2.52,0.55,3.78c0.4,21.69,5.92,42.44,11.61,63.14
		c2.93,10.65,5.94,21.3,9.57,31.72c7.51,21.59,17.12,42.21,30.91,60.58c9.08,12.09,20.1,21.99,34.83,26.83
		c3.41,1.12,6.98,1.91,10.54,2.37c5.98,0.78,7.99-0.48,10.56-5.85c1.19-2.48,2.33-4.97,3.52-7.45c0.08-0.16,0.36-0.22,0.93-0.54
		c0.56,0.66,1.48,1.28,1.73,2.11c2.38,7.99-1.87,15.51-10.06,17.76c-6.33,1.74-12.68,1.24-18.91-0.54
		c-11.28-3.22-20.84-9.23-29.17-17.53c-9.43-9.4-17.17-20.09-23.61-31.57c-6.75-12.04-12.27-24.74-17.07-37.75
		c-7-18.98-11.87-38.6-17.1-58.08c-3.9-14.53-7.28-29.34-7.65-44.57c-0.03-1.22-0.45-2.44-0.8-4.21c-1.37,0.75-2.57,1.12-3.37,1.9
		c-4.4,4.26-6.88,9.69-8.87,15.33c-4.82,13.67-8.43,27.68-10.26,42.04c-2.07,16.22-3.79,32.5-5.16,48.8
		c-0.66,7.82-0.41,15.74-0.13,23.6c0.82,23.25,4.24,46.17,10.4,68.59c5.13,18.68,11.55,36.93,21.79,53.58
		c0.67,1.09,1.38,2.16,1.96,3.29c3.97,7.71,9.85,10.56,18.78,9.67c13.74-1.37,27.6-1.51,41.42-2.02
		c18.06-0.67,36.12-1.26,54.18-1.76c7.65-0.22,15.3-0.11,22.96-0.22c7.44-0.11,14.88-0.23,22.31-0.5
		c26.36-0.94,52.72-1.95,79.08-2.92c2.76-0.1,5.53-0.04,8.3-0.05c4.03-0.02,7.86-0.38,11.8-1.95c4-1.6,8.73-2.41,12.17,2.36
		c-0.45,4.19-1.05,8.32-4.06,11.93c-4.75-0.02-8.2,2.54-11.65,5.6c-11.61,10.3-23.55,20.23-35.13,30.56
		c-10.31,9.18-20.28,18.75-30.49,28.05c-8.31,7.57-16.79,14.96-25.11,22.52c-6.92,6.29-13.62,12.82-20.6,19.04
		c-8.89,7.91-17.98,15.59-26.94,23.41c-2.38,2.07-4.61,4.31-6.88,6.5c-6.72,6.49-14.09,12.19-21.45,17.93
		c-8.5,6.63-16.31,14.12-24.6,21.02c-4.23,3.52-8.91,6.5-13.27,9.88c-5.86,4.54-11.54,9.31-17.43,13.82
		c-8.73,6.69-17.59,13.22-26.37,19.85c-1.18,0.89-2.14,2.07-3.32,2.97c-7.43,5.66-14.82,11.37-22.39,16.84
		c-1.53,1.1-3.73,1.27-5.75,1.92c-0.9,1.46-2.05,3.32-3.15,5.12c-2.7,0-4.9,0-7.14,0c0.12-0.52,0.08-1.06,0.31-1.22
		c13.31-9.47,26.13-19.58,38.9-29.76c5.81-4.63,11.9-8.89,17.77-13.45c4.35-3.38,8.55-6.95,12.8-10.46
		c17.06-14.05,34.2-28,51.13-42.2c10.89-9.13,21.58-18.52,32.17-28.01c12.67-11.35,25.22-22.83,37.66-34.43
		c12.44-11.6,24.65-23.46,37.02-35.14c13.76-13,27.59-25.94,41.38-38.91c1.2-1.13,2.33-2.35,3.22-3.92
		c-35.93,20.49-71.59,41.38-108.87,59.29c-37.59,18.07-76.25,33.53-115.4,47.81c-38.8,14.15-78.21,26.33-118.6,35.36
		c4.37-1.57,8.7-3.24,13.1-4.68c5.84-1.91,11.77-3.59,17.62-5.48c9.09-2.93,18.16-5.94,27.23-8.96
		c12.69-4.22,25.46-8.23,38.04-12.76c15.4-5.55,30.7-11.38,45.93-17.4c15.21-6.02,30.41-12.06,45.42-18.62
		c12.26-5.36,24.51-10.74,36.65-16.35c26.85-12.41,52.76-26.58,78.33-41.39c9.38-5.43,18.68-11,28-16.54
		c1.2-0.71,2.31-1.59,4.52-3.14c-2.48,0-3.65-0.17-4.75,0.03c-15.06,2.71-30.15,5.3-45.16,8.25c-16.04,3.16-32.05,6.53-48.02,10.06
		c-14.72,3.25-29.34,6.94-44.05,10.26c-14.07,3.18-28.2,6.11-42.29,9.18c-12.86,2.8-25.72,5.61-38.58,8.46
		c-9.73,2.16-19.42,4.55-29.18,6.55c-9.14,1.87-18.34,3.5-27.54,5c-12.78,2.08-25.65,3.63-38.38,5.99
		c-18.83,3.5-37.88,5.05-56.85,7.32c-13.28,1.59-26.64,2.54-39.95,3.82c-1.47,0.14-2.89,0.72-4.36,0.84
		c-0.64,0.05-1.34-0.53-2.52-1.04c1.03-0.69,1.46-1.19,1.96-1.27c7.31-1.2,14.63-2.37,21.96-3.5c3.77-0.58,7.54-1.13,11.32-1.62
		c3.15-0.41,6.31-0.7,9.46-1.08c4.41-0.53,8.82-1.1,13.23-1.66c6.07-0.77,12.13-1.68,18.22-2.29c7.81-0.79,15.72-0.82,23.25-3.53
		c1.16-0.42,2.53-0.22,3.78-0.41c6.27-0.93,12.64-0.5,18.86-2.61c4.54-1.54,9.61-1.45,14.41-2.28c4.72-0.82,9.4-1.92,14.11-2.81
		c2.49-0.47,5.04-0.61,7.51-1.16c7.02-1.56,14-3.26,21-4.89c1.66-0.39,3.3-0.88,4.98-1.09c9.07-1.09,17.88-3.38,26.71-5.66
		c4.7-1.21,9.57-1.78,14.31-2.88c13.18-3.04,26.31-6.27,39.5-9.29c10.75-2.46,21.59-4.58,32.32-7.13c13-3.09,25.91-6.55,38.89-9.72
		c3.91-0.96,7.96-1.36,11.89-2.24c10.33-2.31,20.58-5,30.95-7.07c14.55-2.9,29.19-5.37,43.89-8.04c-1.22-1.92-3.18-1.19-4.77-1.14
		c-9.57,0.32-19.13,0.89-28.69,1.15c-11.48,0.32-22.97,0.4-34.45,0.61c-10.63,0.19-21.25,0.5-31.88,0.62
		c-22.96,0.26-45.92,0.42-68.87,0.64c-1.26,0.01-2.53,0.18-3.78,0.36c-1.05,0.15-2.08,0.66-3.11,0.63
		c-6.74-0.18-13.48-0.46-20.74-0.73c-1.27,0.3-3.08,1.05-4.91,1.11c-6.29,0.21-12.57,0.22-18.86,0.76
		c-6.53,0.56-13.12,0.31-19.68,0.59c-4.01,0.17-8.01,0.74-12.02,1.01c-11.42,0.75-22.85,1.47-34.27,2.15
		c-5.72,0.34-11.46,0.49-17.18,0.83c-6.76,0.4-13.51,0.92-20.26,1.34c-4.66,0.29-9.33,0.6-14,0.71c-9.35,0.21-18.7,0.28-28.05,0.44
		c-2.22,0.04-4.19-0.29-5.63-3.1c1.36-0.34,2.45-0.83,3.54-0.86c4.68-0.09,9.36,0.11,14.03-0.09c9.1-0.39,18.2-1,27.3-1.48
		c7.17-0.38,14.34-0.67,21.5-1.05c2.97-0.16,5.93-0.53,8.9-0.68c2.29-0.11,4.59-0.02,6.86-0.2c17.63-2.52,35.51-2.67,53.92-4.6
		c-0.65-1.87-0.88-3.54-1.72-4.81c-10.88-16.36-16.52-34.97-22.2-53.41c-3.98-12.94-6.48-26.39-8.86-39.76
		c-2.18-12.28-3.95-24.72-3.83-37.24c0.13-13.76-0.51-27.54,1.65-41.28c1.88-11.94,2.49-24.07,4.11-36.06
		c0.82-6.08,2.49-12.07,4.05-18.02c1.78-6.78,3.85-13.49,5.82-20.23c0.3-1.02,0.66-2.03,1.09-3c3.97-8.8,8.12-17.46,17.76-21
		c0.98-6.92,1.62-13.47,2.88-19.91c1.51-7.71,3.34-15.37,5.38-22.95c2.2-8.18,6.7-15.2,12.65-21.13c3.44-3.44,7.53-6.2,12.49-7.27
		c0.77-0.17,1.48-0.62,2.68-1.14c-12.66-23.22-27.17-44.94-40.25-67.51c-13.11-22.62-26.1-45.3-39.55-68.65
		c-0.4,1.57-0.97,2.61-0.88,3.6c1.6,17.03-1.49,33.46-6.35,49.65c-12.45,41.43-31.33,79.86-54.1,116.52
		c-7.86,12.65-15.5,25.44-24.42,37.38c-9.29,12.43-18.56,24.88-28.04,37.17c-15.77,20.45-34.36,38.31-52.73,56.32
		c-6.21,6.09-13.07,11.52-19.78,17.08c-2.27,1.88-4.93,3.34-7.52,4.79C348.37,1005.1,346.37,1005.93,342.91,1004.98z M486.5,689.99
		c-3.56,1.88-6.31,1.24-8.88-0.54c-1.21-0.84-2.27-1.92-3.31-2.98c-14.46-14.79-22.51-32.74-26.18-52.87
		c-2.03-11.12-2.61-22.36-3.14-33.63c-0.8-17.06-0.12-33.99,2.79-50.83c0.43-2.47,0.58-4.99,0.88-7.68
		c-1.28-0.63-2.34-1.15-3.79-1.87c-2.06,2.76-4.23,5.13-5.79,7.85c-3.06,5.34-6.11,10.74-8.6,16.36
		c-11.51,25.98-19.52,53.07-24.28,81.05c-2.99,17.58-5.11,35.28-5.49,53.2c-0.48,22.19,1.27,44.17,4.26,66.08
		c3.1,22.76,7.81,45.22,13.8,67.41c3.89,14.4,8.74,28.45,15.09,41.95c2.15,4.58,4.13,9.33,7.59,12.96c2.73,0.4,5.2,0.77,8.04,1.19
		c5.94-8.77,12.33-17.31,17.76-26.41c12.3-20.62,25.23-40.87,35.5-62.69c9.89-21.01,18.91-42.31,25.97-64.42
		c4.29-13.45,6.57-27.28,6.78-41.4c0.09-6.17,0.13-12.34-1.89-18.31c-0.25-0.74-0.03-1.65-0.03-2.62c1.3-0.83,2.52-1.61,3.76-2.4
		c-26.04-44.96-48.85-90.61-72.96-135.55c-0.29-0.53-0.8-0.95-1.25-1.38c-0.13-0.13-0.38-0.14-0.9-0.31
		c-0.5,1.07-1.13,2.14-1.52,3.29c-5.68,16.51-6.74,33.7-7.25,50.94c-0.21,7.22,0.81,14.5,0.15,21.66
		c-0.66,7.11,0.05,13.99,1.04,20.93c2.33,16.23,7.58,31.4,16.89,44.99c3.7,5.41,7.15,11.16,13.59,13.99
		C485.58,688.16,485.8,688.93,486.5,689.99z"/>
	<path d="M1258.53,1165.59c-1.97,2.42-4.07,4.75-5.91,7.27c-18.88,25.9-40.69,49.06-64.89,70.06c-14.98,13-30.84,24.78-47.73,35.13
		c-8.87,5.43-18.16,10.19-27.26,15.24c-2.22,1.23-4.47,2.39-6.94,3.71c0.27,1.43,0.47,2.63,0.72,3.82
		c0.88,4.12,0.25,7.91-1.73,11.69c-5.04,9.61-13.77,14.09-23.43,17.33c-1.95,0.66-2.53,0.39-6.25-0.57
		c1.15-2.23,3.39-2.47,5.24-3.25c6.3-2.69,15.5-10.76,18.38-16.1c1.59-2.94,2.41-5.88,0.11-9.4c-1.47,0.45-3.03,0.88-4.55,1.4
		c-6.83,2.34-13.56,5.03-20.51,6.93c-4.03,1.1-8.39,1.16-12.61,1.3c-2.94,0.1-5.31-1.29-6.51-4.9c4.29-5.69,9.54-10.24,16.59-12.03
		c3.1,1.69,3.2,3.68,2.17,5.37c-2.17,2.81-6.17,1.17-7.1,4.66c6.4,0.6,19.15-3,29.57-8.34c-0.45-2.52-2.56-3.79-4.25-5.26
		c-6.34-5.53-13.77-9.24-21.61-12.05c-13.73-4.92-27.9-7.79-42.51-7.2c-8.25,0.33-16.52,1.38-24.65,2.85
		c-18.06,3.26-35.12,9.92-52.26,16.2c-15,5.5-29.23,12.67-43.46,19.87c-12.72,6.43-24.63,14.23-36.91,21.4
		c-1.79,1.05-3.41,2.4-5.28,3.74c1.82,1.28,3.33,2.35,4.57,3.22c1.29,2.88,0.36,4.82-1.29,6.75c-4.29,5-8.47,10.1-12.67,15.18
		c-0.88,1.07-1.66,2.22-3.32,4.45c10.29-3.91,16.7-11.44,24.68-15.6c7.04,3.36,7.85,7.18,2.77,11.74c-2.87,2.58-5.66,5.08-7.1,9.3
		c5.42,1.82,11.32,3.5,9.5,11.05c-10.8,9.38-20.98,19.1-32.06,27.65c-17.68,13.63-35.99,26.44-53.98,39.66
		c-7.7,5.66-15.39,11.36-22.88,17.3c-3.83,3.03-7.17,6.66-9.44,11.52c0.98,2.4,3.92,4.5,2.39,7.96c-1.91,3.43-5.53,3.17-9.29,3.36
		c-6.38,15.6-15.03,29.96-23.05,44.67c-7.86,14.43-15.6,28.92-23.44,44.88c-0.63-2.15-1.08-2.83-0.9-3.2
		c2.9-5.89,5.85-11.76,8.84-17.6c6.09-11.92,12.23-23.81,18.32-35.72c4.23-8.26,8.51-16.49,12.57-24.83
		c1.74-3.57,2.97-7.38,4.96-12.42c-0.82-6.61,2.85-12.93,8.13-18.52c4.06-4.3,5.84-9.85,8.38-14.96c2.54-5.09,4.82-10.33,6.93-15.62
		c3.61-9.07,7.03-18.22,10.45-27.36c3.42-9.14,6.98-18.23,10.08-27.48c3.97-11.88,7.46-23.92,11.3-35.85
		c4.1-12.74,8.39-25.41,12.52-38.14c1.44-4.44,2.68-8.95,3.99-13.44c0.42-1.42,0.73-2.87,1.19-4.27
		c3.74-11.51,7.51-23.01,11.24-34.52c0.31-0.96,0.4-2,0.85-4.37c-1.53,1.51-2.31,2-2.7,2.7c-15.71,28.03-29.94,56.8-42.98,86.16
		c-7.42,16.72-14.69,33.5-22.38,50.09c-3.39,7.31-7.66,14.21-11.54,21.29c-0.61,1.11-1.32,2.17-1.89,3.3
		c-2.77,5.49-5.74,10.89-8.2,16.51c-7.85,17.94-17.07,35.18-26.39,52.38c-3.53,6.52-6.36,13.42-9.76,20.03
		c-2.33,4.53-5,8.9-7.66,13.25c-5.2,8.51-10.44,17-15.79,25.41c-5.23,8.23-9.72,16.89-15.48,24.83
		c-4.73,6.52-8.42,13.78-12.76,20.59c-3.31,5.18-6.99,10.12-10.36,15.27c-3.14,4.79-6.08,9.72-9.12,14.58
		c-8.47,13.5-17.31,26.78-25.33,40.55c-10.27,17.64-19.84,35.7-26.7,55.02c-1.99,5.59-4.14,11.2-1.97,17.67
		c-1.59,0.26-3.04,0.96-3.83,0.51c-1.14-0.64-2.51-2.11-2.55-3.26c-0.1-3.35-0.03-6.83,0.8-10.05c1.21-4.72,2.88-9.37,4.81-13.85
		c8.78-20.33,18.54-40.16,30.64-58.76c5.79-8.9,11.86-17.62,17.67-26.5c3.48-5.33,6.61-10.88,10.08-16.22
		c5.88-9.07,11.95-18.01,17.82-27.09c4.15-6.42,8.15-12.94,12.16-19.44c5.12-8.31,10.25-16.62,15.26-25
		c2.7-4.52,5.14-9.19,6.97-14.55c-1.83,1.19-3.68,2.35-5.49,3.58c-12.19,8.28-25.06,15.27-38.97,20.2
		c-8.78,3.11-17.74,4.3-26.98,2.39c-11.35-2.35-15.72-6.01-19.77-16.85c-2.76,0.9-5.49,2.01-8.33,2.67
		c-2.67,0.61-5.44,0.74-8.76,1.15c-1.25-0.56-3.1-1.14-4.7-2.14c-4.94-3.09-6.44-7.82-4.1-13.18c2.59-5.95,6.43-11,11.61-14.97
		c5.4-4.14,10.83-8.25,16.23-12.39c0.81-0.62,1.54-1.36,3.32-2.94c-2.29,0.28-3.38,0.25-4.36,0.56
		c-14.65,4.52-29.59,7.92-44.67,10.53c-11.5,1.99-23.01,4.17-34.77,4.43c-6.78,0.15-13.54,1.41-20.32,1.65
		c-14.66,0.53-29.29,0.5-43.93-1.29c-9.07-1.11-18.22-1.75-27.14-3.75c-9.1-2.05-18.12-4.49-27.12-6.94c-2.43-0.66-4.7-1.95-7.02-3
		c-5.15-2.34-8.68-6.03-9.79-12.48c0.65-1.37,1.54-3.25,2.57-5.42c9.09-4.16,18.68-5.11,28.85-4.83c1.51,1.28,3.09,2.62,4.25,3.6
		c0.9,2.65,0.7,4.4-1.19,5.65c-4.66-0.11-9.3-0.4-13.92-0.28c-4.27,0.11-8.95-0.96-12.65,3.22c3.17,3.72,7.37,5.29,11.51,6.72
		c14.29,4.94,29.03,7.62,44.01,9.77c19.1,2.74,38.17,2.11,57.26,1.65c8.87-0.21,17.69-1.98,26.56-2.77
		c21.22-1.87,41.91-6.55,62.33-12.25c20.08-5.6,39.23-13.54,57.73-23.47c25.17-13.51,48.96-29.15,73.12-44.25
		c5.95-3.72,11.75-7.7,17.77-11.3c2.65-1.59,5.69-2.53,9.81-4.31c3.55-4.94,5.64-12.16,8.75-18.87
		c7.23-15.61,14.34-31.28,21.44-46.96c4.29-9.48,8.38-19.05,12.71-28.52c2.65-5.8,5.47-11.52,8.39-17.19
		c7.09-13.81,14.19-27.61,21.45-41.33c5.57-10.52,11.44-20.88,17.07-31.37c1.25-2.33,2.77-4.75,1.5-8.59
		c-13.4,17.89-23.92,36.84-36.24,54.57c-12.48,17.98-24.94,35.98-37.39,53.99c-12.31,17.82-24.58,35.66-37.86,52.96
		c0.37-1,0.55-2.12,1.13-2.98c9.84-14.39,19.65-28.8,29.64-43.08c20.47-29.28,40.43-58.89,59.78-88.93c1.48-2.3,2.76-4.73,4.68-8.05
		c-3.04,0.96-4.07,2.77-5.32,4.24c-6.19,7.26-12.27,14.6-18.54,21.79c-8.63,9.89-17.34,19.71-26.13,29.45
		c-4.38,4.85-9.14,9.37-13.56,14.18c-4.44,4.83-8.65,9.87-13.04,14.76c-4.95,5.52-10.04,10.9-14.95,16.45
		c-5.47,6.19-10.65,12.64-16.22,18.74c-11.41,12.52-22.95,24.93-34.51,37.31c-8.55,9.16-17.2,18.23-25.83,27.31
		c-0.93,0.98-2.05,1.76-3.79,2.01c0.64-0.95,1.16-2.01,1.93-2.84c17.72-19.24,35.59-38.35,53.17-57.72
		c12.72-14.02,24.98-28.46,37.61-42.56c11.64-12.99,23.57-25.71,35.23-38.67c8.37-9.3,16.65-18.69,24.68-28.29
		c4.22-5.04,7.5-10.86,11.73-15.88c8.9-10.56,18.14-20.84,27.29-31.18c1.6-1.81,3.64-2.95,6.54-2.29c2.83,2.22,4.22,5.4,4.42,9.17
		c0.61,11.67,1.17,23.34,1.81,35c0.27,4.88,0.93,9.75,0.97,14.63c0.11,14.24,0.04,28.48-0.05,42.72
		c-0.05,7.64-0.21,15.29-0.49,22.92c-0.05,1.49-0.86,2.96-1.56,5.21c-2.4-3.02-2.93-5.68-3.09-8.38
		c-0.55-9.12-1.12-18.25-1.46-27.38c-0.74-19.77-1.32-39.55-2.01-59.32c-0.08-2.3-0.43-4.6-0.8-8.4c-1.21,2.2-1.91,3.08-2.22,4.09
		c-5.86,18.65-11.54,37.37-17.55,55.97c-6.67,20.62-13.63,41.14-20.49,61.7c-2.96,8.86-6.06,17.68-8.95,26.57
		c-3.29,10.1-6.39,20.26-9.65,30.37c-0.58,1.8-1.56,3.48-2.39,5.2c-1.29,2.67-2.73,5.27-3.89,8c-5.24,12.28-10.31,24.62-15.64,36.86
		c-1.86,4.26-4.3,8.27-7.01,13.39c1.93-0.72,3.06-0.91,3.91-1.5c19.18-13.38,38.9-26,57.08-40.79c6.76-5.5,13.38-11.23,20.56-16.12
		c6.4-4.36,11.05-10.32,17.07-15.57c-2.3-2.33-4.33-4.38-6.63-6.71c0.31-2.78,0.63-5.65,0.98-8.82c-7.44,2.66-13,9.73-21.78,8.11
		c-2.99,1.92-5.89,4.13-9.08,5.76c-7.85,4.03-12.4,2.32-16.43-5.95c0.08-4.54,2.41-8.46,5.03-12.01
		c5.58-7.55,12.52-13.81,19.89-19.61c15.76-12.4,32.88-22.69,50.34-32.46c25.69-14.38,52.54-26.05,80.62-34.92
		c10.77-3.4,21.63-6.22,32.73-8.27c13.33-2.46,26.67-2.57,40-0.57c14.4,2.16,28.28,6.21,40.73,14c4.65,2.91,8.71,6.75,13.01,10.2
		c0.97,0.78,1.83,1.69,2.91,2.7c4.35-2.05,8.63-3.89,12.74-6.04c19.81-10.35,39.06-21.67,56.49-35.71
		c12.39-9.98,24.92-19.91,35.72-31.69c8.16-8.91,15.84-18.26,23.77-27.38c8.53-9.82,15.78-20.5,21.63-32.11
		c1.43-2.83,2.54-5.86,3.45-8.9c0.85-2.85,1.22-5.84-0.55-8.53c-2.7-1.72-4.97-0.34-7.29,0.68c-7.85,3.44-14.68,8.56-21.86,13.11
		c-3.92,2.48-8.15,4.62-12.47,6.28c-2.89,1.11-6.2,1.1-9.27,1.58c-1.64-1.55-2.99-2.82-4.48-4.24c-5.83,1.86-11.42,3.88-16.51,7.71
		c-12.75,9.59-26.02,18.46-40.18,25.9c-5.46,2.87-11.01,5.61-17.15,6.71c-2.21,0.4-4.52,0.27-7.23,0.4c-0.67-2.43-1.21-4.39-1.66-6
		c1.93-4.23,5.32-6.22,8.52-8.21c4.87-3.03,9.9-5.82,15.01-8.43c11.93-6.1,23.93-12.06,35.94-17.99c2.46-1.21,5.07-2.18,7.7-2.99
		c4.33-1.32,8.27-3.28,11.78-6.16c21.2-17.42,42.44-34.83,61.8-54.3c16.19-16.28,31.79-33.19,45.33-51.82
		c10.92-15.02,20.22-31,26.66-48.47c3.9-10.58,6.66-21.51,6.96-32.88c0.12-4.42-0.12-8.86-2.74-12.75
		c-0.43,0.23-0.69,0.28-0.79,0.43c-3.94,6.25-7.61,12.67-12.76,18.1c-2.47,2.6-4.55,5.57-6.76,8.41c-2.48,3.18-4.63,6.66-7.4,9.56
		c-7.33,7.7-14.54,15.6-22.51,22.61c-8.58,7.54-17.7,14.55-28,19.79c-3.02,1.54-5.81,3.53-8.75,5.25
		c-4.99,2.93-10.38,4.9-16.03,6.02c-4.3,0.85-7.74,2.85-11.19,5.6c-4.95,3.94-10.55,7.09-16,10.37c-1.35,0.81-3.17,0.83-5.04,1.28
		c-1.69-1.92-3.19-3.63-4.65-5.3c0.41-3.85,1.6-7.05,4.11-9.47c9.65-9.28,19.34-18.52,29.19-27.59c2.52-2.32,5.71-3.79,9.42-2.41
		c2.68,2.65,2.8,5.52,0.51,8.99c-5.38,2.15-10.86,4.91-14.88,9.82c-0.58,0.71-0.83,1.7-1.41,2.93c2.97,0.73,4.58-0.8,6.12-2.09
		c7.17-6,14.57-11.75,21.32-18.19c13.4-12.78,26.16-26.19,37.18-41.13c13.03-17.66,24.93-36.03,33.71-56.24
		c3.48-8.01,6.24-16.25,7.71-24.92c1.27-7.55,0.5-14.92-1.85-22.02c-3.18-9.56-10.4-15.13-20.11-18.62
		c-0.68,2.37-1.23,4.32-1.75,6.17c-2.99,2.42-5.24-0.2-8.27-1.15c-1.24,1.01-2.72,2.13-4.11,3.36c-6.5,5.8-13.06,11.53-19.43,17.47
		c-8.86,8.27-18.05,16.26-26.22,25.18c-12.05,13.17-23.59,26.83-34.84,40.7c-7.63,9.4-14.4,19.5-21.56,29.28
		c-0.88,1.2-1.72,2.43-2.63,3.61c-3.84,5.01-3.84,5.01-5.19,10.99c-3.48,1.57-5.44,4.82-7.4,8.13
		c-7.93,13.33-16.3,26.41-23.79,39.98c-9.57,17.34-17.08,35.59-23.26,54.46c-4.06,12.39-6.6,25.04-8.16,37.83
		c-1.69,13.88-1.52,27.94-0.01,41.9c0.34,3.11,1.64,6.12,2.58,9.15c0.47,1.53,1.11,3.02,2.15,5.79c-3.3-2.06-5.09-3.81-6.03-6.04
		c-1.55-3.7-3.3-7.49-3.84-11.4c-2.64-19.09-2.49-38.18,1.33-57.13c1.85-9.15,3.99-18.24,6.14-27.33c0.58-2.47,1.57-4.84,2.51-7.21
		c3.81-9.68,7.31-19.51,11.61-28.97c4.04-8.89,8.72-17.51,13.52-26.02c6.58-11.66,13.59-23.08,20.3-34.66
		c2.03-3.51,3.28-7.35,3.33-11.5c0.02-1.69,0.22-3.39,0.38-5.08c0.83-8.67,1.46-17.37,2.58-26.01c0.79-6.1,1.98-12.17,3.45-18.14
		c5.22-21.18,13.37-41.23,23.97-60.29c5.17-9.29,10.08-18.74,15.56-27.84c11.13-18.48,24.27-35.45,39.61-50.63
		c8.93-8.84,18.55-16.94,29.02-23.9c4.58-3.04,9.62-5.4,14.54-7.91c3.67-1.88,7.62-2.65,11.85-1.95c6.47,2.65,9.42,7.76,8.99,14.57
		c-0.29,4.62-1.27,9.23-2.36,13.75c-0.46,1.92-1.98,3.59-3.16,5.62c-2.26-0.61-4.04-1.09-5.67-1.54c-1.77-2.52-3.72-4.57-2.94-7.99
		c1.27-1.12,2.68-2.35,3.99-3.5c1.43-3.35,2.18-6.56,1.06-10.07c-2.92-1.52-5.45-0.51-8.04,0.48c-8.45,3.23-15.95,8.08-22.96,13.65
		c-15.23,12.1-28.62,25.99-40.24,41.63c-19.55,26.31-34.68,55.03-46.66,85.42c-6.82,17.3-10.76,35.36-11.65,54.01
		c-0.05,1.01-0.01,2.03-0.01,4.1c1.53-1.53,2.5-2.25,3.16-3.2c17.46-24.98,36.54-48.65,57.8-70.48c8.89-9.13,18.6-17.46,27.96-26.13
		c3.43-3.18,7.03-6.18,10.41-9.41c15.59-14.91,32.96-27.49,50.97-39.26c1.94-1.27,4.16-2.12,6.26-3.15
		c5.73-2.81,11.56-5.42,17.18-8.44c10.33-5.55,21-10.23,32.17-13.82c7.28-2.34,14.32-5.43,21.63-7.67
		c11.16-3.42,22.46-6.42,33.7-9.57c11.87-3.33,23.99-5.59,36.15-7.43c7.11-1.08,14.42-1,21.65-1.12c7.22-0.12,14.46,0.09,21.68,0.31
		c9.29,0.28,17.29,3.85,24.3,9.84c2.77,2.37,3.53,5.75,4.42,9.01c0.6,2.19-0.03,4.19-2.45,6.02c-1.14-0.94-2.59-1.77-3.54-2.99
		c-6.27-8.11-15.02-10.97-24.67-11.25c-12.74-0.37-25.56-1.2-38.23,0.62c-9.86,1.42-19.61,3.61-29.39,5.53
		c-3.33,0.65-6.6,1.61-9.92,2.28c-13.17,2.67-25.73,7.32-38.37,11.72c-6.82,2.38-13.65,4.74-20.43,7.23
		c-4.39,1.61-8.84,3.15-13.01,5.22c-11.23,5.59-22.27,11.55-33.48,17.17c-9.39,4.71-17.18,11.75-25.88,17.46
		c-1.35,0.89-2.3,2.39-3.6,3.78c0.98,0.72,1.58,1.36,2.32,1.67c14.65,5.96,20.23,17.95,21.63,32.64c0.84,8.84-0.9,17.43-3.63,25.75
		c-3.72,11.32-8.15,22.34-14.69,32.44c-4.84,7.48-8.92,15.45-13.85,22.86c-5.18,7.77-10.93,15.16-16.5,22.66
		c-10.05,13.54-22.22,25.16-33.95,37.17c-3.24,3.31-6.9,6.21-10.87,9.73c17.89-4.83,60.14-37.76,78.43-68.74
		c-0.58-4.44,2.85-8.93,1.01-14.01c-1.07-0.47-2.17-0.95-3.16-1.38c0-0.57-0.17-1.13,0.03-1.35c4.22-4.72,9.82-6.28,15.53-7.14
		c10.14,7.8,11.28,18.22,10.55,29.48c-1.33,20.27-9.28,38.2-19.03,55.56c-14.71,26.18-34.04,48.75-54.85,70.13
		c-15.58,16.01-32.34,30.77-49.32,45.26c-2.09,1.79-4.07,3.71-6.85,6.26c2.11-0.17,3.34-0.27,4.71-0.38
		c2.78,1.63,2.58,3.92,1.51,6.16c-2.13,2.91-6.39,2.27-7.9,6.07c3.79,0.2,6.7-1.6,9.53-3.27c4.4-2.59,8.55-5.6,12.95-8.17
		c4.95-2.89,9.97-5.68,15.13-8.17c4.39-2.12,4.92-1.89,10.22,0.42c3.38,2.84,2.31,6.97,2.96,11.65c3.8-4.83,6.09-9.54,8.67-14.03
		c2.55-4.42,4.89-8.96,7.17-13.52c2.32-4.65,5.02-9.19,6.1-15.16c-9.88,4.84-18.9,9.76-29.96,8.41c-0.41-1.45-0.77-2.76-1.26-4.49
		c2.91-1.77,5.49-3.61,8.3-5c6.1-3.01,12.31-5.76,18.47-8.65c3.64-1.71,7.01-3.99,11.19-4.47c1.37-0.16,2.65-1.27,3.95-1.98
		c9.34-5.07,18.71-10.1,28.01-15.25c4.71-2.61,9.4-3.83,14.57-1.36c0.9,0.43,2.07,0.33,2.86,0.43c1.79,1.34,2.47,2.93,1.52,4.64
		c-6.48,11.67-14.19,22.22-26.52,28.44c-0.18,0.09-0.41,0.08-1,0.18c-0.76-0.56-1.73-1.27-2.46-1.81c-0.6-2.86,0.9-4.33,2.46-5.86
		c4.71-4.62,9.39-9.26,14.01-13.96c1.29-1.31,2.36-2.85,4-4.86c-1.79-0.63-3.03-1.56-3.86-1.27c-3,1.03-5.95,2.29-8.76,3.78
		c-8.45,4.46-16.82,9.07-25.17,13.59c-3.06,12-8.04,22.83-14.02,33.12c-6.19,10.65-13,20.95-19.51,31.42
		c-1.22,1.97-2.29,4.04-3.43,6.06C1258.39,1165.75,1258.53,1165.59,1258.53,1165.59z M738.62,1428.18
		c-5.37,2.7-10.55,6.22-17.21,5.09c-0.96-0.16-2.1,0.3-3.07,0.69c-9.65,3.87-19.54,7.25-28.85,11.82
		c-13.15,6.46-25.99,13.57-38.72,20.84c-16.61,9.48-33.01,19.37-47.43,32.07c-5.08,4.47-9.61,9.58-14.32,14.46
		c-1.21,1.25-1.98,2.79-1.29,4.51c1.02,1.88,2.66,2.15,4.43,2.14c5.02-0.03,9.64-1.44,13.88-4.09c5.33-3.33,9.39-7.91,12.8-13.12
		c1.51-2.31,2.89-4.8,6.14-4.94c4.16,2.79,4.92,4.53,2.65,8.09c-1.69,2.65-3.88,5.06-6.19,7.2c-3.59,3.32-5.92,7.14-6.44,11.97
		c1.53,5.68,6.43,6.58,10.88,7.63c10.25,2.43,20.34,0.78,29.93-2.93c6.9-2.68,13.51-6.24,19.95-9.92c7-3.99,13.92-8.19,19.42-14.32
		c1.2-1.34,3.13-2.04,4.47-2.87c1.98,0.67,3.48,1.17,4.9,1.65c6.71-11.1,49.27-93.96,49.8-98.65c-6.49,2.77-25.12,14.68-27.46,17.8
		c3.84-0.86,7.23-2.67,10.79-1.31C738.97,1424.88,738.97,1424.88,738.62,1428.18z M860.87,1338.91c-0.33-0.36-0.67-0.72-1-1.08
		c-4.2,3.19-8.45,6.31-12.58,9.58c-6.68,5.27-12.77,11.16-18.02,17.86c-1.49,1.9-3.24,3.83-2.67,6.93c1.1,0,1.96,0.18,2.7-0.03
		c5.72-1.62,10.48-4.58,13.29-10.03c3.84-7.43,8.97-13.83,15.07-19.52C858.85,1341.51,859.81,1340.15,860.87,1338.91z
		 M1133.56,1188.85c7.05-0.64,18.01-6.3,24.69-12.78C1148.8,1180.01,1140.98,1184.01,1133.56,1188.85z"/>
	<path d="M825.86,1587.57c-1.18,0.08-2.19,0.15-3.08,0.21c-0.34-0.62-0.79-1.05-0.71-1.34c0.79-2.82,1.17-5.9,2.6-8.37
		c7.46-12.9,18.45-22.01,31.59-28.79c16.25-8.38,33.45-13.54,51.56-15.73c6.99-0.84,13.99-0.77,20.98,0.36
		c11.59,1.88,17.52,9.67,20.86,20c3.31,10.25,2.3,20.15-3.28,29.49c-0.92,1.55-1.68,3.19-3.07,5.88
		c7.46-4.51,13.74-8.35,20.06-12.12c13.15-7.84,26.13-15.98,39.53-23.37c10.59-5.84,21.61-10.94,32.6-16.03
		c11.37-5.28,22.82-10.4,34.42-15.14c10.01-4.09,20.25-7.65,30.46-11.23c8.01-2.81,16.22-5.06,24.18-8.01
		c14.98-5.55,30.77-8.22,45.95-13.06c6.65-2.12,13.67-3.09,20.53-4.54c10.18-2.14,20.35-4.33,30.56-6.33
		c4.99-0.98,10.04-1.7,15.09-2.37c19.2-2.54,38.46-4.2,57.84-4.45c16.03-0.21,31.84,1.26,47.34,5.41
		c10.54,2.82,20.33,7.5,29.82,12.79c2.01,1.12,3.73,2.76,5.54,4.12c0.81,3.41,2.92,6.63-1.36,9.88c-2.65-0.41-5.71-0.88-8.97-1.39
		c-1.13-2.68-2.1-4.98-3.19-7.57c-10.39-5.92-21.6-10.54-33.68-12.36c-9.65-1.45-19.42-2.35-29.16-2.78
		c-17.89-0.8-35.74,0.48-53.46,2.8c-20.86,2.72-41.56,6.43-62.12,11.04c-19.51,4.38-38.75,9.66-57.87,15.45
		c-10.95,3.32-21.75,7.14-33.51,11.04c1.51,1.13,2.31,1.93,3.27,2.42c4.99,2.56,8.17,6.64,10.19,11.78
		c2.54,6.46,2.96,13.26,3.25,20.06c0.73,17.34-1.52,34.4-5.38,51.25c-6.02,26.25-15.43,51.34-27.71,75.24
		c-13.14,25.59-28.89,49.57-46.56,72.32c-18.33,23.6-38.87,45.1-60.72,65.38c-16.88,15.68-35.48,29.17-55.1,41.2
		c-10.51,6.44-21.3,12.42-32.07,18.43c-4.8,2.68-9.98,4.52-15.61,5.94c-1.13-2.91,0.65-4.15,2.41-5.25
		c3.61-2.25,7.29-4.37,10.93-6.57c14.37-8.68,28.91-17.1,43.02-26.18c7.29-4.68,13.72-10.68,20.73-15.83
		c9.78-7.19,18.63-15.45,27.47-23.7c5.43-5.07,10.5-10.54,15.58-15.96c7.99-8.51,16.14-16.9,23.72-25.77
		c17.86-20.87,33.06-43.61,47.24-67.13c15.04-24.95,26.45-51.39,34.81-79.19c6.28-20.88,9.91-42.24,9.44-64.12
		c-0.11-5.07-0.96-10.15-1.84-15.16c-0.72-4.11-2.56-7.69-8.11-9.78c-1.92,0.22-5.12,0.27-8.15,1c-6.61,1.6-13.14,3.46-19.2,6.75
		c-2.76,1.5-5.84,2.4-8.71,3.55c-2.2-1.15-4.04-2.12-6.21-3.26c-10.37,5.07-20.86,10.2-31.35,15.32
		c-15.88,7.75-31.13,16.62-45.86,26.34c-18.8,12.42-37.5,25-56.08,37.73c-7.54,5.16-14.56,11.07-22.01,16.36
		c-5.02,3.57-10.22,6.93-15.61,9.91c-15.82,8.74-31.56,17.67-47.72,25.74c-27.02,13.5-54.72,25.55-83.12,35.85
		c-12.98,4.71-26.15,8.94-39.4,12.8c-11.46,3.34-23.33,4.69-35.28,5.01c-2.98,0.08-6,0.18-8.53-1.87c-3.11-5.56-3.04-6.12,1.4-9.46
		c7.32,3.87,15.19,1.94,22.92,1.34c15.21-1.17,29.51-6.21,43.74-11.16c14.04-4.88,27.93-10.29,41.62-16.09
		c17.22-7.3,34.21-15.16,51.24-22.91c15.12-6.88,29.6-14.98,43.75-23.66c5.97-3.66,11.93-7.35,17.83-11.13
		c1.6-1.02,2.92-2.46,4.44-3.62c3.36-2.58,6.69-5.21,10.16-7.64c14.62-10.22,27.53-22.18,36.61-37.67
		c4.58-7.81,7.23-16.34,4.01-25.62c-2.36-6.8-6.85-11.12-14-12.48c-7.59-1.44-15.11-1.19-22.79-0.16
		c-8.69,1.16-17.14,2.98-25.42,5.71c-10.31,3.41-20.38,7.35-29.51,13.38C841.11,1567.4,833.29,1576.86,825.86,1587.57z"/>
	<path d="M1230.22,1323.41c7.03-8.48,13.74-16.99,20.92-25.09c7.33-8.27,14.97-16.29,22.74-24.14c8.97-9.07,18.04-18.06,27.43-26.69
		c13.92-12.78,27.83-25.55,43.04-36.9c15.01-11.2,30.23-22.03,46.37-31.52c11.91-7.01,24.16-13.44,35.99-20.58
		c17.16-10.36,35.42-18.47,53.59-26.75c7.33-3.34,15.01-5.91,22.54-8.82c3.57-1.38,7.12-2.79,10.73-4.05
		c15.45-5.39,31.28-9.54,47.19-13.23c15.1-3.5,30.47-5.78,46.03-6c10.28-0.15,20.39,1.55,30.12,4.68
		c7.91,2.54,13.93,8.04,18.5,14.99c1.43,2.18,2.29,4.58,1.14,7.41c-1.95,2.38-4.4,3.68-7.71,2.56c-2.88-2.13-3.1-5.39-3.64-8.79
		c-4.77-5.81-11.6-8.05-18.68-9.74c-10.24-2.44-20.66-2.63-31.07-1.83c-11.65,0.9-23.27,2.35-34.55,5.47
		c-15.97,4.42-32.01,8.66-47.7,13.94c-28.26,9.52-55.35,21.83-81.25,36.68c-16.41,9.41-32.92,18.69-49.02,28.61
		c-20.31,12.53-38.97,27.36-56.94,43.04c-9.29,8.11-18.51,16.33-27.28,24.98c-12.1,11.94-23.74,24.35-35.57,36.56
		c-9.34,9.64-17.69,20.09-25.92,31.04c0.2,1.26,0.42,2.67,0.69,4.42c-1.43,0.3-2.83,0.6-4.65,0.98
		c-4.79,6.13-9.08,12.96-12.72,20.17c-5.58,11.04-9.54,22.69-13.03,34.54c-3.54,12.02-7.57,23.9-11.29,35.87
		c-2.08,6.7-3.63,13.49-4,20.58c-0.32,6.25,1.68,11.21,6.47,15.29c1.82,0.33,3.69,0.67,6.16,1.12c0.79,1.56,1.7,3.35,2.51,4.95
		c-3.42,3.82-5.16,4.56-8.46,2.94c-7.44-3.64-12.54-9.38-14.43-17.6c-1.51-6.59-0.43-13.13,0.91-19.6
		c0.76-3.68,1.76-7.31,2.81-11.65c-1.72,0.62-2.85,0.99-3.94,1.43c-3.94,1.6-7.82,3.37-11.81,4.8c-4.73,1.7-9.61,1.88-14.39,0.2
		c-7.21-2.53-12.61-10.36-12.65-19c-0.03-7.45,1.12-14.69,4-21.78c7.17-17.64,19.4-30.87,35.05-41.06
		c9.79-6.37,20.04-12.02,30.14-17.91C1219.42,1325.15,1224.48,1322.96,1230.22,1323.41z M1191.26,1412.16
		c1.41-4.09,2.74-7.66,3.88-11.29c3.12-9.92,6.03-19.9,9.27-29.77c3.19-9.7,7.27-19.03,12.62-27.78c0.77-1.27,1.47-2.59,2.18-3.89
		c0.73-1.31,1.44-2.64,2.7-4.95c-2.19,0.95-3.15,1.33-4.08,1.77c-10.18,4.88-19.66,10.92-29.01,17.21
		c-9.81,6.6-18.17,14.59-25.02,24.22c-6.44,9.06-9.71,19.23-10.93,30.15c-0.44,3.93,0.16,7.62,2.92,10.62
		c5.71,2.71,8.49,3.13,14.12,1.28C1176.95,1417.42,1183.88,1414.79,1191.26,1412.16z"/>
	<path d="M759.42,1509.15c1.79-3.88,6.57-9.7,9.87-12.02c1.45,0.98,3,2.03,4.8,3.25c0.6-0.17,1.49-0.24,2.17-0.65
		c9.85-5.89,19.89-11.52,29.45-17.85c10.27-6.8,20.3-13.99,30.03-21.54c9.21-7.15,17.82-15.08,26.83-22.51
		c15.48-12.77,29.2-27.29,42.26-42.46c9.22-10.71,19.67-19.81,31.43-27.75c11.03-7.45,23.03,0.09,24.64,10.83
		c0.82,5.46,0,10.7-1.88,15.64c-3.25,8.53-7.05,16.84-10.64,25.23c-0.71,1.65-1.53,3.25-1.35,5.4c2.73-3.65,5.45-7.29,8.19-10.96
		c1.9-0.15,3.55-0.27,5-0.39c21.48-18.94,44.58-35.1,70.2-47.45c10.14-4.89,20.4-9.62,31.32-12.57c4.7-1.27,9.5-2.32,14.32-2.9
		c5.59-0.67,10.96,1.01,16.19,2.84c5.65,1.98,10.93,4.63,15.67,8.38c11.51,9.12,16.01,21.11,14.62,35.47
		c-1.3,13.35-6.02,25.64-12.62,37.17c-3.69,6.44-7.79,12.68-12.2,18.65c-6.18,8.36-12.62,16.55-19.3,24.52
		c-7.8,9.29-16.49,17.7-25.59,25.77c-12.45,11.05-25.65,20.98-39.62,29.97c-11.34,7.3-23.51,12.79-36.14,17.37
		c-3.36,1.22-6.78,2.27-10.48,1.38c0.1-0.46,0.09-0.79,0.21-0.85c7.96-3.96,15.92-7.93,23.91-11.84
		c11.88-5.82,22.94-12.99,33.67-20.67c17.18-12.29,32.99-26.14,46.97-42.03c12.68-14.41,24.29-29.67,33.24-46.64
		c6.34-12.02,11.11-24.79,10.92-38.87c-0.12-9.61-3.85-17.42-10.99-23.46c-10.58-8.97-22.86-11.79-36.4-8.63
		c-10.83,2.52-20.97,6.96-31.04,11.51c-23.18,10.46-44.61,23.82-64.61,39.48c-3.83,3-7.57,6.11-11.03,8.91
		c-0.45,2.57-0.55,4.53-1.15,6.31c-1.01,2.99-1.85,6.24-3.65,8.72c-3.25,4.46-7.49,7.66-13.81,5.72
		c-4.94,5.02-9.69,10.16-14.78,14.96c-9.57,9.04-19.12,18.12-29.08,26.71c-7.56,6.52-15.97,11.95-25.01,16.36
		c-5.74,2.8-11.44,4.7-16.83,2.16c-5.47,0.62-10.07,1.15-14.86,1.7c-1.33-1.84-2.39-3.29-3.48-4.8
		c5.07-8.85,13.28-12.84,21.67-17.27c1.85,0.54,3.81,1.12,5.81,1.71c0.37,2.3,0.67,4.13,0.95,5.91c0.51,0.1,0.99,0.37,1.27,0.23
		c4.17-2.09,8.21-4.46,12.48-6.31c12.74-5.52,23.31-13.68,32.33-24.27c12.62-14.8,23.95-30.37,32.38-47.96
		c3.04-6.35,5.77-12.82,7.14-19.73c0.62-3.09,0.96-6.35,0.75-9.48c-0.42-6.13-5.27-8.87-10.9-6.46
		c-6.74,2.89-12.38,7.46-17.79,12.25c-4.13,3.66-7.93,7.71-11.78,11.67c-2.06,2.12-4.09,4.24-4.54,7.48
		c-0.19,1.34-1.34,2.62-2.27,3.75c-2.57,3.11-5.25,6.13-8.2,9.53c-4.27,1.14-7.55,4.49-11.11,7.53
		c-12.29,10.47-24.61,20.92-37.15,31.09c-9.9,8.02-20.01,15.8-30.28,23.35c-15.6,11.48-31.8,22.05-49.17,30.72
		c-0.95,0.47-1.88,0.99-2.86,1.41C763.56,1513.58,762.81,1513.33,759.42,1509.15z"/>
	<path d="M1258.39,1165.75c2.75-1.56,5.48-3.17,8.27-4.68c4.28-2.32,8.6-4.58,12.88-6.85c1.81,0.4,3.44,0.76,5.59,1.24
		c68.86-30.33,122.2-78.23,159.49-144.29c-0.82,0.64-1.74,1.17-2.43,1.93c-13.1,14.34-28.11,26.59-42.91,39.04
		c-12.39,10.42-25.74,19.55-40.64,26.15c-2.04,0.9-4.3,1.3-6.71,1.41c2.76-3,6.1-5.05,9.57-6.84c14.65-7.56,27.66-17.43,40.01-28.25
		c12.81-11.22,25.25-22.83,36.32-35.79c3.56-4.17,6.41-8.95,9.46-13.54c1.29-1.94,2.07-4.31,4.98-4.29c2.9,2.04,2.9,2.04,4.52,6.84
		c-1.22,6.63-4.42,12.88-8.01,18.89c-8.97,14.99-19.67,28.75-30.49,42.42c-10.31,13.03-21.21,25.55-33.45,36.75
		c-16.48,15.07-33.65,29.36-52.84,41c-1.62,0.98-3.18,2.07-4.44,3.83c1.24-0.48,2.55-0.83,3.71-1.47
		c15.9-8.7,30.84-18.87,44.9-30.26c7.25-5.87,13.98-12.39,20.96-18.6c1.24-1.1,2.57-2.09,3.76-3.05c3.43,2.11,4.14,2.97,3.18,5.43
		c-1.14,2.92-2.86,5.61-4.52,8.74c2.67,4.19,0.98,8.04-2.04,11.76c-9.83,12.09-20.91,22.91-32.96,32.76
		c-4.88,3.99-9.68,8.06-15.29,12.74c2.07-0.51,3.21-0.79,4.73-1.16c0.8,0.94,1.69,2,2.93,3.45c-1.57,2.2-3.01,4.23-4.8,6.73
		c1.08,6.77-3.14,11.31-8.19,15.6c-13.83,11.73-28.82,21.83-44.3,31.16c-11.83,7.12-24.07,13.56-36.2,20.18
		c-2.4,1.31-5.06,2.18-7.68,3.03c-2.68,0.88-5.04,0.36-6.59-2.25c3.71-7.43,13.69-12.11,24.2-11.38
		c18.88-7.88,60.18-35.25,68.87-45.78c-1.89,0.51-3.45,0.93-5.29,1.42c-1.05-1.34-2.04-2.6-3.2-4.08
		c-6.37,2.95-12.69,5.89-19.49,9.05c-2.4,3.83-6.59,5.57-11.2,6.92c-3.42,1-6.66,2.74-9.87,4.36c-6.45,3.25-12.81,6.69-19.26,9.94
		c-1.62,0.82-3.45,1.23-5.82,2.04c-0.34-2.28-0.56-3.82-0.79-5.36c1.52-1.11,2.62-2.15,3.9-2.82c9.04-4.73,18.3-9.07,27.15-14.14
		c10.5-6.01,20.94-12.22,30.91-19.07c18.42-12.65,36.16-26.21,51.83-42.27c1.62-1.66,3.2-3.37,4.23-5.83
		c-0.92,0.56-1.9,1.04-2.74,1.7c-6.15,4.91-12.23,9.91-18.41,14.78c-1.77,1.4-3.56,3.1-6.58,2.53c-0.22-1.38-0.45-2.76-0.73-4.49
		c7.25-6.39,15.31-11.84,21.56-19.39c-1.49,1.03-3.01,2.03-4.47,3.11c-13.7,10.11-27.8,19.61-42.89,27.56
		c-10.37,5.46-21.11,10.01-32.4,13.24c-4.69,1.34-9.32,2.92-13.91,4.57c-4.39,1.57-8.64,3.24-13.46,3.46
		c-3.51,0.16-6.96,1.6-10.58,2.5c-0.83-0.92-1.52-1.68-2.2-2.44C1258.53,1165.59,1258.39,1165.75,1258.39,1165.75z"/>
	<path d="M910.97,1240.27c-4.43-6.47-4.27-10.31,0.77-15.34c3.58-3.57,7.84-6.21,12.76-7.89c-2.53,2.54-4.95,5.21-7.62,7.58
		c-3.13,2.78-3.56,6.04-2.59,9.71c3.15,2.4,6.43,1.34,9.36,0.51c5.71-1.61,11.54-3.24,16.84-5.83
		c11.64-5.68,23.29-11.45,34.36-18.13c12.83-7.74,25.11-16.41,36.84-25.81c6.78-5.43,13.98-10.32,20.78-15.72
		c4.47-3.54,8.72-7.39,12.8-11.38c6.07-5.94,12.09-11.95,17.79-18.23c5.87-6.47,10.96-13.57,14.39-21.68
		c0.8-1.88,1.13-3.96,1.68-5.94c-2.05-1.59-3.69-2.86-5.24-4.06c0.21-4.91,0.21-4.91,4.94-8.91c3.57-5.23,1.97-11.08,2.29-16.41
		c-2.49-3.96-5.58-4.83-9.57-3.65c-4.88,1.44-8.97,3.78-11.37,8.52c-1.06,2.09-2.32,4.11-5.69,4.81c-1.06-0.64-2.61-1.56-3.97-2.37
		c-0.09-3.8,2.72-5.58,4.53-9c-3.38,1.01-4.66,5.11-8.74,3.38c-0.45-0.56-1.33-1.67-2.17-2.73c0.3-0.84,0.41-1.5,0.74-2.01
		c0.81-1.24,1.58-2.57,2.62-3.6c14.55-14.42,23.37-32.25,30.23-51.18c1.5-4.14,2.15-8.65,2.73-13.05c0.29-2.24-0.16-4.68-0.76-6.9
		c-1.32-4.91-4.15-7.27-9.21-7.13c-5.51,0.16-11.04,0.71-16.49,1.54c-5.86,0.89-11.68,2.14-17.46,3.52
		c-5.02,1.2-8.77,4.01-10.54,9.21c-0.73,2.16-2.24,4.06-3.43,6.16c-1.66,0.09-3.1,0.18-4.76,0.27c-1.07-1.62-2.08-3.16-3.03-4.61
		c-3.71-1.15-20.71,16.64-25.93,26.97c0.25,3.31,0.49,6.66,0.74,10.04c-1.38,1.08-2.49,1.95-3.57,2.79
		c-0.85-0.38-1.52-0.51-1.97-0.9c-4.07-3.55-3.79-7.97-1.81-12.24c1.78-3.83,3.86-7.67,6.55-10.89
		c8.04-9.66,16.89-18.57,26.42-26.76c2.23-1.91,4.76-3.47,7.09-5.14c2.21,0.64,4.02,1.16,5.07,1.47
		c13.21-4.45,26.02-7.37,39.07-9.23c6.51-0.93,12.15,0.53,16.62,5.83c3.91,4.64,4.53,10.2,3.9,15.61
		c-0.7,6.06-2.33,12.09-4.23,17.91c-4.38,13.42-10.79,25.89-18.62,37.63c-1.16,1.74-2.22,3.55-3.42,5.47c1,0.91,1.74,1.59,2.55,2.32
		c2.15-0.76,4.15-1.42,6.12-2.15c4.29-1.6,8.35-0.87,12.34,1.06c3.76,1.81,5.88,4.69,6.37,8.88c0.61,5.33,0.76,10.55-1.15,15.72
		c-1.24,3.37-1.83,6.8-1.57,10.57c0.37,5.42-1.79,10.47-4.53,15.08c-6.76,11.4-14.97,21.62-24.45,30.94
		c-11.57,11.37-24.26,21.37-37.1,31.16c-22.84,17.42-46.56,33.53-72.49,46.13c-6.7,3.26-13.53,6.17-20.85,7.79
		C920.94,1241.09,915.91,1241.41,910.97,1240.27z"/>
	<path d="M450.31,1174.21c0.09,1.01,0.15,1.83,0.22,2.61c-3.45,1.98-6.17-0.33-9.88-1.58c-1.25-0.68-3.5,2.31-6.18-0.32
		C440.07,1173.06,445.05,1172.59,450.31,1174.21z"/>
</g>
</svg>
