<?xml version="1.0" encoding="utf-8"?>
<!-- Generator: Adobe Illustrator 27.4.0, SVG Export Plug-In . SVG Version: 6.00 Build 0)  -->
<svg version="1.1" id="Calque_1" xmlns="http://www.w3.org/2000/svg" xmlns:xlink="http://www.w3.org/1999/xlink" x="0px" y="0px"
	 viewBox="0 0 2000 2000" style="enable-background:new 0 0 2000 2000;" xml:space="preserve">
<g>
	<path d="M518.27,799.08c0.68-10.36,7.38-17.04,14.47-25.34c0.64-4.77,5.56-8.9,8.79-14c2.54-4.02,5.24-7.95,8.1-11.75
		c6.04-8.01,12.12-16.01,18.41-23.83c5.46-6.79,11.2-13.35,16.89-19.96c2.42-2.81,4.98-5.52,7.57-8.17
		c11.2-11.5,22.4-23.01,33.7-34.42c2.64-2.67,5.67-4.96,9.01-7.85c0.46-0.04,1.57-0.15,2.99-0.28c0.13-1.16,0.25-2.25,0.39-3.58
		c6.39-6.28,12.93-12.71,19.47-19.14c-0.13-0.18-0.26-0.36-0.39-0.54c0.84-0.17,1.67-0.35,2-0.41c5.49-4.05,9.35-9.53,15.97-11.84
		c0.12-0.76,0.28-1.74,0.37-2.32c2.42-2.07,4.54-3.89,7.02-6.01c0.51,0.06,1.47,0.17,2.35,0.28c4.77-5.8,9.17-11.82,16.21-13.71
		c2.96-3.09,5.29-6.21,8.26-8.49c5.46-4.19,10.04-9.38,16.77-12.22c4.21-1.77,7.13-6.47,10.86-9.59c2.08-1.74,4.63-2.91,7.33-3.78
		c2.46-2.06,4.93-4.11,7.5-6.26c1.04,0.09,2.17,0.2,3.13,0.29c1.87-1.99,3.76-3.69,5.27-5.68c1.91-2.52,4.57-3.54,7.28-4.79
		c2.64-1.22,5-3.05,7.42-4.7c3.39-2.3,6.7-4.74,10.1-7.02c2.76-1.85,5.46-3.91,8.46-5.26c6.75-3.04,12.12-8.43,20.14-10.94
		c4.4,1.84,5.98-3.39,9.99-6.03c0.08-2.84,0.24-6.2,0.25-9.55c0.03-6.06,0.25-12.14-0.15-18.18c-0.32-4.85-1.63-9.62-2.13-14.47
		c-0.96-9.38-4.78-17.85-7.9-26.56c-4.19-11.7-11.13-21.97-17.03-32.77c-3.6-6.59-9.48-11.45-15.21-16.31
		c-10.21-8.65-21.33-15.86-33.7-20.87c-4.93-2-10.37-3.11-15.68-3.7c-17.13-1.89-34.11-1.45-51,2.94c-11.46,2.98-23,5.4-33.97,10.08
		c-10.82,4.61-21.11,10.12-31.02,16.44c-10.9,6.94-20.93,14.97-30.76,23.3c-9.02,7.65-18.29,15.02-27.11,22.89
		c-15.39,13.73-30.44,27.81-44.28,43.14c-8.8,9.75-17.96,19.18-26.82,28.88c-4.25,4.65-8.21,9.57-12.29,14.38
		c-2.47,2.91-4.92,5.83-7.83,9.28c-1.8,0.65-2.37-1.12-3.23-3.7c2.34-3.95,4.65-8.53,7.6-12.65c3.8-5.29,7.84-10.47,12.26-15.25
		c14.24-15.43,28.7-30.67,43.07-45.98c9-9.59,19.06-18.01,29.21-26.34c5.27-4.32,10.05-9.22,15.26-13.61
		c7.67-6.45,15.26-13.06,23.38-18.9c9.39-6.76,19.09-13.19,29.12-18.93c7.11-4.07,15.01-6.74,22.53-10.09
		c11.03-4.92,22.9-6.89,34.5-9.76c12.95-3.21,26.13-4.5,39.49-3.4c7.44,0.61,14.91,0.58,22.18,2.78c7.06,2.13,13.79,4.91,20.13,8.65
		c3.22,1.9,6.4,3.85,9.65,5.7c13.21,7.52,24.54,17.42,32.84,29.98c13.51,20.46,23.71,42.52,26.69,67.23
		c0.83,6.88,0.69,13.88,0.92,20.83c0.1,2.82,0.02,5.64,0.02,8.61c1.3,0.59,2.29,1.04,3.33,1.51c7.69-7.23,17.76-8.89,26.81-12.74
		c0.47-0.2,0.97-0.5,1.45-0.5c5.34,0.07,9.69-2.72,14.32-4.76c1.24-0.55,2.69-0.66,4.06-0.9c2.83-0.5,5.66-0.96,8.49-1.41
		c1.86-0.3,3.75-0.5,5.6-0.85c9.51-1.76,19.02-2.4,28.76-2.08c7.76,0.25,15.11,1.61,22.26,4.12c12.46,4.37,22.83,11.13,29.15,23.63
		c5.65,11.19,8.01,23.01,9.64,35.13c1.68,12.48,0.64,24.84-1.4,37.27c-2.39,14.5-7.58,28.02-12.51,41.7
		c-7.3,20.26-17.6,38.99-28.94,57.13c-9.21,14.73-19.17,29-29.17,43.22c-9.17,13.05-18.77,25.8-28.3,38.59
		c-5.76,7.73-11.71,15.32-17.65,22.9c-4.84,6.18-9.8,12.26-14.69,18.4c-0.45,0.57-0.79,1.23-0.96,2.1
		c5.95-1.69,8.16-8.62,14.18-9.97c3.09-5.06,6.7-9.33,12.62-10.91c0.34-0.09,0.69-0.4,0.91-0.7c3.33-4.73,8.96-6.11,13.35-9.27
		c1.64-1.18,2.97-2.77,4.54-4.28c0.81,0.3,1.59,0.59,2.49,0.93c0-0.87,0-1.6,0-2.8c2.24-1.17,4.62-2.41,7.61-3.98
		c0.29-3.55,4.23-4.66,7.22-6.76c2.19-1.54,4.42-3.09,6.32-4.95c3.74-3.67,8.31-6.11,13.99-6.96c0.52-0.76,1.09-1.6,1.73-2.55
		c0.91-0.23,1.89-0.49,2.87-0.74c-0.1-0.15-0.2-0.3-0.31-0.44c1.84-1.53,3.54-3.28,5.54-4.55c5.7-3.62,10.45-8.79,17.26-10.61
		c0.83-0.22,1.5-0.98,2.29-1.43c4.01-2.29,8-4.61,12.05-6.82c4.34-2.37,8.69-4.72,13.13-6.89c1.64-0.8,3.54-1.06,5.7-1.67
		c2.04-3.76,6.36-5.32,10.42-7.01c5.95-2.48,12.07-4.5,17.62-7.92c1.94-1.2,4.3-1.7,6.47-2.51c1.44-0.54,2.98-0.88,4.33-1.6
		c7.75-4.13,15.95-6.84,24.36-9.38c7.66-2.32,15.45-3.71,23.18-5.54c1.77-0.42,3.78,0.19,6.15,0.36c2.28-1.32,3.85-1.43,8.92-0.4
		c7.32-3.08,14.8-1.9,22.2-1.27c20.39,1.75,37.72,10.76,53.14,23.55c7.61,6.32,14.2,13.82,19.36,22.41
		c2.78,4.63,5.68,9.18,8.5,13.78c0.47,0.77,0.89,1.58,1.22,2.41c6.23,15.83,11.07,32,9.21,49.26c-0.96,8.93-2.62,17.81-4.46,26.61
		c-4.53,21.61-13.8,41.18-26.19,59.35c-8.5,12.47-17.7,24.38-28.01,35.42c-10.81,11.57-21.31,23.47-32.49,34.67
		c-11.19,11.2-22.82,22-34.7,32.47c-16.11,14.22-32.63,27.98-49,41.9c-2.11,1.79-4.41,3.36-7.42,5.64
		c8.61,1.89,15.93,4.3,16.6,13.81c0.31,4.39-0.03,8.77-4.11,11.83c-7.1-3.44-5.44-9.73-5.01-15.27c-2.61-2.81-5.56-1.99-8.23-1.45
		c-6.43,1.3-12.85,2.74-18.41,6.55c-0.62,0.42-1.4,0.61-2.25,0.96c-2.94-2.38-5.93-4.62-5.16-8.73c4.82-3.08,9.37-5.93,13.86-8.89
		c1.27-0.84,2.47-1.88,3.46-3.04c3.6-4.21,8.06-7.32,13.07-9.4c3.19-1.33,5.03-3.77,7.32-5.96c3.59-3.44,7.39-6.66,11.12-9.96
		c2.29-2.02,4.62-3.98,6.91-6c3.84-3.41,7.68-6.83,11.49-10.27c9.91-8.95,19.85-17.85,29.68-26.88
		c6.73-6.19,13.36-12.51,19.88-18.93c3.02-2.97,5.6-6.37,8.53-9.43c6.28-6.56,12.97-12.76,18.92-19.6
		c5.72-6.57,10.73-13.77,16.04-20.69c3.9-5.09,7.79-10.19,11.9-15.08c2.2-3.77,4.47-7.51,6.57-11.33c1.66-3.01,3.13-6.13,4.65-9.22
		c0.79-1.61,1.31-3.4,2.3-4.87c2.96-4.44,4.77-9.31,5.93-14.47c0.06-0.25,0.07-0.53,0.19-0.75c4.71-9.14,4.62-19.44,6.99-29.14
		c2.37-9.7,2.68-19.71,1.63-29.52c-1.4-13.02-5.41-25.38-11.99-36.87c-10.19-17.8-24.58-31.08-42.94-39.89
		c-9.68-4.65-20.09-7.2-30.92-7.64c-15.59-0.64-30.84,1.75-45.91,5.39c-14.57,3.52-28.41,9.14-42.1,15.16
		c-2.65,1.16-5.43,2.03-7.36,2.75c-5.8,2.98-10.96,5.54-16.04,8.25c-9.09,4.84-18.21,9.63-27.18,14.68
		c-11.45,6.44-22.92,12.86-34.08,19.77c-10.5,6.5-20.81,13.35-30.82,20.58c-11.78,8.51-23.28,17.42-34.66,26.46
		c-12.59,10-25,20.24-37.32,30.59c-8.08,6.79-16.32,13.5-23.64,21.07c-10.37,10.72-19.88,22.27-29.91,33.32
		c-7.36,8.11-14.97,16-22.48,23.97c-0.25,0.26-0.67,0.35-1.34,0.68c-2.88-1.25-5.15-3.28-6.66-6.93c2.58-2.78,5.33-5.6,7.91-8.56
		c3.69-4.23,7.26-8.57,10.91-12.83c0.83-0.97,1.76-1.88,2.75-2.7c2.56-2.14,5.13-4.27,7.79-6.28c0.97-0.73,2.21-1.11,3.58-1.77
		c0.19-1.05,0.42-2.29,0.78-4.28c4.35-4.35,9.24-9.05,13.92-13.96c3.7-3.87,6.79-8.38,10.78-11.88c4.63-4.06,7.68-9.14,11.05-14.07
		c0.97-1.42,2.57-2.41,4.49-4.14c7.63-11.66,17.63-22.45,26.99-33.47c2.97-4,5.82-7.83,8.68-11.67c0.07,0.05,0.13,0.1,0.2,0.15
		c3.32-4.28,6.66-8.54,9.97-12.83c1.61-2.1,3.11-4.29,4.76-6.35c1.43-1.79,3.02-3.45,4.5-5.2c0.89-1.05,1.96-2.06,2.53-3.28
		c1.91-4.16,4.53-7.71,7.86-10.09c4.1-6.39,7.94-12.38,11.85-18.48c1.18,0.33,2.12,0.59,2.98,0.83c0.33-0.27,0.63-0.39,0.7-0.59
		c1.01-2.91,1.67-5.99,3.06-8.7c1.62-3.14,3.84-5.99,5.88-8.9c1.23-1.76,2.62-3.43,3.96-5.12c0.61-0.77,1.28-1.49,1.92-2.24
		c0.58-0.68,1.43-1.27,1.68-2.05c2.63-8.07,8.32-14.3,12.64-21.34c2.2-3.59,3.56-7.69,5.49-11.46c0.85-1.66,2.15-3.08,3.25-4.61
		c1.53-2.14,3.06-4.28,4.02-6.69c1.93-3.81,3.86-7.62,5.79-11.43c0.23,0.07,0.46,0.15,0.69,0.22c-0.28-1.22-0.56-2.44-0.97-4.2
		c0.94-1.08,2.06-2.35,3.35-3.82c0.66-1.29,1.48-2.88,2.47-4.79c-0.23-4.18,0.91-8.4,3.16-12.41c0.87-1.55,1.21-3.38,1.93-5.03
		c1.34-3.05,2.84-6.02,4.14-9.09c0.69-1.63,1.42-3.37,1.54-5.09c0.91-13.23,1.99-26.46,2.35-39.71c0.16-5.84-1.01-11.76-1.94-17.59
		c-1.24-7.78-3.53-15.23-6.92-22.42c-4.17-8.82-11.43-13.76-20.1-16.98c-19.23-7.16-38.85-5.31-58.34-1.57
		c-19.87,3.81-38.29,11.96-56.49,20.54c-2.18,1.03-3.28,2.61-3.55,5.06c-0.95,8.68-1.83,17.38-3.14,26.01
		c-1.37,9.03-3.17,17.99-4.9,26.96c-0.23,1.19-1.15,2.25-1.19,3.48c-0.73,3.05-1.44,6.1-2.21,9.14c-1.37,5.35-2.53,10.76-4.23,16
		c-3.2,9.88-6.59,19.7-10.16,29.45c-2.95,8.05-6.22,15.99-9.46,23.94c-1.26,3.08-2.84,6.02-4.62,9.73c-0.02,0.33-0.1,1.48-0.18,2.63
		c-0.17-0.07-0.34-0.14-0.5-0.21c-3.25,6.55-6.54,13.09-9.75,19.66c-3.51,7.16-6.8,14.42-10.46,21.49
		c-4.52,8.73-9.26,17.35-14.01,25.96c-3.34,6.05-6.77,12.05-10.36,17.95c-0.74,1.21-2.36,1.89-3.81,3c0.23,0.19,0.72,0.61,1.65,1.4
		c-4.83,4.28-4.73,12.36-11.39,15.06c-0.51,1.87-0.62,3.89-1.56,5.4c-3.66,5.87-7.59,11.58-11.61,17.65
		c-0.79,0.11-1.88,0.26-3.3,0.46c0.12,1.29,0.24,2.51,0.39,4.15c-2.06,2.69-4.3,5.63-7.02,9.19c0,0.09,0,1.08,0,2.08
		c-0.2-0.09-0.41-0.18-0.61-0.27c-1.47,2.48-2.94,4.95-4.8,8.09c-0.76,0.61-2.17,1.73-3.51,2.79c-0.92,4.1-7.52,13.8-11.51,16.85
		c-0.39,1.38-0.84,2.99-1.29,4.59c-0.11-0.08-0.21-0.16-0.32-0.24c-1.53,2.12-3.06,4.25-4.59,6.37c-0.07-0.02-0.14-0.03-0.21-0.05
		c-1.99,3.49-4.09,6.93-5.93,10.5c-1.03,2-2.08,3.27-4.41,2.06c-0.2,1.28-0.03,2.78-0.67,3.76c-2.16,3.29-4.68,6.34-6.92,9.57
		c-2.75,3.96-5.4,7.99-8.02,12.03c-1.91,2.94-3.39,6.23-5.97,7.3c-3.6,4.74-6.71,8.73-9.68,12.83c-0.71,0.98-0.95,2.3-1.52,3.77
		c-1.17-0.63-2.19-1.17-3.96-2.11c0.62,1.83,0.99,2.93,1.38,4.08c-0.48,2.97-1.76,5.11-4.89,6.28c-1.38,0.51-2.2,2.52-3.07,4.12
		c-1.88,2.23-3.94,4.33-5.58,6.72c-1.59,2.32-2.75,4.94-4.11,7.44c-1,0.31-1.95,0.59-2.96,0.9c-0.93,4.88-4.1,7.94-7.79,10.72
		c-1.7,1.28-3.02,3.09-4.39,4.76c-1.63,1.98-3.18,4.04-4.66,6.13c-1.13,1.59-2.09,3.29-2.8,5.14c-4.6,4.68-9.2,9.37-13.93,14.19
		c-0.3,4.5-2.92,7.21-7.32,8.28c-0.84,1.7-1.63,3.31-2.33,4.72c-4.27,4.47-8.41,8.79-12.72,13.3c0.26,0.34,0.7,0.89,1.32,1.68
		c-0.94,0.64-1.79,1.54-2.82,1.84c-2.85,0.84-4.38,2.96-5.94,5.23c-2.69,3.89-5.5,7.7-8.35,11.48c-0.51,0.68-1.43,1.04-2.13,1.6
		c-2.02,1.64-4.02,3.3-6.03,4.96c0.16,0.2,0.32,0.4,0.48,0.6c-0.72-0.18-1.44-0.36-1.72-0.43c-5.5,5.61-10.76,10.97-16.49,16.82
		c-3.5,0.48-3.2,7.55-9.06,6.28c-3.65,4.21-7.23,8.56-11.08,12.65c-1.18,1.25-3.09,1.82-5.01,2.11c-0.77,0.67-1.54,1.35-2.46,2.15
		c0.12,0.93,0.24,1.9,0.34,2.72c-1.96,1.15-3.77,2.2-6.27,3.67c-3.1,0.06-4.16,0.87-5.34,4.95c-1.73,0.5-2.48,3.26-4.93,2.96
		c-2.52,2.21-5.17,4.53-7.74,6.78c-1.32,0.22-2.46,0.41-3.72,0.63c-0.72,0.82-1.48,1.67-2.11,2.39c-2.45,0.89-4.71,1.72-6.84,2.49
		c-0.68,1.27-1.23,2.28-2.12,3.95c-8.07,4.18-16.4,9.16-25.26,12.94c-12.51,5.34-25.29,9.93-38.74,12.79
		c-12.35,2.62-24.72,4.96-37.25,6.16c-19.37,1.86-38.67,1.65-57.11-5.7c-12.3-4.91-23.14-11.78-29.73-24
		c-3.28-6.08-7.56-11.64-10.68-17.8c-2.95-5.83-4.99-12.11-7.38-18.21c-3.76-9.57-4.75-19.74-5.66-29.81
		c-0.74-8.26-1.5-16.66,0.34-24.98c0.45-2.05,0.43-4.2,0.7-7.22c-2.71-6.35,2.16-86.89,5.36-95.29c0.75-7.03,0.94-12.04,1.86-16.91
		c2.21-11.75,4.28-23.56,7.31-35.11c3.58-13.63,8.01-27.03,12.28-40.47c2.42-7.6,5.02-15.16,7.99-22.55
		c5.38-13.37,10.97-26.66,16.73-39.87c3.23-7.41,7.13-14.53,10.46-21.91c3.48-7.73,6.35-15.74,10-23.39
		c6.07-12.73,12.44-25.33,18.92-37.86c2.4-4.64,5.52-8.91,8.14-13.45c0.88-1.52,0.96-3.5,1.8-5.04c3.68-6.73,7-13.68,12.46-19.3
		c1.45-1.49,2.23-3.64,3.26-5.51c1.05-1.9,1.97-3.88,3.07-5.76c1.49-2.56,3.02-5.1,4.69-7.55c1.01-1.48,2.04-3.27,3.52-4.02
		c3.64-1.85,5.04-4.94,5.86-8.74c3-2.23,6.09-4.54,9.03-6.73c0.19-1.7,0.33-2.96,0.5-4.5c3.35-2.17,3.62-7.76,8.69-8.18
		c3.88-6.46,8.4-12.04,14.97-15.65c5.06-2.77,10.15-5.49,15.14-8.37c3.22-1.86,6.67-1.75,10.14-1.63c0.69,0.02,1.35,0.56,2.93,1.26
		c-8.82,1.18-15.54,5.04-21.79,9.68c-3.69,2.73-6.98,6.02-10.29,9.23c-4.34,4.2-8.67,8.42-12.7,12.91
		c-2.27,2.53-3.91,5.62-6.03,8.76c-0.72-0.59-1.16-0.96-2-1.66c-0.11,1.87-0.21,3.44-0.34,5.52c-3.56,2.47-7.48,5.16-9.83,9.4
		c-2.2,3.97-6.55,6.89-6.17,12.38c-0.71,0.26-1.64,0.6-1.88,0.69c-4.15,6.47-7.92,12.36-11.82,18.44c0.25,0.66,0.54,1.43,0.78,2.07
		c-1.82,1.22-3.5,2.34-4.87,3.25c-0.9,3.19-1.66,5.89-2.5,8.88c-0.76,0.54-2.04,1.19-2.97,2.17c-0.96,1.01-1.58,2.34-2.34,3.53
		c-0.21-0.24-0.43-0.49-0.64-0.73c-1.3,2.9-2.6,5.8-3.89,8.7c-0.01,0-0.02,0-0.03,0c-0.8,1.84-1.56,3.69-2.39,5.51
		c-1.76,3.87-3.62,7.7-5.27,11.62c-0.38,0.9-0.06,2.1-0.06,3.52c-0.38,0.05-1.15,0.14-1.9,0.24c-1.21,2.43-2.61,4.78-3.56,7.29
		c-0.79,2.09-1.06,4.37-1.56,6.57c-0.14,0.62-0.15,1.29-0.42,1.85c-3.31,6.96-6.63,13.93-10.04,20.85
		c-0.61,1.24-1.68,2.27-2.69,3.61c0.41,4.4-1.81,8.08-4.57,11.56c0.8-2.15,1.59-4.29,2.39-6.44c-0.35-0.14-0.7-0.27-1.06-0.41
		c-4.02,6.3-6.11,13.5-9.04,20.39c0.73,0.97,1.39,1.83,2.41,3.18c-1.84,1.02-3.43,1.89-5.67,3.13c-0.38,2.49-0.82,5.45-1.27,8.41
		c0.23,0.05,0.45,0.09,0.68,0.14c-0.59,1.42-1.18,2.83-1.83,4.37c-1.05,0.13-2.03,0.26-3.34,0.42c-1.06,3.29-2.14,6.62-3.22,9.95
		c0.35,0.15,0.7,0.31,1.05,0.46c0.69-1.34,1.38-2.68,2.17-4.22c0.66,2.8-0.15,5.28-3.63,11.27c-0.46-1.2-0.83-2.16-1.2-3.11
		c-0.23-0.02-0.46-0.04-0.7-0.05c-0.78,4.71-1.24,9.49-2.43,14.09c-1.19,4.59-3.1,8.99-5.31,13.32c0.19-1.25,0.39-2.49,0.58-3.74
		c-0.28-0.08-0.55-0.17-0.83-0.25c-2.21,6.35-4.42,12.71-6.63,19.06c3.84-3.05,3.23-8.4,6.66-12.69c-0.26,1.82-0.26,2.83-0.55,3.75
		c-2.33,7.35-4.88,14.63-7.03,22.03c-1.65,5.67-2.86,11.47-4.17,17.23c-1.88,8.26-4.07,16.48-5.41,24.83
		c-1.79,11.15-2.9,22.42-4.31,33.63c-0.98,7.78-2.1,15.54-2.89,23.34c-0.56,5.5-0.67,11.04-0.99,16.57
		c-0.48,8.35-1.13,16.69-1.38,25.05c-0.28,9.14-0.23,18.3-0.28,27.45c-0.07,12.9,1.49,25.68,3.43,38.4
		c0.72,4.77,2.1,9.51,3.79,14.04c2.88,7.72,5.97,15.38,9.45,22.84c7.08,15.15,18.15,26.43,33.79,32.77
		c3.41,1.38,7.18,1.93,10.8,2.77c2.83,0.65,5.68,1.31,8.56,1.7c13.1,1.79,26.14,0.94,39.15-1.04c5.58-0.85,11.17-1.6,16.75-2.4
		c0.89-0.13,1.8-0.17,2.66-0.39c7.09-1.83,14.21-3.53,21.23-5.58c12-3.5,23.8-7.66,34.73-13.78c10.78-6.03,21.46-12.29,31.78-19.07
		c6.86-4.51,13.09-10,19.46-15.22c14.04-11.52,27.15-24.05,40.42-36.43c11.42-10.66,21.79-22.22,32.07-33.91
		c7.66-8.71,15.27-17.46,22.72-26.34c7.35-8.75,14.48-17.68,21.71-26.53c4.95-6.06,10.05-12.02,14.81-18.23
		c6.26-8.16,12.23-16.54,18.36-24.8c6.12-8.26,12.33-16.45,18.39-24.75c7.5-10.29,15-20.59,22.28-31.04
		c8.46-12.14,16.81-24.36,24.96-36.71c7.8-11.82,15.43-23.76,22.88-35.81c7.05-11.37,13.88-22.88,20.6-34.45
		c4.65-8.01,8.91-16.24,13.43-24.32c3.06-5.47,6.39-10.79,9.34-16.32c1.68-3.15,2.77-6.61,4.28-9.86
		c2.65-5.73,5.57-11.35,8.09-17.14c6.56-15.11,13.25-30.17,19.32-45.47c4.11-10.36,7.48-21.04,10.76-31.71
		c1.99-6.48,3.15-13.22,4.74-19.83c0.93-3.86,2.14-7.66,2.91-11.55c1.07-5.37,1.83-10.8,2.73-16.21c0.46-2.77,1.04-5.52,1.4-8.3
		c0.83-6.46,1.56-12.93,2.38-19.81c-1.22,0.23-2.01,0.18-2.59,0.51c-11.09,6.3-22.34,12.35-33.18,19.06
		c-11.59,7.19-22.94,14.79-34.1,22.63c-11.69,8.21-23.21,16.71-34.48,25.49c-9.34,7.28-18.22,15.14-27.29,22.77
		c-7.87,6.63-15.82,13.19-23.53,20c-5.79,5.11-11.33,10.52-16.89,15.89c-14.82,14.32-30.02,28.29-44.26,43.17
		c-12.18,12.73-23.32,26.47-34.75,39.9c-5.42,6.37-10.67,12.92-15.61,19.66c-6.69,9.13-13.06,18.49-19.49,27.81
		c-4.23,6.14-8.4,12.32-12.45,18.57c-3.99,6.15-7.91,12.36-11.69,18.65c-11.02,18.31-22.15,36.56-32.83,55.06
		c-5.08,8.79-9.43,18.03-13.74,27.23c-1.89,4.04-2.86,8.5-4.27,12.85c-4.12,1.38-4.64-2.69-6.97-4.31
		c6.6-15.67,12.57-31.45,22.65-45.13c0.24,0.1,0.48,0.2,0.71,0.3c0-0.87,0-1.75,0-2.04c3.84-5.68,7.38-10.92,10.92-16.17
		c-0.25-0.2-0.51-0.41-0.76-0.61c0.86-0.48,1.72-0.96,2.29-1.28c2.38-4.1,2.27-9.31,7.27-11.61c-0.89-5.84,3.85-9.04,5.95-13.47
		c1.31-2.76,3.2-5.24,5.14-7.55C511.98,806.34,515.17,802.66,518.27,799.08z"/>
	<path d="M506.28,1132.8c2.49-0.78,4.37-1.37,6.29-1.98c1.13,1.36,2.12,2.24,2.71,3.34c7,13.04,15.69,25.14,21.45,38.87
		c4.93,11.77,9.71,23.61,15.1,35.17c9.16,19.62,18.72,39.06,28.16,58.55c9.88,20.41,20.02,40.71,29.66,61.23
		c5.48,11.66,10.19,23.67,15.23,35.53c5.25,12.34,10.77,24.56,15.64,37.04c7.88,20.16,15.32,40.49,22.95,60.75
		c4.09,10.84,8.18,21.68,12.3,32.5c0.36,0.93,0.91,1.79,1.68,3.26c1.91-1.15,3.66-2.09,5.29-3.2c11.28-7.67,22.63-15.25,33.76-23.14
		c4.7-3.33,9-7.26,13.37-11.04c8.16-7.06,16.32-14.13,24.34-21.36c8.55-7.71,15.53-16.8,22.69-25.79
		c13.09-16.43,23.86-34.23,33.12-52.98c5.76-11.66,10.96-23.6,13.85-36.33c2.67-11.74,3.58-23.74,2.85-35.75
		c-0.48-7.95-2.24-15.75-4.84-23.36c-2.95-8.64-5.66-17.37-8.36-26.1c-2.16-6.96-6.81-11.91-12.24-16.49
		c-8.63-7.27-18.65-9.41-29.57-9.1c-10.76,0.31-21.35,1.66-29.8,8.87c-6.43,5.48-12.58,11.54-17.81,18.16
		c-15.92,20.15-28.35,42.41-37.41,66.45c-1.97,5.23-2.93,10.91-3.8,16.48c-1.59,10.18-2.85,20.42-4.07,30.65
		c-0.5,4.21-0.54,8.48-0.83,13.51c-0.4,0.32-1.3,1.02-2.65,2.08c-2.39-0.77-4.99-1.6-7.28-2.34c-2.26-16.28-4.83-31.68-11.48-46.14
		c-2.73-5.94-4.27-12.42-6.8-18.47c-3.88-9.26-8.21-18.34-12.23-27.54c-3.92-8.97-7.39-18.16-11.62-26.98
		c-6.11-12.74-9.36-26.42-13.9-39.68c-3-8.76-6.18-17.47-8.89-26.32c-4.06-13.3-7.73-26.71-11.66-40.05
		c-0.94-3.2-2.39-6.26-3.4-9.45c-0.57-1.8-0.72-3.73-1.2-6.35c-4.46-11.43-9.2-23.6-14.15-36.31c1.85-1.96,4.57-2.78,8.31-2.14
		c0.89,1.59,2.14,3.25,2.82,5.12c4.38,11.97,8.98,23.87,12.88,36c8.7,27.07,17.05,54.26,25.53,81.41
		c5.11,16.37,10.92,32.44,18.25,48c7.03,14.91,13.46,30.11,19.82,45.32c3.52,8.42,6.36,17.12,9.54,25.69
		c0.2,0.55,0.64,1.02,1.45,2.28c0.59-2.8,1.17-4.83,1.43-6.9c1.46-11.51,5.69-22.09,10.29-32.65c7.57-17.36,17.39-33.37,28.22-48.78
		c7.44-10.58,16.03-20.23,27.03-27.27c8.78-5.61,18.7-7.69,29.05-8.21c8.74-0.44,17.39,0.44,25.58,3.09
		c11.81,3.81,22.17,10.28,27.34,22.23c6.81,15.74,12.27,31.98,15.28,48.94c1.45,8.19,1.17,16.43,0.26,24.64
		c-1.8,16.24-7.06,31.45-13.41,46.44c-7.12,16.84-16.46,32.33-26.74,47.32c-4.06,5.93-8.69,11.47-13.13,17.13
		c-4.21,5.36-8.33,10.8-12.83,15.9c-3.2,3.62-6.91,6.81-10.49,10.08c-4.36,3.99-8.73,7.98-13.27,11.76
		c-8.2,6.84-16.35,13.76-24.87,20.2c-6.56,4.96-13.74,9.08-20.45,13.85c-6.8,4.84-13.35,10.03-20.05,15.02
		c-1.33,0.99-2.71,2.12-4.25,2.56c-4.58,1.3-6.61-0.13-8.29-4.73c-2.93-7.98-6.13-15.86-9.08-23.84c-3.22-8.7-6.4-17.41-9.35-26.2
		c-1.55-4.62-2.46-9.46-3.9-14.13c-0.82-2.66-2.11-5.17-3.19-7.75c-7.01-16.76-13.99-33.53-21.03-50.28
		c-4.69-11.17-9.26-22.4-14.26-33.43c-7.99-17.6-16.2-35.09-24.49-52.55c-4.42-9.31-9.21-18.43-13.82-27.65
		c-4.27-8.53-8.56-17.05-12.75-25.62c-4.76-9.73-9.67-19.39-14.04-29.28c-4.78-10.82-8.8-21.98-13.53-32.82
		c-5.01-11.45-10.6-22.63-17.69-33c-1.59-2.33-2.99-4.83-4.16-7.39C506.23,1136.17,506.45,1134.66,506.28,1132.8z"/>
	<path d="M1232.92,1298.11c0.85-1.53,1.39-2.4,1.84-3.31c5.66-11.31,11.94-22.21,20.24-31.85c3.18-3.69,5.81-7.86,9.02-11.52
		c5.24-5.98,10.64-11.84,16.19-17.52c6.57-6.72,13.31-13.28,20.09-19.79c7.57-7.26,15.09-14.59,22.99-21.48
		c8.42-7.35,17.26-14.22,25.9-21.32c0.89-0.73,1.63-1.64,2.51-2.38c1.92-1.62,3.89-3.19,5.84-4.77c2.08-1.67,4.18-3.32,6.26-5
		c3.38-2.74,6.67-5.6,10.13-8.23c4.07-3.1,8.29-6.01,12.43-9.02c3.83-2.79,7.51-5.8,11.48-8.37c6.57-4.26,13.34-8.21,19.99-12.35
		c4.66-2.9,9.21-5.98,13.9-8.84c5.47-3.34,10.94-6.72,16.6-9.74c7.27-3.87,14.7-7.46,22.13-11.04c1.82-0.88,3.88-1.26,5.83-1.87
		c0.61-0.19,1.41-0.2,1.79-0.61c4.82-5.08,11.44-6.68,17.57-9.22c9.03-3.74,17.92-7.92,27.14-11.11
		c14.57-5.03,29.35-9.49,44.64-11.87c6.09-0.95,12.2-1.99,18.33-2.32c15.16-0.8,30.38-1.46,45.44,0.76
		c12.61,1.86,25.45,3.29,36.98,9.59c5.71,3.12,10.25,6.81,13.98,11.78c2.31,15.3,2.23,30.51-1.48,45.63
		c-2.3,9.36-3.81,18.96-6.75,28.11c-4.45,13.81-9.26,27.55-16.21,40.4c-0.69,1.28-1.13,2.71-1.75,4.22
		c20.61,1.26,30.1,19.82,25.09,38.35c0.98-0.41,1.73-0.71,2.46-1.04c3.63-1.62,7.3-3.15,10.86-4.9c2.05-1.01,3.93-2.34,5.87-3.57
		c1.73-1.1,3.36-2.39,5.15-3.36c7.43-4.02,14.89-8,22.39-11.9c1.79-0.93,3.76-1.49,6.19-2.44c1.27-1.87,3.27-3.62,6.4-4.07
		c1.24-0.18,2.27-1.54,3.47-2.26c1.67-1,3.41-1.89,5.29-2.54c3.74-5.04,8.65-8.16,14.81-8.83c1.62-1.27,3.08-2.42,4.54-3.56
		c0.11,0.11,0.21,0.22,0.32,0.33c0.66-1.08,1.31-2.16,2.05-3.37c1.34-0.33,2.7-0.66,3.34-0.81c2.56-1.58,4.56-2.73,6.46-4.01
		c3.28-2.22,6.47-4.59,9.77-6.79c1.59-1.06,3.54-1.65,4.97-2.86c5.09-4.31,10.04-8.79,15.03-13.22c0.75-0.67,1.47-1.38,2.72-2.56
		c1.65,1.92,3.14,3.65,5.02,5.84c-2.92,3.35-5.26,6.59-8.13,9.25c-11.72,10.86-23.68,21.47-35.41,32.32
		c-9.45,8.74-18.73,17.67-28.03,26.58c-10.97,10.51-21.97,20.98-32.78,31.65c-10.89,10.74-21.64,21.62-32.29,32.6
		c-6.54,6.74-12.82,13.73-19.13,20.69c-1.55,1.71-2.78,3.7-4.26,5.71c-1.17,0.26-2.4,0.54-4.25,0.96c-1.42-1.67-2.92-3.43-4.75-5.58
		c3.4-3.91,6.34-7.43,9.44-10.81c4.6-5.02,9.26-10,13.99-14.89c2.85-2.94,5.89-5.7,8.85-8.53c4.64-4.45,9.38-8.8,13.91-13.36
		c7.76-7.82,15.34-15.81,23.09-23.64c3.53-3.57,7.15-7.06,10.93-10.35c4.24-3.69,8.73-7.07,13.05-10.67
		c1.27-1.06,2.26-2.46,3.47-3.6c7.5-7,15.01-13.99,22.57-20.93c1.5-1.37,3.23-2.49,5.39-4.12c0.55-0.97,1.44-2.52,2.32-4.08
		c-0.11-0.17-0.22-0.35-0.33-0.52c-1.61,1.04-3.24,2.06-4.83,3.13c-4.38,2.94-8.76,5.89-13.11,8.87c-1.27,0.87-2.43,1.89-3.69,2.78
		c-2.39,1.68-4.77,3.38-7.22,4.96c-2.9,1.87-5.85,3.65-8.81,5.43c-6.59,3.95-13.17,7.93-19.8,11.81
		c-6.49,3.79-12.74,8.22-19.65,10.97c-4.91,1.95-7.91,6.58-13.53,7.69c-2.74-0.19-3.94-2.52-4.84-5.56
		c-2.24,2.95-1.3,7.21-5.12,8.66c-5.27-0.54-7.92-5.15-5.55-9.92c2.86-5.76,4.38-11.78,4.14-18.26c-0.3-8.41-7.03-13.86-15.23-11.99
		c-3.37,0.77-6.64,1.97-10.1,3.02c-5.16-1.84-6.58-6.14-4.24-11.05c5.99-12.56,11.87-25.18,17.39-37.94
		c4.4-10.16,7.07-20.89,9.54-31.7c2.41-10.55,5.24-21.03,4.94-31.92c-0.14-5.23-1.11-10.48-2.2-15.62c-0.35-1.63-2.08-3.24-3.58-4.3
		c-6.85-4.89-14.8-7.35-22.86-8.96c-8.8-1.76-17.78-2.85-26.73-3.6c-10.39-0.88-20.81-0.49-31.24,0.18
		c-17.19,1.09-33.92,4.41-50.34,9.45c-6.49,1.99-12.94,4.17-19.31,6.51c-22.06,8.08-43.06,18.44-63.87,29.32
		c-20.04,10.48-39,22.66-57.61,35.36c-12,8.19-23.04,17.77-34.83,26.29c-9.92,7.17-18.77,15.58-27.97,23.54
		c-21.53,18.63-42.5,37.91-61.24,59.48c-9.16,10.55-17.32,21.76-24.78,33.54c-3.93,6.2-7.41,12.59-9.24,20.56
		c-1.82-0.22-3.82,0.01-5.34-0.73c-10.23-4.98-21.4-6.26-32.32-8.63c-14.1-3.06-28.38-3.65-42.69-3.04
		c-7.77,0.33-15.59,0.9-23.19,3.08c-8.76,2.52-17.83,4.11-26.41,7.14c-16.15,5.71-32.06,12.06-45.87,22.64
		c-11.5,8.81-22.33,18.4-31.5,29.56c-7.02,8.54-12.35,18.33-16.88,28.47c-0.61,1.36-1.33,2.66-1.96,3.91
		c-3.73-1.03-5-3.04-4.01-6.31c0.97-3.2,2.01-6.41,3.4-9.43c3.6-7.84,8.12-15.05,13.3-22.05c7.16-9.67,15.91-17.62,25.05-25.01
		c8.55-6.91,17.74-13.57,27.66-18.12c13.84-6.34,27.87-12.74,43-15.76c8.69-1.74,17.38-3.9,26.17-4.58
		c10.99-0.86,22.11-0.83,33.13-0.34c7.53,0.34,15.02,1.96,22.47,3.33c6.71,1.24,13.36,2.84,20,4.43
		C1227.17,1296.09,1229.9,1297.15,1232.92,1298.11z"/>
	<path d="M631.87,1639.83c4.84-1.98,9.66-3.99,14.51-5.92c6.92-2.74,13.86-5.45,20.82-8.11c6.36-2.44,12.74-4.8,19.12-7.19
		c5.42-2.03,10.83-4.07,16.26-6.07c3.36-1.24,6.8-2.28,10.11-3.63c6.18-2.52,12.28-5.27,18.45-7.82
		c15.32-6.33,30.63-12.71,46.02-18.87c13.74-5.51,27.42-11.26,41.45-15.95c11.51-3.85,22.67-8.67,34.36-12.05
		c13.76-3.97,27.42-8.27,41.07-12.61c8.55-2.72,16.96-5.86,25.48-8.64c5.37-1.75,10.86-3.13,16.26-4.78
		c3.19-0.97,6.31-2.15,9.47-3.21c7.9-2.64,15.79-5.28,23.7-7.89c1.2-0.4,2.47-0.59,4.06-0.96c2.35-2.43,5.52-3.41,8.43-2.96
		c3.08-1.46,5.5-2.9,8.12-3.79c9.11-3.08,18.27-6.04,27.46-8.89c5.64-1.75,11.35-3.33,17.07-4.8c3.76-0.96,6.47,0.75,9.13,5.76
		c-7.35,5.88-14.81,11.85-22.73,18.18c2.22,1.09,4.16,1.89,5.94,2.96c1.99,1.2,3.21,2.97,2.74,5.96c-1.16,1.62-2.56,3.6-4.01,5.64
		c-1.2,0.2-2.32,0.39-3.83,0.64c-1.16-1.42-2.35-2.87-3.5-4.28c0.47-1.46,0.84-2.63,1.38-4.32c-1.07,0.27-1.75,0.33-2.34,0.6
		c-1.74,0.8-3.38,1.85-5.17,2.51c-4.74,1.76-8.54-0.87-9.02-6.53c5.69-4.62,11.58-9.41,17.47-14.19c-0.17-0.29-0.35-0.57-0.52-0.86
		c-4.06,1.23-8.13,2.4-12.16,3.71c-4.01,1.3-7.95,2.8-11.96,4.1c-4.23,1.37-8.57,2.44-12.76,3.94c-7.23,2.59-14.2,5.8-21.66,7.86
		c-7.11,1.97-13.85,5.25-20.9,7.53c-5.66,1.83-11.52,3.02-18.86,4.89c-1.66,1.2-5.12,2.22-8.85,2.9c-3.36,0.61-6.58,2.05-9.85,3.14
		c-8.53,2.82-17.07,5.59-25.57,8.47c-9.13,3.1-18.18,6.46-27.35,9.44c-8.53,2.77-17.2,5.12-25.76,7.81
		c-2.55,0.8-4.93,2.14-7.42,3.15c-10.23,4.12-20.44,8.28-30.72,12.28c-6.45,2.51-13.05,4.6-19.47,7.19
		c-5.54,2.23-10.91,4.88-16.36,7.35c-0.47,0.21-0.92,0.46-1.4,0.65c-8.33,3.33-16.67,6.66-25,10c-4.3,1.72-8.57,3.52-12.89,5.19
		c-14.12,5.46-28.29,10.79-42.37,16.35c-21.57,8.51-43.07,17.18-64.62,25.73c-4.31,1.71-8.68,3.26-13.05,4.8
		c-4.63,1.63-7.74,0.04-11.03-5.76c2.66-1.2,5.37-2.24,7.91-3.6c8.51-4.57,17.04-9.13,25.42-13.94c9-5.18,17.83-10.63,26.72-15.99
		c3.74-2.25,7.32-4.79,11.16-6.84c11.85-6.34,23.27-13.39,34.72-20.4c7.74-4.74,15.51-9.41,23.22-14.19
		c11.3-7.02,22.54-14.15,33.84-21.16c1.56-0.97,3.38-1.53,4.36-1.97c2.88-2.15,5.09-4.04,7.52-5.56c5.02-3.12,10.19-5.98,15.24-9.05
		c6.68-4.06,13.33-8.18,19.95-12.34c4.55-2.86,8.99-5.91,13.56-8.74c8.19-5.08,16.48-10,24.66-15.11
		c8.16-5.1,16.22-10.37,24.33-15.54c7.14-4.55,14.28-9.08,21.44-13.58c4.99-3.13,10.01-6.22,15.05-9.29
		c6.88-4.18,13.72-8.43,20.7-12.43c3.19-1.82,6.89-2.77,9.98-4.73c8.36-5.3,16.52-10.91,24.74-16.45c3.08-2.07,6.02-4.37,9.15-6.35
		c1.11-0.7,2.62-0.78,3.66-1.07c6.65-4.98,13.14-9.84,19.96-14.95c0.57-0.13,1.56-0.36,3.28-0.76c-0.58-3.95-1.15-7.9-1.61-11
		c1.06-2.69,1.65-4.66,2.59-6.44c1.66-3.14,2.58-6.8,5.98-8.8c0.6-0.36,1.09-1.12,1.36-1.81c2.04-5.26,6.89-6.8,11.52-8.08
		c3.18-0.88,5.74,1.29,8.16,4.6c-9.13,0.16-14.95,4.8-18.93,11.9c-4,7.13-5.91,14.41,0.62,22.07c-1.17,1.03-2.11,2.11-3.27,2.84
		c-6.51,4.13-13.08,8.16-19.63,12.25c-9.15,5.71-18.33,11.38-27.43,17.16c-6.4,4.07-12.64,8.39-19.06,12.42
		c-4.89,3.06-9.99,5.78-14.94,8.76c-6.95,4.18-13.82,8.49-20.75,12.69c-9.45,5.72-18.98,11.3-28.36,17.12
		c-7.98,4.94-15.76,10.21-23.72,15.17c-6.33,3.94-12.84,7.59-19.21,11.47c-10.66,6.51-21.25,13.14-31.89,19.68
		c-10.05,6.18-20.15,12.29-30.17,18.5c-2.84,1.76-5.45,3.9-8.29,5.67c-11.4,7.13-22.84,14.21-34.28,21.27
		c-11.36,7.01-22.68,14.08-34.13,20.95c-7.49,4.49-15.17,8.65-22.74,13.02c-5.9,3.4-11.77,6.84-17.61,10.35
		c-1.16,0.69-2.1,1.74-3.14,2.62C631.47,1639.16,631.67,1639.5,631.87,1639.83z"/>
	<path d="M1379.98,1049.67c-0.72,2.71-1.14,5.54-2.2,8.1c-3.24,7.85-6.65,15.57-12.17,22.27c-3.14,3.81-5.15,8.53-7.75,12.8
		c-1.67,2.75-3.41,5.45-5.21,8.11c-4.68,6.92-9.02,14.06-15.04,20.02c-9.41,9.3-18.24,19.22-27.95,28.19
		c-6.47,5.98-14.24,10.55-21.08,16.17c-9.32,7.65-19.92,13.25-30.01,19.67c-0.54,0.34-1.16,0.68-1.52,1.18
		c-3.37,4.74-8.06,4.17-13.07,3.42c-0.23-0.9-0.76-1.81-0.61-2.57c1.05-5.17-0.75-9.96-1.96-14.78
		c-3.31-13.22-6.83-26.38-10.28-39.57c-5.67-21.64-11.5-43.24-16.99-64.93c-6.19-24.44-12.27-48.88-20.06-72.89
		c-7.03-21.66-13.42-43.54-20.12-65.31c-1.02-3.32-2.2-6.6-3.4-10.17c0.51-0.85,1.08-1.8,1.45-2.42c2.42-1.08,5.9,0.05,7.58,2.44
		c1.1,1.56,2.06,3.32,2.62,5.14c3.57,11.55,6.95,23.15,10.5,34.7c2.19,7.12,4.39,14.25,6.89,21.26c5.94,16.72,11.5,33.55,15.7,50.81
		c2.94,12.11,6.25,24.14,9.26,36.24c0.8,3.22,1.05,6.57,1.63,9.85c0.29,1.64,0.67,3.28,1.16,4.88c2.35,7.61,4.87,15.16,7.09,22.81
		c1.79,6.15,3.27,12.38,4.83,18.59c2.81,11.2,5.5,22.44,8.4,33.62c1.88,7.25,4.05,14.42,6.28,22.29c2.41-1.25,4.57-2.25,6.62-3.44
		c15.28-8.92,29.66-19.16,43.03-30.72c14.15-12.24,27.13-25.62,38.15-40.87c9.46-13.09,17.59-26.97,24.89-41.29
		c5-9.8,7.99-20.49,9.79-31.44c0.83-5.06,2.28-10.02,3.1-15.09c1.17-7.23,2.47-14.48,2.91-21.77c0.5-8.32,0.82-16.77-0.07-25.02
		c-1.11-10.25-3.62-20.37-10.93-28.35c-2.24-2.45-4.99-4.45-7.58-6.55c-5.29-4.29-11.3-4.82-17.88-3.9
		c-13.81,1.93-24.67,9.12-34.63,18.27c-9.76,8.96-17.49,19.4-24.83,30.42c-7.54,11.34-12.73,23.55-17.14,36.19
		c-2.53,7.27-4.36,14.81-4.29,22.68c0.02,2.05-0.79,4.11-1.34,6.79c-3.23-0.56-5.75-1-8.18-1.42
		c-3.48-16.88-11.57-31.25-18.03-46.24c-4.48-10.4-9.9-20.4-14.18-30.88c-5.31-12.99-9.87-26.29-14.76-39.46
		c-0.62-1.67-1.27-3.32-1.88-4.92c5.01-3.73,8.8-3.1,10.83,2.26c2.31,6.13,3.8,12.56,5.95,18.75c4.24,12.17,8.94,24.1,15.31,35.42
		c4.27,7.59,7.07,16.01,10.52,24.07c2.43,5.68,4.85,11.38,7.29,17.06c0.24,0.56,0.62,1.06,1.3,2.2c0.66-1.66,1.23-2.75,1.55-3.91
		c3.6-13.12,8.75-25.61,16.14-37.03c5.58-8.63,11-17.52,17.72-25.23c9.58-10.99,20.48-20.9,34.49-26.1c9.55-3.54,19.48-5.82,29.9-4
		c5.85,1.02,10.51,4.28,14.9,7.79c10.24,8.18,15.65,19.22,17.61,32.01c1.57,10.2,2.49,20.45,0.91,30.73
		c-1.72,11.14-2.38,22.45-5.86,33.31c-1.36,4.24-1.6,8.82-2.62,13.19c-0.51,2.17-1.61,4.21-2.45,6.3
		C1380.15,1049.48,1380.06,1049.58,1379.98,1049.67z"/>
	<path d="M1383.46,1368.01c0.35-1.39,0.66-2.46,0.88-3.54c1.41-6.89,3.87-13.31,7.86-19.17c1.35-1.98,1.99-4.42,3.17-6.53
		c6.62-11.9,12.88-24.03,20.08-35.57c7.54-12.09,17.3-22.26,29.28-30.27c9.2-6.15,18.55-11.8,29.16-15.27
		c5.51-1.8,10.99-1.4,16.42-0.62c4.94,0.72,10.11,6.78,10.4,11.67c-1.13,0.06-2.35,0.41-3.38,0.11c-2.08-0.61-4.16-1.4-6.06-2.44
		c-3.51-1.92-7.15-1.98-10.88-1.15c-9.16,2.03-17.38,6.25-25.39,10.95c-9.58,5.61-17.58,13.13-24.72,21.45
		c-10.6,12.37-18.95,26.31-26.11,40.92c-3.85,7.85-7.33,15.89-11.1,23.78c-1.8,3.76-2.2,7.64-1.63,11.66
		c0.31,2.2-0.11,3.81-2.41,4.56c-3.35-1.94-6.66-3.88-10-5.78c-9.19-5.23-19.2-6.83-29.47-5.37c-6.72,0.95-13.04,3.65-18.9,7.39
		c-6.5,4.15-11.98,9.26-16.7,15.29c-6.75,8.64-11.55,18.19-13.75,29c-0.36,1.75-1.14,3.4-1.62,5.13c-0.54,1.95-1,3.93-1.45,5.9
		c-0.29,1.29-0.51,2.61-0.9,4.63c-3.17-2.8-3.5-5.95-3.31-8.8c0.52-7.58,1.79-15.08,4.46-22.25c3.78-10.12,9.25-19.19,17.01-26.81
		c5.85-5.74,12.82-9.91,19.81-14.03c1.04-0.61,2.43-0.62,3.62-1.03c15.57-5.45,30.04-2.39,43.89,5.61
		C1382.04,1367.62,1382.43,1367.68,1383.46,1368.01z"/>
	<path d="M280.41,336.17c3.54-0.39,6.43-0.7,9.4-1.03c1.51,8.71,2.89,17.07,4.42,25.4c0.69,3.79,1.86,7.51,2.45,11.31
		c0.9,5.85,1.36,11.77,2.22,17.63c1.6,10.95,3.21,21.91,5.09,32.81c3.21,18.64,6.69,37.24,9.92,55.88
		c3.19,18.38,6.11,36.8,9.33,55.18c2.91,16.61,6.1,33.17,9.1,49.77c1.08,5.96,1.99,11.94,2.91,17.92c0.17,1.08,0.02,2.21,0.02,3.73
		c-2.34,0.1-4.19,0.19-6.23,0.28c-2.18-4.91-4.24-9.52-4.75-14.73c-0.39-3.96-1.08-7.9-1.8-11.82c-2.84-15.43-5.84-30.82-8.58-46.27
		c-2.13-12.01-3.96-24.07-5.95-36.1c-1.17-7.09-2.46-14.16-3.58-21.25c-0.91-5.79-1.45-11.65-2.5-17.41
		c-1.4-7.7-3.26-15.31-4.72-22.99c-2.23-11.73-4.59-23.44-6.31-35.25c-1.31-9.03-1.13-18.29-2.69-27.26
		c-1.61-9.22-1.15-18.8-4.65-27.69C282.54,341.81,281.61,339.31,280.41,336.17z"/>
	<path d="M284.51,666.31c-4.45,0.63-8.49-1.63-10.33-5.19c-7.02-13.61-14.18-27.15-21.2-40.76c-1.74-3.39-3.12-6.97-4.83-10.83
		c0.05-0.87,0.13-2.15,0.16-2.55c-3.14-5.55-6.35-10.25-8.55-15.39c-2.71-6.34-4.56-13.05-6.84-19.57c-0.5-1.44-1.28-2.79-1.92-4.18
		c-2.15-4.64-4.22-9.32-6.46-13.91c-1.63-3.34-3.49-6.56-5.26-9.83c-2.26-4.2-4.28-8.47-4.31-13.53c-3.26-4.66-6.55-9.44-6.6-15.62
		c-0.01-1.11-0.53-2.26-0.96-3.33c-2.6-6.4-5.32-12.76-7.83-19.19c-1.64-4.19-2.85-8.54-4.5-12.72c-2.26-5.73-4.92-11.3-7.08-17.06
		c-2.24-6-4.09-12.16-6.19-18.51c0.96-0.88,1.87-1.71,2.61-2.38c2.88,0.22,3.28,2.38,3.95,4.09c2.1,5.4,3.89,10.93,6.07,16.3
		c5.04,12.41,10.99,24.51,15.2,37.19c6.48,19.53,15.05,38.04,24.11,56.43c5.06,10.27,8.92,21.12,13.64,31.56
		c6.27,13.84,12.39,27.77,20.55,40.66c0.76,1.19,1.41,2.46,2.06,3.71c4.63,8.91,9.22,17.83,13.87,26.72
		C285.26,661.04,285.84,663.63,284.51,666.31z"/>
	<path d="M1149.26,630.83c-3.07,2.73-3.07,2.73-6.14,1.49c-0.17-2.34-0.3-4.88-0.56-7.4c-0.31-2.94-0.58-5.89-1.15-8.78
		c-1.26-6.3-2.62-12.58-4.09-18.83c-1.2-5.13-2.82-10.17-3.88-15.32c-1.88-9.07-3.45-18.2-5.19-27.29
		c-1.4-7.32-2.92-14.61-4.27-21.93c-3.16-17.07-6.3-34.14-9.36-51.23c-1.41-7.84-2.75-15.69-3.9-23.57
		c-0.63-4.31-0.81-8.69-1.2-13.06c2.33-2.16,3.18-2.3,7.84-1.03c0.36,1.38,1.01,3.04,1.2,4.75c0.86,7.79,1.22,15.64,2.43,23.37
		c3.17,20.36,6.18,40.75,11.03,60.81c0.69,2.86,0.72,5.88,1.23,8.79c0.59,3.38,1.42,6.73,2.07,10.1c0.36,1.88,0.45,3.81,0.85,5.69
		c1.38,6.52,3.01,13,4.23,19.56c1.24,6.67,1.97,13.43,3.17,20.11c0.68,3.79,1.73,7.52,2.8,11.22
		C1148.48,615.59,1149.22,623.09,1149.26,630.83z"/>
	<path d="M1102,572.65c-1.13-0.09-2.39-0.19-4.32-0.34c-1.13-2.51-2.83-5.04-3.42-7.8c-1.44-6.79-2.28-13.7-3.52-20.54
		c-1.24-6.83-2.59-13.63-4.02-20.42c-2.36-11.18-5.04-22.26-6.47-33.65c-1.16-9.28-3.4-18.46-5.64-27.57
		c-1.76-7.13-0.36-13.92,0.49-21.42c1.84,1.53,3.16,2.63,4.77,3.97c0.21,2.95,0.1,6.22,0.72,9.34c1.36,6.8,3.24,13.49,4.65,20.28
		c1.95,9.44,3.45,18.98,5.53,28.39c1.94,8.78,4.52,17.41,6.56,26.16c1.34,5.75,2.25,11.59,3.34,17.4c1.08,5.79,2.2,11.58,3.2,17.39
		C1104.4,566.9,1105.87,570.23,1102,572.65z"/>
	<path d="M1133.73,764.6c-1.07-0.27-1.57-0.36-2.05-0.53c-0.48-0.17-0.93-0.43-2.04-0.96c-6.05-19.17-12.24-38.77-18.54-58.71
		c0.69-0.74,1.54-1.64,2.22-2.36c5.71-0.31,7.45,0.64,9.03,5.53c3.19,9.91,6.19,19.88,9.27,29.82c1.68,5.4,3.49,10.76,5,16.21
		c0.67,2.43,0.74,5.02,1.1,7.6C1136.23,762.48,1134.98,763.54,1133.73,764.6z"/>
	<path d="M381.37,1612.73c0.29,7.42-4.31,12.12-9.93,16.1c-1.45,1.03-3.2,1.65-4.88,2.31c-7.61,3-14.26,1.25-19.26-5.19
		c-0.81-1.05-1.27-2.53-1.45-3.88c-0.9-6.51,0.68-12.53,4.13-18.06c1.84-2.95,3.35-3.35,6.77-2.76c1.81,0.31,3.72,0.06,5.98,0.06
		c-0.3,1.52-0.48,2.43-0.76,3.85C369.71,1604.24,377.1,1603.99,381.37,1612.73z M364.51,1609.7c-2.04-1.14-3.87-2.17-5.53-3.11
		c-6.1,5.46-7.19,16.91-2.02,20.06c6.42-1.66,11.56-5.41,15.39-11.01c1.58-2.32,1.28-4.34-1.44-5.94
		C368.77,1609.7,366.47,1609.7,364.51,1609.7z"/>
	<path d="M1200.98,1442.37c-8.73-0.75-14.23,4.11-19.7,9.46c-4.79,4.68-8.29,9.99-10.9,16.1c-1.53,3.59-1.83,6.89,0.04,10.36
		c0.73,1.36,1.4,2.77,1.9,4.23c0.33,0.96,0.28,2.04,0.41,3.13c-3.27,0.66-4.89-1.1-6.44-2.77c-6.14-6.64-6.52-16.17-1.94-23.97
		c3.3-5.63,7.87-9.97,12.16-14.67c5.02-5.5,11.7-6.68,18.56-7.29C1197.45,1436.73,1199.85,1439,1200.98,1442.37z"/>
	<path d="M403.92,1018.25c-3.15-1.29-5.65-2.32-8.62-3.54c4.05-10.47,9.03-19.79,14.11-28.68c1.76-0.43,2.87-0.71,3.88-0.96
		c2.65-4.97,5.26-9.88,8.21-15.42c1.09,3.73-0.67,6.16-1.86,8.44c-5.87,11.2-10.1,23-13.69,35.07
		C405.53,1014.58,404.86,1015.92,403.92,1018.25z"/>
</g>
</svg>
