<?xml version="1.0" encoding="utf-8"?>
<!-- Generator: Adobe Illustrator 27.4.0, SVG Export Plug-In . SVG Version: 6.00 Build 0)  -->
<svg version="1.1" id="Calque_1" xmlns="http://www.w3.org/2000/svg" xmlns:xlink="http://www.w3.org/1999/xlink" x="0px" y="0px"
	 viewBox="0 0 2000 2000" style="enable-background:new 0 0 2000 2000;" xml:space="preserve">
<g>
	<path d="M1274.6,1010.06c3.98-5.92,7.04-11.02,10.64-15.69c5.61-7.28,11.43-14.42,17.45-21.37c7.64-8.83,15.57-17.42,23.36-26.12
		c2.53-2.83,5.06-5.65,7.51-8.55c3.51-4.17,6.9-8.44,11.96-10.91c0.97-0.47,2.18-0.91,2.73-1.73c4.62-6.83,10.9-11.98,17.12-17.2
		c2.69-2.26,5.37-4.64,8.39-6.4c6.16-3.58,11.32-8.28,16.67-12.9c8.54-7.38,16.92-15.32,28.72-18.06c0.33-0.89,0.41-2.28,1.11-2.79
		c5.65-4.07,11.41-7.99,17.16-11.92c0.66-0.45,1.67-0.51,2.19-1.06c6.81-7.17,16.18-9.64,24.71-13.68c2.67-1.27,5.08-3.12,7.53-4.81
		c4.48-3.09,8.85-6.36,14.4-7.37c0.79-0.14,1.57-0.45,2.31-0.79c12.11-5.49,24.23-10.97,36.3-16.54c1.69-0.78,3.16-2.04,5.25-3.42
		c2.05,0,4.68,0,8.35,0c-1.18,1.22-1.68,2.15-2.43,2.44c-18.23,7.27-35.71,16.12-52.85,25.62c-13.56,7.52-26.82,15.57-40.21,23.39
		c-0.24,0.14-0.48,0.26-0.7,0.41c-14.85,10.52-30.01,20.63-44.47,31.65c-19.02,14.5-37.67,29.62-54.18,46.92
		c-14.83,15.54-28.58,32.16-42.11,48.87c-10.6,13.08-20.58,26.71-30.04,40.65c-21.99,32.39-40.05,66.8-51.12,104.56
		c-3.86,13.18-5.32,26.66-3.62,40.38c0.69,5.54,2.11,8.82,6.86,15.46c2.25-24.79,11.77-46.14,24.56-66.28
		c2.31-2.42,4.84-4.57,6.11-8.2c0.93-2.66,3.83-4.56,5.36-7.09c8.05-13.33,17.96-25.22,28.32-36.74
		c16.86-18.75,34.43-36.78,54.09-52.67c7.54-6.09,15.09-12.18,21.97-19.04c0.38-0.38,0.82-0.75,1.3-0.99
		c11.81-5.77,21-15.25,31.79-22.47c10.62-7.1,20.97-14.6,31.57-21.72c6.06-4.07,12.25-7.98,18.61-11.58
		c11.38-6.43,22.9-12.6,34.4-18.82c8.86-4.79,17.66-9.71,26.68-14.17c13.6-6.72,27.33-13.2,41.1-19.57
		c5.17-2.4,10.55-4.37,15.93-6.3c15.34-5.49,30.52-11.57,46.16-16.06c12.76-3.67,25.15-8.93,38.54-10.28
		c8.62-4.34,18.34-4.3,27.4-6.88c6.09-1.74,12.21-2.35,18.51-2.7c6.46-0.35,12.84-1.94,19.27-2.86c21.68-3.11,43.37-2.69,65.16-0.93
		c14.84,1.2,28.89,4.91,42.82,9.79c11.79,4.13,22.29,10.57,31.56,18.53c16.79,14.43,25.3,33,24.47,55.48
		c-0.95,25.73-9.94,48.36-26.68,67.76c-3.62,4.19-8.93,6.95-13.57,10.21c-0.72,0.51-2.03,0.16-3.48,0.23
		c0.2-3.45,2.49-5.05,4.36-6.79c6.41-5.99,11.8-12.79,16.37-20.27c7.95-12.99,12.11-27.25,14.67-42.12
		c2.33-13.56,0.77-26.5-5.18-38.96c-4.23-8.86-10.81-15.65-18.51-21.43c-14.62-10.96-31.32-16.96-48.98-21.09
		c-12.04-2.82-24.25-3.43-36.41-4.21c-13.8-0.89-27.73-0.52-41.47,1.42c-17.74,2.5-35.49,5.11-53.06,8.56
		c-13.58,2.67-26.86,6.9-40.34,10.12c-22.03,5.26-42.88,14.02-64.02,21.79c-16.56,6.09-32.31,14.39-48.32,21.91
		c-11.3,5.31-22.52,10.83-33.64,16.51c-6.04,3.09-11.87,6.63-17.69,10.14c-18.89,11.38-37.81,22.73-55.68,35.68
		c-8.38,6.07-16.48,12.52-24.94,18.46c-13.6,9.56-26.25,20.32-38.89,31.04c-31.72,26.92-59.4,57.55-82.46,92.21
		c-9.82,14.76-18.69,30.1-23.86,47.24c-0.36,1.21-0.56,2.47-1.18,5.31c2.42-1.85,3.77-2.54,4.66-3.61
		c5.94-7.07,11.05-15.05,17.84-21.15c9.92-8.9,17.36-20.04,27.92-28.38c9.7-7.66,18.11-16.93,27.43-25.1
		c5.86-5.13,11.83-10.27,19.01-13.65c1.44-0.68,2.79-1.74,3.93-2.87c5.58-5.56,11.65-10.43,18.2-14.85
		c9.42-6.36,18.19-13.69,27.67-19.95c10.17-6.72,20.83-12.7,31.3-18.96c2.56-1.53,5.39-2.68,7.79-4.43
		c8.63-6.26,18.64-9.95,28.01-14.74c11.01-5.64,22.92-9.52,34.43-14.18c1.26-0.51,2.57-0.95,3.75-1.61
		c10.02-5.61,20.96-8.69,31.91-11.77c10.68-3,21.31-6.17,31.96-9.26c1.57-0.46,3.12-1.07,4.72-1.32
		c24.96-3.88,49.93-7.86,75.33-6.62c23.7,1.16,46.49,5.92,66.99,18.5c14.42,8.84,26.07,20.43,33.32,36.02
		c4.38,9.43,5.99,19.32,3.84,29.46c-2.14,10.1-7.31,17.93-19.85,20.44c1.57-2.43,2.17-4.24,3.43-5.16
		c11.15-8.17,13.5-27.47,7.46-40.49c-6.02-12.98-15.16-23.18-27.1-30.87c-9.45-6.08-19.77-10.1-30.5-13.55
		c-15.29-4.91-30.86-5.45-46.63-5.57c-13.91-0.11-27.7,0.94-41.5,2.53c-16.56,1.9-32.53,6.3-48.56,10.56
		c-7.62,2.02-15.22,4.12-22.73,6.5c-5.17,1.63-10.24,3.64-15.23,5.76c-12.78,5.43-25.71,10.55-38.17,16.65
		c-16.12,7.9-32.07,16.21-47.67,25.09c-23.94,13.63-46.19,29.85-67.8,46.87c-30.22,23.81-58.62,49.61-83.83,78.78
		c-1.19,1.37-2.08,3-3.94,5.72c7.28-2.38,12.01-6.38,16.98-9.72c11.93-8.01,24.08-15.53,37.12-21.67
		c8.57-4.03,16.65-9.08,25.02-13.55c3.57-1.91,7.31-3.47,10.96-5.24c6.31-3.06,12.54-6.28,18.92-9.18
		c6.18-2.81,12.46-5.41,18.79-7.87c1.97-0.76,4.24-0.75,6.96-1.19c1.19-1.1,2.76-2.55,4.71-4.35c10.79-2.97,22.05-5.98,33.25-9.19
		c5.74-1.64,11.32-3.82,17.06-5.42c7.81-2.16,15.64-4.34,23.59-5.89c10.36-2.02,20.4-5.44,31.06-6.18
		c18.74-1.31,37.43-3.19,56.16-4.52c5.12-0.36,10.32,0.36,15.48,0.64c2.17,0.12,4.33,0.5,6.5,0.56c18.53,0.51,36.7,2.75,54.76,7.53
		c17.26,4.56,33.71,10.55,49.33,19.08c19.86,10.84,37.34,24.3,50.2,43.31c10.26,15.16,17.4,31.26,18.18,49.87
		c0.91,21.93-7.21,40.55-21.02,56.83c-14.95,17.62-33.94,29.63-55.65,37.29c-7.4,2.61-15.22,2.99-23.2,2.23
		c5.66-1.64,11.37-3.12,16.95-5c3.06-1.03,6-2.55,8.8-4.18c9.55-5.58,20.19-9.31,28.06-17.72c4.43-4.73,10.21-8.19,14.56-12.98
		c16.92-18.65,26.89-39.96,23.89-65.94c-0.83-7.17-3.32-13.86-6.48-20.12c-5.02-9.92-10.71-19.4-18.47-27.72
		c-4.83-5.18-9.95-9.98-15.14-14.73c-2.34-2.14-5.4-3.5-8.18-5.14c-7.94-4.71-15.78-9.64-23.91-13.99
		c-4.04-2.16-8.81-2.91-12.96-4.89c-14.66-6.98-30.41-9.75-46.19-12.4c-9.88-1.66-19.83-2.99-29.78-4.16
		c-4.25-0.5-8.59-0.42-12.88-0.26c-13.6,0.49-27.19,1.53-40.79,1.6c-11.47,0.06-22.44,2.98-33.65,4.45
		c-4.31,0.56-8.66,0.94-12.91,1.83c-7.17,1.5-14.33,3.08-21.37,5.09c-18.31,5.2-36.79,9.96-54.74,16.21
		c-16.15,5.62-32.07,12.23-47.41,19.78c-21.49,10.57-42.36,22.41-63.46,33.75c-2.09,1.12-4,2.57-5.55,4.78
		c5.87-1.76,12.19-2.66,17.51-5.46c11.22-5.92,23.23-8.8,35.4-11.51c5.82-1.29,11.52-3.13,17.36-4.31
		c9.31-1.88,18.8-2.99,28.02-5.21c9.87-2.38,19.92-2.69,29.9-3.62c12.74-1.19,25.5-1.37,38.29,0.4c8.9,1.23,17.82,2.01,26.44,4.81
		c12.21,3.95,24.2,8.29,35.17,15.14c27.06,16.89,45.04,40.35,53.5,71.36c3.94,14.43,4.71,28.98,4.75,43.68
		c0.05,17.5-1.94,34.81-6.76,51.67c-3.89,13.6-8.49,26.95-15.27,39.46c-3.59,6.63-6.7,13.53-10.51,20.02
		c-3.02,5.14-6.49,10.08-10.27,14.68c-4.77,5.81-7.68,13.26-14.73,17.11c-3.7,7.2-10.07,12.01-15.71,17.45
		c-8.8,8.48-18.19,16.22-27.8,23.81c-13.74,10.83-28.89,19.27-43.45,28.74c-8.07,5.24-16.71,8.78-25.33,12.66
		c-3.89,1.75-7.29,4.61-11.19,6.35c-6.92,3.09-14.06,5.71-21.1,8.55c-1.5,0.61-2.97,1.32-4.42,2.04c-1.46,0.72-2.82,1.74-4.35,2.24
		c-12.3,4.05-24.57,8.23-36.98,11.91c-9.21,2.73-17.67,6.17-25.13,12.75c-7.47,6.58-16.28,11.63-24.52,17.34
		c-4.69,3.25-9.33,6.56-14.1,9.69c-9.5,6.22-18.99,12.47-28.66,18.43c-8.77,5.4-17.74,10.49-26.7,15.57
		c-11.09,6.3-22.24,12.51-33.42,18.65c-8.33,4.58-16.71,9.08-25.16,13.45c-2.15,1.11-4.62,1.62-6.95,2.36
		c-3.09,0.99-5.82,2.43-8.62,4.25c-4.95,3.22-10.63,5.4-16.15,7.65c-7.8,3.18-15.72,6.05-23.62,8.99c-2.26,0.84-4.66,1.33-6.89,2.22
		c-5.25,2.09-10.89,2.86-15.95,5.83c-3.33,1.96-7.69,2.16-12.91,3.48c-3.64,3.48-9.81,3.6-15.69,4.19
		c-6.58,0.66-12.92,1.8-18.68,5.27c-2.46-0.29-4.92-1.06-7.23-0.75c-4.68,0.63-9.28,1.84-12.34,2.48
		c-4.94,0.21-8.35,0.29-11.75,0.53c-5.36,0.37-10.72,0.85-16.18,0.05c2.84-0.34,5.69-1.03,8.52-0.95c6.97,0.19,12.92-3.7,19.66-4.53
		c6.74-0.83,13.4-2.38,20.09-3.65c6.39-1.21,12.82-2.28,19.16-3.75c5-1.16,9.91-2.74,14.79-4.33c3.85-1.26,7.56-2.96,11.4-4.26
		c16.62-5.66,33.45-10.76,48.86-19.53c3.95-2.24,8.3-3.97,12.68-5.22c6.34-1.8,11.61-5.57,17.34-8.49
		c4.08-2.08,7.77-4.97,12.64-5.34c1.51-0.11,3.15-1.04,4.39-2.02c6.9-5.44,14.58-9.31,22.74-12.5c3.43-1.34,6.26-4.14,9.47-6.12
		c3.19-1.97,6.49-3.75,9.75-5.6c1.41-0.8,2.93-1.42,4.25-2.34c7.07-4.93,14.43-9.47,21.7-14.06c8.2-5.17,16.54-10.14,24.66-15.46
		c6.11-4.01,12.17-8.09,18.25-12.14c1.36-0.9,2.62-2.29,4.11-2.61c6.69-1.44,9.88-7.1,14.87-11.29c-1.39-0.75-2.31-1.24-3.39-1.82
		c-10.35,5.66-21.6,6.03-33.06,5c3.98-0.56,8-0.9,11.92-1.73c4.24-0.89,8.39-2.21,12.57-3.38c4.69-1.31,9.31-2.96,14.07-3.94
		c8.59-1.78,15.29-6.83,21.88-12.07c6.38-5.07,12.45-10.56,20.19-14.36c2.27-5.05,7.09-8.26,11.35-11.97
		c4.05-3.52,8.6-6.54,12.33-10.36c6.2-6.35,12.23-13,18.81-18.81c8-7.06,13.35-16.35,21.92-22.94c4.84-3.72,9.25-8.79,12.32-14.6
		c1.47-2.79,3.9-5.08,6.07-7.43c3.99-5.7,7.78-11.56,12.03-17.06c4.49-5.8,8.4-11.88,11.53-18.52c2.2-4.65,4.72-9.16,7.34-13.58
		c6.42-10.81,10.18-22.77,14.93-34.29c6.06-14.71,8.84-30.33,10.67-45.92c1.68-14.3,0.85-28.72-2.5-43.03
		c-2.66-11.37-7.49-21.59-13.25-31.44c-5.31-9.07-13.04-16.11-22.1-21.37c-16.27-9.44-34.05-14.38-52.64-16.53
		c-5.13-0.59-10.28-1.03-15.44-1.27c-19.54-0.92-38.5,2.78-57.31,7.44c-6.34,1.57-12.64,3.35-18.93,5.14
		c-2.5,0.71-4.93,1.72-7.24,3.78c4.01,0.41,8.05,0.7,12.04,1.26c12.03,1.68,23.39,5.17,33.02,12.94
		c8.66,6.99,13.3,16.28,15.39,27.06c2.92,15.05,0.84,29.58-3.49,44.13c-4.84,16.27-11.81,31.56-20.12,46.22
		c-6.42,11.31-13.69,22.09-21.6,32.53c-8.06,10.63-16.44,20.96-25.42,30.75c-12.68,13.83-26.09,26.9-40.64,38.89
		c-12.4,10.22-24.58,20.68-37.95,29.6c-11.06,7.38-22.35,14.44-33.71,21.37c-7.89,4.81-16.06,9.15-24.1,13.71
		c-1.18,0.67-2.23,1.73-3.49,2.08c-12.1,3.34-22.16,11.22-34.32,14.78c-10.6,3.11-20.99,7.1-31.67,10.13
		c-1.23,0.35-2.52,0.46-5.72,1.02c4.15-3.62,7.53-4.6,10.68-5.58c22.67-7.04,43.38-18.53,64.53-28.88
		c12.65-6.2,24.48-14.19,36.27-22.01c12.64-8.39,25.05-17.18,37.09-26.41c10.32-7.92,20.29-16.3,29.31-25.82
		c9.51-10.03,19.9-19.23,29.49-29.18c8.83-9.17,16.76-19.12,23.41-30.04c1.39-2.28,3.66-4,5.24-6.18
		c6.32-8.78,13.16-17.24,17.16-27.47c0.2-0.5,0.43-1.01,0.75-1.45c7.25-9.77,10.13-21.54,14.74-32.5c6.31-15.03,8.9-30.82,7.07-47.1
		c-0.45-3.98-1.98-7.88-3.35-11.7c-1.01-2.79-2.57-5.38-3.9-8.09c-12.08-11.56-27.35-14.67-43.31-15.7
		c-7.89-0.51-15.81-0.79-23.57,1.32c-0.99,0.27-1.94,0.69-4.35,1.56c2.85,1.4,4.54,2.39,6.34,3.08
		c12.43,4.76,20.72,12.98,21.93,26.8c0.57,6.49,1.02,13.06,0.68,19.56c-1.41,27.1-12.8,50.12-28.98,71.4
		c-13.63,17.91-29.71,33.34-47,47.38c-14.09,11.44-28.9,22.14-45.35,30.27c-6.06,3-11.57,7.13-17.6,10.19
		c-13.8,7-27.6,14.03-41.71,20.35c-16.83,7.54-34.02,14.28-50.98,21.53c-6.75,2.89-13.22,6.43-19.99,9.29
		c-11.39,4.82-21.41,12.55-33.74,15.41c-3.02,0.7-5.5,3.5-8.48,4.7c-5.25,2.1-10.7,3.72-16.07,5.53c-0.26,0.09-0.59,0.02-0.79,0.16
		c-8.2,5.56-17.46,8.42-26.87,11.21c-8.53,2.53-16.7,6.25-25.04,9.41c-2.03,0.77-4.13,1.38-6.32,2.1c-1.35-0.67-2.71-1.35-4.52-2.25
		c-0.72,1.48-1.33,2.74-2.06,4.21c-14.24,3.93-28.78,7.94-43.78,12.07c-1.12-0.37-2.63-0.88-4.13-1.38
		c-14.89,4.85-14.89,4.85-19.12,3.04c1.18-2.5,3.29-3.34,5.76-3.86c11.66-2.45,23.31-4.92,34.95-7.48c1.84-0.4,3.55-1.34,5.34-1.97
		c3.79-1.33,7.59-2.61,11.54-3.49c8.47-5.64,18.47-6.1,27.97-8.04c9.89-5.79,20-10.86,32.14-11.32c5.39-3.36,10.73-7.12,17.54-8.96
		c7.12-1.92,13.56-6.35,21.84-10.45c-1.74-0.79-2.71-1.58-3.11-1.36c-4.14,2.29-8.93,2.29-13.31,3.87
		c-6.56,2.37-13.62,3.37-20.46,4.96c-2.9,0.67-5.85,1.16-8.68,2.04c-12.55,3.91-25.66,4.5-38.53,6.54
		c-9.88,1.57-19.88,2.44-29.75,4.05c-9.69,1.57-19.36,2.78-29.21,2.71c-6.48-0.05-12.96,0.9-19.44,0.88
		c-7.48-0.02-14.85-1.41-22.28-3.86c1.33-0.22,2.75-0.87,3.96-0.59c10.81,2.5,21.68,0.58,32.51,0.61c3.26,0.01,6.52-0.31,9.78-0.39
		c10.93-0.27,21.49-3.19,32.26-4.6c6.99-0.92,13.94-2.16,20.89-3.37c14.7-2.54,29.22-5.87,43.7-9.46
		c8.42-2.09,16.97-3.69,25.33-5.97c9.93-2.72,19.74-5.89,29.57-8.96c5.65-1.76,11.24-3.69,16.86-5.53
		c8.45-2.77,16.95-5.3,25.13-8.94c4.61-2.06,9.93-2.45,14.21-5.58c2.79-2.04,5.68-3.97,8.66-5.73c6.97-4.12,14.03-8.11,21.05-12.17
		c0.94-0.54,1.84-1.14,2.73-1.76c5.33-3.73,10.99-7.06,15.89-11.28c11.28-9.71,25.5-15.52,35.41-26.99c0.35-0.4,0.83-0.71,1.31-0.97
		c12.75-7.19,21.87-18.6,32.23-28.44c13.21-12.54,23.97-27.33,33.25-43.11c1.92-3.26,4.22-6.29,5.88-8.74
		c2.73-6.68,5.22-12.67,7.63-18.7c4.47-11.16,7.82-22.63,8.37-34.71c0.26-5.71,0.11-11.44,0.05-17.17
		c-0.04-3.52-1.43-6.22-5.44-7.85c-0.62,1.46-1.37,2.57-1.54,3.75c-1.01,7.17-4.37,13.45-7.64,19.69
		c-8.25,15.76-18.69,29.99-30.74,43.07c-13.15,14.28-28,26.66-43.45,38.29c-17,12.79-35.02,24.02-53.9,33.87
		c-12.04,6.29-23.7,13.33-35.94,19.2c-15.68,7.52-31.74,14.26-47.69,21.22c-8.93,3.9-17.95,7.58-26.95,11.34
		c-2.25,0.94-4.49,2.01-6.83,2.65c-10.47,2.84-20.48,7.09-30.81,10.4c-10.8,3.46-21.92,5.9-32.57,9.92
		c-4.52,1.71-9.44,2.38-14.22,3.35c-10.36,2.11-20.72,4.28-31.13,6.1c-10.63,1.86-21.32,3.48-32.02,4.92
		c-4,0.54-8.11,0.18-12.15,0.44c-4.84,0.32-9.67,0.91-14.51,1.33c-10.76,0.92-21.5,0.63-33.56-0.09c-9.86,2.89-20.81-0.95-32.39-1.1
		c1.74-2.53,3.94-2.31,6-2.33c13.88-0.18,27.76-0.16,41.63-0.54c7.6-0.21,15.19-0.91,22.76-1.65c10.02-0.97,20.06-1.87,30-3.37
		c10.19-1.53,20.31-3.56,30.39-5.71c10.89-2.33,21.76-4.83,32.53-7.66c12.59-3.31,25.08-6.99,37.58-10.62
		c16.95-4.92,33.27-11.56,49.47-18.53c3.69-1.59,7.66-2.5,10.11-3.28c8.57-4.15,15.79-7.85,23.18-11.18
		c16.11-7.27,32.06-14.84,47.46-23.54c12.55-7.09,25.43-13.66,37.61-21.33c10.77-6.78,21.52-13.61,31.86-21.16
		c14.65-10.7,27.31-23.29,39.73-36.24c12.28-12.81,23.51-26.47,30.82-42.91c2.3-5.17,6.58-9.48,6.73-16
		c-2.74-4.94-6.49-9.31-11.12-13.33c-10.38-9.01-15.07-20.88-15.84-34.61c-1.35-24.17,6.64-46.07,15.7-67.77
		c7.99-19.15,17.74-37.39,28.51-55.08c3.25-5.34,6.99-10.39,10.47-15.6c2.41-3.61,4.61-7.36,7.18-10.85
		C1270.63,1014.24,1273.12,1011.74,1274.6,1010.06z M1535.85,1368.04c0.13,0.1,0.26,0.21,0.39,0.31c0.87-2.27,1.43-4.73,2.67-6.78
		c7.04-11.64,12.22-24.09,16.42-36.97c5.49-16.85,9.07-34.11,10.55-51.77c1.35-16.06,0.98-32.09-2.64-47.85
		c-2.75-11.97-6.73-23.66-13.48-33.98c-7.16-10.94-15.65-20.82-26.54-28.45c-9.17-6.42-18.46-12.61-29.01-16.47
		c-24.15-8.84-49.18-11.81-74.67-9.45c-16.23,1.5-32.41,3.97-48.5,6.7c-27.2,4.61-53.42,12.78-78.92,23.27
		c-3.68,1.51-7.23,3.37-10.83,5.07c2.53,1.09,4.72,1.2,6.7,0.62c4.65-1.35,9.23-2.98,13.81-4.6c12.61-4.47,25.67-7.08,38.88-8.5
		c10.8-1.16,21.73-1.37,32.6-1.38c10.85-0.01,21.64,1.31,32.17,4.12c3.67,0.98,7.19,2.53,10.87,3.48
		c29.94,7.67,50.25,26.4,61.36,54.81c9.87,25.23,10.55,51.46,5.36,77.85c-3.9,19.84-10.43,38.85-19.18,57.07
		c-11.83,24.63-26.87,47.24-44.39,68.12c-10.63,12.68-22.26,24.52-33.35,36.82c-4.04,4.48-8.25,8.67-12.17,10.15
		c-3.24,3.82-5.03,6.47-7.34,8.55c-6.81,6.15-13.75,12.16-20.78,18.06c-3.94,3.31-8.23,6.19-12.22,9.45
		c-2.07,1.69-3.81,3.77-6.68,6.66c12.11-1.39,21.23-8.72,31.48-8.52c3.68-1.47,6.69-2.68,9.7-3.87c1.77-0.7,3.81-1,5.27-2.1
		c5.79-4.38,12.36-6.77,19.23-8.48c4.23-2.89,8.59-5.51,13.17-7.66c5.15-2.41,11.32-3.41,15.51-6.88c3.52-2.92,7-4.68,10.89-5.61
		c7.22-7.16,7.22-7.16,12.19-8.35c8.58-8.37,17.94-13.93,26.3-20.66c8.48-6.83,17.06-13.49,24.58-21.37
		c7.68-8.05,15.68-15.89,22.56-24.59C1524.47,1386.44,1529.89,1377.02,1535.85,1368.04z M1247.7,1204
		c7.11,5.31,9.24,11.71,9.48,18.61c0.26,7.59,0.66,15.35-0.55,22.79c-2.92,18.1-9.17,35.25-18.13,51.24
		c-8.36,14.91-18.08,28.81-30.06,41.28c-7.51,7.82-14.9,15.71-22.98,22.93c-7.24,6.47-14.55,12.88-22.14,18.93
		c-4.84,3.86-10.25,7.01-15.4,10.48c-5.62,4.53-11.31,9-17.3,13.02c-5.96,4-12.23,7.56-18.36,11.31c5.93-0.48,10.12-4.26,15.04-6.56
		c5.26-2.46,10.67-4.58,16.87-7.21c0.19-0.34,0.95-1.76,1.36-2.52c3.76-2.07,6.87-3.71,9.92-5.46c5.87-3.4,11.45-7.47,17.64-10.12
		c5.26-2.25,9.78-5.42,14.6-8.26c9.33-5.48,16.39-14.33,26.99-17.69c0.95-1.86,1.37-4.05,2.7-5.09c7.45-5.84,13.9-12.67,20.59-19.31
		c9.9-9.82,18-21.01,26.32-32.07c2.61-3.46,5.32-7.02,7.03-10.95c4.73-10.93,9.71-21.77,11.81-33.7
		c1.95-11.11,2.19-22.17,1.14-33.34c-0.43-4.58-2.19-8.37-5.55-11.46C1270.16,1202.93,1260.06,1202.2,1247.7,1204z"/>
	<path d="M375.78,1352.37c1.33-4.06,2.21-8.34,4.06-12.15c5.58-11.5,11.33-22.92,17.38-34.17c8.16-15.15,19.26-28.3,29.47-42.04
		c2.58-3.48,5.86-6.44,8.8-9.66c4.39-4.81,8.79-9.51,12.45-15.03c3.54-5.34,8.59-9.72,13.19-14.31
		c7.29-7.29,14.29-14.96,22.23-21.47c15.73-12.92,30.93-26.51,48-37.81c22-14.57,44.46-28.25,68.57-39.06
		c8.16-3.66,16.97-6,24.85-10.14c10.26-5.4,21.59-7.26,32.32-11.02c12.51-4.39,25.76-6.65,38.71-9.75
		c5.02-1.2,10.11-2.13,15.16-3.25c12.78-2.84,25.68-4.75,38.79-5.14c4.59-0.14,9.24-0.41,13.74-1.25
		c15.45-2.87,30.94-1.64,46.45-1.04c24.03,0.93,47.77,3.79,70.86,10.77c8.59,2.6,17.13,5.35,25.62,8.25
		c13.91,4.75,25.79,12.95,36.43,22.84c7.86,7.31,12.9,16.37,11.79,27.54c-0.97,9.74-5.36,17.65-14.47,22.25
		c-1.08,0.55-2.41,0.62-5.26,1.3c2.13-2.97,3.11-4.8,4.52-6.21c5.54-5.54,7.57-12.56,8.08-19.98c0.54-7.82-2.76-14.27-8.71-19.36
		c-2.64-2.26-5.24-4.57-7.52-7.19c-5.35-3.15-10.4-7.04-16.1-9.3c-10.27-4.07-20.24-9.09-31.24-11.16c-2.13-0.4-4.23-1.02-6.31-1.65
		c-22.28-6.72-45.2-9.17-68.32-9.92c-12.49-0.41-25.04-0.43-37.51,0.26c-11.07,0.61-22.05,3.13-33.12,3.56
		c-11.29,0.43-22.09,3.09-32.95,5.39c-16.22,3.44-32.38,7.29-48.35,11.71c-9.39,2.6-18.29,6.93-27.57,10.01
		c-26.58,8.82-50.81,22.43-74.7,36.63c-20.64,12.27-39.55,27.03-57.6,42.87c-24.86,21.81-47.2,45.98-67.45,72.1
		c-14.4,18.57-26.94,38.33-37.2,59.49c-1.99,4.11-3.54,8.44-4.36,13.41c0.81-0.72,1.8-1.31,2.4-2.17
		c9.96-14.38,21.58-27.36,34.02-39.58c7.93-7.8,16.32-15.16,24.87-22.28c11.66-9.72,23.35-19.47,35.63-28.37
		c9.45-6.85,19.63-12.79,29.86-18.44c7.34-4.05,14.42-8.63,22.63-11.23c5.3-1.68,9.9-5.48,15-7.95
		c14.18-6.87,28.58-13.22,43.74-17.74c6.71-2,13.12-5.06,19.87-6.88c8.36-2.25,16.9-3.9,25.43-5.48
		c11.22-2.09,22.44-4.46,33.77-5.63c17.84-1.84,35.69-4.11,53.73-2.94c14.63,0.94,29.39,0.8,43.9,2.66
		c14.8,1.89,29.48,5.12,43.99,8.69c15.1,3.71,29.46,9.64,43.21,17.03c7.99,4.29,15.26,9.57,21.97,15.54
		c8.92,7.94,14.36,17.73,13.31,30.19c-0.74,8.76-4.93,15.43-12.44,19.99c-2.83,1.72-4.26,1.83-9.61,0.98
		c0.66-1.01,1.08-1.97,1.76-2.66c2.12-2.11,4.43-4.03,6.51-6.17c9.23-9.48,9.79-21.51,1.14-31.42c-7.6-8.7-16.98-15.28-27.3-20.32
		c-9.03-4.41-18.41-8.13-27.63-12.16c-0.5-0.22-0.96-0.58-1.48-0.69c-9.26-1.97-18.51-4.01-27.8-5.84
		c-6.34-1.25-12.7-2.47-19.1-3.26c-10.78-1.33-21.58-2.85-32.41-3.32c-13.33-0.58-26.82-1.3-40.01,0.15
		c-13.7,1.51-27.62,0.72-41.18,4.29c-8.57,2.26-17.71,2.3-26.36,4.32c-11.36,2.65-22.63,5.85-33.68,9.6
		c-12.1,4.1-23.84,9.25-35.84,13.66c-23.1,8.5-44.5,20.49-65.18,33.5c-16.05,10.1-31.36,21.45-45.66,34.2
		c-16.9,15.07-33.22,30.62-48.08,47.7c-1.57,1.8-2.95,3.76-3.63,6.65c2.57-1.63,5.12-3.31,7.73-4.89
		c16.32-9.85,32.23-20.48,49.1-29.27c16.31-8.5,33.55-15.09,51.17-20.83c18.69-6.09,37.53-11.32,56.76-15.05
		c19.19-3.72,38.33-7.6,57.93-9.25c22.33-1.88,44.62-2.38,66.87-0.74c18.96,1.4,37.92,3.71,56.45,8.32
		c14.52,3.61,29.05,7.2,43.43,11.3c6.51,1.85,12.65,4.96,18.99,7.42c18.35,7.13,35.78,15.94,51.82,27.48
		c13.27,9.55,24.3,20.92,31.42,35.78c2.79,5.83,3.82,11.91,1.7,18.21c-0.31,0.94-1.04,1.74-2.05,3.39c-1.91-3.23-2.1-6.11-2.57-8.89
		c-1.9-11.15-7.33-20.3-15.79-27.68c-5.33-4.65-10.86-9.07-16.21-13.7c-7.6-6.58-16.34-11.43-25.15-16.03
		c-8.38-4.38-17.13-8.08-25.83-11.8c-2.92-1.25-6.57-1.02-9.24-2.58c-8.64-5.03-18.39-6.2-27.73-8.76
		c-15.18-4.16-30.67-6.8-46.2-9.27c-16.93-2.69-33.98-5.01-51.05-4.64c-19.81,0.42-39.76-0.69-59.43,3.18
		c-5.06,1-10.33,0.85-15.39,1.83c-14.11,2.75-28.22,5.54-42.22,8.82c-13.74,3.23-27.49,6.56-40.92,10.83
		c-10.34,3.28-20.4,7.64-30.2,12.33c-14.72,7.05-29.11,14.82-43.64,22.28c-12.33,6.33-23.56,14.33-34.41,23.39
		c1.32-0.29,2.71-0.41,3.96-0.9c22.54-8.87,45.18-17.42,68.85-22.87c9.53-2.2,18.95-5.08,28.59-6.62
		c24.75-3.94,49.67-6.8,74.77-6.93c16.03-0.08,32.08,0.4,48.1,1.19c17.15,0.84,34,4.12,50.81,7.5c17.4,3.5,34.54,7.94,50.83,15.05
		c8.96,3.91,17.76,8.33,26.23,13.21c7.89,4.55,13.74,11.45,18.82,19.01c6.73,10.01,6.2,19.91,0.12,29.91
		c-3.5,5.75-8.34,10.01-14.46,12.76c-1.09,0.49-2.41,0.49-4.79,0.94c1.35-2.13,1.81-3.48,2.75-4.22c4.86-3.86,7.28-9.33,10.31-14.5
		c5.3-9.03,3.27-17.09-5.09-26.5c-2.7-3.04-5.82-5.78-9.07-8.21c-3-2.25-6.38-4.02-9.7-5.81c-4.76-2.57-9.65-4.9-14.4-7.48
		c-0.87-0.47-1.38-1.62-1.27-1.48c-4.69-1.26-8.42-1.89-11.87-3.24c-13.49-5.29-27.65-8.12-41.72-11.05
		c-31.05-6.46-62.54-8.22-94.2-7.38c-27.26,0.72-54.26,3.46-81.04,8.93c-34.09,6.95-66.76,17.87-98.14,32.77
		c-2.67,1.27-5.17,2.87-7.43,5.14c7.59-1.79,15.13-3.82,22.77-5.33c17.92-3.55,35.98-6.29,54.32-5.82
		c26.11,0.66,51.36,5.36,75.36,16.13c24.6,11.04,44.16,27.82,58.15,50.81c8.83,14.52,14.59,30.4,17.68,47.12
		c4.01,21.71,1.05,42.71-6.77,63.27c-5.25,13.82-12.03,26.84-20.4,38.88c-13.68,19.67-30.79,35.77-52.03,47.32
		c-9.36,5.09-18.8,9.83-29,12.99c-16.8,5.21-33.51,10.8-51.31,11.61c-5.14,0.24-10.3,0.77-17.03-1.3c6.57-0.8,11.51-1.32,16.42-2.01
		c9.14-1.28,18.28-2.52,27.38-4.04c3.44-0.57,6.89-1.57,10.12-2.89c8.03-3.27,15.95-6.84,23.91-10.29c7-3.03,13.72-6.49,19.76-11.26
		c8.45-6.67,17.75-12.01,24.97-20.55c5.68-6.71,12.48-12.38,17.6-19.88c5.68-8.32,10.81-16.87,15.5-25.72
		c6.82-12.87,9.99-27,13.31-40.99c1.3-5.47,1.45-11.39,1.13-17.05c-1.01-18.08-4.45-35.59-13.09-51.83
		c-9.51-17.87-21.87-33.01-38.98-44.25c-13.84-9.09-28.81-15.33-44.69-19.58c-25.6-6.86-51.46-8.65-77.65-3.78
		c-4.23,0.79-8.52,1.22-12.77,3.02c1.56,0.18,3.11,0.36,4.67,0.53c25.09,2.82,47.04,12.33,63.06,32.27
		c16.27,20.25,24.09,43.8,22.27,69.93c-1.56,22.4-8.84,43.02-21.1,61.88c-2.07,3.18-3.56,6.74-5.52,10
		c-8.34,13.87-19.2,25.7-30.19,37.47c-11,11.78-22.96,22.49-35.59,32.39c-14.34,11.24-29.2,21.84-45.13,30.78
		c-11.13,6.25-22.11,12.86-33.63,18.31c-13.99,6.62-28.51,11.92-43.48,16.24c-10.83,3.13-22.03,3.19-32.78,6.14
		c-2.82,0.78-5.97,0.59-8.95,0.47c-4.33-0.16-8.64-0.65-13.47-1.05c-1.04-0.89-2.43-2.09-3.77-3.25c-9.66,4.8-19.82,6.05-31.07,6.95
		c-5.59,2.72-12.3,4.27-19.65,3.5c-3.08-0.32-6.52,0.48-9.45,1.65c-5.61,2.24-11,2.23-16.65,0.38c-2.23-0.73-4.69-0.78-6.95-1.13
		c-0.04-0.71-0.13-1-0.05-1.24c0.06-0.2,0.29-0.47,0.47-0.49c11.57-1.24,23.14-2.5,34.71-3.64c1.87-0.18,3.79,0.17,5.99,0.3
		c7.73-4.53,16.35-6.74,25.42-7.48c1.87-0.15,3.78-0.58,5.55-1.21c6.91-2.44,13.82-4.9,20.63-7.58c7.8-3.08,15.49-6.44,23.26-9.61
		c6.74-2.75,13.58-5.26,20.27-8.14c2.93-1.26,5.59-3.15,8.33-4.82c3.24-1.98,6.36-4.16,9.64-6.07c9.38-5.45,19.73-9.7,27.98-16.5
		c7.74-6.39,17.67-9.7,23.98-17.85c7.78-2.45,11.27-10.69,18.67-13.78c1.86-0.78,3.09-3.01,4.66-4.51
		c5.7-5.41,11.63-10.6,17.09-16.25c5.83-6.04,12.18-11.91,16.61-18.92c11-17.43,22.79-34.55,28.67-54.71
		c4.1-14.05,5.39-28.33,3.7-42.87c-0.12-1.02-0.49-2-1.13-4.55c-1.04,2.32-1.59,3.28-1.92,4.32c-8,25.78-22.56,47.57-41.33,66.58
		c-7.79,7.89-16.59,14.8-25.02,22.03c-5.13,4.4-10.24,8.88-15.73,12.8c-11.71,8.35-23.43,16.71-35.58,24.38
		c-8.91,5.63-18.47,10.24-27.82,15.16c-5.96,3.13-12.07,5.98-18.89,7.81c-1.14,1.54-2.29,3.07-2.87,3.86
		c-4.27,1.57-7.65,2.64-10.88,4.04c-5.73,2.49-11.29,5.39-17.08,7.73c-3.97,1.61-8.19,2.57-12.42,3.45
		c-5.67,2.5-11.19,5.51-18.3,4.9c0.67-0.9,0.96-1.74,1.49-1.93c7.1-2.61,14.23-5.14,21.36-7.66c1.03-0.36,2.24-0.39,3.11-0.96
		c13.39-8.86,28.72-13.98,42.5-22.16c4.77-2.83,9.63-5.92,14.89-8.02c0.76-0.3,1.67-0.47,2.23-0.99c7.16-6.73,16.78-9.64,24.3-15.96
		c5.36-4.5,12.07-7.35,17.83-11.43c6.42-4.54,12.52-9.55,18.65-14.49c5.48-4.41,10.94-8.87,16.21-13.54
		c20.14-17.85,37.32-38.15,49.13-62.46c5.84-12.02,9.66-24.86,10.7-38.69c-4.21-13.55-11.19-25.78-22.76-34.71
		c-8.41-6.5-18-10.03-29.01-7.64c-2.9,0.63-5.92,0.68-9.26,1.04c-1.11-1.38-2.24-2.79-3.64-4.52c1.6-1.69,3.01-3.18,5.39-5.69
		c-3.46,0.6-5.64,0.97-8.01,1.38c-1.21-1.64-2.31-3.13-3.41-4.62c-1.5,0.49-2.96,0.97-4.13,1.35c-5.8-4.16-0.56-10.96-4.84-15.63
		c-0.31-0.02-1.03-0.19-1.71-0.07c-0.76,0.14-1.48,0.53-2.31,0.85c-3.8-2.57-6.09-6.04-7.72-10.27c-3.31-8.59-4.42-17.29-3.12-26.44
		c2.41-17.03,5.78-33.83,11.78-49.98c5.3-14.28,11.57-28.16,19.12-41.41c3.76-6.61,8.36-12.81,11.52-19.67
		c5.67-12.3,15.25-21.77,22.42-32.94c4.75-7.4,11.24-13.25,16.68-19.96c9.61-11.86,20.29-22.69,30.82-33.64
		c6.36-6.61,13.94-12.04,20.98-17.99c1-0.85,2.04-1.65,3.03-2.51c7.78-6.77,15.29-13.88,23.45-20.16c2.96-2.28,5.67-4.67,8.45-7.11
		c2.78-2.43,6.68-3.54,8.89-6.86c0.28-0.43,0.82-0.74,1.3-0.97c9.33-4.6,16.54-12.35,25.55-17.37c8.25-4.6,16.16-9.86,24.99-13.39
		c0.76-0.3,1.51-0.66,2.17-1.14c10.44-7.47,22.39-11.92,33.81-17.49c13.47-6.57,27.47-11.78,41.47-16.71
		c10.86-3.83,21.94-7.97,33.8-8.84c6.19-0.45,12.25-2.44,18.41-3.55c5.36-0.96,10.73-2.11,16.14-2.38
		c9.57-0.49,19.13,0.52,27.97,4.39c11.64,5.09,16,16.63,11.41,28.63c-3.45,9.03-10.6,18.26-20.64,26.45
		c-0.9-0.38-2.02-0.86-3.2-1.36c0.24-1.21,0.17-2.13,0.58-2.72c3.72-5.36,7.78-10.49,11.22-16.02c2.42-3.89,4.33-8.18,5.87-12.5
		c0.96-2.68,0.8-5.76,1.11-8.43c-6.23-6.13-13.3-8.51-21.07-9.23c-10.91-1.01-21.72,0.02-32.5,1.71
		c-30.08,4.71-58.6,14.67-86.18,27.08c-13.57,6.1-26.97,12.76-39.94,20.24c-21.98,12.68-42.88,26.97-62.82,42.53
		c-19.09,14.89-37.28,30.88-54.25,48.26c-15.83,16.21-30.18,33.58-44.05,51.45c-20.08,25.86-34.93,54.51-46.65,84.87
		c-6.39,16.56-10.92,33.7-12.68,51.44c-0.45,4.58-0.49,9.19-0.72,13.79C374.7,1352.17,375.24,1352.27,375.78,1352.37z
		 M260.94,1689.19c0.94,0.79,1.32,1.4,1.67,1.38c11.69-0.68,23.1-3.11,34.28-6.37c11.42-3.33,22.66-7.29,33.96-10.96
		c10.6-3.44,20.4-8.58,30.87-12.18c5.02-1.73,9.54-5.05,14.1-7.94c9.83-6.23,20.66-10.95,29.24-19.13c1.75-1.67,3.77-3.2,5.93-4.29
		c8.03-4.06,14.89-9.79,21.91-15.25c5.35-4.16,10.51-8.63,15.32-13.39c9.86-9.75,20.04-19.29,28.99-29.85
		c11.25-13.29,19.37-28.81,28.26-43.75c4.77-8.02,7.15-16.94,10.11-25.64c1.57-4.62,3.49-9.32,3.88-14.1
		c1.39-16.92,1.2-33.74-6.1-49.69c-4.22-9.22-9.04-18.15-16.07-25.38c-10.06-10.34-22.58-16.9-36.58-20.5
		c-1.31-0.34-2.79-0.05-5.34-0.05c1.6,2.11,2.46,3.12,3.18,4.21c3.92,5.93,7.7,12.06,8.95,19.1c1.23,6.93,1.39,14.04,2.16,21.06
		c0.47,4.31,0.58,8.81,1.93,12.86c7.14,21.52,5.4,43.01-0.3,64.32c-5.27,19.69-16.82,36.24-28.15,52.8
		c-8.96,13.09-20.5,23.8-32.03,34.49c-11.97,11.1-25.32,20.43-38.44,30.1c-10.89,8.02-22.33,15.1-33.84,22.04
		c-11.13,6.71-22.92,12.33-34.51,18.23c-3.61,1.84-7.66,2.82-11.29,4.63c-8.73,4.37-17.7,8.04-27.03,10.92
		C264.32,1687.39,262.8,1688.33,260.94,1689.19z M430.16,1390.97c12.29,6.1,20.68,15.08,28.55,26.17
		C456.51,1402.42,444.06,1391,430.16,1390.97z"/>
	<path d="M797.94,698.74c2.17-6.14,4.18-12.34,6.54-18.41c5.36-13.8,8.01-28.23,10.26-42.75c2.4-15.5,1.88-30.93-2.07-46.16
		c-0.41-1.57-0.99-3.11-1.52-4.65c-2.64-7.66-10.66-13.86-21.06-9.93c0.1,0.7-0.04,1.63,0.35,2.16
		c17.16,22.55,18.9,47.45,10.98,73.67c-8.87,29.35-25.9,53.74-46.78,75.72c-4.12,4.34-7.98,8.94-12.27,13.1
		c-9.92,9.62-19.88,19.22-30.1,28.52c-14.88,13.55-30.74,25.91-47.59,36.92c-11.14,7.28-22.68,13.93-33.96,20.99
		c-7.85,4.92-16.22,8.72-24.71,12.29c-0.75,0.31-1.53,0.65-2.15,1.15c-10.79,8.78-23.89,12.77-36.55,17.66
		c-6.57,2.54-13.15,5.05-19.72,7.61c-10.18,3.96-20.74,6.41-31.51,8.03c-0.45,0.07-0.97-0.34-1.62-0.59
		c0.53-0.64,0.9-1.56,1.52-1.76c10.83-3.62,21.84-6.76,32.49-10.82c10.16-3.87,19.95-8.68,29.9-13.1c0.49-0.22,0.9-0.65,1.4-0.83
		c14.17-5.05,26.4-13.93,39.95-20.27c10.51-4.91,19.9-12.16,29.95-18.1c11.22-6.63,21.46-14.64,31.69-22.6
		c10.94-8.51,21.45-17.61,31.82-26.82c8.75-7.76,17.61-15.54,25.43-24.2c14.01-15.52,28.29-30.83,38.91-49.19
		c5.33-9.22,10.28-18.51,14.35-28.31c5.87-14.13,6.73-28.99,6.07-44.02c-0.1-2.31-1.23-4.56-2.04-7.4
		c-0.63,0.98-0.88,1.19-0.92,1.43c-3.32,23.53-14.22,43.88-26.92,63.38c-17.2,26.41-38.58,49.25-61.65,70.56
		c-9.18,8.48-18.23,17.11-27.65,25.31c-6.14,5.35-12.8,10.12-19.31,15.03c-5.21,3.93-10.42,7.87-15.85,11.48
		c-9.74,6.48-19.57,12.81-29.48,19.02c-9.45,5.92-18.87,11.92-28.63,17.3c-13.57,7.48-27.38,14.53-41.22,21.5
		c-4.85,2.44-10.1,4.07-15.13,6.15c-16.36,6.76-32.78,13.35-49.99,17.68c-7.86,1.98-15.64,4.08-23.88,4.43
		c-5.88,0.25-11.67,2.27-17.55,3.23c-1.8,0.3-3.8-0.64-5.61-0.37c-1.76,0.27-3.39,1.37-5.18,2.15c-1.78-0.93-3.42-1.78-4.38-2.28
		c-13.81,3.83-25.98,0.59-37.86-5.64c1.44,0,2.93-0.23,4.32,0.04c11.82,2.28,23.58,2.73,35.68,1.7c14.99-1.27,29.79-3.53,44.19-7.4
		c9.35-2.52,19.03-4.13,28-8.53c8.5-4.17,17.84-6.59,26.7-10.06c4.79-1.88,9.31-4.44,14.05-6.49c5.22-2.26,10.54-4.29,15.83-6.41
		c1.01-0.4,2.24-0.51,3.02-1.17c10.05-8.59,22.56-13,33.63-19.86c7.15-4.43,14.28-8.92,21.43-13.28
		c7.58-4.63,14.63-10.07,22.45-14.37c6.85-3.76,13.15-8.68,19.27-13.61c12.28-9.89,24.7-19.68,36.27-30.36
		c14.19-13.1,28.03-26.65,41.19-40.79c12.98-13.94,24.94-28.96,34.9-45.17c8.8-14.31,16.47-29.52,20.09-46.2
		c1.2-5.54,1.51-11.35,1.52-17.03c0.01-7.27-2.11-9.48-10.12-12.07c-1.65,0.77-3.59,1.67-5.31,2.47c-2.15,3.78-1.8,8.32-4.93,11.34
		c-5.46-5.86-6.15-10.07-3.34-20.71c-0.9-1.25-1.98-2.76-3.16-4.4c-1.86,0.51-3.57,0.99-5.64,1.56
		c-11.64-10.55-21.43-22.31-27.11-37.11c-2.51-6.53-1.92-13.4-1.96-20.19c-0.08-12.59,2.95-24.77,5.1-37.06
		c0.51-2.92,1.56-5.79,2.71-8.54c4.11-9.79,7.71-19.88,12.75-29.19c7.37-13.61,15.31-26.98,23.93-39.84
		c8.92-13.32,18.05-26.69,28.7-38.6c10.66-11.92,20.29-24.96,33.09-34.93c2.97-2.31,5.16-5.61,8.07-8.02
		c7.32-6.06,14.94-11.75,22.26-17.8c11.35-9.37,23.7-17.27,36.33-24.75c12.4-7.34,25.16-13.93,38.19-20.15
		c11.12-5.32,22.65-9.41,34.19-13.22c11.77-3.89,23.86-7.13,36.41-8.71c11.09-1.39,22.12-2.84,33.28-3.02
		c19.49-0.31,38.63,1.55,56.65,9.82c18.04,8.28,30.74,21.17,35.54,40.95c0.37,1.54,1.13,2.99,1.86,4.89
		c3.51,0.52,6.96,1.21,10.44,1.52c8.14,0.73,15.97,2.57,23.91,4.57c10.31,2.61,20.37,5.8,30.23,9.59
		c16.66,6.42,32.04,14.85,43.29,29.43c9.97,12.92,14.38,27.47,12.93,43.57c-1.64,18.23-5.56,35.95-12.52,53.03
		c-6.98,17.13-16.62,32.47-28.89,46.15c-13.33,14.87-28.45,27.77-45.14,38.75c-17.46,11.49-36.22,20.08-57.01,23.32
		c-8.03,1.25-16.26,1.21-24.66,1.77c-1.54-1.36-3.07-2.72-4.68-4.13c0.78-0.63,1.15-1.17,1.55-1.2c9.76-0.82,19.52-1.57,29.27-2.36
		c1.08-0.09,2.2-0.2,3.22-0.53c15.3-4.96,30.01-11.12,43.73-19.74c21.68-13.62,40.6-30.29,56.26-50.46
		c9.71-12.5,18.51-25.87,23.26-41.05c4.62-14.76,8.55-29.83,9.4-45.48c1.03-18.89-6.73-33.75-20.46-46.01
		c-10.15-9.07-22.3-14.58-34.84-19.27c-16.65-6.22-34.09-9.43-51.48-12.75c-2.06-0.39-4.26-0.05-6.99-0.05
		c-0.72,14.04-4.22,26.68-16.73,34.69c-2.78-1.84-2.19-3.76-1.17-5.37c3.76-5.95,7.67-11.8,11.15-17.11c0-4.64,0-8.39,0-12.8
		c-2.13-0.5-4.14-1.29-6.18-1.38c-14.97-0.65-29.93-1.4-44.91-1.66c-24.93-0.44-49.36,3.56-73.73,8.45
		c-29.7,5.96-58.57,14.51-86.4,26.41c-33.15,14.17-62.72,33.97-88.96,58.61c-14.95,14.04-27.55,30.14-38.66,47.39
		c-10.21,15.87-18.4,32.77-25.51,50.2c-7.41,18.15-9.67,37.07-8.41,58.36c1.59-2.36,2.34-3.26,2.87-4.29
		c5.13-9.92,9.96-20,15.39-29.75c7.33-13.16,17.45-24.29,27.1-35.72c5.44-6.44,11.11-12.69,16.83-18.89
		c2.57-2.78,5.48-5.25,8.29-7.81c15.94-14.55,33.66-26.74,51.86-38.17c9.41-5.91,19.62-10.55,29.48-15.72
		c7.92-4.16,16.01-8,23.75-12.47c6.37-3.68,13.49-4.99,20.3-7.12c11.91-3.71,23.71-7.69,36.11-10.04c9-1.7,17.97-4.26,27.08-5.44
		c12.39-1.6,24.89-2.52,37.37-3.16c9.71-0.5,18.97,2.83,27.48,6.76c15.88,7.33,25.19,20.04,27.02,37.92
		c1.65,16.16-2.75,30.72-11.1,44.22c-1.78,2.87-5.14,4.77-8.35,7.63c0.62-2.25,0.91-4.24,1.7-5.99c2.92-6.42,6.75-12.52,8.84-19.18
		c2.92-9.26,5.09-18.87,3.16-28.79c-3.36-17.24-14.53-26.9-30.84-31.19c-13.6-3.58-27.5-3.87-41.41-2.35
		c-33.55,3.67-65.81,12.57-96.73,25.85c-33.72,14.49-64.56,33.89-93.16,56.95c-14.07,11.34-26.45,24.28-37.68,38.23
		c-14.53,18.05-27.45,37.25-36.39,58.83c-0.49,1.18-0.77,2.44-0.11,4.32c1.83-2.16,3.77-4.24,5.46-6.51
		c8.01-10.82,17.79-19.81,28.4-27.99c14.69-11.32,30.63-20.57,47.19-28.84c8.48-4.23,16.63-9.14,25.18-13.18
		c4.58-2.17,9.72-3.18,14.62-4.66c1.56-0.47,3.3-0.49,4.73-1.18c9.94-4.74,20.75-6.32,31.28-8.97c4.72-1.19,9.35-3.37,14.11-3.69
		c12.72-0.83,25.41-1.91,38.26-1.29c11.37,0.55,22.19,2.63,32.52,6.89c27.31,11.25,40.22,32.81,42.63,61.43
		c1.17,13.84-2.13,26.94-8.09,39.23c-3.15,6.48-7.73,12.27-12.28,18.11c7.37-18.09,16.19-35.69,15.61-55.89
		c-0.53-2.93-1.14-5.84-1.57-8.78c-1.67-11.37-6.54-21.52-13.6-30.22c-6.58-8.11-15.65-13.49-25.64-16.81
		c-17.57-5.84-35.53-7.7-53.97-5.28c-17.05,2.24-33.96,5.07-50.2,10.82c-20.78,7.35-41.32,15.24-60.6,26.18
		c-12.82,7.27-25.34,14.93-37.08,23.83c-11.57,8.78-21.76,18.94-29.74,31.17c-2.64,4.06-5.04,8.21-5.33,13.29
		c7.6-4.01,14.72-7.74,21.82-11.52c12.35-6.58,25.49-10.82,39.15-13.81c8.84-1.93,17.64-3.17,26.66-2.41
		c10.58,0.9,20.17,4.81,28.8,10.69c8.49,5.79,12.48,15,15.77,24.28c5.35,15.12,6.37,30.88,5.88,46.77
		c-0.85,27.29-9.48,52.34-22.39,76.08c-11.12,20.44-24.66,39.18-41.13,55.61c-12.52,12.48-25.85,24.12-41.57,32.59
		c-9.08,4.89-18.21,9.71-27.43,14.33c-3.29,1.65-6.86,2.9-11.57,1.47c0.95-0.52,1.91-1.03,2.86-1.58c12.02-6.9,24.21-13.53,36-20.8
		c10.44-6.44,19.43-14.81,28.64-22.9c9.69-8.51,17.19-18.8,25.43-28.51c1.36-1.6,3.12-2.87,4.42-4.04c1.74-3.13,3.02-6.37,5.08-8.98
		c7.3-9.26,11.72-20.2,17.92-30.1c2.15-3.44,3.61-7.32,5.29-11.04c4.05-8.94,6.61-18.33,8.3-27.98c1.93-11.01,3.3-22.06,3.16-33.29
		c-0.16-13.18-1.87-26.07-6.6-38.41c-5.3-13.83-15.27-21.8-30.08-24.4c-19.88-3.49-38.42,1.02-56.57,8.3
		c-6.74,2.71-13.81,4.98-20.68,10.71c4.52-0.43,7.74-0.89,10.98-1.02c9.38-0.39,16.32,3.7,20.6,11.97c3.64,7.04,5.96,14.47,7,22.45
		c2.81,21.48-0.2,42.36-5.34,63.12c-7.29,29.46-20.56,56.13-37.57,81.08c-5.37,7.87-10.67,15.79-16.05,23.66
		c-9.25,13.52-20.43,25.45-31.08,37.83c-13.71,15.93-29.19,30.03-44.75,44.07c-18.81,16.98-38.8,32.46-59.66,46.79
		c-16.18,11.11-33.04,21.14-51.33,28.35c-7.73,3.05-16.04,4.62-24.98,7.1c3.03-2.92,10.44-7.18,13.19-8.05
		c4.87-1.54,9.72-3.18,14.1-5.65c6.73-4.01,13.2-8.58,20.25-11.91c9.22-4.35,16.99-10.74,25.37-16.27c3.85-2.54,7.8-4.95,11.58-7.59
		c1.98-1.38,3.62-3.25,5.58-4.67c2.33-1.69,4.84-3.13,7.41-4.35c7.53-6.65,14.84-13.58,22.63-19.9
		c15.44-12.53,30.4-25.55,43.78-40.3c7.3-8.05,14.93-15.84,21.82-24.22c8.43-10.26,16.45-20.87,24.26-31.6
		c12.66-17.4,23.72-35.79,33.1-55.18c0.94-1.93,2.42-3.6,3.65-5.4C798.27,698.85,798.11,698.8,797.94,698.74z M1127.54,289.71
		c-1.33-7.84-4.71-15.43-8.56-20.2c-10.4-12.87-24.2-20.06-40-23.66c-21.26-4.84-42.73-4.3-64.19-1.52
		c-25.06,3.24-48.84,10.96-71.79,21.27c-30.7,13.79-59.05,31.37-85.48,52.29c-22.61,17.9-41.9,38.89-59.72,61.31
		c-11.16,14.05-21.71,28.58-31,44.01c-7.31,12.15-14.33,24.4-20.07,37.38c-9.73,21.97-14.98,44.85-14.36,68.98
		c0.12,4.72,0.83,9.29,2.99,13.42c3.52,6.74,7.36,13.32,11.19,19.89c0.73,1.25,2.06,2.16,3.97,4.09c0-2.58,0.11-3.9-0.02-5.18
		c-0.43-4.04-1.14-8.05-1.38-12.1c-0.34-5.7-0.53-11.43-0.49-17.14c0.09-12.8,0.54-25.56,5.12-37.77c1.13-3.02,1.99-6.14,3.21-9.12
		c3.38-8.29,6.69-16.62,10.41-24.77c1.91-4.18,4.58-8.02,6.97-11.98c5.9-9.77,11.5-19.73,17.83-29.21
		c9.56-14.32,21.87-26.33,33.69-38.73c2.63-2.75,5.41-5.37,8.23-7.92c14.39-13.03,31.16-22.71,47.55-32.82
		c10.16-6.26,21.08-11.32,31.82-16.57c16.44-8.04,34.33-12.02,51.47-18.09c15.72-5.57,32.16-7.84,48.3-11.35
		c18.31-3.98,36.94-6.52,55.85-6.24c15.77,0.23,31.56-0.66,47.3,1.19C1119.83,289.58,1123.34,289.52,1127.54,289.71z"/>
	<path d="M1374.34,678.02c-1.86-3.04-3.12-5.61-1.03-9.02c2.05,0.45,4.07,0.9,6.32,1.4c6.68-4.83,8.98-11.19,7.03-19.16
		c-4.76-6.9-11.58-9.75-19.41-10.94c-16.95-2.56-33.72-1.36-50.26,2.73c-41.37,10.23-78.69,28.65-111.47,55.98
		c-16.81,14.02-32.08,29.54-43.42,48.45c-6.89,11.5-12.39,23.64-14.57,37.04c-0.21,1.29-0.19,2.63-0.3,4.46
		c1.65,0.38,3.07,0.71,4.97,1.15c4.14-11.98,13.56-19.88,20.7-29.41c2.88-3.84,7.02-6.79,10.79-9.91c7.1-5.89,14.14-11.9,21.6-17.31
		c4.77-3.46,9.06-7.61,15-9.62c3.65-1.23,6.47-4.74,9.86-6.93c8.87-5.76,17.97-10.97,28.06-14.5c10.21-3.57,20-8.4,30.26-11.82
		c11.06-3.69,22.28-7.26,34.18-7.32c11.97-0.05,24-0.85,35.89,0.06c9.6,0.73,19.4,0.85,28.64,5.12c13.6,6.29,26.08,23.9,22.04,43.36
		c-2.22,10.68-8.66,19.24-17.84,25.44c-0.61,0.41-1.55,0.32-2.78,0.55c-0.64-0.93-1.34-1.93-2.03-2.91c0.67-1.04,0.95-1.9,1.54-2.34
		c6.6-4.83,10.79-11.4,13.81-18.84c6.37-15.68-0.65-33.34-17.68-40.15c-4.01-1.61-8.3-2.8-12.58-3.42
		c-12.36-1.77-24.68-3.61-37.33-2.27c-10.82,1.14-21.78,1.23-32.36,4.09c-35.65,9.64-68.44,25.24-97.41,48.26
		c-10.2,8.11-19.68,17.16-29.2,26.09c-7.65,7.19-13,16.05-16.84,25.81c0.47,1.54,0.94,3.07,1.43,4.68c-1.28,0.71-2.4,1.34-4.08,2.26
		c-0.8,4.09-1.68,8.56-2.79,14.22c3.36-5.11,5.71-9.39,8.72-13.13c14.44-17.94,32.21-31.55,53.7-40.02
		c10.1-3.98,20.12-8.54,30.59-11.13c16.83-4.16,33.67-8.98,51.28-8.75c19.31,0.25,38.58,0.45,57.13,7.2
		c11.64,4.24,22.53,9.77,32.1,17.51c8.95,7.25,14.59,16.87,15.92,28.49c0.76,6.62-1.07,13-3.67,19.07
		c-5.77,13.47-14.12,25.13-25,34.95c-17.26,15.58-37.1,26.62-59.19,33.7c-2.32,0.74-4.62,1.54-6.79,2.27c-2,2.6-3.94,4.89-5.63,7.35
		c-13.76,19.9-30.96,36.44-49.67,51.61c-23,18.66-47.87,34.12-75.49,44.9c-5.79,2.26-10.25,5.98-14.69,10.02
		c-31.71,28.82-66.61,52.65-106.61,68.59c-27.48,10.95-56.08,15.35-85.53,15.2c-13.66-0.07-27.18-1.62-40.39-4.91
		c-6.27-1.56-12.34-4.28-18.17-7.14c-5.46-2.68-9.45-7.25-12.58-12.52c-2.43-4.09-3.56-8.29-1.41-13.59
		c0.92,2.42,1.7,4.31,2.36,6.25c3.35,9.82,10.51,15.69,20,18.87c5.66,1.9,11.54,3.11,17.27,4.81c12.79,3.8,25.89,2.17,38.88,2.34
		c16.16,0.21,31.99-2.51,47.74-5.81c3.68-0.77,7.47-1.04,11.21-1.52c4.34-0.56,8.75-0.94,11.2-5.25c7.09-0.93,12.92-3.89,18.8-7.58
		c8.26-5.19,17.39-8.98,26.13-13.4c10.94-5.52,20.97-12.46,30.91-19.57c5.51-3.94,11.33-7.49,16.53-11.79
		c5.59-4.62,10.62-9.93,16.12-15.15c-2.8-3.24-6.46,0.49-9.62-1.68c1.27-2.1,3.45-1.77,5.31-2.1c2.13-0.38,4.29-0.62,6.37-1.18
		c2.09-0.57,4.09-1.47,6.19-2.25c26.82-25.26,49.18-53.8,64.05-87.8c3.83-8.75,7.22-17.67,8.35-27.25
		c1.14-9.61,0.99-19.02-4.19-27.72c-1.88-3.16-4.14-5.9-7.59-7.12c-5.37-1.89-10.77-4.2-16.34-4.86
		c-12.04-1.42-23.95,0.17-35.32,4.53c-6.18,2.37-11.7,5.78-14.89,12.07c-0.68,1.35-2.28,2.23-3.9,3.75c-1.25-1.64-2.3-3.03-3.57-4.7
		c2.99-4.7,4.27-9.54,1.8-14.71c0.73-9.19-4.26-17.37-4.41-26.55c-6.45-6.12-6.65-14.12-5.67-22.04c0.76-6.16,2.3-12.34,4.35-18.22
		c6.27-17.98,16.37-33.81,29.45-47.49c4.42-4.62,8.92-9.22,13.31-14.01c2.23-0.94,4.48-1.88,6.64-2.78
		c4.73-6.94,11.07-12.11,17.6-16.99c5.63-4.2,11.64-7.89,17.45-11.87c3.13-2.14,6.01-4.71,9.31-6.54
		c6.85-3.8,13.74-7.63,20.93-10.72c9.45-4.06,18.24-9.54,28.45-12.02c10.49-2.55,20.62-6.65,31.13-9.09
		c16.04-3.73,32.27-4.29,48.6-1.13c7.25,1.4,13.41,4.39,18.48,9.62c5.95,6.14,6.86,13.7,4.26,21.29
		C1388.87,673.07,1383.52,677.91,1374.34,678.02z M1182.11,978.38c8.47-3.7,16.75-6.92,24.38-11.68
		c12.49-7.81,24.89-15.7,36.4-24.86c10.39-8.27,20.56-16.87,30.25-25.94c8.53-7.99,15.24-17.68,22.56-26.8
		c7.61-9.47,13.08-20.08,17.48-31.26c3.91-9.92,6.42-20.23,6.53-31.01c0.08-8.36-2.99-15.26-8.85-21.23
		c-6.35-6.47-14.46-9.63-22.59-12.73c-19.37-7.38-38.92-9.68-59.02-2.43c-13.68,4.94-26.52,11.52-38.71,19.23
		c-7.07,4.47-13.13,10.56-19.53,16.04c-1.32,1.13-2.16,2.82-3.75,4.96c6.47-1.43,11.97-2.69,17.5-3.85
		c8.61-1.81,17.28-2.43,25.99-0.86c14.11,2.55,24.8,9.02,29.05,23.91c3.02,10.57,2.36,20.98,0.42,31.45
		c-2.83,15.23-10.23,28.66-17.39,42.1c-8.22,15.43-18.47,29.52-30.13,42.58C1189.07,970.05,1185.63,974.25,1182.11,978.38z
		 M1158.6,825.87c0.56,0.28,1.12,0.55,1.67,0.83c1.25-1.32,2.48-2.66,3.75-3.96c2.83-2.92,5.54-5.97,8.54-8.7
		c15.14-13.79,33.31-22.4,52.03-29.98c4.26-1.72,8.76-3.4,13.27-3.8c8.28-0.72,16.58-3.12,24.99-0.38
		c4.07,1.32,8.35,1.99,12.55,2.89c8.52,1.82,16.71,4.37,24.58,8.32c7.74,3.88,14.11,9.01,19.48,15.72c3.2,4,4.86,8.39,5.45,13.37
		c0.92,7.92,0.26,15.75-1.22,23.54c-2.16,11.35-6.87,21.75-12.01,31.99c-0.54,1.07-0.86,2.24-1.4,3.66
		c1.44,0.21,2.44,0.69,2.95,0.38c10.28-6.3,23.08-8.34,31.19-18.35c0.65-0.81,1.8-1.21,2.68-1.85c6.6-4.79,13.37-9.35,19.73-14.43
		c12.53-10,21.63-22.61,27.33-37.64c4.57-12.06,2.33-22.98-5.53-32.9c-7.38-9.31-17.96-14.23-28.44-18.39
		c-17.04-6.77-35-9.56-53.51-9.28c-24.76,0.38-48.61,5.2-72.03,12.81c-22.1,7.18-41.77,18.5-58.5,34.64
		c-4.67,4.5-8.69,9.74-12.56,14.98C1160.01,814.2,1159.13,820.05,1158.6,825.87z"/>
	<path d="M1502.69,687.51c-0.7-1.52-1.39-3.04-2.19-4.8c1.91-1.42,3.39-2.56,4.9-3.65c19.64-14.19,35.49-31.33,43.06-54.98
		c0.91-2.84,2.21-5.56,3.31-8.35c5.78-14.68,6.32-29.58,2.7-44.93c-1.95-8.27-4.22-16.23-8.08-23.87
		c-3.95-7.83-9.65-13.87-16.7-18.65c-19.49-13.23-40.95-18.53-64.42-15.6c-38.82,4.85-76.76,13.23-113.06,28.15
		c-27.29,11.21-53.16,25.14-78.01,41.01c-22.32,14.26-43.52,30.01-62.96,48.02c-26.26,24.32-50.52,50.42-70.01,80.61
		c-9.52,14.75-17.07,30.42-20.03,47.93c-1.79,10.55-2.29,21.13,1.19,31.51c2.49,7.42,6.77,13.01,14.98,14.58
		c0.75,0.14,1.45,0.65,2.13,1.05c0.2,0.12,0.28,0.44,0.88,1.46c-1.82,0.22-3.54,0.9-4.98,0.51c-6.32-1.7-11.41-5.55-14.56-11.11
		c-2.5-4.42-4.56-9.44-5.33-14.42c-2.48-15.99,0.04-31.55,6.37-46.35c6.55-15.33,15.87-29.08,25.03-42.96
		c6.49-9.83,15.93-17.16,21.66-27.47c0.13-0.23,0.33-0.43,0.52-0.62c7.98-8.17,15.84-16.46,23.99-24.46
		c8.33-8.18,16.3-16.93,25.6-23.85c9.8-7.29,18.41-16.03,28.72-22.64c14.2-9.1,28.07-18.75,42.53-27.4
		c12.59-7.54,25.73-14.18,38.79-20.91c7.25-3.73,14.81-6.87,22.28-10.14c3.23-1.41,6.6-2.52,9.93-3.7c1.54-0.55,3.2-0.77,4.69-1.42
		c17.79-7.67,36.77-11.32,55.4-16.04c7.6-1.93,15.74-1.82,23.29-3.88c10.64-2.9,21.52-2.95,32.28-4.33
		c10.25-1.31,19.95,0.64,29.64,4.01c9.89,3.43,18.86,8.55,27.47,14.2c4.45,2.92,8.25,7.17,11.54,11.44
		c16.28,21.14,22.86,61.83,10.52,87.13c-2.38,4.87-3.71,10.24-5.93,15.19c-9.47,21.07-24.99,36.73-44.27,48.95
		C1504.94,687.13,1504.05,687.15,1502.69,687.51z"/>
	<path d="M1579.24,793.05c-11.73,4.87-23.46,9.75-35.22,14.56c-0.63,0.26-1.51-0.11-3.17-0.27c5.12-3.97,10.45-5.83,15.58-7.85
		c4.7-1.85,9.32-3.75,13.82-6.07c2.51-1.3,5.56-1.55,8.37-2.27C1578.83,791.79,1579.04,792.42,1579.24,793.05z"/>
	<path d="M1612.83,780.51c1.67-1.21,3.17-2.97,5.04-3.54c7.19-2.18,14.48-4.02,21.76-5.9c1.49-0.39,3.08-0.4,4.9,0.55
		c-5.15,1.6-10.26,3.34-15.45,4.76c-5.43,1.48-10.94,2.66-16.41,3.96L1612.83,780.51z"/>
	<path d="M1612.67,780.34c-7.95,4.52-16.6,7-25.27,9.42c3.84-4.92,14.64-8.54,25.44-9.25L1612.67,780.34z"/>
	<path d="M819.27,1522.11c1.43-0.77,2.25-1.5,3.15-1.64c7.73-1.18,15.46-2.28,23.21-3.3c0.53-0.07,1.17,0.7,2.73,1.71
		c-1.91,0.41-2.84,0.84-3.72,0.76C836.27,1518.83,828.62,1524.86,819.27,1522.11z"/>
</g>
</svg>
