<?xml version="1.0" encoding="utf-8"?>
<!-- Generator: Adobe Illustrator 27.4.0, SVG Export Plug-In . SVG Version: 6.00 Build 0)  -->
<svg version="1.1" id="Calque_1" xmlns="http://www.w3.org/2000/svg" xmlns:xlink="http://www.w3.org/1999/xlink" x="0px" y="0px"
	 viewBox="0 0 2000 2000" style="enable-background:new 0 0 2000 2000;" xml:space="preserve">
<g>
	<path d="M613.42,951.16c-5.11,11.52-9.18,23.39-11.57,35.77c-1.05,5.45-1.67,11.09-1.62,16.64c0.12,14.32,7.34,24.17,20.02,30.45
		c12.12,6,24.74,7.02,37.6,3.61c9.17-2.43,18.22-5.48,27.11-8.81c35.91-13.44,68.92-32.17,99.46-55.29
		c8.04-6.08,15.95-12.32,23.89-18.53c1.53-1.19,2.9-2.59,4.72-4.23c-1.27-14.84,4.31-28.32,9.48-41.94
		c10.12-26.69,23.55-51.43,43.04-72.48c16.84-18.19,35.76-33.92,58.08-45.05c4.65-2.32,9.94-3.84,15.09-4.56
		c9.9-1.39,17.17,3.32,22.26,10.89c1.46,5.88-0.13,10.73-2.54,15.16c-3.86,7.11-7.79,14.27-12.47,20.85
		c-9.92,13.94-21.76,26.28-33.56,38.64c-24.19,25.33-50.14,48.82-75.91,72.5c-1.19,1.09-2.3,2.27-4.02,3.98
		c4.28,1.94,7.68,0.98,10.78-0.62c8.44-4.36,16.9-8.72,25.1-13.52c10.38-6.08,20.3-12.97,30.79-18.84
		c24.79-13.88,51.01-24.3,78.73-30.71c7.94-1.84,16-2.49,24.19-1.58c10.97,1.21,20.56,5.14,28.16,13.37
		c0.93,1.01,2.05,1.85,3.42,3.08c2.35-0.54,4.81-0.96,7.18-1.67c16.44-4.95,33.29-7.59,50.4-8.43c25.3-1.24,48.81,5.11,70.7,17.69
		c11.95,6.87,23.12,14.87,32.49,25.02c4.52,4.89,8.89,10.23,12,16.07c9.39,17.66,16.43,36.24,17.82,56.43
		c1.06,15.39-0.65,30.64-2.61,45.54c-5.01,2.84-9.51,3.89-15.27,3.15c-7.79-6.88-17.71-11.23-28.23-14.44
		c-20.08-6.12-40.25-6.54-60.45-0.93c-4.26,1.18-8.45,3.02-12.32,5.17c-9.41,5.21-17.22,12.43-24.13,20.62
		c-1.61,1.91-2.99,4.07-4.19,6.27c-4.85,8.92-3.93,13.98,3.92,20.58c6.21,5.21,13.66,7.38,21.6,8.31c18.82,2.21,37.45,0.61,56-2.63
		c4.96-0.87,9.92-1.69,14.77-2.52c5.42,1.87,5.71,5.62,4.08,10.69c-3.37,1.32-7.03,2.6-10.56,4.16
		c-18.16,8.05-36.51,15.72-54.38,24.36c-25.46,12.3-47.91,28.87-66.56,50.26c-6.65,7.63-12.08,16.19-15.51,25.77
		c-2.34,6.53-4.26,13.29-1.4,20.91c1.74-0.43,3.34-0.59,4.73-1.2c32.08-13.98,63.94-28.42,94.65-45.26
		c4.91-2.69,9.61-5.74,14.49-8.49c2.87-1.61,5.9-2.95,8.75-4.35c3.41,2.38,7.28,3.47,6.83,8.67c-3.74,4.41-7.66,9.12-11.68,13.75
		c-8.63,9.93-17.26,19.86-25.98,29.71c-8.93,10.1-18.81,19.14-29.71,27.13c-13.06,9.58-27.67,13.09-43.57,11.82
		c-8.25-0.66-15.8-3.52-22.68-8.12c-1.85-1.24-3.61-2.61-5.78-4.19c-1.96,0.87-4.07,1.56-5.92,2.67
		c-30.35,18.12-59.76,37.51-84.47,63.19c-11.06,11.49-22.89,22.35-33.02,34.61c-17.82,21.59-34.5,44.11-46.99,69.38
		c-10.74,21.74-16.52,44.65-14.91,68.96c1.49,22.41,9.49,42.53,23.97,59.77c3.35,3.99,7.97,6.99,12.26,10.09
		c11.24,8.12,23.92,13.23,37.05,17.44c28.41,9.1,57.17,10.55,86.09,3.32c16.42-4.1,31.73-10.99,44.47-22.62
		c1.24-1.13,2.44-2.31,3.67-3.45c10.46-9.66,12.69-21.62,8.41-34.57c-2.96-8.98-7.31-17.52-11.26-26.16
		c-2.18-4.76-6.32-7.77-10.71-10.35c-4.38-2.57-8.87-3.16-14.28,0.02c1.51,0.86,2.51,1.5,3.57,2.02c0.75,0.37,1.57,0.59,2.36,0.88
		c7.29,2.63,13.06,6.74,13.54,15.26c0.55,9.72-4.43,18.18-12.7,21.88c-5.79,2.59-11.96,3.17-18.11,1.98
		c-10.84-2.1-17.25-13.28-13.45-23.79c2.28-6.29,5.09-12.46,8.31-18.33c6.42-11.73,18.96-17.44,32.06-14.41
		c11.66,2.69,21.24,8.58,26.31,20.14c2.24,5.12,4.5,10.24,6.76,15.36c8.43,19.03,4.02,36.07-8.18,51.79
		c-8.57,11.05-19.59,19.12-31.98,25.37c-27.53,13.88-56.6,18.74-87.2,15.07c-21.58-2.59-42.12-8.58-62-17.32
		c-15.74-6.92-27.67-17.84-36.2-32.54c-6.33-10.89-12.1-22.03-14.88-34.53c-3.09-13.92-2.49-27.85-0.71-41.76
		c3.14-24.53,11.9-47.22,24.69-68.19c15.47-25.36,32.25-49.9,53.18-71.16c14.91-15.15,30.22-29.98,46.16-44.03
		c17.89-15.77,38.28-28.21,58.54-40.7c2.61-1.61,5.21-3.23,7.93-4.92c0-1.31,0.27-2.48-0.04-3.47c-2.97-9.42-1-18.31,3.04-26.86
		c6.9-14.57,16.41-27.37,27.7-38.78c23.68-23.97,50.53-43.3,82.32-55.22c1.47-0.55,2.88-1.27,4.08-2.94c-4.62,0-9.24,0.02-13.86,0
		c-10.07-0.05-20.16,0.44-30.12-1.75c-7.24-1.6-13.83-4.45-19.43-9.38c-9.51-8.37-11.56-19.3-5.08-30.16
		c2.99-5.01,6.44-9.99,10.64-13.97c7.71-7.28,15.71-14.39,24.34-20.52c19.6-13.93,42-17.62,65.52-15.92
		c13.23,0.96,25.9,4.39,38.22,9.22c1.75,0.68,3.62,1.04,5.84,1.65c1.92-14.56,1.91-28.58-2.69-41.99
		c-3.89-11.34-8.89-22.34-14.07-33.18c-2.12-4.43-5.55-8.47-9.12-11.93c-20.61-19.99-44.6-33.64-73.38-37.81
		c-21.42-3.1-42.43-0.49-63.18,5.02c-0.8,0.21-1.55,0.63-2.29,1.01c-0.22,0.11-0.35,0.43-0.9,1.15c0.45,3.37,1.04,7.18,1.45,11.01
		c2.73,25.82-2.91,50.21-13.75,73.38c-12.2,26.07-28.88,49.15-48.98,69.8c-19.86,20.41-41.55,38.31-67.15,51.16
		c-11.29,5.67-22.76,10.82-35.35,12.81c-3.57,0.57-7.26,0.95-10.85,0.76c-8.73-0.46-14.24-4.97-15.59-13.64
		c-0.89-5.72-1.26-11.87-0.11-17.47c2.18-10.65,4.68-21.41,8.71-31.46c10.65-26.55,23.56-52.08,40.69-75.11
		c20.65-27.74,46.44-50,76.03-67.74c10.77-6.46,22.25-11.74,33.41-17.56c1.43-0.75,2.85-1.51,5.09-2.69
		c-1.67-1.53-2.65-2.75-3.91-3.53c-7.97-4.88-16.77-5.92-25.88-5.31c-9.59,0.64-18.72,3.34-27.77,6.33
		c-28.61,9.47-55.25,22.92-80.33,39.62c-8.37,5.57-17.13,10.63-26.07,15.25c-9.81,5.07-20.16,6.72-31.1,1.26
		c-1.9,1.45-3.91,2.89-5.81,4.46c-29.67,24.51-61.29,46.07-95.93,63.01c-16.87,8.25-34.26,15.31-52.09,21.1
		c-14.25,4.63-28.92,6.67-43.78,2.37c-7.61-2.2-14.57-5.64-20.71-10.73c-9.72-8.07-13.81-18.62-14.37-30.97
		c-0.58-12.81,2.42-25.01,5.8-37.17c1.19-4.29,2.66-8.49,4.26-13.55c-2.36,0.24-4.21,0.2-5.93,0.65c-13.53,3.49-27,7.27-40.59,10.51
		c-4.56,1.09-9.43,1.11-14.17,1.18c-13.62,0.2-23.26-6.6-30.45-17.66c-7.42-11.41-8.84-23.96-7.29-37.1
		c1.45-12.33,5.02-24.08,10.1-35.38c8.7-19.31,20.75-36.33,34.57-52.34c16.15-18.71,34.23-35.4,52.26-52.18
		c3.48-3.24,7.21-6.22,10.86-9.27c6.58-5.5,13.91-8.83,22.74-7.74c-0.05,0.18-0.05,0.5-0.17,0.55c-12.64,5.41-22.35,14.7-31.9,24.18
		c-16.68,16.56-34.34,32.21-48.75,50.92c-13.68,17.76-26.78,35.93-34.39,57.37c-3.49,9.83-5.29,19.96-6.48,30.29
		c-1.92,16.6,12.84,35.78,34.14,33.71c21.23-2.07,41.75-7.61,61.72-14.66c1.22-2.01,2.38-3.59,3.2-5.33
		c11.56-24.42,26.8-46.49,42.72-68.2c17.59-23.98,37.12-46.29,57.03-68.3c10.32-11.41,20.69-22.82,31.74-33.51
		c6.37-6.16,13.93-11.19,21.35-16.15c4.88-3.26,10.52-5.13,16.61-5.24c4.72-0.08,9.12,1.12,12.37,4.34
		c7.49,7.42,12.08,15.9,8.95,27.1c-3.95,14.18-10,27.36-18.44,39.34c-20.08,28.5-43.19,54.39-69.54,77.18
		c-26,22.49-55.29,39.95-86.66,53.96C618.25,949,615.97,950.02,613.42,951.16z M866.69,1118.49c3.56,2.62,7.18,2.15,10.82,1.66
		c12.46-1.7,23.5-7.11,34.29-13.11c18.7-10.4,35.58-23.22,50.86-38.22c22.69-22.28,40.32-47.96,51.7-77.66
		c7.38-19.25,11.44-39.23,8.97-60.04c-0.45-3.82-1.41-7.58-2.07-11.01c-4.08-1.46-6.73,0.7-9.46,1.79
		c-26.78,10.67-50.89,25.81-72.64,44.61c-13.38,11.57-25.34,24.48-34.76,39.63c-13.94,22.41-25.88,45.78-34.79,70.65
		c-3.12,8.71-5.68,17.6-6.27,26.9C863.02,1109.02,863.26,1114.33,866.69,1118.49z M782.58,765.65c-5-4.37-10.52-4.74-16.54-2.76
		c-10.89,3.58-20.08,9.96-28.03,17.94c-8.88,8.91-17.34,18.25-25.69,27.67c-19.68,22.19-39.6,44.18-56.9,68.37
		c-11.24,15.71-22.78,31.2-31.48,48.54c-1.3,2.6-3.07,5.1-3.25,8.84c1.8-0.61,2.83-0.89,3.8-1.3
		c27.71-11.91,53.05-27.78,76.26-46.91c26.08-21.5,47.97-46.94,67.19-74.66c6.07-8.75,11.18-18.11,14.13-28.46
		C783.68,777.23,784.76,771.48,782.58,765.65z M943.98,806.48c-8.31-4.4-16.2-4.41-23.4,0.54c-10.11,6.96-20.26,14.02-29.48,22.08
		c-23.81,20.82-40.37,46.87-52.41,75.92c-3.53,8.51-7.56,16.86-8.95,26.09c-0.22,1.45-0.03,2.96-0.03,5.67
		c3.24-2.72,5.62-4.57,7.82-6.6c8.64-7.95,17.23-15.96,25.82-23.96c21.1-19.64,41.14-40.31,59.57-62.47
		c5.7-6.86,10.81-14.25,15.75-21.69C941.56,817.72,944.16,812.99,943.98,806.48z M1124.89,1198.83
		c-14.43,7.08-28.8,14.25-43.29,21.2c-14.71,7.05-29.87,13.16-45.02,20.78c6.09,5.69,12.54,7.93,19.62,8.56
		c10.76,0.95,20.34-2.22,29.1-8.4C1101.2,1229.74,1113.63,1215.13,1124.89,1198.83z"/>
	<path d="M595.28,1561.38c23.59-20.9,41.1-45.76,53.37-74.53c12.82-30.07,20.02-70.76,17.32-84.16
		c-10.33,6.38-17.81,16.2-28.64,22.28c-2.52-1.13-4.96-2.23-7.14-3.21c-0.4-4.5,2.62-6.13,4.77-8.08
		c5.4-4.88,11.05-9.47,16.55-14.22c3.12-2.7,6.55-5.1,9.67-8.74c-9.82-5.69-19.62-8.23-30.19-7.99c-5.46,0.13-5.46,0.08-10.56-3.71
		c-0.5-3.13,1.97-4.6,3.94-5.85c3.24-2.07,6.74-4.65,10.33-5.01c5.73-0.58,11.64,0.31,17.44,0.94c3.01,0.33,5.93,1.44,9.72,2.42
		c0-1.99,0.33-3.6-0.05-5.03c-2.84-10.61-6.94-20.66-13.36-29.7c-7.33-10.32-17.23-15.58-29.88-16.01
		c-10.52-0.36-20.59,2-30.57,4.77c-18.71,5.19-36.17,13.39-53.24,22.52c-4.6,2.46-7.88,5.92-10.38,10.53
		c-22.97,42.24-51.5,80.57-82.74,116.99c-15.34,17.89-31.73,34.7-49.89,49.73c-9.72,8.04-20.09,15.21-31.35,20.96
		c-17.25,8.8-34.93,16.39-54.17,19.89c-10.02,1.82-20.14,2.61-30.09,1.37c-22.78-2.84-31.74-18.86-33.04-35.35
		c-1.07-13.5,0.59-26.81,3.34-40.02c4.98-23.91,13-46.87,21.77-69.6c6.45-16.72,12.56-33.59,15.12-51.41
		c0.98-6.85,1.28-13.99,0.55-20.86c-1.18-11.12-9.34-17.41-20.43-16.3c-4.96,0.5-9.89,1.89-14.7,3.34
		c-15.72,4.74-30.19,12.05-42.68,22.72c-4.83,4.13-9.19,9.08-12.79,14.33c-10.56,15.36-17.24,32.58-22.61,50.33
		c-0.3,0.98-0.19,2.09-0.34,3.95c2.62-1.27,4.49-2.28,6.45-3.11c10.88-4.6,22.39,1.96,23.55,13.69
		c1.16,11.75-2.15,22.19-10.54,30.71c-2.93,2.98-5.99,5.95-9.43,8.29c-2.94,2-6.37,3.79-9.82,4.45c-8.78,1.66-15.59-0.9-19.21-9.16
		c-3.2-7.31-4.12-14.58-2.9-22.08c3.76-23.06,10.56-45.22,21.42-65.98c18.03-34.46,46.43-56.06,83.63-66.3
		c6.41-1.77,13.16-2.84,19.8-3.11c11.08-0.46,19.41,4.81,24.43,14.68c3.05,6,4.96,12.43,5.05,19.32c0.15,11.33-1.9,22.38-5.24,33.05
		c-4.67,14.94-10.05,29.67-15.6,44.31c-7.34,19.38-14.44,38.79-18.71,59.13c-2.49,11.86-3.68,23.8-2.76,35.87
		c0.32,4.13,1.07,8.39,2.55,12.23c4.68,12.14,13.52,18.81,26.81,19.22c11.91,0.36,23.34-1.86,34.58-5.66
		c30.27-10.22,56.39-26.98,78.99-49.44c26.92-26.75,50.08-56.55,71.35-87.86c7.07-10.41,13.58-21.21,20.28-31.87
		c1.42-2.27,2.53-4.73,4.74-8.93c-3.85,2.08-6.05,3.05-8.01,4.36c-13.27,8.85-26.68,17.48-39.67,26.72
		c-22.27,15.84-41.6,34.83-58.32,56.44c-4.1,5.3-7.6,11.07-11.86,16.22c-7.35,8.89-8.26,9.05-21.9,7.69
		c-0.69-0.64-2.29-2.12-3.63-3.36c2.07-14.11,6.97-25.3,16.63-33.36c4.63-2.24,7.58,0.42,11.01,2.42
		c5.24-5.63,10.41-11.06,15.44-16.62c14.36-15.86,30.73-29.45,48.31-41.47c19.17-13.11,38.82-25.53,58.38-38.06
		c4.39-2.82,7.81-6.09,9.98-10.91c5.98-13.26,12.68-26.22,18.21-39.66c5.54-13.45,9.46-27.52,11.63-41.95
		c0.83-5.49,0.41-11.17,0.47-16.76c0.16-14.73-13.02-26.25-27.34-26.06c-8.79,0.12-17.26,2.08-25.35,5.32
		c-20.13,8.05-38.67,19-56,31.94c-8.39,6.27-14.85,14.4-20.32,23.3c-11.48,18.69-20.81,38.31-26.19,59.71
		c-2.27,9.04-0.31,17.26,4.28,24.93c1.67,2.8,4.26,5.17,6.81,7.29c3.99,3.32,8.55,3.81,13.37,1.62c7.54-3.43,13.64-8.51,19.6-17.02
		c-3.79,1.71-5.85,2.63-7.9,3.56c-5.79,2.63-11.3,2.15-16.86-0.97c-5.81-3.26-8.66-8.24-7.82-14.56c0.85-6.32,1.97-12.88,4.55-18.63
		c6.61-14.77,16.38-27.33,29.52-37.02c2.46-1.82,5.22-3.23,7.84-4.83c8.71-5.32,22.93,2.55,23.22,13.84
		c0.37,14.5-1.73,28.26-7.25,41.8c-6.5,15.96-16.06,29.4-29.31,40.21c-3.42,2.8-7.36,5.17-11.41,6.95
		c-21.22,9.3-52.25-4.51-48.12-37.49c0.62-4.96,1.89-9.92,3.45-14.68c7.21-21.9,16.72-42.7,30-61.68
		c10.25-14.65,22.92-26.67,37.86-36.46c15.73-10.3,31.96-19.62,49.49-26.52c9.7-3.82,19.66-6.4,30.2-6.39
		c20.44,0.01,35.91,12.34,40.44,32.23c2.54,11.16,1.89,22.28-0.37,33.33c-3.32,16.23-9.21,31.65-15.51,46.92
		c-2.42,5.86-5.02,11.64-8.18,18.94c3.54-1.47,5.74-2.29,7.86-3.29c15.98-7.53,32.19-14.42,49.63-17.84
		c11.56-2.27,23.12-3.76,34.98-1.65c18.77,3.34,32.29,13.69,40.79,30.39c3.65,7.17,5.9,15.06,8.7,22.66
		c0.86,2.33,1.4,4.77,2.32,7.96c5.89-4.32,11.36-8.34,17.17-12.6c2.3,2.13,4.06,3.75,6.33,5.84c-4.93,8.34-13.69,12.58-19.25,20.29
		c7.3,5.11,16.73,4.2,23.64,10.33c0,1.82,0,3.94,0,5.76c-4.78,5.78-10.02,7.21-16.55,3.68c-2.33-1.26-5.14-1.61-8.6-2.64
		c-2.63,66.92-29.69,121.67-78,166.77c5.92,3.67,11.12,6.88,16.32,10.11c8.39,5.23,15.76,11.71,22.06,19.26
		c15.58,18.7,18.46,39.82,9.87,62.18c-4.19,10.91-9.64,21.45-15.49,31.6c-11.89,20.61-30.51,28.63-53.79,26.76
		c-2.21-0.18-4.41-0.75-6.58-1.31c-4.85-1.25-9.63-2.76-14.51-3.87c-3.63-0.83-7.09-1.7-9.23-5.17c-2.38-6.44-0.54-12.12,3.5-17.22
		c6.28-7.93,13.34-15.06,21.43-21.2c12.07-9.15,25.92-6.45,34.76,6.54c2.38,3.49,2.59,7.33,2,11.28c-0.41,2.72-1.08,5.4-1.92,9.52
		c2.29-1.55,3.89-2.08,4.54-3.17c7.27-12.31,14.26-24.84,17.73-38.82c4.73-19.09,0.28-35.95-13.38-50.33
		c-7-7.37-14.81-13.64-23.6-18.7c-2.38-1.37-4.88-2.51-7.62-3.91c-6.6,5.85-12.83,11.42-19.12,16.93
		c-24.15,21.16-50.77,38.67-79.69,52.49c-16.89,8.07-34.18,15.39-51.59,22.27c-11.72,4.63-24.01,7.27-36.93,6.25
		c-7.7-0.61-14.86-2.75-21.77-5.7c-6.75-2.88-10.29-8.52-10.44-15.91c-0.21-10.64,2.76-20.35,8.42-29.41
		c23.09-37,56.35-60.18,98.05-71.26c36.37-9.66,72.62-7.91,108.4,3.7C591.37,1560.57,593.28,1560.89,595.28,1561.38z
		 M395.45,1655.95c4.1,6.45,10.4,8.89,17.71,9.27c9.68,0.51,18.98-1.73,27.89-5.07c11.78-4.41,23.36-9.37,34.88-14.43
		c37.49-16.47,71.18-38.75,101.04-66.79c1.12-1.05,1.98-2.39,3.64-4.43c-3.91-1.33-6.97-2.55-10.12-3.42
		c-31.56-8.76-62.89-8.17-94.3,1.4c-29.77,9.07-53.35,26.28-71.88,51.07C397.23,1633.05,394.02,1643.25,395.45,1655.95z"/>
	<path d="M1330.49,1170.58c3.87-6.31,6.31-7.98,15.31-10.93c19.33,7.28,38.74,8.56,58.59,3.39c9.43-2.46,16.41-8.23,22.14-15.73
		c5.29-6.91,5.87-14.67,1.94-22.14c-6.27-11.93-15.25-20.11-29.73-21.63c-11.63-1.22-23.09-4.14-34.58-6.51
		c-4-0.82-6.39-3.33-5.6-8.77c5.97-4.72,12.75-8.79,21.38-8.49c11.55,0.4,23.1,1.72,33.38,7.2c8.19,4.37,16.81,6.17,25.7,6.74
		c29.04,1.85,58.06,4.7,87.22,3.53c9.79-0.39,19.55-1.27,29.33-1.88c24.02-1.51,48.06-2.81,72.07-4.53
		c33.52-2.4,66.85-6.31,99.64-14.02c14.46-3.4,26.94-10.76,38.81-19.33c17.19-12.41,28.99-28.84,34.69-49.14
		c4.15-14.78,7.38-29.87,10.05-45c2.64-14.94-0.13-29.38-6.12-43.41c-10.64-24.92-26.86-45.02-49.52-59.93
		c-15.97-10.51-33.72-16.27-52.36-19.38c-26.1-4.35-52.35-4.56-78.68-2.15c-21.5,1.96-42.77,5.01-63.62,10.81
		c-27.78,7.72-53.86,19.47-77.14,36.24c-22.69,16.34-44.06,34.52-61.99,56.27c-2.82,3.42-5.18,7.21-7.27,10.16
		c0.95,6.56,2.72,12.13,2.32,17.55c-0.82,11.12-2.58,22.2-4.42,33.21c-0.98,5.86-3.97,11.02-7.86,15.58
		c-3.93,4.62-8.68,7.82-14.79,8.86c-3.02,0.51-5.99,1.34-9.38,2.12c-1.81-0.78-3.89-1.55-5.86-2.54c-3.95-1.99-5.67-5.49-5.33-9.68
		c0.27-3.3,1.12-6.61,2.09-9.8c4.4-14.51,10.82-28.19,17.62-41.69c1.34-2.67,2.52-5.41,3.82-8.22c-4.47-4.15-9.26-5.31-14.33-5.77
		c-9.67-0.87-19.03,0.74-27.95,4.34c-17.24,6.94-31.89,17.57-42.95,32.56c-7.13,9.66-14.03,19.6-18.39,30.95
		c-1.3,3.37-1.93,6.99-3.17,10.39c-0.91,2.5-2.29,4.82-3.4,7.08c-3.23,0-5.65,0-8.65,0c-2.23-8.86-2.56-17.26,1.66-25.37
		c13.78-26.49,32.39-48.23,60.06-61.13c11.45-5.34,22.94-10.38,35.69-11.73c9.27-0.98,18.44-0.96,27.39,2.12
		c1.28,0.44,2.67,0.55,4.07,0.83c0.98-0.9,1.9-1.55,2.58-2.4c23.14-28.69,51.65-51.05,82.82-70.27
		c30.1-18.57,62.53-31.16,97.33-37.52c26.49-4.85,53.22-7.56,80.16-7.33c21.87,0.19,43.61,1.92,64.85,7.73
		c24.51,6.71,46.54,17.9,64.04,36.59c14.51,15.49,25.63,33.2,31.3,53.94c3.73,13.65,4.92,27.47,3.09,41.54
		c-2.18,16.69-5.81,33-11.04,49.04c-11.74,36.01-38.06,56.84-71.88,70.05c-12.07,4.71-24.81,6.75-37.44,9.26
		c-30.25,6.02-60.88,9.14-91.56,11.74c-20.07,1.7-40.22,2.51-60.33,3.77c-14.24,0.9-28.48,2.63-42.72,2.65
		c-19.29,0.02-38.59-1.23-57.88-1.96c-3.85-0.15-7.7-0.44-12.57-0.72c1.34,2.93,2.18,4.9,3.14,6.81
		c7.42,14.68,5.13,28.19-6.63,39.78c-10.5,10.34-23.58,15.91-37.31,20.14c-11.55,3.55-23.34,5.93-35.57,4.42
		c-1.02-0.13-2.09,0.18-3.55,0.33c0.53,4.22,1.17,8.01,1.46,11.83c0.65,8.34-1.55,16.11-5.45,23.38
		c-6.6,12.31-16.38,21.2-29.53,26.09c-11.43,4.25-23.06,7.04-35.25,2.96c-0.75-0.25-1.66-0.03-3.41-0.03
		c-3.88,2.84-8.52,5.95-12.85,9.44c-15.25,12.29-30.61,24.47-45.54,37.15c-13.37,11.35-21.02,26.02-22.42,43.64
		c-1.15,14.56,1.92,28.37,7.94,41.6c12.29,27.05,30.96,49.04,53.53,68.05c24.26,20.43,51.43,35.66,81.14,46.54
		c35.26,12.92,70.87,24.76,108.28,29.6c39.77,5.15,79.71,7.58,119.73,2.98c9.13-1.05,18.2-3.2,27.08-5.63
		c15.23-4.16,27.47-13.64,39.15-23.76c22.93-19.87,40.62-43.84,54.74-70.59c6.86-12.99,10.65-27.06,14.73-41
		c5.52-18.86,8.71-38.2,9.61-57.84c0.81-17.89-1.78-35.15-11.15-50.89c-1.71-2.88-3.02-6-4.5-9.01
		c-19.43-39.52-51.08-63.02-94.19-70.76c-44.68-8.02-84.25,3.69-118.89,32.7c-15.7,13.15-23.02,30.65-25.61,50.39
		c-1.73,13.19-0.38,26.29,2.72,39.17c3.16,13.11,9.76,24.39,19.45,33.74c7.14,6.89,15.67,10.47,25.74,9.65
		c4.59-5.55,7.15-11.62,9.08-18.8c-2-0.2-3.51-0.35-5.01-0.49c-3.58-0.34-7.2-0.42-10.72-1.07c-6.65-1.21-10.83-5.5-13.3-11.6
		c-0.84-2.07-1.53-4.2-2.16-5.95c2.26-18.09,8.76-24.72,29.98-30.2c1.99,1.22,4.95,2.39,7.04,4.44
		c8.05,7.93,12.67,17.46,13.35,28.99c0.86,14.48-4.35,26.81-12.18,38.45c-2.32,3.45-5.43,5.69-9.44,6.45
		c-20.12,3.81-38.39,1.35-52.87-15.09c-8.32-9.44-14.27-19.9-17.21-32.19c-4.43-18.51-5.86-37.06-1.17-55.67
		c4.57-18.15,13.66-33.58,28.64-45.24c24.94-19.42,52.63-33.07,83.93-38.22c34.34-5.65,67.6-1.78,98.67,14.78
		c36.27,19.33,58.93,49.83,71.37,88.48c3.99,12.41,5.44,25.11,4.61,38.12c-1.93,30.1-7.99,59.35-19.05,87.39
		c-3.78,9.57-9.13,18.57-14.27,27.53c-13.39,23.32-31.04,43.06-51.49,60.42c-23.39,19.86-50.65,30.61-80.89,33.69
		c-15,1.53-30.15,2.22-45.23,2.22c-26.05,0-52.04-1.64-77.9-4.93c-32.06-4.09-63.03-12.74-93.63-22.82
		c-17.29-5.69-34.4-11.89-50.65-20.15c-38.59-19.63-71.2-46.11-95.43-82.55c-8.35-12.56-14.85-25.73-18.23-40.26
		c-3.39-14.57-4.41-29.39,0.85-43.87c4.08-11.22,10.43-21.16,19.18-29.24c10.28-9.49,20.84-18.68,31.68-27.52
		c11.92-9.73,24.22-19.01,36.51-28.27c4.44-3.35,9.33-6.1,13.86-9.03c1.21,0.37,2.17,0.4,2.73,0.89c8.27,7.13,17.46,6.24,26.9,3.18
		c1.04-0.34,2.13-0.85,2.93-1.57c9.46-8.65,16.3-19.02,15.54-32.15C1345.11,1186.18,1340.71,1176.72,1330.49,1170.58z
		 M1396.26,991.73c-4.81,6.81-7.92,16.02-7.71,23.12C1394.19,1007.86,1395.88,1000.33,1396.26,991.73z"/>
	<path d="M1540.29,1680.23c-2.66,3.62-4.84,6.51-6.94,9.45c-11.25,15.72-25.98,26.8-44.11,33.5c-20.69,7.64-42.08,11.51-64.08,11.79
		c-34.51,0.43-68.79-2.15-102.69-8.93c-11.6-2.32-22.62-6.35-33.18-11.59c-2.98-1.48-5.84-3.37-8.42-5.48
		c-6.04-4.93-7.07-11.32-2.72-17.85c5.03-7.55,11.76-13.5,19.16-18.63c13.02-9.03,27.64-14.7,42.58-19.53
		c21.62-6.98,43.59-12.49,66.32-14.26c40.49-3.16,79.83,2.53,118.11,15.89c2.11,0.74,4.21,1.5,6.35,2.15
		c0.49,0.15,1.09-0.07,2.16-0.17c3.12-4.33,4.92-9.55,6.13-14.98c1.22-5.49-0.57-10.12-5.36-13.05c-4.51-2.76-9.18-5.43-14.08-7.35
		c-17.04-6.68-35-9.66-52.95-12.64c-47.48-7.88-95.36-7.82-143.23-6.48c-47.12,1.32-93.62,8.18-139.62,18.43
		c-1.83,0.41-3.59,1.15-5.97,1.93c4.94,7.17,12.81,10.58,17.93,17.55c-1.51,2.26-3,4.5-4.26,6.38c-6.77,1.76-12.11,0.53-17.31-3.06
		c-7.31-5.05-14.94-9.64-22.54-14.49c-3.17,2.98-5.79,5.43-8.09,7.58c-4.93,1.87-9.19,0.9-13.25-1.06
		c-34.72,12.14-67.16,28.25-96.97,49.62c-18.65,13.37-37.35,26.69-56.46,39.38c-18.96,12.59-39.43,22.3-61.18,29.18
		c-15.02,4.75-30.32,8.05-46.14,7.83c-4.98-0.07-10.11-0.71-14.87-2.11c-10.17-3-18.79-10.7-17.39-24.32
		c0.5-4.91,1.73-9.97,3.78-14.44c5.23-11.37,13.53-20.48,22.99-28.55c28.5-24.31,61.42-38.49,98.59-42.7
		c11.3-1.28,20.98,2.35,28.46,11.17c4.98,5.87,5.77,11.05,2.07,17.75c-7.26,13.14-17.66,21.45-33.54,20.62
		c-9.53-0.5-16.09-5.3-19.14-14.29c1.4-2.78,2.73-6.2,4.73-9.18c1.95-2.89,4.58-5.33,7.71-8.87c-3.73,0.45-6.46,0.52-9.06,1.15
		c-18.01,4.37-35.56,10.04-51.53,19.73c-11.6,7.04-21.85,15.62-29.64,26.86c-4.22,6.09-7.01,12.71-6.92,20.16
		c1.84,6.33,6.66,8.89,12.34,10.27c8.02,1.96,16.13,1.6,24.18,0.3c20.96-3.38,40.33-11.3,59.1-20.91
		c13.49-6.91,26.15-15.12,38.45-23.94c15.92-11.42,31.73-22.99,47.99-33.92c27.58-18.53,57.6-32.16,88.99-42.88
		c2.87-0.98,5.72-2.04,9.5-3.39c-6.01-5.62-14.44-8.74-13.07-18.76c2.68-4.55,7.15-6.11,12.38-5.97
		c5.54,3.44,10.93,6.78,16.85,10.45c4.22-5.68,7.98-10.84,11.84-15.91c3.4-4.47,6.97-8.74,13.31-9.18c3.1,2.91,2.68,6.1,0.85,9.19
		c-2.84,4.81-5.9,9.49-8.91,14.21c-1.46,2.29-3.02,4.52-5.13,7.67c2.58-0.21,3.97-0.14,5.26-0.46c27.2-6.66,54.77-11.43,82.46-15.48
		c12.73-1.86,25.58-2.92,38.4-4.04c38.83-3.39,77.75-2.93,116.65-1.83c35.34,1,70.28,5.71,104.7,13.72
		c9.74,2.27,19.05,6.4,28.5,9.84c2.34,0.85,4.53,2.2,6.66,3.52c11.39,7.07,14.43,16.43,11.68,28.78c-1.14,5.11-3.76,9.89-5.73,14.81
		c-0.71,1.77-1.45,3.53-2.25,5.46c1.29,1.09,2.22,2.17,3.4,2.83c15.49,8.76,28.46,20.73,41.74,32.34
		c16.63,14.54,35.01,26.02,56.43,32.15c2.34,0.67,4.75,1.12,7.1,1.67c2.53-4.67-2.11-9.4,1.9-13.89c3.86,0,8.24,0,13.47,0
		c2.02,3.88,4.17,8,6.52,12.53c10.81-3.3,20.07-9.42,28.86-15.43c4.86,0,9.25,0,13.23,0c3.04,3.61,2.18,6.74,0.32,10.85
		c-5.68,3.39-12.03,7.17-19.56,11.67c8,1.85,14.65,1.63,21.21,1.49c32.31-0.7,64.13-5.26,95.43-13.23
		c8.65-2.2,17.26-4.94,25.44-8.48c9.56-4.14,18.4-9.83,23.38-19.53c2-3.89,3.51-8.3,4.05-12.62c2.45-19.6-4.27-36.35-17.02-50.91
		c-10.81-12.35-24.31-20.57-40.2-24.61c-13.58-3.45-27.29-6.22-41.43-5.74c-16.42,0.56-32.19,3.8-46.89,11.47
		c-7.08,3.7-13.36,8.33-17.26,15.43c-1.57,2.86-2.98,6.27-2.99,9.43c-0.03,10.16,4.05,18.78,11.75,27.15
		c0.96-3.7,1.68-6.23,2.29-8.8c2.07-8.83,8.44-13.14,16.64-14.42c5.4-0.85,11.07,0,15.65,0.07c10.61,9.66,12.52,22.05,5.84,32.52
		c-2.49,3.91-5.73,6.99-10.26,8.2c-12.7,3.38-25.25,4.18-37.73-1.48c-28.43-12.88-30.3-50.49-12.27-67.05
		c8.39-7.7,17.82-13.53,28.34-17.61c9.17-3.56,18.71-5.98,28.51-6.76c21.03-1.68,41.95-0.77,62.62,3.82
		c30.28,6.73,50.82,25.74,65.61,52.03c5.77,10.25,8.59,21.24,8.35,32.96c-0.44,21.56-10.43,37.14-29.54,47.1
		c-16.87,8.8-35.22,12.56-53.63,16.2c-35.34,7-71.01,9.17-106.95,6.94c-4.4-0.27-8.8-0.6-13.59-0.93
		c-0.49,8.4,8.36,14.37,4.19,22.98c-5.52,1.5-10.29-0.28-14.09-4.46c-2.42-2.67-4.32-5.83-6.34-8.84c-1.54-2.3-2.91-4.71-4.63-7.53
		c-4.43,1.09-8.72,2.1-12.98,3.21c-4.72,1.23-9.38,1.37-14.02-0.34c-2.74-1.01-5.05-2.39-5.67-5.63c2.3-4.92,8.25-1.93,12.03-5.33
		c-1.37-0.73-2.19-1.37-3.11-1.63c-25.84-7.44-47.53-21.92-67.81-39.13c-10-8.49-20.99-15.8-31.58-23.58
		C1544.14,1682,1542.55,1681.41,1540.29,1680.23z M1523.29,1672.18c-1.35-1.26-1.69-1.77-2.17-2c-1.76-0.84-3.53-1.69-5.36-2.36
		c-28.37-10.36-57.7-15.84-87.84-16.81c-18.26-0.59-36.27,1.64-54.07,5.93c-17.45,4.21-34.7,8.99-50.85,16.95
		c-4.96,2.44-9.64,5.67-13.92,9.17c-3.64,2.98-6.58,6.83-9.74,10.38c-1.27,1.43-2.31,3.06-3.82,5.1c2,1.51,3.57,3.13,5.48,4.06
		c5.02,2.43,10.11,4.8,15.33,6.78c13.73,5.19,28.19,7.07,42.65,8.76c28.67,3.36,57.38,5.51,86.26,2.93
		c17.96-1.6,34.33-7.55,49.34-17.39C1506.77,1695.7,1515.33,1684.47,1523.29,1672.18z"/>
	<path d="M280.72,694.58c2.41,1.1,4.33,2.1,6.35,2.87c21.48,8.16,34.99,23.49,40.9,45.58c5.19,19.42,6.76,39.19,4.22,59.09
		c-1.98,15.5-13.91,25.98-29.58,27.06c-11.21,0.78-21-2.73-29.14-10.46c-9.84-9.35-15.57-21.16-19.1-34
		c-5.88-21.4-4.05-42.68,2.05-63.76c0.85-2.95,1.71-5.9,2.47-8.87c0.12-0.46-0.27-1.05-0.52-1.94c-10.77-2.25-21.48-1.33-32.07,1.86
		c-8.63,2.6-16.76,6.35-24.32,11.22c-2.53,1.63-4.92,3.75-6.75,6.13c-11.45,14.87-22.32,30.13-30.85,46.94
		c-4.74,9.33-7.18,19.37-9.46,29.48c-4.44,19.69-3.55,39.47-1.15,59.3c4.56,37.69,14.35,74.07,27.55,109.59
		c4.48,12.06,9.04,24.09,13.65,36.1c2.99,7.81,5.74,15.75,11.02,21.58c1.21,12.15-2.86,19.98-14.52,21.05
		c-5.95,11.66-11.3,22.42-16.93,33.03c-3.01,5.68-6.41,11.16-9.82,16.61c-4.85,7.77-11.65,13.49-19.45,18.15
		c-7.22,4.32-14.46,8.34-23.1,9.41c-10.82,1.34-17.27-2.42-20.06-13.03c-2.34-8.89-1.46-17.85,1.3-26.49
		c6.27-19.61,15.39-37.85,27.8-54.3c9.48-12.57,22.39-19.08,38.13-19.94c2.18-0.12,4.36-0.28,7.15-0.46
		c-1.01-2.82-1.86-5.13-2.68-7.45c-8.15-22.93-16.78-45.7-24.22-68.85c-3.74-11.64-5.62-23.93-7.75-36.03
		c-1.89-10.73-2.78-21.64-4.4-32.42c-6.06-40.28,1.21-77.89,21.84-113.03c8.67-14.77,18.73-28.54,29.05-42.14
		c1.99-2.62,4.53-5.06,7.32-6.79c13.15-8.16,26.96-14.99,42.46-17.3c6.6-0.98,13.34-0.99,20.02-1.35c2.77-0.15,5.55-0.02,8.86-0.02
		c1.54-2.68,3.31-5.48,4.83-8.42c15.32-29.52,34.64-56.21,57.36-80.41c22.09-23.52,47.68-42.33,77.37-55.25
		c13.47-5.86,27.49-9.47,42.34-9.01c21.82,0.67,39.28,10.06,52.79,26.89c7.66,9.54,11.19,20.87,10.52,32.92
		c-1.02,18.46-3.54,36.79-11.31,53.87c-2.99,6.58-6.71,12.82-10.56,20.09c2.01-0.43,3.47-0.53,4.76-1.05
		c20.62-8.34,41.94-13.96,64.09-16.12c13.98-1.37,27.94-0.59,42.67,1.37c1.11,1.95,2.44,4.27,3.95,6.93
		c-6.22,8.74-7.78,18.68-8.5,28.26c-6.59,5.39-12.71,8.2-20.68,5.27c-3.28-1.21-7.18-0.89-10.8-0.95
		c-18.63-0.29-36.73,3.33-54.75,7.55c-4.63,1.08-9.24,2.28-13.91,3.17c-10.77,2.04-21.22,4.94-31.07,9.92
		c-3.38,1.71-7.27,2.42-10.46,3.44c-5.92-4.51-3.1-10.55-4.89-14.92c1.9-3.61,3.58-6.8,5.63-10.71
		c24.55-19.89,36.04-47.56,40.68-78.65c0.9-6.02,0.68-12.33,0.13-18.42c-0.95-10.51-5.97-18.95-14.15-25.76
		c-20.4-17-43.13-19.76-67.81-11.8c-9.9,3.19-19.3,7.5-28.15,12.94c-18.87,11.6-37.57,23.6-52.03,40.66
		c-10.48,12.35-20.4,25.28-29.54,38.65c-8.19,11.98-14.99,24.91-22.33,37.46C282.19,690.52,281.64,692.39,280.72,694.58z
		 M315.74,810.59c2.03-19.46,0.76-38.31-3.84-56.92c-1.07-4.32-2.54-8.6-4.37-12.66c-6.69-14.83-19.01-22.62-34.23-27.55
		c-0.97,2.17-1.98,3.59-2.24,5.13c-1.52,8.79-3.49,17.57-4.13,26.43c-1.27,17.68,2.39,34.47,11.22,49.98
		c4.92,8.64,12.01,14.65,21.68,17.33C305.05,813.8,310.26,814.25,315.74,810.59z"/>
	<path d="M1393.73,666.1c-1.65,1.23-3.33,2.48-4.99,3.72c-1.12-0.81-2.21-1.18-2.35-1.78c-1.14-4.85-2.88-9.73-3-14.63
		c-0.75-29.2,4.52-57.36,15.61-84.42c14.83-36.2,34.53-69.69,56.95-101.6c12.62-17.96,27.48-33.91,46.28-45.79
		c8.56-5.41,17.42-10.13,27.07-13.26c9.96-3.23,20.09-4.93,30.59-3.36c2.72,0.4,5.48,0.56,8.69,0.88
		c3.79-7.39,7.25-14.69,11.19-21.73c7.93-14.16,15.34-28.68,24.34-42.13c19.56-29.23,44.83-52.87,74.45-71.78
		c30.67-19.58,63.44-34.38,99.1-42.28c17.85-3.96,35.97-5.56,54.23-4.21c5.55,0.41,11.12,1.38,16.54,2.67
		c13.91,3.33,24.19,11.36,30.01,24.59c7.9,17.96,14.2,36.46,18.85,55.56c2.66,10.94,3.98,22,4.59,33.18
		c0.54,9.94-1.53,19.63-4.81,28.84c-7.79,21.86-13.88,44.35-23.64,65.48c-3.51,7.6-7.79,14.85-11.73,22.25
		c-0.75,1.41-1.6,2.76-2.92,5.01c2.53,0,4.07,0.11,5.58-0.02c2.79-0.24,5.55-0.83,8.34-0.92c9.1-0.28,15.31,5.38,16.08,14.59
		c0.66,7.96-2.03,15.04-6.94,21c-3.33,4.05-7.28,7.91-11.69,10.68c-11.63,7.29-23.89,13.3-37.16,17.31
		c-9.6,2.9-18.89,6.9-28.21,10.65c-4.72,1.9-9.25,4.2-14.72,1.78c-2.72-2.75-2.11-6.48-2.27-9.2c3.27-5.45,6.15-10.2,8.99-14.98
		c7.07-11.89,15.58-22.5,26.36-31.33c3.84-3.14,7.21-7,10.24-10.95c14.98-19.52,25.46-41.41,33.5-64.56
		c3.77-10.84,7.75-21.6,11.54-32.42c7.31-20.89,8.33-42.04,3.16-63.63c-3.99-16.66-9.5-32.72-16.16-48.49
		c-5.03-11.9-13.92-18.69-25.99-21.68c-11.76-2.92-23.72-3.52-35.85-2.59c-42.41,3.27-80.53,18.95-115.79,41.53
		c-21,13.45-39.63,30.28-55.31,49.87c-6.79,8.48-12.67,17.82-18,27.32c-9.84,17.57-18.97,35.54-28.37,53.35
		c-0.64,1.22-1.08,2.55-1.75,4.16c1.05,1.25,1.9,2.73,3.15,3.69c13.63,10.47,19.47,24.8,20.84,41.43
		c1.86,22.51-2.45,44.07-10.51,64.92c-3.42,8.85-7.92,17.28-12.07,25.84c-1.21,2.51-2.76,4.88-4.35,7.18
		c-9.34,13.55-16.41,17.27-34.44,12.59c-9.94-2.58-14.93-9.18-16.41-18.97c-1.61-10.66-0.72-21.25,1.16-31.75
		c3.26-18.24,9.18-35.75,15.28-53.19c5.07-14.49,10.21-28.97,15.39-43.64c-2.98-3.48-7.02-3.6-10.8-3.87
		c-10.89-0.76-21.18,1.91-30.82,6.69c-15.51,7.69-28.68,18.65-39.92,31.62c-32.56,37.59-57.75,79.73-75.46,126.2
		C1396.06,606.07,1391.73,632.39,1393.73,666.1z M1577.35,429.95c-1.32,2.48-2.2,3.89-2.85,5.4c-4.32,10.02-7.06,20.56-10.37,30.92
		c-4.7,14.7-8.04,29.69-11.84,44.58c-2.65,10.36-3.75,20.92-3.3,31.62c0.21,5.05,0.71,10.04,4.55,14.7
		c2.56,0.45,5.49,0.96,8.28,1.44c5.68-6.46,9.01-13.52,12.63-20.45c7.5-14.34,10.21-30.06,13.62-45.6
		c2.31-10.49,2.71-21.13,1.72-31.74C1588.78,449.88,1585.91,439.46,1577.35,429.95z"/>
	<path d="M1228.2,604.72c-0.76-3.45-1.29-5.85-2-9.06c11.31-13.1,22.23-26.97,34.45-39.58c12.91-13.33,23.95-28.1,35.48-42.5
		c20.1-25.12,39.77-50.59,59.83-75.75c12.06-15.13,23.88-30.5,32.69-47.71c9.92-19.38,21.07-38.3,26.97-59.49
		c2.32-8.33,3.94-16.87,5.5-25.39c0.59-3.25,0.42-6.73,0.06-10.04c-0.84-7.77-4.23-11.59-12.01-12.9c-4.36-0.73-8.9-0.62-13.35-0.47
		c-13.55,0.46-26.54,3.92-39.36,8.01c-23.32,7.44-45.15,18.11-65.99,30.86c-1.4,0.86-2.64,1.99-4.21,3.2
		c0.24,1.95,0.46,3.85,0.72,5.74c1.47,10.55-0.56,20.63-4.35,30.39c-7.73,19.87-19.71,36.91-34.66,52.01
		c-13.51,13.64-28.83,24.71-45.7,33.82c-7.34,3.96-14.8,4.77-22.72,2.86c-7.58-1.83-10.69-6.16-8.14-13.59
		c2.42-7.07,5.7-14.04,9.7-20.36c15.44-24.4,32.67-47.47,53.75-67.37c7.71-7.28,16.06-13.89,24.1-20.83
		c1.64-1.41,3.16-2.96,4.9-4.59c-4.32-6.82-10.69-8.92-17.56-8.5c-8.05,0.5-16.21,1.51-24,3.53c-9.15,2.37-18.23,5.47-26.87,9.31
		c-16.13,7.17-31.46,15.88-45.45,26.78c-15.3,11.92-28.79,25.64-40.72,40.91c-1.28,1.64-2.78,3.12-5.23,5.84
		c0-2.9-0.49-4.47,0.09-5.35c2.22-3.4,4.72-6.62,7.22-9.83c1.67-2.15,3.78-3.99,5.24-6.26c5.83-9.02,15.09-14.68,21.97-22.66
		c7.4-2.61,10.73-10.28,17.31-13.99c1.42-0.8,2.02-3.07,3.47-5.45c0.36-0.04,1.68-0.18,3.44-0.37c0.43-1.3,0.91-2.78,1.38-4.21
		c23.17-14.67,47.52-26.21,75.05-29.7c1.11-0.14,2.21-0.35,3.33-0.44c18.22-1.36,23.72,0.38,37.26,10.34
		c4.89-2.68,10-5.48,15.11-8.26c27.46-14.94,56.39-25.92,87.11-31.97c10.18-2,20.47-3.15,30.88-2.6c2.5,0.13,5.03,0.39,7.47,0.93
		c13.29,2.94,21.07,11.78,21.18,25.41c0.06,7.77-0.79,15.68-2.36,23.29c-2.84,13.73-7.76,26.84-13.77,39.54
		c-15.39,32.56-34.69,62.59-57.74,90.27c-13.07,15.69-25.71,31.75-38.52,47.65c-0.94,1.17-1.73,2.47-3.52,5.07
		c6.09-2.6,10.55-4.82,15.22-6.38c3.67-1.22,7.58-2.09,11.43-2.31c9.48-0.52,17.02,2.73,21.07,13.04
		c-1.17,11.96-5.93,23.09-14.95,32.08c-12.52,12.48-26.11,23.77-41.43,32.68c-16.92,9.84-33.9,19.63-52.02,27.22
		c-3.6,1.51-7.07,3.38-10.51,5.25c-5.86,3.18-12.19,4.07-18.69,3.73C1233.34,606.46,1230.98,605.44,1228.2,604.72z M1188.68,438.37
		c2.01-0.1,3.46,0.2,4.55-0.3c4.57-2.08,9.29-3.98,13.48-6.7c17.83-11.59,32.34-26.58,44.32-44.11
		c8.13-11.9,14.44-24.53,16.77-38.91c0.6-3.7,1.59-7.36-0.19-12.09c-5.44,4.66-10.22,8.46-14.69,12.61
		c-24,22.27-43.19,48.29-59.48,76.55c-1.25,2.17-2.35,4.47-3.25,6.81C1189.51,433.93,1189.28,435.81,1188.68,438.37z"/>
	<path d="M811.02,1176.75c4.21,1.49,7.58,2.68,9.99,3.54c3.64,4.96,6.6,8.98,9.7,13.21c0,2.37,0,4.85,0,6.29
		c-2.3,4.31-4.03,7.75-5.93,11.09c-4.16,7.35-11.19,10.17-18.97,10.27c-4.59,0.06-9.33-1.69-13.79-3.24
		c-4.74-1.65-8.14-4.9-8.39-10.46c1.11-7.94,7.33-12.83,12.14-19.28c-9.75-9.85-21-16.97-33.09-22.74
		c-8.96-4.27-17.99-8.74-28.77-9.1c1.69,5.9,3.43,11.13,4.67,16.48c2.71,11.75-0.63,22.17-7.87,31.41
		c-8.52,10.88-20.34,16.4-33.45,19.41c-10.23,2.35-20.57,2.37-30.8-0.09c-3.51-0.85-7.04-1.98-10.27-3.56
		c-12.55-6.16-16.35-18.12-9.22-30.16c2.81-4.75,6.56-9.1,10.55-12.95c11.15-10.74,23.75-19.54,37.72-26.31
		c1.22-0.59,2.37-1.36,4.25-2.45c-1.35-1.46-2.21-2.8-3.42-3.64c-15.93-11.07-33.5-17.73-52.81-19.95
		c-10.88-1.25-21.72-1.58-32.83-0.75c-15.16,17.3-35.72,23.15-57.28,26.74c-7.13,1.19-9.81,0.58-15.39-2.61
		c-0.17-3.32,2.11-5.45,4.27-7.57c13.18-12.98,28.11-23,46.3-27.58c2.11-0.53,4.15-1.33,6.36-2.06c-0.18-4.69-2.67-7.67-5.22-10.59
		c-5.46-6.29-12.44-10.26-20.08-13.33c-27.53-11.05-54.27-7.65-80.52,4.36c-1.74,0.8-3.38,2.01-4.78,3.34
		c-7.69,7.29-17.17,11.42-26.73,15.44c-4.73,1.99-8.68,1.32-12.02-3.28c1.9-5.53,6.55-8.78,10.92-12.01
		c5.16-3.81,10.44-7.83,16.28-10.28c8.1-3.4,12.59-18.75,9.7-27.29c-2.1-6.18-6.49-8.11-12.54-4.92
		c-13.57,7.15-25.42,16.29-32.82,30.22c-1.18,2.21-2.24,4.66-3.99,6.34c-1.71,1.64-4.14,2.74-6.44,3.49
		c-2.14,0.7-4.47,0.43-6.11-2.05c-1.23-2.94,0.08-5.73,1.31-8.57c2.81-6.54,6.95-12.27,12.01-17.07
		c7.49-7.11,15.26-14.01,23.5-20.19c4.83-3.62,10.59-6.43,16.35-8.31c13.64-4.45,27.11,5.34,27.61,19.69
		c0.16,4.69-0.42,9.4-0.69,14.82c1.91-0.18,3.74-0.16,5.49-0.55c5.72-1.29,11.36-3.07,17.13-4.05c22.88-3.87,44.58,0.09,65.06,10.76
		c15.06,7.85,19.72,13.38,27,31.23c39.22-1.53,75.87,6.51,106.25,33.47c1.69,0.08,3.1,0.32,4.47,0.19c19.47-1.94,37,4.03,53.8,13.07
		C791.24,1160.88,801.95,1168.44,811.02,1176.75z M710.12,1158.41c-13.67,4.53-26.29,11.37-36.72,21.8
		c-3.31,3.31-6.19,7.23-8.53,11.29c-4.95,8.6-1.95,16.05,7.54,18.97c9.64,2.97,19.35,2.39,28.77-1.05c3.6-1.31,7.59-2.72,10.26-5.27
		C723.4,1192.74,722.8,1170.83,710.12,1158.41z"/>
	<path d="M338.55,1178.33c1.87,1.25,3.9,2.59,6.21,4.13c-1.43,5.72-3.97,10.11-8.85,12.95c-9.98,5.8-20.38,10.55-31.94,12.19
		c-2.2,0.31-4.47,0.55-6.68,0.4c-7.09-0.47-14.03-1.43-18.26-7.94c-1.37-0.41-2.42-0.93-3.51-1.01c-14.42-1.13-28.5,0.56-42.03,5.75
		c-8.56,3.28-15.45,8.97-21.26,15.97c-6.7,8.07-11.68,17.15-14.44,27.26c-1.08,3.95-1.43,8.34-1,12.41
		c1.45,13.86,14.9,17.45,23.56,12.92c1.48-0.78,3-1.55,4.34-2.54c1.33-0.98,2.46-2.25,3.58-3.3c1.69-5.68,0.25-10.03-4.16-13.21
		c-4.8-1.04-9.38,3.83-13.8-0.08c0.92-13.66,11.25-20.44,23.13-15.25c3.04,1.33,6.2,2.89,8.56,5.12c4.38,4.16,5.36,9.6,4.13,15.5
		c-2.61,12.55-12.69,25.42-29.07,29.51c-4.28,1.07-8.85,1.46-13.28,1.38c-16.85-0.31-26.9-11.68-25.44-28.38
		c0.05-0.56,0.01-1.14,0.16-1.67c7.46-27.25,20.38-50.86,45.09-66.33c9.44-5.91,20.2-8.17,31.12-9.31
		c7.76-0.81,15.59-1.03,24.33-1.57c4.55-11.23,11.14-21.81,20.84-31.46c-2.83-0.86-4.52-1.57-6.29-1.87
		c-6.89-1.18-13.93-1.74-20.67-3.49c-5.89-1.53-11.8-3.72-17.08-6.7c-9.87-5.58-14.48-14.41-13.52-25.92
		c0.9-10.72,3.6-20.91,8.5-30.52c15.51-30.39,36.93-55.95,63.29-77.46c2.15-1.76,4.58-3.21,6.99-4.63
		c10.13-5.98,20.71-6.29,31.49-2.07c11.46,4.5,21.21,11.28,28.02,21.8c0.45,0.69,1.1,1.24,2.07,2.3c2.47-1.59,4.93-3.27,7.49-4.8
		c10.81-6.42,19.52-4.17,26.51,6.4c6,9.06,6.2,19.03,4.83,29.12c-1.55,11.3-6.62,21.38-12.94,30.69c-2.6,3.83-6.05,7.38-11.26,8.65
		c-0.83-0.44-1.78-0.95-2.69-1.44c-0.19-1.02-0.65-1.93-0.43-2.62c1.42-4.5,2.95-8.97,4.5-13.43c2.39-6.85,5.09-13.6,7.17-20.54
		c1.71-5.75,1.18-11.66-0.64-17.38c-1.21-3.8-2.94-7.25-7.22-9.11c-5.19,1.07-8.68,4.34-10.91,8.96
		c-1.86,26.22-2.66,29.09-9.92,35.35c-2.08,0.1-4.3,0.23-6.52,0.29c-0.54,0.01-1.09-0.2-2.44-0.47
		c-11.8-10.24-4.96-21.18-0.05-31.71c-2.3-19.79-20.68-29.47-35.45-30.13c-4.51-0.2-8.04,2.35-11.21,5.12
		c-11.81,10.34-22.99,21.33-32.55,33.83c-8.69,11.36-16.58,23.24-22.86,36.12c-3.86,7.91-5.79,16.26-6.09,25.09
		c-0.24,7,2.89,11.93,8.68,15.1c3.64,1.99,7.63,3.76,11.68,4.52c11.81,2.24,23.71,4.09,35.62,5.73c3.83,0.53,7.82,0.06,11.72-0.17
		c5.76-0.34,10.26,1.71,13.63,6.1c-3.19,10.19-5.43,11.75-14.95,10.81c-1.94-0.19-3.89-0.21-5.51-0.3
		c-14.03,6.96-23.56,20.53-23.03,32.87c6.67,2.01,13.76,3.22,20.47,1.36C324.9,1185.38,331.02,1181.73,338.55,1178.33z"/>
	<path d="M715.86,667.35c1.67-2.11,3.22-4.08,5.18-6.58c-0.26-7,4.64-10.91,10.73-13.83c8.04-3.86,16.74-4.46,25.38-4.09
		c6.32,0.27,11.79,3.28,15.91,8.34c1.39,1.7,2.83,3.35,4.65,5.49c2.96-5.87,5.8-11.27,8.42-16.77c2.85-5.99,6.33-11.18,14.08-12.03
		c-3.75-4.92-7.02-9.21-9.48-12.43c-0.6-8.14,2.6-12.74,7.56-16.53c7.72-5.91,15.82-10.51,26.12-9.21c1.84,0.23,3.81-0.41,5.71-0.76
		c3.3-0.6,6.55-1.61,9.87-1.86c12.91-0.98,22.65,9.2,20.95,22.06c-0.61,4.63-2.14,9.14-3.02,12.76c-6.45,5.52-13.3,6.94-20.74,8.59
		c2.92,12.26-2.01,24.64,2.29,36.68c1.75,4.9,0.93,9.92-0.3,14.89c-1.84,7.49-5.83,13.05-12.94,16.54c-3.42,1.68-6.54,4.2-9.37,6.8
		c-6.95,6.38-15.02,7.41-23.45,4.6c-8.56-2.86-14.16-8.72-14.98-18.29c-0.43-4.98-1.19-9.93-1.93-15.97
		c-2.46,1.93-4.1,3.21-5.73,4.49c-4.99,3.93-10.5,6.33-17,6.05c-5.87-0.25-11.77-0.08-17.59-0.72c-3.82-0.42-7.68-1.55-11.25-3.03
		C718.71,679.98,715.28,675.25,715.86,667.35z M826.16,596.92c-7.75,3.17-13.93,7.08-17.6,11.1c-1.03,1.13-1.54,2.73-2.24,4.02
		c7.78,6.65,23.86,8.29,35.29,3.77c0.67-4.33,3.91-8.67-0.24-14.06c-3.56-0.17-7.65-0.36-12.69-0.6
		C828.12,600.2,827.13,598.53,826.16,596.92z M760.56,660.48c-7.28-5.74-14.94-6.11-23.05-1.05c-0.77,2.35-1.53,4.69-2.23,6.83
		c-0.96,0.65-1.7,1.05-2.31,1.6c-0.74,0.66-1.37,1.44-2.56,2.74c9.08,5.67,17.99,4.33,26.4,3.02
		C760.7,669.48,762.35,665.59,760.56,660.48z"/>
	<path d="M1061.26,630.42c0.76-1.84,1.27-3.1,1.69-4.12c-0.74-4.63-5.52-7.75-3.64-13.02c3.78-2.83,7.88-1.04,11.57-0.78
		c10.53,8.35,11.47,15.74,3.09,27.77c-4.27,1.12-9.35,2.46-15.13,3.98c2.72,13.66-3.54,25.27-10.14,37.58c2.06,0,3.5,0,4.94,0
		c5.56-0.02,11.24-0.79,16.64,0.11c10.35,1.73,16.17,8.73,17.42,20.72c1.08,10.32-3.79,17.23-13.89,21.33
		c-7.23,2.94-14.65,3.78-22.22,2.34c-3.21-0.61-6.63-1.64-9.26-3.48c-5.25-3.67-10.29-7.74-14.92-12.17
		c-6.52-6.24-6.65-10.4-1.58-18.47c-0.16-0.49-0.16-1.17-0.5-1.44c-8.06-6.51-9.69-14.93-8.54-24.84
		c1.32-11.4,4.63-21.84,11.54-30.93c-0.43-1.08-0.6-1.91-1.04-2.56c-7.65-11.06-3.43-24.47,9.13-29.3
		c5.94-2.28,11.95-2.81,18.13-1.52c3.9,0.81,6.64,2.72,6.49,7.89c-3.16,0.68-6.31,1.76-9.51,1.98c-7.35,0.49-10.9,4.72-12.74,12.15
		C1045.53,628.51,1053.22,629.73,1061.26,630.42z M1062.53,713.67c7.72-7.19,8.41-10.13,4.43-18.49c-9.48-2.81-17.7-0.1-25.11,6.14
		C1045.51,709.86,1052.05,713.82,1062.53,713.67z"/>
	<path d="M1321.87,839.2c2-1.77,3.54-3.35,5.3-4.63c12.9-9.36,26.03-18.41,38.74-28.01c27.06-20.44,55.97-38.01,84.94-55.51
		c17.24-10.41,34.31-21.1,51.57-31.46c5.26-3.16,10.95-5.59,16.4-8.44c3.64-1.9,7.36-2.55,11.92-1.04c1.09,1.58,2.48,3.58,4.28,6.19
		c-1.96,1.59-3.43,3.26-5.27,4.21c-29.1,15.07-56.31,33.32-84.58,49.79c-31.23,18.2-60.62,39.11-89.53,60.75
		c-6.26,4.68-12.92,8.85-19.64,12.85C1330.06,847.45,1325.86,846.03,1321.87,839.2z"/>
	<path d="M1823.92,673.27c1.87,3.6,3.35,6.45,5.16,9.92c-2.64,0.91-4.34,1.77-6.13,2.07c-31.73,5.31-63.1,12.07-94.01,21.13
		c-14.72,4.31-29.97,6.78-44.96,10.2c-25.06,5.71-50.1,11.51-76.05,17.49c-2.25-0.8-5.16-2.3-6.41-6.2c0.78-4.4,4.36-6.03,8.18-7.09
		c9.96-2.77,19.9-5.71,29.98-7.93c37.67-8.3,75.43-16.1,112.72-26.11c19.95-5.36,40.43-8.74,60.71-12.84
		C1816.3,673.24,1819.69,673.48,1823.92,673.27z"/>
	<path d="M435.4,451.19c-4.24,0.35-6.99,0.58-9.83,0.82c-5.36-1.59-9.56-4.62-11.25-10.2c-5.58-18.37-9.37-37.04-4.58-56.11
		c5.12-20.4,12.8-39.9,23.35-58.16c5.94-10.29,14.45-18.46,23-26.51c1.58-1.49,3.73-2.37,5.4-3.39c5.76,1.77,5.76,1.77,9.5,6.16
		c-1.37,1.81-2.59,4-4.34,5.64c-12.65,11.91-21.91,26.01-27.76,42.37c-3.95,11.04-8.19,21.98-11.87,33.11
		c-3.69,11.15-3.54,22.64-1.07,33.99c1.89,8.68,3.09,17.64,8.33,25.32C435.34,445.78,434.99,448.31,435.4,451.19z"/>
	<path d="M1719.72,749.73c0.37-2.28,0.79-4.86,1.11-6.83c4.77-2.73,9.03-2.35,13.19-2.11c16.49,0.93,32.97,1.99,49.45,3
		c11.17,0.69,22.35,1.39,33.52,2.1c25.13,1.59,50.26,3.14,75.39,4.81c2.44,0.16,4.84,1.02,7.57,1.62c1.08,2.76,2.05,5.26,2.87,7.35
		c-2.45,4.31-5.91,4.14-9.25,3.89c-10.05-0.75-20.08-1.71-30.12-2.44c-14.51-1.05-29.03-2.03-43.55-2.93
		c-24.03-1.5-48.05-2.97-72.09-4.31c-5.56-0.31-11.16-0.31-16.72-0.03C1727.23,754.05,1723.85,753.5,1719.72,749.73z"/>
	<path d="M493.18,452.33c-4.58-0.27-9.84,1.72-14.36-4.17c0.31-1.58,0.47-4.04,1.32-6.23c0.79-2.04,2.22-3.88,3.53-5.68
		c19.8-27.16,36.38-56.35,53.79-85.03c2.03-3.34,4.12-6.65,6.29-9.9c2.58-3.87,6.05-6.53,11.11-7.41c3.1,1.17,5.02,3.77,6.85,7.08
		c-0.8,1.97-1.32,4.2-2.49,6.01c-20.09,31.27-37.73,64.1-59.86,94.08C497.09,444.2,495.61,447.88,493.18,452.33z"/>
	<path d="M850.54,661.37c1.27-5.69,4.56-8.88,8.48-11.06c5.83-3.25,11.79-6.55,18.09-8.61c9.32-3.05,14.67-1.63,19.84,6.4
		c1.95,0.18,4.13,0.38,6.6,0.61c1.32,1.22,2.82,2.46,4.15,3.86c1.15,1.21,2.1,2.6,3.01,3.74c1.72,5.54,1.08,10.82-0.31,15.98
		c-2.64,9.78-11.27,16.07-21.39,14.83c-6.89-0.84-13.93-2.22-20.34-4.77C859.29,678.62,851.68,672.55,850.54,661.37z M889.54,652.76
		c-6.38-2.2-11.27,0.48-15.86,3.74c-2.98,2.12-5.65,4.74-4.11,9.94c5.39,4.78,11.66,8.85,20.95,7.79c1.33-4.88,2.61-9.58,3.79-13.91
		C892.36,657.23,890.89,654.91,889.54,652.76z"/>
	<path d="M819.77,393.36c2.55-1.27,4.46-2.22,6.17-3.07c9.95,3.42,19.73,6.31,20.38,19.38c1.45,1.25,3.09,2.66,5.1,4.39
		c1.39-1.25,2.55-2.3,3.85-3.48c0.64,0.28,1.73,0.39,2.07,0.95c4.07,6.66,11.93,9.69,15.77,16.54c8.37,3.51,13.68,11.15,21.27,15.74
		c2.61,1.58,4.86,3.75,7.37,5.51c3.16,2.22,5.1,5.11,5.46,9.28c-0.71,2.39-1.49,5.05-2.28,7.74c-2.96,4.91-7.79,6.53-12.96,5.75
		c-4.58-0.69-9.25-2.21-13.34-4.38c-3.81-2.02-6.1-5.71-4.4-11.2c2.33-1.52,5.05-3.3,7.9-5.16c-0.51-0.9-0.76-1.75-1.33-2.26
		c-13.82-12.61-27.62-25.24-41.56-37.71c-3.73-3.34-7.84-6.27-11.96-9.13C824.24,400.13,821.47,397.96,819.77,393.36z
		 M894.87,458.63c-2.72-2.27-4.94-4.13-6.7-5.59c-3.99,0.68-6.16,2.07-6.78,5.5c1.89,5.25,6.03,5.59,10.94,4.88
		C893,462.16,893.63,460.99,894.87,458.63z"/>
	<path d="M752.64,491.65c-14.01,5.53-27.08,3.16-40.51-2.04c-6.75,3.28-14.02,6.01-22.07,5.38c-9.57-0.75-15.57-7.4-14.74-16.67
		c0.24-2.71,1.23-5.35,1.85-7.92c2.73-1.66,5.09-3.09,7.44-4.51c3.78,1,5.78,3.44,6.78,6.72c0,3.38,0,6.62,0,9.75
		c3.8,2.15,6.82,0.58,10.33-0.82c0.48-1.66,1-3.47,1.77-6.12c2.47-1.48,5.48-3.3,9.08-5.47c2.99,3.19,5.59,5.97,8.65,9.24
		c4.3,1.62,9.19,3.51,14.35,2.79c3.23-3.51,1.09-7.23,1.25-10.63c1.81-4.9,5.54-4.9,9.73-4.16
		C755.03,473.29,754.57,481.64,752.64,491.65z"/>
	<path d="M983.97,469.76c-1.67-0.47-2.44-0.69-3.61-1.02c0.86-1.82,1.63-3.46,2.25-4.79c-0.05-3.4-1.73-4.96-5.31-5.68
		c-1.39,0.48-3.42,1.18-5.03,1.73c-4.37-18.62-8.08-37.21-13.21-55.4c-4.09-14.51-12.17-26.98-24.96-35.7
		c-3.18-2.17-6.82-3.68-10.27-5.45c-3.15-1.62-5.53-3.7-4.85-8.06c1.03-0.16,2.06-0.33,3.36-0.53c5.39,6.74,11.97,11.59,21.16,12.91
		c1.68,2.61,3.47,5.39,5.79,9c0.09,0.01,1.43,0.14,3.21,0.31c0.19-2.03,0.36-3.75,0.53-5.56c3.81,0.69,4.36,3.72,5.76,6.08
		c-0.33,1.25-0.66,2.51-1.08,4.1c1.47,0.36,2.75,0.67,4.66,1.13c0.74,1.35,1.83,3.32,2.88,5.24c-0.48,0.68-0.95,1.35-1.82,2.58
		c1.44,0.56,2.63,1.02,3.91,1.52c6.09,9.19,7.66,19.84,9.71,30.73c-1.29,0.6-2.53,1.17-3.3,1.53c2.73,3.27,5.65,5.24,6.3,7.8
		c2.66,10.5,7.13,20.59,7.75,32.02C986.7,465.82,985.46,467.61,983.97,469.76z"/>
	<path d="M1607.08,674.66c-0.98,2.61-1.74,4.62-2.54,6.75c-12.94,3.77-23.65,11.51-35.19,17.6c-4.24,2.24-8.49,4.38-14.36,1.31
		c-0.65-1.7-1.58-4.14-2.81-7.35c1.69-1.23,2.95-2.35,4.38-3.15c9.47-5.3,18.98-10.54,28.48-15.77c5.37-2.96,11.14-3.24,16.97-2.13
		C1603.7,672.26,1605.19,673.61,1607.08,674.66z"/>
	<path d="M582.14,430.94c4.86,2.68,8.33,6.01,8.95,11.9c-2.61,7.59-9.06,8.69-15.99,8.5c-7.99-0.22-13.33-4.38-16.57-11.69
		C564.41,430.92,572.87,430.58,582.14,430.94z"/>
	<path d="M1704.93,638.14c-0.97-0.24-3.05-0.75-4.97-1.21c-0.46-1.21-0.98-1.97-1.01-2.74c-0.13-4.07,2.49-6.94,5.27-9.07
		c6.73-5.18,14.32-8.52,23-8.45c3.2,2.23,6.38,4.1,5.21,8.79C1723.58,629.53,1714.79,633.59,1704.93,638.14z"/>
	<path d="M798.91,272.52c-2.72,0.87-4.26,1.36-6.45,2.07c-0.07-6.23-4.76-11.19-3.59-17.52c2.85-5.01,7.27-4.38,11.61-3.71
		c9.23,8.9,11.59,17.98,6.67,25.4C804.44,276.71,801.71,274.64,798.91,272.52z"/>
	<path d="M1865.11,1442.91c3.94-10.85,9.3-13.15,21.67-9.42c0.73,1.41,1.76,3.06,2.46,4.84c0.71,1.79,1.11,3.71,1.73,5.87
		c-1.08,1.84-2.18,3.71-3.08,5.24c-4.22,1.94-8.17,1.89-11.98,1.05C1871.53,1449.53,1867.33,1447.92,1865.11,1442.91z"/>
	<path d="M120.66,1274.02c0,2.45,0,4.88,0,7.48c-1.9,2.36-3.82,4.73-5.72,7.12c-3.04,3.83-7.27,4.93-11.87,5.04
		c-2.43,0.06-2.43-0.04-5.88-4c1.1-7.63,6.18-12.79,11.88-17.3C112.58,1269.6,116.4,1270.6,120.66,1274.02z"/>
	<path d="M1863.6,1543.48c-0.48,3.74-0.88,6.9-1.21,9.47c-6.09,4.61-11.82,3.55-17.36,1.46c-5.36-2.02-6.65-5.27-5.41-12.74
		C1847.25,1539.14,1854.98,1537.35,1863.6,1543.48z"/>
	<path d="M142.31,1690.96c2.91-0.39,5.38-0.72,8.17-1.1c3.24,2.96,9.6,0.83,11.24,6.97c-0.9,5.36-4.96,8.44-8.76,12.19
		c-3.37,0-6.9,0-10.13,0C137.63,1701.62,137.54,1698.47,142.31,1690.96z"/>
	<path d="M1856.89,1496.28c0.59-2.29,1.18-4.56,1.95-7.53c8.52,1.15,17.16-2.99,24.66,4.84c0.17,2.22,0.38,4.91,0.56,7.3
		C1875.9,1506.09,1866.81,1504.64,1856.89,1496.28z"/>
	<path d="M853.3,272.52c-4.66-0.63-8.57-2.35-11.93,0.64c-0.17,1.02-0.35,2.03-0.52,3.06c-0.71-0.17-1.45-0.11-1.69-0.43
		c-4.18-5.61-11.77-8.41-13.86-15.81C835.28,253.41,847.05,258.48,853.3,272.52z"/>
	<path d="M1532.16,762.16c-0.78,4.35-4.36,5.57-6.22,8.28c-4.02,0.85-7.82,1.65-12.11,2.55c-2.4-1.58-4.91-3.24-7.47-4.93
		c0-1.97,0-3.59,0-5.98c2.96-0.68,5.84-1.55,8.79-1.97C1525.43,758.66,1527.13,758.91,1532.16,762.16z"/>
	<path d="M671.12,595.69c4.77-4.79,9.46-3.7,14.82-0.54c-0.45,3.04-0.88,5.96-1.33,8.97c-1.51,1.32-2.95,2.58-4.79,4.18
		c-2.16-0.24-4.56-0.51-6.5-0.72C670.11,603.84,669.37,600.27,671.12,595.69z"/>
	<path d="M1650.42,754.38c-1.45,3.23-3.7,4.25-6.32,4.09c-2.7-0.16-5.66-0.24-7.99-1.4c-3.55-1.77-3.62-5.14-2.29-8.47
		C1643.68,744.44,1648.28,746.04,1650.42,754.38z"/>
	<path d="M1135.23,599.76c-7.17,6.25-12.9,5.3-18.88-2.94c1.16-5.36,5.69-5.09,9.7-5.19
		C1131.01,591.5,1132.83,593.25,1135.23,599.76z"/>
	<path d="M1113.81,754.89c3.74-2.8,7.64-2.85,12.05-3.82c2.07,1.47,4.44,3.15,6.95,4.93c-0.67,2.39-1.16,4.15-1.79,6.39
		c-2.34,0.17-4.58,0.8-6.58,0.37C1120.13,761.83,1115.82,760.55,1113.81,754.89z"/>
	<path d="M658.46,622.52c4.71-4.78,9.09-5.59,14.1-4.71c2.58,3.34,0.72,6.3-0.42,9.59c-3.93,1.82-7.71,4.15-13.27,2.39
		C658.74,627.34,658.59,624.74,658.46,622.52z"/>
	<path d="M1131.4,566.28c7.78-5.79,14.26-4.69,18.12,3.27c-1.69,1.43-3.51,2.98-4.91,4.17
		C1134.15,572.9,1134.15,572.9,1131.4,566.28z"/>
	<path d="M726.69,592.36c1.31,1.05,2.77,2.22,4.38,3.52c-1.38,5.05-4.29,8.38-8.77,10.33c-6.55-2.59-6.55-2.59-6.21-9.52
		C718.79,593.76,722.29,592.47,726.69,592.36z"/>
	<path d="M1082.89,568.49c-0.27-1.93-0.48-3.49-0.65-4.74c1.93-2.62,4.31-3.6,6.82-3.13c4.17,0.78,9.06,0.81,10.47,6.69
		C1094.6,572.37,1089.26,571.23,1082.89,568.49z"/>
	<path d="M1206.77,804c-5.54-1.06-10.75-1.85-12.21-8.58c3.23-3,7.35-2.38,10.66-3.52C1212.28,795.83,1212.61,798,1206.77,804z"/>
	<path d="M1074.83,790.46c3.71-3.38,7.52-3.82,11.08-4.55c6.11,3.43,6.28,3.85,4.03,10.41
		C1083.91,797.9,1078.98,796.41,1074.83,790.46z"/>
</g>
</svg>
