<?xml version="1.0" encoding="utf-8"?>
<!-- Generator: Adobe Illustrator 27.4.0, SVG Export Plug-In . SVG Version: 6.00 Build 0)  -->
<svg version="1.1" id="Calque_1" xmlns="http://www.w3.org/2000/svg" xmlns:xlink="http://www.w3.org/1999/xlink" x="0px" y="0px"
	 viewBox="0 0 2000 2000" style="enable-background:new 0 0 2000 2000;" xml:space="preserve">
<g>
	<path d="M957.54,1827.54c4.57,4.65,8.86,8.87,12.99,13.25c4.17,4.42,8.2,8.98,12.25,13.52c4.01,4.5,7.32,9.65,12.34,13.84
		c2.56-1.63,5.01-3.22,7.48-4.75c4.39-2.71,8.84-5.32,13.18-8.1c9.25-5.91,19.6-8.32,30.29-9.59c9.15-1.09,18.3-2.07,27.55-0.77
		c3.03,0.43,6.17,0.07,9.43,0.07c0.53,1.69,1.02,3.24,1.51,4.79c0.11-0.07,0.22-0.13,0.33-0.2c1.75,2.77,3.88,5.38,5.18,8.36
		c2.17,4.97,0.64,8.45-4.24,10.87c-8.89,4.41-18.39,6.43-28.23,6.97c-4.05,0.22-8.11,0.27-12.16,0.14
		c-9.32-0.3-18.36,1.25-27.22,3.97c-6.62,2.03-13.28,2.82-20.18,1.5c-1.9-0.37-3.97,0.09-5.96,0.21c-1.63,0.1-3.25,0.28-4.93,0.42
		c-14.04-17.83-28.59-34.89-45.17-50.35c-8.33,0.84-16.4,4.32-24.73,2.7c-1.15-2.53,0.07-3.7,1.73-4.26
		c2.78-0.93,5.63-1.66,8.5-2.27c2.63-0.55,5.32-0.83,8.3-1.27c-0.91-2.61-2.68-3.74-4.19-4.97c-6.57-5.4-13.6-10.06-21.37-13.63
		c-10.75-4.94-21.9-8.74-33.27-11.84c-7.08-1.93-14.55-2.49-21.55-4.63c-7.65-2.34-15.51-2.89-23.27-4.16
		c-9.08-1.48-18.25-2.5-27.41-3.4c-13.4-1.31-26.86-1.57-40.32-1.41c-2,0.02-4,0.19-5.69,0.27c-5.64,9.1-11.05,17.81-16.66,26.86
		c0.53,0.32,1.2,0.92,1.99,1.16c5.47,1.65,10.93,3.33,16.44,4.79c6.55,1.74,13.01,3.68,20.34,6.74c-1.82,0.48-2.58,0.74-3.36,0.87
		c-13.32,2.25-25.94-1.16-38.54-4.76c-1.4-0.4-2.81-0.75-4.23-1.12c-0.72,0.47-1.42,0.77-1.93,1.27
		c-14.18,13.5-30.86,23.28-48.18,31.99c-19.43,9.78-39.44,18.28-60.09,25.18c-5.91,1.97-12.03,3.45-18.15,4.65
		c-7.87,1.54-15.8,0.88-23.62-0.71c-2.31-0.47-4.56-1.45-6.71-2.47c-3.51-1.65-5.98-4.26-6.6-8.45c0.71-7.25,4.24-13.51,8.23-19.5
		c8.06-12.1,18.48-21.99,29.88-30.83c15.52-12.04,32.42-21.72,50.88-28.55c0.63-0.23,1.16-0.74,2.61-1.71
		c-1.06-0.57-1.74-0.87-2.36-1.28c-11.74-7.63-23.28-15.58-35.24-22.84c-13.91-8.45-27.53-17.16-38.47-29.43
		c-0.48-0.54-1.11-0.95-2.17-1.84c-7.56,1.64-15.5,3.12-23.31,5.1c-14.47,3.67-28.68,8.15-42.61,13.58
		c-23,8.97-44.31,20.89-63.57,36.32c-7.8,6.24-14.7,13.45-19.22,22.54c-1.62,3.27-2.77,6.77-4.56,11.2
		c-0.67,0.56-2.21,1.84-3.94,3.27c-1.36-0.24-2.75-0.48-4.17-0.73c-1.21-3.65-0.36-6.77,1.01-9.85c3.41-7.66,8.23-14.35,13.85-20.52
		c10.53-11.55,23.03-20.6,36.19-28.84c25.19-15.76,52.3-27.06,81-34.59c5.7-1.5,11.44-2.82,17.15-4.26
		c1.35-0.34,2.65-0.87,4.68-1.55c-9.48-10.33-18.3-20.4-26.07-31.33c0.36-2.64,0.69-5.09,1.04-7.61c2.64,0.08,3.93,1.72,5.27,3.18
		c3.99,4.34,7.91,8.74,11.91,13.08c5.5,5.96,11.02,11.89,16.57,17.8c0.99,1.06,2.16,1.95,3.29,2.97c8.87-1.24,17.58-2.76,26.36-3.63
		c12.09-1.2,24.22-2.17,36.35-2.74c9.19-0.43,18.43-0.26,27.63-0.05c14.76,0.34,29.41,1.67,43.81,5.2
		c8.48,2.08,16.51,5.21,24.02,9.63c12.84,7.55,19.01,18.61,17.28,33.67c-0.23,1.99-0.54,3.97-0.86,6.31
		c1.38,0.25,2.58,0.63,3.78,0.67c11.05,0.37,22.11,0.51,33.15,1.06c13.81,0.69,27.54,2.27,41.17,4.58
		c17.99,3.06,35.74,7.21,53.21,12.47c10.95,3.3,21.61,7.34,31.81,12.58c8.44,4.33,15.93,9.91,22.77,16.43
		c1.32,1.26,2.69,2.47,4.25,3.89c1.83-0.42,3.64-0.7,5.35-1.26c28.75-9.41,58.3-15.79,87.51-23.49c11.75-3.1,23.41-6.56,35.09-9.92
		c21.59-6.21,43.13-12.63,64.76-18.68c30.52-8.53,60.59-18.48,90.63-28.54c16.94-5.67,34.04-10.88,50.55-17.78
		c13.43-5.61,26.8-11.35,40.27-16.87c13.64-5.59,27.35-10.98,41.04-16.45c9.26-3.69,18.23-7.89,26.68-13.26
		c6.67-4.25,13.66-8.01,20.55-11.92c0.71-0.41,1.71-0.31,2.96-0.52c0,1.67,0,3.04,0,4.34c-1.07,0.83-1.87,1.62-2.82,2.16
		c-7.84,4.48-15.57,9.17-23.59,13.29c-8.51,4.37-17.11,8.68-26.01,12.15c-24.72,9.63-49.31,19.57-73.63,30.16
		c-18.27,7.96-37.17,14.15-56.13,20.22c-11.58,3.71-23.07,7.66-34.68,11.27c-22.51,7.01-45.04,13.94-67.61,20.74
		c-22.04,6.64-44.07,13.34-66.24,19.53c-22.52,6.29-45.22,11.94-67.82,17.95c-12.63,3.36-25.22,6.88-37.83,10.35
		C960.03,1826.41,959.09,1826.91,957.54,1827.54z M595.19,1730.74c1.85,1.98,2.81,3.34,4.07,4.29c6.6,4.99,12.98,10.35,19.98,14.7
		c15.62,9.73,31.39,19.21,46.3,30.03c2.51,1.82,5.28,3.29,8.01,4.97c24.54-7.44,49.55-11.19,74.97-12.5
		c1.37-3.63,1.03-6.95,1.14-10.22c0.24-6.89-2.42-12.63-7.32-17.23c-2.52-2.37-5.41-4.45-8.41-6.17c-8.75-5-18.5-7.1-28.26-9.03
		c-15.41-3.04-31.01-3.71-46.67-3.73c-15.66-0.02-31.25,1-46.8,2.7C606.9,1729.13,601.63,1729.9,595.19,1730.74z M582.71,1866.12
		c3.17,3.05,7.1,3.98,11.14,4.51c8.29,1.09,16.55,0.95,24.61-1.49c26.12-7.88,51.49-17.68,75.42-30.87
		c10.32-5.69,20-12.45,28.36-20.88c0.85-0.86,1.53-1.9,2.67-3.35c-18.18-6.35-35.82-12.52-53.86-18.82c-2.1,0.61-4.62,1.2-7.03,2.07
		c-9.35,3.36-18.57,7-27.47,11.46c-15.13,7.59-28.63,17.29-39.98,29.89c-4.82,5.35-9.22,11.01-12.33,17.55
		C582.75,1859.35,581.23,1862.55,582.71,1866.12z M688.31,1790.53c0.46,0.63,0.61,1.08,0.89,1.18c13.51,4.72,27.02,9.42,40.55,14.09
		c0.66,0.23,1.42,0.16,2.01,0.22c5.73-5.81,12.22-17.52,12.66-23.17C725.48,1783.7,706.87,1786.2,688.31,1790.53z"/>
	<path d="M1373.24,832.89c2.06-0.65,3.19-1.34,4.29-1.29c3.86,0.17,7.77,0.28,11.55,1c9.22,1.74,14.69,7.9,17.99,16.27
		c0.45,1.14,0.51,2.55,0.39,3.8c-0.86,8.93-4.95,15.86-13.34,19.46c-3.83,1.65-8.11,2.28-12.22,3.25c-1.41,0.34-2.9,0.33-4.7,0.51
		c1.13,5.83,2.8,11.44,1.86,17.48c-1.08,0.51-2.05,0.97-3.41,1.61c-0.07,1.94-0.53,4.19-0.14,6.28c1.3,7.06,0.16,13.89-1.06,20.82
		c-1.53,8.71-2.66,17.5-5.56,25.89c-1.56,4.52-3.29,8.99-5.23,13.35c-2.17,4.88-4.86,9.52-6.97,14.42
		c-5.45,12.64-14.73,21.36-26.98,27.25c-15.22,7.32-31.14,8.64-47.44,5.1c-6.62-1.44-13.08-3.78-19.45-6.14
		c-3.05-1.13-5.97-2.95-8.53-4.98c-5.43-4.31-8.45-10.12-9.23-17.04c-0.18-1.62-0.34-3.25-0.56-5.33c-2.13-0.17-4.1-0.3-6.07-0.5
		c-10.29-1.03-20.47-2.54-30.06-6.72c-4.08-1.78-7.95-3.88-11.09-7.11c-4.27-4.38-5.47-9.42-3.36-15.23
		c1.42-3.91,3.8-7.13,6.76-9.97c11.91-11.42,25.62-19.75,41.55-24.29c1.05-0.3,2.09-0.6,3.71-1.06c-1.11-1.14-1.92-1.97-3.12-3.2
		c0.36-1.62,0.53-3.65,1.25-5.46c4.41-11.11,8.22-22.51,14.41-32.83c4.07-6.79,8.16-13.58,12.46-20.23
		c2.61-4.03,6.29-7.07,9.95-10.22c3.53-3.05,5.6-7.67,9.57-10.54c5.48-3.96,11.36-6.63,18.24-7.18c4.84-0.39,9.22-0.12,12.02,3.35
		c4.91,1.26,9.13,2.34,14.05,3.61c4.18-0.82,9.2-1.98,14.28-2.75c7.34-1.1,13.27,1.99,18.47,6.85c0.26,0.25,0.49,0.57,0.64,0.9
		c0.14,0.32,0.17,0.68,0.3,1.28c-2.05,1.62-4.26,0.77-6.08-0.22c-8.83-4.82-17.4-3.36-26.31,0.74c-0.56,1.28-1.21,2.75-1.98,4.5
		c-1.4-0.61-2.85-1.25-4.53-1.98c-5.49,2.28-10.85,5.05-15.23,9.42c-1.04,1.04-2.05,2.14-2.85,3.36c-2.67,4.02-2.05,8.26,1.81,11.22
		c3.84,2.95,8.22,5.01,12.95,5.99c6.12,1.27,12.28,2.55,18.49,3.2c11.54,1.21,23.16,2.26,34.73,0.54
		c8.04-1.19,13.71-5.75,17.05-13.28c2.34-5.26,0.43-13.86-6.02-16.42c-4.61-1.83-9.25-3.59-13.85-5.44
		C1375.74,834.59,1374.95,833.94,1373.24,832.89z M1273.29,915.68c-3.51-0.44-6.85-0.55-10.03-1.32c-5.58-1.34-11.02-0.72-16.4,0.63
		c-14.65,3.68-27.14,11.29-37.9,21.73c-2.31,2.25-4.13,5.21-5.52,8.15c-2.76,5.82-1.38,10.63,3.69,14.65
		c5.17,4.1,11.26,6.3,17.56,7.73c17.94,4.05,35.86,3.32,53.64-1.05c3.35-0.82,6.54-2.41,9.69-3.9c3.55-1.68,5.54-4.74,6.55-8.47
		c2.28-8.45,0.9-16.02-5.31-22.5c-1.19-1.24-3.06-2.19-2.71-4.86c2.22-0.92,5.36-0.87,6.59-3.83c-5.92-1.87-6.8-8.56-11.78-11.55
		c-1.39,0.2-3.01,0.44-5.13,0.75C1275.43,912.89,1274.42,914.21,1273.29,915.68z M1358.56,938.14c-2.32,3.68-4.07,6.45-5.92,9.39
		c0.54,0.61,1.24,1.4,2.17,2.45c-0.12,2.22-0.25,4.61-0.44,8.12C1358.89,951.65,1359.38,945.62,1358.56,938.14z M1288.5,893.46
		c-2.67,0-3.93,0-5.07,0c-6.54,4.98-8.51,7.15-9.22,10.48C1279.1,900.95,1283.36,897.73,1288.5,893.46z"/>
	<path d="M609.19,1326.8c3.11-1.3,6.09-2.55,9.94-4.17c-2.01-0.65-3.15-1.11-4.32-1.39c-17.79-4.13-35.85-6.59-53.98-8.67
		c-4.2-0.48-8.37-1.29-12.51-2.17c-1.95-0.42-3.9-1.17-5.66-2.12c-6.19-3.36-6.43-10.09-0.29-13.44c4.18-2.28,8.66-4.12,13.17-5.67
		c10.33-3.54,21.11-5.09,31.87-6.64c8.01-1.15,16.03-2.23,24.9-3.45c-1.42-0.98-2.12-1.76-2.98-2.02
		c-6.85-2.12-13.68-4.35-20.61-6.18c-18.36-4.84-37.01-8.38-55.74-11.33c-19.64-3.09-39.35-5.71-59.05-8.42
		c-9.85-1.36-19.77-2.22-29.59-3.75c-14.78-2.31-29.24-5.94-42.92-12.19c-2.01-0.92-3.94-1.98-5.91-2.99
		c-9.67-4.95-12.5-20.31-0.01-28.14c6.43-4.03,13.55-6.64,20.75-8.98c3.68-1.19,7.41-2.22,11.09-3.38c0.84-0.26,1.61-0.74,2.86-1.32
		c-3.27-1.13-6.07-1.95-8.74-3.06c-4.69-1.93-6.62-5.73-6.26-10.61c0.13-1.75,0.8-3.6,1.71-5.12c2.12-3.55,5.26-6.18,8.83-8.18
		c11.08-6.21,22.96-9.96,35.62-11.08c3.96-0.35,7.73,0.13,10.37,4.44c-1.43,1.99-2.9,4.02-4.53,6.29c-1.9-0.09-3.73-0.05-5.52-0.28
		c-11.24-1.44-21.49,1.69-31.26,6.85c-1.53,0.81-2.67,2.34-3.99,3.54c1.91,3.53,4.99,4.46,7.95,5.3c5.66,1.61,11.42,2.92,17.11,4.44
		c2.29,0.61,4.52,1.46,6.62,2.14c0.54,0.94,0.99,1.54,1.24,2.21c0.25,0.66,0.29,1.4,0.48,2.42c-1.6,1.46-3.21,2.92-4.92,4.48
		c-2.31,0.45-4.65,0.92-7,1.34c-12.74,2.28-24.95,6.42-37.17,10.54c-2.09,0.7-4.13,1.6-6.07,2.64c-6.41,3.45-6.89,8.85-0.69,12.79
		c5.25,3.34,10.9,6.21,16.69,8.51c13.41,5.32,27.46,8.4,41.74,10.28c15.88,2.09,31.86,3.55,47.67,6.07
		c20.91,3.33,41.72,7.32,62.54,11.22c13.94,2.61,27.72,5.98,41.15,10.57c4,1.37,7.96,2.93,11.74,4.79c3.2,1.57,5.77,3.94,5.53,8.1
		c-5.09,4.62-11.11,6.24-17.62,7.11c-15.14,2.04-30.25,4.31-45.34,6.73c-5.03,0.81-10.09,1.87-15.21,4.57
		c2.05,2.28,4.5,2.81,6.9,3.2c6.91,1.13,13.82,2.18,20.75,3.16c17.53,2.46,34.89,5.74,51.98,10.38c2.99,0.81,5.91,2.06,8.68,3.46
		c2.43,1.23,4.02,3.25,3.27,6.23c-2.17,3.66-6.59,2.83-10.59,5.14c2.83,0.56,4.59,1.04,6.38,1.25c15.91,1.87,31.85,3.56,47.74,5.56
		c17.91,2.25,35.81,4.57,53.66,7.21c20.41,3.02,40.77,6.35,61.13,9.68c12.18,1.99,24.3,4.28,36.47,6.36
		c19.61,3.36,39.2,6.8,58.85,9.94c25.65,4.09,51.31,8.07,77.01,11.8c19.87,2.89,39.74,5.82,59.81,6.99
		c4.05,0.24,8.11,0.43,12.06-0.86c1.72-0.56,3.58-0.91,4.35-3.17c-1.65-2.09-4.06-3.07-6.38-4.07
		c-11.53-4.96-23.45-8.79-35.67-11.64c-2.94-0.69-5.74-1.38-7.42-4.64c0.3-0.8,0.67-1.77,1.22-3.24c3.83-0.01,7.67-0.23,11.48,0
		c7.54,0.45,15.06,1.17,22.59,1.72c0.99,0.07,2.01-0.14,4.28-0.33c-2.19-1.45-3.25-2.37-4.47-2.93c-4.69-2.14-9.45-4.11-14.14-6.25
		c-3.01-1.37-6.01-2.8-8.87-4.46c-2.09-1.21-3.73-2.96-3.5-5.93c3.09-1.72,6.25-0.92,9.09-0.07c9.9,2.98,19.39,7.05,28.4,12.12
		c2.17,1.22,4.24,3.06,5.67,5.09c2.93,4.17,1.53,8.26-3.11,10.29c-0.82,0.36-1.7,0.55-3.37,1.08c2.26,1.13,3.86,1.84,5.37,2.7
		c3.03,1.73,6.28,3.22,8.97,5.38c4.07,3.26,4.03,8.44,0.33,12.11c-2.48,2.46-5.6,3.47-8.99,3.73c-8.84,0.68-17.68,0.51-26.51-0.25
		c-21.66-1.87-43.2-4.76-64.69-8.06c-28.03-4.31-56.12-8.3-84.13-12.75c-22.19-3.52-44.29-7.68-66.47-11.29
		c-27.27-4.44-54.6-8.5-81.87-12.93c-25.48-4.14-51.22-5.93-76.84-8.77c-8.95-0.99-18.09-0.68-26.81-3.28
		c-4.38-1.31-8.7-2.96-12.83-4.93C609.47,1332.7,609.12,1331.38,609.19,1326.8z"/>
	<path d="M1082.22,1516.46c17.19-10.85,34.48-20.27,54.77-20.51c5.3,3.8,6.06,6.33,2.99,10.95c-2.02,3.03-4.46,5.89-7.15,8.35
		c-10.42,9.53-22.01,17.26-35.37,22.14c-4.15,1.51-8.22,3.25-12.36,4.81c-3.8,1.44-7.27,3.41-10.75,5.53
		c-4.19,2.56-8.9,4.25-13.88,5.68c-1.64,2.42-3.28,4.84-5.01,7.39c-3.67,1.41-7.21,4.33-11.72,1.63c1.05-2.9,1.96-5.43,3.01-8.32
		c5.73-4.69,8.59-11.88,12.95-18.01c6.79-9.54,10.92-20.45,15.87-30.92c8.61-18.2,18.83-35.44,29.66-52.37
		c5.25-8.22,10.01-16.76,14.96-25.16c1.78-3.01,3.4-6.13,5.24-9.1c6.32-10.2,14.65-18.45,24.85-24.74
		c13.2-8.13,27.45-13.35,42.96-14.78c8.22-0.76,15.72,1.4,22.42,6.18c4.66,3.33,7.67,7.9,9.27,13.38c0.61,2.11,1.01,4.27,1.62,6.91
		c58.98-25.58,119.09-32.12,180.83-11.74c22.28,7.35,43.57,16.8,62.79,30.34c0.19,1.87,0.34,3.3,0.51,4.89
		c-2.21,2.02-4.37,3.99-6.54,5.98c-3.57,0.05-6.98,1.32-10.14,0.12c-2.4-2.54,0.34-4.25,0.69-6.64c-1.98-1.32-3.9-2.72-5.92-3.93
		c-24.73-14.8-51.19-25.12-79.51-30.58c-13.81-2.66-27.76-3.5-41.79-3.23c-22.78,0.44-45.14,3.73-66.9,10.56
		c-12.32,3.87-23.91,9.5-35.3,15.9c-0.63,2.4-1.17,4.72-1.85,6.99c-4.29,14.24-11.23,27.2-19.26,39.62
		c-3.24,5.02-7.64,8.94-12.53,12.33c-5.05,3.5-10.68,4.78-16.74,4.68c-2.92-0.05-5.4-1.25-7.57-2.97c-2.7-2.14-3.31-5.22-2.91-8.49
		c0.6-4.83,2.46-9.22,4.96-13.36c4.9-8.1,11.04-15.19,17.76-21.8c6.98-6.86,14.55-13.02,22.71-18.44c1.21-0.8,2.33-1.74,3.37-2.52
		c1.78-7.81-0.77-13.46-6.96-17.98c-8.8-6.42-18.5-6.72-28.53-4.68c-8.82,1.79-17.78,6.58-25.12,12.43
		c-2.52,3.81-3.95,6.57-5.93,8.87c-12.71,14.72-22.96,31.11-32.58,47.91c-10.43,18.22-20.75,36.51-31.1,54.78
		C1082.66,1515.13,1082.47,1515.81,1082.22,1516.46z M1210.3,1428.6c-0.35-0.32-0.7-0.64-1.05-0.95c-1.12,0.88-2.27,1.72-3.34,2.65
		c-8.82,7.59-16.4,16.3-22.91,25.9c-1.94,2.86-3.34,6.1-4.85,9.24c-0.88,1.84-1.4,3.81-0.14,6.05c0.67,0.22,1.5,0.6,2.37,0.74
		c0.88,0.14,1.8,0.03,3.17,0.03C1197.49,1460.83,1204.01,1444.78,1210.3,1428.6z"/>
	<path d="M946.96,981.01c-10.35,8.11-16.4,19.46-25.67,28.43c-1.31-1.9-2.5-3.62-3.6-5.23c-2.54-0.44-3.61,0.95-4.58,2.78
		c0.28,0.97,0.58,1.99,0.85,2.94c-1.53,0.71-3.01,1.39-5.05,2.33c-2.09-1.11-4.47-2.38-6.87-3.66c-0.36-1.45-0.67-2.68-0.97-3.88
		c0.74-0.64,1.41-1.21,2.44-2.1c-0.81-1.68-1.65-3.4-2.41-4.96c-3.12-0.19-4.75,0.88-5.54,3.96c-2.63-1.4-5.15-2.75-7.94-4.24
		c-1.97,1.66-4.06,3.42-6.18,5.21c-3.88-0.5-7.12-1.89-9.2-5.72c-3.25,1.83-6.24,3.51-9.34,5.25c-6.39-1.86-10.7-6.89-16.58-8.96
		c0.49-1.92,0.76-2.95,1.09-4.25c-1.88-0.76-3.73-1.51-5.62-2.27c-1.99,1.13-3.9,2.21-5.76,3.26c-3.79,0.07-6.98-0.97-9.38-3.82
		c0-1.27,0-2.43,0-3.64c-2.76-0.08-1.77,2.68-3.22,3.48c-2.73,0.84-5.32,0.35-7.88-1.18c-1.12-3.35-0.3-6.52,1.09-9.58
		c2.29-5.03,4.4-10.16,7.09-14.97c4.49-8.02,8.87-16.15,14.98-23.12c8.04-9.17,17.67-16.07,29.28-20.04
		c4.98-1.7,10.08-2.02,15.6-1.15c4.39-3.59,9.71-3.3,15.11-2.8c7.4,0.68,14.45,2.66,21.35,5.32c0.85,0.33,1.74,0.58,2.36,0.79
		c6.08-1.75,11.9-3.48,17.74-5.1c5.79-1.61,11.7-1.2,17.55-0.53c2.36,0.27,4.55,1.3,6.2,3.29c1.04,1.25,2.4,2.24,3.55,3.29
		c1.28,0.16,2.37,0.4,3.47,0.42c10.14,0.11,16.94,13.21,9.85,23.47c-1,1.44-2.65,2.55-4.2,3.46c-4.51,2.65-9.47,3.97-14.65,4.55
		c-3.44,0.38-6.87,0.86-10.52,1.32c-0.42,8.36-1.14,16.4-5.26,23.7C946.38,978.26,946.64,979.5,946.96,981.01z M854.58,929.3
		c-5.86,7.07-10.77,14.44-15.46,22.74c2.47,0,4.23,0,5.8,0c1.47,0.71,2.78,1.34,3.95,1.91c1.83-0.54,3.41-1,5.14-1.5
		c0.4-1.41,0.79-2.76,1.17-4.1c-0.79-0.59-1.43-0.96-1.92-1.47c-0.48-0.51-0.78-1.17-1.11-1.68c9.41-9.18,20.38-15.62,32.31-21.67
		c3.62,1.6,7.73,3.43,11.57,5.13c0.31,3.14,0.59,6,0.85,8.68c1.88,2.1,3.57,3.99,5.29,5.92c-0.55,1.92-1.01,3.56-1.48,5.2
		c0.18,0.09,0.35,0.18,0.53,0.28c0.9-1.04,1.8-2.08,2.71-3.13c2.99-0.69,3.53,1.86,4.21,3.15c3.61,1.44,6.66,2.66,10.46,4.18
		c2.37,0.21,5.62,0.5,8.9,0.8c0.28-0.58,0.59-1.21,0.95-1.95c4.12,0.09,8.38,0.55,11.44-3.2c-2.54-2.72-6.7,0.36-9.15-3.21
		c2.39,0,4.38-0.1,6.37,0.03c1.45,0.09,2.89,0.74,4.32,0.7c8.1-0.22,16.18-0.84,24.11-2.55c1.68-0.36,3.63-1.32,4.64-2.63
		c2.65-3.45,4.14-7.37,2.14-12.05c-2.55-0.7-5.16-1.41-7.76-2.12c-0.44-1.46-0.79-2.64-1.2-4.02c-3-0.94-5.92-2.44-8.95-2.7
		c-9.13-0.76-17.79,1.57-26.22,4.72c0.1,2.51,0.88,4.84-1.92,6.52c-2.36-0.6-5-1.26-7.7-1.95c-3.75,1.49-6.38,4.01-7.92,8.33
		c3.78,2.86,7.37,5.56,11.97,9.04c-3.67-0.82-6.13-1.36-9.12-2.03c-2.31-2.58-4.85-5.42-7.3-8.14c1.18-3.12,0.53-6.31,3.15-8.33
		c3.58-0.87,7.19-1.75,11.13-2.71c0-1,0-2.21,0-3.64c-2.62-0.72-5.04-1.39-6.82-1.89c-2.48,1.59-4.36,2.8-6.24,4.01
		c0.28,0.68,0.59,1.45,1.07,2.6c-1.69-0.11-3.06-0.2-4.29-0.27c-0.21-1.39-0.36-2.39-0.6-3.93c-2.38,1.21-4.25,2.17-6.14,3.13
		c-0.54-1.14-1.07-2.25-1.49-3.14c1.25-2.64,3.37-2.66,5.39-2.59c2.94,0.11,5.74-0.29,8.64-1.45c-4.88-3.51-24.29-3.5-30.94-0.45
		c-3.27,0.31-6.49,0.97-9.73,1.42c-3.5,0.49-5.5,3.3-8.21,4.86c0.17,1.14,0.31,2.13,0.48,3.26
		C859.11,928.1,856.99,928.66,854.58,929.3z M928.66,991.98c5.07-5.94,9.57-11.44,16.08-14.84c-1.24-4.09,1.62-7.74-0.49-11.76
		c-0.96-0.18-2.14-0.4-3.31-0.62c-3.48,4.15-8.81,6.28-10.47,11.68c-1.23,0.78-2.44,1.55-3.62,2.31c-0.17,4.23-3.12,6.56-5.57,9.23
		c-0.45,0.49-0.53,1.33-1.01,2.63c4.34-1.45,5.51-6.52,9.96-6.34C930.71,987.04,926.63,988.28,928.66,991.98z M839.94,959.36
		c-6.96,1.2-11.02,6.04-16.47,9.64c1.44,1.02,2.38,1.69,3.48,2.47c0.52-1.35,0.89-2.31,1.34-3.49c3.85-0.93,7.68-1.85,11.93-2.87
		C840.11,963.08,840.03,961.37,839.94,959.36z M871.86,991.5c4.4-1.74,8.25-6.35,8.86-10.61c-5.03,0.96-8.3,4.18-11.97,7.68
		c1.37,0.13,2.2,0.2,3.11,0.29C871.86,989.65,871.86,990.36,871.86,991.5z M887.35,987.38c-4.32,1.02-6.83,3.74-9.37,7
		c2.48,0.72,4.49,1.31,6.37,1.86C888.91,992.99,889.22,992.12,887.35,987.38z M857.36,973.02c-4.13-0.2-5.83,2.23-7.65,4.47
		c1.01,1.41,1.95,2.72,2.99,4.19c2.97-0.69,3.98-3.39,5.8-5.39C858.11,975.14,857.76,974.15,857.36,973.02z M851.93,988.23
		c2.31,1.29,3.84,2.14,5.3,2.95c3.56-2.19,4.52-4.98,3.88-8.67C856.82,982.25,855.07,985.58,851.93,988.23z M892.42,993.07
		c2.77,1.45,4.73,2.8,7.25,1.61c1.7-2.29,2.3-4.55,0.36-7.17c-0.98-0.06-2.02-0.12-3.07-0.19
		C895.5,989.17,894.18,990.84,892.42,993.07z M849.61,973.25c-1.22-0.81-2.08-1.37-3.09-2.04c-1.34,0.87-2.52,1.63-3.76,2.43
		c-0.21,2.06-0.4,3.94-0.65,6.34C846.05,978.95,847.57,976.31,849.61,973.25z M835.15,977.18c1.81-1.74,3.31-3.67,2.09-6.77
		c-0.97-0.29-1.97-0.59-3.21-0.96c-1.1,1.29-2.14,2.5-3.17,3.7C832.33,974.69,832.12,977.5,835.15,977.18z"/>
	<path d="M590.75,1110.26c1.78,0.45,2.76,0.75,3.75,0.93c13.11,2.37,25.87,5.88,37.63,12.31c3.7,2.02,7.24,4.39,10.71,6.8
		c2.62,1.82,4.44,4.42,5.53,7.44c1.72,4.77,0.62,8.12-3.53,10.99c-0.73,0.51-1.52,0.95-2.98,1.85c1.73,0.56,2.78,1.07,3.89,1.24
		c13.28,2.05,26.6,3.93,39.86,6.1c16.53,2.71,33.08,5.35,49.52,8.58c30.01,5.91,59.73,13.01,88.31,24.23
		c14.1,5.54,27.7,12.03,40.47,20.2c6.39,4.09,12.41,8.65,17.36,14.44c2.01,2.35,3.78,5.01,5.19,7.76c1.87,3.65,1.84,7.44-0.51,10.81
		c-7.72,4.5-7.72,4.5-19.73,4.58c1.25,1.28,2.1,2.29,3.09,3.13c7.27,6.23,6.03,15.17-1.2,20.13c-1.96,1.35-4.1,2.47-6.24,3.51
		c-3.29,1.61-6.64,3.11-10,4.57c-4.51,1.96-7.67,1.54-13.61-1.63c-0.45-2.62-0.45-2.62,0.81-5.18c8.38-1.63,17.41-2.48,22.19-10.94
		c-0.53-3.26-2.51-4.63-4.47-6.03c-5.18-3.7-11.19-5.53-17.1-7.57c-3.11-1.08-6.19-2.26-9.65-3.52c0.12-2.01,0.22-3.76,0.34-5.72
		c4.28-1.82,8.38-1.86,12.64-1.53c9.9,0.77,19.83,1.28,29.75,1.88c0.33,0.02,0.68-0.23,1.28-0.46c0.97-2.55-0.62-4.58-2.17-6.18
		c-3.83-3.95-7.69-7.97-12.02-11.33c-13.06-10.15-27.98-16.97-43.18-23.21c-21.02-8.62-42.74-14.98-64.89-19.8
		c-17.09-3.72-34.24-7.19-51.47-10.19c-17.41-3.04-34.92-5.53-52.43-7.95c-7.09-0.98-14.3-1.19-21.46-1.62
		c-6.74-0.4-8.25-0.71-12.68-3.32c-0.12-0.44-0.37-0.96-0.37-1.49c0-0.71,0.18-1.43,0.35-2.62c1.58-0.58,3.23-1.29,4.93-1.8
		c3.88-1.15,7.85-2.03,11.68-3.34c2.36-0.81,4.93-1.65,6.23-4.27c-0.16-2.76-2.13-4.38-4.01-5.68c-3.63-2.49-7.36-4.95-11.35-6.76
		c-13.2-5.99-27.13-9.3-41.55-10.59c-3.29-0.29-6.57-0.7-9.59-1.02c-1.68-2.17-1.26-4.13-0.7-6.64c1.71-0.81,3.69-1.69,5.6-2.69
		c3.91-2.03,7.98-3.84,11.62-6.3c2.36-1.59,4.4-3.93,5.99-6.33c2.06-3.12,1.55-5.74-0.96-8.55c-3.02-3.39-6.9-5.49-11.12-6.97
		c-16.04-5.64-32.7-6.97-49.54-6.93c-8.32,0.02-16.55,0.97-24.71,2.49c-5.86,1.09-11.38,3.01-15.52,8.43
		c0.26,1.77,0.23,3.84,0.89,5.65c1.89,5.18,4.01,10.27,6.14,15.36c0.99,2.38,2.23,4.65,3.33,6.98c0.87,1.85,1.6,3.74,0.49,6.54
		c-1.49,0.62-3.41,1.94-5.45,2.16c-4.79,0.53-6.59,3.56-7.36,7.67c-1.05,5.59-0.43,10.98,2.11,16.14c1.03,2.09,2.54,4.11,2,6.64
		c-1.67,2.05-4.03,1.7-6.47,2.44c-1.41-1.39-3.33-2.52-4.13-4.19c-3.45-7.24-5.79-14.69-3.69-22.94c1.19-4.69,2.81-8.77,7.85-10.49
		c0.64-0.22,1.15-0.82,1.99-1.44c-1.79-3.55-3.47-7-5.25-10.39c-3.21-6.12-4.07-12.46-2.64-19.27c1.24-5.89,4.38-10.02,9.74-12.56
		c8.07-3.82,16.66-5.75,25.45-7.08c16.17-2.44,32.32-2.02,48.47,0.05c8.79,1.13,17.38,3.2,25.73,6.19
		c3.84,1.37,7.46,3.17,10.44,6.06c6.71,6.53,7.15,16.99,0.79,23.84c-1.98,2.14-4.45,3.83-6.72,5.69
		C593.44,1108.35,592.43,1109.02,590.75,1110.26z"/>
	<path d="M1289.15,1582.28c-2.19-0.19-4.37-0.44-6.56-0.57c-30.18-1.86-60.4-2.73-90.63-2.24c-13.44,0.22-26.88,1.24-40.16,3.6
		c-5.79,1.03-11.51,2.44-17.28,3.63c-1.56,0.32-3.19,1.09-4.82-0.37c0.5-2.11,2.45-2.5,4.02-3.3c7.81-3.98,16.19-5.99,24.8-7.29
		c16.81-2.53,33.71-3.68,50.69-3.38c20.64,0.37,41.29,0.58,61.91,1.47c17.85,0.77,35.66,2.4,53.49,3.67
		c0.54,0.04,1.07,0.25,2.03,0.49c0.15,1.24,0.32,2.6,0.49,3.97c-1.18,0.78-2.09,1.39-3.09,2.05c0.17,0.45,0.2,1.12,0.55,1.41
		c6.52,5.37,7.52,12.42,7.31,20.42c-0.28,10.36-4.2,18.88-10.63,26.62c-9.51,11.43-20.23,21.41-33.35,28.64
		c-2.21,1.22-4.11,2.98-5.52,4.02c-7.35,3.21-14.06,6.14-20.8,9.08c-0.82,5.43,3.93,9.38,3.22,14.39c-3.28,2.52-3.28,2.52-9.93,1.87
		c-4.21-2.51-4.67-7.62-7.39-11.62c-4.17,0.91-8.26,1.82-12.37,2.68c-5.06,1.06-10.14,2.14-15.34,1.56
		c-2.72-0.3-5.53-0.73-8.05-1.71c-5.13-1.99-7.76-5.98-7.88-11.53c-0.02-0.74-0.06-1.49,0.08-2.21c1.71-8.64,2.61-17.48,6.82-25.77
		c0.34-0.29,0.83-0.89,1.46-1.22c4.7-2.5,7.77-6.55,11-10.63c9.07-11.45,18.95-22.11,31.4-30.08c8.89-5.69,18.44-10.02,28.18-13.99
		c2.18-0.89,4.36-1.78,6.54-2.67C1289.27,1582.95,1289.21,1582.62,1289.15,1582.28z M1282.42,1656.36c0.44-0.21,1.15-0.42,1.73-0.83
		c12.59-8.88,23.48-19.43,31.79-32.49c1.98-3.11,3.74-6.43,4.01-10.17c0.3-4.21,0.48-8.47,0.2-12.67
		c-0.55-8.19-7.91-13.55-15.92-11.58c-5.7,1.4-11.29,3.26-16.91,4.98c-1.03,0.32-2.07,0.83-2.93,1.49
		c-6.04,4.58-11.58,9.71-15.66,16.14c-1.42,2.24-2.25,5.03-2.68,7.68c-0.85,5.19-0.12,10.31,2.35,15.01
		c2.13,4.06,4.45,8.03,6.88,11.91C1277.48,1649.36,1279.95,1652.75,1282.42,1656.36z"/>
	<path d="M935.1,1021.59c1.64,0.05,3.34-0.16,4.9,0.2c11.09,2.6,22.15,5.32,33.21,8.03c0.52,0.13,0.97,0.5,2.13,1.12
		c-0.8,0.41-1.37,0.7-2.48,1.26c2.23,0.91,3.97,1.61,6.12,2.49c-0.17-1.33-0.28-2.12-0.46-3.51c3.36,0.86,6.5,1.67,9.77,2.51
		c-0.09,0.82-0.16,1.47-0.23,2.12c6.51,2.69,13.19,4.74,20.81,5.83c-1.43-2.38-3.19-2.52-4.95-2.7c-4.18-0.45-8.17-1.55-12.96-3.92
		c2.11,0.11,3.2-0.02,4.18,0.24c7.09,1.87,14.16,3.81,21.24,5.74c3.53,0.96,7.05,1.92,10.58,2.88c-2.58-0.13-5.16-0.25-7.73-0.38
		c-0.05,0.29-0.1,0.58-0.15,0.87c1.43,0.41,2.86,0.82,4.25,1.22c0.85,0.93,1.69,1.84,2.24,2.44c2.58-0.16,4.6-0.29,7.53-0.48
		c-1.94-1.51-3.16-2.46-4.38-3.41c11.75,3.05,23.52,6.01,35.24,9.18c12.25,3.31,24.47,6.75,36.67,10.28
		c4.41,1.28,8.73,2.93,13.04,4.52c1.33,0.49,2.53,1.36,4.68,2.54c-2.05,0.51-3.25,0.81-4.97,1.24c1.24,1.57,2.19,2.77,3.98,5.04
		c-3.91-1.64-6.5-2.94-9.23-3.83c-8.05-2.62-16.11-5.21-24.24-7.58c-12.37-3.61-24.78-7.06-37.19-10.52
		c-5.66-1.58-11.36-3.03-17.05-4.52c-14.59-3.84-29.14-7.79-43.77-11.48c-16.24-4.09-32.54-7.94-48.81-11.9
		c-18.23-4.44-36.46-8.92-54.7-13.33c-4.98-1.2-10-2.19-15.49-3.38c1.63,1.99,2.86,3.5,4.29,5.26c1.59,0.51,3.49,1.12,5.4,1.73
		c1.95-0.62,3.87-1.23,5.93-1.89c2.08,1.02,4.18,2.05,6.12,3c1.96,2.28,3.83,4.45,5.69,6.62c0.16-0.11,0.32-0.22,0.47-0.33
		c1.18,2.86,2.36,5.72,3.57,8.66c1.64,0.16,3,0.3,4.37,0.43c-0.14,1.04-0.26,1.88-0.44,3.16c3.45-0.59,5.34-5.64,9.63-2.66
		c0.15,1.2,0.32,2.61,0.5,4.07c1.11,1.57,2.26,3.2,3.2,4.55c-1.71,11.14-7.49,18.72-17.26,23.16c-2.48,1.13-5.2,2.09-7.88,2.36
		c-5.66,0.56-11.37,0.67-17.07,0.8c-1.27,0.03-2.56-0.61-4.72-1.17c2.75-1.43,5.46,0.44,6.84-2.51c-1.83-1.01-3.66-2.02-5.88-3.24
		c-1.09,1.29-2.39,2.38-3.12,3.77c-2.31,4.41-6.12,6.87-10.59,8.34c-19.01,6.23-37.36,5.88-54.39-5.98c-2.26-1.57-4.53-3.22-6.4-5.2
		c-1.61-1.7-2.95-3.8-3.93-5.94c-2.92-6.4-1.92-11.75,3.18-16.59c3.6-3.41,7.49-6.52,11.22-9.73c0.66-7.76-1.1-15.91,4.18-23.31
		c1.59,1.85,1.73,3.52,1.47,5.33c-0.23,1.6-0.36,3.19,0.95,5.56c0.63-2.71,1.05-4.54,1.52-6.55c1.43-0.67,2.84-1.33,4.59-2.15
		c-1.06-1.63-1.93-2.97-2.89-4.46c0.66-0.19,1.33-0.38,2.06-0.59c1.12,1.29,2.17,2.5,3.55,4.1c3.55-1.72,7.07-3.42,11.71-5.66
		c-4.65-0.97-8.01-1.7-11.38-2.37c-12.1-2.39-24.22-4.69-36.3-7.17c-23.65-4.85-46.94-11.12-70.1-17.92
		c-1.58-0.46-3.1-1.18-4.6-1.88c-0.62-0.29-1.12-0.85-1.59-1.22c0.19-2.13,1.68-2.11,2.86-1.93c4.72,0.72,9.48,1.34,14.12,2.48
		c7.15,1.75,14.15,4.14,21.32,5.8c19,4.41,38.02,8.73,57.1,12.79c17.99,3.82,36.1,7.07,54.09,10.91
		c16.89,3.61,33.68,7.66,50.51,11.55c7.16,1.66,14.33,3.33,21.46,5.13c1.72,0.43,3.29,1.43,4.94,2.16c-4.7-0.72-9.41-1.44-14.36-2.2
		c1.38,3.84,4.25,1.59,6.2,2.26c3.3,2.4,7.21,2.32,11.91,3.69C937.09,1023.56,936.09,1022.57,935.1,1021.59z M855.45,1066.68
		c1.24-2.58,2.39-4.89,3.46-7.22c1.82-3.93,1.05-7.44-1.57-10.82c-2.22-2.86-5.16-4.66-8.18-6.44c-0.41-0.24-0.64-0.79-0.96-1.21
		c1.01-0.47,1.93-0.9,3.22-1.5c-3.22-4.66-7.38-6.97-12.36-6.72c-5.41,0.27-10.64,0.37-15.61-2.3c-7.79,2.75-14.17,7.22-19.98,12.7
		c-5.15,4.86-4.28,13.23,1.41,17.33c4.81,3.46,9.83,6.49,15.26,8.85c3.78,1.64,7.7,2.45,11.82,2.39
		C839.99,1071.61,847.68,1070.02,855.45,1066.68z M891.26,1042.56c2.08,0.26,3.03,0.38,5.11,0.65c-4.69,3.18-8.5,5.77-12.27,8.33
		c0.28,0.55,0.45,0.87,0.54,1.05c4.71-1.15,9.37-2.29,14.27-3.49c0.41-0.81,0.88-1.73,1.43-2.81c-1.35-0.43-2.39-0.75-4.63-1.46
		c4.11-0.34,6.24-1.31,6.13-4.96c-1.03-0.48-2.13-1-3.3-1.54C896.37,1039.59,894.34,1040.77,891.26,1042.56z M861.1,1048.01
		c0.78,3.87,1.6,7.9,2.37,11.73c0.9,0.16,1.26,0.31,1.59,0.25c0.32-0.05,0.6-0.32,1.2-0.66c-0.22-6.93-0.93-13.73-7.67-18.06
		c-0.23-0.15-0.67,0.05-1.19,0.11c-0.2,0.6-0.43,1.27-0.69,2.05C858.02,1044.79,859.27,1046.09,861.1,1048.01z"/>
	<path d="M524.38,1537.54c1.29-2.8,4.02-4.07,6.78-6.01c2.23,0.2,4.77,0.62,7.32,0.63c5.16,0.04,10.31-0.07,15.47-0.24
		c23.23-0.79,46.44-0.58,69.56,1.98c14.82,1.64,29.56,3.93,44.34,5.91c20.99,2.8,41.97,5.7,62.97,8.35
		c32.73,4.13,65.26,9.28,97.39,16.89c2.47,0.59,5.1,0.53,7.66,0.71c4.77,0.34,9.55,0.56,14.31,1c1.62,0.15,3.27,0.65,4.79,1.26
		c6.79,2.73,10.08,8.58,9.26,15.87c-0.81,7.24-4.74,12.41-10.95,15.6c-7.35,3.78-14.85,7.41-22.59,10.27
		c-13.98,5.15-28.56,6.88-43.46,6.28c-5.14-0.21-10.33-0.09-15.46,0.39c-8.78,0.83-16.18-2.83-23.52-6.69
		c-3.37-1.77-4.99-4.8-4.35-8.76c1.09-2.73,3.33-4.39,5.56-6.01c14.24-10.34,29.8-17.51,47.47-19.58c2.38-0.28,4.74-0.64,7.12-0.9
		c2.8-0.31,5.28-1.28,8.05-3.63c-2.19-0.62-3.81-1.17-5.47-1.52c-25.78-5.46-51.8-9.45-77.96-12.61
		c-17.73-2.14-35.4-4.86-53.11-7.14c-19.35-2.49-38.73-4.82-58.1-7.11c-20.93-2.47-41.91-2.08-62.92-1.19
		c-7.89,0.33-15.77,1.6-23.71,0.5C527,1541.26,526.35,1540.96,524.38,1537.54z M851.28,1582.99c-10.51-0.4-20.98-2.19-31.82-1.12
		c0.33,2.65,2.01,3.93,3.56,5.02c2.7,1.88,5.56,3.58,8.49,5.08c3.7,1.9,7.55,3.52,11.47,5.34
		C849.32,1593.53,851.89,1589.17,851.28,1582.99z"/>
	<path d="M1381.87,589.16c1.28,2.33,3.36,4.31,1.85,7.4c-1.64,2.09-4.26,2.37-6.8,2.64c-21.8,2.28-43.62,4.43-65.41,6.8
		c-7.87,0.85-15.67,2.29-23.53,3.27c-11.52,1.44-23.07,2.56-34.58,4.11c-12.04,1.62-24.04,3.57-35.73,5.33
		c-3.22,2.33-6.03,4.37-9.43,6.83c-1.31,0.07-3.3,0.17-5.47,0.28c-0.74-1.46-1.38-2.71-2.18-4.27c1.85-1.97,3.59-3.82,5.34-5.68
		c1.79-0.11,3.42-0.2,5.15-0.3c0.39-0.26,0.94-0.48,1.27-0.88c2.88-3.49,6.78-4.81,11.07-5.63c15.39-2.95,30.94-4.76,46.51-6.44
		c13.55-1.47,27.05-3.36,40.59-4.89c10.25-1.15,20.53-1.98,30.79-3.02c8.61-0.87,17.22-1.8,25.83-2.74c0.71-0.08,1.4-0.39,2.44-0.69
		c0.2-2.5,0.25-5.05,0.65-7.55c1.31-8.21,4.69-15.53,10.36-21.61c20.68-22.15,46.02-33.15,76.51-31.52
		c6.57,0.35,12.61,2.61,18.25,5.87c3.61,2.09,6.21,5.24,7.65,9.17c2.61,7.15,4.16,14.49,3.42,22.19c-0.41,4.29-1.65,8.31-3.7,12.06
		c-5.59,10.23-12.1,19.91-19.79,28.58c-9.18,10.36-21.03,15.34-35.14,13.47c-4.37-0.58-8.69-1.56-13.03-2.42
		c-3.6-0.71-7.18-1.5-10.15-2.13c-21.43,10.22-43.54,14.53-66.3,16.2c-16.22,1.19-32.03,4.8-47.95,7.85
		c-14.09,2.7-28.2,5.45-42.49,6.94c-1.62,0.17-3.33,0.55-4.77-1.06c-0.63-1.96,0.57-2.81,2.29-3.49
		c10.48-4.14,21.24-7.12,32.43-8.77c8.74-1.28,17.41-3.08,26.04-4.97c12.63-2.76,25.41-4.38,38.28-5.32
		c15.71-1.15,30.96-4.47,45.96-9.14c2.82-0.88,5.45-1.95,7.78-3.97c2.04-1.77,4.66-2.86,6.99-4.23c4.13,1.16,8.02,2.23,11.9,3.36
		c7.51,2.17,15.16,2.96,22.96,2.71c5.04-0.16,9.31-1.78,12.76-5.56c8.61-9.45,16.03-19.78,21.65-31.24
		c4.44-9.06,2.99-18.39-0.78-27.31c-0.93-2.19-3.19-4.04-5.22-5.51c-3.97-2.85-8.64-4.2-13.48-4.42
		c-12.49-0.57-24.68,1.18-36.22,6.1c-10.32,4.4-19.3,10.93-26.36,19.64C1384.61,571.91,1381.77,579.88,1381.87,589.16z"/>
	<path d="M1300.55,203.44c-1.21,1.8-2.3,3.42-3.37,5.01c-2.78-0.27-4.45-1.76-5.63-3.6c-1.48-2.31-2.85-4.75-3.82-7.3
		c-2.61-6.92-4.48-14.1-4.73-21.49c-0.14-4.16,0.14-8.62,1.48-12.51c6.46-18.79,17.32-34.52,34.12-45.58
		c7.62-5.02,16.12-8.03,25.26-9.07c8.4-0.96,15.61,1.06,21.35,7.73c2.49,2.9,5.65,5.23,8.53,7.78
		c19.99,17.73,21.69,40.92,11.86,61.19c-2.16,4.45-5.19,8.47-7.74,12.74c-4.39,7.34-11.1,11.62-18.88,14.54
		c-5.92,2.22-12.15,2.9-18.37,3.68c-4.54,0.57-9.17,0.76-13.86,2.73c-1.08,2.58-2.34,5.23-3.33,7.98
		c-5.64,15.78-11.44,31.5-18.52,46.71c-5.37,11.52-10.93,22.94-16.4,34.41c-6.82,14.3-13.24,28.76-18.85,43.6
		c-3.32,8.77-7.21,17.34-11.03,25.92c-6.36,14.3-12.89,28.53-19.32,42.8c-3.94,8.74-9.06,16.81-13.98,25.24
		c-2.2,0.45-4.3,0.88-7.01,1.43c0.24-1.5,0.28-2.51,0.58-3.43c0.28-0.86,0.78-1.67,1.29-2.43c7.27-10.75,12.32-22.6,17.43-34.45
		c6.06-14.03,12.53-27.88,18.63-41.89c2.57-5.9,4.68-12,7-18.01c7.96-20.63,16.67-40.93,26.55-60.71
		c8.09-16.19,14.37-33.09,20.27-50.15c1.57-4.52,3.06-9.09,4.93-13.48c3.68-8.63,10.4-13.64,19.56-15.21
		c5.62-0.97,11.32-1.49,16.98-2.21c0.73-0.09,1.46-0.22,2.19-0.33c7.51-1.18,12.95-4.75,17.07-11.57c6.22-10.28,9.46-21,9.37-32.97
		c-0.05-6.83-2.44-12.59-6.54-17.77c-4.12-5.2-8.51-10.17-12.66-15.34c-6.11-7.6-14.02-9.67-23.24-7.8
		c-13.81,2.8-24.79,10.07-33.11,21.35c-2.62,3.55-4.89,7.36-7.23,11.1c-6.34,10.13-7.4,20.93-4.21,32.36
		C1295.03,190.99,1296.85,197.54,1300.55,203.44z"/>
	<path d="M1164.19,1816.24c1.14-2.9,3.29-3.88,5.7-4.38c1.25-0.26,2.56-0.28,3.85-0.3c21.37-0.21,42.75-0.28,64.08,1.05
		c13.05,0.81,26.05,2.26,39.07,3.46c0.89,0.08,1.76,0.44,3,0.76c0.17,1.37,0.34,2.74,0.54,4.39c-2.1,1.43-3.94,3-6.04,4.04
		c-3.22,1.59-5.69,3.98-8.16,6.48c-13.47,13.62-26.9,27.29-40.57,40.7c-4.85,4.75-10.26,8.95-15.59,13.18
		c-6.98,5.55-15.25,6.54-23.61,5.13c-7.05-1.18-13.1-4.63-16.7-11.37c-1.47-2.75-3.35-5.29-4.95-7.97
		c-2.52-4.22-3.64-8.74-3.3-13.73c0.3-4.4,0.25-8.83,0.11-13.24c-0.16-4.86,0.4-9.53,2.26-14.06
		C1165.76,1825.81,1166.04,1821.13,1164.19,1816.24z M1174.04,1860.35c1.13-0.17,1.35-0.14,1.48-0.24
		c12.38-8.5,25.81-14.88,40.04-19.53c12.04-3.93,24.09-8.04,37.14-7.55c2.35-2.65,5.59-4.49,7.16-8.24c-1.31-0.2-2.2-0.42-3.1-0.47
		c-12.48-0.79-24.96-1.81-37.46-2.26c-12.13-0.44-24.29-0.3-36.43-0.37c-1.61-0.01-3.21,0.3-4.21,0.4
		c-6.7,10.98-4.5,22.68-5.27,33.94C1173.28,1857.39,1173.79,1858.8,1174.04,1860.35z"/>
	<path d="M814.55,720.66c-3.4,1.22-6.65,2.39-9.97,3.58c-6.8-2.04-13.52-3.95-20.17-6.09c-18.03-5.8-36.44-6.92-55.15-4.82
		c-1.07,0.12-2.11,0.48-3.86,0.89c1.24,1.6,2.12,2.86,3.12,4.02c4.89,5.62,7.31,12.29,8.32,19.53c0.86,6.19-1.07,11.07-6.53,14.67
		c-12.04,7.95-25.29,10.71-39.45,9.82c-6.09-0.38-12.13-1.49-17.67-4.1c-6-2.83-9.71-7.48-10.39-14.47
		c-0.7-7.2,1.72-13.04,6.67-17.96c2.77-2.75,5.14-5.69,7-9.14c3.39-6.27,9.27-9.24,15.81-11.13c1.59-0.46,3.24-0.88,4.88-0.93
		c5.58-0.18,10.81-1.97,16.18-3.16c11.04-2.45,22.3-2.97,33.52-2.29c17.67,1.08,35.16,3.65,52.23,8.48
		c3.85,1.09,7.59,2.81,11.1,4.74C812.96,713.83,815.23,716.16,814.55,720.66z M719.31,735.53c0.42-3.46,0.77-6.33,1.11-9.13
		c-3.12-4.56-7.68-6.8-12.59-9.02c-5.27,2.11-11.15,2.9-15.57,6.72c1.1,3.16,2.07,5.73,2.89,8.35c0.68,2.19,1.76,4.05,3.79,5.19
		c4.72,2.68,9.65,4.41,14.78,2.48C715.56,738.61,717.4,737.1,719.31,735.53z"/>
	<path d="M457.18,708.93c1.92,1.41,2.64,1.96,3.37,2.48c1.05,0.74,2.23,1.35,3.16,2.22c9.88,9.25,11.94,18.41,3.56,29.05
		c-3.94,5-8.65,9.03-14.12,12.18c-1.58,0.91-3.33,1.69-5.1,2.07c-11.77,2.55-23.38,2.74-34.51-2.81c-0.33-0.16-0.66-0.32-1-0.47
		c-7.21-3.25-10.24-9.1-10.36-16.74c-0.11-7.14,3.46-12.18,9.14-16c0.76-0.51,1.64-0.82,2.42-1.2c4.85-8.63,13.23-9.66,22.41-10.58
		c11.99-6.37,25.29-11.14,39.21-14.16c15.25-3.31,30.62-4.13,46.09-1.78c7.56,1.15,14.64,3.73,20.98,8
		c8.1,5.45,16.07,11.04,25.19,14.76c3.78,1.54,6.95,4.11,8.34,8.67c-1.19,1.89-2.44,3.87-3.73,5.92c-1.97,0-3.78,0-4.57,0
		c-4.5-2.52-8.03-4.85-11.85-6.56c-7.13-3.19-13.35-7.77-19.68-12.2c-8.39-5.88-17.78-8.81-27.86-9.56
		c-11.63-0.87-23.19-0.13-34.57,2.58C468.56,706.02,463.42,707.37,457.18,708.93z M431.32,721.79c-5.22,10.18-3.64,15.18,6.12,19.95
		c3.94,1.93,8.01,3.61,12.41,5.58c4.76-2.78,8.42-6.71,10.72-11.88c0.86-1.95,0.5-3.99-0.39-5.89c-2.3-4.91-5.87-8.46-11.17-9.96
		C442.88,717.85,436.99,718.41,431.32,721.79z"/>
	<path d="M1586.21,1593.16c1.51,3.28,0.31,5.5-1.25,7.68c-1.57,2.19-3.62,2.95-6.26,2.43c-16.07-3.18-32.11-6.47-48.22-9.43
		c-6.14-1.13-12.41-1.63-18.64-2.17c-11.93-1.03-23.86-1.96-35.81-2.8c-8.81-0.62-14.94,0.5-21.59,3.62
		c-2.08,1.85-2.25,5.55-5.7,6.33c-2.1-0.24-2.94-1.74-2.45-3.49c0.92-3.35,1.96-6.73,3.49-9.83c1.28-2.59,4.15-3.49,6.81-4.35
		c8.03-2.6,16.19-3,24.56-2.06c10.97,1.23,22,2,33,3.02c7.31,0.68,14.61,1.45,22.67,2.26c-1.4-0.94-2.26-1.68-3.25-2.16
		c-4.48-2.15-9-4.22-13.5-6.33c-10.76-5.05-20.44-11.69-29.15-19.78c-4.9-4.56-9.05-9.79-12.33-15.54c-4-7.02-7.5-14.35-10.89-21.7
		c-4.03-8.75-4.41-17.8-1.02-26.87c1.87-4.99,3.92-9.92,6.07-14.79c0.79-1.79,1.7-3.74,4.47-4.13c0.65,1.09,1.37,2.28,2.13,3.55
		c-1.56,3.31-2.96,6.49-4.53,9.58c-4.13,8.13-3.94,16.27-0.36,24.51c5.69,13.08,12.34,25.52,22.62,35.71
		c7.15,7.08,15.41,12.58,24.33,17.05c13.83,6.93,27.74,13.68,41.74,20.27c5.65,2.66,11.61,4.67,17.41,7.01
		C1582.6,1591.57,1584.59,1592.47,1586.21,1593.16z"/>
	<path d="M1078.1,416.94c-5.04,1.18-10.01,3.8-15.64,1.32c0.56-2.8,2.43-4.11,4.78-4.8c2.64-0.77,5.34-1.33,8-2.01
		c6.68-1.7,12.54-0.19,17.06,5c3.98,4.57,7.71,9.39,11.2,14.35c2.88,4.09,3.06,8.96,2.74,13.82c-0.18,2.75-0.55,5.52-0.4,8.26
		c0.28,5.42-0.58,10.57-2.31,15.72c-3.28,9.77-6.38,19.58-10.96,28.88c-2.11,4.27-3.25,9.01-5.23,13.35
		c-2.36,5.17-5.03,10.23-7.82,15.18c-2.23,3.96-4.85,7.7-8.02,12.66c2.53-0.83,3.87-1.15,5.11-1.69c4.32-1.9,8.83-2.51,13.5-2.1
		c4.06,0.35,7.48,1.78,9.58,5.58c0.79,1.44,1.84,2.74,2.73,4.05c6.5,1.72,11.55,5.82,16.94,9.27c1.34,0.86,2.49,2.26,3.32,3.65
		c2.83,4.74,5.85,9.42,8.09,14.43c2.89,6.44,2.61,13.32,0.98,20.08c-1.55,6.43-3.32,12.82-5.16,19.18c-0.98,3.4-2.76,6.36-5.57,8.71
		c-13.24,11.03-27.37,20.59-43.8,26.29c-2.78,0.97-5.58,1.93-8.44,2.59c-9.88,2.3-22.02-0.03-30.54-5.97
		c-0.15-1.33-0.34-3.04-0.58-5.14c1.77-0.23,3.06-0.74,4.17-0.48c3.39,0.79,6.81,1.64,10.05,2.91c6.81,2.69,13.58,3.01,20.5,0.61
		c11-3.81,21.75-8.07,30.69-15.89c2.91-2.54,6.02-4.87,9.16-7.12c2.39-1.71,3.96-3.82,4.38-6.72c0.79-5.5,2.59-10.7,4.48-15.9
		c2.01-5.52,1.66-11.28,0.46-16.91c-1.33-6.23-4.37-11.75-8.37-16.64c-1.59-1.94-3.89-3.31-5.94-4.85
		c-1.45-1.08-3.02-2.01-4.42-2.92c-0.43-2.15-0.67-3.98-1.16-5.73c-1.05-3.73-3.56-5.86-7.41-6.51c-6.79-1.13-13.14,0.19-19.35,2.96
		c-3.14,1.41-6.48,2.38-10.15,2.86c-1.28,1.54-2.56,3.07-4,4.79c-1.31,0.57-2.82,1.23-4.7,2.04c-1.08-0.52-2.33-1.13-3.54-1.72
		c0.16-0.91,0.09-1.56,0.37-1.96c1.47-2.11,2.96-4.22,4.58-6.22c9.48-11.66,16.96-24.48,22.74-38.35
		c2.47-5.94,5.26-11.75,7.91-17.62c3.64-8.07,6.94-16.27,8.56-25.01c1.38-7.49,0.8-15.06-0.11-22.54c-0.29-2.41-1.87-4.73-3.16-6.92
		c-1.86-3.16-3.96-6.19-6.03-9.23C1085.07,421.13,1082.22,418.35,1078.1,416.94z"/>
	<path d="M857.87,257.36c-4.3,3.8-8.35,7.56-12.59,11.09c-16.27,13.52-29.56,29.75-42.66,46.2c-10.22,12.83-20.98,25.16-33.18,36.24
		c-10.36,9.41-20.04,19.57-30.38,29.02c-8.97,8.19-18.42,15.87-27.7,23.72c-4.22,3.57-8.51,7.05-12.82,10.51
		c-12.79,10.27-27.41,17.2-42.59,23.08c-5.66,2.2-11.43,4.14-17.1,6.3c-5.74,2.19-11.72,3.16-17.77,3.88
		c-4.94,0.59-9.85,1.44-14.8,1.77c-5.68,0.37-11.4,0.49-17.1,0.33c-3.72-0.1-6.61-1.9-7.99-5.72c-0.61-1.7-1.79-3.2-2.61-4.83
		c-0.9-1.79-1.73-3.62-2.53-5.47c-0.29-0.67-0.26-1.49-0.59-2.12c-4.38-8.38-2.94-17.19-1.76-25.9c0.52-3.82,2.07-7.45,4.81-10.38
		c1.95-0.96,3.85-1.24,6.03,0.25c-0.71,3.81-1.73,7.69-2.1,11.62c-0.38,4.02-0.06,8.1-0.18,12.16c-0.11,3.99-0.39,7.98-0.58,11.68
		c4.12,3.97,6.25,8.93,11.29,12.16c5.64-0.24,11.7-0.34,17.73-0.8c6.61-0.51,13.19-1.32,19.77-2.1c2-0.24,4.02-0.62,5.91-1.28
		c16.05-5.57,31.74-12.06,45.93-21.48c7.8-5.18,14.9-11.41,22.27-17.24c17.8-14.08,34.42-29.46,50.31-45.66
		c6.71-6.83,14.14-12.99,20.55-20.08c9.64-10.64,18.9-21.66,27.92-32.83c10.8-13.37,22.46-25.87,35.39-37.2
		c2.63-2.31,5.12-4.77,7.72-7.11c1.5-1.36,2.97-2.81,4.66-3.89C854.53,251.1,857.05,252.54,857.87,257.36z"/>
	<path d="M972.96,304.14c6.83,1.3,12.95,2.48,19.08,3.63c2.43,0.45,4.52,1.45,6.06,3.32c0.72,2.92-1.66,3.31-3.62,4.25
		c3.16,8.99,2.34,18.35,3.13,28.26c2.38-2.19,3.04-4.45,3.94-6.32c-0.18-11.5,0.05-12.35,4.8-17.62c2.39,0.62,3.67,2.75,5.67,4.46
		c-0.22,1.9-0.55,3.87-0.67,5.85c-0.12,2.01-0.03,4.03-0.03,7.08c-3.61,7.03-5.98,15.97-13.91,21.45
		c2.49,7.14-1.78,11.34-5.57,15.49c-4.28,1.03-4.28,1.03-7.4,0.5c-0.82-2.65,2.21-4,2.3-6.69c-2.09,0.19-3.12,1.88-4.46,2.92
		c-3.42,2.64-7.14,4.57-11.5,4.92c-1.64,0.13-3.34,0.11-4.94-0.2c-6.77-1.29-15.01-9.71-16.09-16.5
		c-1.9-11.97-0.49-23.28,5.45-34.18c3.41-6.25,7.5-11.72,12.52-16.6C969.29,306.66,971.18,305.5,972.96,304.14z M971.7,316.35
		c-6.43,6.68-7.18,16.93-1.59,23.84c2.28,2.82,5.31,5.04,8.02,7.51c1.47,1.34,2.99,2.62,4.36,3.83c0,1.93,0,3.46,0,6
		c1.29-1.44,2.19-2.06,2.56-2.91c1.83-4.27,2.75-8.77,2.63-13.42c-0.1-3.86-0.36-7.72-0.67-11.56
		C986.33,321.07,980.87,316.29,971.7,316.35z"/>
	<path d="M565.45,1201.56c-7.28,4.08-14.26,5.49-21.5,5.76c-12.23,0.46-24.21-1.36-36.04-4.36c-4.28-1.08-8.57-2.13-12.76-3.49
		c-2.95-0.96-5.95-2.08-8.56-3.71c-4.33-2.72-5.14-8.13-1.76-11.92c2.17-2.44,4.78-4.62,7.54-6.36c6.76-4.25,14.4-6.44,21.97-8.79
		c2.42-0.75,4.79-1.78,7.03-2.98c10.46-5.63,20.97-6.78,31.38-0.13c3.54,2.26,6.88,4.93,9.95,7.8c6.25,5.84,7.85,13.08,5.37,21.21
		C567.3,1197.03,566.27,1199.38,565.45,1201.56z M552.41,1198.09c0.4,0.08,0.8,0.17,1.21,0.25c0.67-1.45,1.41-2.87,1.98-4.35
		c2.25-5.8,1.09-10.71-3.57-14.98c-3.6-3.3-7.54-5.82-11.85-7.11c-4.12,0.88-7.84,1.69-12.09,2.6c0.47,1.27,0.59,2.68,1.36,3.41
		c1.71,1.64,3.58,3.25,5.67,4.32c3.75,1.93,7.69,3.51,11.58,5.15c2.21,0.93,4.58,1.58,5.7,4.83
		C552.41,1193.75,552.41,1195.92,552.41,1198.09z"/>
	<path d="M1158.21,187.66c0.81-4.66,2-8.97,4.85-14.03c0.76,4.05,1.33,7.05,1.94,10.26c0.87,0.99,1.79,2.13,2.81,3.18
		c4.94,5.07,6.28,11.03,4.68,17.84c-2.91,12.39-6.61,24.53-11.8,36.17c-4.2,9.42-8.48,18.8-12.72,28.2
		c-2.87,6.38-5.88,12.71-8.56,19.17c-4.98,12.02-11.39,23.13-20.25,32.72c-6.13,6.64-11.67,13.71-17.03,21.01
		c-6.98,9.49-14.8,18.35-22.21,27.52c-5.33,6.59-10.81,13.08-15.79,19.93c-4.87,6.7-9.13,13.84-13.78,20.69
		c-5.69,8.37-11.51,16.65-17.36,25.1c-2.32,0-4.46,0-7.03,0c0.14-1.16-0.02-2.31,0.44-3.11c1.45-2.56,3.1-5.01,4.72-7.47
		c4.97-7.54,9.8-15.16,14.98-22.55c5.28-7.53,10.72-14.97,16.42-22.2c9.93-12.59,20.26-24.85,30.13-37.48
		c8.05-10.3,15.67-20.94,23.5-31.41c6.68-8.93,11.47-18.85,15.57-29.17c2.04-5.13,4.16-10.26,6.69-15.16
		c7.1-13.79,12.88-28.15,18.3-42.64c2.63-7.04,4.17-14.5,6.03-21.81c0.94-3.71,0.46-7.31-1.89-10.53
		C1159.96,190.71,1159.27,189.4,1158.21,187.66z"/>
	<path d="M1397.96,1322.99c-1.32-1.46-2.5-2.76-3.35-3.7c0.04-3.49,2.02-4.79,4.13-6.05c8.06-4.81,16.17-9.55,24.14-14.52
		c12.04-7.5,24.08-15,35.92-22.81c19.68-12.98,39.2-26.22,58.79-39.33c3.67-2.46,7.3-5.02,11.14-7.19
		c11.55-6.52,20.63-15.98,30.25-24.82c3.39-3.11,6.92-6.08,10.53-8.93c2.55-2.02,2.91-1.99,6.6-2.65c2.37,1.55,2.95,3.92,2.82,6.9
		c-3.18,4.15-7.46,7.39-11.54,10.78c-4.53,3.76-9.44,7.05-14.16,10.58c-3.68,2.76-7.55,5.32-10.89,8.44
		c-8.9,8.29-17.63,16.75-26.27,25.31c-3.07,3.05-7.01,4.49-10.57,6.62c-1.34,0.8-2.95,1.15-5.6,2.14
		c4.45-5.74,8.77-10.02,12.61-14.8c-6.74,3.31-12.73,7.72-18.91,11.79c-6.3,4.16-12.5,8.47-18.73,12.75
		c-6.38,4.38-12.68,8.88-19.1,13.19c-6.27,4.21-12.6,8.34-19,12.35c-6.4,4.01-12.93,7.81-19.38,11.74
		C1410.97,1314.67,1405.23,1319.66,1397.96,1322.99z"/>
	<path d="M788.29,1266c-9.65-0.11-18.94-2.48-28.22-4.8c-5.34-1.34-10.6-3.08-15.8-4.92c-2.39-0.84-4.77-2.05-6.78-3.59
		c-4.93-3.78-5.21-8.77-0.91-13.28c3.75-3.94,8.26-6.82,13.5-8.29c3.72-1.04,7.19-2.6,10.75-4.01c6.52-2.58,13.47-3.8,20.54-2.12
		c8.56,2.03,16.45,5.36,22.39,12.2c4.94,5.69,5.52,12.43,3.61,19.23c-1.74,6.23-7.03,8.68-13.02,9.54
		C792.38,1266.24,790.32,1266,788.29,1266z M767.55,1236.08c-1.25,3.86-0.04,6.75,3.02,9.24c5.22,4.24,10.95,7.37,17.54,8.86
		c2.12,0.48,4.19,1.32,6.3,0.73c2.91-6.28,1.89-11.4-3.19-15.32c-4.61-3.56-9.95-5.49-15.69-6.27
		C772.47,1232.91,769.71,1233.66,767.55,1236.08z"/>
	<path d="M922.84,578.78c-1.6,2.2-3.03,4.05-4.35,5.98c-3.87,5.68-8.63,10.55-13.97,14.81c-4.32,3.43-8.71,6.84-13.39,9.74
		c-3.71,2.29-7.83,4.02-11.94,5.56c-4.92,1.85-9.83,0.77-14.51-1.24c-3.61-1.55-5.26-3.91-4.73-7.81c0.41-3.03,1.36-6.12,2.71-8.88
		c3.67-7.51,8.96-13.92,14.8-19.84c4.14-4.19,8.34-8.34,12.75-12.24c2.45-2.17,5.29-3.95,8.13-5.61c5.26-3.07,10.47-2,14.99,1.41
		c4.64,3.51,7.9,8.18,8.75,14.2C922.28,576.3,922.63,577.73,922.84,578.78z M905.07,567.45c-7.35-0.41-12.33,3.61-13.21,10.53
		c-0.91,7.17,2.63,11.86,8.61,15.26c3.72-2.47,6.02-6.01,8.04-9.74C912.23,576.65,911.41,572.84,905.07,567.45z"/>
	<path d="M1612.31,1335.51c-4.2,2.8-8.74,5.61-13.04,8.74c-6.7,4.87-13.33,9.84-19.82,15c-6.34,5.04-12.47,10.35-18.67,15.56
		c-2.97,2.5-6.42,3.89-10.89,5.13c1.71-4.4,4.98-6.55,7.35-9.33c2.51-2.93,5.41-5.53,8.15-8.26c2.66-2.66,5.34-5.32,7.43-8.75
		c-1.28,0.58-2.57,1.12-3.83,1.73c-9.79,4.72-19.48,9.64-29.36,14.15c-15.74,7.2-32.49,10.68-49.6,12.56
		c-3.07,0.34-6.3,0.17-9.35-0.35c-5.7-0.96-9.62-4.48-11.74-9.8c-1.44-3.59-0.59-5.34,3.26-7.57c0.47,0.44,1.18,0.82,1.48,1.41
		c2.39,4.75,6.76,5.98,11.48,6.4c6.3,0.55,12.51-0.59,18.66-1.67c16.08-2.8,31.33-8.12,45.96-15.35
		c11.56-5.71,23.21-11.24,34.87-16.74c3.99-1.88,8.15-3.41,12.22-5.14c4.72-2,9.42-4.05,14.13-6.07
		C1613.19,1330.07,1613.19,1330.07,1612.31,1335.51z"/>
	<path d="M750.62,616.64c0.23,0.65,0.34,1.43,0.74,2.01c6.14,8.79,13.2,16.49,24.43,18.42c6.89,1.19,13.94,1.57,20.77,2.99
		c9.79,2.03,19.3,1,29.03-0.48c8.53-1.29,17.26-1.32,25.9-1.7c3.19-0.14,6.13-0.62,9.05-2.03c6.7-3.22,13.97-4.76,21.23-5.88
		c4.29-0.66,8.24-1.71,12.17-4.15c2.43-4.57,6.96-6.79,12.36-9.04c-0.58,4.4-1.89,7.79-4.44,10.85c-1.28,0.11-2.54,0.23-2.51,0.22
		c-3.93,1.29-6.62,2.44-9.42,3.01c-3.81,0.78-7.47,1.48-10.54,4.3c-1.55,1.43-3.87,2.08-5.9,2.94c-4.91,2.08-9.86,4.09-15.01,6.21
		c-5.8,0.21-11.88,0.39-17.96,0.64c-8.86,0.37-17.58,1.72-26.29,3.36c-3.18,0.6-6.6,0.33-9.86-0.04
		c-6.77-0.78-13.49-1.95-20.24-2.87c-7.14-0.97-14.09-2.6-20.97-4.79c-7.26-2.31-12.43-7-16.62-13.02
		c-1.98-2.85-4.18-5.53-4.97-9.14c-0.92-4.18,0.09-7.63,2.79-10.76c0.24-0.28,0.49-0.55,0.77-0.8c11.37-9.97,22.8-19.88,36.85-26.06
		c5.9-2.59,11.85-5.06,17.77-7.59c2.65-1.13,5.32-1.36,8.56-0.23c0.36,0.98,0.81,2.23,1.26,3.46c-0.8,0.58-1.21,1.14-1.66,1.16
		c-4.19,0.23-7.77,2.12-11.4,3.95c-1.64,0.83-3.29,1.68-5.02,2.31c-9.49,3.43-17.8,8.8-25.49,15.24c-3.11,2.61-6.3,5.11-9.37,7.75
		C753.64,609.47,751.37,612.53,750.62,616.64z"/>
	<path d="M590.71,372.09c-2.45,0.57-3.58,3.63-6.42,2.68c-1.56-1.74-1.11-3.6-0.57-5.33c1.34-4.2,2.62-8.45,4.32-12.51
		c7.62-18.2,16.37-35.85,25.96-53.09c2.59-4.66,4.94-9.48,7.16-14.34c8.66-18.99,18.89-37.08,30.72-54.28
		c5.96-8.67,10.97-17.9,15.66-27.31c0.39-0.79,0.71-1.61,0.76-2.66c-3.14,1.81-5.32,4.6-7.71,7.16c-2.39,2.56-4.77,5.13-7.03,7.8
		c-2.36,2.79-4.57,5.7-6.46,8.07c-2.58,0.55-4.09,0.34-4.95-1.91c1.73-5.18,5.52-9.25,9.08-13.41c6.95-8.11,14.02-16.12,21.11-24.11
		c1.56-1.75,3.4-3.25,5.97-5.69c-0.14,2.46-0.21,3.74-0.29,5.13c0.83,1.7,1.72,3.5,2.64,5.39c-0.63,1.44-1.13,2.82-1.8,4.11
		c-5.93,11.45-11.72,22.98-17.91,34.29c-3.71,6.78-8.03,13.22-12.14,19.78c-7.16,11.41-13.44,23.28-19.3,35.4
		c-4.25,8.79-9.01,17.33-13.2,26.14c-6.87,14.47-13.55,29.04-20.1,43.66C594.11,361.76,592.65,366.74,590.71,372.09z"/>
	<path d="M1191.12,427.44c0.4-1.66,0.51-2.75,0.92-3.72c9.99-23.96,20.03-47.91,30.03-71.87c14.25-34.16,28.41-68.37,42.76-102.49
		c4.35-10.35,9.26-20.47,13.88-30.71c1.42-3.14,3.57-5.46,7.22-6.91c0.31,1.21,0.91,2.26,0.74,3.15c-0.54,2.68-1.1,5.42-2.15,7.93
		c-9.58,22.74-19.24,45.45-28.92,68.15c-5.56,13.04-11.3,26.01-16.79,39.09c-10.13,24.1-20.11,48.27-30.22,72.38
		c-2.92,6.96-6.1,13.81-9.13,20.73c-1.1,2.52-2.71,4.41-5.58,4.77C1193.21,428.02,1192.5,427.71,1191.12,427.44z"/>
	<path d="M785.27,1434.43c-0.59,1.49-1.02,2.58-1.58,4c-4.56-0.43-8.94-0.66-13.27-1.29c-33.55-4.91-66.79-11.37-99.38-20.81
		c-22.47-6.51-45.01-12.67-68.03-16.93c-13.58-2.51-27.19-4.83-40.76-7.4c-3.96-0.75-7.87-1.87-11.69-3.17
		c-2.78-0.94-5.29-2.54-6.68-5.79c0.93-1.04,1.86-2.08,2.64-2.95c0.95,0,1.59-0.19,2.04,0.03c11.62,5.61,24.28,7.35,36.75,9.5
		c31.43,5.43,62.33,13.03,92.97,21.77c27.66,7.89,55.74,13.8,84.13,18.3c6.73,1.06,13.41,2.37,20.11,3.61
		C783.21,1433.42,783.85,1433.83,785.27,1434.43z"/>
	<path d="M1507.86,960.07c-0.49,1.68-0.77,2.65-1.19,4.08c-2.3-0.17-4.53-0.01-6.57-0.54c-6.94-1.81-13.81-3.89-20.72-5.81
		c-7.09-1.96-14.23-3.74-21.29-5.8c-3.51-1.02-6.93-2.39-10.29-3.83c-1.03-0.44-1.73-1.64-3.08-2.99
		c6.43-2.89,12.71-4.08,18.81-5.77c6.38-1.76,12.78-3.51,19.22-5.03c6.25-1.47,12.58-2.64,19.93-4.16
		c-1.92-0.62-2.86-1.13-3.83-1.21c-15.6-1.24-31.21-2.35-46.8-3.67c-6.6-0.56-13.18-1.39-19.75-2.3
		c-10.04-1.4-20.11-2.25-30.25-2.55c-2.88-0.09-5.76-0.98-8.59-1.69c-0.73-0.18-1.28-1.09-2.31-2.03c1.36-0.64,2.24-1.35,3.2-1.46
		c2.55-0.3,5.15-0.63,7.69-0.44c11.74,0.91,23.47,1.98,35.2,3.04c10.26,0.93,20.51,2.05,30.78,2.87c17.8,1.42,35.67,2.04,53.24,5.6
		c0.71,0.14,1.41,0.37,1.96,0.52c1.78,1.81,1.8,3.69,0.74,6.25c-9.54,2.33-19.53,3.68-29.38,5.75c-9.82,2.06-19.49,4.74-29.02,8.32
		C1479.43,951.43,1493.3,955.64,1507.86,960.07z"/>
	<path d="M660.65,834.59c1.51-1.12,3.07-2.28,4.86-3.62c2.33,0.57,4.59,1.38,6.91,1.63c13.55,1.46,27.08,3.24,40.67,4.07
		c19.86,1.2,39.69,2.52,59.44,5.1c14.06,1.84,28.14,3.55,42.25,5.01c19.05,1.98,38.14,3.59,57.2,5.54
		c5.12,0.52,10.17,1.67,15.24,2.59c0.6,0.11,1.12,0.62,2.74,1.57c-2.39,0.21-3.56,0.4-4.73,0.41c-5.89,0.03-11.79-0.12-17.68,0.05
		c-4,0.11-8.02,1.12-11.98,0.89c-14.33-0.83-28.67-1.58-42.87-4.07c-8.7-1.52-17.52-2.3-26.28-3.5c-4.56-0.63-9.09-1.44-13.63-2.21
		c-12.02-2.06-24.2-2.05-36.31-2.97c-13.04-0.99-26.1-1.64-39.15-2.57c-8.63-0.61-17.25-1.42-25.87-2.21
		c-2.01-0.18-4.03-0.5-5.97-1.05C663.36,838.63,661.49,837.49,660.65,834.59z"/>
	<path d="M1346.86,417.42c1.05-3.27,3.52-5.25,5.77-7.41c17.17-16.53,36.07-30.88,55.95-43.91c16.18-10.6,32.06-21.57,46.93-33.93
		c2.96-2.46,5.71-5.21,8.42-7.97c8.28-8.4,16.8-16.51,26.36-23.47c1.9-1.38,3.93-2.57,6.18-4.03c1.26,1.61,2.24,2.86,3.17,4.05
		c-1.19,2.75-2.91,4.63-5.21,5.92c-7,3.92-12.73,9.41-18.24,15.07c-12.51,12.86-26.68,23.72-41.01,34.35
		c-9.59,7.12-19.95,13.19-29.79,20c-15.9,11.01-31.27,22.7-45.52,35.82c-2.67,2.46-5.84,4.41-8.9,6.42
		C1349.74,419.15,1348.2,419.51,1346.86,417.42z"/>
	<path d="M1334.71,734.97c2.41-5.44,5-6.69,9.9-4.94c1.04,0.37,2.06,0.82,3.02,1.36c7.6,4.34,15.99,6.42,24.33,8.8
		c14.86,4.23,29.66,8.71,44.41,13.32c17.39,5.44,34.71,11.11,52.06,16.71c3.55,1.15,3.54,1.2,5.62,3.84
		c-1.02,2.33-1.02,2.33-3.66,4.55c-2.78-0.57-6.14-0.83-9.19-1.94c-26.82-9.81-54.47-17-81.68-25.56
		c-6.48-2.04-13.2-3.36-19.83-4.94C1350.63,744.01,1342.57,739.72,1334.71,734.97z"/>
	<path d="M946.42,1085.11c3.02-1.4,5.6-0.63,8.06-0.15c18.06,3.56,36.1,7.18,54.13,10.88c22.71,4.66,45.34,9.71,68.26,13.32
		c17.99,2.84,35.94,6.08,53.61,10.62c10.87,2.79,21.74,5.56,32.59,8.42c2.24,0.59,4.74,1.01,5.88,3.73
		c-1.03,2.19-2.97,2.59-5.03,2.32c-1.81-0.23-3.58-0.8-5.36-1.26c-14.26-3.66-28.44-7.67-42.8-10.89
		c-13.64-3.05-27.48-5.25-41.22-7.87c-17.36-3.32-34.73-6.55-52.05-10.07c-19.3-3.92-38.54-8.13-57.82-12.18
		c-3.06-0.64-6.22-0.87-9.21-1.73c-2.78-0.8-5.4-2.17-8.05-3.38C947.03,1086.73,946.9,1086.03,946.42,1085.11z"/>
	<path d="M1447.79,1070.91c-1.12,2.04-3.21,2.4-5.16,2.5c-2.74,0.14-5.53,0.06-8.25-0.28c-19.74-2.47-39.48-4.93-59.19-7.59
		c-12.59-1.7-25.15-3.65-37.7-5.62c-13.47-2.11-26.9-4.43-40.36-6.55c-7.09-1.12-14.24-1.87-21.32-3.04
		c-3.43-0.57-6.81-1.59-10.13-2.68c-2.04-0.67-4.11-1.58-5.46-4.05c2.24-2.38,4.96-2.16,7.61-1.72c3.26,0.54,6.46,1.47,9.73,2.02
		c28.15,4.77,56.21,10.1,84.56,13.59c12.06,1.49,24.21,2.33,36.25,3.97c14.78,2.01,29.49,4.49,44.21,6.91
		C1444.4,1068.68,1446.82,1068.37,1447.79,1070.91z"/>
	<path d="M746.05,415.79c-8.43,11.61-13.37,24.58-18.96,37.14c-3.95,8.87-6.47,18.37-9.57,27.61c-2.23,6.62-4.36,13.27-6.56,19.9
		c-0.52,1.57-1.14,3.11-1.72,4.66c-1.5,4.04-1.29,7.89,1.06,11.63c1.46,2.33,2.66,4.83,3.9,7.11c2.85,2.18,5.82,2.64,9.03,1.69
		c3.31-0.97,6.81-0.63,10.09-2.38c3.58-1.91,7.21-3.48,10.01-6.62c2.22-2.49,5.15-4.1,8.67-5.06c0.62,0.49,1.29,1.02,2.04,1.61
		c-1.58,4.74-6,5.25-9.7,7.2c-3.54,5.67-8.76,8.17-16.16,6.7c-5.73,3.24-12.18,4.98-19.9,3.03c-3.65-4.61-6.83-10.11-8.39-16.44
		c-0.29-1.18-0.01-2.57,0.26-3.81c0.42-1.98,0.82-4.01,1.63-5.84c5.18-11.68,7.37-24.29,11.54-36.28
		c2.29-6.59,4.75-13.16,7.64-19.51c3.81-8.37,8.02-16.56,12.26-24.72c1.34-2.58,3.15-5,5.1-7.17
		C740.46,413.84,742.29,413.84,746.05,415.79z"/>
	<path d="M482.36,342.2c0.52,3.68,0.29,4.37-2.37,5.14c-5.69,1.63-11.03,0.39-15.73-2.91c-2.98-2.09-5.73-4.65-8.17-7.37
		c-5.19-5.78-10.64-11.18-17.31-15.28c-3.07-1.89-5.16-4.74-6.47-8.05c-3.2-8.04-5.7-16.25-6.41-24.98
		c-0.43-5.29-1.4-10.57-2.5-15.78c-0.96-4.55-3.12-8.51-6.55-11.89c-3.68-3.63-4.99-8.56-5.63-13.51
		c-1.05-8.14,0.27-16.15,2.14-24.06c0.57-2.42,2.27-4.05,4-5.78c2.7,1.27,2.82,3.44,2.51,5.68c-0.43,3.09-1.04,6.16-1.52,9.25
		c-1.51,9.71-0.63,18.97,4.37,27.76c3.92,6.91,6.1,14.48,7.75,22.31c1.78,8.43,4.55,16.65,7.02,24.93
		c1.37,4.59,4.17,8.02,8.49,10.39c4.86,2.67,9.01,6.3,12.65,10.54c2.27,2.65,4.72,5.17,7.29,7.53c3.73,3.43,7.86,6.08,13.31,5.59
		C480.27,341.61,481.36,342.03,482.36,342.2z"/>
	<path d="M941.59,422.43c-1.86,4.36-5.34,6.04-9.38,7.34c-6.82,2.19-13.49,4.87-20.26,7.24c-3.12,1.09-6.33,1.92-9.49,2.89
		c-1.93,0.59-4.04,0.9-5.72,1.92c-4.1,2.49-8.48,3.41-14.04,3.12c-2.39-1.15-5.53-2.66-8.66-4.16c-3.67,0.24-7.33,0.49-10.62,0.7
		c-2.28-1.05-3.01-2.59-3.03-4.61c-0.04-4.15,0.5-8.09,3.74-11.08c2.13-0.72,4.05-0.72,5.96,1.26c0.14,2.21,0.29,4.72,0.46,7.47
		c3.21,0.58,6.25,1.05,9.26,1.7c2.86,0.62,5.69,1.43,7.45,1.88c6.26-1.96,11.53-3.56,16.76-5.27c2.62-0.86,5.15-1.99,7.77-2.89
		c6.61-2.27,13.16-4.76,19.89-6.63c7.25-2.02,13.09-6.09,17.57-11.8c6.51-8.31,13.64-15.95,21.62-22.83
		c1.62-1.39,3.12-2.92,4.72-4.43c1.85,2.84,1.85,2.84,1.5,7.41c-1.19,1.33-2.57,3.05-4.13,4.58c-5.91,5.82-11.82,11.64-16.61,18.47
		c-1.76,2.51-4.11,4.14-7.05,5.03C946.83,420.49,944.43,421.43,941.59,422.43z"/>
	<path d="M912.01,1307.61c2.89-0.85,5.51-1.63,8.21-2.42c1.43,1.02,2.75,1.96,3.87,2.75c10.31,0.48,20.41,0.95,30.09,1.4
		c2.63,2,2.49,4.04,1.2,6.16c-3.91,6.45-7.77,12.93-11.82,19.28c-4.03,6.31-10.04,8.51-17.2,6.48c-3.58-1.01-6.93-2.56-9.62-5.21
		c-1.17-1.15-2.63-2.37-3.08-3.83C911.25,1324.39,908.4,1316.51,912.01,1307.61z M924.25,1330.49c1.99,1.33,3.88,2.59,5.63,3.75
		c4.39-3.7,11.02-15.07,11.45-19.44c-5.78-0.31-11.53-0.93-17.33-0.26C922.46,1319.99,923.9,1324.81,924.25,1330.49z"/>
	<path d="M502.34,1527.86c1.82,9.77,3.49,18.99,3.83,28.38c0.77,21.46,5.5,42.29,10.4,63.05c1.76,7.46,5.2,14.52,7.87,21.76
		c0.55,1.5,1.05,3.02,1.81,5.25c-2.51-0.66-4.34-1.15-6.18-1.64c-5.36-4.74-8.02-11.07-9.85-17.62c-5.67-20.23-10-40.72-10.95-61.82
		c-0.35-7.71-1.32-15.39-1.97-23.08c-0.17-2.02-0.22-4.04-0.34-6.06C496.73,1532.37,498.39,1529.83,502.34,1527.86z"/>
	<path d="M1145.47,139.59c-0.1,3.71-1.04,7.04,3.04,9.37c1.42-0.08,3.4-0.2,5.93-0.35c4.17,1.61,7.41,4.98,10.2,9.47
		c-0.39,3.66-1.14,7.41-3.74,11.96c-0.45-3.51-0.74-5.8-0.96-7.48c-6.43-5.72-12.44-11.09-18.49-16.42
		c-0.82-0.72-1.75-1.38-2.74-1.83c-6.54-2.95-13.08-5.9-19.68-8.71c-4.51-1.92-9.1-2.12-14.03-1.19
		c-7.76,1.46-15.67,2.07-23.49,3.28c-7.81,1.21-15.59,2.57-23.33,4.13c-4.67,0.95-5.32,1.02-8.89-2.06c0.23-2.02,1.97-2.41,3.4-3.16
		c7.13-3.75,14.96-5.14,22.76-6.42c8.38-1.37,16.86-1.29,25.34-0.88c7.72,0.37,15.45,0.73,23.17,0.68
		C1132.69,129.92,1139.52,133.48,1145.47,139.59z"/>
	<path d="M865.14,422.27c-2.81-1.27-3.59-3.41-3.04-6.31c0.94-4.91,2.35-9.68,4.84-14.01c6.05-10.5,11.29-21.49,18.81-31.1
		c1.01-1.29,1.64-2.87,2.5-4.27c6.02-9.8,13.61-18.19,22.12-25.17c3.04-0.56,5.31-0.27,7.11,1.75c0.81,2.22-0.51,3.88-1.54,5.92
		c-1.22,0.73-2.63,1.56-4.03,2.42c-1.09,0.67-2.4,1.17-3.2,2.1c-5.85,6.81-12.55,12.91-16.94,20.92
		c-4.77,8.7-9.71,17.31-14.53,25.98c-2.33,4.19-4.26,8.53-5.25,13.28C871.22,417.51,869.66,420.79,865.14,422.27z"/>
	<path d="M1452.44,428.53c-3.44,1.64-6.71,3.24-10.01,4.76c-21.91,10.1-43.85,20.14-65.71,30.34c-3.31,1.54-6.26,3.85-9.38,5.81
		c-3.27,2.06-6.45,4.29-9.83,6.15c-2.36,1.3-4.93,2.51-8.09,1.41c0.25-3.18,2.12-4.94,4.46-6.57c13.95-9.72,28.73-17.88,44.34-24.66
		c13.52-5.87,26.79-12.28,40.94-16.58c3.17-0.96,6.34-1.92,9.52-2.85C1450.17,425.91,1451.61,425.7,1452.44,428.53z"/>
	<path d="M1223.8,694.37c3.34,0.84,6.08,1.28,8.64,2.22c4.12,1.52,8.2,3.21,12.16,5.1c6.97,3.31,13.76,7.01,20.78,10.18
		c3.66,1.65,7.72,2.4,11.51,3.8c3.25,1.2,6.41,2.7,9.54,4.2c0.72,0.35,1.18,1.25,2.08,2.25c-0.99,0.67-1.63,1.45-2.36,1.54
		c-8.74,1.09-17.25-0.06-25.39-3.32c-5.11-2.05-10.04-4.56-14.99-6.97c-2.48-1.2-4.85-2.64-7.26-3.98
		c-4.22-2.33-8.63-4.02-13.51-4.48c-2.86-0.27-5.89-0.52-8.2-3.17C1217.83,697.62,1220.58,695.34,1223.8,694.37z"/>
	<path d="M1006.29,780.29c-1.63,2.18-3.1,2.76-4.87,2.54c-2-0.25-4.03-0.42-6-0.86c-13.33-2.97-26.88-4.4-40.46-5.55
		c-10.45-0.89-20.92-1.57-31.37-2.47c-3.42-0.29-6.8-1.02-10.09-3.27c1.77-2.6,4.02-3.13,6.37-3.15c4.42-0.04,8.84,0.03,13.25,0.17
		c15.84,0.49,31.63,1.69,47.34,3.79c7.86,1.05,15.6,2.72,22.71,6.48C1004.21,778.51,1005.09,779.39,1006.29,780.29z"/>
	<path d="M931.74,859.27c3.36,0,5.54-0.16,7.7,0.03c13.01,1.1,25.99,2.69,39.02,3.32c14.14,0.68,28.32,0.46,42.48,0.69
		c2.35,0.04,4.7,0.35,6.81,0.51c1.59,3.71,1.59,3.71-1.76,6.28c-6.48,1.49-12.9,0.5-19.3,0.11c-5.32-0.32-10.63-0.94-15.95-1.11
		c-15.84-0.51-31.57-2.05-47.23-4.43c-3.44-0.52-6.96-0.96-9.81-3.28C933.3,861.08,933,860.66,931.74,859.27z"/>
	<path d="M1126.23,1270.23c17.88-2.5,62.84,3.9,78.68,12.87c0,0.78,0,1.64,0,3.03c-5.09,0.27-10.07,0.6-14.82-0.74
		c-13.66-3.86-27.53-6.55-41.62-8.24c-4.92-0.59-9.81-1.46-14.69-2.3C1130.05,1274.22,1129.05,1273.55,1126.23,1270.23z"/>
	<path d="M587.65,595.1c0.45,0.74,0.72,1.18,1.2,1.97c-0.45,0.29-0.86,0.68-1.34,0.86c-12.02,4.3-24.64,5.63-37.14,7.54
		c-11.98,1.83-23.98,3.52-35.99,5.16c-3.27,0.45-6.59,0.63-9.89,0.66c-2.98,0.03-3.12-0.21-5.66-3.14c0.98-0.5,1.82-1.22,2.76-1.37
		c6.7-1.1,13.42-2.14,20.14-3.1c15.09-2.16,30.18-4.34,45.29-6.37C573.88,596.39,580.81,595.82,587.65,595.1z"/>
	<path d="M965.66,203.82c0.57,0.61,1.05,1.13,1.44,1.54c-0.72,4.7-2.64,8.53-5.42,12.09c-3.63,4.63-7.04,9.45-10.41,14.27
		c-3.17,4.54-5.97,9.29-6.66,15.06c-1.09,0.43-2.07,0.82-3.31,1.31c-1.39-1.27-2.71-2.48-3.82-3.5c-0.68-3.29,0.11-6,1.48-8.37
		c6.81-11.84,14.24-23.22,25.12-31.86C964.34,204.15,964.75,204.12,965.66,203.82z"/>
	<path d="M784.83,353.52c-0.7,1.56-1.05,3-1.88,4.07c-5.07,6.54-10.25,12.99-15.38,19.48c-1.98,2.49-3.12,5.34-3.99,8.41
		c-1.66,5.85-3.09,7.28-9.06,10.19c-0.32-0.16-0.69-0.28-0.94-0.51c-0.26-0.24-0.4-0.6-0.62-0.96c0-0.49-0.15-1.08,0.02-1.56
		c4.98-14.12,12.81-26.45,23.42-37C778.45,353.58,780.55,351.23,784.83,353.52z"/>
	<path d="M697.87,583.77c1.36-0.42,2.7-1.08,4.1-1.23c23.38-2.4,46.74-5.01,71.14-4.61c-0.93,1.27-1.24,2.16-1.83,2.43
		c-5.47,2.51-11.43,2.78-17.26,3.18c-15.41,1.05-30.85,1.73-46.28,2.6c-3.33,0.19-6.51-0.33-9.65-1.21
		C698.01,584.55,697.94,584.16,697.87,583.77z"/>
	<path d="M1491.66,1448.05c0.15-1.87,0-2.66,0.29-3.19c5.39-9.83,11.02-19.49,19.68-26.94c1.8-1.55,3.49-3.31,6.58-2.89
		c0.58,0.77,1.31,1.74,2.08,2.75c-0.65,1.71-1.22,3.23-1.82,4.81c-6.64,3.61-11.33,9.19-15.84,15.03c-2.33,3.03-5.1,5.73-7.74,8.5
		C1494.32,1446.72,1493.42,1447.01,1491.66,1448.05z"/>
	<path d="M713.71,116.01c2.22-1.34,3.7-1.17,5.12,0.42c1.14,2.87,0.42,5.77-1.24,8.23c-5.12,7.57-8.99,16.03-15.94,22.3
		c-1.27,1.15-2.23,2.64-3.75,3.7C700.7,137.71,709.2,127.49,713.71,116.01z"/>
	<path d="M623.33,253.43c-1.47,3.11-2.7,5.7-3.92,8.28c0.12,0.06,0.25,0.13,0.37,0.19c-2.98,3.97-5.86,8-8.95,11.88
		c-2.95,3.7-4.07,8.6-7.79,12.19c-1.48-0.63-2.72-1.17-3.85-1.65C600.3,274.85,615.72,255.06,623.33,253.43z"/>
	<path d="M808.74,314.6c-0.47-0.75-0.75-1.2-1.01-1.61c0.05-0.44-0.04-0.89,0.15-1.14c4.54-5.97,9.09-11.93,13.7-17.84
		c0.78-0.99,1.79-1.86,2.84-2.56c2.97-1.99,4.83-1.22,6.48,2.54C823.59,305.89,818.46,310.71,808.74,314.6z"/>
	<path d="M570.85,808.17c-1.38,1-2.01,1.81-2.78,1.97c-7.33,1.49-14.66,2.97-22.03,4.23c-1.66,0.28-3.46-0.28-5.37-0.48
		c-0.18-1.53-0.3-2.56-0.41-3.49c2.35-2.52,4.95-3.91,8.23-4.29c4.34-0.5,8.64-1.45,12.98-1.96
		C564.94,803.75,567.79,805.21,570.85,808.17z"/>
	<path d="M602.55,818.63c2.59-2.91,5.48-4.39,9.65-3.33c4.26,1.09,8.67,1.63,13.02,2.34c2.07,0.33,4.01,0.74,4.96,3.4
		c-0.42,0.86-0.96,1.96-1.42,2.9C615.29,826.39,606.37,824.6,602.55,818.63z"/>
	<path d="M1286.8,500.76c0.61,0.84,0.92,1.27,1.31,1.81c-0.79,2.25-2.72,3.48-4.55,4.58c-6.63,3.96-13.35,7.79-20.07,11.59
		c-2.07,1.17-4.29,1.86-6.87,1.01c-0.02-2.86,1.3-4.72,3.2-5.77C1268.48,509.19,1276.71,503.51,1286.8,500.76z"/>
	<path d="M1366.47,1078.74c-0.61,0.95-1.17,1.84-1.77,2.77c-2.18,0-4.18,0.11-6.17-0.02c-5.3-0.35-10.59-0.82-15.89-1.19
		c-3.56-0.25-6.71-1.35-9.6-4.21c0.92-0.64,1.55-1.42,2.28-1.54c9.75-1.52,19.36-0.55,28.87,1.84c0.51,0.13,0.98,0.49,1.4,0.84
		C1365.86,1077.44,1365.97,1077.83,1366.47,1078.74z"/>
	<path d="M1038.17,1254.33c-0.79,0.68-1.05,1.1-1.34,1.12c-7.46,0.57-14.92,1.24-22.36-0.33c-2.5-0.53-4.38-1.6-5.35-4.44
		c0.79-0.56,1.44-1.42,2.17-1.49c3.62-0.34,7.3-0.91,10.88-0.56c5.07,0.49,10.12,1.52,14.76,3.82
		C1037.47,1252.7,1037.7,1253.57,1038.17,1254.33z"/>
	<path d="M1283.37,457.39c2.32,2.31,2.32,4.46,0.74,6.28c-4.82,5.54-9.99,10.71-17.09,13.36c-1.76,0.66-1.79,0.57-4.35-1.28
		c1.09-2.93,2.8-5.47,5.32-7.41c4.2-3.22,8.43-6.41,12.68-9.57C1281.37,458.25,1282.24,457.96,1283.37,457.39z"/>
	<path d="M963.04,1245.49c-1.39,2.19-3.4,2.83-5.34,2.82c-6.4-0.03-12.8-0.26-19.19-0.6c-1.71-0.09-3-1.24-3.4-3.29
		c2.43-2.35,5.58-2.63,8.6-2.74C950.23,1241.44,956.89,1240.82,963.04,1245.49z"/>
	<path d="M1031.38,945.14c1.73-1.61,3.54-1.94,5.32-1.74c8.11,0.92,16.51-0.4,24.76,3.02c-0.51,1.57-0.93,2.86-1.32,4.05
		c-0.88,0.19-1.42,0.43-1.94,0.39c-5.68-0.42-11.35-0.87-17.03-1.36C1037.53,949.19,1034.01,948.52,1031.38,945.14z"/>
	<path d="M540.3,332.23c-0.3,3.29-2.42,4.36-3.94,5.25c-4.92,2.87-10.04,5.45-15.26,7.73c-3.01,1.32-6.11,0.93-8.18-2.16
		c0.59-2.46,2.08-3.73,4.35-3.68c2.74,0.05,4.89-1.32,7.26-2.34c4.04-1.75,8.17-3.27,12.32-4.75
		C537.78,331.95,538.9,332.23,540.3,332.23z"/>
	<path d="M1453.59,1347.42c-2.96,0.64-4.41-0.74-5.28-2.56c-0.85-1.78-1.48-3.76-1.75-5.71c-0.83-5.95,2.68-13.32,7.82-16.48
		c1.83,2.13,1.95,4.54,1.18,7.07c-0.37,1.21-0.85,2.44-1.54,3.49c-1.96,2.99-2.08,6.12-1.22,9.46
		C1453.17,1344.19,1453.32,1345.75,1453.59,1347.42z"/>
	<path d="M1380.46,1197.25c-4.33,0.94-7.95,0.59-11.46,0.19c-4.18-0.48-8.32-1.41-12.42-2.37c-3.22-0.76-6.24-2.06-8.68-5.33
		c1.22-0.42,2.21-1.15,3-0.97c9.13,2.04,18.23,4.2,27.32,6.42C1378.88,1195.35,1379.37,1196.22,1380.46,1197.25z"/>
	<path d="M924.87,610.08c-0.51,0.13-0.7,0.25-0.86,0.21c-3.07-0.78-6.22-1.71-7.07-5.21c-0.92-3.79,1.77-6.15,4.27-8.29
		c1.88-1.62,4.07-2.88,6.62-4.66c0.77,3.64-0.3,6.49-0.82,9.33C926.49,604.29,925.64,607.06,924.87,610.08z"/>
	<path d="M1041.51,1122.58c6.04-0.41,11.6-1.09,17.37,1.24c0.11,1.37,0.21,2.75,0.3,3.89c-4.34,3.56-5.94,3.64-14.2,0.84
		C1043.7,1127.13,1041.88,1125.82,1041.51,1122.58z"/>
	<path d="M1111.09,963.11c-1.29,0.58-2.43,1.1-3.63,1.64c0.1,1.72,0.2,3.35,0.32,5.34c-1.09,0.75-2.23,1.53-3.31,2.27
		c-3.19-1.42-5.84-2.86-7.07-6.29c2.24-1.57,4.76-1.14,7.33-1.98c0.78-1.19,1.74-2.63,2.97-4.49c-2.32,0.33-4.15,0.59-6.02,0.86
		c-0.58-0.93-1.04-1.67-1.57-2.5c2.57-2.3,5.4-1.47,7.86-1.74C1110.94,957.56,1111.83,959.69,1111.09,963.11z"/>
	<path d="M808.14,1153.42c-2.62,1.5-4.79,2.74-6.96,3.98c-3.47,0.11-6.95,0.87-10.44-1.1c-0.1-1-0.21-2.04-0.3-2.94
		C796.51,1148.38,802.89,1148.27,808.14,1153.42z"/>
	<path d="M455.22,1336.74c-0.68,0.75-1.25,1.99-2.06,2.17c-3.53,0.79-7.12,1.4-10.72,1.83c-2.06,0.25-3.97-0.31-4.95-2.98
		c2.95-2.8,6.43-4.33,10.55-4.26C450.7,1333.56,453.58,1333.4,455.22,1336.74z"/>
	<path d="M1157.52,1729.08c3.87-3.73,8.68-4.36,13-6.38c0.77,0.68,1.42,1.25,2.05,1.81c-0.13,4.18-2.51,6.53-6,7.66
		C1163.32,1733.23,1160.12,1733.07,1157.52,1729.08z"/>
	<path d="M573.97,308.16c0.39,1.96,0.65,3.32,0.88,4.5c-2.73,3.91-5.56,7.23-9.52,9.56c-0.93-0.14-1.85-0.17-2.69-0.44
		c-0.64-0.21-1.17-0.73-1.55-0.98C560.66,318.81,568.01,311.67,573.97,308.16z"/>
	<path d="M643.12,1645.31c1.53-4.12,5.07-5.01,8.11-6.42c1.81-0.84,1.93-0.62,5.68,1.35c0.12,3.82-3.16,5.01-5.68,6.23
		C648.77,1647.65,645.71,1648.44,643.12,1645.31z"/>
	<path d="M1366.78,1330.79c-0.74-1.02-1.39-1.9-2.02-2.8c-0.51-0.74-0.99-1.5-1.68-2.57c0.5-1.19,1.03-2.43,1.67-3.95
		c3.79,0.81,7.25,1.54,10.54,2.25c0.59,2.75-0.36,4.41-1.92,6.26C1371.62,1330.2,1369.67,1330.44,1366.78,1330.79z"/>
	<path d="M1316.54,486.07c2.44,3.36,1.07,6.01-0.57,8.72c-2.16,3.58-5.43,4.28-9.28,4.17
		C1307.48,494.12,1311.52,488.8,1316.54,486.07z"/>
	<path d="M1185.65,1710.97c-0.13,1.16-0.27,2.39-0.47,4.09c-1.68,0.24-3.26,0.62-4.85,0.66c-5.96,0.12-6.22,0.01-9.32-2.61
		c2.13-3.02,5.57-3.03,8.62-3.91C1181.77,1708.58,1183.61,1708.59,1185.65,1710.97z"/>
	<path d="M1315.78,434.11c2.81,3.66,2.93,4.36,1.35,6.97c-2.25,3.7-5.48,5.55-10.37,5.33
		C1307.17,440.12,1312.15,437.99,1315.78,434.11z"/>
	<path d="M737.35,1645.56c0.05,5.18,0.05,5.18-6.13,7.45c-2.53-0.96-6,0.28-8.32-2.75c0.26-0.69,0.5-1.34,0.83-2.21
		C728.24,1647.61,732.33,1645.21,737.35,1645.56z"/>
	<path d="M695.54,1666.69c2.64-3.27,5.42-6.36,10.09-6.8c1.86,2.68,0.83,4.91,0.25,7.1c-1.9,1.69-3.86,2.98-6.43,2.73
		C697.98,1669.57,696.53,1669.28,695.54,1666.69z"/>
	<path d="M421.1,822.37c2.46-4.43,2.84-4.77,7.73-6.96c1.14,0.96,2.47,2.08,3.48,2.93c0.34,3.19-1.92,4.31-2.93,5.98
		C426.07,825.91,423.57,824.95,421.1,822.37z"/>
	<path d="M1153.09,1706.09c-6.32,2.29-8.22,2.05-11.7-1.33c1.97-2.95,4.67-4.12,10.82-4.68
		C1154.03,1702.58,1154.03,1702.58,1153.09,1706.09z"/>
	<path d="M878.85,1166.28c-4.57,1.87-7.99,2.14-11.8,0.56c-0.22-1.09-0.45-2.24-0.71-3.57c1.2-0.56,2.11-1.21,3.11-1.42
		c3.02-0.64,5.96-2.58,10.2-0.73c-2.08,0.69-3.33,1.1-4.53,1.49C874.49,1165.06,876.87,1164.94,878.85,1166.28z"/>
	<path d="M396.4,815.66c-1.26-0.89-2.68-1.9-4.21-2.98c1.33-3.29,3.7-4.86,6.61-6.7c1.35,0.75,2.85,1.57,4.43,2.44
		C402.26,812.3,400.33,814.63,396.4,815.66z"/>
	<path d="M738.81,812.55c-2.22,1.84-4.68,1.41-7.12,0.48c-1.48-0.57-2.35-1.66-1.99-3.73c1.44-1.68,3.63-2.41,5.82-3.02
		C739.22,808.16,739.22,808.16,738.81,812.55z"/>
	<path d="M1428.92,1785.16c2.06,2.16,1.58,4.01-0.24,5.74c-6.63,1.07-7.36,0.77-9.04-3.88
		C1422.54,1785.26,1425.36,1783.3,1428.92,1785.16z"/>
	<path d="M1505.28,1803.87c3.14-2.61,6.76-1.45,10.08-1.34c2.18,2.06,1.18,3.7-0.23,5.37c-2.67,0.89-5.32,0.9-7.94-0.19
		C1506.45,1807.41,1506.06,1806.55,1505.28,1803.87z"/>
	<path d="M788.16,815.54c3.05,1.84,3.75,3.73,3.07,6.35c-2.57,2.73-5.39,0.26-8.33,0.41c-0.56-1.19-1.06-2.26-1.77-3.76
		C783.75,817.42,786.03,816.45,788.16,815.54z"/>
	<path d="M1435.3,1744.99c3.67-1.51,7.13-1.73,11.26-0.94c-0.23,1.82-0.42,3.29-0.59,4.7c-3.13,1.07-5.81,1-8.39,0.05
		C1436.23,1748.31,1435.12,1747.25,1435.3,1744.99z"/>
	<path d="M1219.52,1168.45c1.5,2.63,0.87,4.03-0.73,5.82c-1.76-0.19-3.86-0.41-6.17-0.66c-0.79-1.58-1.49-2.97-2.13-4.24
		c0.56-0.54,0.82-0.99,1.07-0.99C1214.26,1168.36,1216.96,1168.42,1219.52,1168.45z"/>
	<path d="M699.77,810.61c-2.4,2.23-4.94,2.95-8.29,2.85c-0.61-0.95-1.32-2.08-2.12-3.32c2.55-2.01,4.71-3.66,8.25-2.84
		C698.21,808.21,698.96,809.37,699.77,810.61z"/>
	<path d="M1092.46,955.69c-4.28-0.67-6.99-2.62-8.55-6.72c2.25-0.37,4.18-0.69,5.92-0.97
		C1093.86,951.2,1093.86,951.2,1092.46,955.69z"/>
	<path d="M802.37,792.26c1.29-2.25,3.7-2.12,5.43-3.06c2.86,1.18,3.95,3.01,3.52,5.78c-1.1,1.6-2.55,1.81-4.28,1.11
		C805.07,795.31,802.6,795.17,802.37,792.26z"/>
	<path d="M476.07,612.7c0.18-1.14,0.29-1.82,0.4-2.49c2.36-1.37,4.65-2.13,7.52-1.07c0.17,0.77,0.35,1.58,0.53,2.41
		C481.98,613.92,479.39,614.24,476.07,612.7z"/>
	<path d="M1194.94,1149.04c2.42-1.97,4.42-0.68,6.85-0.08c0,1.49,0,2.99,0,4.25C1199.56,1154.84,1197.09,1153.27,1194.94,1149.04z"
		/>
	<path d="M1192.37,688.65c-2.4,1.51-5,2.79-8.84,2.29c1.67-2.96,3.21-5.02,6.46-4.89C1191.4,686.1,1192.55,686.53,1192.37,688.65z"
		/>
	<path d="M471.29,1363.84c2.94-2.07,5.2-4.05,8.93-1.72c-0.78,1.26-1.45,2.35-2.1,3.39
		C475.64,1365.44,473.58,1365.46,471.29,1363.84z"/>
	<path d="M939.08,973.97c-0.37,2.22-0.54,3.25-0.71,4.27c-0.32-0.29-0.64-0.58-0.95-0.88c-1.33,1.9-2.65,3.8-4.09,5.86
		c-0.62-0.27-1.21-0.53-2.24-0.97C933.43,979.42,935.16,976.58,939.08,973.97z"/>
</g>
</svg>
