<?xml version="1.0" encoding="utf-8"?>
<!-- Generator: Adobe Illustrator 27.4.0, SVG Export Plug-In . SVG Version: 6.00 Build 0)  -->
<svg version="1.1" id="Calque_1" xmlns="http://www.w3.org/2000/svg" xmlns:xlink="http://www.w3.org/1999/xlink" x="0px" y="0px"
	 viewBox="0 0 2000 2000" style="enable-background:new 0 0 2000 2000;" xml:space="preserve">
<g>
	<path d="M1888.66,682.04c1.78,4.01,1.2,7.95-0.69,11.77c-5.79,11.72-11.78,23.36-20.18,33.48c-9.55,11.51-19.64,22.59-29,34.26
		c-13.09,16.34-25.72,33.04-38.52,49.61c-0.61,0.79-1,1.77-1.91,3.41c5.01-0.96,9.19-2,13.43-2.52c10.4-1.26,20.09-0.02,27.15,8.27
		c1.7,4.65,1.05,8.59-1.06,12.28c-5.77,10.08-9.48,21.39-19.34,30.81c2.95-0.34,4.36-0.3,5.65-0.68c6.59-1.9,13.3-3.19,20.14-2.66
		c9.73,0.75,18.72,3.36,24.48,11.58c1.49,6.92,0.59,12.87-2.32,18.75c-3.87,7.84-8.54,15.12-14.08,21.85
		c-8.12,9.85-16.33,19.62-24.42,29.49c-11.2,13.67-22.04,27.65-33.61,41c-6.02,6.95-13,13.15-20.02,19.14
		c-7.3,6.23-16.12,8.89-25.76,8.52c-9.36-0.36-13.91-4.64-14.63-14.05c-0.46-6.02,0.05-12.03,2.59-17.58
		c4.07-8.9,8.41-17.69,12.6-26.53c0.88-1.86,1.65-3.79,1.51-6.34c-1.23,1.18-2.54,2.29-3.68,3.56
		c-8.41,9.37-17.64,17.72-28.57,24.12c-5.66,3.31-11.5,4.45-18.01,3.3c-12.81-2.27-19.63-13.31-14.71-25.44
		c2.94-7.25,6.75-14.3,11.15-20.78c8.54-12.58,17.78-24.69,27.01-37.38c6.41-1.93,7.36-1.59,11.07,4.47
		c-9.33,12.58-18.91,25.01-27.92,37.85c-4.03,5.74-7.34,12.09-10.17,18.52c-2.1,4.79-2.2,10.07,1.34,14.64
		c4.57,2.35,8.51,0.83,12.41-1.45c10.23-6.01,18.68-14.05,26.28-23.03c7.22-8.54,14.83-16.64,23.66-23.59
		c4.04-3.18,7.59-6.99,11.79-10.91c3.94-1.24,7.43-0.2,9.78,4.39c-0.27,0.92-0.34,2.1-0.89,2.96
		c-12.57,19.49-22.68,40.28-32.39,61.26c-2.14,4.64-3.4,9.76-4.49,14.78c-0.6,2.75,0,5.76,0.05,8.29c4.89,2.67,8.95,1.62,12.38-0.6
		c6.14-3.97,12.26-8.11,17.74-12.91c11.12-9.74,19.49-21.95,28.7-33.4c14.66-18.23,29.58-36.25,43.89-54.75
		c5.92-7.65,11.56-15.88,11.25-26.24c-1.92-3.54-5.21-4.23-8.44-4.48c-3.5-0.26-7.14-0.4-10.55,0.29
		c-15.59,3.14-30.68,7.53-42.43,19.24c-0.93,0.93-2.22,1.49-3.3,2.2c-5.16-0.28-8.39-2.46-9.24-8.19
		c18.63-16.81,35.7-35.17,44.33-60.53c-11.6-2.01-21.66,1.29-31.63,4.56c-10.06,3.3-17.59,10.64-25.98,17.43
		c-2.35-0.97-4.79-1.98-7.29-3.02c-0.83-2.12-1.6-4.09-2.48-6.35c3.01-2.35,5.95-4.28,8.46-6.66
		c10.89-10.34,20.41-21.85,28.77-34.33c2.42-3.61,4.95-7.17,7.7-10.54c12.88-15.81,25.4-31.95,38.93-47.19
		c12.37-13.93,23.13-28.81,31.86-45.2c0.86-1.61,1.35-3.4,2.35-5.98c-2.57,0.18-4.4,0.04-6.08,0.47
		c-14.27,3.64-26.85,10.71-37.73,20.39c-11.99,10.66-23.82,21.58-34.79,33.26c-15.85,16.88-31.82,33.57-49.27,48.83
		c-10.05,8.78-19.78,17.91-27.68,28.78c-0.96,1.33-1.72,2.8-2.21,3.59c-7.11-2.37-7.11-2.37-10.29-7.41
		c7.33-10.23,14.63-20.36,21.88-30.53c15.95-22.37,30.34-45.7,43.28-69.95c7.42-13.9,15.73-27.31,23.44-41.05
		c7.34-13.09,13-26.91,17.22-41.32c0.35-1.2,0.49-2.47,0.92-4.69c-2.38,0.85-3.9,1.17-5.18,1.89c-10.82,6.06-20.03,14.2-28.07,23.46
		c-21.42,24.67-41.44,50.46-59.87,77.44c-15.19,22.24-30.07,44.71-44.96,67.16c-3.76,5.66-7,11.66-10.53,17.47
		c-1.11,1.83-2.38,3.57-3.52,5.26c-5.1,0.81-7.93-1.93-10.81-5.69c8.39-13.29,16.52-26.81,25.28-39.9
		c14.23-21.25,28.58-42.42,43.42-63.24c16.57-23.26,33.77-46.08,53.36-66.93c9.29-9.88,18.89-19.55,31.21-25.81
		c4.1-2.09,8.18-4.45,14.15-3.69c2.08,1.47,4.9,3.47,7.96,5.64c-1.25,8.75-3.81,16.74-6.41,24.73
		c-6.63,20.32-17.05,38.85-27.45,57.34c-10.13,18.02-20.74,35.78-31.13,53.66c-1.07,1.84-2.06,3.72-2.42,6.37
		c1.57-1.18,3.35-2.17,4.68-3.58c9.93-10.46,19.76-21.01,29.64-31.51c2.42-2.57,4.79-5.21,7.39-7.6
		c8.2-7.53,16.23-15.27,24.82-22.33c10.75-8.85,22.46-16.22,36.26-19.6C1876.61,673.05,1880.57,674.13,1888.66,682.04z"/>
	<path d="M1376.87,656.34c-4.61-5.51-4.61-11.19-2.8-17.27c2.1-7.03,4.19-14.08,5.88-21.21c4.24-17.89,5.61-36.18,3.84-54.35
		c-2.88-29.55-14.68-55.14-38.64-73.71c-11.61-9-24.37-16.55-38.58-20.85c-25.16-7.61-50.84-11.96-77.26-10.04
		c-17.51,1.27-34.26,6.03-50.67,12c-10.75,3.91-21.15,8.57-31.17,14.18c-21.64,12.1-38.26,29.49-52.75,49.15
		c-9.23,12.52-17.11,25.88-23.6,40.03c-6.23,13.58-9.88,27.65-7.49,43.1c-1.03,0.97-2.14,2.01-3.32,3.13
		c-4.86-2.92-6.06-7.13-6.21-11.98c-0.28-8.82,1.97-17.26,3.79-25.76c1.77-8.3,4.68-16.03,10.05-22.82
		c2.84-3.58,4.98-7.73,7.25-11.73c6.29-11.06,13.3-21.57,22.07-30.88c1.42-1.5,1.97-3.82,2.21-4.3c7.63-7.06,13.92-13.3,20.67-19
		c4.73-3.99,10.01-7.34,15.16-10.81c5.52-3.71,11.18-7.21,16.92-10.43c3.42-1.51,6.78-3.17,10.27-4.5c7.6-2.9,15.12-6.18,22.94-8.32
		c12.26-3.36,24.69-6.21,37.16-8.7c9.02-1.8,18.25-1.99,27.46-1.42c16.92,1.05,33.2,4.97,49.53,9.43
		c16.55,4.52,31.62,11.8,45.52,21.32c11.45,7.84,21.17,17.82,27.74,30.42c2.26,4.33,4.88,8.48,7.39,12.67
		c6.99,11.67,9.5,24.77,11.63,37.89c3.34,20.63,2.23,41.22-1.72,61.7c-0.3,1.54-0.45,3.1-0.76,5.25c6.75-2.85,11.4-7.52,16.18-11.74
		c5.03-4.43,9.74-9.23,15.51-12.67c7.18-4.28,14.03-9.16,21.97-12.11c3.75-1.39,7.54-2.93,10.9-5.06
		c7.97-5.04,17.37-5.95,25.92-9.37c10.59-4.24,22.12-5.48,33.47-6.39c10.55-0.84,21.17-0.75,31.76-0.88
		c2.97-0.04,5.95,0.55,8.91,0.96c5.09,0.71,10.19,1.41,15.25,2.28c10.13,1.74,18.84,6.65,27.34,12.15
		c15.14,9.8,25.22,23.84,32.89,39.67c5.44,11.24,10.54,22.74,14.61,34.53c5.86,16.97,9.71,34.54,9.32,52.62
		c-0.37,17.04-4.53,33.18-12.57,48.43c-8.42,15.97-18.44,30.8-29.77,44.76c-15.33,18.89-32.92,35.45-52.46,49.95
		c-26.68,19.8-54.23,38.26-83.26,54.5c-14.48,8.1-28.68,16.71-43.07,24.98c-4.2,2.41-8.64,4.43-13.71,7.01
		c1.14,1.06,1.76,1.83,2.56,2.33c18.01,11.39,25.42,28.03,25.3,48.96c-0.13,22.03-8.52,40.13-24.3,55.09
		c-5.33,5.06-10.73,10.04-16.21,14.93c-1.13,1.01-2.76,1.47-4.15,2.17c-4.16-2.15-6.91-4.8-6.64-10.42
		c3.71-3.17,7.89-6.59,11.9-10.19c9.98-8.96,19.4-18.51,24.25-31.31c6.39-16.87,7.95-33.79-1.34-50.42
		c-4.54-8.13-11.61-11.88-20.48-12.82c-3.77-0.4-7.57-0.46-11.97-0.7c-1.35-2.75-2.74-5.58-4.26-8.66c1.36-1.27,2.16-2.54,3.27-2.97
		c13-4.9,25.32-11.08,37.25-18.24c16.77-10.06,34.06-19.27,50.89-29.23c22.72-13.45,44.44-28.44,65.59-44.2
		c21.45-15.98,41.12-34.01,57.41-55.33c14.24-18.65,27.03-38.2,33.43-61.24c3.26-11.75,4.06-23.58,2.54-35.57
		c-3.37-26.55-12.24-51.25-25.75-74.28c-8.62-14.69-20.1-26.5-36.3-32.73c-11.75-4.52-24.09-7.13-36.68-7.38
		c-42.17-0.85-81.53,8.99-116.85,32.6c-15.89,10.62-30.05,23.36-42.14,38.26C1382.74,654.68,1382.76,654.69,1376.87,656.34z"/>
	<path d="M241.06,1172.75c-12.72,6.7-25.38,13.53-38.18,20.08c-20.82,10.67-41.72,21.16-62.59,31.73
		c-4.86,2.46-9.83,3.18-14.94,0.91c-12.15-5.41-15.87-14.48-10.05-28.22c1.87-4.41,4.93-8.54,8.23-12.07
		c18.54-19.88,39.61-36.34,64.89-46.99c10.03-4.23,20.16-8.27,29.9-13.11c6.71-3.33,13.49-6.79,20.2-11.63
		c-3.68-2.32-6.6-4.21-9.57-6.02c-16.25-9.91-32.6-19.69-48.76-29.76c-10.87-6.78-21.43-14.19-30.05-23.69
		c-11.81-13-15.82-28.12-9.68-45.23c10.56-0.87,19.26,3.39,27.47,8.8c12.73,8.38,25.21,17.14,37.96,25.48
		c7.73,5.06,15.55,10.07,23.73,14.34c15.48,8.08,30.45,16.9,44.29,27.58c1.7,1.31,3.61,2.34,5.91,3.81c0.91-1.96,1.69-3.57,2.42-5.2
		c5.05-11.32,12.04-21.22,21.19-29.63c9.25-8.5,17.69-8.19,28.53,0.06c2.13,1.62,3.78,3.88,5.97,6.19c1.65-0.45,3.4-1.01,5.18-1.42
		c6.88-1.59,13.77-3.15,20.67-4.69c4.42-0.99,8.43,0.41,11.06,3.72c5.9,7.44,11.6,15.09,16.84,23c6.65,10.02,8.88,21.65,9.8,33.34
		c0.74,9.33,3.36,18.12,5.55,27.07c1.09,4.48,2.35,8.93,3.33,13.44c1.71,7.82-0.58,14.53-6.17,20.12
		c-4.51,4.51-9.81,7.79-16.11,9.07c-4.65,0.95-9.18,0.39-13.47-1.9c-5.41-2.88-12.1-11.03-14.51-18.11
		c3.46-1.84,6.25-0.49,8.67,1.91c2.69,2.67,5.2,5.54,7.55,8.06c6.36,0.81,6.36,0.81,14.24-2.27c2.29-2.75,4.9-5.87,7.12-8.54
		c2.06-7.15,1.1-13.5-0.94-19.85c-3.26-10.12-4.96-20.55-6.33-31.09c-0.98-7.51-2.36-15.09-4.66-22.29
		c-3.13-9.78-9.73-17.5-17.64-24.86c-7.43,0.72-15.27,0.78-21.75,7.24c1.39,2.98,2.87,5.56,3.82,8.33
		c1.93,5.62,3.85,11.28,5.24,17.05c1.27,5.28,1.87,10.72,2.73,16.09c1.05,6.6,0.35,13.02-2.14,19.23
		c-2.12,5.3-3.93,10.77-6.55,15.82c-5.14,9.91-14.13,13.47-24.72,9.83c-4.84-1.66-9.37-4.21-13.19-5.96
		c-5.64-9.64-17.26-35.16-18.02-39.49c3.21-1.62,6.13-1.29,9.56,1.86c4.25,9.3,8.89,19.41,13.5,29.54
		c3.58,7.88,11.55,9.51,17.83,3.6c0.79-0.74,1.59-1.54,2.15-2.44c5.53-8.86,10.38-18.19,10.51-28.79
		c0.21-17.15-3.24-33.56-12.89-48.17c-1.49-2.26-3.19-4.42-5.05-6.39c-4.85-5.15-9.46-5.69-15.17-1.63
		c-10.02,7.14-17.11,16.62-21.84,27.93c-1.02,2.44-2.11,4.85-2.95,6.77c-4.21-0.4-7.54-0.71-12.72-1.2
		c-0.49-0.32-2.63-1.5-4.53-2.99c-12.03-9.46-24.92-17.68-38.67-24.26c-14.35-6.86-27.24-15.85-40.33-24.68
		c-11.27-7.6-22.88-14.69-34.5-21.76c-2.65-1.61-5.58-3.6-9.7-2.24c-1.49,11.88-0.71,23.47,8.77,32.16
		c8.19,7.52,16.84,14.77,26.19,20.73c18.8,12.01,38.18,23.1,57.37,34.47c4.4,2.6,9.04,4.8,12.94,6.86c1.31,3.8-0.1,5.6-2.43,6.94
		c-11.09,6.34-22.1,12.75-33.95,17.74c-17.78,7.5-35.82,14.57-51.76,25.84c-12.96,9.17-24.69,19.67-34.82,31.88
		c-2.4,2.89-4.45,6.26-5.88,9.73c-1.91,4.63-2.37,9.46,2.09,13.49c5.48-0.6,9.8-3.62,14.35-5.91c13.86-6.96,27.66-14.02,41.41-21.21
		c9.4-4.92,18.62-10.17,28-15.14c5.28-2.8,10.58-5.65,16.11-7.89c8.65-3.51,16.76-7.76,23.35-14.1c5.92,0.18,5.92,0.18,11.2,3.89
		c-0.47,1.74-0.75,3.86-1.6,5.71c-4.63,10.14-9.26,20.29-14.16,30.3c-6.36,13-11.34,26.49-15.03,40.47
		c-4.3,16.3-8.74,32.57-12.76,48.94c-1.09,4.42-0.99,9.17-1.15,13.77c-0.05,1.48,0.81,3,1.48,5.24c2.09-0.97,4.02-1.36,5.19-2.51
		c3.1-3.04,5.9-6.4,8.77-9.66c10.47-11.9,18.71-25.33,26.46-39.05c7.89-13.98,15.42-28.16,23-42.31
		c4.62-8.62,9.09-17.33,13.49-26.06c1.33-2.64,2.23-5.51,3.29-8.19c6.22-2.16,6.22-2.16,12.86,2.37c-0.14,1.07,0.03,2.53-0.54,3.61
		c-5.27,10.09-10.63,20.14-16.04,30.16c-5.43,10.06-10.92,20.08-16.43,30.09c-11.17,20.3-23.31,39.97-38.22,57.78
		c-2.77,3.31-5.95,6.42-9.41,9c-10.74,8-23.7,2.75-25.93-10.47c-0.53-3.16-0.45-6.56,0.07-9.73c1.15-6.97,2.42-13.96,4.25-20.78
		c3.81-14.19,8.14-28.23,12-42.4c3.6-13.21,9.03-25.64,15.23-37.78c2.04-3.98,3.88-8.07,5.81-12.11
		C241.91,1173.63,241.48,1173.19,241.06,1172.75z"/>
	<path d="M697.42,1274.6c-0.17-2.36,0-3.5-0.37-4.41c-5.16-12.83-0.39-23.56,7.57-33.19c8.14-9.87,18.61-16.38,30.96-20.29
		c26-8.23,51.58-6.88,76.75,2.74c11.67,4.46,22.9,10.06,34.27,15.28c1.82,0.84,3.31,2.38,6.35,4.62c-3.21,0.29-4.82,0.9-6.05,0.46
		c-5.38-1.9-10.75-3.87-15.93-6.24c-15.44-7.08-31.32-12.35-48.34-14.18c-17.27-1.85-33.85,0.43-49.23,8.25
		c-11.3,5.75-20.69,14.11-25.87,26.18c-4.65,10.83-1.74,20.27,8.02,26.79c2.22,1.48,2.22,1.48,3.83,5.71
		c-0.89,2.55-2.87,3.04-5.23,2.71c-0.8-0.11-1.61-0.35-2.34-0.68c-16.14-7.17-33.37-9.88-50.68-11.96
		c-22.15-2.66-44.32-5.22-66.54-7.1c-18.31-1.55-36.35,1.79-54.25,5.26c-29.02,5.63-56.7,15.51-83.16,28.51
		c-10.69,5.25-20.63,12.1-30.63,18.65c-6.12,4.01-11.76,8.78-17.51,13.34c-16.27,12.9-28.74,28.89-37.86,47.47
		c-6.05,12.33-9.93,25.21-10.5,39.12c-0.71,17.52,0.36,34.77,4.69,51.82c2.92,11.47,7.85,22.06,13.51,32.29
		c8.17,14.77,17.48,28.86,28.43,41.73c4.02,4.72,9.14,8.51,13.84,12.62c16.35,14.27,35.38,22.91,56.41,28.03
		c16.5,4.02,33.19,6.07,50.03,6.4c11.38,0.22,22.82-0.89,34.18-2c26.46-2.6,52.11-8.85,76.3-19.92
		c20.58-9.42,39.76-21.42,57.86-35.06c7.39-5.57,14.81-11.12,21.93-17.01c5.42-4.48,10.41-9.49,15.38-14.53
		c3.66-2.16,7.1-1.72,10.57,2.28c0.67,3.28,1.49,7.26,2.29,11.24c1.11,5.55,3.87,9.86,8.44,13.44c13.15,10.3,27.9,15.08,44.6,15.59
		c22.49,0.7,43.67-4.51,64.59-11.9c11.81-4.17,18.45-11.93,19.16-24.6c0.22-3.99,0.83-7.96,1.24-11.71c8-1.39,8-1.39,12.42,2.82
		c-1.07,3.1-2.38,6.33-3.29,9.66c-0.93,3.4-1.45,6.92-2.22,10.37c-1.39,6.22-4.93,11.08-10.54,13.85
		c-8.03,3.97-16.13,8.02-24.61,10.76c-9.54,3.08-19.52,4.86-29.36,6.97c-2.89,0.62-5.96,0.65-8.94,0.59
		c-12.21-0.21-24.43,1.23-36.65-1.21c-7.61-1.52-14.74-3.96-21.35-7.77c-5.4-3.11-10.63-6.64-15.47-10.57
		c-2.64-2.14-4.46-5.36-6.35-8.3c-1.41-2.2-2.33-4.71-3.75-7.7c-5.84,4.51-11.14,8.66-16.5,12.75
		c-8.86,6.76-17.65,13.63-26.69,20.15c-4.62,3.33-9.62,6.17-14.61,8.95c-9.25,5.15-18.59,10.14-27.93,15.11
		c-22.12,11.78-46.17,17.78-70.58,21.84c-27.18,4.52-54.62,5.72-82.07,1.13c-20.24-3.39-39.91-8.75-58.2-18.06
		c-19.2-9.76-34.98-23.83-47.81-41.17c-10.23-13.83-19.09-28.49-26.64-43.92c-10.25-20.95-14.29-43.28-14.23-66.47
		c0.03-12.56,0.79-24.97,5.21-36.95c5.11-13.86,11.27-27.06,21.09-38.31c1.77-2.02,2.71-4.78,4.53-6.75
		c5.14-5.58,10.34-11.13,15.88-16.31c11.95-11.17,26.05-19.47,39.52-28.56c7.15-4.83,15.2-8.52,23.18-11.91
		c14-5.94,28.1-11.71,42.46-16.7c14.11-4.9,28.78-7.84,43.51-10.5c20.25-3.65,40.49-4.46,60.92-2.09
		c21.61,2.51,43.26,4.74,64.87,7.32c6.2,0.74,12.31,2.27,18.46,3.43C691.02,1273.37,693.65,1273.87,697.42,1274.6z"/>
	<path d="M993.27,912.8c4.3,2.83,7.73,5,11.07,7.3c5.02,3.47,6.92,8.58,5.95,14.28c-3.27,19.34-13.4,39.2-36.12,46.38
		c-1.29,0.41-2.62,0.76-3.96,0.92c-1.32,0.16-2.67,0.03-4.42,0.03c-1.91-2.97-3.76-5.83-6.17-9.58c2.93-1.03,4.83-1.8,6.78-2.35
		c18.02-5.05,30.63-19.33,32.75-42.09c-1.06-2.18-2.96-2.92-5.26-3.21c-9.24-1.16-17.88,0.52-25.87,5.35
		c-6.05,3.66-12.08,7.34-17.95,10.9c-5.95-1.24-7.87-4.93-8.03-10.96c5.23-3.21,10.49-7.09,16.28-9.85
		c14.43-6.89,26.84-16.59,38.79-26.93c23.25-20.12,40.62-44.51,52.09-73.07c2.93-7.3,5.75-14.65,8.92-21.84
		c4.55-10.32,6.39-21.37,8.78-32.24c5.09-23.24-1.33-44.1-14.07-63.49c-12.39-18.85-29.45-31.45-50.41-39.71
		c-22.06-8.69-44.8-10.66-68.11-10c-22.72,0.65-44.99,4.13-66.74,10.53c-16.52,4.85-32.21,11.65-46.25,21.93
		c-14.94,10.94-24.93,25.15-28.09,43.44c-1.28,7.41-1.64,15.29-0.59,22.7c1.48,10.43,4.21,20.73,9.35,30.2
		c3.36,6.18,6.22,12.63,9.34,18.93c0.84,1.7,1.75,3.39,2.78,4.99c12.29,19.05,22.63,38.98,28.66,60.99
		c4.02,14.67,9.1,29.06,11.07,45.18c-1.22,1.15-2.86,2.69-4.2,3.94c-5-1.42-5.54-5.3-7-8.38c-3.62-7.62-7-15.35-10.7-22.92
		c-1.42-2.91-3.24-5.7-5.27-8.23c-5.11-6.37-10.73-7.74-18.1-4.5c-6.9,3.03-12.43,7.74-16.33,14.27c-4.3,7.18-6.51,14.94-6.5,23.3
		c0.01,14,2.26,27.64,6.66,40.93c1.66,5.01,1.59,5.03,0.72,10.02c-1.74-0.65-3.72-0.87-4.86-1.96c-1.51-1.45-2.7-3.45-3.45-5.43
		c-6.06-15.93-9.49-32.35-8.69-49.5c0.61-13.16,5.93-24.07,15.32-33.22c4.66-4.54,10.35-7.14,16.35-8.81
		c6.67-1.85,12.97,0.17,18.51,4.14c2.62,1.87,4.95,4.15,7.75,6.54c0.28-0.93,0.76-1.63,0.62-2.17c-3.21-12.1-7.01-23.94-12.97-35.07
		c-8.35-15.59-16.36-31.36-24.32-47.16c-6.67-13.23-10.77-27.3-12.76-41.98c-0.25-1.87-0.31-3.79-0.19-5.68
		c0.66-10.36,2.42-20.71,6.4-30.15c3.39-8.03,7.38-16.01,14.16-22.45c4.72-4.48,9.82-8.29,14.87-12.23
		c3.17-2.48,7.55-3.43,10.59-5.6c5.48-3.92,11.71-5.48,17.56-8.19c11.37-5.28,23.61-7.77,35.6-10.97
		c17.38-4.63,35.2-6.38,53.11-6.87c6.75-0.18,13.54,0.67,20.31,1.08c2.99,0.18,5.98,0.67,8.96,0.55
		c12.27-0.49,23.67,2.82,34.74,7.65c5.48,2.39,10.98,4.8,16.27,7.58c16.13,8.47,29.84,19.53,40.03,35.06
		c7.69,11.72,13.64,24.08,17.52,37.43c2.74,9.44,3.53,19.12,2.71,29.07c-1.97,24.01-10.3,46.01-19.73,67.84
		c-8.83,20.43-20.15,39.23-34.94,55.77c-7.23,8.08-15.68,15.06-23.6,22.51C997.27,909.38,995.43,910.91,993.27,912.8z"/>
	<path d="M566.47,730.61c1.73,0.77,2.42,1.25,3.18,1.39c13.08,2.33,22.61,9.48,30.23,20.32c9.73,13.85,16.74,28.52,18.52,45.52
		c1.03,9.87-0.16,19.58-2.02,29.17c-2.53,13.06-5.64,26.01-8.57,39.35c2.8,2.31,6.48,1.78,9.83,2.44
		c12.76,2.54,24.57,6.78,33.65,16.85c4.46,4.94,6.82,10.54,6.7,16.99c-0.12,6.48-0.92,12.94-1.39,19.03
		c-4.44,3.38-8.42,3.78-12.4,1.72c-2.06-2.56-1.07-4.95-0.72-7.34c0.64-4.29,1.48-8.59,1.67-12.91c0.5-11.58-4.53-18.98-15.32-23.17
		c-8.18-3.18-9.34-3.32-22.83-2.67c-1.81,0.95-3.96,2.08-6.28,3.3c-3.87-0.26-7.37-1.26-9.78-5.92c0.82-2.51,1.83-5.55,2.8-8.6
		c6.1-19.2,11.03-38.67,12.34-58.86c0.96-14.79-2.32-28.69-9.6-41.55c-2.94-5.2-6.26-10.22-9.79-15.04
		c-7.43-10.15-14.52-11.83-26.13-6.6c-6.16-1.8-6.16-1.8-9.34-7.61c17.77-48.16,22.8-97.61,14.21-151.41
		c-1.42-4.09-3.85-11.29-6.43-18.44c-3.54-9.82-8.62-18.59-15.97-26.25c-8.21-8.55-18.43-13.8-29.1-17.55
		c-13.28-4.67-26.87-8.71-40.94-10.76c-29.2-4.26-55.03,3.41-77.58,22.04c-18.44,15.23-31.32,34.42-39.7,56.87
		c-5.85,15.67-6.27,31.36-2.34,47.3c4.2,17.03,10.99,33.02,20.54,47.77c5.37,8.3,11.43,15.96,21.08,19.77
		c0.65,0.26,1.08,1.12,1.56,1.74c0.14,0.18,0.09,0.5,0.21,1.29c-3.43,2.44-6.99,1.35-10.47-0.13c-7.22-3.06-13.09-8.13-17.42-14.38
		c-5.41-7.8-10.24-16.09-14.48-24.58c-7.1-14.21-10.4-29.66-12.7-45.27c-1.46-9.92,0.98-19.57,3.93-28.86
		c10.77-33.91,30.7-61.06,61.22-79.77c10.24-6.28,21.89-9.49,33.67-11.84c14.16-2.83,28.17-1.4,42.1,1.66
		c14.1,3.1,27.95,7.08,41.32,12.59c8.87,3.66,17.09,8.39,24.1,15.03c10.94,10.35,17.79,23.23,22.61,37.27
		c6.04,17.62,8.2,35.89,9.7,54.4c1.84,22.74-0.39,45.11-4.02,67.41c-1.52,9.36-4.45,18.49-6.8,27.71
		C568.63,723.41,567.58,726.76,566.47,730.61z"/>
	<path d="M733.33,592.7c-3.06-0.83-5.87-1.58-9.22-2.49c0.54-1.95,0.58-3.65,1.39-4.81c9.43-13.64,18.63-27.45,28.56-40.72
		c23-30.72,48.33-59.52,73.64-88.32c2.31-2.63,4.18-5.64,6.32-8.57c9.38-2.95,15.31,2.44,21.11,9.14
		c-0.88,5.83,2.83,10.54,4.81,15.74c2.22,5.84,4.56,11.59,5.79,17.77c1.34,6.73,1.85,13.4,1.13,20.26
		c-1.09,10.27-1.54,20.61-2.66,30.88c-2.08,19.06-6.06,37.58-16.78,53.98c-0.89,1.36-1.77,2.74-2.72,4.07
		c-6.44,8.97-13.57,8.37-21.73,2.17c-6.43-4.89-10.37-11.94-12.87-19.51c-2.75-8.31-3.37-16.96-3.32-25.75
		c0.08-14.77,3.16-29.1,5.46-43.54c0.85-5.35,2.32-10.59,3.17-15.94c0.42-2.61,0.07-5.35,0.07-8.13
		c-4.91,3.09-26.02,27.49-42.65,49.75C759.67,556.29,746.86,574.17,733.33,592.7z M853.77,531.89c0.48-5.55,0.53-10.16,1.32-14.64
		c3.13-17.54-1.3-33.9-7.47-50c-0.5-1.31-1.87-2.3-3.14-3.8c-3.42,3.21-6.66,5.72-9.25,8.8c-5.26,6.26-8.42,13.6-6.53,21.81
		c1.63,7.09,3.84,14.19,6.94,20.76C839.13,522.2,844.47,528.36,853.77,531.89z"/>
	<path d="M1555.3,1121.85c5.8-3.96,10.6-7.24,15.41-10.51c4.94-3.36,9.62-7.24,14.91-9.92c7.39-3.76,16.59-6.16,24.08,2
		c1.62,4,0.2,7.96-1.07,11.77c-3.34,10.04-8.83,18.75-17.49,25.03c-5.27,3.82-10.84,7.27-16.48,10.54
		c-8,4.64-16.28,8.77-24.23,13.48c-3.46,2.05-6.53,4.85-9.55,7.56c-5.24,4.7-10.31,9.6-15.31,14.29c-5.7,0.41-8.27-2.56-9.87-7.99
		c3.8-7.49,7.48-15.64,11.96-23.31c4.91-8.42,9.89-16.66,13.07-26.02c6.02-17.74,13.52-35.01,18.87-52.93
		c4.36-14.6,9.35-28.89,14.98-43.01c2.11-5.29,4.04-10.64,6.27-16.53c5.29,0.75,9.29-2.65,13.63-5.31
		c14.21-8.72,29.76-14.62,44.94-21.31c3.47-1.53,6.94-3.06,11.37-5.01c2.26,1.33,5.18,3.04,8.46,4.97
		c-2.11,5.23-3.97,9.82-5.73,14.15c-4.92,7.73-9.71,15.27-15.52,24.4c-0.75,0.24-3.22,1.63-5.74,1.73
		c-15.81,0.62-30.45,5.38-44.48,12.25c-4.21,2.06-7.51,5.29-9.21,9.86c-2.56,6.88-5.28,13.7-7.64,20.64
		c-5.09,14.92-10,29.91-14.95,44.87C1555.66,1118.51,1555.65,1119.56,1555.3,1121.85z"/>
	<path d="M1003.55,463.79c-25.49,23.93-51.54,47.32-71.01,76.69c-4.27,0.06-7.26-1.37-9.65-3.86c-0.05-0.87-0.32-1.6-0.07-1.9
		c5.61-6.92,9.81-14.91,16.51-21.02c2.57-2.34,4.43-5.46,6.6-8.24c10.62-13.55,23.84-24.54,36.03-36.54
		c10.07-9.91,20.37-19.59,30.47-29.47c2.89-2.82,5.47-5.97,8.46-9.26c5.89-1.24,6.58-1.1,13.5,2.84c1.97,6.19,4.1,12.04,5.67,18.03
		c2.71,10.38,3.17,20.86,0.61,31.4c-4.17,17.11-9.12,34.06-10.66,51.73c-0.62,7.1-2.57,13.89-5.89,20.23
		c-4.03,7.7-7.99,15.43-12.23,23.01c-1.42,2.55-3.59,4.68-5.13,6.62c-11.47,1.27-17.89-3.31-20.3-13.48
		c-1.99-8.41-1.06-16.74,0.01-25.11c2.6-20.22,6.45-40.22,11.47-59.96c1.53-6.02,3.97-11.8,5.98-17.7c0.33-0.97,0.56-1.97,0.83-2.96
		C1004.38,464.5,1003.97,464.15,1003.55,463.79z M1024.72,496.5c0.71-11.54,1.43-23.09,2.13-34.63c0.08-1.35,0.24-2.71,0.17-4.06
		c-0.04-0.77-0.46-1.53-0.78-2.26c-0.09-0.2-0.44-0.29-0.67-0.43C1015.29,463.81,1014.25,482.18,1024.72,496.5z"/>
	<path d="M458.15,1037.07c-4-5.08-4-5.08-4.15-9.93c0.45-0.26,0.92-0.77,1.36-0.74c12.74,0.77,25.47,2.26,38.21,2.27
		c25.29,0.04,50.57-0.77,75.86-1.15c16.03-0.24,32.07-0.29,48.1-0.53c5.42-0.08,10.83-0.57,16.24-0.72
		c19.3-0.55,38.6-1.35,57.9-1.47c20.63-0.12,41.27,0.4,61.91,0.7c11.15,0.16,22.29,0.31,33.43,0.69
		c23.86,0.83,47.78,1.01,71.56,2.95c26.26,2.14,52.63,3.72,78.58,8.81c9.34,1.83,18.75,3.26,28.15,4.76
		c2.39,0.38,4.84,0.37,8.28,0.62c1.73,2.02,3.96,4.6,6.7,7.79c-2.35,2.21-4.21,3.96-5.85,5.5c-19.66-4.91-38.85-8.61-58.26-11.09
		c-8.88-1.14-17.85-1.76-26.68-3.2c-17.49-2.85-35.2-2.34-52.78-3.77c-22.16-1.81-44.49-1.56-66.75-2.14
		c-12.48-0.33-24.97-0.18-37.43-0.87c-21.43-1.19-42.8,0.39-64.19,0.91c-20.38,0.49-40.78,0.41-61.17,0.88
		c-26.35,0.61-52.69,1.81-79.04,2.2c-19.29,0.29-38.6-0.22-57.9-0.62C466.2,1038.83,462.2,1037.72,458.15,1037.07z"/>
	<path d="M1643.43,1124.48c2.15-1.17,3.15-1.49,3.84-2.13c5.53-5.19,11-10.44,16.49-15.67c0.2-0.19,0.36-0.43,0.58-0.57
		c8.62-5.62,16.94-11.67,26.64-15.53c7.16-2.85,12.65-1.13,17.28,4.08c1.71,3.63,0.67,6.58-0.71,9.68
		c-3.43,7.68-9.01,13.69-15.34,18.79c-10.14,8.18-20.81,15.71-31.23,23.55c-6.77,5.1-14.16,9.03-21.77,12.76
		c-5.03,2.46-9.34,6.44-13.85,9.91c-2.14,1.64-3.97,3.67-6.12,5.69c-4.11-0.7-6.96-2.78-8.75-7.73
		c11.18-28.09,26.45-55.14,38.04-83.85c11.49-28.47,23.79-56.61,35.91-85.32c2.23,0.38,4.56,0.78,6.02,1.03
		c11.62-3.53,22.48-6.83,33.55-10.19c2.57,2.22,4.78,4.13,7.53,6.51c-5.17,8.57-8.2,18.12-19.08,21.29
		c-4.67,1.36-8.98,3.94-13.61,5.5c-5.84,1.97-10.5,5.74-15.19,9.39c-2.02,1.57-3.51,4.17-4.52,6.61
		c-5.94,14.32-11.59,28.75-17.5,43.08c-5.18,12.57-10.58,25.05-15.89,37.58C1645.15,1120.35,1644.57,1121.77,1643.43,1124.48z"/>
	<path d="M1142.53,1177.78c20.73,5.76,41.22,10.03,60.04,19.73c14.75,7.6,29.8,14.6,44.67,21.97c3.53,1.75,7.98,1.75,11.17,5.84
		c-1.42,0.74-2.59,1.91-3.47,1.71c-3.67-0.8-7.44-1.58-10.83-3.14c-17.75-8.18-35.4-16.59-53.8-25.25
		c-1.58,5.95-2.88,11.12-4.33,16.24c-1.55,5.49-3.15,10.96-4.87,16.39c-1.64,5.18-3.45,10.29-5.74,17.06
		c-3.41,5.7-7.61,13-12.11,20.11c-2.61,4.13-5.43,8.19-8.65,11.84c-2.48,2.81-5.49,5.34-8.69,7.3c-7.3,4.48-12.3,3.79-18.36-2.12
		c-10.08-9.83-12.43-22.04-10.12-35.34c3.14-18.05,9.11-35.19,17-51.73C1137.5,1192.05,1139.63,1185.28,1142.53,1177.78z
		 M1167.36,1234.59c5.8-10.26,11.32-31.14,10.8-40.81c-6.21-1.65-12.16-5.04-19.76-3.95c-0.08,8.99-0.75,17.65-0.03,26.2
		C1158.94,1222.99,1162.59,1229.08,1167.36,1234.59z"/>
	<path d="M1306.25,1238.04c8.68-4.53,17.53-9.31,26.52-13.81c10.7-5.35,21.49-10.5,32.29-15.64c5.63-2.68,11.36-5.12,17.04-7.7
		c5.42-2.46,10.82-4.96,17.08-7.83c3.16,0.75,6.58,2.49,7.85,7.3c-2.61,3.56-6.51,4.96-10.26,6.33
		c-14.86,5.43-29.02,12.36-42.98,19.72c-0.46,0.24-0.79,0.72-1.43,1.31c0.89,0.66,1.67,1.38,2.57,1.88c5.87,3.29,7.93,8.44,8,14.96
		c0.11,10.43-0.91,20.54-4.7,30.42c-3.01,7.84-4.27,16.41-7.8,23.97c-4.97,10.65-11.9,20.28-21.92,26.93
		c-10.97,7.27-20.02,4.65-27.03-6.34c-6.12-9.59-6.68-20.51-5.83-31.52c0.54-7.05,1.3-14.08,1.92-21.12
		C1298.43,1257.09,1300.13,1247.51,1306.25,1238.04z M1342.2,1287.44c7.09-19.55,13.82-39.98,8.82-52.04
		c-2.16-0.17-4.56-0.47-6.96-0.5c-2.41-0.03-4.83,0.2-6.96,0.3c-7.57,6.69-11.21,14.41-9.71,24.19c0.29,1.88,0.46,3.77,0.64,5.67
		C1328.95,1274.62,1333.66,1281.79,1342.2,1287.44z"/>
	<path d="M320.68,432.68c2.24-2.97,4.14-4.97,5.43-7.3c5.94-10.68,14.57-18.15,26.01-22.4c4.31-1.6,8.52-3.7,12.98-4.66
		c15.34-3.32,28.66,1.68,39.88,11.79c7.84,7.07,14.62,15.31,21.79,23.09c0.88,0.96,1.32,2.33,2.11,3.76
		c-0.75,1.65-1.51,3.31-2.21,4.83c-1.16,0.25-1.96,0.61-2.72,0.56c-4.57-0.29-7.54-3.11-9.4-6.89
		c-4.99-10.13-13.56-16.95-21.94-23.84c-10.87-8.93-23.24-6.58-35.15-0.04c-10.81,5.94-18.59,15.01-24.27,25.81
		c-1.46,2.78-1.96,6.13-2.57,9.28c-0.56,2.88-0.07,6.07-3.45,8.43c-4.98-0.35-8.73-2.71-10.56-7.98
		c-3.9-11.18-11.56-19.6-20.38-27.07c-9.37-7.95-23.88-7.31-32.4,2.27c-8.65,9.72-12.73,21.42-14.42,34.06
		c-1.53,11.38-1,22.74,0.07,34.18c1.57,16.85,4.11,33.48,8.43,49.82c1.38,5.23,3.41,10.28,5.17,15.48
		c-1.95,2.05-4.14,4.35-6.52,6.85c-4.89,0.16-7.85-2.47-9.8-6.84c-1.1-2.46-2.46-4.82-3.85-7.14c-0.38-0.63-1.28-0.94-2.57-1.84
		c-2.12,0.71-4.61,1.55-5.53,1.86c-7.94,9.27-14.79,17.28-21.99,25.68c-4.28,1.29-7.87-0.11-10.67-4.51
		c2.83-5.63,7.52-9.48,11.78-13.48c3.73-3.51,6.73-7.06,7.31-12.01c8.03-6.76,16.87-5.41,26.6-3.14c-0.85-3.91-1.53-6.99-2.18-10.09
		c-5.28-25.38-9.46-50.85-6.99-76.94c1.18-12.47,5.22-24.03,12.41-34.11c5.33-7.47,12.75-11.84,22.7-12.52
		c16.5-1.12,28.87,5.87,39.61,17.25C315.58,427.26,317.8,429.62,320.68,432.68z"/>
	<path d="M1171.67,817.29c-4.43,1.63-6.99-0.33-9.76-2.24c-0.22-1.78-0.58-3.37-0.6-4.96c-0.26-23.43,0.48-46.82,3.8-70.04
		c1.77-12.34,4.59-24.42,8.71-36.3c2.86-8.26,6.35-16.08,9.99-23.98c4.74-10.28,12.99-17.35,20.47-25.11
		c4.39-4.55,10.63-5.43,16.78-3.64c6.18,1.8,11.34,5.22,14.74,10.91c4.11,6.87,6.57,14.3,7.38,22.26
		c1.12,10.97,0.17,21.74-3.15,32.27c-0.39,1.23-0.72,2.49-1.43,4.93c2.35-1.16,3.77-1.62,4.92-2.46
		c6.83-4.99,13.81-9.62,21.93-12.37c5.24-1.77,10.09-1.69,15.32,1.8c0.2,1.75,0.83,3.89,0.62,5.94c-0.57,5.67-1.27,11.35-2.37,16.94
		c-0.36,1.85-2.09,3.44-3.52,5.65c-2.91-1.91-5.13-3.37-6.6-4.33c-3.51-4.91-0.44-9.16-0.68-13.63c-0.76-0.15-1.72-0.67-2.16-0.38
		c-9.8,6.34-19.72,12.52-29.24,19.26c-5.62,3.97-9.43,9.75-12.49,15.93c-1.93,3.9-3.8,7.84-5.9,11.65
		c-1.12,2.03-2.66,3.84-4.15,5.94c-4.15-2.05-7.37-3.84-8.78-8.11c1.5-5.7,4.48-10.91,7.76-15.85c7.77-11.69,12.67-24.6,16.73-37.88
		c1.1-3.61,1.84-7.45,1.96-11.21c0.23-7.06,0.34-14.18-0.38-21.18c-0.43-4.21-2.15-8.43-3.97-12.32c-2.26-4.84-5.72-6.13-10.79-4.22
		c-2.73,1.02-5.39,2.68-7.57,4.62c-5.93,5.28-10.76,11.5-14.62,18.48c-9.46,17.1-15.57,35.35-17.86,54.7
		c-1.79,15.11-2.85,30.32-3.76,45.51c-0.6,10.02-0.32,20.08-0.5,30.13C1172.47,815,1172,816.02,1171.67,817.29z"/>
	<path d="M221.34,967.67c-4.15,4.09-6.97,3.28-9.29,2.08c-3.34-1.73-6.82-3.66-9.41-6.31c-8.17-8.36-16.63-16.59-23.75-25.81
		c-10.9-14.14-18.37-30.01-20.86-48.06c-2.28-16.61-1.8-33.17,0.16-49.65c1.39-11.71,5.77-22.66,13.01-32.2
		c9.96-13.13,23.92-17.49,39.6-17c12.23,0.38,24.33,2.27,36.2,5.52c7.04,1.93,14.19,3.45,22.09,5.35c-0.28-2.16-0.33-3.67-0.7-5.11
		c-1.28-5-3.16-9.91-3.9-14.98c-1.47-10.09-0.33-20.04,3.38-29.61c0.68-1.76,1.42-3.5,2.2-5.22c9.09-20.23,34.79-30.58,54.71-18.42
		c6,3.66,11.61,7.99,17.26,12.2c6.53,4.87,13.08,9.74,19.31,14.98c5.39,4.53,10.35,9.57,15.03,13.95c1.59,5.16,0.18,8.12-4.44,9.98
		c-3.43-2.08-6.26-4.69-8.47-8.28c-1.82-2.96-4.09-5.82-6.73-8.05c-8.73-7.37-17.57-14.62-26.66-21.53
		c-3.86-2.93-8.31-5.2-12.74-7.23c-10.02-4.6-19.18-2.35-27.29,4.55c-8.02,6.82-12.12,15.89-14.05,26.06
		c-2.55,13.42,0.87,25.89,6.13,38.05c0.54,1.24,1.56,2.36,1.79,3.63c0.27,1.54,0.25,3.31-0.26,4.76c-0.38,1.09-1.74,1.84-2.4,2.49
		c-22-7.82-44.07-12.91-66.83-14.89c-23.38-2.04-38.51,9.88-45.43,31.37c-1.74,5.4-2.88,11.09-3.53,16.74
		c-1.94,16.88-1.21,33.69,2.44,50.33c2.86,13.05,9.28,24.4,17.42,34.74c6.22,7.9,12.96,15.41,19.81,22.77
		c3.49,3.75,7.7,6.85,11.67,10.13C218.04,965.99,219.55,966.62,221.34,967.67z"/>
	<path d="M1273.66,778.51c4.05,0.13,6.09,1.97,7.39,5.96c-0.92,1.58-2.09,3.64-3.33,5.66c-4.1,6.73-8.33,13.38-12.31,20.17
		c-13.45,22.98-26.42,46.25-41.21,68.42c-16.59,24.86-34.31,48.92-52.87,72.32c-25.04,31.55-48.01,64.54-70.14,98.16
		c-2.24,3.4-4.12,7.04-6.29,10.5c-1.12,1.79-2.5,3.41-3.58,4.87c-6.56-0.95-6.56-0.95-10.67-7.28
		c14.62-21.34,29.02-43.05,44.16-64.24c12.77-17.86,26.17-35.29,39.7-52.59c19.75-25.25,38.73-51.06,56.89-77.47
		c8.43-12.26,16.52-24.78,23.42-38.04c4-7.69,8.79-14.98,13.26-22.43c4.47-7.43,8.98-14.84,13.52-22.22
		C1272.02,779.65,1272.81,779.24,1273.66,778.51z"/>
	<path d="M710.33,1133.43c3.82,1.25,7.74,2.4,8.32,7.3c-1.31,3.24-4,3.69-6.76,3.98c-15.56,1.6-30.19,6.63-44.54,12.45
		c-18.9,7.66-37.71,15.55-56.48,23.52c-15.02,6.37-29.98,12.89-44.87,19.55c-27.81,12.44-55.66,24.78-83.26,37.66
		c-15.01,7-29.51,15.1-44.29,22.59c-11.39,5.77-22.79,11.56-34.35,16.97c-5.61,2.62-11.57,3.26-17.05-0.82
		c-0.63-0.47-1.04-1.23-2.05-2.45c1.46-1.1,2.74-2.84,4.23-3.05c9.12-1.3,16.98-5.67,24.95-9.78c8.46-4.36,16.89-8.8,25.22-13.4
		c17.15-9.49,34.71-18.09,52.74-25.82c13.24-5.68,26.03-12.4,39.22-18.21c26.88-11.83,53.85-23.44,80.85-34.99
		c17.75-7.59,35.49-15.22,53.45-22.27c9.85-3.86,20.11-6.67,30.26-9.74C700.57,1135.49,705.39,1134.6,710.33,1133.43z"/>
	<path d="M680.16,474.46c3.09-5.58,5.48-10.8,8.68-15.47c10.16-14.85,24.19-23.24,42.41-23.5c10.09-0.15,14.37,3.05,16.11,12.56
		c1.55,8.45,2.67,17.07,1.96,25.62c-6.22,2.46-6.22,2.46-12.19-1.7c-1.45-8.79,0.41-18.24-2.66-26.98
		c-3.42-2.82-6.98-1.67-10.27-0.61c-10.1,3.27-18.64,9.01-24.89,17.64c-4.3,5.94-8.21,12.25-9.14,19.77
		c-0.43,3.47-0.32,7.02-0.21,10.52c0.09,2.96,0.55,5.91,0.82,8.62c-5.2,3.91-5.96,3.85-12.33-0.7
		c-3.32-11.23-6.85-22.63-16.06-30.97c-7.55,0.95-11.42,6.14-14.44,11.46c-5,8.82-7.92,18.42-7.97,28.76
		c-0.02,5.07-0.61,10.14-0.93,14.96c-5.64,1.21-5.64,1.21-11.5-1.58c-12.6-30.71-25.67-61.99-35.82-94.48
		c3.79-3.58,7.11-2.78,10.79-0.23c4.17,11.54,8.14,23.37,12.71,34.97c4.45,11.32,8.12,22.98,14.19,35.36
		c1.63-4.89,2.99-8.24,3.87-11.71c1.58-6.23,4.98-11.48,8.76-16.46c5.21-6.86,12.64-9.15,20.92-8.9c4.63,0.14,8.12,2.85,11.14,6.14
		C676.08,469.67,677.95,471.91,680.16,474.46z"/>
	<path d="M726.83,865.96c-1.59,1.06-3.14,2.09-5.21,3.46c-2.27-0.81-4.73-1.69-7.29-2.6c-2.43-11.33-4.85-22.19-7.07-33.09
		c-4.02-19.75-9.91-38.97-16.12-58.1c-4.19-12.93-8.5-25.83-12.86-38.7c-3.4-10.04-6.75-20.1-10.5-30
		c-8.39-22.15-15.06-44.84-21.14-67.7c-2.37-8.91-3.97-18.03-6.04-27.02c-0.78-3.36-1.92-6.64-2.96-10.2
		c4.38-2.28,8.09-1.68,12.23,0.89c0.54,2.02,1.38,4.32,1.75,6.69c2.79,17.81,8.83,34.77,13.62,52.05c2.1,7.59,4.34,15.16,6.94,22.6
		c4.84,13.85,10.22,27.53,14.96,41.41c6.06,17.74,11.88,35.57,17.51,53.45c4.56,14.5,9.01,29.06,12.92,43.75
		c3.49,13.11,6.21,26.44,9.21,39.68C727.03,863.55,726.83,864.67,726.83,865.96z"/>
	<path d="M1018.7,1196.19c3.76,0.18,6.75,2.13,8.7,5.25c0.5,3.01-1.1,4.41-2.91,5.76c-8.08,6.01-16.18,11.99-24.18,18.09
		c-20.12,15.33-40.23,30.67-60.27,46.11c-9.26,7.14-18.45,14.39-27.45,21.86c-14.23,11.81-28.11,24.05-42.44,35.73
		c-14.97,12.2-30.36,23.88-45.47,35.92c-7.02,5.6-13.78,11.52-20.68,17.26c-2.71,2.25-5.5,4.4-7.96,6.37
		c-4.52,0.63-8.52,1.27-12.16-2.49c1.2-1.34,2.1-2.66,3.3-3.62c27.53-22.19,55.14-44.28,82.62-66.53
		c6.11-4.95,11.67-10.57,17.68-15.65c9.98-8.41,20.11-16.64,30.19-24.93c4.83-3.98,9.61-8.01,14.53-11.88
		c13.89-10.9,27.83-21.74,41.78-32.58C988.75,1219.38,1003.56,1207.92,1018.7,1196.19z"/>
	<path d="M1144.69,1061.28c-5.43,0.4-8.42-2.71-10.95-7.64c6.44-6.47,12.67-13.22,19.4-19.42c26.04-23.97,51.06-48.99,75.67-74.39
		c24.42-25.2,48.03-51.18,72-76.81c0.36-0.38,0.86-0.64,1.7-1.24c3.93,0.55,7.21,2.4,9.54,7.09c-3.27,3.75-6.48,7.71-9.97,11.39
		c-17.78,18.76-35.63,37.45-53.47,56.16c-9.2,9.65-18.28,19.41-27.68,28.86c-12.28,12.35-24.8,24.45-37.24,36.64
		c-10.1,9.9-20.28,19.72-30.33,29.67C1150.51,1054.44,1147.96,1057.61,1144.69,1061.28z"/>
	<path d="M1692.36,870.47c3.14,2.41,7.68,3.61,6.44,9.85c-1.99,0.7-4.16,1.69-6.45,2.24c-27.79,6.69-55.06,15.11-82.24,23.93
		c-25.87,8.39-51.8,16.63-77.78,24.67c-16.95,5.25-33.3,11.93-49.26,19.6c-6.38,3.07-13.07,5.1-19.54,6.99
		c-3.65-2.11-6.36-4.17-6.45-8.86c3.18-1.28,6.42-2.47,9.57-3.85c9.47-4.16,18.89-8.42,28.36-12.58
		c15.48-6.79,31.62-11.68,47.76-16.63c19.19-5.89,38.21-12.35,57.35-18.42c18.62-5.9,37.25-11.81,55.99-17.35
		C1667.82,876.59,1679.72,873.79,1692.36,870.47z"/>
	<path d="M112.72,530.44c3.26-2.8,6.16-3.73,10.27-2.42c1.18,3.46,2.48,7.26,3.77,11.05c3.63,10.69,10.02,19.87,16.16,29.16
		c9.89,14.96,19.75,29.95,29.97,44.69c6.33,9.14,13.67,17.6,19.89,26.81c9.28,13.72,17.94,27.86,26.94,41.77
		c2.06,3.18,4.23,6.33,6.66,9.23c1.91,2.28,2.89,4.53,1.85,7.9c-2.61,3.79-6.48,3.48-11.23,2.17c-3.43-5.38-7.52-10.85-10.63-16.83
		c-13.62-26.18-32.16-49.07-48.62-73.35c-12.35-18.22-24.14-36.82-35.94-55.41C117.12,547.82,114.68,539.46,112.72,530.44z"/>
	<path d="M1348.97,1071.88c-5.45-1.4-8.85-3.58-9.43-8.63c1.66-4.37,3.52-8.58,4.87-12.94c3.58-11.58-7-20.22-16.92-18.51
		c-3.45,0.59-6.84,1.53-10.01,2.25c-5.12-3.31-5.12-3.31-7.35-8.73c2.03-3.87,4.51-7.79,6.18-12.03c1.67-4.22,2.53-8.76,3.48-12.18
		c-1.99-5.18-5.44-5.01-8.66-4.57c-7.9,1.08-15.25,3.7-21.65,8.65c-2.99,2.31-6.13,4.42-9.2,6.61c-1.75-0.49-3.25-0.91-4.81-1.34
		c0.13-1.23-0.01-2.12,0.32-2.77c6.32-12.83,23.31-21.69,37.33-19.51c12.58,1.95,18.5,9.89,16.49,22.39
		c-0.55,3.41-1.65,6.74-2.62,10.64c14.27,2.82,25.32,9.87,28.82,24.32C1358.04,1054.78,1355.17,1063.69,1348.97,1071.88z"/>
	<path d="M542.04,432.68c7.14-3.13,10.29-2.27,13.7,3.95c4.97,9.05,9.83,18.17,14.52,27.37c8.67,17,18.83,33.03,30.35,48.23
		c7.87,10.39,15.58,20.92,23.42,31.34c1.3,1.73,3,3.14,4.34,4.84c1.11,1.41,1.95,3.04,2.84,4.45c-4.82,5-4.98,5.02-11.28,2.1
		C589.38,516.65,562.99,476.63,542.04,432.68z"/>
	<path d="M952.54,1343.99c-3.84,1.47-7.07,1.02-9.69-1.87c-0.86-2.97,1.01-4.79,2.35-6.78c10.46-15.56,21.04-31.05,31.38-46.7
		c6.9-10.43,13.46-21.07,20.2-31.61c0.86-1.34,1.88-2.57,2.72-3.7c6.74,0.66,6.74,0.66,10.21,6.14
		C990.88,1287.32,971.89,1315.39,952.54,1343.99z"/>
	<path d="M244.49,609.22c3.18-4.25,6.49-3.08,10.63-2.76c5.79,6.32,11.82,13.24,18.23,19.79c6.26,6.4,12.91,12.41,19.37,18.61
		c6.57,6.3,13.73,12.03,19.94,18.83c-2.83,4.28-6.21,4.45-9.73,3.28c-1.73-0.57-3.43-1.7-4.74-2.99
		c-13.38-13.1-26.74-26.21-39.94-39.48C253.51,619.73,249.23,614.51,244.49,609.22z"/>
	<path d="M382.76,820.22c8.33-9.03,18.58-9.51,30.54-1.77c1.09,3.6,1.55,7.12-3.77,9.64c-2.84-1.67-6.02-3.54-9.9-5.82
		c-2.2,1.05-4.81,2.29-7.7,3.67C387.87,826.3,385.22,823.92,382.76,820.22z"/>
	<path d="M248.63,726.69c-2.78,4.61-5.62,6.03-10.42,4.16c-2.07-2.52-4.62-5.61-7.07-8.58c1.34-5.53,5.71-5.79,9.03-7.26
		C246.11,717.32,246.19,722.76,248.63,726.69z"/>
	<path d="M1722.88,868.68c-3.23-2.93-4.84-6.26-3.83-10.97c4.5-1.77,6.71,1.5,9.28,3.78
		C1729.32,866.21,1726.96,867.99,1722.88,868.68z"/>
	<path d="M666.05,581.09c-4.06,6.52-7.12,6.67-12.23,0.88c1.17-2.92,3.68-3.75,6.47-4.08C662.66,577.62,664.54,578.46,666.05,581.09
		z"/>
</g>
</svg>
