<?xml version="1.0" encoding="utf-8"?>
<!-- Generator: Adobe Illustrator 27.4.0, SVG Export Plug-In . SVG Version: 6.00 Build 0)  -->
<svg version="1.1" id="Calque_1" xmlns="http://www.w3.org/2000/svg" xmlns:xlink="http://www.w3.org/1999/xlink" x="0px" y="0px"
	 viewBox="0 0 2000 2000" style="enable-background:new 0 0 2000 2000;" xml:space="preserve">
<g>
	<path d="M1135.6,1715.79c3.12-0.82,5.21-1.37,7.53-1.98c3.52,1.31,7.08,2.72,10.7,3.95c2.05,0.69,4.25,1.64,6.31,1.5
		c6.5-0.44,12.51,1.12,18.4,3.53c4.81,1.96,9.52,2.33,14.29-1.07c2.19,1.03,4.38,2.08,6.58,3.1c4.75,2.2,9.57,4.02,14.98,3.8
		c2.16-0.09,4.41,0.23,6.5,0.79c6.9,1.86,13.8,3.35,21.02,3.21c2.4-0.05,4.91,0.66,7.21,1.48c5.18,1.84,10.27,3.61,15.96,3.18
		c2.05-0.15,4.22,1,6.3,1.65c5.22,1.63,10.43,3.3,15.43,4.89c2.73-0.68,5.09-1.27,7.68-1.92c4.55,1.45,9.24,2.94,14.39,4.58
		c3.88-1.91,7.99-1.19,12.3,0.21c3.84,1.24,7.98,1.54,11.99,2.24c1.35,0.23,2.75,0.24,4.05,0.63c11.32,3.39,23.08,4.17,34.65,6.07
		c6.46,1.06,12.72,3.31,19.16,4.62c4.51,0.92,9.17,1.07,13.74,1.73c2.41,0.35,4.79,0.94,7.13,1.62c7.83,2.3,15.26,5.86,23.83,5.66
		c3.61-0.09,7.25,2.26,10.91,3.38c6.52,1.98,12.95,4.87,20.1,2.41c13.05,5.34,26.55,8.69,40.66,9.33c1.63,0.07,3.33,0.31,4.83,0.9
		c6.49,2.53,13.34,2.9,20.14,3.76c4.86,0.61,9.79,1.38,14.44,2.86c13.69,4.36,27.74,6.2,42,7.28c5.95,0.45,11.92,1.75,17.67,3.38
		c14.82,4.2,29.89,6.8,45.2,8.35c6.23,0.63,12.54,1.67,18.49,3.52c18.66,5.82,37.86,8.85,57.1,11.71c7.31,1.09,14.62,2.1,22.31,3.2
		c0.25,1.28,0.5,2.51,0.74,3.7c-3.19,1.91-6.2,1.03-9.11,0.57c-18.94-3.01-37.9-5.93-56.79-9.26c-5.33-0.94-10.68-2.6-15.59-4.87
		c-5.59-2.58-11.32-4.25-17.34-4.66c-13.98-0.95-27.72-3.33-41.38-6.36c-8.02-1.78-16.15-2.7-24.29-3.74
		c-13.27-1.71-26.32-5.13-39.46-7.84c-0.54-0.11-1.05-0.35-1.58-0.44c-15.63-2.65-31.29-5.15-46.88-8c-8.06-1.47-15.99-3.63-24-5.34
		c-3.71-0.79-7.5-1.2-11.23-1.89c-5.64-1.05-11.26-2.19-16.89-3.31c-5.08-1.01-10.18-1.9-15.22-3.09
		c-4.78-1.13-9.54-2.42-14.23-3.91c-4.7-1.49-9.27-3.27-14.39-2.91c-1.86,0.13-3.79-0.51-5.67-0.89
		c-12.59-2.51-25.14-5.23-37.77-7.51c-9.65-1.74-19.41-2.9-29.1-4.42c-2.14-0.34-4.24-1.05-6.32-1.69
		c-3.93-1.21-7.75-2.41-12.05-1.89c-2.31,0.28-4.83-0.62-7.17-1.3c-2.88-0.84-5.67-2.02-8.83-3.17c-6.4,2.67-12.62,0.72-18.85-1.57
		c-5.65-2.08-11.28-4.37-17.54-3.57c-0.53,0.07-1.17,0.09-1.63-0.13c-10.32-5-21.93-4.3-32.69-7.38c-4.17-1.19-8.64-1.29-12.84-2.39
		c-6.06-1.59-12-3.65-18.7-5.73c-4.75,2.19-10.23,1.66-15.86-0.34c-5.67-2.02-11.46-3.94-17.46-1.91
		c-5.58-2.19-10.91-4.28-15.84-6.21c-8.48,2.27-8.86,2.76-16-1.62c-6.4-3.92-13.72-3.25-20.35-5.68c-3.54-1.3-7.44-1.62-12.51-2.66
		c-2.34,0.41-6.27,0.45-9.64,1.85c-3.29,1.37-6,4.13-8.97,6.27c0.04,0.53-0.13,1.23,0.14,1.56c10.82,13.32,24.64,22.34,40.63,28.23
		c1.01,0.37,2.14,0.71,3.19,0.66c5.93-0.27,11.23,2.13,16.77,3.61c4.17,1.11,8.57,1.32,12.84,2.1c5.36,0.98,10.94,1.43,15.97,3.32
		c15.81,5.91,32.43,7.86,48.85,10.86c11.57,2.11,23.2,3.98,34.71,6.39c10.18,2.13,20.25,4.76,30.33,7.34
		c22.56,5.77,45.06,11.76,67.65,17.41c6.89,1.72,14,2.5,20.97,3.89c8.05,1.61,16.07,3.4,24.1,5.15c20.84,4.55,41.58,9.7,62.56,13.48
		c11.85,2.14,23.46,5.19,35.28,7.39c6.72,1.25,13.37,2.89,20.07,4.27c2.94,0.61,5.93,1.51,8.87,1.41
		c7.22-0.25,14.17,0.89,21.12,2.66c3.41,0.87,6.99,1.01,10.51,1.49c0.24,0.44,0.74,0.93,0.68,1.35c-0.15,1.01-0.55,1.99-1.04,3.6
		c-2.26-0.14-4.41-0.01-6.43-0.45c-3.2-0.7-6.36-1.69-9.48-2.72c-5.34-1.76-10.65-2.59-15.92,0.07c-4.36-1.42-8.46-3.04-12.7-4.06
		c-5.02-1.21-10.17-1.82-15.24-2.84c-3.46-0.69-6.94-1.41-10.29-2.5c-7.27-2.37-14.29-5.32-22.31-4.59
		c-3.07,0.28-6.38-1.26-9.48-2.28c-8.61-2.84-17.22-5.57-26.44-5.45c-1.61,0.02-3.37-0.2-4.81-0.87
		c-9.63-4.47-20.16-4.89-30.32-6.88c-27.39-5.38-54.67-11.16-81.47-19.11c-11.8-3.5-23.92-5.9-35.91-8.76
		c-13.05-3.12-26.09-6.26-39.16-9.28c-3.73-0.86-7.52-1.56-11.33-1.96c-17.78-1.85-35.14-5.48-51.99-11.53
		c-6.98-2.5-13.94-4.94-21.59-2.13c-1.79,0.66-4.31-0.18-6.34-0.82c-2.6-0.82-5.07-2.07-7.54-3.27c-4.84-2.36-9.73-3.84-15.26-1.19
		c-5.24-2.96-10.18-6.7-15.75-8.71c-11.42-4.13-18.95-13.08-26.71-21.27c-7.83-8.27-13.98-18.2-20.42-27.71
		c-5.37-7.94-10.21-16.24-15.01-24.54c-1.57-2.72-2.28-5.93-3.89-10.28c-1.6-1.14-4.47-3.2-5.82-4.17
		c-3.41-5.61-5.89-9.69-8.38-13.78c-0.05,0.03-0.1,0.07-0.14,0.1c-2.58-4.76-5.11-9.55-7.76-14.27
		c-6.86-12.18-13.7-24.36-20.7-36.46c-5.07-8.77-10.35-17.42-15.64-26.06c-1.43-2.33-3.31-4.36-4.89-6.6
		c-4.26-6.04-8.49-12.1-12.68-18.18c-7.77-11.28-15.36-22.69-23.28-33.87c-20.45-28.88-39.06-58.93-57.07-89.37
		c-6.7-11.32-12.7-23.04-19.29-34.43c-10.15-17.54-20.71-34.84-30.74-52.45c-6.64-11.66-12.54-23.74-18.98-35.52
		c-7.35-13.43-14.9-26.76-22.45-40.08c-1.31-2.31-3.05-4.39-4.61-6.61c-3.35,1.41-4.23,3.55-3.51,6.17
		c1.66,6.05,2.8,12.4,5.48,17.98c6.28,13.08,13.15,25.89,20.15,38.6c10.97,19.92,22.17,39.72,33.42,59.49
		c11.52,20.24,23.06,40.47,34.87,60.54c8.19,13.92,16.91,27.53,25.32,41.31c6.98,11.44,13.9,22.92,20.73,34.45
		c1.38,2.33,2.47,4.9,3.28,7.49c0.32,1.02-0.48,2.39-1,4.58c-1.86-1.79-3.21-2.65-3.95-3.87c-7.68-12.62-14.75-25.64-22.96-37.89
		c-16.19-24.17-29.91-49.75-44.21-75c-12.56-22.17-24.73-44.55-37.14-66.8c-6.14-11.01-12.51-21.89-18.59-32.93
		c-5.42-9.84-10.7-19.75-15.83-29.74c-3.56-6.94-4.74-14.49-5.12-23.07c2.29-2.08,4.8-4.38,6.68-6.09c5.52-0.03,8.46,2.27,10.5,5.76
		c4.56,7.79,9.01,15.64,13.45,23.5c2.29,4.05,4.53,8.14,6.69,12.26c7,13.35,13.83,26.79,20.98,40.05
		c5.98,11.08,12.26,22,18.54,32.92c6.82,11.88,13.61,23.79,20.73,35.49c16.81,27.61,33.48,55.32,50.87,82.56
		c11.19,17.53,23.59,34.3,35.4,51.44c2.18,3.16,4.17,6.44,6.19,9.7c1.44,2.33,2.52,4.93,4.19,7.06c9.8,12.5,18.06,26.04,26.65,39.35
		c5.2,8.05,10.18,16.25,15.06,24.5c5.15,8.7,10.07,17.54,15.24,26.59c6.93-1.11,13.59-2.17,20.25-3.23
		c0.01-0.32,0.02-0.64,0.03-0.95c2.34,0.71,4.64,1.61,7.02,2.07c2.65,0.51,5.52,1.29,8.05,0.77c5.69-1.15,10.91,0.13,16.11,1.93
		c4.4,1.52,8.71,3.3,13.05,5c4.36,1.72,8.74,2.97,13.57,2.7c2.63-0.15,5.4,0.57,7.99,1.32c22.62,6.56,45.2,13.25,67.82,19.82
		c7.1,2.06,14.27,3.9,21.84,5.95c1.26-1.33,2.69-2.83,4.02-4.23c5.11,0.23,5.6,5.16,8.38,7.3c7.63,1.32,15.22,2.24,22.6,4.02
		c7.41,1.79,14.66,4.21,23.54,5c-3.32-4.72-6.05-8.6-8.99-12.79c1.03-1.41,1.89-2.6,3.25-4.47c6.64,6.52,11.5,13.77,17.71,20.76
		c6.69,1.31,13.95,2.63,21.16,4.19c8.55,1.85,17.06,3.9,25.57,5.92c3.46,0.82,6.85,2.02,10.34,2.65c17.78,3.22,35.6,6.27,53.38,9.46
		c5.12,0.92,10.18,2.13,15.28,3.17c2.41,0.49,4.87,1.36,7.26,1.24c7.88-0.4,15.12,1.99,22.4,4.45c2.33,0.79,4.76,1.71,7.15,1.76
		c8.31,0.16,16.08,2.87,24.09,4.52c4.48,0.92,9.14,1,14.39,1.53c0.24,0.59,0.72,1.77,1.46,3.59c-2.06,0.68-3.81,1.85-5.44,1.7
		c-5.43-0.49-10.87-1.2-16.22-2.27c-13.95-2.81-27.8-6.11-41.78-8.73c-16.68-3.12-33.49-5.52-50.17-8.64
		c-16.41-3.06-32.77-6.45-49.08-10.01c-21.14-4.61-42.22-9.47-63.29-14.34c-6.66-1.54-13.16-3.9-19.87-5.1
		c-25.96-4.64-51.06-12.54-76.36-19.7c-14.24-4.03-28.42-8.22-42.64-12.31c-1.57-0.45-3.24-1.1-4.8-0.97
		c-7.45,0.64-13.97-2.38-20.6-4.93c-8.23-3.17-16.37-5.82-25.55-4.61c-4.15,0.55-8.61-1.18-13.49-1.96
		c-4.68,2.82-11.23,0.7-16.74,3.97c2.13,4.18,3.9,7.67,6.26,12.31c3.52,2.13,8.12,4.92,13.05,7.9c4.18,0.64,8.76,1.33,14.04,2.14
		c1.1-0.42,2.86-1.1,4.48-1.73c1,0.22,1.86,0.26,2.6,0.58c10.86,4.71,21.96,8.41,33.92,9.1c1.82,0.11,3.61,1.17,5.38,1.87
		c7.64,3.02,15.26,6.12,22.92,9.1c4.94,1.92,9.96,3.25,14.39,0.43c9.74,3.17,18.75,6.46,27.97,9c7.09,1.95,14.49,2.76,21.67,4.42
		c5.85,1.36,11.58,3.24,17.37,4.89c5.79,1.65,11.6,3.27,17.38,4.94c4.27,1.23,8.52,2.16,12.52-0.43c8.19,2.34,16.08,4.65,24,6.85
		c7.92,2.21,15.92,3.62,24.15,4.47c10.57,1.1,21.06,3.51,31.43,5.99c11.99,2.87,23.78,6.56,36.27,6.65c0.44,0,0.88,0.53,2.05,1.28
		c-1.21,1.01-2.26,2.62-3.22,2.56c-5.73-0.35-11.51-0.65-17.12-1.77c-9.93-1.98-19.72-4.72-29.64-6.78
		c-5.61-1.16-11.36-1.59-17.05-2.38c-4.34-0.6-8.72-0.99-12.98-1.93c-9.9-2.18-19.71-4.77-29.61-6.9
		c-3.96-0.85-8.08-0.94-12.12-1.39c-2.44-0.27-4.93-0.32-7.29-0.92c-13.29-3.33-26.54-6.8-39.81-10.2
		c-2.65-0.68-5.35-1.19-7.99-1.89c-12.41-3.32-24.81-6.68-38.94-10.48c-8.77,2.49-18.25-2.19-27.28-6.26
		c-11.92-5.37-24.72-6.99-36.94-10.88c-0.78-0.25-1.65-0.51-2.42-0.39c-7.99,1.29-15.79,0.29-23.54-2.4
		c-1.36,2.27-2.44,4.1-3.82,6.4c6.38,11.99,12.16,24.38,21.22,35.05c2.33,0.71,4.65,1.42,7.34,2.25c1.21-1.56,2.34-3,3.62-4.65
		c9.62-4.7,19.35-0.81,29.21,0.58C1119.48,1707.98,1127.82,1711.06,1135.6,1715.79z"/>
	<path d="M1043.11,319.42c-1.37,8.07-2.68,16.14-4.14,24.19c-2.82,15.6-6.02,31.13-8.53,46.77c-3.81,23.75-7.17,47.58-10.73,71.37
		c-1.05,7.03-2.13,14.06-3.23,21.08c-4.5,28.63-8.37,57.38-13.72,85.85c-4.09,21.78-8.48,43.49-11.31,65.48
		c-0.87,6.75-1.02,13.59-1.52,20.68c4.29,5.14,6.42,11.88,11.88,16.28c2.48,4.16,4.63,8.57,7.55,12.39c2.8,3.67,4.6,8.5,9.65,10.68
		c2.74-10.2,2.85-19.94,1.52-29.71c-0.23-1.67-1.72-3.17-2.55-4.62c-8.37,0.05-6.64,9.01-11.73,11.89c-1.41-0.14-3.01-0.3-4.6-0.46
		c1.87-4.51,3.74-9.01,5.52-13.3c4.78-2.29,8.93-4.28,12.36-5.93c4.64,0.46,5.79,3.37,6.74,6.24c2.98,8.99,3.46,18.15,1.77,27.5
		c-1.16,6.45-1.88,12.98-2.8,19.54c2.21,3.73,4.21,7.3,6.41,10.75c1.88,2.96,3.97,5.78,6.65,9.63c5.2-10.66,1.15-21.64,6.16-32.6
		c0.29-0.32,1.75-1.91,3.07-3.35c0.24-0.73,0.58-1.27,0.55-1.77c-0.51-6.99,1.6-13.54,3.39-20.13c2.51-9.25,5.12-18.47,7.78-27.67
		c0.48-1.67,1.37-3.23,3.4-4.7c0.24,2.34,0.93,4.74,0.63,7.02c-0.8,6.22-1.62,12.5-3.15,18.57c-2.48,9.81-5.97,19.37-8.21,29.23
		c-1.94,8.51-2.81,17.27-4.01,25.95c-0.79,5.68-1.33,11.4-1.95,16.83c5.5,10.42,12.87,18.95,19.9,27.66
		c12.9,16,25.48,32.21,36.87,49.33c0.91,1.37,1.98,2.62,3,3.91c9.11,11.63,18.29,23.2,27.29,34.91c1.91,2.49,3.19,5.47,3.65,9.09
		c-1.28-1.13-2.75-2.1-3.8-3.41c-15.27-19-30.48-38.05-45.71-57.08c-10.96-13.69-21.94-27.36-32.93-41.02
		c-0.68-0.85-1.72-1.48-2.21-2.41c-7.48-14.46-18.66-26.34-27.75-39.68c-10.02-14.7-20.96-28.78-31.06-43.43
		c-12.6-18.26-24.72-36.85-37.11-55.25c-8.57-12.72-16.9-25.62-26.01-37.95c-5.17-7-11.6-13.08-17.61-19.43
		c-5.14-5.44-11.32-9.26-19.3-10.99c1.68,2.66,3.16,5.02,4.79,7.61c-1.17,0.95-1.97,1.59-2.99,2.42c-2.87-1.61-5.61-3.13-8.28-4.63
		c-2.18,2.59-0.96,4.66,0.07,6.46c4.36,7.6,8.67,15.24,13.4,22.62c7.09,11.07,14.42,21.99,21.83,32.85
		c1.97,2.89,4.61,5.31,6.92,7.97c1.79,2.06,3.7,4.04,5.27,6.25c3.97,5.59,7.71,11.33,11.67,16.92c1.89,2.68,3.67,5.65,6.17,7.65
		c5.49,4.41,8.8,10.37,12.77,15.91c6.84,9.56,13.01,19.57,20.93,28.4c5.27,5.87,9.15,12.97,14.01,19.25c2.06,2.65,5.04,4.59,9,8.09
		c0.7,1.38,1.99,4.71,3.94,7.59c1.98,2.92,4.83,5.24,6.94,8.1c11.73,15.86,23.06,32.02,35.07,47.66
		c12.7,16.54,23.72,34.21,35.77,51.18c2.21,3.11,4.54,6.19,7.15,8.96c10.21,10.84,17.99,23.43,26.13,35.77
		c0.42,0.64,0.58,1.46,0.91,2.33c-4.59-2.12-5.55-2.88-9.1-7.17c-17.62-21.32-34.88-42.91-51.08-65.34
		c-1.03-1.43-2.4-2.62-4.78-5.19c-0.22,4.17-0.38,6.77-0.49,9.36c-0.15,3.53,0.15,7.15-0.48,10.59c-2.1,11.35-3.9,22.69-3.12,34.3
		c0.07,1.02-0.38,2.08-0.64,3.36c-1.74,0-3.25,0-5.11,0c-0.9-8.77-0.6-17.22,0.21-25.64c0.81-8.42,1.91-16.82,2.79-24.46
		c-1.23-2.28-1.99-3.69-2.87-5.31c1.78-3.91,3.58-7.85,5.19-11.38c-3.58-7.64-27.17-38.86-32.55-43.07
		c-2.09,4.03-2.11,8.43-2.88,12.58c-0.8,4.3-0.88,8.75-1.87,12.99c-0.98,4.23-2.69,8.29-4.1,12.5c-0.71,0.39-1.37,0.97-2.12,1.11
		c-0.71,0.13-1.5-0.2-2.81-0.42c2.52-16.03,5-31.86,7.63-48.65c-2.7-3.64-5.93-8-9.52-12.83c-0.83-0.08-2.11-0.21-3.56-0.36
		c-3.09,5.79-0.15,10.93,0.82,16.42c-1.16,0.99-2.34,1.99-3.03,2.57c-2.75,15.57-5.67,30.6-7.98,45.73
		c-1.32,8.64-1.41,17.47-2.49,26.16c-0.74,5.96-2.12,11.86-3.5,17.71c-0.29,1.24-1.83,2.18-3.79,4.37c-0.15-2.81-0.5-4.09-0.23-5.23
		c2.16-9.15,2.21-18.46,2.53-27.78c0.19-5.71,1.4-11.39,2.13-17.09c2.43-19.01,4.88-38.02,7.27-57.04c0.83-6.6,0.35-13.12-1.7-19.94
		c-2.43-2.74-5.13-5.78-7.79-8.77c-3.13,0.27-3.69,2.41-3.83,4.61c-0.2,2.98-1.03,5.34-4.91,6.26c-0.48-1.43-1.45-2.87-1.31-4.2
		c0.4-3.8,0.99-7.62,2-11.3c1.19-4.32,0.64-7.98-2.16-11.54c-5.51-7.02-10.82-14.2-17.06-22.43c-2.7,8.88-0.52,17.19-4.82,25.06
		c4.8,6.42,9.8,13.11,14.81,19.8c-9.78-6.72-16.1-16.55-23.76-25.11c-7.66-8.56-15.03-17.38-21.42-24.8
		c-4.32-5.93-7.5-10.66-11.04-15.1c-11.42-14.36-23.12-28.5-34.43-42.95c-11.47-14.67-22.61-29.6-33.87-44.44
		c-4.47-5.89-8.79-11.89-13.32-17.74c-8.22-10.61-16.28-21.36-24.92-31.63c-4.54-5.4-10.18-9.88-15.3-14.79
		c-2.57-2.46-5.16-4.91-7.65-7.46c-4.07-4.17-9.22-5.36-15.19-6.4c0,3.92,0,7.06,0,10.83c3.35,4.26,6.99,8.68,10.38,13.28
		c3.24,4.4,6.16,9.04,9.34,13.49c7.64,10.66,15.32,21.29,23.04,31.88c5.47,7.51,10.88,15.08,16.61,22.39
		c3.84,4.9,8.89,8.7,12.34,14.1c5.14,8.04,10.97,15.65,16.57,23.4c2.41,3.33,4.83,6.67,7.49,9.79c2.28,2.68,5.05,4.95,7.37,7.6
		c3.78,4.31,8.09,8.36,10.91,13.26c7.02,12.2,16.18,22.77,24.76,33.76c6.38,8.18,13.79,15.55,20.82,23.38
		c2.01,4.21,4.11,8.61,6.75,14.14c-4.97-3.38-7.38-7.65-10.32-11.28c-9.49-11.69-18.71-23.59-28.04-35.41
		c-16.46-20.85-33.08-41.59-49.35-62.59c-18.11-23.37-35.89-47-53.86-70.48c-7.98-10.43-16.09-20.76-24.13-31.15
		c-4.78-6.17-7.99-12.99-8.57-21.97c1.48-2.11,3.44-4.9,5.62-8.03c5.94,2.16,11.26,4.1,14.95,5.44c4.52,3.02,7.64,5.1,10.75,7.18
		c0.2-0.23,0.4-0.47,0.59-0.7c2.32,3.04,4.63,6.09,7.42,9.75c4.72,1.37,7.16,5.98,10.21,10.22c5.59,7.77,11.68,15.18,17.6,22.71
		c0.84,1.07,2.07,1.89,2.75,3.05c8.62,14.73,20.38,27.13,30.26,40.92c7.33,10.24,14.06,20.91,22.85,30.08
		c3.19,3.33,5.38,7.58,8.19,11.29c8.44,11.12,16.86,22.26,25.49,33.23c9.47,12.05,19.17,23.93,28.78,35.86
		c0.82,1.02,1.79,1.93,3.34,3.58c3.59-8.72,1.15-17.35,3.46-24.54c-7.93-10.89-14.86-21.46-22.85-31.16
		c-17.13-20.78-30.81-43.88-45.7-66.16c-3.3-4.94-4.46-10.52-4.74-17.05c1.28-1.25,2.58-3.07,4.35-4.12c1.8-1.07,4.19-1.1,6.05-2.09
		c1.88-1,3.43-2.62,5.3-4.1c4.21,1.31,8.29,2.59,12.38,3.86c4.72,3.73,9.46,7.43,14.15,11.21c1.05,0.85,2.05,1.83,2.87,2.91
		c9.32,12.17,18.73,24.29,27.83,36.63c3.04,4.12,5.27,8.84,8.4,14.17c3.93-8.51,3.62-16.78,5.44-24.57
		c1.86-7.96,4.11-15.84,6.66-25.53c1.16,2.6,1.99,3.6,1.97,4.58c-0.12,5.19,0.07,10.47-0.82,15.54
		c-2.25,12.93-5.02,25.78-7.52,38.33c4.23,9.11,12.47,21.17,17.42,25.31c0.63-4.52,1.14-8.74,1.82-12.95
		c1.39-8.65,2.65-17.32,4.33-25.91c4.94-25.26,10.32-50.43,15.03-75.73c4.06-21.8,7.34-43.75,11.14-65.61
		c2.39-13.76,5.34-27.42,7.57-41.2c2.57-15.94,4.12-32.06,7.04-47.93c3.02-16.42,7.1-32.64,10.84-48.92c0.41-1.77,1.67-3.34,2.53-5
		C1043.27,319.59,1043.11,319.42,1043.11,319.42z"/>
	<path d="M1051.36,1707.96c-0.15,7.66-7.51,7.46-11.36,11.9c-1.28,4.56,0.1,9.42,2.69,14.07c2.13,3.83,4.4,7.58,6.44,11.45
		c1.33,2.54,3.54,4.94,2.19,8.77c-1.2-0.44-2.46-0.51-2.99-1.17c-6.04-7.47-11.52-15.31-15.21-24.84c1.06-2.55,2.19-5.28,3.53-8.5
		c-8.66,0.84-17.11-1.98-26.22-0.49c1.72,7.65,9.32,12.54,8.78,20.84c-4.9-1.49-5.01-1.62-18.86-22.33
		c-8.77-2.95-17.87-6.47-27.82-7c-2.09-0.11-4.29-0.97-6.15-2.01c-5.36-2.97-11.03-4.78-17.07-5.57c-2.67-0.35-5.38-0.73-7.34-3.12
		c0.33-0.8,0.62-1.52,1.12-2.74c6.12,1.07,12.45,1.48,18.29,3.36c8.05,2.59,16.05,4.35,24.53,4.67c4.24,0.16,8.35,2.46,12.63,3.15
		c10.5,1.68,21.11,1.91,31.73,1.23c0.73-0.05,1.43-0.59,2.36-0.99c-0.11-3.48-2.68-4.71-5.19-5.6c-6.7-2.38-13.42-4.8-20.28-6.63
		c-6.55-1.75-13.46-2.24-19.92-4.22c-12.51-3.85-25.55-6.22-37.39-11.93c-4.7-1.1-9.41-2.19-14.11-3.32
		c-3.16-0.76-6.29-1.66-9.46-2.39c-3.4-0.78-6.06-2.17-6.25-6.69c6.98-0.54,13.06,2.08,19.34,3.46c6.39,1.41,12.83,2.64,19.14,4.34
		c6.27,1.68,12.41,3.85,19.38,4.66c-3.4-4.77-6.79-9.55-10.2-14.31c-3.51-4.89-7.05-9.76-10.24-14.16
		c-3.55-1.72-6.49-3.14-10.12-4.91c-4.99-0.34-10.7-0.66-16.41-1.13c-4.5-0.37-6.18-1.28-10.08-5.2c1.54-0.35,2.77-0.94,3.94-0.84
		c3.54,0.3,7.11,0.63,10.58,1.38c11.22,2.43,22.68,3.32,33.81,6.53c7.76,2.24,16.15,2.32,24.71,3.42c0.69-0.76,1.55-1.71,2.46-2.71
		c-1.91-5.47-5.98-8.84-10.04-11.86c-5.45-4.06-11.56-7.24-17.2-11.06c-10.68-7.25-22.9-10.33-35.23-12.77
		c-13.65-2.71-27.44-4.68-41.17-6.98c-0.54-0.09-1.14-0.1-1.6-0.36c-8.57-4.89-18.77-3.44-27.68-7.07c-1.42-0.58-3.2-0.26-5.3-0.39
		c-0.64-1.52-1.3-3.09-2.25-5.37c2.68-0.15,4.58-0.59,6.34-0.28c5.65,0.98,11.44,1.69,16.81,3.57c4.46,1.56,8.94,2.25,13.51,3
		c11.07,1.82,22.1,3.9,33.15,5.85c0.99,0.17,2.02,0.11,3.76,0.19c-6.44-10.62-12.49-20.6-18.96-31.26
		c-14.14-3.41-28.95-7.25-43.9-10.54c-20.85-4.58-41.93-8.08-62.17-15.26c-6.36-2.26-13.27-2.96-19.91-4.44
		c-4.8-1.07-9.55-2.39-14.37-3.32c-6.75-1.3-12.04-5.11-16.94-9.57c-4.97-4.51-5.52-9.64-1.72-16.46
		c8.36-0.69,16.69-1.82,25.56,0.64c8.68,2.41,17.37,4.52,25.58,8.3c1.47,0.68,3.2,1.52,4.68,1.31c5.82-0.8,10.68,1.67,15.72,3.83
		c2.23,0.95,4.8,2.17,7.03,1.87c4.98-0.66,9.14,1.04,13.38,3.04c1.73,0.82,3.48,1.8,5.33,2.15c14.14,2.69,27.51,9.33,43.06,8.28
		c-0.48-1.28-0.74-2.5-1.35-3.49c-5.12-8.41-6.9-17.86-8.2-27.35c-0.84-6.1,0.26-11.95,5.9-15.35c4.43,0.2,6.4,3.04,8.36,5.59
		c2.84,3.69,5.4,7.59,7.98,11.47c6.53,9.81,13,19.66,19.52,29.48c1.66,2.51,3.62,4.91,1.7,8.96c-1.47-1.32-2.95-2.26-3.92-3.59
		c-8.58-11.72-17.06-23.51-25.6-35.26c-1.9-2.62-3.88-5.19-6.05-8.07c-2.97,7.87,1.76,23.47,10.54,36.39c0,1.64,0,3.19,0,5.09
		c6.56,1.6,12.92,3.15,20.01,4.87c1.98,4.8,7.46,3.48,11.61,5.21c4.19,1.74,8.27,3.77,13.44,6.15c-2.09-5.35-5.55-8.81-6.17-13.88
		c6.6-1.61,7.23,4.02,9.25,7.18c2.12,3.32,3.33,7.22,5.32,11.73c5.82,0.29,10.82,4.18,15.62,8.91c2.99,2.94,7.06,4.78,10.6,7.09
		c0.97,2.38,2.02,4.97,3.22,7.94c-0.55,0.84-1.27,1.92-2.38,3.61c-5.55-1.91-10.96-3.68-16.31-5.62
		c-5.37-1.94-10.68-4.04-17.23-6.53c0.65,2.5,0.73,4.02,1.41,5.19c2.21,3.79,4.65,7.43,6.97,11.15c1.47,2.37,1.44,2.39,1.14,7.45
		c-5.7-3.27-8.44-8.66-11.85-13.37c-3.36-4.65-6.48-9.48-9.77-14.33c-4.4-0.92-8.61-1.8-13.04-2.73c0.95,6.65,5.28,15.1,14.84,29.34
		c9.92,3.21,19.99,6.47,28.94,9.37c7.31,4.02,13.86,7.14,19.89,11.06c6.04,3.92,12.21,7.83,17.46,14.23
		c2.03,3.75,1.69,8.58,1.22,13.55c-2.8,1.63-7.34-0.34-8.04,4.58c2.81,8.5,11.7,14.12,13.26,25.24c-6.42-3.84-9.47-8.86-13-13.38
		c-3.54-4.53-7.03-9.12-10.96-14.23c-3.16-1.44-6.89-3.14-10.81-4.93c-2.26,0.51-4.61,1.05-7.25,1.65c0.11,0.72,0.02,1.55,0.37,2.09
		c5.92,9.2,11.9,18.36,18.24,28.11c7.43,1.77,15.14,3.51,22.8,5.46c7.95,2.03,15.89,4.14,23.75,6.5c2.3,0.69,4.41,2.18,6.43,3.56
		C1043.45,1702.12,1047.14,1704.91,1051.36,1707.96z M755.64,1522.24c6.02,6.07,12.01,9.33,19.14,10.98
		c12.24,2.84,24.44,5.93,36.57,9.2c13.48,3.64,26.84,7.61,40.68,9.8c7.28,1.15,14.5,2.83,21.62,4.75
		c14.23,3.84,28.26,8.49,42.6,11.88c9.29,2.2,18.59,3.91,27.54,7.52c6.89,2.78,14.31,4.24,22.82,6.67
		c-4.4-4.26-7.35-8.25-12.71-8.96c-4.73-0.63-8.71-2.95-12.84-5.17c-5.27-2.84-10.85-5.15-16.42-7.38
		c-3.26-1.3-6.86-1.74-10.13-3.02c-11.26-4.39-22.64-8.16-34.85-8.73c-2.16-0.1-4.37-0.55-6.44-1.19
		c-12.78-3.94-26.46-4.89-38.35-11.63c-4.37-0.28-8.8-0.55-12.78-2.04c-5.16-1.94-10.04-4.25-15.8-3.42
		c-1.51,0.22-3.27-0.35-4.76-0.95c-10.14-4.15-20.75-6.67-31.34-9.25C765.65,1520.19,761.15,1519.81,755.64,1522.24z"/>
	<path d="M391.04,1437.55c8.38,1,16.49,3.18,24.41,6.12c6.68,2.48,13.21,5.38,19.97,7.59c8.32,2.71,16.8,4.91,25.23,7.29
		c8.42,2.38,16.92,4.5,25.27,7.11c14.37,4.49,28.56,9.57,43,13.82c10.75,3.16,21.79,5.31,32.65,8.09c4.24,1.08,8.31,2.76,12.52,3.99
		c7.34,2.14,14.72,4.1,22.07,6.21c5.26,1.51,10.57,2.91,15.71,4.77c9.05,3.29,18.33,5.26,27.84,6.86c11.3,1.89,22.36,5.24,33.5,8.07
		c9.28,2.36,18.54,4.84,27.79,7.34c5.58,1.5,11.15,2.35,16.79,0.37c-0.7-3.21-1.42-6.48-2.19-10.04c-3.91-2.02-8.03-4.15-12.75-6.59
		c-0.99,0.23-2.53,0.59-5.11,1.19c-8.19-2.56-17.32-5.41-26.44-8.26c-0.26-0.08-0.5-0.24-0.77-0.3
		c-14.82-3.14-28.43-9.74-42.59-14.77c-8.99-3.19-18.4-5.26-27.68-7.61c-22.29-5.66-44.85-10.39-66.85-17.01
		c-25.14-7.57-50.47-14.54-75.09-23.94c-25.8-9.85-52.25-18.05-78.6-26.39c-16.17-5.12-32.77-8.89-49.03-13.76
		c-16.24-4.86-32.32-10.27-48.42-15.6c-3.26-1.08-6.88-1.97-8.71-5.2c0.53-3.03,2.46-3.16,4.39-2.58c3.93,1.18,7.76,2.72,11.69,3.9
		c23.6,7.09,47.13,14.38,71.04,20.47c26.54,6.76,52.49,15.59,78.24,24.97c19.03,6.93,38.11,13.82,57.45,19.8
		c21.17,6.54,42.45,12.7,63.97,18.17c24.9,6.33,50.22,11.36,74.43,20.32c13.85,5.12,27.75,10.12,41.78,14.74
		c7.25,2.39,14.83,3.81,23.1,5.88c0.45,0.6,1.4,1.87,1.76,2.35c4.68,0.95,8.71,1.43,12.51,2.64c3.61,1.16,6.97,3.09,9.81,4.39
		c2.07,4.24,3.79,7.77,6.2,12.72c0.25,3.74-4.57,5.5-7.67,9.42c-6.03-1.11-12.47,1.21-18.9-0.56c-2.37-0.65-5.12-1.01-6.89-2.47
		c-5.08-4.19-11.28-5.43-17.21-7.31c-10.95-3.47-22.01-6.56-33.01-9.81c-5.6,2.33-10.8,1.46-16.13-0.47
		c-6.69-2.42-13.55-4.37-20.37-6.38c-3.67-1.08-7.39-2.44-11.15-2.66c-7.58-0.45-14.47-3.12-21.23-6.03
		c-16.45-7.08-33.36-12.08-51.14-14.72c-8.84-1.31-17.51-4.4-25.98-7.47c-15.46-5.6-30.82-11.35-47.19-13.94
		c-5.62-0.89-11.12-2.94-16.51-4.92c-14.13-5.19-28.18-10.62-42.23-16.01c-1.41-0.54-2.68-1.43-4.01-2.16
		C390.55,1438.64,390.8,1438.1,391.04,1437.55z"/>
	<path d="M884.86,1479.6c-0.9,4.87-2.23,8.94-7.97,9.81c-2.56-0.93-5.35-1.95-8.54-3.12c-4.83-5.44-10.6-10.7-14.83-16.99
		c-7.62-11.31-16.74-21.69-22.22-34.4c-0.97-2.24-2.08-4.63-3.75-6.33c-5.17-5.26-7.67-11.81-10.28-18.5
		c-2.47-6.35-5.86-12.35-8.98-18.43c-4.5-8.76-9.18-17.43-13.71-26.17c-3.65-7.05-7.18-14.16-10.8-21.23
		c-0.87-1.71-2-3.29-2.77-5.04c-7.86-17.84-18.28-34.28-27.75-51.25c-1.83-3.29-3.03-6.93-4.47-10.29c2.89-2.44,4.5-1.07,5.74,0.96
		c3.42,5.61,6.99,11.14,10.04,16.95c13.14,24.96,26.09,50.02,39.15,75.03c2.66,5.1,5.57,10.07,8.2,15.19
		c3.88,7.54,7.51,15.21,11.44,22.73c2.65,5.08,5.6,10.01,8.49,14.97c0.96,1.65,2.21,3.14,3.22,4.76
		c6.22,9.98,11.96,20.31,18.75,29.88c5.51,7.77,12.21,14.71,18.55,21.86c1.17,1.32,3.17,1.89,5.57,3.25
		c0.54-7.16-1.21-12.84-4.5-18.19c-4.3-7-8.61-13.99-12.77-21.08c-6.66-11.33-13.22-22.72-19.78-34.11
		c-9.02-15.66-18.16-31.26-26.94-47.05c-11.44-20.6-22.67-41.32-33.81-62.07c-13.87-25.83-27.5-51.78-41.33-77.63
		c-14.86-27.78-29.62-55.62-44.83-83.2c-7.95-14.41-15.54-28.96-22.24-43.98c-0.77-1.72-1.39-3.5-2.18-5.49
		c1.09-1.02,2.01-1.89,2.94-2.76c1.08,0.49,2.17,0.63,2.46,1.18c3.05,5.78,6.06,11.59,8.91,17.48c2.5,5.17,4.13,10.87,7.28,15.58
		c7.8,11.69,13.54,24.43,20.09,36.76c13.24,24.92,26.64,49.76,39.96,74.63c13.71,25.6,27.39,51.21,41.12,76.8
		c8.94,16.66,17.65,33.44,26.99,49.87c10.14,17.85,20.94,35.33,31.35,53.03c4.72,8.03,9.15,16.22,13.81,24.29
		c4.11,7.11,8.09,14.33,12.61,21.17C881.29,1464.82,882.89,1471.97,884.86,1479.6z"/>
	<path d="M554.65,999.55c1.1-0.22,1.48-0.4,1.56-0.31c7.35,8.37,15.57,15.93,21.3,25.74c14.23,24.38,28.55,48.68,41.57,73.76
		c7.44,14.34,16.19,27.99,23.9,42.2c16.32,30.1,34.28,59.33,48.32,90.64c2.28,5.09,4.25,10.21,2.75,15.85
		c-0.68,2.55-1.94,4.94-2.64,6.65c-3.91,2.14-6.9,1.74-9.47-0.1c-3.53-2.53-7.26-5.04-10.07-8.27c-4.12-4.73-7.5-10.1-11.19-15.21
		c-0.48-0.67-0.73-1.55-1.32-2.08c-12.55-11.37-19.01-26.71-26.33-41.34c-8.73-17.43-18.74-34.07-28.59-50.85
		c-12.34-21.01-23.94-42.47-35.54-63.91c-11.99-22.17-23.6-44.55-35.35-66.85c-12.39-23.52-24.77-47.04-37.11-70.59
		c-1.09-2.08-1.83-4.36-1.67-7.03c3.74,6.24,7.51,12.45,11.22,18.71c13.41,22.63,27.15,45.08,40.09,67.98
		c9.84,17.41,18.53,35.46,27.96,53.1c7.1,13.28,14.57,26.35,21.88,39.52c0.67,1.2,1.41,2.35,2.1,3.53
		c7.42,12.8,15.22,25.39,22.16,38.45c9.13,17.17,17.81,34.58,26.24,52.1c5.65,11.75,12.81,22.23,22.11,31.36
		c2.52,2.47,4.49,5.5,6.67,8.3c3.63,4.67,5.57,6.3,10.88,8.83c2.37-2.83,2.03-5.97,0.74-9.03c-2.65-6.31-5.24-12.67-8.31-18.78
		c-10.21-20.33-21.4-40.12-32.8-59.82c-13.31-23-26.08-46.31-38.86-69.61c-11.6-21.14-22.82-42.48-34.39-63.64
		c-3.15-5.76-7.01-11.12-10.44-16.73C559.51,1008.06,557.18,1003.89,554.65,999.55z"/>
	<path d="M1592.75,1859.82c-0.3,2.37-0.55,4.32-0.77,5.99c-1.42,0.6-2.14,1.14-2.91,1.2c-8.02,0.65-15.88-0.46-23.52-2.77
		c-5.36-1.62-10.57-2.06-16.17-1.17c-3.63,0.57-7.63-0.01-11.25-0.91c-4.82-1.19-9.35-2.43-14.49-1.24
		c-3.03,0.71-6.53-0.02-9.71-0.65c-6.42-1.27-12.7-2.57-19.39-2.79c-6.96-0.23-13.86-2.85-20.77-4.51
		c-11.67-2.81-23.2-6.25-35.26-7.2c-2.71-0.21-5.39-0.86-8.07-1.34c-12.64-2.28-25.22-5.03-37.93-6.77
		c-19.25-2.63-38.31-6.09-57.2-10.58c-1.57-0.37-3.45-0.9-4.83-0.39c-5.6,2.08-10.86-0.03-16.16-1.01
		c-12.37-2.27-24.68-4.86-37.02-7.31c-1.34-0.27-2.79-0.84-4.04-0.58c-10.25,2.14-19.34-2.6-29.45-4.75
		c-4.4,1.49-9.06,0.06-13.88-1.16c-11.63-2.94-23.3-5.83-35.08-8.06c-10.15-1.92-20.48-2.94-30.75-4.26
		c-1.57-0.2-3.22,0.12-5.09,0.22c-1.21,2.18-2.37,4.27-3.54,6.36c-4.78,0.7-8.02-2.21-11.36-4.32c-3.25-2.06-3.47-5.32-1.67-8.87
		c5.31-5.68,12.66-0.89,16.48-2.89c12.76,0.36,22.58,5.51,33.44,4.87c1.82-0.11,3.71,0.82,5.56,1.3c6.33,1.65,12.44,3.94,19.21,3.98
		c3.7,0.02,7.38,1.89,11.07,2.92c2.11,0.59,4.3,1.86,6.32,1.64c9.62-1.05,18.12,3.34,27.15,5.1c1.07,0.21,2.13,0.47,3.69,0.81
		c3.46-2.26,7.42-1.38,11.51-0.55c14.75,3,29.54,5.82,44.31,8.67c1.33,0.26,2.96,0.81,4.02,0.32c5-2.33,9.66-0.3,14.42,0.66
		c12.6,2.55,25.14,5.4,37.8,7.64c12.35,2.18,24.8,3.75,37.21,5.59c0.54,0.08,1.08,0.2,1.62,0.29c15.87,2.8,31.79,5.37,47.6,8.49
		c8.31,1.64,16.42,4.25,24.62,6.42c0.79,0.21,1.59,0.61,2.38,0.61c9.39-0.11,18.35,3.34,27.5,3.77c8.44,0.4,16.82-0.14,24.9,2.86
		c11.39-1.87,22.22,1.64,33.25,3.33C1581.62,1859.57,1586.84,1859.47,1592.75,1859.82z"/>
	<path d="M1222.8,1622.85c15.97,4.13,32.01,8.86,48.32,12.34c22.58,4.82,44.34,12.21,66.18,19.46c1.81,0.6,3.51,1.51,4.74,2.05
		c2.9,3.89,5.46,7.33,8.83,11.85c0.96,2.58-0.72,5.61-2.93,8.38c-3.09,1.39-6.03,2.72-9.31,4.2c-5.41-0.61-11.06-1.34-15.5-6.43
		c0.42-1.37,0.86-2.78,1.45-4.69c3.98,1.6,7.47,3.01,10.99,4.43c2.85-1.47,5.61-2.9,8.89-4.6c-1.48-2.03-3.05-4.17-5.29-7.25
		c-11.32-4.06-23.27-8.91-35.56-12.62c-12.82-3.87-25.99-6.57-38.96-9.94c-10.6-2.75-21.11-5.83-31.71-8.58
		c-3.9-1.01-7.94-1.47-11.96-1.91c-11.4-4.48-23.25-7.68-35.06-11.1c-8.14-2.35-16.09-5.36-24.16-7.99
		c-8.59-2.8-17.22-5.48-25.83-8.23c-11.48-3.67-22.98-7.28-34.42-11.09c-3.06-1.02-5.92-2.66-8.71-4.54
		c11.69,0.74,22.34,5.6,33.49,8.4c11.3,2.83,22.48,6.13,35.25,9.64c-2.5-5.93-4.1-10.53-6.3-14.81
		c-4.39-8.52-8.95-16.96-13.77-25.25c-2.49-4.29-4.77-8.5-5.82-13.46c-1.19-5.61-3.38-11.01-4.68-16.6
		c-0.91-3.92-1.07-8.01-1.57-12.1c5.47-3.49,4.12-10.97,10.17-14.27c7.56,8.22,19.09,10.97,25.29,20.55
		c1.91,2.95,4.41,5.71,5.56,8.94c3.97,11.23,10.23,21.4,16.69,31.03c7.01,10.46,13.25,21.33,20.01,31.9
		C1211.79,1607.91,1217.12,1614.84,1222.8,1622.85z M1211.79,1619.71c-2.38-4.01-3.82-6.56-5.39-9.03c-1.46-2.3-3.1-4.49-4.61-6.77
		c-6.45-9.76-11.38-20.38-18.44-29.89c-6.77-9.12-12.03-19.58-16.63-30.03c-5.52-12.54-14.72-20.53-26.59-26.35
		c-4.85,4-6.01,8.76-4.36,14.2c1.75,5.75,4.34,11.3,5.52,17.14c1.33,6.61,4.39,12.24,7.45,18.06c5.86,11.11,11.34,22.42,16.93,33.66
		c1.2,2.42,2.23,4.92,3.28,7.24C1182.68,1612.82,1196.39,1615.97,1211.79,1619.71z"/>
	<path d="M1080.5,391.62c-1.7,18.26-3.32,36.52-5.12,54.77c-1.07,10.89-2.42,21.76-3.66,32.64c-2.65,23.16-8.26,45.76-12.79,68.57
		c-3.42,17.18-6.03,34.52-9.35,51.72c-1.7,8.81-3.04,17.8-8.98,25.26c-2.16,2.72-3.04,6.42-4.76,9.53
		c-1.41,2.56-3.19,4.92-4.68,7.18c-6.75-0.4-7.78-5.23-9.3-9.72c-2.48-1.58-4.97-3.18-8.01-5.12c-0.32-2.72-0.74-5.65-1-8.6
		c-0.55-6.25-1.29-12.5-1.43-18.76c-0.08-3.77,0.46-7.65,1.36-11.32c1.12-4.52,1.64-9.01,2.12-13.64c0.95-9.21,3.23-18.3,5.11-27.41
		c0.77-3.74,2.03-7.37,2.84-11.1c2.44-11.23,5-22.45,7.08-33.75c2.18-11.84,4.08-23.75,5.69-35.69c2.67-19.81,5-39.66,7.48-59.49
		c0.14-1.09,0.29-2.18,0.55-3.24c4.36-18.34,8.74-36.67,14.01-54.89c-0.8,5.77-1.39,11.59-2.46,17.31
		c-1.31,6.99-2.97,13.91-4.56,20.84c-3.44,14.99-5.3,30.18-6.55,45.5c-0.91,11.17-2.7,22.28-4.34,33.38
		c-2.47,16.78-4.88,33.58-7.83,50.28c-2,11.3-4.89,22.44-7.39,33.65c-1.13,5.07-2.19,10.15-3.41,15.19
		c-1.02,4.21-2.58,8.32-3.27,12.58c-0.82,5.09-1.45,10.3-1.28,15.43c0.29,8.73,1.25,17.44,1.97,26.16c0.09,1.06,0.39,2.1,0.65,3.45
		c2.19,0.51,4.24,0.99,6.75,1.57c1.08,1.71,2.32,3.68,3.96,6.27c5.78-10.86,10.65-21.27,12.87-32.93
		c4.77-25.01,10.24-49.89,14.98-74.9c3.06-16.13,5.3-32.42,7.97-48.62c2.09-12.69,4.34-25.35,6.41-38.04
		c1.94-11.88,3.69-23.79,5.64-35.67c0.47-2.86,1.42-5.65,2.15-8.46C1080.13,391.58,1080.31,391.6,1080.5,391.62z"/>
	<path d="M673.36,285.57c-9.16-14.67-18.07-29.44-27.53-43.84c-4.77-7.27-9.55-14.83-18.29-18.96c-4.82-10.45-9.72-21.1-15.14-32.85
		c3.45,2.65,5.52,5.2,7.34,8.01c5.21,8.04,10.34,16.13,15.65,24.09c3.49,5.23,7.13,10.37,10.92,15.38
		c10.23,13.54,20.66,26.95,30.83,40.53c2.23,2.97,3.75,6.47,4.85,10.2c7.12,8.32,14.48,16.45,21.3,25.01
		c5.78,7.26,10.98,15,16.37,22.57c4.75,6.68,9.28,13.54,14.14,20.14c8.94,12.14,17.4,24.56,24.14,38.1
		c0.72,1.45,1.73,2.78,2.71,4.09c9.67,12.93,19.36,25.84,29.04,38.76c1.31,1.75,2.4,3.75,3.98,5.21
		c8.18,7.51,13.87,16.86,19.66,26.14c2.89,4.63,5.15,9.72,10.11,12.72c0.66,0.4,1.2,1.17,1.55,1.88
		c4.39,8.75,12.11,14.78,18.16,22.16c2.89,3.53,6.86,6.18,10.81,9.63c1.26,0,3.11,0,5.08,0c1.2,0.9,2.47,1.86,3.75,2.83
		c0.37-0.54,0.93-1.03,0.84-1.29c-1.28-3.67-2.39-7.31-0.08-10.58c-1.57-6.23-7-10.4-6.89-17.79c1.94,0.97,3.45,1.38,4.48,2.31
		c6.41,5.82,10.71,13.07,14.06,21.42c-0.95,1.73-1.96,3.59-2.95,5.41c0.29,3.17,0.57,6.34,0.91,10.08
		c-2.93,0.77-5.18,1.36-6.58,1.73c-5.02-2.43-9.11-4.41-13.19-6.39c-24.53-18.55-41.58-43.58-58.1-69.01
		c-2.95-3.08-6.35-5.85-8.77-9.3c-9.29-13.22-17.37-27.4-27.6-39.81c-10.38-12.59-16.95-27.45-26.81-40.24
		c-5.85-7.59-11.6-15.26-17.19-23.05c-2.7-3.77-4.78-7.98-7.4-11.81c-6.34-9.26-12.83-18.42-19.26-27.62
		c-1.57-2.24-3.31-4.38-4.7-6.73C681.17,290.62,678.51,286.88,673.36,285.57z"/>
	<path d="M779.21,1783.08c-6.58,1.86-13.12,0.32-19.88-1.28c-7.42-1.76-15.15-2.19-22.76-3.12c-2.96-0.36-5.77-0.94-7.86-3.96
		c5.19,0.81,10.37,1.76,15.58,2.39c5.14,0.61,10.31,0.88,15.47,1.33c1.9,0.16,3.8,0.34,5.69,0.59c1.62,0.21,3.27,0.91,4.83,0.75
		c14.13-1.49,27.49,3.8,41.37,4.53c7.64,0.4,15.25,1.35,22.86,2.15c2.98,0.31,5.93,0.97,8.9,1.33c13.84,1.69,27.68,3.29,41.51,5.01
		c3.25,0.4,6.45,1.15,9.69,1.69c2.96,0.49,5.93,0.91,8.9,1.38c3.75,0.6,7.48,1.27,11.24,1.81c3.46,0.5,6.94,0.86,12.26,1.51
		c8.29,3.62,18.73,6.42,29.76,6.76c1.37,0.04,2.74,0.18,4.09,0.42c12.35,2.24,24.66,4.78,37.07,6.67c7.26,1.1,14.63,1.3,21.9,2.73
		c6.64,1.32,13.49,1.54,20.17,2.7c3.52,0.61,6.87,0.78,10.45,0.72c4.2-0.07,8.44,1.84,14.03,3.23c4.07-1.07,9.29-0.23,14.61,1.63
		c2.92,1.02,6.31,0.66,10.84,1.04c6.56,5.43,15.44,6.74,26.68,5.25c10.99,2.43,23.66,5.23,36.14,7.99c1.52,4.59-0.67,6.16-3.76,7.16
		c-10.45-2.25-20.76-4.62-31.14-6.64c-4.97-0.97-10.07-1.3-15.06-2.94c-2.16,0.25-4.32,0.51-6.4,0.75
		c-0.62-0.15-1.17-0.23-1.68-0.42c-9.96-3.79-19.99-6.96-30.9-6.75c-3.4,0.06-6.84-1.67-10.29-2.23c-4.27-0.49-8.54-0.91-12.79-1.48
		c-5.4-0.73-10.78-1.63-16.18-2.38c-8.37-1.17-16.75-2.26-25.11-3.43c-2.16-0.3-4.31-0.74-6.45-1.18c-1.88-0.39-3.72-1.02-5.61-1.27
		c-12.71-1.68-25.48-2.97-38.13-5.04c-6.41-1.05-12.58-3.49-18.89-5.2c-3.92-1.07-7.89-1.96-11.85-2.91
		c-2.4-0.57-4.79-1.17-7.21-1.61c-3.19-0.58-6.45-0.87-9.61-1.56c-11.22-2.44-22.7-2.97-34.02-4.68c-5.13-0.78-10.5-0.57-15.44-1.95
		c-12.52-3.49-25.47-2.93-38.15-4.77c-8.66-1.26-17.37-2.18-26.02-3.55C785.41,1785.83,782.92,1784.45,779.21,1783.08z"/>
	<path d="M296.7,1534.83c1.37-2.53,2.09-3.84,2.84-5.23c8.55-0.52,16.63,0.91,24.62,2.59c17.67,3.72,35.3,7.65,52.9,11.67
		c4.52,1.03,8.96,2.53,13.33,4.11c10.66,3.86,22.08,3.88,32.94,6.64c12.45,3.17,24.81,6.68,37.24,9.94
		c4.49,1.18,9.05,2.08,13.59,3.07c9.36,2.04,18.76,3.9,28.07,6.13c11.7,2.8,23.33,5.89,34.98,8.9c2.12,0.55,4.33,1.02,6.25,2.01
		c5.08,2.63,10.23,3.1,15.9,2.29c3.02-0.43,6.42,0.72,9.46,1.72c4.43,1.47,8.66,3.17,13.56,2.29c2.02-0.36,4.36,0.29,6.39,0.96
		c5.44,1.81,11.08,2.88,16.53,4.41c12.3,3.47,24.97,5.92,36.72,11.26c7.22,3.28,15.16,4.07,22.77,5.99c7.41,1.87,8.62,2,12.69,5
		c-0.25,0.69-0.34,1.6-0.83,2.13c-0.69,0.75-1.68,1.22-2.75,1.96c-2.2-1.43-4.21-2.73-6.61-4.28c-1.51,0.46-3.28,0.99-5.48,1.66
		c-1.07-1.26-2.25-2.67-3.61-4.27c-1.57,0.86-3.18,1.74-5.2,2.86c-2.14-1.74-4.21-3.43-6.62-5.39c-1.32,0.72-2.91,1.6-5.06,2.77
		c-3.15-2.34-6.39-4.75-9.18-6.82c-5.42-0.42-10.42-0.82-15.9-1.25c-6.27-2.66-12.4-7.69-19.86-5.25c-4.87-2.17-9.1-4.06-13.24-5.91
		c-2.65,0.73-4.99,1.38-7.76,2.14c-5.02-2.03-10.33-4.18-15.43-6.25c-3.79,0.62-7.28,1.19-10.53,1.72
		c-12.33-7.02-25.26-10.96-39.15-11.74c-1.62-0.09-3.27-0.46-4.81-0.97c-14.08-4.66-28.63-7.26-43.16-9.94
		c-4.28-0.79-8.51-1.99-12.64-3.37c-11.96-4.01-23.95-7.81-36.51-9.47c-2.44-0.32-4.96-0.9-7.34-0.59
		c-6.25,0.83-11.9-0.94-17.58-3.11c-24.66-9.44-50.19-15.47-76.29-19.17C307.37,1535.42,302.75,1535.3,296.7,1534.83z"/>
	<path d="M620.45,775.26c3.52,1.69,5.45,4.66,7.26,7.64c9.09,14.99,18.11,30.01,27.16,45.03c0.42,0.7,0.85,1.41,1.18,2.17
		c9.66,22.13,22.79,42.45,33.46,64.07c7.15,14.48,15.29,28.49,23.18,42.6c9.09,16.26,18.42,32.38,27.62,48.58
		c6.76,11.91,13.49,23.84,20.23,35.77c2.83,5.01,5.61,10.05,8.47,15.05c11.3,19.74,22.63,39.46,33.93,59.2
		c3.25,5.69,5.4,11.71,5.31,20.15c-2.62-3.65-4.56-5.92-6.02-8.46c-6.13-10.7-12-21.55-18.19-32.21
		c-7.29-12.56-14.93-24.92-22.21-37.48c-6.86-11.85-13.35-23.92-20.19-35.79c-7.8-13.53-15.94-26.87-23.66-40.45
		c-4.6-8.09-8.66-16.48-13.01-24.71c-9.35-17.69-18.66-35.39-28.12-53.02c-6.08-11.34-12.47-22.52-18.6-33.83
		c-3.26-6.02-6.08-12.27-9.4-18.25c-8.78-15.81-17.75-31.52-26.61-47.28C620.81,781.47,619.06,778.92,620.45,775.26z"/>
	<path d="M1191.1,1481.67c6.89,10.53,13.49,20.6,20.08,30.69c0.9,1.38,2.09,2.71,2.48,4.24c2.36,9.33,8.81,16.28,13.75,24.11
		c4.36,6.91,8.74,13.65,10.98,21.82c1.86,6.77,5.79,12.96,8.13,17.96c0,6.35,0,11.12,0,15.97c-5.43,3.22-10.93-2.34-16.36,1.33
		c-6.56-7.31-15.68-11.38-20.67-19.97c-1.64-2.83-1.71-2.79-1.89-8.28c1.59,0.84,3.35,1.17,4.03,2.21
		c4.75,7.25,12.65,11.1,18.44,17.84c2.28-0.99,4.45-1.92,6.6-2.86c0.64-2.63,1.21-5,1.65-6.81c-6.59-18.98-15.67-36.03-26.11-52.54
		c-7.73-12.24-13.62-25.63-20.82-38.22c-5.98-10.46-10.66-21.51-15.95-32.28c-1.09-2.21-2.16-4.54-3.76-6.35
		c-6.66-7.5-10.48-16.52-14.68-25.45c-7.81-16.62-16.72-32.76-27.4-47.66c-8.67-12.1-15.19-25.21-21.81-38.37
		c-2.33-4.63-5.27-8.96-7.9-13.44c-1.66-2.83-3.38-5.64-4.88-8.56c-8.24-16.09-16.47-32.18-24.6-48.32
		c-10.72-21.28-21.49-42.54-33.93-62.87c-15.21-24.85-26.72-51.52-38.92-77.85c-3.3-7.11-6.28-14.38-8.67-21.9
		c1.04,1.88,2.16,3.72,3.1,5.65c10,20.41,19.92,40.86,29.99,61.24c3.4,6.87,7.07,13.61,10.74,20.35c7.6,13.94,15.36,27.8,22.9,41.78
		c5.72,10.6,11.14,21.35,16.82,31.97c2.84,5.31,6.02,10.44,8.94,15.7c3.72,6.7,7.19,13.54,11.02,20.17
		c11.1,19.19,19.85,39.67,32.05,58.26c2.69,4.11,4.67,8.67,7.13,12.94c7.95,13.74,16.01,27.41,23.98,41.14
		c6.19,10.66,12.23,21.4,18.5,32.01c4.17,7.07,8.68,13.94,12.93,20.97C1189.54,1472.53,1191.64,1476.99,1191.1,1481.67z"/>
	<path d="M1205.66,1565.59c-1.86,0.84-2.56,1.16-3.23,1.46c-8.74-12.22-182.06-330.65-187.1-347.68
		c5.73,9.46,11.74,18.77,17.12,28.42c12.28,22.01,24.18,44.23,36.38,66.28c4.1,7.42,8.75,14.54,12.92,21.93
		c11.97,21.23,23.81,42.53,35.74,63.78c8.58,15.28,17.41,30.43,25.78,45.82c10.2,18.77,20.02,37.75,30,56.64
		c9.34,17.67,18.7,35.33,27.96,53.05C1202.85,1558.39,1204.01,1561.72,1205.66,1565.59z"/>
	<path d="M541.06,306.09c4.31,4.5,8.95,8.73,12.85,13.56c6.88,8.52,13.3,17.4,19.91,26.13c0.66,0.87,1.39,1.71,1.96,2.64
		c12.63,20.58,28.68,38.67,42.57,58.33c2.2,3.11,4.95,5.82,7.76,9.08c1.99-0.92,3.83-1.78,5.85-2.72c5,3.21,8.66,8.78,16.16,9.29
		c-1.61-6.43-2.06-12.38-4.82-17.71c-4.54-8.75-9.64-17.08-15.83-24.88c-6.96-8.77-12.77-18.45-18.97-27.81
		c-4.69-7.08-9.55-13.94-15.3-20.29c-5.48-6.05-9.71-13.22-14.65-19.78c-4.28-5.68-8.75-11.22-13.2-16.77
		c-7.88-9.83-15.82-19.6-23.69-29.43c-0.98-1.23-1.69-2.68-1.73-4.91c1.2,0.71,2.66,1.19,3.57,2.16
		c7.3,7.79,14.43,15.73,21.73,23.52c11.26,12,21,25.23,31.42,37.9c14.51,17.64,26.42,36.92,39.18,55.69
		c2.14,3.15,5.11,5.76,7.17,8.96c4.14,6.43,7.92,13.09,11.85,19.65c-0.75,2.39-1.39,4.41-2.08,6.57c1.02,2.69,2.09,5.49,3.11,8.18
		c-1.29,4.62-4.19,6.4-7.21,5.97c-6.54-2.48-11.73-4.45-17-6.45c-1.13,0.46-2.36,0.99-3.62,1.46c-0.22,0.08-0.53-0.06-1.34-0.17
		c-6.52-4.91-11.39-11.89-16.19-18.83c-11.51-16.69-23.54-32.94-36.22-48.79c-9.02-11.28-16.16-24.06-24.08-36.22
		c-3.1-4.77-6.03-9.65-9.03-14.48L541.06,306.09z"/>
	<path d="M890.32,1211.6c-6.4,2.06-4.24,8.15-6.91,11.59c3.46,15.15,13.56,27.09,18.24,43.21c-0.03,0.39-0.21,2.53-0.38,4.6
		c0.46,0.85,0.77,1.61,1.24,2.27c4.42,6.26,9.03,12.39,13.25,18.77c3.47,5.24,6.53,10.76,9.68,16.2c1.92,3.32,3.4,6.91,5.53,10.07
		c7.7,11.42,13.59,23.71,18.46,36.55c0.96,2.54,2.36,4.93,3.65,7.35c5.67,10.62,11.4,21.22,17.05,31.85
		c0.48,0.9,0.59,1.98,1.33,4.57c-2.09-1.54-3.23-2.01-3.81-2.86c-1.84-2.71-3.54-5.54-5.18-8.38c-4.52-7.82-9.05-15.63-13.43-23.53
		c-1.85-3.34-3.55-6.81-4.96-10.36c-4.76-11.98-9.71-23.83-17.77-34.1c-1.67-2.13-2.93-4.64-4.1-7.11
		c-3.67-7.71-8.34-14.72-13.48-21.54c-10.11-13.42-17.51-28.41-23.36-44.1c-2.84-7.62-4.71-15.59-6.95-23.15
		c1.24-3.61,2.38-6.92,3.92-11.41c1.38-1.72,3.57-4.44,5.75-7.16c3.06,1.06,5.83,2.01,8.6,2.97c1.78,1.69,3.57,3.38,5.35,5.07
		c-0.21,0.16-0.43,0.32-0.64,0.47c2.13,3.06,4.24,6.13,6.38,9.18c0.47,0.67,1.13,1.23,1.51,1.94c4.37,8.19,9.41,16.11,12.91,24.66
		c8.73,21.35,18.68,41.98,31.44,61.26c2.99,4.52,5.15,9.65,7.24,14.69c3.25,7.84,6.87,15.22,11.99,22.23
		c5.24,7.16,8.14,16.03,11.97,24.2c0.21,0.44-0.52,1.32-1.17,2.83c-1.37-1.58-2.52-2.59-3.28-3.84
		c-5.41-8.88-10.97-17.68-16.01-26.76c-3.04-5.48-5.12-11.49-7.87-17.15c-2.61-5.39-5.33-10.75-8.35-15.92
		c-6.36-10.87-13.4-21.36-19.3-32.46c-3.82-7.19-6.24-15.14-9.08-22.83c-4.41-11.93-10.85-22.6-19.08-32.25
		c-1.05-1.23-1.61-2.85-2.48-4.24C896.33,1215.97,894.17,1213.17,890.32,1211.6z"/>
	<path d="M676.49,802.33c4.7,0.68,7.06,3.57,9.19,6.7c0.46,0.67,0.76,1.46,1.13,2.19c15.7,31.38,33.53,61.58,51.01,91.97
		c9.56,16.62,18.25,33.74,27.4,50.6c10.32,19.03,20.39,38.21,31.19,56.96c7.24,12.57,15.55,24.52,23.38,36.74
		c1.58,2.47,3.14,4.95,4.93,7.75c-1.74,1.14-2.81,1.84-3.54,2.32c-3.66-0.64-5-3.16-6.48-5.41c-3.61-5.5-6.93-11.19-10.66-16.6
		c-21.39-30.99-37.33-65.05-55.39-97.93c-11.74-21.37-23.87-42.52-35.78-63.8c-12.45-22.23-24.82-44.5-35.14-67.83
		C677.2,804.83,676.9,803.56,676.49,802.33z"/>
	<path d="M1370.09,1679.35c0.37-1.81,0.69-3.34,1.01-4.91c1.77-0.65,3.26-1.2,5.27-1.94c0.01-3.36-2.71-7.36,1.24-10.7
		c5.79,0,11.88,0,19.58,0c7.25,2.43,16.06,5.39,24.88,8.33c1.3,0.43,2.63,1.09,3.94,1.1c12.05,0.08,22.82,5.05,34.05,8.43
		c10.19,3.07,20.68,5.11,31.03,7.66c2.84,0.7,5.63,1.59,8.29,2.35c-0.05,3.6-2.08,3.68-3.97,3.31c-10.46-2.07-20.94-4.06-31.32-6.49
		c-5.83-1.36-11.61-3.2-17.19-5.38c-9.3-3.64-19.39-3.14-28.81-6.04c-2.61-0.8-5.49-0.91-7.93-2.02c-8.17-3.74-17.09-3.07-25.6-4.77
		c-0.44-0.09-0.98,0.32-1.32,0.44c0,4.02,0,7.98,0,12.62c6.44,3.11,12.8,6.31,20.95,6.87c11.35,0.78,22.67,3.44,33.75,6.29
		c15.63,4.01,31.2,8.12,47.27,10.1c5.14,0.63,10.2,1.91,15.27,3.03c10.94,2.44,21.89,4.89,32.78,7.52c2.15,0.52,5.18-0.3,6.3,3.23
		c-3.2,2.11-6.64,1.8-10.1,1.13c-12.34-2.41-24.66-4.95-37.03-7.22c-5.36-0.98-10.91-1.06-16.23-2.19
		c-13.34-2.85-27.04-4.16-39.84-9.44c-3.49-1.44-7.37-2.12-11.15-2.65c-8.64-1.22-17.48-1.42-25.94-3.34
		C1388.66,1692.25,1378.06,1689.07,1370.09,1679.35z"/>
	<path d="M705.49,376.81c11.22,9.72,21.14,20.62,29.64,32.8c9.39,13.44,18.81,26.86,28.48,40.66c-3.17,4.54,1.28,10.04-2.05,14.72
		c-4.28,1.42-8.08,0.96-11.96-1.13c-6-3.23-12.62-5.5-18.17-9.34c-5.32-3.67-10.28-8.31-14.24-13.42
		c-10.55-13.61-20.36-27.79-30.71-41.56c-5.42-7.22-11.4-14.02-17.06-21.06c-5.83-7.25-11.71-14.47-17.34-21.88
		c-7.78-10.24-14.99-20.93-23.07-30.92c-15.67-19.36-31.65-38.46-46.41-58.57c-10.85-14.78-22.74-28.79-34.1-43.19
		c-2.84-3.6-5.45-7.39-7.76-11.46c3.01,1.75,5.16,4.31,7.28,6.98c24.19,30.46,48.37,60.92,72.68,91.29
		c9.23,11.54,18.77,22.84,28.15,34.25c0.87,1.06,1.7,2.15,2.51,3.25c7.88,10.85,15.56,21.81,24.57,31.83
		c13.38,14.87,25.13,31.07,36.94,47.21c3.87,5.29,8.24,10.21,10.53,13.03c7.73,4.87,13,8.2,19.43,12.25
		c0.18,0.01,1.78,0.15,3.46,0.29c3.51,2.18,5.5,6.76,11,7.38c-0.98-4.91-1.87-9.35-3.15-15.73c-4.47-5.98-10.02-13.43-15.6-20.86
		c-0.82-1.09-1.96-1.99-2.6-3.16c-7.61-14.04-17.64-26.38-27.29-38.98c-1.15-1.5-1.99-3.22-2.98-4.84L705.49,376.81z"/>
	<path d="M531.51,1544.04c1.38-1.28,2.73-2.54,3.91-3.64c5.77,1.06,11.13,2.05,16.49,3.04c0.54,0.1,1.18,0.06,1.59,0.35
		c8.52,5.82,18.86,4.78,28.24,7.33c17.93,4.88,36.1,8.87,54.16,13.28c9.56,2.33,19.11,4.67,28.63,7.15
		c13.47,3.51,26.9,7.17,40.35,10.71c2.37,0.62,4.8,1,7.2,1.51c4.52,0.97,9.05,1.94,13.56,2.96c1.33,0.3,2.61,0.86,3.94,1.13
		c8.55,1.67,17.12,3.24,25.65,5.01c1.12,0.23,2.05,1.41,3.34,2.34c-2.42,4.1-6.2,3.62-9.73,4.32c-6.57-2.47-13.28-4.93-20.63-3.68
		c-0.78,0.13-1.65-0.06-2.43-0.27c-9.76-2.57-19.49-5.32-29.29-7.74c-11.92-2.94-23.93-5.53-35.87-8.43
		c-9.01-2.19-17.96-4.65-26.95-6.92c-12.44-3.14-24.9-6.22-37.36-9.32c-2.38-0.59-4.77-1.14-7.16-1.69
		c-5.84-1.34-11.68-2.67-17.52-3.99c-0.53-0.12-1.12-0.1-1.6-0.32c-10.57-4.84-22.35-4.92-33.26-8.47
		C534.6,1547.99,532.57,1547.56,531.51,1544.04z"/>
	<path d="M814.16,655.26c-2.82-3.63-5.59-7.29-8.45-10.89c-15.85-19.93-31.86-39.75-47.53-59.81
		c-13.32-17.04-26.21-34.42-39.4-51.56c-8.17-10.62-16.72-20.95-24.75-31.67c-5.73-7.66-10.88-15.75-15.08-24.2
		c-1.79-6.5-3.58-12.99-5.55-20.12c0.65-1.37,1.57-3.31,2.4-5.03c-0.75-4.02-5.32-7.04-2.23-11.63c4.57-0.66,5.64,3.94,9.52,5.87
		c1.23,0.05,3.35,0.15,6.45,0.29c3.94,4.37,8.31,9.23,12.71,14.07c1.65,1.81,3.4,3.52,5.06,5.31c2.22,2.4,4.64,4.65,6.53,7.28
		c6.56,9.12,12.92,18.38,19.35,27.59c0.31,0.45,0.52,1,0.89,1.38c10.94,10.89,16.34,25.89,27.33,36.76
		c1.84,1.82,1.61,2.06,1.92,7.37c-1.39-1.13-2.5-1.78-3.29-2.7c-8.75-10.19-16.59-21.03-24.3-32.04
		c-10.03-14.33-19.91-28.87-32.18-41.52c-4.38-4.52-8.35-9.43-12.64-14.04c-2.02-2.17-2.17-2.04-7.17-1.13
		c2.34,3.66,4.55,7.03,6.66,10.47c2.06,3.35,5.11,6.25,6.12,11.73c-2.61-0.86-4.35-0.93-5.23-1.83c-1.89-1.94-3.4-4.26-4.95-6.51
		c-1.66-2.41-3.17-4.92-5.28-7.08c0.38,7.88,4.88,13.77,9.57,19.95c-0.19,1.93-0.41,4.06-0.67,6.65
		c4.52,8.06,10.17,15.73,16.6,22.89c2.35,2.62,4.31,5.58,6.46,8.38c9.7,12.56,19.4,25.11,29.13,37.65c1.34,1.73,2.93,3.27,4.24,5.01
		c9.72,12.9,18.91,26.24,29.22,38.65c10.87,13.09,21.1,26.6,30.79,40.56c2.96,4.27,5.88,8.56,8.82,12.85
		C814.89,654.54,814.53,654.9,814.16,655.26z"/>
	<path d="M645.25,1074.77c-2.56,0.29-4.25,0.47-6.59,0.73c-2.69-5.96-5.6-11.53-7.74-17.38c-4.93-13.46-11.46-26.04-19.23-38.05
		c-2.22-3.44-4.04-7.15-5.92-10.8c-10.05-19.48-19.35-39.39-30.3-58.35c-9.74-16.88-18.54-34.18-27.28-51.56
		c-5.66-11.26-11.53-22.42-17.7-33.4c-3.07-5.46-6.82-10.59-10.62-15.59c-4.88-6.42-8.18-13.6-11.08-21.01
		c-0.5-1.29-0.07-2.94-0.07-6.2c2.51,2.38,4.24,3.34,4.92,4.79c4.91,10.49,11.08,20.16,18.3,29.2c0.85,1.06,1.51,2.29,2.13,3.51
		c9.44,18.26,18.81,36.55,28.29,54.78c4.17,8.02,8.49,15.96,12.86,23.88c4.76,8.64,9.76,17.15,14.47,25.82
		c13.47,24.8,27.13,49.51,40.15,74.55C635.48,1050.58,639.76,1062.18,645.25,1074.77z"/>
	<path d="M888.36,1316.23c5.02,0.87,6.94,4.57,9.01,8.01c6.18,10.31,12.23,20.71,18.27,31.11c3.72,6.39,7.59,12.71,10.96,19.28
		c6.9,13.44,14.97,26.13,23.62,38.48c0.94,1.34,1.92,2.69,2.68,4.13c13.62,25.82,31.62,48.61,49.37,71.58
		c4.01,5.19,7.59,10.73,11.46,16.03c4.52,6.19,9.14,12.31,13.75,18.44c5.76,7.66,11.59,15.27,17.32,22.95
		c0.78,1.05,1.11,2.42,1.76,3.9c-0.88,1.12-1.66,2.13-2.47,3.16c-1.04-0.38-2.09-0.43-2.49-0.97c-4.59-6.12-9.04-12.35-13.62-18.48
		c-4.91-6.56-10.3-12.79-14.82-19.6c-10.47-15.77-21.66-30.96-33.87-45.42c-3.52-4.16-6.3-8.95-9.4-13.46
		c-3.87-5.62-7.73-11.25-11.58-16.89c-0.77-1.13-1.65-2.22-2.21-3.46c-7.11-15.53-18.14-28.67-26.44-43.47
		c-8.3-14.82-16.61-29.63-24.85-44.48c-4.9-8.83-8.63-18.31-14.58-26.58C889.33,1319.28,888.97,1317.67,888.36,1316.23z"/>
	<path d="M841.82,457.77c-1.8,0.8-2.95,1.32-4.35,1.94c-5.02-4.67-9.06-9.79-12.65-15.3c-4.04-6.19-8.06-12.31-13.34-17.65
		c-3.59-3.63-6.08-8.41-8.75-12.87c-11.54-19.29-24-37.95-37.56-55.89c-3.3-4.36-6.21-9.01-9.4-13.46
		c-7.18-10-14.48-19.92-21.6-29.96c-2.84-4-5.76-8.04-7.89-12.42c-5.29-10.9-11.6-21.1-18.98-30.71
		c-7.69-10.01-14.05-20.85-18.68-33.07c0.63,0.52,1.44,0.92,1.88,1.57c11.85,17.44,24.03,34.67,35.35,52.44
		c8.86,13.9,18.22,27.32,29.1,39.7c1.81,2.05,3.36,4.33,4.99,6.53c5.35,7.28,10.89,14.43,15.97,21.89
		c9.72,14.26,19.33,28.6,28.67,43.11c5.04,7.84,10.06,15.58,16.05,22.8c6.97,8.41,12.86,17.72,19.15,26.68
		C840.56,454.19,840.89,455.57,841.82,457.77z"/>
	<path d="M884.24,1033.99c3.92,6.86,7.56,12.83,10.82,19.01c14.06,26.63,27.65,53.5,42.14,79.89c7.35,13.39,15.51,26.45,26.27,37.64
		c2.22,0.49,4.3,0.95,5.44,1.2c8.35,14.48,15.86,28.48,24.29,41.89c11.83,18.82,21.15,38.96,31.95,58.31
		c9.47,16.96,19.4,33.66,29.22,50.41c2.76,4.71,5.94,9.18,8.78,13.86c0.6,0.99,0.57,2.38,1.01,4.43c-4.16-1.77-5.74-4.59-7.44-7.32
		c-9.54-15.33-19.14-30.62-28.59-46.01c-2.14-3.49-3.79-7.27-5.64-10.93c-2.96-5.86-5.7-11.85-8.9-17.57
		c-12.43-22.21-25.01-44.34-37.51-66.52c-2.01-3.57-3.87-7.22-4.87-9.1c-4.27-3.12-7.3-4.83-9.7-7.18
		c-9.27-9.08-16.52-19.76-22.79-31.02c-8.51-15.29-16.55-30.85-24.65-46.37c-6.08-11.65-11.98-23.39-17.9-35.13
		c-3.45-6.84-6.79-13.74-10.14-20.64C884.86,1040.44,883.23,1038.11,884.24,1033.99z"/>
	<path d="M1070.18,733.21c-1.37,0.24-2.39,0.42-3.52,0.62c-0.39-0.89-1.04-1.65-0.97-2.32c1.79-16.03,3.33-32.1,5.63-48.06
		c1.33-9.19,3.5-18.31,6.05-27.25c5.73-20.06,9.72-40.48,12.93-61.05c3.59-23.01,7.97-45.83,13.46-68.46
		c4.19-17.29,7.54-34.77,11.36-52.15c4.29-19.52,9.17-38.93,12.86-58.57c3.2-17.03,7.9-33.55,13.64-49.84
		c1.25-3.54,2.37-7.14,5.94-11.57c-0.2,2.95-0.04,4.19-0.4,5.26c-2.1,6.23-4.5,12.36-6.47,18.62c-2.95,9.39-6.14,18.76-8.33,28.34
		c-5.49,24.03-10.57,48.14-15.61,72.27c-3.36,16.07-6.47,32.2-9.52,48.34c-3.57,18.84-7,37.7-10.4,56.57
		c-3.21,17.79-6.21,35.61-9.49,53.39c-1.68,9.13-4.05,18.11-6.23,27.13c-3.51,14.55-7.16,29.15-7.69,44.33
		C1073.13,716.69,1071.38,724.52,1070.18,733.21z"/>
	<path d="M638.97,1540.39c-13.34-2.77-24.67-3.45-34.74-7.63c-4.15-0.72-7.81-1.35-12.94-2.23c-0.32,0.08-2.13,0.56-3.94,1.04
		c0.04-0.33,0.07-0.66,0.11-0.99c-7.12-1.51-14.23-3.12-21.38-4.47c-3.91-0.74-7.22-1.99-9.19-6.71c1.92-0.49,3.4-1.27,4.8-1.14
		c4.36,0.4,8.73,0.91,13.01,1.78c19.52,3.96,39.03,8,58.52,12.14c8.27,1.76,16.47,3.69,24.38,6.94c5.26,2.16,11.04,3.04,16.58,4.52
		c11.63,3.11,23.26,6.2,34.88,9.37c2.37,0.65,4.63,1.73,7,2.34c4.21,1.08,8.48,1.95,12.72,2.89c0.53,0.12,1.1,0.04,1.63,0.16
		c12.99,2.94,25.97,5.89,38.94,8.83c0.09,1.35,0.41,2.26,0.13,2.9c-0.42,0.95-1.27,1.7-1.67,2.21c-3.92,1.62-6.85-0.29-9.9-1.34
		c-2.84-0.98-5.64-2.11-8.83-3.31c-4.93,1.69-9.82,0.21-14.84-1.27c-3.28-0.96-6.88-0.83-10.44-0.68
		c-9.88-4.8-20.62-6.81-31.27-9.27c-7.11-1.65-13.93-4.61-21.06-6.15c-7-1.51-13.55-3.58-19.96-6.92
		C647.36,1541.24,642.15,1541.1,638.97,1540.39z"/>
	<path d="M1362.89,1860.85c-1.15,2.53-1.95,4.29-2.56,5.63c-1.43,0.16-2.05,0.42-2.5,0.25c-6.99-2.79-14.33-3.1-21.72-3.44
		c-4.04-0.19-8.15-0.96-12.03-2.11c-16.02-4.74-32.24-8.37-48.78-10.79c-6.44-0.94-12.73-3.02-19.06-4.67
		c-1.84-0.48-3.57-1.42-5.41-1.9c-14.01-3.69-28.08-7.18-42.05-11c-7.36-2.01-14.58-4.51-21.83-6.89c-1.21-0.4-2.26-1.32-3.69-2.18
		c0.58-1.53,1.04-2.72,1.54-4.04c5.78-1.08,10.93,1.09,16.09,2.46c14.26,3.79,28.37,8.17,42.67,11.79
		c17.16,4.34,34.19,9.19,51.82,11.76c9.9,1.44,19.4,5.46,29.19,7.91c5.79,1.45,11.76,2.66,17.7,2.98
		C1348.91,1856.96,1355.15,1858.62,1362.89,1860.85z"/>
	<path d="M1127.91,698.04c-4.76-1-9.69,0.89-13.7-3.29c-0.72-7.24-2.83-14.37-4.74-21.55c-0.07-0.26-0.19-0.55-0.16-0.8
		c1.36-10.45-1.96-21.2,2.5-31.55c1.67-3.87,1.9-8.5,2.2-12.82c0.86-12.64,3.15-24.94,7.58-37.11c-0.25-2.33-1.12-5.07-0.72-7.61
		c1.81-11.64,3.96-23.22,6.06-34.81c0.17-0.95,0.86-1.81,2.01-4.11c1.07,2.82,2.26,4.41,2.14,5.91
		c-0.88,11.19-1.77,22.39-3.23,33.51c-0.39,3-2.75,5.75-3.83,7.9c-1.34,9.56-2.75,18.48-3.79,27.43c-0.91,7.84-1.4,15.73-1.72,23.64
		c-3.04,14.35-7.01,28.67,2.76,42.67c1.52-0.08,3.88-0.2,7.26-0.37c1.69-4.56,3.98-9.54,5.35-14.77c2.21-8.37,6.42-16.28,5.99-25.29
		c-0.05-1.02,0.69-2.06,0.98-3.12c1.45-5.27,2.83-10.57,4.35-15.82c0.51-1.77,1.37-3.43,2.19-5.45c3.36,1.75,2.66,4.38,2.24,6.59
		c-1.56,8.34-3.56,16.58-7.61,24.15C1143.85,662.22,1134.92,683.3,1127.91,698.04z"/>
	<path d="M690.96,1284.9c-1.37-7.23,2.21-13.24,4.58-19.35c7.98-4.18,11.08-3.57,16.58,2.67c13.89,15.78,24.09,33.94,32.73,52.86
		c15.4,33.71,33.27,65.94,54.27,96.46c2.79,4.05,5.36,8.27,7.87,12.5c0.6,1.01,0.58,2.4-0.4,4.23c-4.77-6.51-9.67-12.94-14.3-19.54
		c-15.9-22.65-30.25-46.26-43.18-70.73c-5.88-11.13-11.17-22.56-16.94-33.74c-7.04-13.63-14.77-26.84-24.86-38.53
		c-1.63-1.88-2.8-4.15-6.32-3.22c-3.1,5.15-4.95,11.02-5.41,17.86c-1.93-0.68-3.4-1.19-4.86-1.71L690.96,1284.9z"/>
	<path d="M1125.8,1486.55c2.19-1.63,4.1-3.05,6.12-4.55c-0.89-6.34-7.06-11.6-3.5-18.57c-1.3-2.65-2.5-5.1-3.7-7.55
		c-9.89-20.1-19.68-40.24-29.73-60.26c-3.55-7.08-7.6-13.92-11.63-20.75c-4.43-7.49-9.12-14.83-13.62-22.28
		c-0.5-0.83-0.47-1.99-0.97-4.35c1.77,1.14,2.76,1.44,3.21,2.11c7.59,11.37,15.54,22.53,22.52,34.27
		c7.12,11.97,13.95,24.2,19.67,36.88c6.29,13.94,12.13,28.06,20.52,40.52c-0.63,2.58-1.08,4.41-1.67,6.83
		c2.21,5.3,4.61,11.07,6.74,16.18c-0.82,5.16-5.74,3.38-8.01,6.29c0.6,2.9,1.24,6.03,1.92,9.34c-3.43,4.49-7.99,6.21-13.37,6.86
		c-1.9-2.24-3.65-4.28-5.37-6.31c-1.67-0.41-3.25-0.79-4.78-1.17c-4.37-5.3-4.37-11.65-5-18.2c0.9-0.85,1.81-1.72,3.04-2.89
		c5.58,5.1,5.34,13.75,12.55,17.52c1.4-0.48,3.15-1.08,5.07-1.74C1125.8,1492.15,1125.8,1489.75,1125.8,1486.55z"/>
	<path d="M898.26,1395.97c0.55,0.95,1.06,1.93,1.66,2.85c8.21,12.61,16.65,25.07,24.59,37.84c9.25,14.87,18.06,30.02,27.12,45.01
		c2.69,4.45,5.24,9.04,8.43,13.12c3.84,4.89,8.37,9.23,12.48,13.92c5.76,6.58,11.41,13.25,17.09,19.89
		c10.58,12.37,22.6,23.03,36.97,30.84c4.33,2.35,8.85,4.31,14.5,3.52c1.08-2.49,2.21-5.1,3.5-8.07c1.38,0.72,2.26,1.18,3.14,1.64
		c0.99,5.3-1.61,8.52-5.69,11.36c-7.84,1.37-14.94-1.61-21.7-5.22c-12.69-6.77-23.35-16.19-33.15-26.61c-0.93-0.99-1.98-2-2.56-3.19
		c-6.96-14.22-18.84-24.69-28.13-37.13c-2.94-3.94-5.55-8.13-8.14-12.3c-10.68-17.21-20.95-34.68-32.08-51.59
		c-5.87-8.91-12.1-17.57-16.84-27.16c-1.17-2.36-2.14-4.83-3.2-7.24C896.92,1396.94,897.59,1396.46,898.26,1395.97z"/>
	<path d="M1242.57,1862.72c-6.18,2.23-11.25-0.25-16.51-1.98c-1.83,0.32-3.69,0.65-5.85,1.03c-5.54-4.3-13.07-1.95-19.2-5.62
		c-5.78-3.46-13.56-2.25-18.85-7.54c-1.63,0.63-3.12,1.21-4.6,1.78c-4.94-2.46-4.94-2.46-4.02-7.91c8.41,1.65,16.81,3.29,25.21,4.94
		c0.05-0.22,0.1-0.44,0.15-0.65c2.47,1.15,4.93,2.31,7.5,3.51c1.49-0.39,3.03-0.79,4.7-1.22c2.67,1.38,5.33,2.76,7.99,4.13
		c0.08-0.29,0.17-0.58,0.25-0.87c3.62,0.68,7.32,1.06,10.82,2.12c4.23,1.29,8.32,2.72,12.78,0.72c2.6,1.04,5.1,2.13,7.66,3.05
		c2.05,0.73,4.18,1.83,6.26,1.79c10.3-0.18,19.69,3.56,29.29,6.41c6.23,1.85,12.49,3.63,19.29,5.6c2.75-0.5,6.13-1.11,10.2-1.85
		c0,2.64,0,4.37,0,6.48c-2.41,1.26-4.79,2.5-7.21,3.76c-2.02-0.43-3.98-0.58-5.72-1.27c-12.73-5.06-25.9-8.66-39.37-10.8
		C1256.35,1867.2,1249.24,1867.02,1242.57,1862.72z"/>
	<path d="M1581.19,1776.01c-1.76,3.81-4.18,3.59-6.21,3.13c-5.86-1.32-11.64-2.97-17.45-4.5c-5.8-1.52-11.59-3.1-17.41-4.57
		c-17.23-4.36-34.78-7.26-51.82-12.58c-10.88-3.4-22.4-4.77-33.65-6.96c-13.7-2.67-27.39-5.22-40.67-9.75
		c-5.12-1.75-10.74-2.02-16.11-3.06c-7.5-1.46-14.98-3.02-22.48-4.5c-2.38-0.47-4.78-0.83-7.52-1.3c-0.16-1.09-0.3-2.08-0.57-3.93
		c2.37-0.11,4.6-0.79,6.42-0.21c14.17,4.53,28.83,6.3,43.5,8.05c0.8,0.1,1.64,0.28,2.37,0.63c11.5,5.55,24.01,7.44,36.35,9.83
		c7.76,1.5,15.64,2.38,23.44,3.64c2.69,0.43,5.35,1.08,7.99,1.77c8.72,2.28,17.38,4.8,26.15,6.9c11.96,2.86,24.01,5.4,36,8.14
		c2.12,0.48,4.17,1.29,6.27,1.9c6.82,1.98,13.64,3.94,20.47,5.92C1577.7,1774.97,1579.16,1775.41,1581.19,1776.01z"/>
	<path d="M1101.52,1486.62c-2.75-3.24-5.14-5.49-6.85-8.17c-9.71-15.22-19.56-30.33-26.81-47.01c-6.43-14.8-13.76-29.2-20.48-43.87
		c-3.76-8.2-7.06-16.61-10.66-24.88c-1.97-4.51-3.89-9.07-6.28-13.36c-11.2-20.07-23.96-39.14-36.96-58.09
		c-10.69-15.59-18.78-32.73-25.4-50.48c-0.14-0.37,0.25-0.94,0.47-1.68c3.06,1.47,3.94,4.44,4.97,7.11
		c7.45,19.3,18.73,36.42,29.9,53.67c11.3,17.45,21.94,35.34,32.76,53.09c1.56,2.55,2.79,5.36,3.79,8.19
		c7.89,22.24,20.59,42.22,29.92,63.78c8.19,18.92,19.05,36.33,29.69,53.88C1101.2,1481.43,1101.15,1481.46,1101.52,1486.62z"/>
	<path d="M465.97,1591.77c3.82-1.05,6.88,0.45,9.86,1.51c9.41,3.35,18.89,5.06,28.97,3.59c3.31-0.48,7.01,0.72,10.36,1.71
		c5.25,1.56,10.4,2.8,15.97,3.12c5.06,0.29,10.11,2.13,14.99,3.82c5.66,1.96,11.06,4.6,17.29,4.57c2.09-0.01,4.26,0.92,6.27,1.73
		c8.97,3.63,18.33,5.15,27.68,5.53c4.73,1.77,9.21,3.45,14.12,5.29c-0.85,1.75-1.41,2.9-2.05,4.23c-3.13,0-6.09,0-9.26,0
		c-3.9-2.36-8.03-3.62-13-3.45c-7.09,0.24-14.15-1.24-20.25-5.4c-3.31-2.25-6.74-3.44-10.8-2.54c-3.99,0.88-7.52-0.77-10.98-2.46
		c-4.65-2.28-9.28-4.59-13.82-6.83c-6.38,1.65-12.17,1.12-17.75-1.91c-3.99-2.16-8.27-2.04-12.75-1.14
		c-12.26,2.48-23.12-1.8-33.54-7.67c-0.44-0.25-0.8-0.77-1.01-1.25C466.07,1593.75,466.12,1593.18,465.97,1591.77z"/>
	<path d="M1221.7,445.35c-0.35,1.52-0.58,3.08-1.06,4.56c-4.16,12.78-7.08,25.8-8.96,39.13c-1.6,11.37-4.5,22.56-6.17,33.93
		c-2.39,16.24-4.15,32.58-6.24,48.86c-1.36,10.58-2.87,21.15-4.22,31.73c-0.86,6.78-1.51,13.59-2.35,20.38
		c-0.23,1.86-0.84,3.66-1.34,5.71c-1.26,0-2.26,0-3.37,0c-0.25-0.86-0.75-1.65-0.66-2.38c1.59-14.12,2.1-28.33,4.48-42.4
		c2.1-12.38,2.9-24.98,4.4-37.47c0.65-5.42,1.46-10.84,2.45-16.21c2.97-16.15,6.03-32.28,9.1-48.4
		C1210.3,469.58,1214.52,456.96,1221.7,445.35z"/>
	<path d="M740.66,1114.78c1.13,0.92,1.86,1.24,2.17,1.8c11.82,21.01,23.9,41.88,35.3,63.12c12.43,23.17,23.99,46.81,36.38,70.01
		c7.09,13.28,15.09,26.07,22.63,39.11c2.33,4.03,4.49,8.16,6.7,12.26c9.88,18.32,19.76,36.64,29.59,54.99
		c1.24,2.31,2.13,4.81,2.14,7.83c-0.67-0.67-1.51-1.23-1.98-2.01c-4.63-7.76-9.35-15.47-13.75-23.35
		c-14.7-26.3-29.54-52.53-43.83-79.05c-12.73-23.63-24.77-47.63-37.19-71.43c-6.33-12.14-12.83-24.2-19.25-36.29
		c-6.04-11.37-12.09-22.73-18.11-34.11C741.11,1117.04,741.05,1116.25,740.66,1114.78z"/>
	<path d="M1125.54,721.95c3.33,2.79,2.76,5.55,2.27,8.24c-1.51,8.33-3.2,16.63-4.56,24.98c-0.79,4.84-1.21,9.76-1.56,14.66
		c-0.53,7.33-0.87,14.67-1.3,22.23c-1.76,0.46-2.98,0.78-4.65,1.21c-1.9-21.75,0.33-42.71,5.94-63.86
		c-3.28-0.63-5.87-1.13-8.75-1.68c-1.65-1.88-3.39-3.88-5.16-5.9c-2.64,3.35-7.73,14.94-9.1,21.76c-1.55,7.72-2.62,15.54-3.99,23.81
		c-1.35,0.3-2.8,0.63-4.28,0.96c-0.56-1.09-1.18-1.76-1.24-2.48c-0.91-11.17,2.17-21.69,5.41-32.16c1.21-3.9,2.63-7.78,4.43-11.43
		c1.29-2.62,3.37-4.86,5.11-7.28c2.82,0,5.21,0,7.73,0c1.65,2.69,3.2,5.21,4.86,7.9C1119.74,722.58,1122.66,722.26,1125.54,721.95z"
		/>
	<path d="M1192.38,1365.76c4.27,2.38,6.04,6.82,8.48,10.62c11.09,17.32,20.9,35.38,29.14,54.21c2.8,6.39,3.84,13.56,5.55,20.41
		c0.23,0.94-0.37,2.08-0.52,2.83c-3.85,2.08-7.39,3.98-11.64,6.27c-3.34-1.65-7.37-3.65-12.48-6.18c-2.6-3.83-7.54-7.75-7.09-15.17
		c5.17,1.74,6.34,6.4,9.19,9.58c2.16,0.76,4.43,1.56,6.64,2.34c2.31-2.15,4.49-4.17,6.86-6.37c-0.46-2.31-0.53-4.89-1.48-7.09
		c-4.44-10.3-8.81-20.65-13.81-30.67c-4.39-8.81-9.74-17.12-12.81-26.6c-1.59-4.9-3.88-9.58-5.85-14.35L1192.38,1365.76z"/>
	<path d="M853.45,1018.8c8.05,13.29,13.29,28,20.43,41.76c7.31,14.08,13.93,28.51,21.21,42.61c7.15,13.86,14.63,27.55,22.19,41.19
		c7.69,13.88,15.65,27.61,23.48,41.41c7.67,13.51,15.32,27.03,22.85,40.32c-0.61,0.68-0.76,0.99-0.98,1.05
		c-0.21,0.06-0.59-0.08-0.74-0.26c-0.69-0.83-1.39-1.67-1.97-2.58c-39.66-63.05-74.83-128.52-105.36-196.47
		c-1.2-2.67-1.9-5.57-2.84-8.36C852.3,1019.25,852.87,1019.03,853.45,1018.8z"/>
	<path d="M716.96,1201.5c0.85,4.51,1.65,8.77,2.57,13.64c-1.2,0.77-2.6,1.67-4.47,2.87c-1.19-2.9-2.67-5.06-2.91-7.35
		c-1.07-9.93-6.49-17.98-11.43-26.05c-4.6-7.51-8.41-15.32-11.71-23.4c-3.22-7.91-6.71-15.51-13.05-21.56
		c-2.12-2.02-3.71-4.77-5.03-7.43c-3.77-7.59-7.33-15.29-10.82-23.01c-0.6-1.32-0.46-2.96-0.68-4.56c3.99-0.23,5.27,2.42,6.64,4.67
		c7.82,12.83,15.98,25.47,23.18,38.64C698.81,1165.45,707.62,1183.36,716.96,1201.5z"/>
	<path d="M1188.62,1405.28c-2.01,1.04-2.88,1.48-4.05,2.08c-3.28-6.36-6.28-12.41-9.49-18.37c-4.92-9.14-10.08-18.05-16.35-26.46
		c-5.16-6.91-8.32-15.35-12.05-23.27c-3.62-7.69-7.09-15.41-12.83-21.85c-1.06-1.19-1.83-2.74-2.44-4.24
		c-4.44-10.88-8.81-21.79-13.17-32.7c-0.16-0.4,0.12-0.99,0.27-1.98c2.82,1.68,4.43,4.15,5.89,6.68c2.18,3.79,4.26,7.65,6.25,11.55
		c13.69,26.8,27.83,53.35,43.14,79.28C1179.17,1385.14,1183.42,1394.94,1188.62,1405.28z"/>
	<path d="M1035.01,235.65c-7.39,22.22-9.98,45.37-13.36,68.38c-1.43,9.75-3.16,19.46-4.75,29.19c-1.64,9.99-3.15,20-4.96,29.96
		c-1.37,7.53-3.28,14.96-4.68,22.49c-3.12,16.69-6.07,33.4-9.11,50.1c-0.48,2.65-1.07,5.29-1.73,8.56c-1.86-0.52-3.23-0.9-5.25-1.46
		c0.44-3.01,0.65-5.69,1.26-8.29c3.53-15.2,7.29-30.35,10.69-45.58c1.9-8.53,3.93-17.08,3.72-25.96c-0.05-2.13,0.59-4.32,1.19-6.41
		c6.53-22.7,9.89-46,13.48-69.28c2.21-14.31,3.63-28.81,8.75-42.51c1.19-3.18,1.44-7.04,4.91-9.04L1035.01,235.65z"/>
	<path d="M1486.2,1726.06c4.53,0.46,8.86,0.57,13.04,1.4c6.93,1.38,14,2.6,20.61,5.01c13.43,4.89,27.46,7.29,41.22,10.79
		c4.76,1.21,9.68,1.77,14.47,2.86c3.71,0.84,7.4,1.89,11,3.14c5.92,2.06,11.78,4.29,17.62,6.57c1.92,0.75,3.71,1.85,7.15,3.61
		c-3,1-4.47,2.07-5.58,1.77c-6.59-1.74-13.1-3.78-19.63-5.74c-5.21-1.57-10.34-3.45-15.63-4.72c-20.19-4.82-40.7-8.28-60.47-14.86
		c-5.93-1.97-12.24-2.84-18.36-4.23C1488.93,1731.04,1486.29,1730.33,1486.2,1726.06z"/>
	<path d="M849.12,1716.63c2.98-2.27,5.89-1.97,8.52-0.2c9.99,6.72,21.36,9.52,32.91,11.78c9.65,1.89,19.27,4.36,29.03,5.23
		c18.78,1.67,36.02,8.82,53.87,13.82c2.84,0.8,5.79,1.23,7.5,1.59c4.01-0.99,3.78-6.49,8.22-4.47c-0.5,1.25-0.98,2.46-1.62,4.08
		c4.58,1.79,9.11,3.56,13.69,5.35c0.11,0.86,0.2,1.64,0.34,2.78c-1.05,0.29-2.12,0.94-3.01,0.76c-4.8-1-9.61-2.01-14.31-3.37
		c-12.89-3.74-25.72-7.66-38.58-11.49c-1.84-0.55-3.66-1.21-5.54-1.51c-12.17-1.96-24.4-3.6-36.52-5.79
		c-14.79-2.67-29.74-4.81-43.65-11.05C855.95,1722.32,851.97,1720.62,849.12,1716.63z"/>
	<path d="M827.27,1759.08c-0.11,1.92-0.19,3.18-0.27,4.68c-1.57,0.34-2.92,1-4.15,0.83c-5.94-0.82-11.99-1.33-17.72-2.95
		c-8.29-2.35-16.63-2.22-25.08-2.54c-10.86-0.42-21.88-0.61-32.39-5.28c-4.04,1.58-8.13,2.08-12.45,0.1
		c-1.78-0.82-4.28,0.09-6.42-0.11c-2.89-0.27-5.16-1.43-5.41-5.67c2.29-0.24,4.34-0.8,6.31-0.62c20.9,1.9,41.68,4.97,62.69,6.06
		C803.99,1754.18,815.46,1757.14,827.27,1759.08z"/>
	<path d="M1097.49,1780.53c6.37-0.14,6.37-0.14,9.49,4.59c-2.04,0.11-3.86,0.2-5.73,0.3c-0.65,2.35-1.3,4.69-1.92,6.92
		c-3.68,3.52-7.78,4.73-12.76,4.87c-6.14,0.17-12.24,1.54-18.53,2.42c-17.73-4.05-35.91-5.33-54.09-4.79
		c-0.48-0.61-1.02-0.99-1.08-1.44c-0.09-0.74,0.14-1.52,0.26-2.53c3.96-2.19,8.22-2.68,12.63-2.87c12.97-0.56,25.58,2.08,38.27,4.12
		c2.69,0.43,5.4,0.8,8.04,0.24c4.5-0.67,8.99-1.56,13.52-1.94c3.57-0.3,7.18-0.04,10.17-3.62
		C1096.24,1785.03,1096.89,1782.72,1097.49,1780.53z"/>
	<path d="M684.58,1686.06c-7.2-0.59-13.39-5.43-21.05-4.28c-1.8,1.41-3.71,2.91-5.51,4.33c-8.44,0.94-14.42-5.31-21.88-6.7
		c-7.61,1.87-7.61,1.87-12.95-2.17c1.24-0.74,2.2-1.73,3.3-1.91c10.72-1.83,10.71-1.76,22.07,2.54c2.54,0.96,5.17,1.66,7.36,2.35
		c10.98-4.41,10.96-4.32,23.24-1.32c4.48,1.1,9.12,1.49,13.64,2.47c12.51,2.71,25,5.54,37.49,8.35c1.01,0.23,1.96,0.75,3.37,1.31
		c-0.28,1.41-0.52,2.6-0.79,3.96c-8.4,0.55-15.22-6.4-23.55-3.23c-6.28-2.58-12.58-5.17-19.43-7.99
		C688.35,1684.44,686.4,1685.28,684.58,1686.06z"/>
	<path d="M1138.54,813.63c-2.21-13.71-2.79-26.13,1.88-38.31c0.67-1.76,0.99-3.7,1.2-5.59c0.7-6.24,1.19-12.5,1.92-18.74
		c1.4-11.96,7.55-17.78,19.86-18.82c5.46,2.1,7.34,6.53,7.81,12.62c-1.57,0.15-2.81,0.26-4.3,0.4c-1.84-2.86-3.58-5.55-5.65-8.77
		c-5.39,1.98-9.06,5.04-9.86,10.86c-1,7.3-3.64,14.37-2.85,21.92c0.14,1.31-0.09,2.82-0.62,4.03c-4.49,10.26-4.91,21.27-6.09,32.15
		C1141.57,807.94,1141.93,810.87,1138.54,813.63z"/>
	<path d="M784.28,1129.76c0.78,0.96,1.66,1.86,2.31,2.9c8.34,13.51,16.66,27.02,24.95,40.56c8.71,14.23,17.69,28.31,25.95,42.79
		c8.27,14.49,15.82,29.39,23.6,44.15c0.56,1.06,0.45,2.47,0.75,4.29c-4.26-1.29-5.6-4.34-7.08-7.15
		c-4.71-8.96-9.01-18.16-14.04-26.93c-17.97-31.34-36.19-62.53-54.28-93.8c-1.16-2.01-2.09-4.16-3.13-6.24
		C783.62,1130.14,783.95,1129.95,784.28,1129.76z"/>
	<path d="M913.88,1665.33c-0.41,2.51-0.69,4.19-1.05,6.38c-2.34-0.35-4.18-0.48-5.95-0.91c-5.49-1.36-10.95-2.54-16.7-2.36
		c-2.31,0.07-4.77-0.82-6.98-1.72c-5.27-2.15-10.28-4.93-16.27-4.87c-1.8,0.02-3.57-1.31-5.41-1.74c-3.31-0.78-6.68-1.35-10.14-1.6
		c-5.09-2.8-11.34-3.85-16.11-9.44c2.22-0.56,3.89-1.47,5.4-1.26c4.58,0.62,9.15,1.45,13.62,2.62c7.1,1.86,14.07,4.26,21.18,6.07
		c7.61,1.94,15.33,3.44,22.99,5.18C903.23,1662.75,907.98,1663.92,913.88,1665.33z"/>
	<path d="M375.75,1433.37c-2.91,3.22-5.52,2.08-8.13,1.7c-11.41-1.68-22.39-4.88-33.14-9.03c-18.42-7.11-37.69-11.29-56.7-16.35
		c-7.14-1.9-14.27-3.84-21.35-5.92c-1.95-0.57-3.72-1.75-6.76-3.22c6-1.34,10.1,0.72,14.24,1.67c16.25,3.73,32.48,7.6,48.61,11.8
		c8.71,2.27,17.21,5.38,25.82,8.04c9.92,3.07,19.85,6.07,29.79,9.09C370.66,1431.91,373.21,1432.62,375.75,1433.37z"/>
	<path d="M787.07,575.62c0.99-1.63,1.64-2.69,2.33-3.81c1.18,0.44,2.19,0.5,2.6,1.03c3.02,3.88,6.11,7.73,8.83,11.82
		c7.73,11.62,15.22,23.4,22.97,35.01c2.57,3.86,5.56,7.44,8.46,11.07c1.02,1.27,2.17,3.01,3.54,3.32c6.03,1.35,8.61,6.4,12.1,10.51
		c9.72,11.47,19.46,22.93,29.13,34.46c0.76,0.9,0.95,2.27,0.51,4.22c-0.92-0.67-2-1.2-2.73-2.03c-6.31-7.2-12.51-14.5-18.85-21.68
		c-5.95-6.75-11.27-14.11-19.42-18.66c-2.04-1.14-3.62-3.33-5.05-5.3c-9-12.39-17.81-24.93-26.88-37.27
		C799.12,590.84,793.27,583.62,787.07,575.62z"/>
	<path d="M1036.65,797.66c-0.28,4.87-0.27,9.78-0.9,14.6c-1.32,10.04-3.02,20.04-4.48,30.06c-1.5,10.26-1.82,20.7-5.72,30.56
		c-1.06,2.68-0.74,5.93-0.89,8.93c-0.13,2.68-0.03,5.38-0.03,8.67c-2.29,0.15-3.94,0.26-5.3,0.36c-0.58-1.07-1-1.52-1.06-2.01
		c-1.05-8.86,0.3-17.34,3.04-25.86c1.98-6.16,2.84-12.73,3.69-19.19c0.68-5.2,1.55-10.16,4.2-14.84c1.28-2.27,1.4-5.24,1.89-7.91
		c1.44-7.76,2.8-15.54,4.19-23.32C1035.74,797.69,1036.19,797.68,1036.65,797.66z"/>
	<path d="M508.12,1509.98c-6.02,1.73-11.05-1.82-16.07-4.81c-4.81,0-9.43,0-14.96,0c-1.65-0.75-4.13-1.87-6.69-3.04
		c-1.82,0.15-3.69,0.3-6.09,0.5c-2.23-1.98-4.62-4.1-6.88-6.1c0.95-3.78,3.54-4.39,5.82-3.34c5.25,2.4,11.47,0.72,16.38,4.2
		c0.21,0.15,0.52,0.27,0.77,0.25c9.63-1.02,17.98,4.06,27.03,5.83c5.79,1.13,11.23,4.04,17.56,6.43c-0.48,1.92-0.94,3.78-1.42,5.73
		C517.25,1516.08,513.4,1511.88,508.12,1509.98z"/>
	<path d="M1163.78,695.4c2.38-3.81,3.64-5.82,5.14-8.22c1.13,0.83,2.61,1.39,2.63,2.02c0.21,4.64,0.25,9.32-3.34,12.9
		c-2.76,1.12-4.96,0.37-6.81-1.57c-2.71-2.84-4.95-6.03-4.57-10.16c0.73-7.87,1.32-15.79,2.69-23.56c1.27-7.23,3.42-14.3,5.3-21.42
		c0.9-3.42,2.07-6.76,3.17-10.33c1.74-0.3,3.22-0.56,4.59-0.8c0.4,0.98,0.85,1.52,0.75,1.93c-3.36,14.05-6.93,28.06-10.11,42.15
		C1162.12,683.3,1162,688.45,1163.78,695.4z"/>
	<path d="M961.73,822.06c-1.24-11.84,1.35-23.36,2.82-34.98c0.67-5.28,2.05-10.56,0.74-16.5c-4.99,1.63-6.31,8.6-13.07,7.2
		c0.76-1.28,1.12-2.53,1.95-3.14c5.72-4.22,11.47-8.37,14.74-14.84c2.24,0,4.02,0,6.7,0c-3.14,19.64-6.18,38.64-9.47,59.26
		c-0.62,0.39-2.57,1.62-4.53,2.85L961.73,822.06z"/>
	<path d="M797.6,1609.99c-2.2,0.26-3.82,0.45-5.57,0.65c-2.58-1.8-5.69-3.14-5.72-7.44c1.19-0.31,2.29-0.98,3.16-0.76
		c20.27,5.11,40.98,8.72,61.08,17.47c-0.56,1.71-1.14,3.49-1.59,4.87c-1.17,0.18-1.5,0.34-1.68,0.24
		c-7.91-4.44-17.13-4.62-25.44-7.76c-1.52-0.58-3.16-1.39-4.7-1.3C809.96,1616.38,803.87,1613.41,797.6,1609.99z"/>
	<path d="M1170.92,487.36c3.33,1.54,3.13,3.97,2.73,5.99c-2.43,12.31-3.31,24.93-7.5,36.91c-1.6,4.58-2.33,9.48-3.27,14.28
		c-0.73,3.75-1.05,7.58-1.77,11.34c-0.45,2.34-0.91,4.82-4.13,6.55c-0.36-1.36-1.01-2.49-0.89-3.54c1.21-10.3,2.26-20.64,3.95-30.86
		c1.29-7.8,3.4-15.48,5.24-23.18c0.95-3.98,2.05-7.94,3.25-11.85C1169.14,491.07,1170.11,489.26,1170.92,487.36z"/>
	<path d="M961.6,821.91c2.4,4.65,1.75,9.66,1.48,14.53c-0.42,7.66-1.26,15.29-1.92,22.93c-0.07,0.82,0.05,1.71-0.24,2.44
		c-4.63,11.62-3.88,24.27-7.04,36.16c-0.45,1.69-1.28,3.29-2.58,6.56c-1.01-2.76-1.89-3.93-1.75-4.97
		c1.74-12.7,0.86-25.79,5.84-38.01c0.7-1.71,0.66-3.75,0.83-5.65c0.41-4.64,0.7-9.29,1.1-13.93c0.6-6.83,1.74-13.55,4.42-19.92
		L961.6,821.91z"/>
	<path d="M690.73,1284.67c1.06,2.46,1.88,5.05,3.22,7.35c6.59,11.37,13.39,22.61,19.99,33.98c6.87,11.85,13.6,23.78,20.38,35.69
		c1.87,3.28,3.68,6.6,4.63,10.58c-0.86-1.06-1.84-2.05-2.56-3.21c-10.29-16.5-20.55-33.01-30.8-49.54
		c-5.2-8.38-10.44-16.74-15.48-25.21c-1.48-2.49-2.37-5.34-3.85-8.74c2.23-0.32,3.47-0.49,4.71-0.67L690.73,1284.67z"/>
	<path d="M1096.61,453.72c0.19,1.84,0.55,2.88,0.35,3.8c-7.61,34.06-11.52,68.82-19.11,104.9c-1.19-2.76-1.97-3.78-2.01-4.83
		c-0.08-2.45-0.1-4.97,0.37-7.36c1.91-9.62,4.07-19.2,6.05-28.81c1.16-5.62,2.98-11.26,3.06-16.91c0.19-13.62,3.32-26.59,7.24-39.44
		C1093.62,461.55,1093.12,457.4,1096.61,453.72z"/>
	<path d="M939.75,726.94c2.63,1.6,4.39,2.66,6.33,3.84c0.12,15.23,0.16,30.14-2.84,45.37c-1.46,0.6-3.07,1.26-5.71,2.35
		C937.53,761.11,939.27,744.73,939.75,726.94z"/>
	<path d="M1192.55,1365.6c-6.69-5.11-10.29-12.37-14.1-19.61c-6.1-11.59-12.64-22.95-19.09-34.36c-1.06-1.88-2.77-3.4-3.83-5.28
		c-0.71-1.25-0.81-2.85-1.45-5.36c2.21,0.73,3.81,0.75,4.41,1.54c3.45,4.53,6.97,8.92,9.47,14.22c4.76,10.08,10.2,19.85,15.73,29.54
		c2.28,3.99,5.5,7.45,8.25,11.1c0.16,2.93,0.3,5.65,0.45,8.37L1192.55,1365.6z"/>
	<path d="M782.13,1703.4c2.73-1.06,4.01-2.08,5.08-1.9c13.36,2.28,26.71,4.62,40.01,7.22c4.8,0.94,9.48,2.53,14.17,3.96
		c1.24,0.38,2.33,1.26,3.86,2.12c-0.47,1.38-0.87,2.52-1.39,4.03c-4.04-0.92-7.75-1.65-11.39-2.62c-6.79-1.81-13.5-3.95-20.34-5.58
		c-3.91-0.93-8.01-1-11.99-1.63c-4.45-0.72-8.9-1.54-13.3-2.54C785.67,1706.21,784.69,1705.11,782.13,1703.4z"/>
	<path d="M344.32,1466.54c-1.24,0.18-2.8,0.4-5.16,0.74c-3.03-2.27-6.5-4.87-10.38-7.77c-1.98,0.16-4.41,0.36-6.98,0.56
		c-4.62-1.47-7.38-5.07-9.8-8.63c0.77-3.08,2.62-3.48,4.58-2.75c6.1,2.3,12.22,4.58,18.15,7.27c6.41,2.91,13.18,5.24,18.59,10.04
		c0.8,0.71,1.56,1.45,2.85,2.66c-1.34,1.71-2.56,3.25-3.5,4.45C347.91,1472.72,347.44,1468.45,344.32,1466.54z"/>
	<path d="M674.66,333.88c-4.23,1.25-5.41-1.66-6.98-3.75c-5.09-6.76-9.7-13.91-15.21-20.3c-9.87-11.45-16.82-24.85-25.59-37.02
		c-0.73-1.02-1.16-2.26-1.84-3.63c0.98-0.09,1.65-0.34,1.83-0.15c7.93,9,15.39,18.31,21.61,28.67c3.9,6.49,9.09,12.21,13.85,18.16
		c3.07,3.83,6.45,7.42,9.63,11.16C673.64,329,673.59,329.05,674.66,333.88z"/>
	<path d="M1370.39,1866.78c3.93-4.09,6.79-4.23,9.87-3.56c7.2,1.56,14.42,3.05,21.61,4.67c3.72,0.84,7.44,1.77,11.08,2.91
		c1.71,0.53,3.23,1.65,5.35,2.78c-1.1,2.03-1.92,3.56-3.09,5.72C1400.87,1873.78,1385.64,1872.54,1370.39,1866.78z"/>
	<path d="M833.41,1761.37c2.73-0.41,4.58-1.11,6.3-0.87c15.84,2.2,31.97,0.39,48.52,2.96c-0.83,2.13-1.36,3.5-1.82,4.69
		c-1.2,0.3-2.02,0.75-2.76,0.65c-10.73-1.55-21.66,0.19-32.33-2.08c-3.17-0.67-6.23-1.33-9.63-0.36
		C838.44,1767.26,835.25,1766.44,833.41,1761.37z"/>
	<path d="M1074.95,572.53c1.97,12.82-0.93,24.97-3.17,37.19c-1.02,5.6-0.89,11.52-4.39,16.44c-0.88,1.24-2,2.3-3.81,4.34
		c-0.62-2.21-1.35-3.41-1.19-4.48c0.83-5.39,1.65-10.81,2.94-16.1C1068.38,597.49,1071.69,585.12,1074.95,572.53z"/>
	<path d="M827.11,1141.17c-1.6-0.17-2.68-0.28-4.16-0.44c-1.15-2.18-2.4-4.53-3.64-6.87c0.26-0.25,0.53-0.5,0.79-0.75
		c1.22,1.11,2.44,2.22,3.73,3.4c1.22,0,2.51,0,3.75,0c5.05,3.45,17.63,22.26,24.28,36.43c-1.18,1.01-2.48,2.13-4.4,3.78
		c-1.72-2.44-3.28-4.27-4.42-6.33c-4.08-7.43-8-14.96-12.02-22.43C829.73,1145.57,828.31,1143.25,827.11,1141.17z"/>
	<path d="M541.21,305.94c-1.67-1.31-3.51-2.46-5-3.96c-8.53-8.56-16.02-17.86-22.43-28.21c-7.05-11.38-15.18-22.1-22.25-33.78
		c1.03,0.93,2.21,1.73,3.07,2.8c9.63,11.94,19.21,23.91,28.8,35.88c0.51,0.64,1.11,1.26,1.44,2c3.89,8.88,9.68,16.5,15.86,23.85
		c0.31,0.37,0.25,1.04,0.36,1.57L541.21,305.94z"/>
	<path d="M985.77,485.52c2.18,7.47-0.93,33.09-6.25,50.65c-1.5-0.18-3.11-0.38-4.63-0.56C974.84,528.63,983.23,490.51,985.77,485.52
		z"/>
	<path d="M759.16,1635.52c-1.58,1.74-3,3.31-4.36,4.8c-7.64-4.08-7.64-4.08-10.34-9.25c7.2-1.18,13.7,2.5,20.8,2.01
		c6.85-0.47,13.88,1.78,21.45,2.92c0.88,2.42-0.05,4.73-2.17,7.02c-4.53,1.16-8.33-1.57-12.4-2.8
		C768,1638.97,763.98,1637.29,759.16,1635.52z"/>
	<path d="M567.16,191.31c-5.09-6.02-10.45-11.85-15.22-18.12c-6.95-9.13-13.42-18.64-20.23-27.88c-2.76-3.74-5.94-7.16-8.84-10.79
		c-3.69-4.62-7.29-9.3-9.86-14.9c1.61,1.63,3.33,3.17,4.81,4.9c7.48,8.72,14.92,17.41,21.42,26.98c7.53,11.08,16.21,21.36,24.39,32
		c1.66,2.16,3.26,4.35,4.89,6.53C568.06,190.46,567.61,190.88,567.16,191.31z"/>
	<path d="M835.12,1647.17c-1.84,2.18-2.86,3.39-4.04,4.79c-7.3-1.78-13.59-5.63-20.52-8.64c-1.11,0.95-2.31,1.97-3.93,3.36
		c-4.66-1.66-10.13-2.27-13.7-8.23c2.36-0.43,4.2-1.29,5.83-0.99c10.36,1.91,20.69,4,30.97,6.25
		C831.37,1644.08,832.75,1645.61,835.12,1647.17z"/>
	<path d="M870.86,1183.22c-1.12-5.37-2.29-10.73,0.52-15.8c-2.18-7.55-4.26-14.79-6.74-23.38c6.44,3.11,7.58,8.79,10.18,11.7
		c0.88,5.77,1.6,10.48,2.56,16.71c0,0-0.75,1.39-1.54,2.84c0.63,2.98,1.27,6.05,2.06,9.79c-2.64,0.39-4.4,0.64-6.16,0.9
		C871.45,1185.06,871.16,1184.14,870.86,1183.22z"/>
	<path d="M827.14,1671.9c8.54-1.99,15.36,0.77,23.02,1.6c3.27,3.94,8.24,4.82,13.61,4.78c2.13-0.02,4.3,0.42,6.38,0.94
		c4.21,1.05,8.39,2.26,12.56,3.47c1.26,0.36,2.45,0.93,4.06,1.54c-0.27,1.23-0.47,2.17-0.83,3.85c-4.42-1.61-8.43-3.07-12.59-4.58
		c-1.45,0.39-3.01,0.8-4.91,1.31c-8.52-2.8-17.27-5.75-26.07-8.52c-1.76-0.55-3.73-0.62-5.6-0.58
		C833.42,1675.77,830.48,1675.06,827.14,1671.9z"/>
	<path d="M1072.39,1770.91c-1.32,2.98-3.19,2.91-5.11,2.41c-6.8-1.79-13.57-3.7-20.39-5.42c-1.8-0.45-3.73-0.34-5.6-0.51
		c-5.7-0.53-11.38-1.2-16.59-3.82c-1.05-0.53-1.87-1.51-3.62-2.98c2.09-0.48,3.11-1.03,4-0.87c8.56,1.46,17.12,2.94,25.64,4.61
		c5.84,1.15,11.65,2.5,17.41,4C1069.7,1768.75,1071.02,1770.05,1072.39,1770.91z"/>
	<path d="M1176.67,683.29c-2.2-0.61-3.66-1.01-5.99-1.65c2.7-6.39,5.46-12.19,7.62-18.22c2.12-5.89,3.63-11.99,5.51-18.34
		c1.04,0.49,2.18,1.03,3.88,1.84c-0.59,9.65-3.98,18.6-6.59,27.67C1180.24,677.58,1178.26,680.25,1176.67,683.29z"/>
	<path d="M714.18,1629.55c-2,0.69-3.5,1.2-5.07,1.75c-1.43-1.19-2.65-2.2-4.13-3.43c0.68-1.9,1.28-3.58,1.92-5.38
		c1.67-0.12,3.08-0.56,4.3-0.26c5.83,1.41,11.59,3.1,17.42,4.51c3.08,0.74,6.26,1.1,10.15,1.76c1.75,2.68-0.6,4.71-2.32,7
		C728.89,1633.48,721.67,1631.55,714.18,1629.55z"/>
	<path d="M919.69,881.6c-1.71-0.14-2.73-0.22-4.5-0.37c0.42-12.73,2.81-24.7,7.3-36.34c1.48,0.07,2.27,0,3.01,0.18
		c0.49,0.12,0.89,0.58,1.61,1.1C924.71,857.64,922.28,869.24,919.69,881.6z"/>
	<path d="M857.13,1119.96c-6.07-4.57-7.25-11.96-10.9-17.74c-3.63-5.74-7.06-11.61-10.84-17.85c0.46-0.81,1.08-1.9,1.59-2.82
		c0.97,0,1.56-0.16,1.98,0.04c0.72,0.34,1.74,0.79,1.92,1.4c3.16,10.89,12.24,18.53,15.92,29.14
		C857.64,1114.58,859.71,1116.78,857.13,1119.96z"/>
	<path d="M880.76,1628.08c2.9-0.52,4.25-1.2,5.32-0.89c10.07,2.93,20.1,6.04,30.57,9.22c-0.36,2-0.62,3.42-1,5.58
		C904.32,1637.17,891.61,1637.85,880.76,1628.08z"/>
	<path d="M824.43,1584.38c2.06-0.29,3.48-0.9,4.65-0.59c7.07,1.86,14.1,3.88,21.1,5.99c1.22,0.37,2.22,1.44,3.59,2.38
		c-0.3,1.57-0.57,3.03-0.97,5.13c-4.9-1.21-9.33-2.18-13.68-3.42c-3.09-0.88-6.08-2.08-9.09-3.21
		C827.5,1589.7,825.06,1588.57,824.43,1584.38z"/>
	<path d="M762.38,1658.09c12.27,3.27,24.25,2.45,34.84,7.7c-0.09,0.91-0.02,1.48-0.22,1.93c-0.32,0.74-0.81,1.41-1.49,2.55
		c-3.81-1.54-7.03-2.84-10.61-4.29c-1.22,0.49-2.72,1.08-3.73,1.48c-3.92-0.48-7.39-0.78-10.81-1.35
		C766.36,1665.45,763.13,1663.75,762.38,1658.09z"/>
	<path d="M936.94,782.86c1.63-0.08,2.4-0.12,3.15-0.16c1.52,8.19-3.26,31.73-8.46,39.37C932.57,808.32,934.31,795.85,936.94,782.86z
		"/>
	<path d="M744.37,1266.42c-1.5-1.21-2.85-1.82-3.45-2.86c-4.25-7.29-8.43-14.63-12.41-22.07c-0.67-1.26-0.28-3.08-0.4-4.93
		c4.45,2.1,5.35,3.24,12.94,17.2C743.04,1257.41,746.02,1260.9,744.37,1266.42z"/>
	<path d="M1179.87,1818.45c-0.84,1.41-1.82,3.07-3.22,5.41c-3.35-2.02-6.08-3.66-9.63-5.81c-3.18,0.7-6.43-0.77-9.06-5.19
		c-0.11-1.63-0.27-4.03-0.44-6.66c1.44-0.66,2.6-1.19,4.08-1.87c2.58,3.76,5,7.28,7.77,11.31
		C1172.3,1816.3,1176.54,1814.13,1179.87,1818.45z"/>
	<path d="M933.25,1772.78c7.8-1.07,12.99-0.08,23.64,4.16c-0.26,1.53-0.54,3.17-0.93,5.45c-7.22-0.84-13.66-2.55-19.82-5.17
		C935.02,1776.75,934.52,1774.82,933.25,1772.78z"/>
	<path d="M756.31,1662.16c-6.3-1.51-10.76-2.61-15.25-3.65c-3.41-0.79-3.83-1.15-5.99-6.12c4.17-1.81,7.96,0.59,11.78,1.07
		c3.73,0.47,7.36,1.78,11.12,2.74C758.8,1659.95,757.89,1661.92,756.31,1662.16z"/>
	<path d="M538.03,966.04c0.61,0.45,1.46,0.76,1.8,1.36c4.04,7.1,8.04,14.22,11.96,21.39c0.62,1.14,0.81,2.51,1.54,4.87
		c-2.12-0.6-4.07-0.56-4.58-1.39C543.8,984.22,539.1,976.03,538.03,966.04z"/>
	<path d="M355.38,1499.73c1.48-2.45,3.21-2.49,5.15-1.73c5.47,2.14,10.95,4.29,16.32,6.4c0.39,3.88-1.87,4.96-5.21,5.53
		C365.67,1507.74,359.86,1504.78,355.38,1499.73z"/>
	<path d="M870.86,1183.22c0.29,0.92,0.59,1.84,0.88,2.75c-0.6,1.43-1.19,2.86-1.85,4.43c-4.08-0.87-7.74-1.66-11.89-2.55
		c-2.24-2.59-5.62-4.76-8.24-9.87c6.27,2.2,10.81,4.1,14.56,8.22c0.98-1.4,1.85-2.65,3.01-4.31
		C868.44,1182.32,869.65,1182.77,870.86,1183.22z"/>
	<path d="M393.57,1509.17c6.98-0.2,8.59,0.37,18.44,5.97c0.59,3.08-1.36,4.26-4.23,5.27
		C402.72,1518.06,397.65,1515.4,393.57,1509.17z"/>
	<path d="M735.14,1693.8c9.34-2.45,21.31,0.4,26.52,5.52c-1.34,0.57-2.52,1.58-3.52,1.43c-5.06-0.8-10.12-1.71-15.07-2.98
		C740.84,1697.2,738.85,1695.71,735.14,1693.8z"/>
	<path d="M583.03,210.39c9.51,7.23,14.46,17.77,19.86,28.13c-3.58-0.89-5.81-3.56-7.49-6.35
		C591.07,225.04,587.13,217.67,583.03,210.39z"/>
	<path d="M705.67,376.67c-1.3-0.81-3.06-1.31-3.84-2.47c-4.53-6.77-8.84-13.69-13.18-20.59c-0.2-0.32,0.03-0.91,0.1-1.92
		c1.28,0.85,2.58,1.35,3.35,2.29c4.31,5.24,8.57,10.53,12.69,15.93c1.55,2.03,1.96,4.46,0.7,6.92L705.67,376.67z"/>
	<path d="M821.42,1588.14c-3.96-2.54-6.37-4.09-8.91-5.71c-1.42,0.4-2.95,0.83-4.24,1.2c-3.11-0.63-5.23-2.05-6.51-5.09
		c4.33-2.94,7.67-1.83,10.36,1.38c3.41,0.16,6.54,0.3,10.28,0.47C822.09,1582.85,821.88,1584.53,821.42,1588.14z"/>
	<path d="M982.7,1780.79c-1.36,2.86-1.99,4.17-2.74,5.75c-4.76-0.73-9.2-1.42-14.17-2.18c-0.61-1.41-1.29-2.99-2.03-4.7
		c1.16-0.55,1.9-1.23,2.54-1.15C971.28,1779.12,976.26,1779.87,982.7,1780.79z"/>
	<path d="M524,1539.24c-1.21,2.95-2.06,5.02-3.06,7.46c-5.43-2.29-10.79-3.26-13.68-9.18C513.11,1534.29,517.77,1537.39,524,1539.24
		z"/>
	<path d="M461.87,1533.56c-4.96-1.02-10.16-1.97-12.63-8.36c6.4-2.71,10.87,2.29,16.09,2.42
		C466.56,1531.24,464.55,1532.41,461.87,1533.56z"/>
	<path d="M309.51,1445.92c-2.66,3.05-4.17,4.79-5.51,6.32c-9.01-2.79-9.84-3.76-8.94-10.27
		C300.09,1440.5,303.39,1444.63,309.51,1445.92z"/>
	<path d="M893.28,1765.9c5.57-0.91,10.25-1.23,15.58,0.6c-0.49,1.83-0.92,3.42-1.4,5.21C901.92,1771.55,896.87,1771.8,893.28,1765.9
		z"/>
	<path d="M925.08,1775.15c-8.8-1.54-10.5-2.44-12.77-7.28c5.39-0.44,10.32-0.28,14.91,2.1
		C928.69,1772.81,927.44,1774.24,925.08,1775.15z"/>
	<path d="M1112.94,1269.14c-2.6-1.46-3.92-2.2-5.26-2.95c-2.11-6.79-4.18-13.45-6.25-20.11
		C1106.81,1252.53,1111,1259.48,1112.94,1269.14z"/>
	<path d="M779.51,1573.11c6.57-1.86,10.93,0.3,16.12,1.72c-1.01,2.24-1.81,4.03-2.69,5.99
		C787.35,1580.33,783.61,1577.9,779.51,1573.11z"/>
	<path d="M666.43,1635.03c-0.85,1.46-1.72,2.94-2.67,4.57c-4.93-1.47-9.24-2.79-9.75-8.63
		C659.7,1630.75,659.7,1630.75,666.43,1635.03z"/>
	<path d="M775.47,1598c-0.27,1.83-0.49,3.31-0.73,4.98c-5.95,1.04-9.32-2.13-12.81-5.98C766.88,1595.12,770.88,1596.91,775.47,1598z
		"/>
	<path d="M491.56,1533.23c4.54-3.01,7.76-1.8,10.84-0.73c2.16,3.01,1.79,5.26-1.13,7.27
		C497.18,1539.35,494.65,1536.77,491.56,1533.23z"/>
	<path d="M1035.16,235.83c0.81-11.11,1.27-22.28,5.33-32.89c-1.93,10.89-1.39,22.17-5.47,32.71L1035.16,235.83z"/>
	<path d="M431.67,1486.44c-2.42,3.21-3.76,5-5.11,6.79c-4.14-1.12-6.04-3.42-7.18-6.8c0.77-0.9,1.44-1.68,2.53-2.96
		C424.59,1484.29,427.3,1485.11,431.67,1486.44z"/>
	<path d="M1075.37,1771.79c6.18-0.64,11.09,2.97,16.67,4.22c0,1.36,0,2.34,0,3.95C1086,1777.42,1080.24,1775.61,1075.37,1771.79z"/>
	<path d="M489.8,1531.37c-0.71,1.68-1.46,3.49-2.32,5.51c-4.53-0.97-6.92-3.46-8.63-6.96C484.1,1527.38,484.1,1527.38,489.8,1531.37
		z"/>
	<path d="M540.05,1515.16c4.43-2.6,8.09-2.02,12.07-0.08c0.02,2.98-1.19,4.85-3.99,5.23
		C544.56,1520.8,541.89,1519.33,540.05,1515.16z"/>
	<path d="M1043.27,319.59c0.46-4.29,0.72-8.62,1.43-12.87c1.02-6.1,2.37-12.15,4.21-18.1c-0.45,10.55-2.57,20.78-5.8,30.81
		L1043.27,319.59z"/>
</g>
</svg>
