<?xml version="1.0" encoding="utf-8"?>
<!-- Generator: Adobe Illustrator 27.4.0, SVG Export Plug-In . SVG Version: 6.00 Build 0)  -->
<svg version="1.1" id="Calque_1" xmlns="http://www.w3.org/2000/svg" xmlns:xlink="http://www.w3.org/1999/xlink" x="0px" y="0px"
	 viewBox="0 0 2000 2000" style="enable-background:new 0 0 2000 2000;" xml:space="preserve">
<g>
	<path d="M1858.29,292.29c0.15,1.98,0.31,3.97,0.47,6.1c5.96,1.95,11.51,3.76,16.28,5.32c4.61,3.88,2.11,8.79,3.67,12.77
		c1.45,3.72,2.1,7.75,2.42,11.86c0.98,1.52,1.95,3.04,3.06,4.78c0,2.55,0,5.25,0,8.16c-1.09,1.55-2.24,3.21-3.26,4.66
		c0,5.72,0.05,11.15-0.05,16.57c-0.01,0.83-0.7,1.65-1.08,2.5c-3.54,2.6-7.48,3.07-9.98,2.65c-5.96-3.25-10.47-5.71-15.82-8.62
		c-0.88-2.68-1.98-6.05-3.32-10.16c-1-0.57-2.76-1.58-4.84-2.77c-0.79-1.56-1.7-3.36-2.48-4.92c0.12-3.83,1.07-6.96,2.96-9.95
		c1.27-2.02,1.82-4.48,2.8-7.01c-4.86-3.64-4.81-8.7-4.7-13.8c-5.84-1.93-12.24-0.28-17.66-4.58c-0.4-3.4-0.85-7.17-1.31-11.09
		c-2.35-0.86-4.55-1.67-6.75-2.48C1831.88,292.29,1845.08,292.29,1858.29,292.29z"/>
	<path d="M586.58,1682.15c3.09,2.17,6.19,4.35,9.74,6.84c16.01-2.11,29.45-11.42,44.04-17.97c0.64-1.91,1.21-3.59,1.77-5.26
		c14.35-6.56,28.93-12.39,42.66-20.46c0.34-1.94,0.68-3.92,1.04-5.95c0.81-0.51,1.57-0.98,2.26-1.42c4.73,0.63,6.85,4.35,9.33,6.94
		c1.8,4.04,0.81,7.18-1.95,9.68c-3.18,2.89-6.56,5.56-9.95,8.22c-2.28,1.79-4.72,3.37-7.13,5.08c1.45,4.5,7.53,6.55,5.09,12.62
		c-5.17,6.55-14.09,8.76-20.74,14.17c0.39,3.94,3.3,5.6,5.44,8.02c6.11-0.25,12.19-0.49,18.57-0.74c2.78-3.42,6.9-4.63,10.98-6.03
		c5.8-1.99,11.49-4.32,17.26-6.41c3.71-1.34,7.26-2.81,8.3-5.66c10.9-4.56,21.39-7.61,30.4-13.08c9.78-5.94,20.97-8.58,31.46-15.81
		c0.39-0.49,1.64-2.09,2.99-3.8c9.66-2.02,18.19-6.9,27.02-11.07c3.28-1.55,5.96-4.08,8.91-6.06c7.12-4.8,14.72-8.99,22.5-12.63
		c4.7-2.2,10.15-2.28,15.6-1.65c2.81,2.68,5.5,5.38,4.2,10.45c-5.63,2.12-11.51,4.33-17.28,6.5c-1.1,2.45-2.02,4.49-3.23,7.16
		c-8.95,3.29-18.27,6.71-27.77,10.2c0.29,3,0.53,5.43,0.83,8.55c-1.49,0.98-2.99,2.36-4.75,3.04c-4.45,1.7-9.03,3.08-13.55,4.61
		c-2.76,0.93-5.51,1.91-8.36,2.9c0.74,3.49,1.38,6.51,2.12,10.02c-3.28,1.89-6.28,3.62-9.57,5.52c2.15,1.71,3.89,0.95,5.49,0.38
		c6.95-2.45,14.11-3.07,21.42-3.59c5.32-0.38,10.52-2.54,15.75-4c7.65-2.14,15.2-4.68,22.94-6.4c3.65-0.81,7.64-0.07,11.48-0.06
		c2.03,0.01,4.07,0.02,6.09-0.07c2.25-0.1,4.49-0.3,6.56-0.45c3.5,3.25,5.35,6.59,3.77,11.53c-9.63,3.54-20.43,4.12-29.7,10.36
		c-0.67,1.45-1.51,3.27-2.28,4.95c-0.74,0.51-1.26,1-1.87,1.26c-8.64,3.71-17.91,5.03-27,7.05c-8.45,1.88-16.65,4.45-24.62,8.26
		c-0.59,1.46-1.17,2.9-1.7,4.22c-4.08,4.48-9.13,6.54-14.91,7.72c-18.74,3.83-24.75,5.89-35.35,11.27c-0.61,1.3-1.38,2.9-2.44,5.16
		c-2.87,1.16-6.15,2.68-9.56,3.83c-9.25,3.11-18.56,6.06-27.83,9.09c-0.64,0.21-1.21,0.62-2.15,1.11c-2.5,4.63-7.17,6.93-12.05,8.97
		c-9.65,4.04-19.2,8.32-28.95,12.08c-6.16,2.38-10.82,6.43-15.23,11.08c-1.99,2.09-4.29,4.13-6.84,5.4
		c-7.32,3.65-14.87,6.82-22.26,10.33c-2.64,1.26-5.13,2.88-7.6,4.46c-2.11,1.36-4.05,3.07-7.44,1.88
		c-4.26-2.74-7.02-7.28-8.97-11.98c0.66-2.85,2.62-3.57,4.43-4.55c10.79-5.83,21.56-11.71,32.31-17.61c0.54-0.3,0.88-0.97,1.51-1.7
		c-3.34-2.39-7.38-4.14-7.66-9.43c0.63-1.19,1.45-2.74,2.34-4.42c-1.23-1.71-2.41-3.35-3.78-5.26c-13.39-1.22-26.23-0.2-37.16,8.36
		c-15.4,0.16-29.3,4.53-42.38,11.9c-2.57,1.45-5.3,2.63-8.02,3.76c-12.39,5.13-24.8,10.2-37.22,15.26
		c-0.83,0.34-1.74,0.48-3.39,0.91c-2.17-1.57-4.66-3.37-7.25-5.24c0.23-2.2,0.41-3.93,0.56-5.43c0.67-0.58,0.97-0.94,1.36-1.15
		c3.59-1.96,7.14-4.01,10.8-5.82c4.42-2.18,8.18-4.92,9.59-9.83c5.63-2.91,11.07-5.71,16.44-8.48c1.27-3.33-3.66-5.81-0.97-8.96
		c4.73-2.71,9.41-5.39,14.37-8.24c-0.69-2.56-1.26-4.64-1.98-7.31c5.09-3.21,10.13-6.38,15.94-10.04
		c-5.14-3.36-10.74-5.36-10.73-12.28c1.21-1.57,2.56-3.33,4.1-5.34c-3.46-2.75-7.09-1.03-10.51-1.07
		c-3.39-0.05-6.78-0.01-10.94-0.01c-1.89-2.19-3.96-4.59-6.58-7.63c-4.85,0.24-10.22,0.5-15.44,0.75c-1.74-1.66-3.21-3.06-5.16-4.92
		c-2.75,0-5.91,0.01-9.06,0c-3.63-0.02-7.12-0.16-10.59-1.91c-2.03-1.03-4.85-0.65-7.31-0.65c-3.13,0-6.26,0.27-9.47,0.42
		c-1.86-2.6-3.43-4.77-4.66-6.48c0-3.37,0-6.07,0-9.17c7.13-2.4,14.16-4.76,21.14-7.11c1.16-1.67,2.18-3.14,3.27-4.7
		c0.55-0.2,1.18-0.44,1.82-0.66c11.19-3.83,22.26-7.9,31.84-15.11c0.54-0.41,1.11-0.8,1.71-1.11c10.49-5.45,20.92-10.99,31.49-16.27
		c5.37-2.68,10.07-6.16,14.29-10.35c6.8-6.74,14.21-12.7,22.39-17.71c1.53-0.94,2.95-2.18,4.14-3.52
		c8.19-9.25,18.21-16.44,27.43-24.53c2.91-2.55,5.78-5.13,8.78-7.58c1.7-1.39,3.6-2.52,5.33-3.71c4.51,2.9,7.71,5.89,7.13,11.73
		c-3.42,4.04-7.8,7.58-12.09,11.26c-7.93,6.79-16.18,13.32-23.28,20.91c-4.17,4.46-7.58,9.55-13.25,12.65
		c-0.47,1.72-0.93,3.44-1.58,5.82c-2.24,2.05-4.91,4.48-7.93,7.23c0.02,8.06-9.26,9.35-12.8,15.58c1.71,3.19,2.47,6.88,6.31,9.04
		c2.15,0.15,4.63,0.31,6.82,0.46c5.78,2.59,4.9,7.3,4.19,12.3c1.89,2.29,3.89,4.72,5.9,7.15
		C586.24,1682.56,586.41,1682.35,586.58,1682.15z M565.89,1672.35c-5.39-2.82-10.79-4.09-13.4-10.27c0-2.03,0-4.94,0-8.01
		c-1.1-1.99-1.65-4.6-4.6-5.57c-6.79,4.33-14.8,6.9-19.21,12.66c-8.89,4.13-16.63,7.98-24.58,11.31c-4.69,1.96-7.91,5.01-9.98,9.25
		c1.16,3.03,3.24,4.16,6.01,4.02c2.94-0.14,5.87-0.46,8.81-0.67c2.64-0.19,5.28-0.35,7.5-0.49c2.34,2.62,4.14,4.64,5.89,6.6
		c2.94,0.19,5.64,0.37,8.46,0.55c2.56,2.3,5.09,4.57,7.83,7.04c4.99,0.38,9.18,2.57,12.75,6.54c3.94,4.37,2.5,9.28,2.14,13.52
		c4.18,3.67,7.9,6.94,11.24,9.87c0,2.82,0,4.79,0,6.37c-3.02,2.1-5.59,3.9-7.9,5.51c0,3.24,0,5.89,0,8.34
		c-4.3,2.35-8.26,4.52-11.91,6.52c-0.4,3.34,1.18,4.81,3.7,6.15c8.07-1.9,16.62-3.32,24.76-5.97c11.03-3.59,22.13-6.74,33.5-8.97
		c4.01-0.79,7.93-1.79,12.02-0.07c1.36,0.57,3.14,0.23,4.72,0.2c3.41-0.08,6.82-0.2,10.23-0.36c3.25-0.16,5.61,1.27,7.57,3.78
		c1.94,2.48,4.04,4.83,6.16,7.15c1.96,2.15,3.21,4.41,1.85,7.32c-2.28,1.4-4.51,2.77-6.92,4.25c0.75,1.3,1.08,2.16,1.66,2.8
		c0.58,0.65,1.41,1.08,2.56,1.94c12.25-4.92,24.62-9.89,36.61-14.7c2.31-4.74,5.91-6.91,9.9-8.85c8.85-4.3,18.09-7.29,27.46-8.93
		c15.02-14.09,33.5-19.05,52.67-21.96c6.96-10.17,18.54-13.13,29.08-19.02c-4.61-2.21-7.92-0.82-11.3,0.42
		c-7.64,2.82-14.95,6.65-22.87,7.7c-4.49-1.03-6.87-4.09-8.8-7.49c-1.87-3.3-4.37-6.55-2.84-10.76c2.49-6.43,9.53-6.97,15.11-11.15
		c-1.97-0.39-3.13-1.02-3.88-0.7c-8.92,3.82-18.5,6.44-25.53,13.76c-10.38,3.8-21.56,5.84-29.38,13.23
		c-12.06,4.23-23.37,8.19-34.23,12.01c-2.53-1.25-4.34-2.14-5.91-2.92c-5.72,0.32-10.81,3.54-16.66,1.53
		c-3.56-2.91-7.26-5.95-6.23-11.51c1.49-1.22,2.84-2.32,4.29-3.51c-0.56-1.54-1.04-2.79-1.46-4.06c-1.96-5.88-1.02-9.31,3.9-13.19
		c1.77-1.39,3.82-2.43,5.78-3.56c2.54-1.46,5.21-2.75,6.35-5.92c-0.64-0.8-1.18-1.47-2.03-2.53c-9.28,4.42-18.53,8.67-27.64,13.22
		c-6.69,3.34-13.4,6.65-19.24,11.54c-1.89,1.59-5.09,2.44-7.61,2.28c-5-0.33-9.38,0.93-13.77,3.02c-3.48,1.67-7.23,2.8-10.67,4.53
		c-8,4.04-14.97,2.61-19.5-4.81c-0.22-0.36-0.7-0.55-1.09-0.85c-2.16-0.47-4.36-0.95-6.78-1.48c-1.6-3.15-5.52-4.93-4.87-9.68
		c0.7-1.01,1.59-2.29,2.39-3.42c0-2.23,0-4.25,0-6.29C560.42,1677.37,562.73,1675.25,565.89,1672.35z"/>
	<path d="M933.44,1047.8c-1.47-1.82-2.62-3.24-3.35-4.14c-1.11-0.39-1.54-0.67-1.97-0.67c-3.86-0.03-7.72-0.02-11.54-0.02
		c-1.8-1.34-3.42-2.55-5.56-4.14c-6.06,0-12.63,0-18.89,0c-2.04-1.45-3.69-2.63-5.52-3.93c-6.72,0.44-13.5,0.88-20.33,1.33
		c-1.68-1.44-3.21-2.74-4.66-3.98c-6.53-1.49-13.35,1.04-19.89-2.07c-1.01-1.5-2.14-3.18-3.33-4.96c-1.69-0.43-3.42-0.87-5.19-1.32
		c-1.45-1.83-2.85-3.6-4.22-5.34c-2.77-0.42-5.41-0.82-7.43-1.13c-3.59-3.21-3.29-7.05-3.85-10.39c-1.51-0.94-2.93-1.62-4.07-2.6
		c-1.01-0.86-1.73-2.07-2.63-3.19c-6.02,0.29-11.65,0.57-17.85,0.87c-0.88-0.66-2.22-1.49-3.31-2.56c-0.94-0.92-1.59-2.13-2.45-3.31
		c-4.41,0-8.69,0-12.95,0c-1.49-1.65-2.84-3.15-4.52-5.01c-4.64,0-9.59,0-14.38,0c-1.81-1.53-3.35-2.84-5.12-4.33
		c-4.39,0.25-8.92,0.5-13.93,0.78c-1.81-1.02-3.96-2.25-6.1-3.46c-6.77,0.71-13.52,1.41-19.86,2.07
		c-8.39,2.39-16.45,4.72-24.53,6.98c-9.85,2.75-19.71,5.43-29.56,8.14c-3.29,0.91-6.61,1.71-9.84,2.77
		c-5.38,1.76-10.66,3.83-16.06,5.53c-6.71,2.12-13.55,3.86-20.25,6.01c-5.82,1.86-11.48,4.2-17.29,6.09
		c-9.5,3.08-19.07,5.93-28.59,8.95c-4.54,1.44-9.02,3.04-13.53,4.53c-9.49,3.13-18.99,6.21-28.47,9.38
		c-5.17,1.73-10.3,3.59-15.46,5.35c-2.36,0.81-4.76,2.18-7.14,2.18c-11.92-0.02-22.41,5.35-33.48,8.49
		c-4.14,1.17-8.18,2.9-13.15,2.27c-1.49-1.03-3.34-2.3-5.4-3.73c-2.48-0.16-5.17-0.33-7.53-0.48c-3.86-2.59-5.77-5.64-4.83-10.18
		c2.3-1.66,4.64-3.34,6.98-5.03c-0.6-2.6-1.1-4.76-1.63-7.07c3.39-3.48,8.13-4.17,12.17-6.79c0.35-1.46,0.75-3.19,1.22-5.19
		c5.37-2.29,10.73-4.7,16.18-6.85c5.21-2.06,10.52-3.84,16.01-5.83c-0.51-2.79-0.9-4.98-1.4-7.75c7.38-4.83,15.89-7.46,24.15-11.96
		c-0.68-1.83-1.34-3.6-2.15-5.77c-2.44,0.56-4.45,0.81-6.32,1.49c-6.53,2.37-13.32,3.55-19.61,7.21
		c-6.96,4.04-15.13,6.16-22.93,8.59c-11.93,3.72-24.04,6.86-35.61,11.65c-1.05,0.43-2.2,0.66-3.2,1.18
		c-7.06,3.67-14.15,4.95-20.97,0.5c-4.93,0.34-9.43,0.65-14.14,0.97c-1.84-2.38-3.47-4.5-4.94-6.41c0-3.83,0-7.23,0-10.73
		c2.72-5.04,8.29-6.82,12.54-10.79c0.15-1.9,0.33-4.13,0.54-6.81c4.46-2.36,9.01-4.78,13.52-7.16c0.38-2.1,0.71-3.87,1.01-5.53
		c0.38-0.43,0.61-0.91,0.98-1.09c5.49-2.73,11.05-5.33,16.48-8.17c2.97-1.56,5.72-3.55,8.6-5.28c0.96-0.58,1.99-1.09,3.05-1.46
		c8.98-3.18,17.97-6.32,26.96-9.48c0.43-0.15,0.82-0.4,0.38-0.18c2.6-3.13,4.64-5.58,7.18-8.62c-1.79-0.18-3.26-0.64-4.6-0.39
		c-3.34,0.62-6.64,1.51-9.93,2.39c-4.97,1.32-9.87,1.87-14.43-1.1c-3.76,0-7.39,0.03-11.03-0.01c-4.57-0.05-7.54-2.8-8.21-6.83
		c-0.68-4.08-1.85-7.86-3.24-11.68c-0.59-1.63-0.29-3.59-0.41-5.64c-3.69-4.31-7.49-8.74-11.89-13.87
		c-0.06-1.11-0.18-3.11-0.28-4.91c1.34-1.7,2.44-3.11,3.7-4.71c-2.07-3.92-6.1-6.97-5.46-12.29c1.4-1.22,2.9-2.52,4.66-4.05
		c-0.76-3.53-1.41-7.09-2.31-10.58c-0.92-3.6-0.68-6.75,2.84-9.46c2.34,0,5.02,0,8.9,0c4.75-4.99,9.9-11.04,15.72-16.36
		c4.99-4.57,10.61-8.5,16.2-12.35c4.1-2.83,8.4-5.56,12.97-7.49c8.11-3.43,16.3-7.18,24.83-8.96c6.28-1.31,12.21-3,18.05-5.44
		c1.23-0.51,2.67-0.87,3.98-0.8c6.76,0.36,13.04-1.36,20.16-4.67c3.34-3.93,7.43-8.74,11.36-13.37c-0.67-3.3-1.24-6.12-1.81-8.93
		c1.93-1.84,3.55-3.39,5.22-4.97c0.17-1.76,0.35-3.55,0.55-5.66c2.13-1.47,4.34-3,6.77-4.67c0-2.39,0-4.84,0-7.55
		c6.33-3.29,12.54-6.53,18.9-9.84c0.33-2.12,0.63-4.08,0.96-6.17c2.73-4.03,8.31-3.2,11.9-6.71c0.11-1.87,0.24-4.04,0.38-6.47
		c4.42-1.97,8.72-3.89,12.97-5.79c0-2.72,0-4.95,0-7.71c6.18-2.94,12.47-5.94,18.55-8.83c0.27-2.59,0.48-4.59,0.74-7.02
		c7.55-3.02,15.09-6.03,22.52-8.99c1.13-1.68,2.14-3.17,3.43-5.08c16.71-3.91,33.4-9.35,52.54-7.96c-0.07-0.04,1.18,0.5,2.23,1.31
		c1.07,0.82,1.92,1.92,3.14,3.17c2.66,0.26,5.56,0.54,8.33,0.81c4.06,3.3,6.41,7.05,6.45,12.37c0.03,3.56,1.19,7.11,1.75,10.68
		c0.31,1.97,0.42,3.97,0.67,6.4c-4.24,1.8-8.15,3.46-12.27,5.21c-0.17,2.33-0.33,4.54-0.47,6.54c-1.52,4.59-6.54,4-9.26,6.78
		c-0.97,3.18,2.59,6.6-1.13,10.52c-2.76,1.2-6.48,2.82-10.51,4.57c0.41,2.53,0.8,4.91,1.19,7.3c-3.53,5.45-10.1,4.95-15.14,8.11
		c0,2.03,0,4.22,0,7.02c-4.13,1.93-8.18,3.82-12.6,5.88c0.43,1.57,0.8,2.95,1.25,4.58c7.18-0.7,12.62-4.67,18.75-7
		c0.52-2.55,1.01-4.94,1.51-7.39c4.12-1.18,8-2.3,12.04-3.46c0.22-2.17,0.41-4.15,0.66-6.59c7.05-2.12,14.1-4.24,21.58-6.49
		c0-3.75,0-7.04,0-10.61c9.07-1.45,16.94-4.8,24.89-7.7c0.3-3.24,0.54-5.88,0.79-8.69c9.36-2.54,19.42-2.28,26.83-9.64
		c15.99-1.04,32.03-2.08,48.58-3.15c1.54,2.16,3,4.2,3.92,5.49c5.59,0.89,10.05,1.59,15.05,2.39c1.59,3.24,3.16,6.45,5.29,10.79
		c3.05,2.28,6.43,5.86,6.23,11.83c-1.01,1.44-2.16,3.07-3.16,4.5c-0.29,3.56,2.97,6.79-0.37,10.5c-4.89,1.32-10.27,2.78-15.95,4.31
		c0.41,3.01,0.73,5.4,1.02,7.5c-1.19,2.76-3.31,3.36-5.62,3.82c-4.22,0.84-8.43,1.78-12.62,2.76c-1.27,0.3-2.49,0.83-3.91,1.31
		c-0.18,3.49,2.83,6.74-0.33,10.64c-3.71,0.73-8.09,1.6-12.61,2.49c-0.8,1.98-1.54,3.82-2.55,6.33c-7.15,1.28-14.64,2.62-22.18,3.97
		c0.83,3.11,1.57,5.68,2.15,8.29c0.13,0.57-0.35,1.28-0.61,2.13c-7.22,3.24-15.52,2.14-23.48,4.9c0.65,1.88,1.3,3.25,1.58,4.69
		c0.3,1.51,0.25,3.09,0.37,4.83c-5.84,3.84-13.02,2.22-18.9,5c-0.27,3.41,2.81,6.23,0.31,10.16c-4.72,0.65-10.01,1.37-15.35,2.1
		c-0.34,3.25-0.61,5.86-0.88,8.5c-6.06,2.46-12.91,0.93-19.2,5.81c5.84,0.92,10.43,1.34,15.04,0.48c8.96-1.68,17.89-2.81,27.08-2.65
		c6.77,0.12,13.55-1.29,20.34-1.86c6.48-0.54,6.55-0.43,13.18,2.46c2.72-0.34,6.08-0.84,9.45-1.18c3.16-0.32,6.33-0.48,9.62-0.71
		c1.74,1.09,3.45,2.16,5.17,3.23c7.23,0,14.47,0,21.81,0c1.31,1.6,2.59,3.16,4.14,5.05c8.41,0,16.98,0,25.64,0
		c1.79,2.02,3.42,3.86,5.49,6.2c3.89,0,8.15,0,12.8,0c1.46,3.11,2.76,5.91,3.97,8.49c9.61,2.64,9.61,2.64,13.12,11.17
		c2.35,0.11,5.01,0.27,7.68,0.33c2.48,0.06,4.97,0.01,6.9,0.01c3.88,2.98,4.11,7.14,5.86,10.83c8.41-0.43,16.79,0.19,25.32-2.36
		c0.49-2.11,0.99-4.26,1.64-7.09c4.6-1.19,9.52-2.46,15.16-3.91c-1.32-2.07-2.23-3.5-3.41-5.34c0-2.27,0-4.96,0-8.3
		c10.53-3.32,21.79-3.78,32.4-7.89c0.21-1.53,0.44-3.06,0.64-4.6c0.2-1.53,0.36-3.06,0.58-4.91c1.53-0.24,2.81-0.52,4.11-0.62
		c8.6-0.68,17.22-1.2,25.81-2.04c2.41-0.24,4.74-1.36,8.02-2.35c11.25,0.6,23.47,1.24,36.62,1.94c1.34,2.34,2.98,5.22,4.93,8.63
		c3.24,0.8,7,1.63,10.7,2.66c6.54,1.83,8.05,3.98,7.73,10.83c-0.21,4.48-0.5,8.95-0.75,13.13c-3.72,2.67-7.6,1.37-11.46,2.4
		c0,2.71,0,5.55,0,7.79c-1.41,3.23-3.55,4.14-6.24,4.38c-4.07,0.36-8.13,0.88-12.19,1.38c-1.28,0.16-2.55,0.43-4.33,0.75
		c1.43,2.64,3.74,2.23,5.51,2.77c6.46,1.97,8.45,7.6,4.59,14.19c-4.89,0.24-10.02,0.5-15.31,0.76c-0.69,3.28-1.27,6.03-1.93,9.17
		c-5.58,0.72-10.68,1.38-15.74,2.04c-1.58,4.07,2.79,8.38-1.68,12.38c-1.45,0-3.44,0-5.44,0c-1.81,0-3.63,0-5.97,0
		c-0.24,3.37-0.48,6.65-0.75,10.33c-1.57,0.43-3.02,1.09-4.49,1.18c-4.77,0.29-9.55,0.4-14.32,0.52c-3.19,0.08-6.31,0.38-9.76,2.19
		c0.56,1.67,1.07,3.22,1.66,4.98c11.47,0.54,22.54,1.14,33.25,2.87c1.73,2.45,3.15,4.48,4.83,6.86c5.09,0.13,10.29,0.39,15.48,0.37
		c5.39-0.02,10.54,0.39,13.6,4.86c4.51,1.06,9.09-0.67,12.79,4.36c0.28,1.96,0.71,5.03,1.13,8c-1.61,1.53-2.84,2.69-4.49,4.25
		c3.57,1.92,6.73,3.63,10.15,5.47c2.78,3.59,4.65,7.5,1.09,12.3c-1.45,0.22-2.98,0.46-4.5,0.69c-0.11,0.37-0.42,0.82-0.31,1.11
		c2.01,5.57,2.02,5.56,0.87,11.34c-2.57,2.11-5.86,1.86-8.97,1.94c-8.87,0.23-17.75,0.23-26.62,0.42c-1.66,0.03-3.31,0.5-5.02,1.94
		c4.93,1.44,9.86,2.88,15.04,4.39c2.96,3.34,4.41,7.06,1.73,11.69c-5.23,1.61-10.32-0.81-15.49-0.51
		c-4.95,0.29-9.93,0.06-15.22,0.06c-0.4,3.05-0.76,5.86-1.2,9.22c-8.19,0.84-16.11-0.24-24.03,0.51c-0.98,1.28-1.94,2.52-3.29,4.29
		C960.16,1049.36,947.06,1048.6,933.44,1047.8z M502.59,1018.62c-0.15,2.78-0.25,4.56-0.35,6.38c-2,1.25-3.84,2.4-5.78,3.61
		c0.44,1.15,0.75,1.96,1.18,3.08c7.2-1.32,14.61,1.27,21.46-2.35c0.56-0.3,1.34-0.27,2.02-0.24c3.32,0.17,6.16-1.25,9.08-2.56
		c7.28-3.27,14.89-5.54,22.81-6.48c4.35-0.52,8.47-1.07,11.95-4.17c1.27-1.14,3.26-1.53,4.97-2.13c5.57-1.95,11.24-3.64,16.73-5.78
		c7.58-2.96,14.93-6.53,22.57-9.31c7.03-2.56,14.25-4.65,21.5-6.52c9.66-2.5,19.44-4.58,29.16-6.87c4.85-1.14,9.68-2.33,14.53-3.5
		c1.93-0.48,3.67-1.71,5.59-2.17c7.95-1.9,15.95-3.57,23.93-5.3c1.99-0.43,4-0.78,6-1.2c8.43-1.74,16.84-4.8,25.28-4.88
		c10.44-0.1,20.74-1.57,31.13-1.65c0.22,0,0.44,0.1,1.53,0.35c0.89,1.21,2.22,3.03,3.37,4.6c4.57,0,8.4,0,12.77,0
		c1.17,1.73,2.44,3.61,3.21,4.74c8.71,0.35,16.15-1.54,23.37-0.38c1.55,1.97,2.81,3.56,4.09,5.19c3.26,0.29,6.39,0.56,9.46,0.83
		c1.63,2.2,3.09,4.17,4.76,6.43c4.29,0,8.57,0,12.59,0c4.79,5.18,4.77,12.28,8.45,16.83c6.63,3.24,13.06-0.82,19.12,1.06
		c1.19,1.54,2.29,2.96,3.35,4.35c2.11,0.58,4.06,1.11,5.88,1.61c1.67,2.38,3.21,4.57,4.9,6.98c6.74,0,13.3,0,19.38,0
		c2.09,1.29,3.62,2.23,5.43,3.35c5.47,0,11.12,0,17.29,0c0.97,1.37,2.02,2.85,2.89,4.07c6.69,0.31,12.79,0.6,18.65,0.87
		c2.89,3.3,5.42,6.32,9.85,6.13c4.52-0.19,9.04-0.3,13.65-0.45c0.98-2.53,1.87-4.79,2.78-7.12c7.15-2.72,14.93-1.08,21.92-3.49
		c0.2-3.42,0.37-6.32,0.52-8.91c7.46-6.68,16.7-6.36,25.54-8.13c0-3.95,0-7.53,0-10.75c2.11-1.78,3.8-3.2,5.52-4.65
		c-1.61-3.06-3.05-5.8-4.4-8.37c-10.54-0.73-10.54-0.73-16.04-6.02c-5.63-0.23-11.3-0.47-16.97-0.68c-4-0.15-6.93-1.89-8.64-5.59
		c-0.46-0.99-1.1-1.89-1.66-2.85c-7.97-0.38-15.69-0.72-23.4-1.14c-2.26-0.12-4.54-0.34-6.73-0.82c-3.55-0.79-6.28-2.84-7.4-6.39
		c-1.17-3.74-1.83-7.57,0.6-10.02c2.71-1.5,4.79-2.13,6.12-3.48c4.66-4.75,10.56-6.9,16.7-8.68c1.27-0.37,2.48-0.94,3.8-1.45
		c0.3-2.63,0.57-5.06,0.84-7.4c6.38-5.39,14.4-4.11,22.05-6.16c1.09-8.78,9.66-8.78,15.36-12.43c0.34-2.08,0.67-4.08,0.93-5.66
		c3.04-4.52,8.05-3.43,12.17-5.17c0-3.02,0-5.93,0-8.25c1.21-2.43,2.12-4.25,3.03-6.09c3.2-1.31,6.27-2.57,8.8-3.6
		c0.52-3.5,0.46-6.34,1.42-8.77c1.44-3.67,0.98-7.04,0.28-9.89c-3.63-2.43-6.62-4.44-10.14-6.79c-8.92,0.17-18.49-1-28.13,1.8
		c-0.74,1.65-1.55,3.48-2.5,5.62c-10.07,2.46-20.14,4.93-30.34,7.43c0,4.29,0,8.07,0,11.81c-2.28,1.29-4.24,2.38-6.57,3.7
		c0,2.83,0,5.71,0,9c-2.95,0.7-5.54,1.44-8.17,1.91c-4.02,0.72-8.1,1.09-12.1,1.92c-8.64,1.8-17.22,3.92-25.88,5.63
		c-2.6,0.51-5.81,0.97-7.99-0.08c-3.74-1.81-7.42-1.74-11.26-1.81c-4.07-0.07-8.13-0.3-12.62-0.48c-2.15-3.52-4.22-6.93-6.22-10.21
		c-9.23-0.82-9.23-0.82-15.89-6.77c-2.82,0-5.74,0-9.02,0c-1.7-1.43-3.59-3.03-5.72-4.83c-4.02,0.25-7.03-1.75-9.4-5.24
		c-2.26-3.32-4.88-6.39-7.35-9.58c-7.98,0.39-15.42,0.75-22.55,1.09c-2.62-2.07-4.75-3.74-7.42-5.85
		c-7.14,0.73-14.76,1.52-21.6,2.22c-2.6-1.48-4.36-2.49-6.17-3.52c-5.22,0.66-10.37,1.32-15,1.91c-2.57-1.43-4.54-2.53-7.05-3.93
		c-6.09,1.12-12.55,2.25-18.99,3.5c-5.15,1-10.24,2.11-15.53,0.86c-1.27-0.3-2.73-0.1-4.05,0.17c-5.1,1.04-10.15,2.37-15.27,3.28
		c-7.48,1.33-15.09,4.71-21.64-0.65c-7.39,0.45-13.8,4.27-20.79,1.64c-2.16-3.55-5.18-6.61-3.78-11.1c3.95-3.77,5.23-4.69,9.82-5.89
		c2.59-0.68,4.54-1.9,5.89-4.22c0.68-1.17,1.58-2.21,2.81-3.88c7.31-2.14,15.1-4.42,22.28-6.52c1.84-3.02,3.36-5.51,4.8-7.87
		c3.01-1.22,5.72-2.33,8.33-3.39c3.98-7.15,4.84-7.96,12.53-10.78c4.03-1.47,8.15-2.7,12.2-4.02c1.67-6.55,5.4-9.9,16.53-13.81
		c0.39-0.65,1.04-1.36,1.3-2.2c1.61-5.27,5.11-8.33,10.43-9.71c4.81-1.25,9.53-2.87,15.01-4.54c2.11-5.23,7.65-6.76,13.19-8.09
		c0.59-2.49,1.11-4.66,1.57-6.62c7.03-5.56,15.44-6.88,23.42-9.24c0.45-2.56,0.84-4.76,1.23-6.97c1.77-1.57,3.45-3.07,4.63-4.13
		c0.86-4.51,1.6-8.44,2.45-12.88c-0.83-2.17-1.87-4.89-2.91-7.59c-2.31-0.46-4.29-0.85-6.14-1.22c-1.9-1.55-3.64-2.97-5.89-4.79
		c-11.64,2.7-23.97,3.11-35.65,6.99c-0.45,1.07-0.82,1.88-1.14,2.71c-0.4,1.03-0.76,2.07-1.25,3.39
		c-6.47,2.63-12.92,5.25-19.07,7.75c-0.2,3.15-0.35,5.57-0.5,7.92c-6.08,2.49-11.71,4.79-17.21,7.05c-0.49,2.4-0.89,4.34-1.3,6.32
		c-4.96,1.65-9.67,3.23-14.22,4.75c-0.98,2.04-1.85,3.85-2.45,5.08c-10.55,4.68-20.51,9.09-29.96,13.28
		c-1.05,2.28-1.8,3.9-2.32,5.04c-4.67,2.1-8.89,3.81-12.94,5.85c-4.21,2.12-8.96,3.3-12.32,7.04c-0.82,0.91-2.44,1.14-3.72,1.58
		c-7.28,2.51-14.55,5.06-21.87,7.45c-3.92,1.28-7.64,0.72-10.85-2.11c-3.37-2.98-6.06-6.22-4.34-12.05
		c3.62-2.32,7.75-4.98,12.03-7.73c0.13-1.98,0.25-3.98,0.34-5.39c2.85-5.42,8.24-6.34,12.52-9.2c1-9.68,10.29-10.2,16.7-14.54
		c-1.46-8.09,6.18-9.41,10.61-13.45c-0.67-6.42,3.18-9.54,8.49-11.55c0.42-0.16,0.86-0.37,1.17-0.68c0.48-0.46,0.86-1.02,1.26-1.52
		c-0.25-2.08-0.49-4.07-0.66-5.54c1.8-4.79,6.3-5.71,9.44-8.34c0.5-2.24,0.99-4.43,1.51-6.76c1.2-1.49,2.46-3.06,3.67-4.56
		c0-3.84,0-7.44,0-10.99c-2.52-1.74-4.9-3.39-6.75-4.67c-11.12,0.42-21.12,3.05-30.66,7.83c-0.5,1.61-1.03,3.31-1.48,4.76
		c-4.46,3.26-10.36,3.36-13.54,7.8c-0.18,2.21-0.34,4.2-0.51,6.32c-3.63,1.74-7.06,3.39-10.35,4.97c-0.35,2.4-0.64,4.36-0.93,6.34
		c-5.29,2.61-10.36,5.11-15.18,7.49c-0.5,2.25-0.89,3.98-1.27,5.7c-5.48,3.1-10.79,6.09-15.69,8.86c-0.43,2.53-0.73,4.28-0.95,5.61
		c-7.35,4.53-14.29,8.81-20.95,12.91c-0.78,2.22-1.38,3.91-1.89,5.35c-2.11,1.8-3.98,3.39-5.65,4.81c0,2.69,0,4.96,0,7.5
		c-2.49,3.23-5.09,6.6-7.38,9.58c0.43,3.1,0.77,5.5,1.09,7.78c-7.65,4.98-14.81,9.63-21.84,14.2c-2.6-0.77-4.74-1.4-6.95-2.06
		c-4.66,2.46-9.22,4.87-13.48,7.11c-2.71-1.19-4.76-2.09-7.2-3.16c-4.69,2.97-9.43,5.96-14,8.85c-2.77-1.16-5.01-2.1-7.65-3.21
		c-4.72,3.21-9.39,6.39-14.2,9.66c-6.08-0.98-10.13,2.73-14.15,6.53c-2.63,2.49-5.29,4.96-8,7.36c-2.36,2.1-5.02,3.9-7.18,6.18
		c-3.39,3.58-6.47,7.44-10.1,11.68c-1.18,2.95,1.28,4.91,3.47,6.88c4.34,3.9,6.94,8.81,8.95,14.34c-1.17,1.69-2.26,3.26-3.38,4.88
		c2.15,2.31,4,4.29,5.76,6.17c2.26,0.27,4.26,0.5,5.9,0.7c3.98,3.25,6.26,7.01,6.77,12.18c3.24,0,6.36,0,9.61,0
		c1.7,2.14,3.25,4.1,4.31,5.44c6.94,0.74,13.05-3.91,18.41,0.76c5.1-0.54,9.61-2.83,14.84-1.44c5.15,4.9,8.93,10.74,10.26,18.26
		c-4.45,1.9-8.35,3.56-12.37,5.27c0,2.49,0,4.48,0,6.58c-1.22,0.64-2.16,1.3-3.2,1.64c-5.39,1.75-10.83,3.34-16.2,5.15
		c-3.43,1.16-7.38,1.87-9.98,4.09c-3.84,3.27-8.27,4.58-12.74,6.11c-5.77,1.97-11.58,3.83-17.12,5.66c0,2.84,0,5.04,0,7.32
		c-4.56,1.96-8.89,3.83-13.17,5.67c0,2.11,0,3.89,0,5.55c-1.17,1.47-2.24,2.82-3.53,4.45c1.49,1.29,2.62,2.26,3.87,3.33
		c3.26-0.89,6.3-1.82,9.39-2.52c3.53-0.81,7.09-1.89,10.66-2c4.68-0.15,9.01-1.15,13.15-3.14c4.07-1.96,7.86-4.68,12.1-6.05
		c8.84-2.85,17.89-5.03,26.85-7.49c0.65-0.18,1.28-0.41,1.02-0.32c1.9-2.2,3.22-3.72,3.66-4.23c9.56-2.04,17.24-5.33,26-4.63
		c5.77,4.54,12.96,1.33,19.69,2.6c2.99,2.94,6.45,5.65,5.7,10.78c-5.29,2.87-11.65,2.81-16.19,6.65c0.67,2.92,1.25,5.48,1.88,8.26
		c-7.21,3.11-14.53,4.75-20.74,8.94c1.19,4.19,5.69,6.84,4.02,11.24C517.16,1014.48,510.02,1016.51,502.59,1018.62z"/>
	<path d="M1684.91,290.44c0,2.44,0,4.92,0,7.74c-0.99,1.48-2.12,3.16-3.61,5.39c0.14,2.86,0.23,6.25,0.49,9.63
		c0.24,3.2,0.54,6.37-1.58,9.1c-5.17,2.47-5.17,2.47-10.31,2.26c-5.3-2.95-9.99-5.56-15.38-8.55c-0.82-2.63-1.81-5.8-3.08-9.86
		c-1.08-0.65-2.98-1.81-5.15-3.13c-0.77-1.65-1.62-3.48-2.74-5.87c1.05-2.68,1.81-5.81,3.42-8.43c1.53-2.48,2.17-4.92,2.08-8.1
		c-4.13-3.1-4.07-7.92-3.89-12.91c-5.63-2.31-12.13-0.3-17.66-4.68c-0.47-3.42-1.02-7.36-1.63-11.76
		c-6.93-0.87-13.63-1.71-20.77-2.61c-1.63-1.84-3.42-3.86-5.36-6.06c-2.41-1.78-5.42-1.44-8.36-1.33
		c-12.04,0.49-24.08,0.87-36.1,1.64c-5.84,0.37-11.63,1.5-17.7,2.33c-0.5,5.64-2.51,10.32-7.27,13.69c0.68,3.39,1.34,6.68,2.1,10.44
		c2.26,0.89,4.53,1.78,7.25,2.84c0.81,1.09,1.89,2.52,2.89,3.87c0,2.92,0,5.62,0,8.98c-2.19,1.17-4.5,2.42-6.98,3.75
		c-1.47,3.62,2.19,8.1-2.29,12.23c-3.29,0.58-7.49,1.33-12.01,2.13c-0.87,1.55-1.85,3.29-2.92,5.18
		c-9.22,0.78-18.22,0.55-27.97-2.34c-7.88-8.4-1.89-16.48,2.42-24.64c-0.95-1.94-1.84-3.74-2.86-5.8
		c-0.52-4.42,0.63-9.35-2.32-14.27c-2.13-0.07-4.61-0.4-7.02-0.16c-5.13,0.51-9.51-0.57-12.7-5.45c-2.04,0-4.05,0-6.06,0
		c-3.61,0-7.24-0.26-10.83,0.05c-5.19,0.45-10.46,0.83-15.48,2.09c-7.25,1.83-14.33,4.36-21.45,6.7
		c-5.93,1.95-11.07,5.11-15.37,9.74c-2.08,2.25-4.69,3.99-7.31,6.17c2.22,2.52,5.13,2.94,7.96,3.38c4.41,0.69,8.27,2.35,11.58,5.9
		c2.31,5.58,1.62,11.83,2.3,17.88c0.12,1.04-0.33,2.25-0.8,3.24c-2.25,4.8-2.12,9.77-0.49,14.54c1.64,4.78,1.88,8.93-2.19,11.87
		c-0.6,3.63-1.1,6.69-1.63,9.9c-3.23,0.37-5.9,0.67-8.7,0.99c-1.44,1.28-2.94,2.61-4.61,4.09c-9.94-0.3-19.96,0.41-29.9-2.75
		c-6.36-6.65-10.66-14.59-12.56-23.63c-1.85-8.8-0.21-17.62,1.1-26.38c1.41-9.48,8.05-16.05,13.36-23.68
		c-2.24-3.01-4.37-5.87-6.4-8.6c-0.25-3.21-0.48-6.14-0.74-9.46c-1.58-0.76-3.1-1.87-4.78-2.23c-7.3-1.57-14.6-3.31-21.99-4.25
		c-6.01-0.76-9.66-3.42-10.95-9.33c-0.14-0.64-0.56-1.23-0.88-1.82c-0.1-0.19-0.3-0.34-0.75-0.82c-9.68-2.97-20.42-0.67-30.22-3.39
		c-1.78-2.08-3.24-3.78-5.06-5.91c-15.4,2.72-31.52,1.96-46.25,8.65c-0.4,2.84-0.75,5.26-1.11,7.78c-2.2,1.02-4.17,1.93-6.41,2.97
		c0.6,3.48,1.16,6.75,1.75,10.22c-1.82,1.4-3.39,2.61-4.96,3.81c0.08,0.4,0.03,1.03,0.26,1.17c1.76,1.02,3.57,1.94,5.69,3.07
		c2.62,5.94,6.59,11.71,4.05,19.53c-2.68,0.82-5.42,1.66-8.39,2.57c-1.39,3.11,1.67,7.33-3.04,10.78c-3.8,0.37-8.71,1.06-13.64,1.28
		c-6.82,0.31-13.65,0.45-20.47,0.31c-7.71-0.17-11.48-5.07-10.46-13.68c2.38-1.43,5.06-3.03,7.8-4.67
		c-0.3-3.69-0.59-7.21-0.87-10.68c2.93-1.86,5.41-3.44,8.07-5.13c1.18-2.82,2.41-5.73,3.67-8.73c-0.86-4.46-1.71-8.9-2.5-13.02
		c-3.44-2.11-6.69-4.1-9.53-5.85c-5.01-0.79-9.64-1.52-15.74-2.48c-5.73,3.99-14.17,0.07-21.5,2.24c-1.73,4.66,3.21,8.26,0,13.4
		c-3.58,1.49-8.12,3.39-12.96,5.41c0.44,3.42,0.86,6.68,1.36,10.55c-2.3,0.95-4.3,1.81-6.33,2.61c-2.1,0.82-4.22,1.58-6.49,2.42
		c-0.41,2.18-0.77,4.14-1.13,6.09c-1.62,2.18-19.55,7.45-27.97,8.17c-1.85-1.98-3.84-4.12-5.89-6.31c-2.3-0.17-4.55-0.34-6.81-0.51
		c-3.34-2.22-4.17-5.84-5.12-8.08c0.44-5.98,0.8-10.84,1.18-16.01c5.14-2,10.17-3.96,15.32-5.96c2.45-10.57,12.09-12.58,20.51-17.15
		c-2.35-1.11-4.11-1.94-6.25-2.94c-1.11-1.54-2.42-3.37-3.93-5.47c-2.95,0-6.1,0-9.1,0c-2.23-1.09-4.26-2.08-6.95-3.4
		c-10.99,2.28-22.51,4.66-34.41,7.13c-1,1.11-2.19,2.44-3.44,3.83c-6.06,1.52-12.18,3.06-18.4,4.63c-0.46,2.38-0.83,4.33-1.34,7.03
		c-2.82,1.33-6.03,2.85-9.51,4.49c-0.51,6.08-1.04,12.31-1.6,18.94c-3.31,1.06-6.71,2.15-9.61,3.08c-1.7,4.97-3.27,9.56-4.94,14.45
		c-8.21,4.37-15.52,10.98-25.38,10.74c-7.38-6.98-7.68-8.51-3.36-16.52c-0.37-2.95-0.78-6.27-1.09-8.78
		c1.82-4.55,6.45-2.13,8.63-5.29c0.65-3.1-2.74-6.79,0.57-10.15c2.67-2,6.88,0.06,9.52-3.46c0.13-2.34,0.27-5.04,0.43-8.13
		c3.24-0.78,6.47-1.56,10.08-2.43c0.19-3.03,0.38-5.91,0.57-8.88c5.89-1.91,11.65-3.78,17.41-5.66c0.89-1.53,1.67-2.86,2.5-4.29
		c7.07-3.21,16.01-1.56,21.06-7.49c5.17-0.99,9.49-1.44,13.58-2.68c8.35-2.52,16.95-2.97,25.53-3.71c4.74-0.41,9.48-0.8,14.04-1.18
		c2.21,1.3,4.16,2.44,5.87,3.44c5.02,0.59,9.73,1.15,14.05,1.66c6.75,6.04,6.75,6.04,12.74,7.22c1.66,1.8,3.49,3.77,5.8,6.27
		c7.13-0.72,14.53-1.4,21.92-2.24c7.2-0.82,14.37-1.81,21.91-2.77c1.69,1.1,3.57,2.34,5.75,3.77c4.17-0.15,8.05,0.96,11.25,4.53
		c1.38,1.54,3.91,2.05,7.24,3.67c0.75,0.95,2.41,3.07,4.36,5.55c3.17-0.18,6.91,1,9.56-2.47c0.43-2.82,0.86-5.6,1.35-8.84
		c5.47-1.82,10.53-3.76,15.73-5.17c7.86-2.13,15.83-3.89,23.76-5.79c1.32-0.32,2.67-0.73,4-0.74c10-0.06,20-0.03,30.27-0.03
		c1.59,2.01,3.11,3.94,5.24,6.62c1.93,0.29,4.57,0.67,7.21,1.07c4.25,0.65,8.66,0.8,12.71,2.07c5.93,1.86,11.31,4.91,13.69,11.04
		c5.87,1.34,11.4,2.52,16.87,3.89c2.63,0.66,5.21,1.56,7.73,2.57c6.92,2.77,10.99,7.78,11.73,15.33c0.06,0.66,0.32,1.31,0.5,2.04
		c0.76,0.47,1.51,0.99,2.31,1.41c7.63,3.97,14.13,3,20.21-3.54c4.54-4.89,11.05-7.04,17.15-9.49c9.93-4,20.16-6.79,30.95-7.44
		c4.26-0.26,8.46-1.85,12.71-1.98c9.98-0.31,19.98-0.1,30.59-0.1c1.9,2.09,3.99,4.4,6.54,7.22c6.17,0.83,12.87,1.91,19.61,2.54
		c3.07,0.29,6.46,0.43,8.88-2.7c-1.56-4.46-2.85-9.06,0.03-14.48c2.28-0.5,5.06-1.43,7.91-1.69c12.43-1.13,24.9-1.86,37.32-3.12
		c14.78-1.49,29.51-0.51,44.26,0.14c2.97,0.13,5.94,0.15,8.6,2.52c0.55,1.63,1.2,3.53,2.04,6.02c4.68,0.97,9.5,1.94,14.31,2.97
		c4.88,1.04,9.8,1.92,14.61,3.24c4.76,1.3,8.12,4.07,7.97,9.63c-0.02,0.86,0.39,1.74,0.73,3.12c5.57,1.84,11.31,3.74,16.24,5.37
		c3.74,3.61,2.25,7.56,3.47,10.9c0.98,4.37,1.96,8.74,2.94,13.11c-0.23,0.07-0.46,0.14-0.7,0.21
		C1682.71,286.87,1683.77,288.6,1684.91,290.44z M1377.63,317.99c3.05-3.56,3.14-7.58,1.73-12.03c-1.47-4.63-1.36-9.39,0.92-14.15
		c-1.44-1.73-2.81-3.38-4.54-5.45c-7.82,8.43-15.05,16.24-14.62,28.12c0.03,0.9,0.02,1.86-0.22,2.71
		c-2.31,8.12,2.04,13.88,6.78,19.95c4.09,0.14,8.15,0.46,12.21,0.35c2.7-0.07,5.39-0.74,5.98-4.7c-3.48-1.24-6.9-2.58-8.24-6.74
		C1377.63,323.86,1377.63,321.37,1377.63,317.99z M1108.91,271.56c1.85-3.01,3.49-5.67,4.81-7.8c0.26-4.18,0.47-7.7,0.69-11.32
		c-2.76,0.06-4.96,1.44-5.87,3.79c-1.77,4.56-4.91,7.33-9.35,9c-0.69,0.26-1.11,1.26-1.81,2.1
		C1100.04,272.01,1104.01,272.32,1108.91,271.56z"/>
	<path d="M532.39,313.3c-4.97-1.51-9.4-1.6-13.88-1.24c-8.34,0.67-8.82,0.39-12.42-7.66c0.37-1.02,0.81-2.27,1.24-3.45
		c2.58-1.19,4.97-2.3,8.55-3.95c-5.42-1.22-8.2-3.87-9.72-8.03c-4.26-1.27-7.9-3.4-9.48-8.37c-7.4,0.88-14.2,3.32-21.63,5.66
		c-2.05-0.88-4.52-1.93-7.58-3.24c-4.05,1.39-8.5,2.91-12.61,4.32c-2.31,6.57-5.82,14.01-11.26,16.7c0,2.39,0,4.86,0,7.48
		c-3.12,4.41-8.51,3.66-13.31,5.81c-1.18,1.49-2.73,3.42-4.74,5.95c-19.71,5.4-40,10.96-60.22,16.51c-2.19-1.63-3.98-2.96-6.14-4.57
		c-5.41,2.62-10.87,5.27-15.85,7.68c-10.64-1.69-12.98-4.64-11.5-14.73c1.39-0.65,3.1-1.91,4.97-2.24
		c10.04-1.76,20.09-3.46,30.19-4.84c4.74-0.65,9.56-0.35,13.98,2.01c2.5-0.61,4.89-1.2,7.22-1.77c0.87-1.99,1.67-3.83,2.54-5.84
		c3.28-0.83,6.54-1.65,9.93-2.5c0.45-1.88,0.86-3.59,1.3-5.43c3.66-1.89,7.24-3.73,10.77-5.55c-0.3-3.4-0.57-6.49-0.83-9.34
		c6.67-5.09,14.06-7.46,21.12-10.49c2.72-1.17,5.09-2.71,7.54-4.37c3.47-2.35,7.66-3.84,11.74-5.06
		c11.31-3.38,22.67-6.61,34.11-9.52c4.79-1.22,9.82-1.49,14.37-2.14c2.49,1.38,4.47,2.47,6.96,3.85c3.4-0.44,7.19-1.04,11.01-1.41
		c3.16-0.3,6.44-0.91,9.48-0.33c2.96,0.56,5.67,2.44,9.58,4.25c4.17-0.37,9.55-0.86,15.61-1.4c1.14,0.82,2.77,1.99,4.41,3.17
		c0.57,2.11,1.1,4.05,1.53,5.63c-0.73,3.64-4.26,3.6-6.29,5.89c0.86,2.32,1.78,4.8,2.86,7.73c-5.23,7.01-14.35,7.99-21.44,13.27
		c2.27,1.82,4.14,3.31,6.35,5.08c0.45,0.85,1.14,2.03,1.71,3.25c2.59,5.56,2.42,7.41-2.04,11.36c-2.52,2.23-5.4,4.19-8.4,5.72
		c-7.27,3.72-14.72,7.1-22.07,10.67c-1.8,0.87-3.52,1.92-5.51,3.01c1.71,3.3,3.24,6.25,4.54,8.73c-0.11,3.4-1.45,5.28-3.99,6.43
		c-4.94,2.25-9.85,4.59-14.79,6.85c-2.24,1.02-4.53,1.94-7.37,3.16c1.44,2.8,2.64,5.15,4.1,8c4.88,0.23,9.81,0.46,14.93,0.7
		c1.5,1.25,3.06,2.54,5.02,4.17c0.09,1.71,0.2,3.66,0.33,6.06c-4.93,2.28-9.59,4.44-14.28,6.61c-0.12,2.46-0.23,4.7-0.36,7.17
		c-3.45,2.76-7.71,3.66-11.71,5.14c-4.08,1.51-8.29,2.85-9.89,7.45c-8.39,3.11-16.48,6.04-24.52,9.12
		c-5.72,2.2-11.33,4.7-17.05,6.91c-2.52,0.97-5.19,2.22-7.78,2.19c-6.79-0.08-12.92,2.2-19.17,4.24
		c-5.18,1.69-10.32,3.52-15.58,4.93c-7.46,2-14.91,3.16-20.77-4.27c-6.83,1.8-13.39,3.52-19.95,5.26
		c-6.98,1.86-13.72,5.04-21.89,3.63c-2.26-2.47-4.85-5.29-7.94-8.67c-7.1,2.46-14.51,5.02-21.6,7.47c-2.2-0.78-3.9-1.39-5.22-1.86
		c-5.5-4.18-6.09-8.92-2.48-17.42c-0.73-3.01-1.46-6.03-2.16-8.91c2.05-2.44,3.75-4.45,5.66-6.72c-4.69-0.61-8.78-1.15-12.88-1.68
		c-0.03-0.31-0.06-0.62-0.09-0.93c-2.8,0.88-5.61,1.71-8.39,2.64c-5.15,1.71-10.15,3.59-15.84,3.47c-2.92-0.06-6.04,1.71-8.8,3.16
		c-3.88,2.04-7.69,3.95-11.94,3.41c-7.66,4.21-15.02,8.25-21.74,11.94c-6.67,2.04-8.4-4.53-13.54-6.17
		c-5.15,1.89-10.96,3.84-16.61,6.17c-3.95,1.63-7.88,1.98-11.89,1.26c-4.98-2.21-6.08-7.23-8.78-11.54c-3.59,0-7.4,0-11.57,0
		c-1.55-1.62-3.11-3.25-5.1-5.33c-1.84-0.11-4.32-0.25-7.57-0.44c-1.33-1.36-3.4-2.89-4.67-4.91c-3.23-5.15-6.1-10.53-8.98-15.56
		c-0.39-5.71,4.92-7.59,7.17-11.95c-0.34-2.46-0.74-5.31-1.12-8.01c4.72-6.31,11.96-8.68,18.18-13.67
		c-0.34-2.43-0.73-5.25-1.13-8.19c3.4-4.7,7.55-8.77,13-11.45c1.81-0.89,3.57-2.08,5.01-3.48c0.78-0.76,0.82-2.28,1.37-4.03
		c-4.2-0.19-7.77-0.36-10.9-0.5c-3.32-1.46-4.96-3.87-6.38-6.52c-1.6-2.98-3.13-6.02-4.93-8.88c-3.34-5.31-3.35-6.44,0.56-11.4
		c0.41-0.52,0.68-1.15,0.97-1.66c-0.83-3.33-1.64-6.54-2.53-10.1c5.18-2.94,9.89-5.62,14.89-8.46c0.06-5.6,3.83-7.87,8.63-9.78
		c5.68-2.26,11.05-5.34,16.53-8.11c1.01-0.51,2.05-1.07,2.85-1.85c9.69-9.43,21.63-10.14,34.1-8.9c1.97,0.2,3.95,0.37,6.69,0.62
		c-0.21-3.23-0.38-5.84-0.57-8.81c0.82-1.25,1.78-2.73,2.93-4.47c-0.12-2.46-0.25-5.15-0.41-8.4c2.39-1.17,4.99-2.45,8.14-4
		c0.68-1.25,1.65-3.03,2.97-5.45c8.73-2.82,17.98-5.8,28.02-9.04c0.48-0.94,1.39-2.74,2.62-5.17c11.54-2.82,22.52-9.32,34.9-9.87
		c2.36,2.03,4.25,3.65,5.18,4.46c5.45,1.74,9.81,2.9,13.99,4.53c4.5,1.76,6.74,5.4,6.41,10.21c-0.26,3.85-0.67,7.62,0,11.5
		c0.28,1.62-0.71,3.45-1.13,5.21c0.8,2.09,2.59,2.45,4.46,2.26c1.79-0.19,3.59-0.58,5.28-1.17c5.81-2.04,11.51-2.57,17.07,0.88
		c4.4,4.21,3.31,9.38,2.18,15.25c-1.69,1.88-3.81,4.23-6.17,6.86c-2.2,5.72-6.13,10.41-11.81,13.74c-6.66,3.9-13.2,7.99-19.76,12.07
		c-4.11,2.56-4.84,2.82-10.02,2.61c-1.05-1.81-2.27-3.89-3.58-6.15c4.12-5.26,10.32-6.47,14.91-10c4.66-3.59,9.1-7.48,13.55-11.17
		c0.88-3.07,1.72-6.02,2.66-9.32c-2.64-1.85-5.59-1.24-8.3-0.37c-3.14,1.02-5.99,1.12-9.29,0.4c-3.19-0.7-6.7,0.08-10.67,0.24
		c-4.88-2.71-5.89-8.04-6.8-13.32c1.93-4.66,7.94-3.81,10.14-8.23c-0.32-1.95-0.67-4.14-1.05-6.47c1.73-2.08,3.4-4.09,5.61-6.75
		c-8.16-0.77-15.45-1.46-24.17-2.28c-0.49,0.21-2.36,1.01-4.49,1.92c-4.56,6.98-13.38,6.38-20.57,11.14c-1.12,1.18-3,3.14-4.63,4.84
		c-2.38,0.55-4.42,0.84-6.32,1.51c-1.9,0.67-3.67,1.71-5.55,2.62c-0.45,2.13-0.86,4.09-1.29,6.11c-1.75,1.44-3.46,2.85-5.26,4.33
		c1.41,3.29,4.35,5.84,2.85,10.49c-0.83,0.6-2.11,1.97-3.69,2.6c-8.17,3.3-16.39,6.49-24.84,8.49c-2.2-1.46-4.06-2.7-5.7-3.79
		c-12.65,1.15-10.2,0.81-15.47,7.21c-2.56,0.92-5.3,1.9-7.77,2.79c-0.66,2.8-1.21,5.12-1.69,7.15c-6.5,2.95-12.43,5.64-18.35,8.33
		c0.84,3.05,1.54,5.56,2.33,8.44c-2.11,1.47-3.93,2.73-6.34,4.41c5.31,3.28,9.65,5.99,8.87,12.06c3.17,0.31,5.62,0.55,8.67,0.85
		c1.87,5.28,7.37,8.75,8.26,15.45c-5.61,4.8-13.03,6.46-18.69,11.35c1.24,2.88,2.52,5.85,3.69,8.57c-3.89,6.04-11,6.55-15.23,11.34
		c1.09,3.26,5.5,5.54,2.89,9.82c-2.33,2.97-7.21,2.32-9.41,5.95c1.82,2.75,3.54,5.35,5.37,8.13c-1.35,1.89-2.51,3.5-3.68,5.14
		c2.31,3,4.62,6,7.4,9.6c5.63,0.58,10.36-6.37,16.99-3.66c3.54,1.66,4.9,4.3,2.87,8.49c-4.14,3.24-9.06,6.17-11.86,11.32
		c2.11,1.35,3.66,0.31,5.38-0.28c9.64-3.32,19.28-6.61,28.99-9.72c2.1-0.67,4.47-0.52,6.6-0.74c1.73,1.16,3.22,2.16,4.66,3.13
		c0.79-0.04,1.54,0.1,2.13-0.14c2.94-1.21,5.92-2.35,8.72-3.82c5.42-2.84,10.72-5.91,16.09-8.85c0.99-0.54,2.03-1.24,3.11-1.36
		c9.64-1.11,18.09-5.75,27.02-8.99c1.92-0.7,3.87-1.32,5.8-1.98c2.72-0.93,5.21-0.66,7.86,0.66c6.14,3.08,12.36,3.61,18.82,0.4
		c3.79-1.88,7.71-4.01,12.24-3.19c2.76,1.66,4.83,3.6,4.06,7.77c-1.48,1.54-3.32,3.48-5.28,5.53c0.76,2.8,1.52,5.6,2.43,8.95
		c2.05,2.49,5.11,5.16,4.23,9.91c-4.49,2.19-9.1,4.43-13.71,6.67c0.12,0.34,0.24,0.68,0.37,1.02c5.88-1.4,11.76-2.8,18.32-4.36
		c1.71,1.09,3.74,2.39,5.73,3.66c0.31,2.11,0.58,3.88,0.84,5.65c0.37,0.19,0.74,0.54,1.12,0.55c5.82,0.13,10.98-2.62,16.5-3.8
		c6.82-1.46,13.67-2.87,20.53-3c1.94,1.82,3.59,3.37,5.33,5.01c4.71,1.17,8.69-1.81,13.04-2.73c3.74-0.79,7.43-2.06,10.97-3.53
		c10.07-4.19,20.32-7.68,31.22-8.99c1.53-0.18,2.98-1.04,4.78-1.69c0.4-1.64,0.81-3.35,1.27-5.24c3.39-4.93,10.28-2.56,14.57-6.41
		c0-2.33,0-4.67,0-6.96c5.69-2.3,11.69-2.12,17.47-6.53c-3.91,0.33-6.53,0.64-9.16,0.76c-2.47,0.11-4.96,0.02-8.02,0.02
		c-1.33-2.1-2.76-4.36-4.32-6.82c-1.73-0.46-3.67-0.96-5.41-1.42c-2.53-2.78-4.42-5.51-3.9-9.6c15.18-5.48,30.44-10.99,45.7-16.5
		c-0.02-0.36-0.04-0.72-0.06-1.08c-1.56-0.35-3.23-0.47-4.65-1.13c-1.4-0.64-2.56-1.82-3.87-2.81c-0.5-2.03-0.97-3.97-1.58-6.45
		c1.62-0.96,3.04-1.99,4.6-2.7c14.67-6.71,29.36-13.35,44.04-20.04C528.57,317.06,530.76,316.01,532.39,313.3z"/>
	<path d="M210.32,595.15c-6.31-3.45-6.31-3.45-11.14-10.78c-0.17-1.88-0.36-4.11-0.55-6.23c-3.97-1.31-7.77-2.57-11.06-3.66
		c-3.78-4.4-6.52-8.49-6.09-13.85c-2.44-2.25-4.76-4.38-7.07-6.51c0-2.71,0-5.18,0-7.84c2.72-2.95,5.47-5.94,8.14-8.86
		c-0.36-3.11-0.69-5.99-0.97-8.47c1.92-2.65,3.5-4.83,5.03-6.93c-0.81-3.56-1.56-6.84-2.27-9.93c3.73-6.22,9.99-8.23,15.43-11.26
		c5.85-9.26,14.28-13.42,24.58-13.41c3.88,3.55,3.88,3.55,4.89,8.04c-2.23,1.13-4.58,2.32-7.1,3.59c-0.61,2.15-1.22,4.3-1.94,6.81
		c-5.03,2.02-10.24,4.12-15.44,6.21c0.89,3.25,1.66,6.04,2.57,9.38c-2.42,1.78-4.71,3.46-7.45,5.47c1.28,1.64,2.78,3.25,3.9,5.1
		c1.01,1.68,1.6,3.61,2.42,5.55c-2.16,1.65-3.9,2.97-5.8,4.43c3.38,2.52,6.9,4.4,7.89,8.58c-0.13,2.87-2.17,4.06-4.4,5.46
		c-3.59,2.24-7.81,3.84-9.95,8.19c2.8,2.84,5.89,0.64,8.82,0.57c2.95-0.07,5.89-0.01,8.59-0.01c4.31,4.01,4.31,4.01,4.45,9.62
		c-1.11,1.76-2.3,3.64-3.74,5.93c4.16,1.57,7.35-0.69,10.7-1.28c3.34-0.59,6.66-1.32,10.61-2.11c1.9,1.87,3.97,3.9,6.18,6.06
		c2.9,0.92,6.06,1.93,9.21,2.93c6.26,0.8,12.15-3.14,18.91-1.69c1.63,1.23,3.44,2.58,5.42,4.07c4.16-0.34,8.43-0.68,12.82-1.04
		c2.15,1.22,4.3,2.45,6.69,3.82c6.25-1.3,12.64-2.62,19.04-3.95c4.33,4.35,8.91,3.45,13.61,1.85c5.14-1.76,10.32-3.42,15.49-5.12
		c1.08-0.36,2.14-1.03,3.22-1.05c9.52-0.16,18.03-4.2,26.96-6.67c6.51-1.8,13.28-2.68,19.69-3.91c4.02,1.98,5.86,4.76,5.49,9.7
		c-5.78,4.09-13.62,4.82-20,9.3c-0.2,1.95-0.42,4.16-0.7,7.03c-5.66,2.49-11.5,4.94-17.22,7.62c-3.68,1.73-7.23,3.73-10.74,5.78
		c-0.86,0.5-1.34,1.65-2.12,2.67c2.62,2.62,5.58,2.38,8.48,2.55c3.84,0.22,7.73,0.27,11.48,1.03c6.52,1.32,7.92,3.21,8.8,10.12
		c0.06,0.44,0.27,0.85,0.54,1.68c5.9,1.3,11.81-2.31,18.81-0.6c1.39,2.18,3.18,4.97,5.48,8.58c8.49,0.19,17.45-4.16,27.2-2.02
		c1.21,1.42,2.66,3.13,4.53,5.33c1.93-0.2,4.15-0.29,6.32-0.7c6.69-1.26,13.33-2.73,20.03-3.95c4.29-0.78,8.6-0.9,12.98,1.72
		c6.1-1.74,12.4-3.54,18.53-5.29c1.26-1.36,2.34-2.52,3.51-3.78c1.73-0.29,3.51-0.58,5.5-0.92c1.22-1.46,2.52-3.01,3.85-4.6
		c4.65-1.03,9.27-2.07,14.41-3.21c-0.31-3.19-0.61-6.22-0.93-9.57c2.09-1.07,4.06-2.07,6.41-3.27c-0.73-3.95-2.76-8.34,1.49-11.38
		c-0.5-3.01-0.93-5.59-1.38-8.36c2.12-0.92,3.71-1.61,6.61-2.87c-2.85-0.38-4.45-0.59-6.27-0.83c-6.9-4.88-3.66-12.16-4.48-18.99
		c5.5-1.33,10.76-2.4,15.89-3.9c4.98-1.46,9.83-3.38,15.07-5.21c0.42-2.08,0.86-4.23,1.31-6.48c8.78-3.35,17.42-6.64,26.51-10.1
		c-1-3.78-1.85-6.96-2.71-10.2c4.47-4.3,11.53-1.97,15.58-7.04c0.02-3.74-3.58-7.4-1.05-11.84c4.07-2.11,9.33-2.47,13.37-6.43
		c-3.65-1.8-6.99,0.44-10.91-0.57c-3.83-2.09-4.96-5.83-3.79-10.93c2.4-1.68,4.95-3.46,8.06-5.63c-3.06-1.77-5.52-0.58-8.03-0.23
		c-2.67,0.38-5.41,0.35-7.5,0.46c-4.36-2.19-4.64-6.12-6.17-9.73c-3.69-0.34-7.29,0.19-11.08,1.31c-9.12,2.7-17.76,6.92-27.31,8.32
		c-2.83,0.42-5.5,1.99-8.14,2.99c-0.75,1.97-1.39,3.64-2.09,5.44c-6.67,2.73-14.25,3.31-20.06,8.78c-0.32,1.71-0.69,3.69-1.05,5.64
		c-5.11,4.96-11.58,7.46-18.36,7.08c-2.92-1.85-3.89-4.83-4.73-8.38c0.89-1.75,1.89-3.71,2.98-5.83
		c-5.76-3.36-12.13-0.79-18.07-2.06c-3.46-1.47-4.37-4.97-6.14-8.25c-6.42-2.08-12.86,1.94-19.85,0.39
		c-1.36-1.11-3.1-2.52-5.03-4.09c-2.08,0-4.34,0-5.79,0c-3.81,2.75-7.03,5.08-10.58,7.64c1.74,3.45,6.57,6.29,4.03,11.75
		c-6.14,1.9-12.35,3.82-18.66,5.77c-0.25,2.92-0.47,5.37-0.74,8.54c-3.69,1.97-7.64,4.08-11.71,6.27c-0.88,1.45-1.8,2.98-2.93,4.85
		c-2.96,0.6-6.04,1.22-9.09,1.83c-1.82-0.76-3.43-1.78-5.16-2.07c-2.15-0.36-4.71-0.83-6.54-0.01c-4.52,2.02-8.35,1.45-12.32-2.09
		c-4.4,1.62-8.88,3.16-13.26,4.92c-2.77,1.11-5.43,2.37-8.96,1.51c-2.01-1.91-4.3-4.07-6.52-6.18c-7.75-0.15-14.39,5.21-21.68,3.68
		c-3.65-2.62-7-4.91-10.21-7.38c-3.89-2.99-6.43-7.03-8.28-11.5c-1.53-3.72,0.54-6.56,2.55-9.39c2.48-2.11,5.32-2.22,8.35-1.59
		c1.53,0.32,3.29,0.89,4.65,0.44c4.65-1.54,8.46-0.01,12.17,2.53c0.75,0.51,1.59,0.88,2.29,1.26c8.86,0.96,9.82,1.33,15.87,6.06
		c3.62,0,7.47,0,11.64,0c11.32,6.39,23.4,6.65,36.13,2.89c0.24-2.57,0.47-5.01,0.71-7.6c2.52-1.78,5.04-3.56,7.29-5.15
		c0.4-4.38-2.56-8.06,0.09-12.49c4.6-2.01,9.75-4.25,14.89-6.5c0.18,0.28,0.37,0.55,0.55,0.83c1.91-2.26,3.83-4.52,5.13-6.05
		c13.47-4.73,26.27-7.36,39.88-8.05c2.55,1.79,5.11,3.57,8.18,5.72c4.39,0,9.38,0,13.58,0c5.43,2.1,7.42,6.25,9.49,10.51
		c2.06,0.8,4.38,1.28,6.21,2.5c4.86,3.24,9.4,2.65,13.99-0.38c3.39-2.24,6.8-4.46,10.22-6.67c3.04-1.97,5.91-4.34,9.19-5.77
		c6.64-2.91,13.31-6.33,20.33-7.69c11.35-2.2,22.12-6.51,33.61-8.1c9.28-1.28,12.21-0.49,17.24,7.08c0.37,0.56,0.79,1.09,1.13,1.57
		c13.39,1.4,16.11,4,18.4,17.74c5.35,3.98,9.64,8.82,7.61,17.31c-0.73,0.93-1.97,2.51-3.27,4.17c0.25,3.51,0.5,7.07,0.73,10.42
		c-5.87,5.61-12.88,8.53-19.44,12.83c-0.19,1.75-0.41,3.74-0.61,5.6c-2.89,3.9-6.68,6.25-10.89,8.16
		c-6.81,3.09-13.53,6.39-20.31,9.6c-0.55,1.67-1.03,3.15-1.66,5.06c-3.73,1.73-7.74,3.58-12.3,5.69c0.87,2.37,1.27,4.39,2.28,6.03
		c2.66,4.3,3.98,8.68,2.02,12.83c0.91,3.48,1.64,6.24,2.47,9.41c-4.24,2.29-7.99,4.3-11.82,6.36c-0.21,1.92-0.41,3.7-0.63,5.66
		c-0.89,1.11-1.88,2.33-3.04,3.78c1.43,4.72,1.97,9.42-3.38,12.36c-0.64,1.91-1.26,3.8-1.91,5.75c-1.88,0.66-3.59,1.21-5.27,1.85
		c-15.7,5.99-31.92,10.23-48.19,14.31c-2.85,0.72-5.61,1.83-8.39,2.83c-4.44,1.59-8.77,2.1-13.13-0.39
		c-2.47-1.41-5.17-1.36-7.95-0.68c-7.28,1.77-14.59,3.45-21.92,5.06c-2.62,0.58-5.3,0.86-8.18,1.31c-2.76-2.31-5.34-4.47-8.39-7.01
		c-5-1.02-10.05,1.87-15.42,2.31c-4.03,0.33-8.07,0.59-12.22,0.88c-2.61-2.81-4.89-5.27-7.63-8.22c-5.91-0.72-12.76,4.06-19.52-0.95
		c-1.06-1.75-2.35-3.88-3.7-6.11c-0.26-2.35-0.52-4.8-0.82-7.54c-1.42-0.37-2.66-0.84-3.94-1.01c-7.64-0.97-12.21-5.74-14.9-12.43
		c-1.65-4.1-0.94-8.1,2.57-11.2c2.19-1.93,4.46-3.77,6.91-5.83c-3.38-2.88-6.62-1.81-9.84-0.73c-7.07,2.38-14.11,4.87-21.22,7.15
		c-2.34,0.75-4.84,0.98-7.25,1.45c-2.13-1.39-4.01-2.62-6.49-4.25c-1.9,0.36-4.36,0.64-6.71,1.31c-3.71,1.05-7.4,2.21-11,3.58
		c-4.11,1.57-8.29,2.29-13.18,1.83c-1.69-1.1-3.77-2.46-5.61-3.66c-4.28,0.69-8.26,1.33-11.81,1.9c-2.47-1.78-4.3-3.1-6.19-4.47
		c-3.34,0.34-6.69,0.68-9.99,1.01c-1.96-1.11-3.72-2.11-5.7-3.23c-3.49,1.03-7.12,2.1-11.6,3.41
		C215.72,600.54,213.02,597.84,210.32,595.15z"/>
	<path d="M696.35,366.57c0.69-1.85,1.32-3.5,1.94-5.16c5.4-3.74,11.56-5.55,17.71-6.86c3.7-0.79,6.87-2.02,10.01-4.68
		c5.62-0.34,11.52-0.48,17.36-1.1c6.42-0.69,10.93,3.71,16.39,5.98c0.8-0.87,1.43-1.48,1.98-2.16c5.65-7.05,13.05-11.88,20.74-16.33
		c0.98-0.56,2.04-1.28,3.1-1.35c9.83-0.68,18.6-5.62,28.24-7.01c3.78-0.55,7.6-0.85,11.14-1.24c1.97,1.79,3.46,3.15,5.35,4.88
		c3.73,0,7.8-0.12,11.87,0.04c2.69,0.11,5.35,0.74,8.04,0.96c4.04,0.33,6.61,2.55,8.53,5.95c0.87,1.55,2.15,2.86,3.18,4.19
		c7.06,1.16,14.77-0.94,19.36,5.21c4.09,1.04,7.54,1.91,10.72,2.71c1.82,3.08,3.31,5.61,5.03,8.51c6.85,1.12,14.04,2.23,20.57,6.06
		c2.48,2.74,3.87,5.92,2.5,10.62c-2.03,1.1-4.54,2.46-7.15,3.87c0.13,3.88,3.56,7.27,1.21,11.56c-6.16,3.49-12.62,7.14-19.12,10.82
		c-6.38-0.53-7.77-5.3-8.59-10.61c-1.79-0.64-3.45-1.23-5.75-2.04c-1.01-2.85-2.12-5.98-3.19-8.98c1.41-2.12,2.5-3.76,3.83-5.75
		c-2.77-1.06-5.2-1.98-7.62-2.9c-1.32-2.92-2.52-5.58-3.67-8.13c-4.03-2.04-7.19,1.12-10.93,1.18c-4.2-0.17-5.72-3.65-7.57-7.3
		c-1.75,0.08-3.57-0.13-5.24,0.29c-4.39,1.11-8.89,2.1-13.04,3.86c-9.7,4.13-13.54-2.63-14.07-10.45c-0.07-1,0.31-2.03,0.59-3.64
		c-2.95,0.53-5.33,0.99-7.73,1.39c-2.23,0.37-4.47,0.69-6.75,1.03c-2.26-1.32-4.39-2.57-6.38-3.73c-0.65-0.03-1.17-0.21-1.54-0.06
		c-6.23,2.65-12.63,5-18.6,8.16c-3.31,1.75-5.89,4.86-9.01,7.53c0,3.27,0,6.39,0,9.97c-1.91,0.23-3.38,0.4-4.81,0.57
		c-3.29-2.75-6.24-5.63-9.59-7.92c-5.64-3.86-11.69-4.25-17.99-1.31c-1.99,0.93-4.25,1.34-6.42,1.81c-2.18,0.47-4.42,0.71-6.79,1.08
		c-0.31,2.05-0.57,3.8-0.87,5.78c-1.35,1.02-2.78,2.09-4.47,3.37c0.15,1.36,0.6,2.92,0.42,4.41c-0.18,1.48-1,2.87-1.45,4.07
		c-5.1,1.89-9.75,3.61-14.72,5.45c1.12,3.55,2.1,6.66,2.92,9.23c-2.37,4.55-6.92,3.5-10.04,5.89c-0.42,3.63,2.02,8.11-2.08,10.86
		c1.1,3.24,2.1,6.16,3.07,9c-1.66,2.04-2.93,3.6-4.31,5.29c0.14,0.53,0.13,1.3,0.51,1.77c1.92,2.37,3.26,4.91,2.93,8.8
		c-3.3,2.52-6.97,5.32-10.65,8.13c9.02,1.45,17.4-2.56,26.92-0.61c1.5,2.68,3.23,5.79,5.24,9.39c4.62,0.53,9.75,1.13,15.91,1.84
		c4.1,1.82,5.97,5.65,4.98,11.62c-6.6,2.4-13.29,4.82-21.02,7.63c3.15,1.01,5.06,1.62,6.83,2.19c3.44,3.12,6.36,6.24,5,12.03
		c-1.98,1.58-4.35,3.66-6.9,5.48c-4.44,3.17-9.03,6.12-13.49,9.26c-4.84,3.42-8.85,7.66-12.43,12.85c2.29,1.83,4.35,0.95,6.53,0.49
		c6.66-1.39,13.37-2.47,21.26-0.72c1.04,1.22,2.64,3.11,4.48,5.28c1.64-0.13,3.47-0.06,5.19-0.45c2.94-0.66,5.68-0.66,8.69,0.1
		c2.49,0.63,5.33,0.08,7.99-0.24c4.02-0.49,8-1.24,11.58-1.81c2.07,1.46,3.54,2.5,5.53,3.9c14.65-3.43,29.64-6.94,44.94-10.52
		c3.45-6.74,11.59-4.75,17.16-8.71c-0.17-1.28-0.31-2.58-0.52-3.86c-0.18-1.09-0.44-2.16-0.78-3.77c2.41-1.64,4.78-3.25,7.3-4.96
		c-1.59-2.84-4.68-1.28-7.13-2.81c-2.24-2.8-4.95-5.89-3.32-10.92c1.97-1.06,4.09-2.2,6.65-3.57c-2.35-3.79-4.71-7.51-2.56-12.62
		c4.4-1.14,9.14-2.74,14.01-3.45c2.48-0.36,5.19,0.89,7.78,1.82c16.77-2.11,33.86-2.18,49.89-5.76c2.02-3.33,3.62-5.99,5.7-9.42
		c0-1.08,0-3.07,0-5.43c1.6-1.19,3.33-2.47,5.17-3.84c-1.87-3.3-4.69-1.09-6.72-2.14c-3.42-1-7.09-1.54-10.22-3.12
		c-4.79-2.42-10.22-4.03-13.99-9.27c0-1.86,0-4.25,0-6.93c1.86-0.9,3.4-2.21,5.05-2.35c7.22-0.63,14.47-1.03,21.71-1.32
		c4.14-0.17,7.41,1.81,10.24,5.41c5.47,1.02,11.23,2.1,18.31,3.42c2.89,1.43,4.51,4.76,4.48,9.35c-0.02,3.81,0.58,7.63,0.93,11.65
		c-1.03,1.13-2.07,2.28-3.42,3.76c-0.22,1.63-0.48,3.63-0.73,5.52c-1.78,3.52-5.38,3.1-8.68,4.1c-0.26,1.24-0.42,2.54-0.8,3.77
		c-0.4,1.27-1,2.48-1.46,3.57c-13.41,3.51-26.53,7.08-39.73,10.31c-3.47,0.85-7.32,1.32-10.8,0.74c-5.54-0.92-10.83-0.38-16.21,0.61
		c-2.43,0.45-4.9,0.65-7.71,1.01c-0.24,1.36-0.46,2.61-0.73,4.14c1.93,0.97,3.71,1.86,5.49,2.76c5.32,6.19,5.32,6.19,5.7,12.88
		c-0.79,0.62-2.17,1.71-3.67,2.89c0.91,2.59,1.87,5.33,2.8,7.96c-3.23,5.87-9.37,5.6-14.5,8.07c-0.76,1.47-1.68,3.26-2.55,4.95
		c-0.48,0.3-0.83,0.67-1.25,0.76c-10.88,2.35-21.71,4.69-31.94,9.42c-4.69,2.17-9.96,3.1-15.12,4.63
		c-5.2-1.83-10.19-0.54-15.24,1.11c-10.33,3.37-20.72,6.55-31.31,9.89c-2.47-1.47-4.77-2.84-7.98-4.75
		c-2.16,0.31-5.26,0.76-8.77,1.26c-1.97-0.77-4.28-1.68-6.56-2.57c-8.55,0.79-14.44,8.98-23.32,8.49
		c-5.25-3.48-6.61-8.65-7.22-14.69c-6.92-2.13-11.49-6.71-12.64-14.56c1.8-9.8,10.2-15.36,16.13-22.46
		c-3.12-3.86-6.03-7.46-8.68-10.73c0.26-2.49,0.44-4.22,0.62-5.95c-0.87-0.46-1.41-0.93-2.02-1.05c-3.29-0.64-6.59-1.2-9.1-1.65
		c-5-5.01-6.67-10.22-5.84-16.19c-1.23-2.54-2.65-4.9-3.53-7.46c-0.8-2.33-1-4.86-1.56-7.82c-4.16-3.67-7.82-8.22-7.53-14.42
		c-1.54-2.13-2.86-3.97-4.21-5.84c0-2.12,0-4.15,0-6.65c0.72-1.12,1.67-2.62,2.58-4.04c-1.08-3.2-2.08-6.18-3.08-9.13
		c1.06-1.82,1.95-3.36,2.92-5.02c-0.74-3.38-3.29-6.68-0.69-10.8c3.16-1.64,6.72-3.49,9.74-5.05c1.53-3.34-1.91-6.7,3.23-9.63
		C679.3,372.83,687.8,369.71,696.35,366.57z"/>
	<path d="M250.57,946.39c-3.2,5.95-10.5,5.16-15.78,8.65c0,2.64,0,5.29,0,8.41c-4.94,2.09-9.87,4.17-14.94,6.32
		c1,3.64,1.93,7.01,2.81,10.18c-4.89,6.35-12.76,7.2-17.59,12.13c0,3.3,0,6.43,0,10.42c0.63,2.32,4.24,4.66,2.44,8.86
		c-0.97,0.71-2.19,1.6-3.87,2.83c4.09,3.39,8.22,6.36,8.99,11.25c5.05,0.81,9.65,1.54,16.4,2.62c4.63-1.01,11.48-2.5,18.35-4
		c4.31,4.61,10.82,5.62,14.13,11.12c1.84,7.21-6.3,6.49-8.81,10.77c0.77,2.53,1.6,5.29,2.58,8.53c-2.54,2.66-4.99,5.23-7.73,8.1
		c-0.01,3.44,3.84,4.5,4.92,7.11c6.45,2.2,13.15-3.16,19.02,2.43c3.39-1.78,6.52-3.42,9.65-5.06c6.78-1.98,14.24-2.49,18.79-8.21
		c5.77-1.64,10.96-3.12,15.58-4.43c1.93-3.44,3.45-6.14,4.6-8.17c4.83-1.99,7.25,1.05,10.55,2.85c1.81,0.28,4.04,0.62,6.54,1
		c1.89,2.67,5.82,4.45,4.26,8.94c-9.81,3.22-19.47,6.4-29.13,9.57c0.1,0.19,0.2,0.38,0.3,0.56c-1.72,1.36-3.24,3.23-5.19,3.98
		c-9.75,3.75-19.67,7.06-29.42,10.81c-4.4,1.7-8.71,2.51-13.18,1.27c-6.4,1.44-12.62,5.43-18.96,0.01
		c-2.48,0.83-4.97,1.34-7.16,2.46c-5.29,2.71-9.63,1.49-13.49-2.64c-0.62-0.66-1.24-1.33-1.82-1.96c-6.73-1.45-6.73-1.45-11.06-7.46
		c0.19-3.62-1.82-7.71,1.24-11.83c3.22-1.39,6.73-2.91,10.78-4.66c-2.57-2.79-4.93-5.35-7.43-8.07c0.1-2.07,0.19-4.08,0.3-6.44
		c-5.03,0.53-9.84-0.27-13.98-4.1c-3.51,0-7.13,0-10.04,0c-5.28-2.66-7.86-6.54-9.33-11.56c-5.41-0.91-9.73-3.49-12.31-8.92
		c0-1.74,0-3.77,0-5.7c-1.69-1.79-3.24-3.43-4.87-5.15c-6.53-0.06-10.88-2.97-12.44-9.35c0.56-2.8,2.8-3.4,4.95-4.21
		c5.75-2.15,11.48-4.32,17.19-6.57c1.39-0.55,2.67-1.4,4.43-2.35c-4.88-3.33-10.33-5.66-8.83-13.06c8.26-3.79,16.59-7.75,25.7-10.27
		c0-2.73,0-5.17,0-7.77c0.91-0.7,1.69-1.63,2.69-2.01c7.83-3,15.64-6.05,23.58-8.75c3.97-1.36,7.56-2.98,9.6-6.54
		c4.4-1.43,8.48-2.75,12.76-4.14c-0.34-4.49-6.87-7.31-2.67-12.87c1.2-0.45,2.87-1.08,4.57-1.72c0.73-1.74,1.43-3.39,2.19-5.19
		c2.16-0.44,4.32-0.87,6.89-1.39c-1.9-4.39-3.87-8.47-0.18-12.27c-0.66-1.94-1.24-3.63-1.91-5.61c1.26-1.53,2.51-3.05,3.69-4.49
		c-0.33-2.55-0.65-4.96-1.04-7.93c5.86-1.87,11.39-3.63,16.93-5.39c0.01-3.69-3.06-6.75-0.52-10.4c7.98-2.34,16.22-4.75,24.48-7.16
		c0.62-2.27,1.16-4.21,1.88-6.82c20.38-1.64,40.6-8.14,63.6-3.29c2.83,1.49,4.71,8.24,11.25,7.52c4.86,5.42,7.72,11.3,7.9,18.76
		c-3.03,1.22-5.71,2.29-8.19,3.29c-1.25,3.11-2.4,5.96-3.41,8.48c-7.7,0.96-11.26-1.71-13.38-8.77c-3.47-2.8-6.42-5.18-9.37-7.56
		c0.04-0.03,0.07-0.06,0.11-0.09c-3.07-2.17-6.14-4.34-9.21-6.52c-3.19-2.24-6.18,0.23-9.43,0.82c-3.35,0.61-6.77,0.96-10.07,1.78
		c-3.23,0.8-6.93,0.25-9.7,3.12c-1.02,3.16,2.97,6.37-0.24,10.16c-1.98,0.53-4.55,1.21-7.1,1.89c-1.32,3.57,3.31,6.34,0.67,10.35
		c-1.14,0.42-2.79,1.03-4.83,1.79c0.19,1.83,0.38,3.76,0.6,5.92c-0.7,1.23-1.46,2.58-2.13,3.77c0.82,2.58,1.57,4.93,2.22,6.99
		c-2.24,2.82-4.16,5.23-6.62,8.33c-2.41,0.75-5.63,1.76-9.12,2.85c0.46,2.85,0.9,5.64,1.35,8.45c-1.6,1.1-2.87,1.96-4.06,2.78
		c-0.01,2.6,1.57,5.14-1.11,7.66c-4.7,0.32-9.9,0.31-14.97,1.13C260.49,943.38,255.72,945.03,250.57,946.39z"/>
	<path d="M1066.75,652.64c-4.63-3.17-5.78-7.32-6.13-11.7c-0.58-7.29-1.94-14.33-5.43-20.86c-0.62-1.16-0.9-2.61-0.95-3.94
		c-0.34-7.9-1.18-15.83,0.19-23.68c0.36-2.05,1.84-4.06,3.24-5.73c1.27-1.52,3.13-2.54,4.9-3.92c-0.45-3.27-0.87-6.39-1.35-9.9
		c1.11-2.59,2.35-5.49,3.64-8.51c-0.68-1.48-1.32-2.87-1.88-4.06c-5.12,0-9.85,0-14.84,0c-4.83-2.61-5.27-7.72-5.53-12.75
		c-3.8,0.27-6.94,0.65-10.08,0.68c-6.03,0.06-10.3-3.95-10.66-10.01c-0.13-2.25,0.19-4.53,0.32-7.1c-6.61-2.45-13.46,0.84-21.67-1
		c-0.89-1.31-2.56-3.77-3.81-5.61c-6.37,0.44-11.54,0.8-16.7,1.16c-1.58-1.39-2.92-2.58-4.49-3.97c0.28-6.03-4.76-9.23-8.01-14.21
		c-4.41,0.55-9.08,1.14-14.11,1.77c-1.91-1.39-3.9-2.83-6.35-4.6c-4.12,0.61-8.77,1.29-13.32,1.96c-1.68-1.5-3.01-2.69-4.75-4.24
		c-5.23,0.78-10.79,1.61-16.21,2.41c-2.17-1.56-3.99-2.87-6.09-4.38c-5.81,0.21-11.84,3.11-17.27,0.18
		c-4.76,0.67-8.22,4.8-13.12,2.38c-1.88-2.78-2.78-5.92-1.69-9.83c6.43-4.47,13.93-6.97,21.6-9.06c1.97-0.54,4.07-0.63,5.97-1.31
		c4.61-1.66,8.91-1.56,12.68,1.71c3.38,0,6.59,0.29,9.73-0.06c5.15-0.58,10.01-0.33,13.83,3.03c3.43,0,6.38-0.02,9.34,0.01
		c1.59,0.01,3.4-0.38,4.73,0.24c5.42,2.53,11.2,1.47,16.68,1.94c1.8,1.28,3.45,2.45,4.98,3.52c4.05,0.43,7.88,0.84,12.83,1.37
		c1.23,1.48,2.97,3.56,4.85,5.81c5.53,1.2,12.08,1.02,14.18,8.44c1.54,0.53,3.01,1.04,4.86,1.67c1.28,1.73,2.76,3.73,4.56,6.15
		c1.42,0.14,3.18,0.37,4.96,0.48c7.02,0.45,14.05,0.64,21.04,1.36c5.11,0.52,9.7,2.44,12.41,7.56c0.15,2.08,0.31,4.32,0.48,6.81
		c5.51,0.77,10.83,1.51,15.61,2.18c3.3,3.54,3.71,7.38,3.72,11.59c4.6,0.24,8.64,0.46,12.51,0.66c3.53,3.94,3.53,3.94,4.97,10.81
		c3.01,3.5,6.32,7.41,3.76,13.5c-1.37,0.72-3.08,1.61-4.89,2.56c7.09,3.65,8,5.38,7.16,13.62c-4.11,4.28-10.41,1.58-15.32,4.23
		c-0.71,3.03,0.49,5.79,2.62,7.23c5.26,3.57,6.02,8.16,4.19,14.05c5.43,2.87,4.82,8.47,5.52,14.1c6.05-3.27,9.74-8.09,13.48-12.82
		c7.71-2.11,15.36-4.2,23.57-6.45c1.24-1.16,2.88-2.7,4.67-4.39c10.8-1.94,21.63-4.47,32.96-4.83c1.39,1.58,2.71,3.08,4.09,4.66
		c9.92,1.16,19.81,2.31,29.32,3.42c4.91,3.25,5.56,7.38,4.03,12.58c-1.55,0.93-3.28,1.97-5.47,3.28c-0.74,1.3-1.74,3.05-2.87,5.03
		c-4.54,0.53-9.02,1.05-13.72,1.6c-1.05,2.52-2.06,4.95-3.28,7.88c-7.88,0.81-15.74,1.62-23.84,2.46c-0.68,0.91-1.34,1.78-1.99,2.67
		c-0.53,0.72-1.05,1.46-1.88,2.61c-2.88,0.34-6,0.71-9.44,1.11c-1.18,0.98-2.57,2.13-4.36,3.62c-4.4,0-9.17-0.03-13.94,0.01
		c-3.41,0.03-6.84-0.08-10.22,0.27c-3.62,0.38-7.11,1.09-10.75-0.24c-1.34-0.49-3.38-0.33-4.61,0.38c-2.98,1.72-6.14,1.5-9.29,1.61
		C1082.67,652.14,1074.72,652.38,1066.75,652.64z M1104.46,635.99c12.27-0.21,23.37,1.21,34.61-3.54c3.05-4.36,8.84-4.52,14.28-6.1
		c0.18-4.77,3.33-7.06,8.19-8.3c-3.08-1.73-5.33-3-7.53-4.23c-5.29,1.08-10.18,2.31-14.98,4.7c-5.2,2.59-11.15,3.71-16.8,5.37
		C1115.56,625.85,1109.71,629.01,1104.46,635.99z"/>
	<path d="M493.31,1210.53c-4.35,5.4-10.55,4.35-16.22,5.69c-0.97,1.63-1.99,3.36-3.22,5.43c1.03,4.23,2.08,8.59,3.17,13.07
		c1.31,2.24,2.58,4.66,4.09,6.92c0.99,1.48,2.17,2.93,3.54,4.04c2.41,1.94,5.03,3.61,8.57,6.11c0.96,0,3.22,0.03,5.48-0.01
		c3.2-0.05,6.34-0.02,9.29,1.6c1.15,0.63,2.57,0.94,3.9,1.06c5.4,0.51,10.81,0.89,16.52,1.34c0.82-1.05,1.76-2.27,2.88-3.71
		c4.09-0.27,8.32-0.55,12.79-0.85c0-2.33,0-4.09,0-7.15c0.82-0.4,2.41-1.18,4.01-1.96c-0.23-0.47-0.46-0.94-0.7-1.41
		c-3.27-0.15-6.55-0.3-10.24-0.46c-1.51-1.75-3.12-3.61-4.41-5.11c-0.88-3.53-0.9-6.39,1.61-9.35c3.83-2.07,8.03-2.17,12.55-0.14
		c3.71,1.66,7.63,2.94,11.56,4c3.62,0.97,6.17,2.93,7.31,6.43c1.37,4.23,4.73,8,2.91,13.46c-1.21,0.49-2.81,1.12-4.61,1.84
		c-0.42,1.92-0.84,3.87-1.38,6.32c-3.14,1.04-6.32,2.09-10.22,3.38c-0.76,0.66-2.12,1.84-2.89,2.5c-8.78,1.58-16.78,3.16-24.85,4.4
		c-3.56,0.55-7.24,0.39-10.74,0.55c-1.98-1.18-3.71-2.21-5.55-3.31c-5.89,0.36-11.68,0.15-17.55-1.13c-4.54-0.99-9.48-0.2-14.58-0.2
		c-2.05-2.29-4.16-4.64-6.61-7.38c-2.95-0.2-6.33-0.44-10.49-0.73c-2.06-2.66-4.39-5.66-7.2-9.29c-0.92-0.41-2.56-1.13-4.48-1.99
		c-1.23-1.6-2.6-3.4-3.9-5.09c-0.32-2.23-0.6-4.25-0.89-6.3c-2.36-3.33-4.8-6.6-7.06-10c-1.92-2.9-3.27-6-1.67-9.99
		c1.7-0.52,3.59-1.09,5.64-1.72c0.43-1.77,0.85-3.5,1.38-5.66c6.14-1.74,12.57-0.34,19.06-1.22c1.1-1.59,2.24-3.24,3.69-5.32
		c9.82-1.7,20.08-0.17,30.85-0.95c-1.25-2.86-2.81-5.15-3.17-7.62c-0.37-2.5,0.45-5.18,1.31-7.75c-0.79-4.7-1.57-9.39-2.22-13.28
		c1.47-5.21,2.71-9.62,4.35-15.46c-0.17-1.1-0.59-3.75-0.95-6.06c3.05-3.8,3.05-3.8,10.52-6.94c0.22-2.05,0.45-4.25,0.66-6.24
		c4.08-3.81,9.25-4.16,14.19-5.62c0.43-2.07,0.83-4.01,1.05-5.08c2.43-3.03,4.36-5.42,6.87-8.54c5.72-2.17,12.88-1.92,19.96-3.53
		c0.17-3.19,0.34-6.26,0.5-9.2c4.91-3.07,10.09-2.57,15.3-3.6c1.13-1.29,2.44-2.8,3.67-4.2c22.56-1.52,44.89,0.25,66.92,1.72
		c1.81,2.62,3.21,4.66,4.65,6.75c2.5,0.46,4.92,0.91,7.82,1.45c1.09,1.77,2.93,3.55,3.3,5.59c1.9,10.55,6.83,20.64,5.26,32.23
		c-2.89,0-5.5,0-8.22,0c-0.89,2.56-1.68,4.84-2.51,7.24c-2.23,0.4-4.19,0.76-6.38,1.15c-0.37,2.32-0.71,4.46-1.14,7.12
		c-4.55,0.76-8.99,1.5-13.93,2.33c-1.3,0.85-2.99,1.96-4.35,2.86c-3.76,0.59-7.15,0.97-10.48,1.69c-3.31,0.72-6.54,1.78-10.29,2.83
		c-4.27-1.6-5.31-5.14-4.53-9.94c1.52-1.67,3.19-3.49,5.11-5.59c1.66-0.35,3.6-0.76,5.42-1.14c0.9-5.32,1.74-10.32,2.63-15.6
		c2.93-0.36,5.55-0.69,8.6-1.07c-0.38-7.15,6.19-12.66,4.05-20.12c-2.65-1.98-5.18-3.87-7.72-5.76c-6.88-0.37-13.63-0.13-20.39,1.35
		c-4.62,1.01-9.44,1.14-14.52,1.7c-0.46,2.13-0.93,4.27-1.33,6.14c-2.69,4.74-8,3.23-11.89,5.73c-0.27,1.71-0.58,3.68-0.9,5.69
		c-3.88,3.77-9.38,1.42-13.83,3.99c-0.58,1.37-1.28,2.99-2.03,4.75c-4.64,1.15-9.22,2.29-13.94,3.46c-0.38,2.43-0.72,4.63-1.12,7.2
		c-1.82,0.93-3.78,1.93-5.8,2.97c0.74,3.46,1.43,6.67,2.13,9.93c-2.01,1.56-3.58,2.78-5.55,4.31c1.56,3,3.1,5.95,4.71,9.03
		c0.47,5.03,0.94,10.19,1.48,15.96c4.65,2.72,8.48,6.56,6,13.89C520.74,1207.95,507.6,1211.38,493.31,1210.53z"/>
	<path d="M1309.77,777.73c0,2.72,0,5.17,0,8.17c-3.86,1.38-7.57,2.71-11.31,4.05c-0.17,4.32,5.08,7.75,0.61,12.06
		c-1.88,0.81-4.15,1.79-6.59,2.85c-0.37,1.83-0.72,3.56-1.08,5.33c-2.55,1.95-5.07,3.87-8.75,6.68c-8.32,1.37-17.93,2.94-27.54,4.52
		c-0.05-0.25-0.1-0.51-0.15-0.76c-1.84,0.86-3.68,1.73-5.47,2.57c-4.56,0.06-7.39-2.3-9.09-6.12c-1.59-3.57-0.63-6.64,2.37-9.03
		c3.81-0.59,7.54-1.16,11.26-1.74c0.57-2.27,1-3.98,1.56-6.19c3.89-0.9,7.79-1.8,12.14-2.81c-1.23-2.98-2.32-5.63-3.45-8.37
		c0.62-1.29,1.21-2.48,1.77-3.64c3.9-1.66,7.63-3.24,11.14-4.73c-0.54-3.43-0.99-6.29-1.56-9.86c-1.11-1.36-2.67-3.28-4.25-5.21
		c-2.43-0.13-4.68-0.25-7.33-0.39c-1.42-0.91-3.13-2-5.05-3.22c-6.37,0.4-12.92,5.02-19.21,0.14c-12.73,2.1-24.75,4.87-33.96,15.94
		c-5.07,1.29-11,2.8-17.6,4.48c-1.86,2.14-4.76,3.52-8.26,4.24c-7.33,1.52-14.54,3.61-21.84,5.3c-2.17,0.5-4.47,0.47-6.3,0.64
		c-3.62-1.9-5.98-4.34-7.11-7.69c-0.7-2.06-0.1-4.05,2.39-6.04c8.55,0.34,15.74-5.74,24.24-8.1c4.36-1.21,8.55-3.01,13.85-4.92
		c1.1-1.84,2.69-4.53,4.76-7.99c4.99-1.74,10.74-3.74,16.82-5.86c0-2.5,0-4.89,0-7.51c4.28-2.04,8.32-3.97,12.4-5.92
		c0.17-2.33,0.31-4.31,0.47-6.55c3.06-1.44,6.03-2.84,9.41-4.43c-1.5-2.7-2.79-5.02-3.9-7c-0.74-6.66,5.85-7.02,8.61-10.19
		c-1.49-3.04-3.54-2.76-5.52-2.01c-2.55,0.96-5.04,2.1-7.5,3.28c-5.29,2.54-10.61,4.28-16.67,0.52
		c-8.58,3.85-17.29,7.74-25.97,11.67c-3.51,1.59-6.93,3.37-10.46,4.89c-5.84,2.5-11.74,4.86-17.56,7.26
		c-0.85,1.9-1.58,3.53-2.39,5.34c-0.83,0.56-1.73,1.24-2.71,1.81c-13.92,8.16-27.76,16.45-41.81,24.38
		c-5.11,2.89-10.69,4.94-15.76,7.24c-7.86-1.7-10.7-4.84-10.28-11.36c4.74-3.15,9.54-6.53,14.56-9.59c2.48-1.51,5.33-2.43,8.02-3.59
		c1.25-0.54,2.83-0.72,3.74-1.6c6.99-6.77,16.66-9.28,24.47-15.97c0.54-3.57,3.12-5.64,7.26-7.04c5.56-1.88,10.69-4.99,16.07-7.4
		c9.75-4.37,19.49-8.75,29.34-12.86c9.43-3.94,18.87-7.88,28.53-11.2c9.44-3.24,19.13-5.75,28.74-8.46
		c1.94-0.55,4.03-0.57,6.14-0.84c1.82,0.99,3.59,1.95,5.34,2.91c2.75,0,5.47,0,7.75,0c3.49,1.57,6.58,2.96,10.36,4.67
		c3.92,4.25,8.49,8.93,9.29,16.17c-4.87,2.56-9.41,4.95-14.16,7.45c0.78,2.22,1.5,3.86,1.95,5.57c1.18,4.48,0.17,6.75-4.02,8.87
		c-3.44,1.74-6.98,3.29-10.56,4.96c-0.41,1.74-0.82,3.46-1.27,5.35c-3.64,1.86-7.22,3.68-11.8,6.02c1.88,1.03,2.9,2.1,3.81,2.01
		c9.28-0.88,18.53-2.02,27.8-2.94c6.32-0.63,12.67-1,19-1.55c3.89-0.34,6.1,2.67,9.37,4.64c6.29,0.31,12.2,2.19,14.66,9.02
		c5.5,3.5,12.39,5.55,11.12,13.77c-1.3,2.94-3.95,3.08-6.32,3.78C1314.22,776.21,1312.12,776.96,1309.77,777.73z"/>
	<path d="M146.99,1359.53c-7.34-3.49-11.82-9.73-16.05-16.25c-2.43-3.75-4.33-7.78-8.3-10.53c-3.89-2.7-6.96-11.61-6.82-17.57
		c1.57-0.76,3.34-1.62,5.3-2.57c1.97-7.82,3.97-15.8,6.13-24.4c1.38-0.39,3.29-0.92,5.52-1.55c-0.15-3.58-4.97-6.22-2.21-11.08
		c1.92-0.66,4.44-1.52,7.52-2.58c-1.52-3.6-3.05-7.38-0.65-11.74c4.32-0.67,8.97-1.4,14.11-2.2c-0.46-3.22-0.87-6.07-1.23-8.56
		c1.41-4.26,5.17-2.46,7.9-3.66c0.54-2.26,1.11-4.63,1.79-7.46c4.65-0.86,9.24-1.71,13.95-2.59c0.27-2.76,0.48-4.96,0.75-7.83
		c7.36-1.12,14.69-2.24,22.27-3.4c0.83-1.89,1.62-3.71,2.43-5.56c0.73-0.17,1.38-0.45,2.03-0.45c4.1,0.03,8.19,0.08,12.28,0.22
		c3.21,0.11,6.34,0.13,9.29-1.53c0.94-0.53,2.17-0.73,3.27-0.75c9.77-0.17,19.58-0.86,29.29-0.16c6.59,0.48,13.03,2.95,19.24,4.46
		c1.96,3.16,3.92,5.71,3.33,9.58c-0.96,1.12-2.11,2.45-3.41,3.95c0.36,0.47,0.64,1.12,1.14,1.44c4.59,2.9,6.26,6.95,5.06,12.53
		c-1.56,0.62-3.19,1.26-4.96,1.95c0.16,3.08,0.33,6.14,0.49,9.19c-1.9,0.93-3.29,1.62-5.06,2.49c0,2.98,0,6.1,0,8.88
		c-4.59,4.82-11.02,3.82-15.92,6.42c0.14,2.89,0.26,5.54,0.42,8.77c-4.66,1.17-8.98,2.25-13.49,3.39c-1.03,1.77-2.04,3.5-2.99,5.13
		c-12.34,5.89-25.08,5.01-37.99,2.63c-5.72-5.43-8.66-11.98-7.91-20.47c2.01-1.14,4.13-2.34,6.44-3.65c0.2-2.3,0.41-4.73,0.63-7.33
		c1.84-0.69,3.5-1.32,5.09-1.92c1.29-2.99,2.53-5.84,3.8-8.78c2.22,0,3.98,0,6.31,0c1.4,1.39,2.99,2.98,4.12,4.1
		c0.48,6.23,0.48,6.23-2.69,12.87c0.24,1.65,0.54,3.66,0.86,5.85c-0.62,1.31-1.27,2.71-2.06,4.39c0.78,0.48,1.51,1.32,2.23,1.31
		c3.4-0.04,6.79-0.32,10.4-0.52c3.59-2.09,7.31-4.27,11.38-6.65c-0.18-8.02,5.5-10.94,12.38-12.77c0.83-7.78-4.04-15.67,0.81-23.74
		c-1.04-2.61-2.28-5.72-3.45-8.65c-9.16-2.2-17.8,0.78-24.15-0.23c-9.8,1.93-17.5,3.45-25.38,5.01c-0.34,2.43-0.63,4.58-0.99,7.14
		c-3.69,0.42-7.18,0.82-10.86,1.25c-0.19,2.92-0.34,5.34-0.54,8.4c-3.38,0.43-6.65,0.85-10.27,1.31c0.14,2.93,0.27,5.54,0.39,8.22
		c-4.34,2.35-8.08-2.14-12.75-0.29c-0.7,0.89-1.77,2.28-2.74,3.52c0.44,4.19,6.21,7.33,1.98,11.71c-3.53,1.24-6.91-1.29-10.96,0.71
		c4.75,3.52,10.75,5.69,9.66,13.2c-1.33,0.85-2.99,1.91-4.62,2.95c-0.83,5.33-1.65,10.6-2.54,16.31c-2.01,0.36-4.17,0.75-6.66,1.2
		c0,2.29,0,4.47,0,7.02c-0.93,0.86-2.04,1.89-3.07,2.84c0.05,0.63-0.09,1.26,0.16,1.5c4.6,4.47,7.41,10.18,10.83,15.47
		c1.95,3.02,3.98,6.14,7.93,7.82c10.25,0.53,20.88,2.4,32.5-1.34c0.76-0.69,2.43-2.2,4.71-4.27c3.23,0.63,6.91,1.75,10.65,1.98
		c3.8,0.23,7.65-0.41,11.86-0.7c0.51-3.53,0.99-6.82,1.4-9.63c3.08-2.62,5.76-4.91,9.23-7.86c9.54,0.88,20.09,1.86,30.95,2.86
		c1.18,1.08,2.49,2.29,3.82,3.5c0.37,4.18,0.72,8.19,1.1,12.59c-2.66,0.5-4.82,0.91-7.22,1.37c-2.23,2.52-4.61,5.22-6.98,7.9
		c-4.31,1.18-8.26,1.42-12.76,0.9c-7.06-0.81-14.25-0.82-21.54,1.21c-8.46,2.37-17.42,3.16-26.22,4.03
		c-15.88,1.58-31.8,0.12-47.7,0.03C148.31,1359.81,147.64,1359.63,146.99,1359.53z"/>
	<path d="M159.56,1495.94c2.34,4.19,4.87,8.71,7.7,13.77c5.64,0.73,11.68,2.25,18.14,0.36c4.75-1.39,9.85-1.55,15.67-2.39
		c5.01-3.98,11.94-5.19,17.42-6.22c5.08-2.46,8.9-4.3,13.47-6.51c0.16-1.45,0.41-3.62,0.65-5.78c3.29-5.08,9.29-6.32,13.93-9.7
		c0.23-2.02,0.45-4.04,0.67-5.97c2.46-4.17,7.24-4.53,10.98-6.86c0.43-1.7,0.87-3.44,1.4-5.52c2.25-1.21,4.55-2.67,7.03-3.72
		c2.47-1.05,5.11-1.69,8.17-2.67c-2.61-2.72-5.38-4.71-6.89-7.41c-1.7-3.05-1.09-6.6,1.02-9.2c-2.64-2.88-5.45-5.23-7.27-8.18
		c-1.2-1.95-0.98-4.78-1.58-8.29c-0.94-1.56-2.45-4.08-4.07-6.8c-1.01-0.23-2.09-0.65-3.18-0.68c-4.12-0.11-6.66-2.22-8.48-5.81
		c-1.22-2.4-2.9-4.59-4.58-6.72c-1.94-2.46-3.04-5.03-1.57-7.63c1.7-2.12,3.41-4.23,5.27-6.54c4.71,0.39,9.45,0.77,13.88,1.14
		c3.1,2.35,5.94,4.51,8.78,6.66c0.12-0.13,0.25-0.26,0.37-0.4c1.64,2.44,3.27,4.88,4.79,7.14c3.61,1.39,6.96,2.68,10.07,3.88
		c1.62,2.46,2.99,4.54,4.54,6.91c4.81,2.42,7.61,6.37,7.69,12.29c0.02,1.89,1.24,3.81,2.09,5.63c1.47,3.15,2.58,6.32,1.53,10.24
		c-1.08,1.23-2.4,2.73-3.89,4.42c0.94,1.96,1.94,3.73,2.66,5.6c1.89,4.91,0.64,8.3-4.09,10.71c-2.42,1.23-5.02,2.08-7.55,3.08
		c-1.66,0.65-3.33,1.27-5.15,1.95c-0.08,1.58-0.12,2.92-0.21,4.24c-0.09,1.33-0.21,2.66-0.37,4.58c-4.15,0.97-8.23,1.93-12.46,2.92
		c-0.16,2.39-0.3,4.39-0.46,6.74c-1.32,0.92-2.77,1.92-4.19,2.9c0.2,3.34,0.39,6.63,0.59,10.04c-4.64,1.59-8.67,2.98-12.79,4.39
		c-0.49,1.91-0.92,3.62-1.34,5.25c-5.99,2.97-12.08,4.53-18.68,4.74c-6.15,5.43-14.23,5.16-21.66,6.95
		c-1.98,0.48-4.13,0.48-5.95,1.27c-7.64,3.28-15.78,4.43-23.87,4.99c-10.86,0.75-21.8,0.48-32.71,0.57
		c-2.03,0.02-4.06-0.33-4.64-0.38c-4.6-2.43-7.95-4.19-12.14-6.4c-4.35-4.99-4.45-5.9-0.6-12.19c-0.68-4.18-1.37-8.37-2.14-13.09
		c1.44-0.94,2.77-1.8,3.92-2.56c-1.15-3.93-2.15-7.33-3.14-10.71c1.64-1.39,2.82-2.39,4.17-3.53c-0.67-3.38-3.79-6.35-1.95-10.85
		c3.48-3.06,9.21-3.48,13.15-7.3c-0.86-2.87-1.68-5.61-2.5-8.34c5.21-5.94,12.64-6.9,18.78-10.59c0.31-2.1,0.64-4.29,0.98-6.58
		c4.96-3.28,11.89-2.63,15.46-8.48c12.95-1.79,25.44-6.93,39.11-4.66c1.38,1.64,2.82,3.36,4.31,5.14c1.49,0.49,2.98,0.97,4.58,1.49
		c1.32,2.1,2.63,4.2,4.24,6.79c-0.98,3.56-2.04,7.4-3.22,11.71c-1.36,0.91-3.02,2.02-4.8,3.22c-0.31,1.48-0.62,3.01-0.93,4.5
		c-2.41,1.71-4.78,3.38-7.59,5.38c-6.86,1.25-14.26,1.93-22.55,1.34c-1.48-1.51-3.21-3.28-4.63-4.73c0-2.82,0-4.85,0-8.08
		c0.83-0.86,2.21-2.29,3.35-3.47c4.09,0.62,7.15,1.08,10.35,1.56c1.25-1.87,2.36-3.53,3.69-5.52c-1.25-1.41-2.41-2.72-3.97-4.47
		c-5.82,1.43-11.71,2.87-17.71,4.34c-0.62,2.3-1.14,4.21-1.64,6.08c-5.52,2.45-10.86,4.83-16.66,7.41c0.93,2.39,1.84,4.18,2.3,6.09
		c0.39,1.66,0.27,3.44,0.36,5.07c-4.23,1.89-7.91,3.53-12.05,5.38C156.02,1477.86,156.78,1486.68,159.56,1495.94z"/>
	<path d="M264.79,775.38c-0.71,1.82-1.36,3.49-2.05,5.25c-2.31,1.02-4.54,2.14-6.87,2.99c-4.44,1.62-8.69,3.33-12.7,6.09
		c-3.61,2.48-8.31,3.51-12.65,4.78c-4.56,1.33-9.41,1.84-12.5,5.63c-7.92,0.52-10.77-2.35-11.16-11.1c2.85-5.6,8.49-3.86,13.45-4.68
		c5.78-6.7,14.89-6.45,22.57-9.78c1.41-1.75,2.82-3.51,4.03-5.01c4.1-2.05,7.94-3.97,11.78-5.89c0.65-1.62,1.23-3.08,1.95-4.88
		c1.51-0.79,3.28-1.72,5.52-2.9c-0.28-1.68-0.56-3.28-0.87-5.14c-4.42,0.38-6.88,3.45-10.54,4.95c-6.19-1.06-11.47,1.86-16.66,5.37
		c-4.09,2.77-7.98,6.04-13.47,5.94c-1.42-0.03-2.98,1.06-4.27,1.93c-5.08,3.4-10.08,6.94-15.13,10.4c-1.5,1.03-2.94,2.38-4.61,2.86
		c-6.39,1.83-11.1,6.03-15.73,10.44c-0.65,0.61-1.42,1.09-2,1.52c-5.18,0.42-6.76-3.22-8.22-6.33c-0.4-4.04-0.75-7.62-1.2-12.17
		c0.44-0.92,1.31-2.72,2.13-4.43c-0.98-3.79-1.93-7.45-2.82-10.9c2.57-3.71,4.76-6.87,6.89-9.94c-0.35-6.5-0.7-13.02-1.05-19.62
		c3-2.29,5.67-4.33,8.53-6.52c0.25-1.9,0.52-3.91,0.82-6.18c1.72-1.84,3.58-3.81,5.59-5.96c0.1-1.89,0.21-3.88,0.33-5.91
		c2.7-4.09,6.03-7.41,10.44-9.55c2.29-1.12,4.47-2.39,5.2-5.05c1.13-4.1,4.17-6.35,7.71-8.13c2.42-1.22,4.87-2.41,6.78-3.36
		c1.47-3.41,2.7-6.28,3.7-8.59c2.51-1.25,4.32-2.15,6.14-3.06c1.03-2.13,2.02-4.15,3.13-6.43c7.52-2.38,14.64-5.77,21.45-10.89
		c0.33-1.5,0.77-3.44,1.31-5.86c3.05-1.53,6.26-3.14,9.73-4.89c0.81-1.63,1.7-3.44,2.85-5.76c8.49-1.25,15.51-7.53,24.36-8.96
		c3.53-0.57,7.13-0.75,10.1-1.04c5.76,5.54,5.94,6.09,4.4,11.41c-4.51,1.62-8.93,3.2-13.46,4.83c-0.84,1.67-1.65,3.25-2.58,5.1
		c-1.66,0.75-3.5,1.58-5.28,2.39c-0.89,1.95-1.73,3.78-2.73,5.95c-3.69,1.4-7.43,3.03-11.31,4.23c-5.73,1.77-9.47,5.14-10.2,11.72
		c-1.43,0.81-2.92,1.84-4.54,2.51c-1.43,0.59-3.02,0.78-4.86,1.22c-0.14,1.68-0.16,3.22-0.43,4.71c-0.24,1.31-0.77,2.57-1.22,4.01
		c-5.08,1.97-10.11,3.92-15.04,5.84c-0.5,2.2-0.9,3.94-1.39,6.12c-2.84,1.47-5.82,3.02-8.87,4.6c-0.42,4.18,5.54,6.98,1.62,11.89
		c-1.92,0.93-4.53,2.2-7.19,3.5c0,2.84,0,5.29,0,7.87c-1.42,1.22-2.76,2.37-4.33,3.72c0.42,2,0.84,3.96,1.15,5.45
		c-0.9,3.87-1.71,7.34-2.67,11.45c-5.43,2.72-11.24,5.63-17.1,8.57c3.3,2.49,6.26,4.71,9.71,7.31c0.97-0.38,2.44-0.85,3.81-1.5
		c10.47-4.94,20.9-9.94,31.38-14.85c1.42-0.67,3.01-1,4.53-1.44c4.78-1.38,9.5-2.83,14.08-4.87c3.67-1.64,7.74-2.59,11.73-3.21
		c2.33-0.36,4.92,0.3,7.28,0.92c2.38,0.63,4.62,1.78,7.54,2.94c1.05,1.26,2.49,2.98,3.93,4.7c0.04,5.15,0.62,10.11-1.3,15.38
		c-4.14,1.95-8.43,3.96-13.2,6.2C278.73,770.99,271.39,772.22,264.79,775.38z"/>
	<path d="M398.77,1286.02c2.88,0.25,5.83,0.78,8.75,0.7c5.86-0.16,10.77,1.4,14.11,6.55c0.36,0.55,0.99,0.91,1.43,1.3
		c11.57,2.2,11.57,2.2,16.92,13.71c3.39,1.28,6.75,2.55,10.3,3.88c1.52,2.87,2.99,5.65,4.49,8.48c10.92,6.47,12.65,10.24,9.1,20.11
		c1.29,1.45,2.62,2.95,3.89,4.38c0.83,3.46,1.95,6.75-0.49,10.15c-2.37,0.25-4.81,0.5-7.46,0.78c-0.78,2.91-1.53,5.67-2.42,8.97
		c-3.91,0.38-7.67,0.74-11.83,1.14c-0.44,2.3-0.84,4.45-1.49,7.87c-0.87,0.8-2.52,2.31-3.87,3.55c-4.11,0.79-7.66,1.47-11.4,2.18
		c-0.86,2.5-1.65,4.79-2.66,7.72c-2.54,0.26-5.21,0.41-7.83,0.83c-2.38,0.39-4.72,1.08-7.24,1.67c0.2,3.06,0.36,5.51,0.52,7.82
		c-1.65,2.69-4,3.83-6.86,4.16c-4.07,0.47-8.13,0.98-12.19,1.47c-3.4,0.41-6.77,0.9-9.72,3.51c-0.36,2-0.75,4.19-1.14,6.31
		c-0.62,0.55-1.08,1.33-1.63,1.4c-9.15,1.09-18.2,4.23-27.57,1.56c-0.85-0.24-1.81-0.24-2.71-0.18c-12.7,0.77-25.46-1.59-38.15,0.6
		c-1.31,0.23-2.69,0.03-3.8,0.03c-4.26-2.63-6-5.68-4.14-10.45c1.12-2.87,1.49-6.02,2.33-9.6c-0.54-1.07-1.45-2.66-2.12-4.33
		c-0.49-1.24-1.27-2.83-0.88-3.88c1.49-3.98,0.25-8.01,0.47-12.46c2.34-1.18,4.71-2.37,7.25-3.65c0.18-3.17-2.48-6.68,1.06-9.71
		c3.27-0.62,6.81-1.29,10.54-2c0.64-1.99,1.24-3.87,1.94-6.04c6.23-1.44,12.36-2.85,18.36-4.24c0.81-2.1,1.43-3.72,2.15-5.59
		c9.5,0.38,18.73,0.75,27.66,1.11c3.98,6.43,5.87,14.75,4.9,21.41c-1.79,0.48-3.81,0.81-5.65,1.59c-1.65,0.7-3.09,1.89-4.47,2.77
		c-7.7-0.06-8.94-1.27-11.78-11.91c-5.88-0.77-11.13,2.1-16.73,3.42c-0.7,2.2-1.3,4.08-1.91,6c-2.63,0.42-5.06,0.8-7.83,1.24
		c0,2.65,0,5.09,0,7.27c-1.1,1.65-1.96,2.94-2.86,4.3c0.48,2.74,0.94,5.4,1.47,8.44c1.33,1.42,2.87,3.07,4.53,4.84
		c0.51,2.55,1.04,5.17,1.62,8.03c11.72,1.9,23.18,1.26,34.06-0.23c4.53-3,8.43-6.21,12.85-8.34c4.21-2.03,8.96-2.95,13.93-4.5
		c0.4-1.21,0.96-2.91,1.75-5.33c3.89-2.19,8.21-4.62,13.01-7.33c2.25-4.51,6.88-6.94,11.74-9.08c0.9-1.92,1.76-3.75,2.81-5.99
		c2.55-1.68,5.39-3.55,8.28-5.46c1.54-2.78,3.13-5.67,5.19-9.4c-0.1-2.14-0.24-5.29-0.38-8.51c2.53-2.19,4.9-4.25,7.18-6.23
		c-0.36-2.64-2.33-1.98-3.74-2.14c-3.82-0.45-7.77-0.4-11.52-3.67c-0.81-2.09-1.86-4.81-3.15-8.17c-2.39-0.14-5.05-0.29-7.71-0.44
		c-7.04-0.38-8.44-1.46-10.67-8.27c-0.35-1.08-0.62-2.18-1.07-3.8c-1.88-0.18-3.9-0.71-5.84-0.49c-6.3,0.72-11.24-1.02-13.93-7.22
		c-5.04-0.82-10.43,0.97-13.6-2.37c-9.66,0.31-18.27,0.44-26.86,0.92c-4.97,0.28-9.97,0.86-14.84,1.85c-2.32,0.47-4.37,2.23-7,3.66
		c-4.35,0.91-9.23,1.92-14.59,3.04c-1.1,0.73-2.61,1.72-4.37,2.89c-2.73,0-5.65,0-8.37,0c-4.73-5.45-4.9-5.98-3.6-12.08
		c3.6-0.57,7.38-1.16,11.51-1.81c0.94-1.53,1.99-3.22,2.97-4.81c13.91-1.79,27.87-1.45,42.95-6.79c7.55,0,17.09,0.13,26.63-0.05
		c5.43-0.1,10.85-0.71,15.97-1.06C395.2,1283.39,396.65,1284.46,398.77,1286.02z"/>
	<path d="M659.76,1417.32c1.85,1.27,3.15,2.17,3.96,2.73c6.14,1.14,11.7,2.18,17.79,3.31c3.55,4.07,7.26,8.3,10.71,12.26
		c0,2.93,0,5.19,0,6.87c0.99,4.23,4.23,7.41,1.91,12.33c-3.77,0.94-8.05,2.02-12.64,3.16c0.45,3.47,0.85,6.56,1.19,9.18
		c-1.38,4.26-4.05,6.65-7.46,8.23c-5.36,2.49-10.76,4.9-16.19,7.22c-2.77,1.18-5.36,2.48-7.21,5.45c-0.27,1.91-0.58,4.14-0.9,6.47
		c-6.8,4.47-14.91,3.77-22.26,5.89c-0.67,1.58-1.27,3-2.06,4.88c-10.31,1.15-20.7,0.31-29.96,0.35c-4.03-2.41-7.1-4.25-10.16-6.09
		c-0.16,0.2-0.32,0.41-0.48,0.61c-1.84-2.28-3.69-4.56-5.72-7.07c-6.37-1.37-11.1-4.54-10.82-12.47c1.88-1.18,3.75-2.35,5.72-3.58
		c0.27-2.2,0.55-4.39,0.9-7.17c2.88-0.61,5.68-1.2,8.91-1.89c0.37-2.24,0.76-4.61,1.16-7.05c4.73-2.16,9.61-0.12,14.19-1.11
		c3.96-2.59,7.92-5.17,11.64-7.6c5.59,0.77,7.45,4.52,9.01,9.22c-0.7,2.49-1.48,5.29-2.33,8.34c-2.5,0.4-4.69,0.74-7.18,1.14
		c-0.64,1.21-1.37,2.58-2.28,4.29c-2.64,0.34-5.51,0.71-8.63,1.12c-1.42,5.61,1.43,9.67,4.3,14.2c12.8,1.29,24.93-2.7,36.47-4.63
		c2.13-3.79,3.52-6.87,5.45-9.56c2.51-3.49,6.56-4.76,10.44-6.1c3.83-1.32,7.65-2.62,11.83-5.08c-3.59-3.75-8.05-6.4-7.77-12.72
		c0.37-1.03,1.06-2.93,1.94-5.36c-3.2-4.16-6.58-8.55-9.84-12.79c-4.78-1.13-9.57-2.26-15.3-3.61c-5.29,2.16-11.63,1.86-18.31,1.32
		c-6.17-0.5-12.54,1.36-18.81,2.27c-1.1,0.16-2.19,0.65-3.2,1.16c-6.06,3-12.52,3.47-19.18,3.71c-6.06,0.22-12.07,1.28-17.8,3.96
		c-3.6,1.68-7.83,2.4-11.84,2.7c-5.92,0.45-11.46,1.32-17.07,3.81c-5.05,2.25-10.95,2.97-16.55,3.44
		c-5.29,0.44-10.16,1.24-14.96,3.84c-5.84,3.15-12.4,4.42-19.09,4.12c-3.97-0.18-7.5,0.57-11.17,2.21
		c-5.16,2.31-10.61,4.17-16.11,5.46c-3.39,0.79-7.11,0.15-10.77-0.68c-4.03,1.56-8.08,3.05-12.07,4.69c-3.91,1.6-7.89,2.21-11.99,1
		c-3.01-0.89-5.81-0.31-8.65,0.77c-2.97,1.13-6.09,1.89-8.99,3.17c-5.35,2.37-10.87,3.19-16.47,2.26
		c-9.38,4.68-19.97,5.31-28.58,11.32c-3.63-2.79-7.07-4.98-6.66-10.53c3.13-1.71,6.48-3.51,9.8-5.36
		c6.79-3.77,13.79-6.95,21.48-8.46c3.1-0.61,6.15-1.57,9.16-2.56c5.03-1.65,10.12-2.03,15.42-2.14c5.6-0.12,11.17-1.71,16.74-2.73
		c1.78-0.33,3.5-1.24,5.27-1.29c8.98-0.25,17.33-3.38,25.92-5.38c1.99-0.46,4-1.51,5.95-1.41c10.04,0.51,19.02-3.95,28.56-5.72
		c3.78-0.7,7.61-1.18,11.36-2.03c4.86-1.1,9.63-2.61,14.5-3.68c13.51-2.98,27.03-5.99,40.6-8.67c17.34-3.43,34.66-7.09,52.13-9.65
		c14.81-2.17,29.83-2.94,44.76-4.24C654.13,1417.12,656.87,1417.32,659.76,1417.32z"/>
	<path d="M674.3,213.31c1.99,1.73,3.52,3.05,4.98,4.31c3.36,0,6.54-0.13,9.7,0.05c2.01,0.11,4.1,0.4,5.97,1.11
		c6.73,2.55,8.12,7.91,3.82,15.06c1.08,1.23,2.23,2.55,3.9,4.46c0.22,2.2,0.51,5.07,0.81,8.01c-1.52,0.92-2.67,1.59-3.79,2.29
		c-1.09,0.68-2.17,1.39-3.53,2.26c0.89,2.14,1.85,3.92,2.35,5.82c0.51,1.92,0.58,3.97,0.85,5.93c-4.99,5.52-12.05,6.72-18.02,10.16
		c0.38,2.53,0.74,4.92,1.12,7.46c-5.16,6.01-12.63,8.06-19.24,12.05c-1.2,1.82-2.56,3.88-4.24,6.41
		c-9.81,2.34-19.57,6.09-30.22,5.47c-2.68-0.16-5.4-0.25-8.06,0.03c-2.89,0.31-5.84,0.75-8.55,1.73c-3.89,1.42-7.75,2.54-12.01,2.16
		c-4.38-1.68-5.8-5.29-6.11-9.59c0.8-3.48,3.18-5.11,6.45-4.95c9.85,0.47,19.41-1.83,29.12-2.72c3.6-0.33,7.25-0.05,10.01-0.05
		c6.98-3.84,13.12-7.21,19.45-10.69c-0.23-3.63-0.45-7.16-0.69-11.06c3.96-2.15,7.68-4.17,11.53-6.26c-1-4.06-1.9-7.73-2.98-12.14
		c-4.93-8.29-4.93-8.29-0.75-14.85c-1.04-1.24-2.19-2.57-3.3-3.93c-1.14-1.39-2.24-2.81-3.11-3.9c-9.51-1.38-16.72,5.14-25.55,5.95
		c-1.87-1-3.84-2.06-5.73-3.07c-4.09,0.42-8.1,0.84-12.13,1.25c-2.4-3.72-4.34-6.96-3.19-11.41c1.43-1.13,3.01-2.39,4.91-3.89
		c0-2.43,0-5.08,0-7.5c-3.63-1.6-7.06-3.1-11-4.83c-1.77,0.77-4.03,1.76-6.81,2.97c-2.12-1.22-4.43-2.54-7.23-4.14
		c-3,1.2-6.56,2.17-9.65,3.96c-4.94,2.86-9.63,4.06-14.55-0.02c-5.78,2.36-11.41,4.65-16.95,6.91c-2.36-1.21-4.36-2.23-6.24-3.2
		c-8.57,1.26-8.57,1.26-14.39-0.99c-1.8,0.84-3.87,1.75-5.88,2.75c-1.82,0.91-3.59,1.91-5.57,2.98c-2.56-0.36-5.23-0.73-8.71-1.22
		c-5.56,3.78-11.54,7.85-17.61,11.98c-2.07,0-4.32,0-6.95,0c-1.84,1.95-3.85,4.08-5.96,6.32c-4.82-0.1-5.96-4.1-8.1-7.58
		c2.11-5.53,6.71-8.95,11.07-12.44c2.82-2.26,6.05-4.02,9.17-5.89c1.15-0.69,2.51-1.47,3.76-1.46c7.61,0.06,13.66-4.56,20.54-6.66
		c2.57-0.79,4.85-1.93,7.78-1.7c2.35,0.19,4.84-0.91,7.21-1.63c6.07-1.86,12.1-3.82,18.12-5.74c5.6,2.81,10.97,2.91,16.49,0.16
		c1.71-0.85,4.05-1,5.99-0.72c7.71,1.13,15.38-0.59,23.07-0.13c1.55,0.09,3.23-0.09,4.68-0.62c5.66-2.07,11.5-2.31,17.45-2.34
		c5.2-0.03,10.39-0.65,14.52-0.94c4.62,1.56,8.22,2.78,12.18,4.12c2.93,3.14,4.37,6.85,3.05,11.56c-0.6,2.13-0.41,4.49-0.6,7
		c-2.83,1.99-5.68,4-8.86,6.24c3.34,3.31,6.54,4.06,10.37,3.14c3.96-0.95,7.96-1.82,11.98-2.39
		C665.1,214.05,669.83,213.74,674.3,213.31z"/>
	<path d="M1089.88,469.85c0.03-3.47-2.84-6.93,0.18-10.8c1.05-0.41,2.48-0.97,4.03-1.58c0-2.83,0-5.51,0-8.63
		c1.71-0.94,3.43-1.89,5.35-2.95c0-0.44,0.17-1.13-0.03-1.69c-1.04-3.01-2.26-5.98-1.01-10.01c1.24-0.67,2.96-1.59,5.1-2.75
		c-1.08-2.16-2.25-4.51-3.53-7.09c0-2.03,0-4.3,0-5.1c-2.58-10.59-4.83-19.8-7.03-28.83c1.19-2.15,2.17-3.91,3.22-5.81
		c-0.33-1.98-0.66-3.98-1.06-6.33c0.77-1.53,1.69-3.32,2.52-4.97c-1.08-3.85-2.11-7.53-3.25-11.59c-2.09-0.32-4.27-0.65-6.16-0.93
		c-4.67-2.21-4.3-6.94-5.91-10.33c-2.46-2.32-4.76-4.5-7.47-7.07c-2.79,0.21-5.92,0.45-9.26,0.7c-1.21,1.96-2.36,3.83-3.95,6.4
		c-6.88,1.25-14.22,2.58-21.52,3.9c-1.23,1.74-2.38,3.37-3.49,4.95c-2.61,0.62-5,1.19-6.97,1.66c-1.89,2.85-3.49,5.25-5.37,8.08
		c0.14,1.54,0.32,3.54,0.52,5.68c2.29,0.86,4.39,1.65,6.49,2.44c3.09,1.45,3.28,6.24,7.91,6.56c1.79-1.91,3.74-4,5.51-5.89
		c4.21-1.13,6.83,1.08,9.35,2.97c2.95,5.69,1.47,10.38-1.9,14.69c-11.43,5.15-23,4.51-34.79,2.65c-2-3.49-3.78-6.6-5.69-9.93
		c-2.17-0.37-4.37-0.73-6.69-1.13c-5.47-4.06-8.45-9.09-7.23-16.31c0.52-3.09,0.09-6.35,0.09-8.9c1.91-3.31,3.47-6.02,5.04-8.74
		c2.49-3.77,6.73-3.97,10.99-4.81c1.68-3.47,5.01-4.88,8.61-5.75c4.16-1.01,8.36-1.89,12.66-2.85c1.26-1.58,2.51-3.16,3.25-4.09
		c5.58-2.2,10.35-4.34,15.29-5.92c2.98-0.95,6.22-1.14,9.37-1.48c8.55-0.94,17.11-1.77,25.24-2.6c10.27,5.35,15.7,14.04,20.07,24.03
		c0.96,0.53,2.1,1.29,3.34,1.81c4.08,1.71,6.45,4.86,7.88,8.91c0.6,1.7,1.09,3.54,2.14,4.94c2.72,3.65,4.03,7.55,3.45,12.11
		c-0.14,1.09-0.12,2.4,0.35,3.34c3.05,6.04,1.97,12.97,4.28,19.15c0.22,0.6,0.03,1.35,0.03,2.39c-3.18,5.41-4.18,11.49-2.49,18.13
		c-0.83,1.71-1.71,3.5-2.61,5.35c0.83,3.31,1.65,6.59,2.44,9.77c-0.95,2.1-1.78,3.95-2.7,5.98c0.51,2.06,1.06,4.26,1.68,6.78
		c-0.54,1.91-1.16,4.08-1.62,5.71c0.17,3.19,0.3,5.83,0.46,8.76c-3.79,1.62-7.09,3.03-10.61,4.53c-0.67,2.1-1.34,4.23-2.16,6.81
		c-6.3,3.34-12.91,6.83-19.7,10.42c-5.02-0.1-5.26-4.61-7.23-8.18C1086.81,474.24,1088.34,472.05,1089.88,469.85z"/>
	<path d="M1244.08,401.91c5.63-1.71,10.57-3.22,16.29-4.96c-3.27-3.85-5.32-7.53-5.27-11.98c1.51-5.74,8.41-3.84,11.47-8.12
		c-2.82-2.89-6.52-0.79-10.77-2.38c-1.03-0.86-3.08-2.57-4.29-3.59c-4.15-1.69-7.43-3.03-10.71-4.36c0.05-0.35,0.1-0.7,0.15-1.05
		c-4.91,0.49-9.82,0.99-15.16,1.52c-2.03-1.41-4.23-2.94-6.4-4.44c-1.03-3.91-2.97-7.49,0.1-11.84c2.38-0.55,5.21-1.72,8.05-1.77
		c6.54-0.1,13.19-1.05,19.59,1.27c0.42,0.15,0.93,0.35,1.33,0.25c8.15-2.12,14.84,2.79,22.25,4.42c1.21,1.46,2.27,2.95,3.55,4.22
		c1.74,1.73,3.48,3.57,5.53,4.86c7.13,4.46,9.38,10.28,6.65,19.18c-2.56,1.65-5.56,3.59-8.78,5.67c0.1,4.78,3.61,9.38,0.92,15.22
		c-1.45,0.85-3.54,2.16-5.7,3.34c-1.98,1.08-4.03,2.03-6.1,3.07c0,3.28,0,6.39,0,9.79c-5.89,3.81-13.11,3.63-19.15,6.63
		c-1.11,2.79,1.36,6.08-1.64,8.69c-3.16,0.79-6.62,1.67-10.23,2.58c-0.24,2.37-0.44,4.36-0.65,6.5c-1.11,1.01-2.25,2.06-3.3,3.02
		c-0.11,0.34-0.26,0.57-0.23,0.77c0.61,4.45,0.99,8.94,1.94,13.32c1.06,4.9,1.18,5.15-3.34,8.53c-0.27,2.47-0.55,5.11-0.84,7.78
		c-4.18,1.28-8.05,2.47-12.03,3.69c-0.31,2.74-0.58,5.17-0.92,8.25c-3.75,1.15-7.56,2.32-11.86,3.63c-0.19,2.7-0.4,5.58-0.62,8.72
		c-8.03,2.2-16.05,4.39-24.11,6.59c-1.22,2.2-2.3,4.15-3.61,6.53c-8.89,0.29-16.03,8.04-26.06,6.86c-3.4-2.42-5.09-5.81-4.47-10.65
		c1.73-1.2,3.56-2.47,5.57-3.88c0.55-1.26,1.19-2.7,2.02-4.59c2.55-0.72,5.31-1.5,8.57-2.43c-0.26-2.59-0.51-5.01-0.79-7.82
		c0.34-0.63,0.87-1.62,1.29-2.39c8.84-2.15,17.41-4.24,26.31-6.41c0.31-2.53,0.61-4.94,0.95-7.66c1.26-0.93,2.69-1.98,4.07-3
		c0.28-2.69,0.55-5.31,0.82-7.85c3.13-0.73,5.74-1.34,8.89-2.08c-1.87-6.8-3.65-13.25-5.5-19.95c1.13-1.65,2.26-3.31,3.49-5.1
		c0.16-2.46,0.34-5.11,0.54-8.15c6.75-1.04,13.15-2.02,19.24-2.96c1.23-3.59-0.74-7.27,2.26-9.28c6.67-1.52,13.02-2.96,18.75-4.26
		C1245.57,409.75,1239.85,405.14,1244.08,401.91z"/>
	<path d="M1411.94,445.56c-1.59-1.18-3.22-2.38-4.91-3.63c-4.3,0-8.61,0-12.93,0c-1.65-0.84-3.25-1.66-4.64-2.37
		c-0.72,0-1.25-0.16-1.61,0.02c-3.54,1.82-7.35,1.99-11.23,2.12c-5.89,0.21-11.78,0.61-17.66,1.1c-4.11,0.34-8.2,0.98-10.48,4.43
		c-8.65,1.18-16.8,1.85-24.61,4.89c-0.43,2.64-0.83,5.06-1.31,7.93c-4.65,1.45-9.35,2.91-14.26,4.44c-0.28,2.37-0.54,4.57-0.83,7.11
		c-5.36,3.89-12.51,2.22-18.76,6.58c-0.32,0.47-1.33,1.95-1.7,2.49c-9.44,5.22-17.96,9.92-26.57,14.67
		c-5.6-2.64-5.96-3.39-5.27-11.63c2.74-1.85,5.72-3.86,8.49-5.73c0.72-2.94,1.36-5.55,2.09-8.55c3.05-0.75,6.07-1.5,9.39-2.32
		c0.19-2.5,0.37-4.94,0.56-7.34c1.25-2.82,3.72-2.97,6.31-3.06c6.42-0.22,12.33-2.61,18.76-4.21c0-3.09,0-5.92,0-9.21
		c9.94-3.85,20.55-4.08,30.36-7.38c1.32-1.25,2.63-2.49,3.9-3.68c8.02-0.92,15.88-1.82,24.11-2.77c2.52-3.16,6.17-3.58,10.21-3.58
		c10.45-0.01,20.89-0.37,31.34-0.56c1.58-0.03,3.37-0.31,4.72,0.29c6.03,2.67,12.41,2.39,19.05,2.49
		c7.04,6.22,16.43,3.26,25.34,6.25c2,2.28,4.71,4.81,8.96,5.32c1.7,0.21,3.18,2.24,4.97,3.61c-0.65,6.5,1.86,13.18-2.87,18.77
		c-4.96,0.36-9.4,0.69-13.81,1.01c-0.54,3.7-0.98,6.72-1.46,10c-5.28,0.62-9.97,1.17-14.81,1.73c-1.72,1.64-3.5,3.34-5.29,5.04
		c-6.47,0.52-12.77,1.06-19.08,1.51c-1.35,0.1-2.99,0.35-4.03-0.26c-4.77-2.82-10.02-3.9-15.29-5.25c-2.13-0.54-4.11-2.82-5.52-4.77
		c-3.92-5.43-2.4-9.77,4.75-13.02c1.74,1.02,4.16,1.91,5.87,3.55c2.67,2.55,5.63,3.55,9.21,3.64c3.84,0.1,7.68,0.55,11.5,0.84
		c2.85-1.58,5.62-3.11,8.76-4.85c0.37-1.42,0.81-3.13,1.45-5.58c2.19-1.31,4.85-2.9,7.48-4.47c-0.53-3.05-0.53-3.05-3.11-5.6
		C1422.46,445.56,1417.26,445.56,1411.94,445.56z"/>
	<path d="M824.4,1081.19c3.9,3.2,6.8,5.69,9.82,8.02c3.95,3.05,4.73,6.94,3.42,11.95c-2.57,0.87-5.27,1.78-8.21,2.77
		c0.02,3.6,3.73,6.95-0.34,11.17c-5.03,2.54-12.08,1.09-18.47,4.08c-0.39,1.72-0.81,3.63-1.37,6.13
		c-6.65,1.68-13.55,0.47-20.57,1.63c-6.3,3.28-13.16,4.56-20.62,2.56c-2.78-0.75-5.87-0.4-8.82-0.47c-2.72-0.06-5.45-0.01-8.28-0.01
		c-0.52-0.3-1.15-0.57-1.68-0.97c-2.83-2.18-6.01-4.05-8.32-6.68c-2.19-2.5-3.43-5.84-5.15-8.77c-2.7-4.61-2.29-7.69,1.7-12.08
		c6.19-0.62,6.19-0.62,11.16,5.57c3.88,2.96,6.75,5.13,9.85,7.5c7.62,4.05,15.84,2.61,24.88,0.74c1.26-1.59,2.95-3.73,4.3-5.44
		c5.2-1.14,9.6-2.11,14.08-3.09c0.62-3.86,1.21-7.54,1.9-11.79c-3.29,0-6.75,0-10.75,0c-1.41-1.78-2.82-3.54-4.3-5.41
		c-4.55,0.31-8.75-0.37-11.8-3.9c-5.99,0.18-12.01,2.72-17.61-2.08c-9.39,2.91-18.88,5.84-27.84,8.61
		c-1.41,2.23-2.38,3.75-3.32,5.24c-0.68,0.36-1.24,0.77-1.88,0.97c-7.66,2.42-14.74,6.03-21.24,10.71
		c-3.09,2.22-5.82,4.94-9.24,7.88c-5.51,0.64-7.91-2.29-7.39-11.01c3.01-2.28,6.32-5.03,9.87-7.42c3.39-2.28,7.02-4.18,10.88-6.45
		c0.44-1.38,0.99-3.09,1.59-4.96c7.36-4.6,17.42-4.19,23.38-12.42c13.58-1.97,27.49-3.98,40.95-5.93c2.15,1.35,3.68,2.3,5.2,3.26
		c5.04,0,10.03,0,15.15,0c1.45,1.04,2.92,2.09,4.74,3.39c4.85,0.37,10.06,0.77,16.08,1.23c0.9,1.2,2.13,2.82,3.14,4.16
		C821.74,1080.5,823.71,1081.01,824.4,1081.19z"/>
	<path d="M1023.18,575.66c-1.87-0.39-3.4-0.71-5.01-1.04c-0.45,0.58-1.07,1.04-1.2,1.61c-1.28,5.39-3.81,10.07-7.39,14.31
		c-1.26,1.5-1.75,3.65-2.65,5.47c-0.68,1.37-1.48,2.68-2.19,3.96c-3.27,0.4-6.16,0.76-9,1.11c-1.57,1.98-2.96,3.73-4.42,5.56
		c-1.83,0.28-3.61,0.55-5.75,0.88c-1.08,1.01-2.37,2.24-3.77,3.55c-13.82,0.31-27.67,0.62-41.63,0.94
		c-1.76-0.96-3.54-1.93-5.09-2.78c-3.88-0.31-7.5-0.6-11.12-0.89c-1.13-0.09-2.28-0.12-3.39-0.32c-7.92-1.44-11.65-6.71-10.38-14.72
		c0.17-1.1,0.66-2.14,0.94-3.01c3.38-3.24,7.63-3.25,11.12-3.98c1.99-3.36,3.78-6.39,5.57-9.42c0.18,0.1,0.36,0.2,0.54,0.29
		c0.61-2.39,1.23-4.78,1.91-7.46c2.61-0.84,5.16-1.65,8.04-2.58c0.24-0.9,0.6-1.95,0.77-3.02c0.46-2.92,2.29-4.39,5.06-4.65
		c4.73-0.44,9.48-0.97,14.21-0.96c3.75,0.01,7.29,0.04,9.87-3.31c4.11,0.3,7.94,0.7,11.78,0.83c5.22,0.18,10.47,0.48,15.66,0.14
		c9.86-0.65,18.73,2.53,27.74,6.25C1025.67,566.63,1028.03,570.81,1023.18,575.66z M967.27,595.35c0.35-1.42,0.82-3.34,1.44-5.86
		c2.96-0.2,5.83-0.39,8.69-0.6c2.87-0.22,5.86,0.67,8.75-0.81c0.52-2.23,1.03-4.39,1.67-7.14c3.34,0,6.58,0,9.11,0
		c2.85-2.82,5-4.95,7.16-7.09c-3.43-2.98-5.93-3.49-16.48-3.44c-1.46,0.82-3.21,1.8-5.11,2.86c-4.45,0-8.95,0-13.49,0
		c-1.06,1.95-2,3.69-2.81,5.19c-1.77,0.76-3.21,1.38-4.18,1.8c-1.34,2.78-2.47,5.12-3.41,7.08c-3.2,0.5-5.6,0.87-8.15,1.27
		c-0.48,3.34-1.96,6.22-1.13,9.89c2.75,0,5.39,0,7.35,0C960.44,597.38,963.62,596.44,967.27,595.35z"/>
	<path d="M710.12,1217.68c1.07-2.52,1.84-4.35,2.64-6.25c2.94-0.33,5.59-0.63,8.54-0.96c0.45-2.31,0.87-4.46,1.39-7.19
		c3.19-0.82,6.4-1.65,9.56-2.46c0.39-3.95,0.76-7.68,1.23-12.54c-0.46-0.91-1.48-2.92-2.53-4.99c-4.52-1.48-9.77-1.12-12.87-6.07
		c-2.27,0.19-4.47,0.42-6.67,0.53c-5.22,0.26-10.43,0.62-15.65,0.63c-5.24,0.01-10.37,0.12-15.39,2.11
		c-2.46,0.98-5.32,1.25-8.01,1.32c-7.02,0.2-13.31,2.44-18.97,6.16c-5.82-2.17-6.9-4.18-5.97-11.59c5.74-2.37,11.77-4.86,18.95-7.83
		c5.76-0.43,12.79-0.78,19.77-1.54c5.38-0.58,10.56-2.43,16.08-2.36c9.99,0.14,19.99,0.04,29.98,0.12c1.32,0.01,2.64,0.53,3.94,0.82
		c1.61,1.73,3.15,3.38,4.65,4.98c3.01,0.7,5.85,1.57,8.75,1.98c5.57,0.79,9.12,3.7,10.63,9.12c0.18,0.64,0.61,1.21,1.04,2.02
		c1.6,0.92,3.35,1.94,4.83,2.79c2.93,3.64,4.26,7.3,2.68,12.23c-2.32,0.62-4.86,1.29-7.85,2.09c0,2.71,0,5.55,0,8.31
		c-4.43,3.13-9.56,2.18-13.87,3.71c-1.07,2.83-2.07,5.45-3.05,8.05c-5.57,0.68-10.52,1.28-15.71,1.91
		c-0.98,1.71-1.97,3.43-3.27,5.71c-5.05,0.61-10.41,1.25-15.98,1.91c-0.95,1.39-1.96,2.86-2.85,4.15c-0.66,0.24-1.07,0.49-1.5,0.53
		c-7.35,0.55-14.47-1.1-21.6-2.44c-1.29-0.24-2.44-1.18-3.7-1.67c-2.51-0.97-5.02-1.95-7.58-2.76c-6.02-1.89-11.27-4.68-13.94-11.1
		c0.33-2.88,0.48-5.85,1.03-8.73c1.07-5.65,2.87-6.72,8.83-5.89c3.49,2.88,6.78,5.6,10.06,8.31c3.51,2.77,5.59,7.07,10.41,9.14
		C694.99,1217.31,702.47,1217.56,710.12,1217.68z"/>
	<path d="M831.91,450.64c-11.37,2.84-22.29,5.56-32.32,8.07c-4.97-1.35-9.04-2.45-13.12-3.56c-0.16,0.29-0.32,0.59-0.48,0.88
		c-2.46-2.28-4.93-4.56-7.5-6.94c-9.83-1.15-11.69-2.64-14.05-11.43c1.44-5.16,6.54-4.79,10.02-6.89c2.11-1.58,4.02-3.62,6.37-4.61
		c2.59-1.09,4.81-2.39,6.72-4.4c2.17-2.29,4.89-3.11,8.02-2.89c2.71,0.19,5.44,0.4,8.14,0.22c7.76-0.55,14.54,0.91,18.24,8.25
		c2.37,0.84,4.33,1.4,6.18,2.21c6.35,2.81,8.43,8.38,5.78,14.93C833.16,446.33,832.66,448.3,831.91,450.64z"/>
	<path d="M487.18,575.66c-0.08,1.22-0.17,2.56-0.25,3.72c-0.7,0.65-1.12,1.27-1.71,1.54c-2.91,1.32-5.6,2.76-7.49,5.58
		c-0.81,1.2-2.51,1.87-3.91,2.58c-5.45,2.78-10.97,5.43-16.4,8.25c-4.13,2.14-8.19,2.21-12.39,0.27c-1.62-0.75-3.38-1.18-5.03-1.86
		c-2.66-1.1-5.29-2.28-7.17-3.1c-3.25-5.07-4.13-9.19-2.34-14.32c1.17-3.37,0.22-7.47,0.22-12.5c0.4-0.32,1.6-1.74,3.13-2.42
		c6.82-3.04,13.53-6.57,20.67-8.57c5.97-1.67,12.71-2.51,17.27,3.97c0.26,0.37,0.54,0.8,0.92,0.99
		C479.37,562.97,483.09,568.94,487.18,575.66z"/>
	<path d="M293.99,329.23c0.29,2.21,0.59,4.43,0.97,7.26c-2.77,1.85-5.62,3.61-8.31,5.59c-2.34,1.72-4.6,3.59-6.74,5.56
		c-3.87,3.57-7.85,6.7-13.35,7.54c-3.32,0.5-6.53,1.82-9.77,2.85c-1.71,0.54-3.37,1.23-5,1.83c-2.53-1.1-4.8-2.09-6.6-2.87
		c-5.1,0.95-9.75,1.81-14.1,2.62c-4.08-2.55-6.66-5.49-7.29-9.37c0.77-3.6,4.04-3.11,5.96-4.6c0.79-2.12,1.59-4.24,2.46-6.58
		c1.34-0.93,2.82-1.95,4.37-3.03c0.33-1.5,0.66-3.03,1.05-4.79c3.24-1.5,6.38-3.44,9.79-4.44c6.74-1.99,13.28-4.45,19.85-6.87
		c2.36-0.87,5.53-0.94,7.89-0.12c5.54,1.95,10.84,4.61,16.18,7.1C292.32,327.36,293.03,328.37,293.99,329.23z"/>
	<path d="M336.9,906.79c1.21,0.73,3.31,1.69,5.03,3.1c3.98,3.26,6.94,7.1,6.38,12.76c-0.26,2.65-0.05,5.35-0.05,7.71
		c-5.02,2.88-9.49,5.44-14.65,8.4c-9.21,0.79-11.56-1.39-12.21-12.92c-2.01-2.23-4.41-4.91-6.81-7.6c-2.35-2.63-4.24-5.39-2.5-9.07
		C319.62,903.48,327.86,904.65,336.9,906.79z"/>
	<path d="M270.46,982.98c4.26,3.21,7.16,5.44,6.05,9.85c-7.8,9.14-14.59,10.95-25.66,7.33c-3.93,0-7.08,0-10.22,0
		c-3.21-1.41-5.88-3.42-7.46-6.62c-0.94-1.9-1.38-3.84,0.18-5.9C245.51,983.1,258.42,984.38,270.46,982.98z"/>
	<path d="M574.74,248.93c8.42-9.98,8.79-10.23,15.44-10.45c1.14,1.38,2.47,2.89,3.69,4.5c1.08,1.43,2.02,2.95,3.1,4.54
		c3.03,0.21,5.94,0.41,9.36,0.64c1.21,2.49,2.47,5.06,3.61,7.4c-4.5,7.09-13.62,10.3-26.02,9.27
		C580.24,260.27,574.52,256.63,574.74,248.93z"/>
	<path d="M325.91,1020.17c0,1.37,0,3.14,0,5.27c-4.19,1.23-8.27,2.43-12.94,3.8c-2.24-1.42-4.63-2.95-7.03-4.48
		c-0.3-2.2-0.89-3.98-0.73-5.7c0.56-5.95,5.22-8.7,10.65-6.22C319.53,1014.52,323.32,1016.19,325.91,1020.17z"/>
	<path d="M476.67,853.48c3.71-2.87,7.28-4.5,11.51-4.99c3.1-0.36,6.19-1.36,9.13-2.47c9.8-3.71,15.83-0.51,18.56,10.61
		c-2.82,1.43-5.67,3.27-8.78,4.35c-3.11,1.07-6.49,1.38-9.67,2.83c-5.19,0-10.38,0-16.08,0
		C477.92,861.64,476.27,858.26,476.67,853.48z"/>
</g>
</svg>
