<?xml version="1.0" encoding="utf-8"?>
<!-- Generator: Adobe Illustrator 27.4.0, SVG Export Plug-In . SVG Version: 6.00 Build 0)  -->
<svg version="1.1" id="Calque_1" xmlns="http://www.w3.org/2000/svg" xmlns:xlink="http://www.w3.org/1999/xlink" x="0px" y="0px"
	 viewBox="0 0 2000 2000" style="enable-background:new 0 0 2000 2000;" xml:space="preserve">
<g>
	<path d="M1130.39,990.29c0.12,1.14,0.24,2.28,0.49,4.67c10.66-11.38,20.89-21.69,29.3-33.57c1.75-2.47,1.95-6.02,3.01-9.54
		c0.93-0.83,2.08-2.2,3.53-3.09c6.96-4.3,11.5-10.71,15.79-17.43c12.76-20.05,25.71-39.98,34.93-62.03
		c0.66-1.58,1.61-3.06,2.55-4.51c0.38-0.59,1.09-0.95,1.56-1.35c2.87-0.62,4.27,0.91,5.73,4.2c-0.82,3.39-1.62,7.75-2.94,11.94
		c-4.72,14.93-11.65,28.9-19.08,42.63c-4,7.39-8.05,14.76-12.01,22.02c0.51,3.46,0.98,6.63,1.57,10.6c4.53,3.79,6.7,9.42,7.36,15.79
		c0.5,4.78,0.11,9.39-1.94,13.79c-1.05,2.24-1.94,4.59-3.24,6.67c-7.24,11.58-15.47,22.42-25.59,31.66
		c-5.58,5.09-12.19,8.46-19.64,9.98c-13.1,2.66-23.61-4.5-26.1-17.69c-0.22-1.14-0.61-2.25-1.12-4.05c-1.7,1.15-2.98,1.78-3.97,2.71
		c-20.48,19.17-42.8,36.05-66.11,51.52c-35.78,23.74-73.4,44.1-113.79,59c-23.46,8.66-47.68,13.29-72.78,11.78
		c-14.57-0.87-29.1-2.61-43.18-6.67c-4.95-1.43-9.86-3.42-14.35-5.94c-6.49-3.64-11.13-8.95-11.76-16.92
		c-0.13-1.68-0.75-3.38-1.42-4.95c-4.34-10.19-4-20.33,0.68-30.21c7.41-15.66,18.05-28.33,34.32-35.48c1.13-0.5,2.24-1.07,3.39-1.52
		c13.37-5.14,25.09,2.78,25.67,17.25c0.23,5.82-0.69,11.14-6.04,16.46c0-2.84-0.13-4.41,0.03-5.96c0.3-2.94,1.05-5.87,1.11-8.81
		c0.21-10.23-7.86-16.06-17.37-12.49c-9.91,3.71-18.51,9.41-25.1,17.84c-0.59,0.76-1.04,1.64-1.5,2.49
		c-0.09,0.17,0.04,0.46,0.16,1.36c1.41-0.58,2.68-1.04,3.91-1.61c6.36-2.9,12.89-4.91,20-4.98c5.99-0.07,11.24,1.39,15.53,5.94
		c1.95,4.1,2.87,8.24-0.3,12.71c-4.28-1.94-1.85-6.53-4.05-9.07c-4-3.52-8.89-3.94-13.87-3.34c-11.25,1.37-21.01,6.08-28.22,14.85
		c-11.63,14.16-3.02,29.51,8.31,33.62c8.26,2.99,16.79,4.5,25.42,4.88c13.09,0.59,26.22,0.94,39.31,0.49
		c26.78-0.92,52.24-7.95,76.92-18.09c21.23-8.72,40.72-20.35,58.39-34.96c13.2-10.92,24.9-23.4,35.78-36.57
		c11.52-13.94,22.34-28.41,30.24-44.83c5.49-11.42,9.88-23.22,12.58-35.6c1.45-6.65,1.52-13.21-2.17-19.43
		c-2.79-4.7-6.61-7.19-12.08-7.2c-5.23-0.01-10.25,0.95-15.39,2.62c-0.2,2.98-0.38,5.64-0.57,8.59c-5.59,6.96-13.18,8.58-21.46,8.56
		c-1.09-3.09,0.34-4.3,2.32-5.09c3.44-1.37,6.97-2.52,10.36-4c2.01-0.88,4.13-2.01,3.18-5.63c-1.47,0.15-3.24-0.11-4.54,0.55
		c-6.58,3.34-13.05,6.92-19.84,10.57c-1.4-3.12-2.89-6.42-4.58-10.16c-7.57,3.93-15.12,6.78-23.21,4.59
		c-2.77-2.95-1.84-5.33,0.25-7.49c3.21-3.32,7.23-5.36,11.72-5.93c4.38-0.56,7.88-2.59,11.39-4.98
		c18.38-12.47,34.59-27.33,48.1-44.92c4.63-6.02,8.18-12.94,11.73-19.7c1.31-2.49,1.45-5.7,1.62-8.61c0.06-1.08-1.34-2.24-2.34-3.76
		c-5.33,4.48-8.85,11.24-17.7,9.49c-0.87-1.16-2.14-2.84-3.28-4.35c3.57-5.41,3.57-5.41,15.08-10.9
		c7.48-13.49,15.55-27.38,16.75-44.01c0.42-5.86-0.65-11.31-3.47-16.45c-3-5.46-7.51-8.35-13.82-8.41
		c-10.31-0.1-20.12,2.43-29.76,5.68c-32.74,11.02-61.99,28.38-89.3,49.28c-18.76,14.35-35.74,30.55-51.03,48.52
		c-10.12,11.9-19.3,24.5-26.57,38.39c-1.6,3.07-3,6.25-4.46,9.38c-4.87,10.4-4.9,21.02-1.58,31.85c3.36,10.97,12.22,14.58,23.48,8.6
		c1.61-4.18,3.52-9.1,5.52-14.28c3.49,1.23,4.4,3.68,4.89,6.4c1.23,6.83-2.65,14.08-9.09,17.06c-14.43,6.68-32.16-2.39-34.9-18.28
		c-1.56-9.06-1.18-18.26,1.63-27.16c2.16-6.84,4.39-13.67,6.79-20.43c6.07-17.09,16.17-31.65,28.46-44.8
		c18.66-19.98,39.65-37.28,61.45-53.66c28.73-21.58,59.1-40.69,89.25-60.17c27.23-17.6,54.42-35.29,81.12-53.67
		c27.35-18.83,53.11-39.71,76.56-63.35c4.71-4.75,7.64-9.71,8.19-16.73c0.95-12.27,5.17-23.63,12.99-33.42
		c2.65-3.31,5.56-6.26,10-7.82c3.06,2.06,5.82,4.36,6.45,8.28c-0.52,4.83-4.68,6.91-7.38,10.35c0.53,7.99-3.07,14.67-7.7,20.96
		c-1.61,2.19-3.24,4.38-4.84,6.58c-2.41,3.32-2.73,6.73-0.54,10.5c5.76-0.85,9.74-6.4,15.97-5.55c3.24,1.47,5.46,4.1,7.07,7.23
		c2.12,4.13,1.45,7.77-2.3,10.51c-5.42,3.96-11.45,5.78-18.19,3.87c-1.41-0.4-2.77-0.95-4.35-1.5c-6.51,4.18-10.99,9.96-14.26,16.71
		c-3.75,7.74-4.81,16.07-4.82,24.56c0,6.37,3.62,10.55,8.62,13.85c7.83,5.17,16.7,7.44,25.76,8.95c17.65,2.94,35.09,0.97,52.25-3.35
		c22.03-5.54,42.7-14.29,61.14-27.76c4.57-3.34,8.72-7.31,12.86-11.2c3.3-3.1,5.6-6.9,6.3-11.81c-1.27-2.69-2.63-5.57-4.28-9.05
		c1.47-0.5,2.85-1.52,3.81-1.21c7.17,2.3,10.31,10.88,6.84,18.44c-2.53,5.52-6.48,10.05-11.21,13.67
		c-7.46,5.7-14.87,11.64-22.99,16.27c-22.8,12.99-47.21,21.58-73.46,24.4c-15.42,1.66-30.72,0.92-45.62-3.49
		c-5.63-1.67-11.17-4.13-16.23-7.12c-7.99-4.73-11.94-12.06-12.28-21.55c-0.59-16.51,4.71-30.59,16.27-42.36
		c2.06-2.09,4.04-4.26,6.22-6.55c-0.87-1.56-1.53-2.73-2.13-3.81c-0.92,0.3-1.52,0.31-1.81,0.61
		c-21.25,21.93-45.02,40.91-69.39,59.17c-29.34,21.98-60.39,41.46-91.1,61.41c-14.53,9.44-29.2,18.66-43.76,28.06
		c-3.7,2.39-7.21,5.08-11.64,8.22c3.71,0.68,5.56-1.1,7.54-2.15c14.02-7.47,28.47-13.93,43.77-18.28
		c8.33-2.37,16.78-4.21,25.54-4.31c8.78-0.09,15.15,3.97,19.78,11.04c4.64,7.08,6.59,14.89,5.39,23.36
		c-1.05,7.39-2.86,14.57-6.12,21.32c-3,6.21-6.02,12.41-9.02,18.59c0.49,0.79,0.76,1.55,1.29,2c6.32,5.38,6.28,11.71,3.25,18.79
		c-5.33,12.46-13.18,23.2-22.23,33.14c-10.01,11-20.47,21.52-32.7,30.11c-0.5,3.55-0.97,6.92-1.57,11.12
		c1.61-0.83,2.89-1.22,3.81-2.01c2.63-2.25,5.02-4.78,7.68-6.99c1.81-1.51,3.91-2.67,6.04-4.09c2.11,2.34,3.74,4.13,5.55,6.14
		c2.22-0.4,4.39-0.8,6.55-1.16c2.93-0.49,5.85-1.16,8.8-1.37c12.95-0.89,20.7,8.03,21.86,19.33c0.85,8.25-1.07,16.24-3.32,24.13
		c-4.99,17.55-13.11,33.63-23.21,48.75c-14.23,21.3-30.85,40.61-49.75,57.83c-16.74,15.26-35.9,27.02-56.31,36.83
		c-25.94,12.47-53.25,19.84-81.82,22.74c-1.72,0.18-3.45,0.34-5.18,0.38c-16.6,0.45-33.13-0.47-49.62-2.47
		c-9.3-1.13-17.88-3.71-26.12-8.99c0.51,1.07,0.77,2.44,1.58,3.18c7.01,6.38,15.71,9.48,24.69,11.35
		c40.98,8.52,81.11,6.3,120.25-9.67c25.53-10.41,49.86-23.01,73.28-37.49c27.41-16.95,53.76-35.35,78.17-56.44
		c7.3-6.31,14.32-12.94,21.47-19.42c2.26-2.05,3.82-4.42,4.39-7.53c0.34-1.85,1.38-3.57,2.11-5.35
		C1129.65,990,1130.02,990.14,1130.39,990.29z M1128.78,1006.67c-0.53,15.05,11.01,23.72,24.81,18.01
		c5.15-2.13,10.21-5.23,14.32-8.98c5.99-5.46,11.39-11.67,16.47-18.01c3.83-4.78,7.04-10.11,10.04-15.48
		c3.04-5.45,2.9-11.41,1.03-17.28c-0.31-0.97-1.25-1.74-1.96-2.69c-10.44,11.94-11.29,12.48-18.43,11.72
		c-1.04-2.89,0.51-4.59,2.79-5.95c3.91-2.33,7.16-5.31,9.04-9.52c0.51-1.14,0.49-2.51,0.93-4.97c-3.94,4.16-6.8,7.54-10.05,10.51
		c-3.9,3.57-8.29,6.21-13.24,4.12C1152.5,981.1,1140.91,993.6,1128.78,1006.67z M1187.78,940.61c5.42-7.49,14.27-24.09,16.28-31.47
		c-6.32,10.04-12.64,20.08-19.05,30.27C1186.12,939.89,1186.76,940.17,1187.78,940.61z M1169.02,962.63
		c7.88-4.25,12.97-9.95,14.46-15.52C1178.1,948.34,1175.24,951.31,1169.02,962.63z"/>
	<path d="M628.63,1669.65c-1.99,3.1,0.51,7.03-2.74,9.2c-3.36-0.49-3.36-0.49-6.05-3.05c-1.68-2.64,0.12-6.61-3.47-8.91
		c-4.26,0.63-5.79,4.61-8.5,7.65c0.05,5.21-2.85,8.95-6.48,12.62c-2.91,2.94-5.13,6.65-7.31,10.22
		c-8.82,14.44-18.99,27.75-31.46,39.28c-9.52,8.81-19.74,16.49-32.01,21.12c-4.67,1.76-9.4,3.03-14.47,2.73
		c-9.89-0.58-16.07-8.78-14.1-18.37c1.64-8,7.19-12.18,15.06-16.73c-1.69,5.79-0.61,10.4-3.59,14.48c-1.98,2.7-1.91,6-0.46,9.38
		c4.2,1.89,8.42,1.23,12.16-0.6c3.94-1.93,7.87-4.3,11.02-7.31c10.65-10.15,19.13-22.13,26.29-34.86
		c6.41-11.4,11.64-23.48,17.17-35.36c1.45-3.11,2.18-6.57,3.05-9.92c0.81-3.11,0.99-6.28-0.04-9.66c-6.72-1.2-10.41,5.42-16.2,5.91
		c-0.85-4.96-0.55-5.38,10.06-14.42c-4.3-1.93-4.82-1.78-11.44,3.32c-2.58,4.81-0.98,13.38-10.93,13.3c0-2.83,0-5.19,0-7.84
		c0.87-1.43,1.9-3.12,2.93-4.82c0.5-2.73,0.85-5.4-1.49-8.1c-1.32,1-2.82,1.81-3.89,3c-7.29,8.1-13.73,16.61-18.59,26.62
		c-5.6,11.52-12.72,22.36-19.75,33.13c-15.45,23.65-32.41,46.2-51.46,67.08c-32.47,35.6-70.39,63.65-115.27,81.78
		c-7.32,2.96-14.77,5.67-22.32,7.98c-8.69,2.65-17.64,2.27-26.48,0.67c-5.95-1.08-11.83-1.38-17.6,0.55
		c-4.26,1.42-8.3,0.55-12.16-0.33c-12.01-5.75-11.77-25.73-3.46-33.97c5.23-5.18,11.04-9.97,17.23-13.92
		c6.92-4.42,11.06-3.28,17.09,2.59c2.09,2.04,4.43,3.84,6.52,5.87c0.66,0.64,0.92,1.7,1.57,2.99c-2.19,2.42-4.65,3.74-8.04,4.26
		c-8.12,1.25-15.6,10.2-16.14,19.33c6.74,4.06,13.77,5.98,22.14,3.78c17.06-4.49,31.98-12.92,46.12-23.15
		c22.64-16.37,42.59-35.49,58.84-58.22c20.69-28.93,34.98-60.81,42.54-95.65c2.68-12.35,5.14-24.72,5.73-37.37
		c0.56-12.01-0.66-23.74-6.4-34.61c-1.88-3.57-3.94-6.91-8.59-8.01c-3.83,0.49-6.16,3.45-8.3,6.46c-3.74,5.26-7.04,10.77-8.6,17.15
		c-0.63,2.6-0.97,5.51-4.43,6.18c-2.85-0.59-3.83-2.81-4.74-5.9c1.51-10.04,5.92-19.28,13.4-26.93c6.85-7,14.28-6.93,21.58-0.58
		c5.24,4.56,8.26,10.43,10.79,16.64c5.49,13.49,5.69,27.62,3.95,41.7c-3.54,28.64-10.75,56.35-22.95,82.62
		c-11.98,25.79-27.16,49.52-47.3,69.68c-9.41,9.42-20.03,17.64-30.17,26.32c-3.15,2.7-6.51,5.17-9.23,8.87
		c1.43-0.42,2.96-0.66,4.29-1.3c26.09-12.56,49.22-29.42,70.57-48.82c21.9-19.91,40.74-42.51,57.78-66.61
		c10.28-14.54,20.02-29.47,29.82-44.34c2.71-4.12,4.93-8.58,7.14-13c4.81-9.64,11.42-17.92,18.77-25.68
		c2.38-2.51,4.86-5.01,8.69-5.17c4.82,0.67,6.2,5.31,9.11,8.09c3.46-0.64,6.78-1.76,10.1-1.75c4.01,0.02,5.66,3.42,6.55,6.01
		c3.51,2.75,6.4,5.02,8.58,6.72c1.88,4.07,1.49,7.33,0.58,10.4c-1.83,6.15-3.56,12.4-6.12,18.27c-8.14,18.64-17.55,36.6-30.66,52.36
		c-0.28,0.34-0.27,0.92-0.66,2.43c1.67-1.01,2.88-1.48,3.75-2.31c10.33-9.7,19.65-20.23,27.07-32.37
		c5.29-8.65,10.64-17.26,16.1-25.81c1.86-2.91,3.99-5.67,6.24-8.29c4.34-5.06,9.35-8.27,16.01-4.73c3.08-0.54,4.62-4.64,8.91-2.43
		c3.13,3.09,4.64,7.69,5.38,12.66c0.47,3.18,0.66,6.47,1.63,9.49c0.71,2.2,2.07,4.74,3.92,5.92c4.64,2.97,9.94,3.47,16.53,2.42
		c-1.9-1.62-2.9-2.56-3.98-3.4c-11.3-8.75-17.81-20.06-19.94-34.34c-4.97-33.35,3.18-63.3,22.43-90.52
		c8.9-12.58,19.38-23.77,31.11-33.77c1.85-1.58,3.5-3.38,5.48-5.31c-1.89-2.74-3.52-5.12-5.51-8c-4.12,3.83-7.83,7.37-11.64,10.81
		c-8.08,7.29-15.93,14.88-24.38,21.73c-19.27,15.62-41.11,26.58-64.81,33.69c-10.99,3.3-22.32,4.31-33.78,2.19
		c-9.01-1.67-16.89-5.62-23.69-11.64c-8.93-7.91-9.31-13.45-1.94-23.62c0.81-17.42,9.92-30.73,21.79-42.42
		c2.89-2.84,6.9-4.95,10.77-6.32c11.75-4.17,14.88-1.32,22.96,6.6c4.58,4.49,3.83,16.69-0.4,21.61c-0.48,0.55-1.08,1.06-1.73,1.38
		c-0.64,0.31-1.4,0.36-1.98,0.49c-2.49-0.86-2.84-2.75-2.69-4.83c0.18-2.47,0.6-4.92,0.68-7.39c0.13-4.06-0.53-7.91-4.11-10.94
		c-6.53-1.91-12.08,0.68-16.57,5.26c-8.59,8.76-15.09,18.9-18.58,31.2c1.26,2.48,2.57,5.05,3.9,7.66c-2.06,3-5.62,1.96-9.01,4.06
		c-0.48,1.93-1.16,4.64-1.81,7.2c6.45,7.41,14.31,10.75,22.9,12.62c10.39,2.27,20.72,1.42,30.84-1.5
		c26.79-7.73,50.82-20.56,71.59-39.3c5.7-5.14,11.39-10.28,17.08-15.43c21.39-19.37,36.13-43.12,45.93-70.08
		c2.4-6.59,3.19-13.49,2.75-20.47c-0.26-4.19-0.98-8.31-3.91-11.27c-2.67-0.85-4.36,0.21-5.51,1.9c-1.81,2.65-3.35,5.48-5.01,8.23
		c-1.24,2.04-2.49,4.08-3.55,5.83c-6.82-0.14-6.67-5.92-9.73-9.2c2.53-10,8.66-16.81,18.14-20.02c6.65-2.25,13.25-0.44,18.95,3.72
		c8.56,6.24,14.13,14.63,16.21,24.96c4.12,20.47,1.22,39.91-9.85,57.82c-6.81,11.02-15.77,20.31-24.73,29.56
		c-1.35,1.4-2.99,2.88-4.78,3.43c-6.19,1.93-10.47,6.44-15.03,10.54c-13.87,12.47-26.34,26.15-35.91,42.28
		c-5.72,9.64-10.03,19.79-12.21,30.9c-1.91,9.71-4.72,19.3-3.96,29.31c0.62,8.13,1,16.42,2.97,24.26
		c3.34,13.3,12.1,22.4,24.93,27.48c4.84,1.92,9.31,0.48,13.59-1.53c4.69-2.2,9.18-4.8,13.76-7.22c3.15-5.08,3.15-5.08,2.26-9.57
		c-2.53,0-5.13,0-8.47,0c0.66-1.93,1.24-3.59,1.69-4.9c4.83-2.16,8.24-0.55,11.15,2.57c3.08,3.3,2.98,7.08,1.49,11.09
		c-4.2,11.23-15.25,19.17-27.21,19.73c-7.65,0.36-15.28,1.11-22.93,1.55c-4.81,0.27-9.4-0.88-13.48-3.43
		c-4.4-2.74-7.3-6.24-6.84-12.11C633.34,1676.84,632.77,1672.55,628.63,1669.65z M690.69,1509.33c1.69,2.01,3.53,4.2,5.97,7.1
		c5.75-4.26,12.37-5.89,17-10.97c3.83-4.2,7.86-8.24,11.39-12.68c14.5-18.18,20.4-38.6,15.69-61.73
		c-1.59-7.81-5.66-14.14-11.17-19.66c-2.57-2.58-5.56-4.39-9.59-3.9c7.6,3.88,9.22,10.68,9.35,18.15c0.14,7.47-1,14.74-3.54,21.82
		c-4.02,11.2-8.86,22.05-15.11,32.14C704.6,1489.44,697.8,1498.83,690.69,1509.33z M281,1855.23c0.21-0.56,0.42-1.12,0.63-1.68
		c-0.99-0.99-2-1.96-2.96-2.98c-5.08-5.4-5.66-9.74-1.72-15.94c3.59-5.65,7.82-10.75,13.95-13.92c0.71-0.37,1.2-1.19,1.79-1.8
		c-2.01-0.53-3.86-0.57-5.04,0.3c-4.53,3.38-9.04,6.84-13.15,10.7c-2.08,1.95-3.79,4.64-4.82,7.32c-2.08,5.42-2.46,10.96,1.31,16.3
		C274.38,1854.11,277.69,1854.67,281,1855.23z"/>
	<path d="M908.49,1192.19c-0.39,2.95-3.22,3.5-5.02,5.04c-6.18,5.31-12.51,10.47-18.62,15.85c-3.32,2.92-4.93,6.74-4.42,11.51
		c2.68,4.05,7.13,5.16,11.52,5.3c6.9,0.21,13.86,0.02,20.73-0.7c15.64-1.63,30.47-6.54,44.91-12.48
		c27.23-11.2,54.58-22.21,81.38-34.38c46.16-20.96,89.3-47.15,129.22-78.41c26.95-21.11,51.4-45,74.22-70.5
		c14.52-16.23,28.83-32.66,42.91-49.28c15.19-17.94,30.32-35.95,44.89-54.39c20.59-26.07,39.39-53.37,53.96-83.36
		c4.99-10.27,8.88-20.95,10.97-32.23c1-5.44,1.01-10.86-0.48-16.19c-1.8-6.44-5.76-9.6-12.34-9.77c-4.97-0.13-9.9,0.26-14.49,3.2
		c0.5,3.75,1.01,7.56,1.51,11.27c-6.52,6.45-13.88,6.63-21.67,5.5c-1.3-1.82-2.42-3.38-3.62-5.07c-0.64,0.18-1.47,0.2-1.99,0.61
		c-8.88,7.11-17.81,14.17-26.52,21.49c-2.21,1.86-3.7,4.57-5.49,6.91c-1.2,1.57-2.18,3.34-3.56,4.71c-2.41,2.38-5.13,2.61-8.26,0.45
		c0.43-1.69,0.81-3.22,1.38-5.48c-2.72,1.76-4.84,3.14-7.24,4.68c0.39-7.18,1.05-8.02,10.9-14.21c1.64,0.14,3.58,0.31,4.66,0.41
		c10.55-8.58,20.49-16.73,30.52-24.78c2.5-2.01,5.23-3.74,7.91-5.53c3.38-2.26,6.93-3.92,9.64-2.95c7.49-2.8,13.69-5.15,19.92-7.4
		c1.38-0.5,2.87-0.75,4.34-0.91c13.92-1.48,22,5.33,23.17,19.45c0.73,8.76-0.47,17.25-3.16,25.6
		c-6.43,19.98-16.58,38.12-27.95,55.55c-9.59,14.7-19.55,29.22-30.28,43.11c-14.96,19.38-30.73,38.13-46.26,57.07
		c-8,9.75-16.24,19.31-24.35,28.97c-0.44,0.53-0.66,1.25-1.83,3.52c2.38-1.82,3.55-2.47,4.41-3.4
		c10.46-11.22,20.82-22.55,31.32-33.73c33.97-36.14,63.07-76.28,94.34-114.65c19.71-24.19,39.93-47.93,62.43-69.62
		c10.89-10.5,22.32-20.36,35.29-28.25c3.58-2.18,7.35-4.17,11.27-5.61c10.52-3.88,19.74,1.22,21.54,12.36
		c0.85,5.26,0.8,10.97-0.28,16.17c-3.83,18.43-12.11,34.97-22.94,50.29c-10.13,14.33-23.45,25.42-36.78,36.5
		c-4.76,3.95-9.78,7.6-14.36,11.74c-2.12,1.91-3.7,4.55-5.11,7.08c-5.77,10.37-10.68,21.3-17.26,31.11
		c-6.58,9.81-14.77,18.54-22.3,27.7c-0.52,0.64-1.37,1-2.99,0.66c6.45-9.51,12.82-19.09,19.38-28.53
		c10.82-15.56,15.7-24.02,17.03-30.53c-6.23,2.96-12.41,4.7-16.69,10.54c-5.72,7.82-13.52,13.06-23.35,14.5
		c-2.63,0.39-5.37,0.06-7.89,0.06c-2.99-1.62-4.94-3.87-4.77-7.14c0.07-1.44,1.26-2.82,2.55-5.47c1.49,3.34,2.41,5.42,3.53,7.92
		c12.24-0.02,19.79-7.55,27.49-15.61c-4.02-6.11-3.5-12.19-1.67-18.25c1.7-5.64,3.72-11.19,5.7-17.08
		c4.69-2.85,9.15-6.02,13.99-8.42c9.64-4.78,16.74,0.09,16.34,10.99c-0.1,2.85-0.62,5.69-0.99,8.9c1.21-0.43,2-0.52,2.54-0.93
		c17.02-12.94,32.99-26.93,44.77-45.07c7.88-12.13,14.01-25.11,17.48-39.13c1.28-5.17,1.34-10.79,1.11-16.16
		c-0.29-6.79-4.79-11.76-13.44-8.04c-8.97,3.86-16.9,9.29-24.52,15.25c-13.1,10.25-24.83,21.97-36.32,33.95
		c-23.68,24.69-45.18,51.23-66.49,77.93c-20.7,25.92-41.26,51.94-63.58,76.5c-28.48,31.33-57.75,61.91-88.64,90.88
		c-13.16,12.34-26.94,24.03-40.7,35.7c-11.12,9.44-22.34,18.81-34.05,27.49c-14.48,10.74-29.4,20.93-44.35,31.02
		c-10.44,7.05-21.09,13.81-31.94,20.2c-16.19,9.55-32.52,18.89-49.01,27.91c-23.04,12.6-46.8,23.77-71.1,33.69
		c-21.1,8.61-42.66,15.98-65.18,19.9c-7,1.22-14.32,1.38-21.43,1c-4.82-0.26-9.54-2.31-13.6-3.38c-5.4-4.27-5.6-9.02-2.71-13.71
		c2.97-4.81,6.41-9.39,10.09-13.69c2.61-3.05,4.96-6,6.24-9.91c2.29-7.03,7.24-12.3,12.36-17.38
		c10.43-10.34,22.17-18.99,34.59-26.74c15.36-9.58,31.3-18,48.18-24.66c6.04-2.39,12.08-4.28,19.04-4.32
		c1.33,2.03,2.79,4.27,4.3,6.58c-5.4,5.31-18.48,11.29-31.33,13.77c6.87-3.68,13.74-7.36,20.61-11.04
		c-0.09-0.28-0.18-0.56-0.27-0.84c-1.32,0.17-2.77,0.05-3.94,0.57c-21.35,9.3-42.43,19.13-61.66,32.44
		c-2.18,1.51-3.84,3.74-5.75,5.64C909.57,1190.75,909.03,1191.47,908.49,1192.19z M859.7,1248.56c4.02,3.29,8.37,5.15,13.2,4.84
		c7.13-0.46,14.4-0.71,21.3-2.36c13.93-3.34,27.73-7.32,41.44-11.49c18.48-5.63,36.33-12.99,53.76-21.28
		c19.43-9.24,38.69-18.84,57.99-28.33c1.05-0.52,1.87-1.49,2.8-2.26c-5.18,0.98-9.61,3.06-14.12,4.95
		c-24.41,10.22-48.86,20.37-73.27,30.6c-15.11,6.33-30.67,11.16-46.84,13.82c-10.01,1.64-20.11,2.87-30.21,0.28
		c-4.74-1.21-8.64-3.6-11.44-7.66c-0.78-1.13-1.52-2.3-2.31-3.51C862.56,1234.5,858.99,1240.92,859.7,1248.56z M1429.73,891.63
		c3.78-0.27,5.19-3.4,7-5.86c11.99-16.31,14.57-21.01,14.76-26.45C1438.65,861.44,1427.36,877.99,1429.73,891.63z M1445.11,883.13
		c7.96-1.95,9.36-7.79,9.02-14.66C1451.13,873.36,1448.12,878.25,1445.11,883.13z"/>
	<path d="M1276.52,1149.65c-0.99-1.59-1.64-2.62-2.52-4.03c0.51-0.78,1.11-1.7,1.89-2.89c3.19,1.5,6.05,2.84,8.31,3.9
		c8.51-2,16.48-3.64,24.31-5.76c16.83-4.56,32.76-11.26,47.23-21.1c11.99-8.16,22.02-18.36,30.28-30.29c0.5-0.73,0.8-1.6,1.54-3.15
		c-4.23,1.96-7.68,3.55-11.04,5.1c-5.72-2.9-11.1-4.36-16.33-0.38c-1.62-0.45-3.03-0.84-4.95-1.37c0.43-2.24,0.83-4.29,1.26-6.52
		c-1.07-0.78-2.21-1.61-3.64-2.65c5.98-2.19,9.29-5.87,8.07-12.52c5.71-1.31,10.7,1.37,16.37,2.78
		c5.45-5.82,11.01-11.57,14.95-19.45c-4.02-1.23-5.97,4.23-9.62,1.37c-0.55-4.21,3.97-7.07,3.69-11.98
		c-1.71,0.54-3.37,1.06-5.13,1.61c0.12-0.73,0.04-1.29,0.28-1.57c8.07-9.28,17.76-9.56,28.27-5c2.23,0.97,4.39,2.11,6.28,3.02
		c1.56,4.46-0.04,7.94-1.63,11.21c-1.72,3.54-4.04,6.8-6.06,10.2c-3.4,5.73-7.08,11.32-10.1,17.26
		c-11.81,23.24-29.1,41.03-52.12,53.24c-14.06,7.46-28.82,13.08-44.42,16.42c-1.15,0.25-2.24,0.76-3.41,1.16
		c0.4,2.42,0.75,4.49,1.05,6.33c-2.44,1.95-4.65,1.1-6.75,0.53c-4.19-1.14-8.23-0.57-12.45,0.19c-13.82,2.49-26.44,7.89-38.75,14.48
		c-26.67,14.28-49.94,32.94-71.06,54.4c-33.73,34.26-61.91,72.7-85.05,114.76c-13.03,23.68-23.81,48.37-29.99,74.89
		c-6.22,26.7-6.94,53.42-1.03,80.21c3.25,14.69,8.72,28.42,19.67,39.29c11.11,11.03,24.42,18.51,39.18,23.39
		c18.11,5.98,36.52,5.68,55.01,1.99c0.43-0.09,0.8-0.49,2.08-1.31c-1.71-0.23-2.68-0.42-3.66-0.48c-0.99-0.06-1.98-0.01-2.97,0
		c-9.66,0.08-19.27-0.05-28.86-1.71c-23.62-4.07-42.5-15.7-56.62-34.96c-9.65-13.17-13.98-28.3-15.11-44.4
		c-1.68-23.95,2.85-46.76,12.62-68.66c13.5-30.26,34.36-54.82,59.06-76.32c28.18-24.54,59.56-44.25,93.33-60.14
		c24.71-11.63,50.29-20.78,77.33-25.39c30.15-5.14,60.14-5.32,89.68,3.64c24.72,7.5,45.09,21.07,59.17,43.3
		c9.24,14.58,15.67,30.34,20.25,46.86c5.31,19.12,8.66,38.64,10,58.44c1.05,15.56,0.76,31.13-0.64,46.7
		c-1.36,15.05-3.12,30-6.2,44.82c-3.39,16.31-8.7,31.96-15.13,47.25c-9.72,23.12-22.05,44.91-36.28,65.47
		c-8.98,12.96-18.34,25.81-29.74,36.94c-9.37,9.15-18.54,18.51-27.82,27.75c-1.39,1.38-2.91,2.62-5.12,3.46
		c0.34-0.61,0.59-1.28,1.02-1.81c0.62-0.77,1.35-1.44,2.06-2.14c12.75-12.46,25.14-25.24,36.41-39.09
		c11.72-14.41,23.14-29.06,32.28-45.24c8.76-15.5,16.81-31.39,23.5-47.96c5.85-14.48,11.6-29,14.46-44.37
		c2.54-13.6,4.49-27.35,5.92-41.11c1.1-10.56,1.33-21.24,1.36-31.87c0.06-21.61-2.81-42.87-8.03-63.86
		c-4.75-19.12-11.98-37.2-21.96-54.13c-14.4-24.43-36.44-38.52-63.39-45.53c-27.84-7.24-55.89-6.67-83.91-1.31
		c-38.39,7.34-73.69,22.67-107.11,42.5c-21.1,12.52-41.28,26.44-59.37,43.12c-23.51,21.69-43.57,46-55.69,76.05
		c-9.46,23.44-13.22,47.64-8.65,72.72c2.64,14.49,9.48,26.95,19.37,37.83c12.5,13.76,28.04,21.64,46.3,24.49
		c15.31,2.38,30.58,2.26,45.8-0.65c14.94-2.86,28.09-9.41,39.37-19.61c4.59-4.15,9.14-8.34,13.5-12.72
		c5.57-5.62,5.48-5.71,7.78-12.83c1.26,0.61,2.79,0.9,3.57,1.82c3.95,4.61,4.45,9.71,1.72,15.17c-3.78,7.56-9.92,12.89-16.63,17.64
		c-10.58,7.48-22.19,13.03-34.29,17.5c-18.44,6.81-37.32,11.44-57.18,11.57c-22.58,0.15-42.75-6.75-61.28-19.36
		c-17.86-12.16-27.44-29.72-31.98-50.06c-7.85-35.16-5.18-69.9,6.54-103.89c11.2-32.48,27.23-62.57,46.14-91.18
		c13.38-20.26,27.94-39.66,43.66-58.15c28.98-34.09,62.31-62.9,102.44-83.3c7.96-4.05,16.16-7.51,24.99-9.23
		C1273.43,1150.76,1274.57,1150.27,1276.52,1149.65z"/>
	<path d="M516.85,1485.44c-1.08-10.73-1.57-20.92,11.18-26.81c1.4,1.92,2.83,3.89,4.73,6.5c0.8,6.1-3.28,11.94-4.73,18.77
		c3.63,2.11,7.1,1.29,9.79-0.69c5.89-4.31,12.51-8.28,13.38-17.07c-1.36-0.96-2.72-1.92-4.47-3.16c0-3.26,1.03-7.13-2.38-9.89
		c1.97-9.48,9.09-13.33,17.06-14.36c12.47-1.61,24.26,0.77,32.94,11.19c3.73,4.47,6.62,9.29,5.48,15.5
		c-1.23,2.26-2.55,4.3-5.33,4.55c-2.73-1.57-2.34-4.18-2.52-6.62c-0.7-9.17-5.35-14.72-14.24-16.42c-4.11-0.78-8.34-1.02-12.53-1.2
		c-4.12-0.17-7.57,1.58-10.4,3.98c2.97,2.62,5.62,4.96,8.27,7.3c-3.08,7.84-6.41,14.6-13.32,18.38c-0.93,3.58-1.73,6.67-2.44,9.43
		c-6.27,7.23-14.16,6.81-22.26,5.88c-2.05,2.19-4.02,4.4-6.11,6.48c-8.04,8.01-19.31,8.95-28.2,1.76
		c-4.57-3.7-8.84-7.99-12.43-12.65c-11.31-14.67-17.56-31.43-19.19-49.88c-1.41-16.03-2.44-32.09-1.33-48.19
		c1.24-17.94,5.88-35.17,12.09-51.88c7.24-19.47,15.15-38.71,23.28-57.83c6.2-14.57,13.09-28.84,19.88-43.15
		c9.38-19.76,21.27-37.93,34.55-55.3c16.65-21.77,35.96-40.89,57.13-58.11c14.05-11.43,29.28-21.13,46.66-27.04
		c14.39-4.89,29-6.07,43.91-3.35c24.76,4.53,39.76,22.39,40.15,48.11c-1.02,1.47-2.25,3.24-3.77,5.41
		c-2.62-3.05-3.55-6.18-4.24-9.53c-1.41-6.81-3.52-13.38-7.22-19.38c-5.94-9.63-14.31-15.25-25.56-17.24
		c-15.64-2.76-30.57-0.4-45.14,5.18c-14.01,5.37-26.49,13.45-37.86,23.11c-28.07,23.86-52.91,50.65-72.44,82.05
		c-5.35,8.6-10.61,17.37-14.84,26.55c-11.79,25.62-23.03,51.5-34.45,77.29c-0.55,1.23-0.81,2.59-1.53,4.98
		c1.61-1.22,2.33-1.54,2.73-2.1c13.18-18.06,28.53-34.21,44.67-49.56c19.38-18.43,39.75-35.72,61.65-51.14
		c29.12-20.51,60.99-35.75,93.89-49.04c17.68-7.14,35.64-13.47,54.4-17.22c24.67-4.94,48.73-3.38,71.98,6.86
		c6.87,3.03,13.11,6.95,18.56,12.09c2.6,2.45,4.56,5.21,3.33,9.59c-1.21-0.81-2.4-1.28-3.14-2.14
		c-6.32-7.35-14.52-11.73-23.31-15.35c-21.08-8.68-42.78-9.48-64.91-5.37c-19.82,3.67-38.61,10.57-57.19,18.13
		c-27.33,11.12-53.93,23.77-78.63,40c-11.14,7.32-21.96,15.27-32.22,23.78c-16.57,13.75-32.95,27.77-47.66,43.56
		c-12.66,13.58-25.2,27.28-36.11,42.33c-8.3,11.45-15.44,23.66-21.11,36.61c-4.8,10.97-7.09,22.71-7.37,34.67
		c-0.24,10.6,0.33,21.22,0.56,32.19c1.04-0.61,1.66-0.75,1.78-1.08c8.55-23.19,21.08-44.21,35.54-64.09
		c13.11-18.03,27.29-35.21,43.27-50.82c24.6-24.05,51.92-44.35,83.16-58.98c19.04-8.91,38.15-17.74,57.62-25.66
		c33.28-13.54,67.41-14.59,101.83-4.49c9.25,2.71,18.33,6.02,27.36,9.42c3.87,1.45,7.9,3.01,10.86,6.68
		c-0.05,0.99-0.11,2.16-0.17,3.25c-0.86,0.13-1.42,0.41-1.75,0.24c-26.68-13.63-54.92-21-84.94-20.71
		c-16.23,0.16-32.05,3.58-47.13,9.35c-32.88,12.58-64.95,27.03-94.48,46.36c-32.19,21.07-59.56,47.39-82.53,78.32
		c-14.05,18.92-26.79,38.61-37.24,59.78c-5.12,10.36-7.65,21.41-9.83,32.57c-0.55,2.79,0.03,5.95,0.68,8.8
		c3.01,13.05,9.37,24.41,18.04,34.53c1.12,1.31,2.38,2.57,3.78,3.54c7.09,4.92,12.87,4.79,18.27-1.76
		C514.2,1489.37,515.53,1487.29,516.85,1485.44z"/>
	<path d="M391.01,878.21c-4.51,2.21-6.59,6.14-8.6,10.12c-3.83,7.58-5.72,15.79-7.71,23.97c-1.03,4.25-2.38,8.36-4.24,13.32
		c-3.43-6.12-2.91-11.65-2.01-16.85c1.35-7.77,2.9-15.59,6.56-22.74c1.01-1.98,1.95-4.02,3.19-5.86
		c6.38-9.46,17.14-11.03,25.52-3.32c3.77,3.47,7.21,7.58,9.86,11.97c20.58,34.07,32.81,70.85,34.63,110.76
		c1,22,2.03,44.03,1.87,66.05c-0.29,38.91-3.85,77.59-11.34,115.82c-3.9,19.9-8.35,39.7-12.34,59.59
		c-2.48,12.37-4.09,24.92-6.97,37.19c-3.04,12.99-7.11,25.74-10.75,38.59c-2.36,8.32-4.98,16.58-7.07,24.97
		c-4.09,16.44-10.97,31.79-18.03,47.06c-3.42,7.41-7.42,14.55-10.91,21.93c-10.3,21.78-22.38,42.43-37.85,61.01
		c-4.43,5.32-8.49,10.96-12.55,16.57c-7.27,10.07-15.5,19.29-24.51,27.8c-7.19,6.79-14.44,13.54-21.93,20.01
		c-6.6,5.7-13.95,10.19-22.55,11.54c-6.56-2.38-8.44-7.67-9.96-12.99c2.42-6.99,2.43-7,7.93-6.55c0.74,3.7-4.67,7.87,0.95,11.61
		c1.26-0.31,3.09-0.37,4.47-1.17c4.48-2.6,9.21-4.99,13.1-8.33c20.55-17.61,39.41-36.81,54.64-59.35c2.9-4.29,6.26-8.29,9.5-12.35
		c12.14-15.19,21.14-32.28,29.62-49.63c7.39-15.11,14.48-30.38,21.21-45.8c3.15-7.22,5.16-14.95,7.62-22.46
		c0.34-1.05,0.3-2.22-0.41-3.62c-0.89,1.43-1.84,2.81-2.64,4.29c-17.8,32.69-40.47,61.59-68.08,86.52
		c-19.97,18.03-42.2,32.77-66.9,43.55c-12.04,5.26-24.78,8.55-37.55,11.55c-7.46,1.75-14.94,3.62-22.51,4.7
		c-5.82,0.83-11.82,0.9-17.7,0.57c-4.52-0.25-8.55-2.41-11.25-6.35c-0.47-0.69-0.59-1.63-1.03-2.91c1.29,0.13,2.07-0.01,2.61,0.29
		c8.26,4.73,17.14,4.56,26.01,2.85c28.55-5.51,56.44-12.97,81.58-28.37c14.18-8.69,27.83-18.06,39.76-29.69
		c9.56-9.32,18.97-18.8,28.15-28.5c4.06-4.29,7.5-9.2,11.01-13.97c11.76-15.96,22.6-32.49,31.3-50.35
		c3.04-6.24,5.76-12.59,6.73-19.57c0.37-2.63,0.63-5.55,4.33-6.87c1.52,0.86,3.36,1.89,5.19,2.92c0.36-0.31,0.89-0.54,1.02-0.91
		c7.1-20.41,11.09-41.54,14.89-62.74c3.4-18.99,7.41-37.87,11.24-56.78c4.13-20.38,7.3-40.9,9.53-61.57
		c3.87-36.03,3.65-72.16,2.22-108.29c-0.73-18.54-2.06-37.06-6.23-55.23c-5.75-25.06-15.49-48.5-28.69-70.52
		c-1.4-2.33-2.94-4.6-4.66-6.7C397.95,882.09,395.55,879.19,391.01,878.21z"/>
	<path d="M1752.8,566.17c0.94,0.71,2.28,1.72,3.38,2.54c0.92-0.14,1.47-0.1,1.88-0.3c6.41-3.22,12.8-6.47,19.21-9.7
		c11.08-5.6,21.81-5.05,32.47,1.41c11.43,6.92,18.37,16.82,21.73,29.68c4.5,17.25,4.82,34.72,3.72,52.33
		c-2.04,32.65-14.48,61.94-29.52,90.32c-11.42,21.56-25.67,41.12-42.92,58.43c-1.91,1.92-4.05,3.62-6.16,5.33
		c-0.89,0.72-1.97,1.21-3.72,1.14c0.65-1.14,1.15-2.41,1.98-3.39c3.7-4.32,7.36-8.7,11.28-12.81
		c14.14-14.79,25.65-31.52,35.27-49.43c13.65-25.42,24.09-52.12,27.48-81.05c2.08-17.73,3.06-35.51-0.59-53.23
		c-1.87-9.11-4.84-17.66-11.24-24.66c-7.36-8.06-16.33-11.69-27.31-10.12c-9.94,1.42-19.02,5.08-28.13,9.82
		c0.16,1.9,0.35,3.56,0.44,5.22c0.28,5.41,1.03,10.85,0.67,16.21c-0.51,7.71-5.18,12.9-12.74,14.46c-3.55,0.73-7.45,0.85-11,0.22
		c-5.45-0.97-7.72-5.16-6.42-10.57c1.37-5.7,4.67-10.34,8.64-14.51c1.85-1.95,3.98-3.64,6.31-5.75c-2.98-0.63-5.18-1.09-6.98-1.47
		c-1.83-4.31,0.4-6.95,1.93-9.69c6.48-11.66,0.07-26.47-11.63-30.66c-5.45-1.95-11.03-3.27-16.72-1.8
		c-6.2,1.6-12.47,3.27-18.34,5.77c-12.89,5.5-23.77,14.16-34.19,23.36c-22.53,19.88-39.93,43.83-54.96,69.63
		c-22.4,38.43-39.42,79.27-54.14,121.15c-9.6,27.33-18.62,54.85-25.36,83.02c-5.65,23.62-10.12,47.5-9.06,71.97
		c1.01,23.18,4.71,45.8,16.2,66.46c8.43,15.16,19.91,27,36.28,33.63c10.56,4.27,21.59,5.39,32.79,4.83
		c20.74-1.04,39.91-6.79,56.49-19.84c8.41-6.62,14.55-14.83,17.4-25.22c1.53-5.56,2.1-11.21-0.92-16.11
		c-3.73-4.24-10.14-3.87-13.13-9.45c2.79-0.49,5.16-0.9,7.1-1.24c13.36,5.78,18.74,17.17,14.84,31.24
		c-2.92,10.53-8.46,19.59-17.03,26.42c-15.87,12.65-34.01,19.96-54.21,22.18c-7.89,0.86-15.73,1.45-23.68,0.47
		c-22.2-2.72-39.41-13.5-52.46-31.48c-13.11-18.07-19.72-38.52-23.58-60.25c-5.28-29.73-0.75-58.67,5.85-87.52
		c2.42-10.59,4.69-21.25,7.86-31.63c7.37-24.13,15.24-48.1,22.91-72.13c10.33-32.38,23.6-63.53,38.97-93.82
		c15.9-31.34,35.33-60.15,60.57-84.81c11.76-11.49,24.79-21.29,39.61-28.51c7.36-3.58,15.02-6.41,23.31-7.08
		c16.36-1.33,32.48,8.86,37.55,24.47C1752.34,554.44,1752.08,559.82,1752.8,566.17z M1736.61,603.98c3.01,2.2,6.07,2.28,8.75,0.81
		c4.35-2.39,8.4-5.34,10.08-10.39c1.79-5.39,2.8-10.83,0.76-16.56c-1.18,0.18-2.09,0.04-2.52,0.44
		c-4.92,4.49-10.11,8.76-14.51,13.72C1736.47,595.04,1734.42,599.07,1736.61,603.98z"/>
	<path d="M1396.97,578.53c-1.02,7.45-5.66,11.38-11.82,14.97c-2-5.48,3.01-8.69,2.74-13.81c-0.5-1.09-1.23-2.92-2.13-4.65
		c-2.48-4.78-2.23-9.37,0.15-14.21c2.21-4.52,4.81-8.63,8.64-11.91c6.42-5.49,13.18-10.34,21.07-13.69
		c9.85-4.18,17.34,0.6,21.13,8.02c1.63,3.18,2.37,7.04,2.63,10.65c0.94,12.86-2.34,25.04-6.85,36.93
		c-7.08,18.64-17.17,35.67-28.46,51.99c-19.92,28.82-43.07,54.92-68.39,79.04c-12.18,11.6-25.16,22.36-37.84,33.42
		c-5.4,4.72-10.95,9.27-16.48,13.84c-0.92,0.76-2.09,1.22-2.76,1.6c3.7,3.35,6.96,5.59,9.27,8.57c3.61,4.65,3.45,10.38,1.98,15.68
		c-1.99,7.12-4.25,14.26-7.31,20.97c-6.38,14.01-14.91,26.79-24.17,39.08c-1.62,2.15-3.21,4.34-4.85,6.56
		c1.13,2.26,2.11,4.22,2.94,5.89c-0.04,8.71-0.04,8.71-8.74,22.31c0.98,1.37,2.08,2.9,3.25,4.53c0.92-0.61,1.71-0.86,2.06-1.41
		c1.59-2.49,2.91-5.21,6.19-6.25c3.47,0.3,4.93,2.6,5.59,6.12c-2.95,5.22-7.7,6.06-13.34,5c-2.01,2.72-4.12,5.45-6.08,8.28
		c-1.69,2.44-4.98,3.92-5.45,9.13c2.26-2.25,3.36-3.35,4.93-4.91c-0.13,1.92-0.23,3.4-0.33,4.89c2.94,1.72,5.82,3.4,8.36,4.89
		c0.28,7.8-3.09,10.44-11.28,9.58c-3.18-3.71-3.18-3.71-4.42-9.19c-1.93-1.21-4-2.52-6.47-4.07c-0.82-8.32,8.03-11.22,10.72-18.61
		c-3.93,0.96-5.87,3.63-8.41,5.21c-2.45,1.52-4.81,3.24-8.53,3.92c0.33-1.72,0.19-3.11,0.82-3.86c2.51-3.03,5.03-6.11,7.95-8.72
		c5.99-5.35,11.14-11.27,14.19-18.78c0.71-1.74,0.99-3.66,1.63-6.15c-3.71,0.78-4.79,3.52-6.67,5.19
		c-3.14,2.78-6.43,4.53-10.48,2.74c-2.17-3.02-1.28-5.66,0.65-7.69c2.69-2.84,5.8-5.29,8.78-7.85c2.23-1.91,4.99-3.39,6.75-5.65
		c11.71-15.09,22.71-30.66,29.6-48.67c1.93-5.06,3.3-10.36,4.53-15.64c1-4.26,0.23-8.34-3.41-12.15c-1.68,0.31-3.62,0.44-5.4,1.03
		c-9.74,3.22-18.29,8.69-26.68,14.44c-18.38,12.59-36.68,25.29-55.2,37.66c-14.62,9.77-29.92,18.46-45.79,26.06
		c-6.22,2.98-12.79,5.29-19.31,7.59c-2.25,0.79-4.87,0.96-7.26,0.75c-1.4-0.13-2.69-1.57-4.03-2.42c2.07-5.32,7.62-6.11,10.74-10.36
		c-3.73-0.33-6.29,1.3-8.88,2.53c-3.35,1.58-6.55,3.5-9.86,5.16c-3.81,1.92-7.57,2.24-11.05-0.72c-1.42-4.25-1.42-4.25,0.11-11.6
		c7.71-12.08,19.83-18.13,32.93-22.42c7.09-2.32,11.64,1.59,12.28,9.4c0.06,0.69,0.27,1.37,0.56,2.79c3.91-1.42,7.56-2.7,11.19-4.06
		c17.6-6.61,35.48-12.68,51.76-22.25c11.72-6.89,23.23-14.2,34.46-21.86c36.91-25.16,71.27-53.48,102.91-85
		c23.91-23.82,45.31-49.8,63.2-78.5c10.24-16.44,19.28-33.51,23.66-52.58c1.32-5.75,2.06-11.7,2.38-17.6
		c0.18-3.35-0.58-6.93-1.7-10.14c-1.87-5.41-7.33-7.99-12.59-5.78c-9.28,3.92-17.08,9.98-23.11,18.09
		c-3.08,4.14-3.36,8.66-0.5,13.19C1394.84,574.88,1395.93,576.79,1396.97,578.53z M1133.33,834.28c-0.58-0.15-1.09-0.46-1.51-0.37
		c-8.52,2.01-16.23,5.76-23.06,11.2c-1.5,1.19-2.79,2.84-3.66,4.55c-0.54,1.05-0.1,2.6-0.1,4.09c9.96-4.01,19.5-7.85,29.02-11.68
		C1134.79,839.11,1135.74,836.53,1133.33,834.28z M1143.96,851.32c8.28-4.1,16.52-6.99,23.29-12.75
		c-8.35,3.14-17.13,5.19-25.08,9.74C1142.79,849.35,1143.15,849.95,1143.96,851.32z"/>
	<path d="M1787.53,171.27c-1.23-8.85,1.5-16.6-3.1-22.94c-5.16-4.4-10.85-4.01-16.44-2.45c-4.98,1.39-9.9,3.21-14.6,5.37
		c-18.13,8.33-34.16,19.94-49.7,32.28c-26.84,21.3-50.9,45.5-73.66,71.03c-28.23,31.67-52.96,65.96-76.3,101.33
		c-26.63,40.37-50.17,82.45-70.66,126.23c-10.61,22.66-20.25,45.73-26.86,69.92c-2.73,9.98-4.84,20.13-7.23,30.16
		c2.49,0.75,4.25,1.28,5.74,1.72c1.97,3.63,0.58,6.59-0.49,9.63c-1.3,3.71-3.04,7.4-1.3,11.9c2.74,4.11,7.11,5.18,12.08,4.73
		c1.22-0.11,2.46-0.32,3.63-0.67c10.87-3.28,21.89-6.14,32.54-10.03c15.82-5.78,31-13.07,45.38-21.92
		c5.27-3.24,10.45-6.62,15.7-9.91c0.94-0.59,1.99-1,3.66-0.66c-0.68,0.83-1.23,1.85-2.07,2.47c-27.9,20.53-58.47,36.12-90.75,48.4
		c-8.98,3.42-17.55,2.44-24.53-5.08c-0.47-0.5-1.14-0.82-2.08-1.47c-0.37,1.13-0.84,2-0.91,2.9c-2,23.36,2.11,45.31,14.61,65.48
		c4.83,7.8,11.74,11.78,20.53,13c9.38,1.3,18.23-0.64,26.68-4.66c13.02-6.19,25.18-13.72,36.08-23.21c2.2-1.92,4.24-4.13,7.93-4.82
		c0.12,1.36,0.55,2.53,0.23,3.45c-0.39,1.11-1.31,2.09-2.17,2.96c-13.19,13.3-27.77,24.58-45.37,31.59
		c-7.28,2.9-14.79,4.05-22.53,3.65c-10.22-0.53-18.53-4.95-24.88-12.95c-6.23-7.85-10.3-16.88-13.74-26.19
		c-4.52-12.23-6.15-24.96-5.97-37.93c0.35-25.4,4.6-50.2,11.59-74.59c8.5-29.65,21.3-57.5,35.14-84.93
		c19.76-39.16,41.55-77.13,66.21-113.42c16.41-24.16,33.54-47.8,52.19-70.29c20.54-24.77,41.68-49.02,64.62-71.62
		c18-17.73,36.75-34.68,58.15-48.3c9.58-6.1,19.59-11.6,29.73-16.71c4.77-2.4,10.3-3.33,15.54-4.75c1.64-0.44,3.44-0.42,5.16-0.4
		c9.74,0.11,16.06,5.55,16.95,15.11C1792.76,160.01,1792.22,165.38,1787.53,171.27z"/>
	<path d="M225.13,1811.03c2.82,0,6.43,0,10.78,0c-0.85,2.74-1.49,4.76-2,6.42c-6.29,3.03-10.69,0.44-14.41-3.57
		c-4.49-4.84-7.07-10.68-7.61-17.34c-0.63-7.75,0.65-15.3,2.5-22.77c0.95-3.84,2.29-7.59,3.24-11.43
		c8.21-33.07,21.43-64.27,36.21-94.79c10.67-22.03,22.55-43.47,34.08-65.07c7.57-14.19,15.22-28.35,23.32-42.24
		c11.35-19.44,22.52-39.01,36.48-56.8c10.12-12.9,21.38-24.7,33.36-35.83c6.7-6.23,13.58-12.29,20.71-18
		c3.63-2.9,7.8-5.33,12.08-7.15c7.11-3.03,14.38-3.62,21.21,1.2c0.54,0.38,1.36,0.38,2.05,0.56c1.75-7.28-0.83-29.83-4.01-35.6
		c-1.64-2.98-4.03-4.95-8.48-5.96c-11.43,3.17-19.7,12.89-29.78,19.65c-4.14-1.99,0.96-6.29-2.83-8.85
		c-1.06,1.83-2.19,3.57-3.12,5.41c-9.32,18.33-19.28,36.28-31.37,52.97c-8.77,12.1-18.69,23.08-31.36,31.27
		c-2,1.3-3.76,3.27-7.18,2.98c0.31-1.43,0.23-2.98,0.95-3.93c1.62-2.13,3.4-4.29,5.54-5.87c12.36-9.08,22.43-20.35,30.06-33.48
		c9.06-15.6,17.24-31.72,25.64-47.7c2.34-4.45,5.27-7.66,10.84-8.08c1.62,1.53,3.21,3.04,5.13,4.87c3.66-1.54,6.48-4.71,9.84-7.07
		c3.23-2.27,6.46-4.54,9.83-6.59c4.75-2.9,9.46-2.26,13.98,0.67c4.56,2.95,7.87,6.94,8.81,12.34c1.47,8.52,3.34,17.07,3.66,25.66
		c0.39,10.59-0.64,21.23-1.04,31.27c0.69,3.55,1.62,6.6,1.82,9.7c0.85,13.81-2.24,27.07-6.15,40.15
		c-5.92,19.81-15.77,37.89-25.34,56.06c-3.68,7-7.74,13.81-11.83,20.59c-1.65,2.73-3.75,5.22-5.83,7.65
		c-2.19,2.56-4.98,4.03-8.98,3.47c-2.62-1.58-5.65-3.24-4.38-8.23c1.76,0.35,3.32,0.65,5,0.98c3.68-1.23,6.15-4.07,8.14-7.2
		c14.36-22.6,27.49-45.87,36.91-71c4.43-11.83,7.29-24.15,8.45-36.8c0.11-1.18,0.01-2.37,0.01-4.54c-1.88,3.3-3.3,5.8-4.77,8.38
		c-3.24-0.42-3.89-2.45-3.62-4.78c0.25-2.18,0.97-4.3,1.57-6.8c-1.52-1.16-3-2.29-4.82-3.68c2.31-7.55,7.54-14.72,3.61-23.45
		c-5.62-2.71-11.23-1.59-16.3,1.03c-5.01,2.59-9.85,5.79-14.12,9.47c-28.12,24.25-52.58,51.64-71.17,84
		c-10.72,18.66-21.24,37.46-32.47,55.82c-13.83,22.62-26.2,45.99-37.85,69.76c-12.42,25.37-22.87,51.56-32.01,78.28
		c-4.25,12.42-8.06,24.94-10.46,37.88c-0.92,4.95-0.91,9.79-0.16,14.74C218.21,1804.35,220.12,1808.1,225.13,1811.03z"/>
	<path d="M1620.11,1134.65c1.7,1.26,3.43,2.54,5.43,4.02c0.65-1.2,1.22-2,1.54-2.89c7.79-21.85,18.67-42.05,32.67-60.52
		c4.17-5.5,8.78-10.78,13.86-15.43c8.01-7.33,17.72-9.44,28.34-7.03c4.54,1.03,7.81,4.09,11.02,7c2.48,14.17,0.01,19.6-9.5,19.52
		c1.06-2.4,2.06-4.54,2.94-6.72c0.92-2.28,1.73-4.61,2.47-6.6c-2.73-7.54-7.29-10.81-14.52-10.55c-5.06,0.18-9.63,1.8-13.88,4.64
		c-7.77,5.18-13.68,12.22-19.13,19.54c-13.55,18.2-23.66,38.26-31.17,59.65c-1.15,3.27-2.24,6.47-1.72,10.11
		c0.47,3.3-0.81,5.81-4.39,6.19c-2.93-1.21-2.8-3.46-2.57-5.74c0.43-4.27-1.19-7.64-4.4-10.56c-4.19,0.8-6.64,3.72-8.42,6.87
		c-4.75,8.38-9.78,16.69-13.52,25.53c-8.41,19.89-13.86,40.74-17.91,61.92c-7.21,37.76-11.11,75.89-12.11,114.3
		c-0.57,22.02-1.27,44.06-0.81,66.06c0.74,35.65,3.63,71.15,9.2,106.43c4.05,25.68,9.05,51.14,15.81,76.24
		c7.35,27.3,17.62,53.58,28.26,79.71c7.39,18.13,16.08,35.65,26.46,52.27c6.69,10.71,13.72,21.22,22.3,30.52
		c12.49,13.52,27.24,23.79,45.23,28.53c12.64,3.33,25.06,1.6,36.99-3.55c20.04-8.65,33.81-23.18,42.6-43.24
		c6.39-14.6,4.23-28.43-0.39-42.57c-0.37-1.12-0.58-2.29-0.81-3.45c-0.03-0.16,0.27-0.38,0.73-0.98c0.98,1.12,2.11,2.04,2.77,3.22
		c8.61,15.56,9.36,31.75,2.33,47.86c-11.16,25.58-30.89,41.19-58.05,47.32c-11.68,2.64-23.12,1.12-34.26-3.07
		c-13.93-5.24-25.63-13.82-36.09-24.22c-11.67-11.6-21.03-24.96-29.4-39.03c-10.9-18.33-19.84-37.61-27.8-57.4
		c-9.33-23.21-17.72-46.73-24.61-70.76c-3.61-12.59-6.62-25.39-9.14-38.24c-4.96-25.25-9.45-50.58-12.03-76.23
		c-4.92-48.85-6.82-97.75-3.66-146.79c1.13-17.53,2-35.09,3.66-52.57c3.16-33.32,8.88-66.18,18.85-98.23
		c4.07-13.07,9.32-25.56,16.13-37.39c1.83-3.18,4.3-6.01,6.67-8.85C1609.53,1135.4,1613.92,1133.55,1620.11,1134.65z"/>
	<path d="M1734.34,342.08c-3.16-2.72-6.15-2.17-8.82-0.78c-4.81,2.5-9.4,5.4-14.11,8.08c-2.28,1.3-3.89,3.85-7.69,3.91
		c0.45-1.33,0.54-2.52,1.15-3.26c4.64-5.57,10.25-9.93,16.58-13.48c5.74-3.21,11.15-4.04,16.91,1.69c3.21,5.14,2.69,11.58,1.4,17.91
		c-3.13,15.35-8.6,29.9-15.68,43.86c-10.91,21.5-24.9,40.93-39.85,59.75c-13.25,16.67-27.29,32.62-42.59,47.44
		c-11.19,10.84-23.16,20.77-35.56,30.2c-0.55,0.42-1.28,0.6-3.32,1.52c2.58-3.9,5.27-5.91,7.47-8.3c2.18-2.36,4.48-4.61,6.8-6.84
		c11.95-11.46,24.34-22.51,35.81-34.43c17.85-18.56,34.03-38.52,48.07-60.2c8.9-13.74,16.57-28.11,23.67-42.81
		c5.29-10.95,9.34-22.33,10.57-34.57C1735.51,348.25,1735.39,344.9,1734.34,342.08z"/>
	<path d="M1118.19,1712.39c-1,1.07-2.11,2.28-3.24,3.47c-8.27,8.67-9.53,21.43-3.17,31.5c3,4.74,7.69,6.82,12.77,8.27
		c10.29,2.96,20.82,4.38,31.5,4.68c20.99,0.59,41.41-2.75,61.42-8.92c17.51-5.4,34.66-11.75,51.08-19.95
		c2.42-1.21,5.02-2.06,7.56-3.03c0.12-0.05,0.38,0.25,1.26,0.88c-6.66,3.35-12.87,6.8-19.33,9.66
		c-11.54,5.11-23.06,10.33-34.89,14.66c-26.8,9.82-54.36,14.98-83.05,11.23c-8.6-1.12-17.04-2.91-25.19-6.04
		c-7.35-2.83-11.59-8.1-13.32-15.66c-1.52-6.64-1.75-13.28,0.42-19.77c1.96-5.89,5.92-10.2,11.62-12.74
		C1115.29,1709.9,1117.05,1709.77,1118.19,1712.39z"/>
	<path d="M1336.72,1023.37c-0.39,3.57-2.33,4.78-3.83,6.25c-10.27,10.09-21.92,18.41-33.81,26.46
		c-14.93,10.12-29.66,20.53-44.42,30.9c-3.29,2.31-6.57,4.52-10.71,4.56c-1.17,0.01-2.36-0.98-4.57-1.98
		C1273.22,1068.8,1304.96,1046.91,1336.72,1023.37z"/>
	<path d="M908.49,1192.19c0.54-0.72,1.09-1.44,1.63-2.16c8.7-4.84,17.06-10.33,26.68-13.64c-0.66,0.58-1.25,1.28-1.98,1.72
		c-6.95,4.2-13.88,8.44-20.93,12.48C912.3,1191.5,910.3,1191.68,908.49,1192.19z"/>
</g>
</svg>
