<?xml version="1.0" encoding="utf-8"?>
<!-- Generator: Adobe Illustrator 27.4.0, SVG Export Plug-In . SVG Version: 6.00 Build 0)  -->
<svg version="1.1" id="Calque_1" xmlns="http://www.w3.org/2000/svg" xmlns:xlink="http://www.w3.org/1999/xlink" x="0px" y="0px"
	 viewBox="0 0 2000 2000" style="enable-background:new 0 0 2000 2000;" xml:space="preserve">
<g>
	<path d="M934.66,673.25c1.47,2.23,2.78,4.22,3.88,5.89c-1.41,4.68-4.51,7.22-7.59,9.55c-3.61,2.72-7.64,4.87-11.36,7.46
		c-3.47,2.42-6.83,5.02-10.14,7.67c-4.03,3.24-8.2,6.36-11.88,9.98c-8.26,8.13-16.4,16.4-24.29,24.89
		c-3.94,4.23-7.35,8.97-10.79,13.65c-4.76,6.48-9.69,12.88-13.88,19.72c-6.81,11.13-12.97,22.8-12.76,36.26
		c0.22,13.97,4.51,26.81,13.61,37.77c13.21,15.9,29.35,28.06,47.7,37.37c2.88,1.46,6.15,2.25,9.31,3.05c5.51,1.4,11.12,2.4,16.6,3.9
		c2.47,0.68,4.72,2.18,7.03,3.29c0,1.95,0,3.4,0,5.15c-1.27,0-2.27,0.19-3.18-0.03c-6.87-1.62-13.81-3.01-20.54-5.07
		c-9.49-2.91-19.31-3.76-29.01-5.42c-21.53-3.7-43.07-7.41-64.58-11.25c-22.67-4.05-45.44-7.08-68.51-7.2
		c-6.04-0.03-12.09,0-18.55,0c-0.44,0.99-1.11,2.18-1.52,3.46c-3.51,11.21-7.27,22.35-10.36,33.68c-2.52,9.25-4.34,18.69-6.26,28.09
		c-2.02,9.89-3.83,19.83-5.68,29.76c-0.35,1.86-0.54,3.76-0.67,5.64c-1,14.48-2.54,28.95-2.77,43.44c-0.2,12.86,0.69,25.77,1.8,38.6
		c0.69,7.88,2.45,15.71,4.19,23.45c1.99,8.84,4.36,17.6,6.82,26.33c2.36,8.38,4.76,16.78,7.67,24.98
		c2.19,6.18,5.15,12.09,7.89,18.06c3.32,7.22,6.79,14.38,10.14,21.59c0.46,0.98,0.58,2.12,0.83,3.07c-4.49,3.06-8.31,1.49-9.92-3.07
		c-2.19-6.18-4.87-12.19-7.56-18.17c-7.26-16.18-12.67-32.97-17.73-49.96c-4.49-15.08-8.1-30.28-9.85-45.87
		c-1.16-10.4-1.71-20.89-2.14-31.36c-0.65-15.57,0.77-31.06,2.2-46.56c1.21-13.13,3.15-26.1,6.06-38.94
		c2.09-9.2,4.21-18.41,6.64-27.52c3.18-11.92,6.7-23.74,10.04-35.62c0.22-0.79,0.19-1.66,0.32-2.99c-5.82,0.41-11.39,0.36-16.8,1.28
		c-12.43,2.12-24.86,4.35-37.13,7.2c-11.84,2.75-23.23,7.09-33.3,14c-6.61,4.54-12.31,10.22-14.3,18.49
		c-1.5,6.26,0.15,12.26,1.78,18.27c3.2,11.81,8.44,22.71,14.48,33.28c2.65,4.64,4.46,9.47,4.84,14.96c0.29,4.08,1.77,8.08,2.7,12.03
		c-2.75,2.13-4.21,2.3-6.28,0.02c-3.56-3.92-7.1-7.9-10.17-12.21c-8.57-12.05-18.87-22.49-30.11-31.92
		c-14.89-12.49-29.82-25.04-45.62-36.32c-13.28-9.48-27.96-16.99-44.66-18.77c-7.4-0.79-14.99-1.55-22.32-0.72
		c-6.77,0.77-13.49,3.22-19.9,5.77c-6.65,2.65-13.14,5.91-19.25,9.65c-5.33,3.27-10.02,7.57-14.99,11.42
		c-2.67,2.06-5.39,4.05-7.99,6.19c-3.11,2.56-6.09,5.27-9.17,7.86c-6.17,5.18-12.38,10.31-18.53,15.51
		c-0.65,0.55-0.97,1.49-1.59,2.09c-1.49,1.43-3.08,2.76-4.63,4.13c-0.18-0.17-0.35-0.34-0.53-0.51c-0.87,1.38-1.74,2.77-2.61,4.15
		c-0.11-0.12-0.23-0.25-0.34-0.37c-4.12,4.04-8.27,8.04-12.34,12.12c-4.36,4.37-8.76,8.71-12.92,13.27
		c-5.09,5.57-10.12,11.22-14.83,17.12c-2.05,2.56-4.15,3.93-7.79,3.4c-0.98-0.77-2.25-1.77-3.83-3.01c0.43-1.07,0.66-2.19,1.26-3.03
		c6.09-8.54,12.14-17.11,18.41-25.52c6.32-8.47,13.04-16.64,19.27-25.18c4.75-6.52,9.01-13.41,13.48-20.13
		c4.26-6.41,8.67-12.74,12.71-19.28c2.31-3.73,4.01-7.84,6.02-11.76c1.03-2,2.02-4.04,3.21-5.94c5.34-8.49,6.5-18.24,8.44-27.75
		c0.7-3.45,1.06-7.01,1.13-10.53c0.16-8.13-4.36-13.45-11.09-17.18c-5.55-3.08-11.68-4.06-17.91-4.37
		c-12.93-0.63-25.75,0.18-38.46,2.84c-9,1.88-18.16,3.06-27.11,5.13c-11.92,2.76-23.7,6.08-35.55,9.16
		c-18.69,4.86-37.42,9.63-56.07,14.63c-12.58,3.37-24.58,8.39-36.45,13.72c-1.87,0.84-3.99,1.13-6.01,1.67
		c-1.68-1.87-2.99-3.32-4.41-4.9c0.75-0.71,1.13-1.22,1.63-1.51c8.63-5,17.17-10.17,25.95-14.89c8.68-4.66,17.62-8.83,26.41-13.28
		c3.71-1.88,7.33-3.95,11-5.94c13.77-7.47,27.42-15.19,41.36-22.32c8.2-4.2,16.95-7.31,25.29-11.23c5.47-2.57,10.76-5.56,15.96-8.63
		c5.87-3.46,11.5-7.34,17.35-10.83c8.43-5.03,13.91-12.56,17.33-21.42c1.78-4.62-0.13-9.45-2.52-13.74
		c-1.78-3.19-5.06-3.53-8.19-3.93c-4.98-0.63-9.97-1.38-14.98-1.6c-3.36-0.15-6.75,0.6-10.14,0.79c-2.63,0.14-5.28,0.03-8.07,0.03
		c-1.66-1.57-3.83-2.91-2.8-6.29c1.16-0.22,2.48-0.7,3.79-0.69c8.96,0.06,17.94,0.01,26.89,0.4c10.98,0.48,18.02,6.54,21.63,16.66
		c2.59,7.25,2.32,14.01-2.44,20.79c-5.13,7.29-10.94,13.47-18.74,17.83c-9.81,5.49-19.38,11.41-29.32,16.65
		c-6.56,3.46-13.75,5.73-20.35,9.12c-14.62,7.49-29.05,15.37-43.57,23.05c-5.92,3.13-11.89,6.17-17.83,9.26
		c-1.05,0.55-2.07,1.16-3.11,1.75c0.1,0.26,0.2,0.52,0.31,0.78c2.04-0.46,4.09-0.85,6.1-1.4c16.33-4.45,32.61-9.1,49-13.35
		c12.94-3.36,25.94-6.61,39.05-9.24c15.45-3.1,31-5.78,46.84-5.94c11.31-0.12,22.15,1.82,32.01,7.74c6.11,3.67,11.4,8.23,13.4,15.32
		c1.11,3.94,2.02,8.27,1.54,12.25c-0.99,8.24-2.53,16.49-4.71,24.49c-1.3,4.79-4.11,9.2-6.49,13.65
		c-4.88,9.11-9.59,18.33-15.01,27.11c-4.7,7.61-10.3,14.66-15.49,21.98c-0.71,1.01-1.33,2.08-2,3.12c0.2,0.23,0.4,0.45,0.6,0.68
		c0.99-0.77,2.06-1.46,2.96-2.33c14-13.37,28.82-25.79,44.01-37.78c8.86-6.99,18.16-13.28,28.55-17.79
		c13.09-5.68,26.6-7.73,40.98-6.52c20.19,1.7,37.82,9.73,54.5,20.23c7.98,5.02,15.1,11.39,22.59,17.17
		c15.43,11.9,30.08,24.7,43.76,38.58c3.81,3.86,7.11,8.21,10.66,12.33c0.63,0.73,1.32,1.41,1.98,2.12c0.29-0.14,0.57-0.28,0.86-0.41
		c-0.9-2.49-1.63-5.06-2.74-7.46c-4.45-9.63-9.4-19.05-13.42-28.86c-2.95-7.2-5.23-14.72-5.65-22.7
		c-0.54-10.21,4.36-17.63,12.02-23.18c14.02-10.17,29.92-16.25,46.88-19.52c11.4-2.2,22.81-4.37,34.27-6.19
		c5.34-0.85,10.81-0.87,16.22-1.25c1.36-0.1,2.73-0.16,4.26-0.25c7.98-19.61,18.17-37.89,27.93-56.18c4.86,0.16,6.87,3.09,4.98,7.03
		c-2.84,5.92-5.96,11.71-8.9,17.59c-3.39,6.77-6.73,13.58-10.08,20.37c-1.17,2.38-2.38,4.75-3.47,7.17
		c-0.48,1.06-0.69,2.24-1.26,4.2c7.53,0,14.33-0.35,21.08,0.07c15.5,0.95,31.03,1.59,46.36,4.65c11.13,2.22,22.43,3.59,33.63,5.47
		c13.31,2.24,26.58,4.65,39.89,6.9c3.81,0.64,7.66,1,11.75,0.95c-0.7-0.62-1.37-1.27-2.1-1.84c-6.86-5.37-14.18-10.24-20.49-16.18
		c-11.59-10.91-21.35-23.3-26.42-38.74c-3.91-11.91-3.68-23.84,0.27-35.71c3.79-11.39,9.68-21.63,16.92-31.16
		c3.97-5.22,7.35-10.93,11.58-15.92c6.44-7.6,13.23-14.94,20.19-22.08c5.37-5.52,11.24-10.55,16.87-15.82
		c0.42-0.39,0.72-0.92,1.39-1.79c-3.58,0-6.66,0.07-9.73-0.01c-6.93-0.19-13.88-0.25-20.79-0.8c-3.21-0.26-6.42-1.28-9.48-2.39
		c-10.37-3.79-20.09-8.95-28.87-15.62c-6.13-4.66-11.63-10.06-15.63-16.85c-8.96-15.19-13.49-31.45-12.31-49.13
		c0.23-3.47,1.11-6.9,1.22-10.74c-1.48,1.9-2.79,3.97-4.48,5.68c-5.58,5.64-11.18,11.26-16.97,16.67
		c-5.81,5.42-11.88,10.58-17.82,15.86c-6.35,5.64-13.82,9.23-21.75,11.98c-8.59,2.98-17.09,6.24-25.78,8.86
		c-8.07,2.43-16.17,4.7-24.81,4.88c-9.33,0.19-18.63,1.4-27.94,2.19c-20.57,1.74-41.15,2.01-61.74,0.34
		c-12.85-1.05-25.69-2.17-38.54-3.18c-2.59-0.2-3.87-1.46-4.29-3.92c-0.24-1.43-0.68-2.82-1.13-4.62
		c-4.67,1.84-8.95,3.35-13.07,5.19c-5.19,2.32-10.3,4.82-15.36,7.42c-12.36,6.34-25.55,8.31-39.29,7.88
		c-11.37-0.36-22.75-0.41-34.13-0.5c-1.57-0.01-3.14,0.54-4.4,0.77c-3.71,8.45-10.54,12.86-17.37,17.54
		c-6.44,4.42-14.02,6.42-20.37,11.26c-5.16,3.93-12.06,5.86-18.26,4.62c-3.01,0.52-5.22,0.9-7.42,1.28c-4.57,0.8-9.1,1.99-13.7,2.3
		c-5.37,0.36-10.8,0.12-16.18-0.21c-3.91-0.24-5.73-2.75-5.33-6.99c1.12-0.1,2.34-0.38,3.52-0.28c9.32,0.76,18.37-1.07,27.43-2.84
		c1.24-0.24,2.47-0.61,3.72-0.69c14.03-0.91,25.95-7.17,37.16-14.95c4.95-3.44,9.6-7.38,14.01-11.5c2.52-2.36,4.29-5.53,6.36-8.37
		c0.72-0.98,1.31-2.05,2.28-3.59c1.58,1.74,2.8,3.08,4.36,4.8c3.14,0,6.66-0.06,10.17,0.01c10.23,0.21,20.49,0.17,30.69,0.84
		c6.61,0.43,12.7-1.56,19.04-2.41c5.79-0.78,10.62-3.78,16.27-5.45c0.64-0.76,1.45-1.71,2.55-3.02c9.91-4.67,20.19-9.5,30.44-14.4
		c0.86-0.41,1.49-1.32,2.17-2.06c4.31-4.7,8.6-9.41,13.38-14.64c0.33,0,1.57,0,2.99,0c1.03,1.48,2.09,3,2.91,4.18
		c-3.58,8.78-6.96,17.1-10.32,25.34c0.76,0.52,1.05,0.88,1.37,0.91c9.29,0.77,18.57,1.66,27.87,2.19
		c9.44,0.53,18.91,1.15,28.34,0.88c15.01-0.42,30.01-1.51,45.01-2.35c7.04-0.4,14.07-0.81,21.1-1.36c2.37-0.18,4.74-0.64,7.04-1.25
		c4.33-1.16,8.54-2.76,12.9-3.75c9-2.04,16.84-7.07,25.85-9.38c7.28-1.87,14.15-5.9,19.86-11.39c4.43-4.26,9.34-8.01,13.91-12.12
		c2.52-2.27,4.71-4.91,7.19-7.24c4.41-4.13,9.08-8,13.38-12.25c8.11-8.02,13.13-17.8,15.88-28.84c0.85-3.41,2.22-6.68,3.31-9.86
		c2.54-1.32,3.76-0.16,4.73,1.89c-0.78,6.09-1.95,12.07-4.64,17.8c-2.29,4.89-4.36,9.99-5.64,15.22
		c-2.47,10.07-4.52,20.35-2.79,30.75c2.56,15.45,7.57,30.17,19.66,40.77c14.57,12.78,31,22.19,51.35,22.01
		c9.87-0.08,19.67-0.25,29.23-3.36c4.21-1.37,7.77-3.48,11.03-6.37c4.25-3.77,8.58-7.45,12.93-11.12
		C932.05,674.3,932.95,674.07,934.66,673.25z"/>
	<path d="M1027.67,643.69c3.94,1.66,7.18,2.68,10.08,4.31c6.99,3.93,14.71,4.48,22.36,4.91c9.99,0.56,19.95-0.29,29.73-2.62
		c1.69-0.4,3.31-1.16,4.88-1.93c3.35-1.64,6.64-3.39,9.85-5.04c1.64,1.06,2.78,1.79,3.85,2.49c0,1.56,0,2.92,0,4.09
		c-3.49,2.45-6.56,5.19-10.13,6.92c-2.74,1.33-6.08,1.62-9.2,1.94c-7.02,0.71-14.07,1.15-21.11,1.71c-0.72,0.06-1.43,0.16-3.15,0.37
		c1.79,1.53,2.95,2.56,4.15,3.53c5.41,4.35,11.34,8.19,16.14,13.13c10.67,10.99,20.78,22.69,24.6,38.01
		c3.63,14.56,2.16,28.34-9.15,39.7c-4.35,4.37-8.27,9.19-12.78,13.37c-6.4,5.92-13.46,11.01-21.52,14.52
		c-7.75,3.37-15.38,7.11-23.35,9.87c-6.98,2.42-14.28,4.14-21.57,5.43c-10.79,1.91-21.69,3.16-32.54,4.71
		c-1.31,0.19-2.6,0.56-3.9,0.84c0.02,0.27,0.04,0.54,0.07,0.81c5.23,0.45,10.45,1.03,15.69,1.33c15.64,0.89,31.25,2.07,46.67,5.03
		c14.77,2.83,29.24,6.69,43.53,11.43c10.94,3.63,21.74,7.49,31.95,12.83c5.93,3.1,11.85,6.34,17.33,10.14
		c10.87,7.54,18.66,17.71,23.45,30.05c1.31,3.36,0.87,6.84-0.25,10.36c-3.73,11.68-9.36,22.39-16.67,32.13
		c-4.38,5.83-9.78,10.78-15.9,15c-4.74,3.27-8.82,7.5-13.25,11.24c-2.19,1.85-4.5,3.56-6.76,5.34c-0.5,0.39-1.05,0.72-1.49,1.16
		c-6.56,6.65-14.1,12.07-21.81,17.28c-0.29,0.19-0.44,0.58-0.41,1.43c2.68-1.11,5.35-2.26,8.05-3.32
		c17.86-7.01,35.56-14.48,53.67-20.81c9.57-3.34,19.76-5.22,29.83-6.78c14.08-2.18,28.26-3.82,42.46-5.01
		c12.99-1.09,26.1-1.11,38.98,1.04c9.28,1.55,17.48,5.75,23.24,13.7c0.79,1.1,1.73,2.09,3.11,3.75c7.73-13.67,17.6-25.02,28.2-35.84
		c10.54-10.76,21.72-20.67,35.72-28.66c-26.47-14.81-52.62-27.44-82.38-32.13c-1.86-2.02-4.02-4.21-3.05-7.9
		c0.87-0.12,1.51-0.37,2.07-0.26c16.1,3.24,32.04,6.89,46.88,14.36c14.33,7.22,28.82,14.12,43.24,21.16
		c0.45,0.22,0.94,0.36,1.58,0.59c6.87-2.94,13.78-6.02,20.78-8.88c16.75-6.84,33.97-11.58,52.28-10.28
		c6.02,0.43,11.98,1.72,17.97,2.61c2.06,0.3,4.12,0.56,6.19,0.84c0.13-0.34,0.25-0.68,0.38-1.03c-2.24-1.32-4.42-2.76-6.74-3.94
		c-14.05-7.17-26.3-16.74-37.8-27.46c-9.1-8.49-17.21-17.78-24.23-28c-6.61-9.63-10.11-20.51-12.61-31.85
		c-2.38-10.82-0.45-20.46,6.1-29.37c8.08-10.98,18.57-18.64,31.14-23.7c7.97-3.21,15.89-6.42,24.49-7.69
		c2.63-0.39,5.1-1.89,7.53-3.57c-5.6-0.32-11.19-0.72-16.79-0.94c-6.04-0.23-12.09-0.14-18.13-0.45c-5.25-0.26-10.47-1-15.72-1.31
		c-7.03-0.41-14.09-0.38-21.11-0.97c-7.02-0.59-14.02-1.53-20.98-2.65c-12.68-2.03-25.37-4.06-37.95-6.59
		c-5.37-1.08-10.51-3.32-15.7-5.2c-2.6-0.94-5.19-2.04-7.56-3.44c-10.26-6.1-19.65-13.3-26.31-23.4
		c-5.23-7.93-5.55-16.57-2.62-25.45c2.54-7.7,7.39-13.61,13.64-18.69c7.35-5.96,14.32-12.38,21.53-18.51
		c1.62-1.38,3.56-2.37,5.29-3.64c0.63-0.46,1.04-1.21,1.56-1.83c-0.16-0.26-0.32-0.53-0.48-0.79c-2.45,0.99-4.93,1.89-7.33,2.99
		c-4.24,1.96-8.36,4.19-12.65,6.05c-11.2,4.87-22.45,9.63-33.71,14.38c-2.56,1.08-5.21,1.94-7.93,2.55c-2.14,1.01-4.2,2.28-6.44,3
		c-8.35,2.69-16.65,5.65-25.17,7.66c-11.88,2.8-23.94,4.81-35.92,7.19c-6.69,1.33-13.36,2.78-20.06,4.05
		c-2.82,0.53-5.7,0.73-8.96,1.13c-0.33-1.67-0.58-2.93-0.83-4.19c0.81-0.52,1.29-1.04,1.85-1.16c5.88-1.3,11.46-3.92,17.66-3.8
		c1.47,0.03,2.95-0.53,4.43-0.79c6.02-1.04,12.05-2.06,18.08-3.11c3.22-0.56,6.45-1.07,9.63-1.81c6.49-1.51,12.98-3.05,19.41-4.79
		c5.08-1.37,10.12-2.93,15.11-4.6c6.34-2.12,12.62-4.41,18.92-6.67c1.85-0.66,3.66-1.46,5.48-2.21c5.43-2.23,10.84-4.48,16.27-6.69
		c5.35-2.18,10.76-4.23,16.06-6.51c2.96-1.27,5.76-2.91,8.63-4.38c0.14,0.21,0.28,0.42,0.42,0.64c0.81-0.97,1.62-1.94,2.21-2.64
		c3.29-0.87,6.19-1.64,9.35-2.48c0.65-0.6,1.47-1.37,2.31-2.15c7.67-0.21,13.07-5.32,19.74-9.32c1.14,1.81,2.2,3.49,3.48,5.52
		c-3.68,2.21-7.04,3.94-10.1,6.11c-6.27,4.45-12.53,8.93-18.5,13.76c-8.03,6.5-15.93,13.19-23.61,20.1
		c-4.09,3.68-8.26,7.37-11.03,12.34c-3.03,5.42-4.79,11.11-4.84,17.3c-0.04,4.38,1.67,8.06,4.58,11.31
		c11.36,12.71,25.52,20.51,42.14,23.84c9.53,1.91,19.23,3.07,28.69,5.23c14.61,3.34,29.49,4.05,44.3,5.4
		c7.67,0.7,15.4,0.84,23.1,1.15c13.77,0.55,27.53,1.13,41.31,1.5c7.96,0.21,15.92,0.04,23.89,0.04c3.26,2.91,3.53,3.96,1.99,8.55
		c-4.54,1.2-9.31,2.35-14,3.73c-9.19,2.7-18.33,5.58-27.51,8.31c-12.25,3.65-24.09,8.1-34.58,15.72
		c-8.58,6.24-14.12,14.74-18.37,24.11c-1.2,2.64-0.87,6.2-0.55,9.27c1.3,12.5,6.3,23.5,13.72,33.62
		c7.76,10.61,16.99,19.77,27.12,27.96c8.22,6.65,16.85,12.87,25.78,18.53c5.7,3.62,12.18,6.07,18.47,8.67
		c5,2.07,10.26,3.52,15.38,5.31c4.33,1.51,5.15,2.78,5.2,7.87c-0.64,0.8-1.42,1.77-2.66,3.32c-6.7-0.48-13.74-0.81-20.74-1.53
		c-9.77-1-19.49-2.63-29.28-3.3c-5.73-0.39-11.61,0.16-17.31,1.01c-6.59,0.98-13.15,2.41-19.55,4.28
		c-8.94,2.61-17.71,5.82-26.43,10.72c0.94,1.03,1.57,2.09,2.5,2.69c14.57,9.33,29.35,18.34,43.71,27.96
		c14.11,9.45,26.89,20.49,37.61,33.83c6.01,7.48,12.56,14.52,18.78,21.83c7.78,9.15,15.38,18.52,21.08,29.11
		c9.16,17.02,17.83,34.3,26.67,51.48c2.89,5.62,6.18,11.1,8.38,16.98c3.09,8.25,5.4,16.8,7.86,25.27c0.47,1.61,0.07,3.47,0.07,5.21
		c-2.83,1.82-4.62,0.13-6.21-1.14c-1.13-4.88-2.24-9.4-3.22-13.94c-1.74-8.11-5.21-15.5-8.93-22.84
		c-6.63-13.08-12.68-26.46-19.57-39.39c-5.93-11.13-12.06-22.27-19.29-32.57c-6.79-9.67-15.12-18.26-22.81-27.3
		c-4.83-5.67-9.45-11.55-14.65-16.86c-5.28-5.39-10.72-10.82-16.86-15.15c-12.88-9.08-26.28-17.43-39.44-26.12
		c-6.11-4.04-12.15-8.19-18.28-12.21c-1.88-1.24-3.93-2.21-5.82-3.26c-7.89,2.78-14.72,7.08-20.66,12.26
		c-9.98,8.71-19.43,18.06-28.77,27.47c-7.57,7.64-13.36,16.74-18.97,25.88c-1.41,2.29-1.92,5.14-2.81,7.75
		c-0.77,2.27-1.27,4.66-2.28,6.81c-3.37,7.19-6.93,14.28-10.38,21.43c-1.42,2.93-3.47,4.61-7.12,3.78c-2.51-2.32-3.68-5.1-2.11-8.65
		c3.42-7.72,6.79-15.47,10.2-23.2c0.15-0.34,0.35-0.68,0.58-0.98c5.55-7.5,0.53-14.76-4.85-18.88c-5.73-4.39-12.49-5.85-19.55-6.34
		c-19.01-1.3-37.86,0.57-56.74,2.37c-13,1.24-25.6,4.44-38.24,7.28c-8.68,1.95-17.04,5.44-25.42,8.58
		c-9.82,3.68-19.61,7.48-29.21,11.68c-11,4.8-21.85,9.96-32.63,15.23c-7.71,3.77-15.24,7.9-22.76,12.03
		c-6.08,3.33-11.99,6.96-18.07,10.29c-1.8,0.98-3.92,1.38-5.74,2c-1.76-1.91-4.51-2.38-3.49-6.05c8.64-5.77,17.7-11.95,26.87-17.93
		c16.83-10.97,33.55-22.14,48.94-35.03c13.15-11.01,27.21-21.04,38.71-33.93c6.37-7.14,10.68-15.62,14.95-24.08
		c1.48-2.92,2.72-5.98,3.83-9.06c1.63-4.5,1.17-8.83-1.07-13.16c-5.63-10.89-13.57-19.5-24.57-24.96
		c-9.27-4.6-18.56-9.32-28.23-12.93c-17.15-6.4-34.75-11.32-52.8-14.71c-14.57-2.74-29.18-4.4-43.99-4.84
		c-9.83-0.29-19.64-1.49-29.48-1.79c-6.53-0.19-13.08,0.54-19.63,0.78c-2.86,0.11-5.73,0.02-8.32,0.02c-1.77-2.52-3.95-4.1-3.3-6.96
		c4.98-0.95,9.79-1.8,14.57-2.79c11.86-2.46,23.67-5.15,35.57-7.43c6.68-1.28,13.53-1.68,20.23-2.9
		c18.12-3.31,35.68-8.53,51.52-18.16c6.42-3.9,12.31-8.8,17.99-13.75c4.74-4.13,9.07-8.8,13.17-13.59
		c4.52-5.27,7.29-11.41,7.84-18.52c0.83-10.88-2.72-20.45-8.49-29.33c-7.73-11.89-17.3-22.04-29.51-29.45
		c-5.39-3.27-10.9-6.4-16.59-9.11c-3.25-1.55-6.99-2.06-10.48-3.14c-4.65-1.45-9.22-3.12-11.17-8.2
		C1028.13,647.37,1028.08,645.9,1027.67,643.69z"/>
	<path d="M1197.58,1076.55c0.86,1.94,1.72,3.88,2.91,6.56c0.62,0.21,2.09,0.54,3.41,1.18c2.13,1.02,4.42,1.94,6.17,3.46
		c3.26,2.82,3.43,6.18,0.47,9.25c-7.8,8.11-14.24,17.26-20.98,26.22c-4.88,6.48-9.21,13.29-13.89,19.89
		c-7.64,10.78-15.56,21.35-23.21,32.12c-4.66,6.56-8.95,13.37-13.57,19.96c-4.26,6.09-8.82,11.96-13.08,18.05
		c-5.47,7.82-10.66,15.85-16.17,23.64c-4.51,6.37-9.43,12.45-13.95,18.81c-6.64,9.34-13.09,18.83-19.63,28.25
		c-7.48,10.78-14.93,21.59-22.46,32.34c-8.47,12.07-17.11,24.01-25.49,36.14c-3.01,4.35-5.45,9.09-8.18,13.64
		c-2.69,4.49-5.31,5.25-11.03,2.81c0.3-1.38,0.32-3.04,1.01-4.36c4.24-8.04,8.53-16.05,13-23.97c3.65-6.47,7.54-12.81,11.36-19.18
		c5.65-9.41,11.24-18.86,17.03-28.18c6.06-9.75,12.42-19.31,18.45-29.08c3.24-5.26,5.78-10.96,9.12-16.15
		c5.59-8.69,11.59-17.12,17.36-25.7c5.28-7.84,10.45-15.76,15.73-23.61c4.29-6.38,8.77-12.63,13-19.05
		c5.55-8.41,10.97-16.92,16.38-25.42c4.33-6.8,8.35-13.81,12.9-20.46c7.11-10.39,14.58-20.53,21.85-30.8
		c2.25-3.18,4.35-6.47,6.53-9.71c2.9-4.29,5.68-8.67,8.77-12.81c1.21-1.62,3.14-2.72,4.74-4.05
		C1196.62,1076.4,1197.1,1076.48,1197.58,1076.55z M1197.33,1086.41c-2.16,2.13-4.7,3.83-6.13,6.2
		c-4.52,7.53-10.52,13.94-15.44,21.13c-7.31,10.68-14.14,21.69-21.09,32.62c-1.19,1.87-1.69,4.16-2.88,6.03
		c-2.99,4.71-6.32,9.2-9.27,13.93c-1.72,2.77-2.83,5.91-4.46,8.74c-0.98,1.71-2.58,3.05-3.66,4.71c-1.85,2.85-3.39,5.9-5.28,8.71
		c-6.96,10.31-13.99,20.58-21.04,30.83c-1.78,2.58-3.8,5-5.56,7.58c-4.05,5.92-8.1,11.84-11.98,17.87
		c-3.07,4.78-5.88,9.72-8.8,14.59c0.34,0.22,0.69,0.44,1.03,0.66c6.64-9.17,13.33-18.31,19.9-27.53
		c4.17-5.85,8.05-11.91,12.24-17.74c3.97-5.52,8.31-10.77,12.27-16.3c10.43-14.55,20.73-29.18,31.09-43.78
		c8.38-11.81,16.68-23.68,25.17-35.42c5.32-7.35,10.9-14.51,16.37-21.75c1.7-2.26,3.42-4.5,5.29-6.95
		C1202.43,1089.12,1200.22,1087.95,1197.33,1086.41z"/>
	<path d="M198.27,1182.28c1.2,1.95,2.86,3.77,3.52,5.89c1.53,4.92,2.2,10.12,3.93,14.96c2.24,6.27,5.24,12.26,7.79,18.43
		c2.16,5.24,4.72,10.41,6.03,15.86c1.33,5.56,3.53,10.66,6.62,15.18c9.03,13.18,16.51,27.2,24.25,41.12
		c3.96,7.12,9.05,13.74,14.36,19.97c11.64,13.62,23.48,27.1,35.77,40.13c6.3,6.68,13.57,12.48,20.71,18.3
		c8.72,7.1,17.37,14.4,26.77,20.5c8.54,5.54,17.86,9.99,27.16,14.21c9.87,4.48,20.04,8.34,30.23,12.05
		c6.5,2.37,13.26,4.06,19.95,5.89c8.88,2.43,17.76,4.89,26.73,6.96c6.76,1.56,13.62,2.77,20.48,3.74
		c14.75,2.08,29.52,4.16,44.33,5.76c8.79,0.95,17.67,1.23,26.51,1.38c19.97,0.34,39.95,0.65,59.92,0.51
		c19.19-0.13,38.39-0.7,57.57-1.43c4.33-0.16,6.81,1.91,9.6,4.89c-0.28,1.26-0.59,2.67-0.95,4.32c-7.6,0-14.91-0.08-22.21,0.02
		c-6.18,0.08-12.36,0.47-18.54,0.53c-3.02,0.03-6.04-0.51-9.06-0.51c-9.98,0-19.95,0.22-29.93,0.19
		c-16.03-0.05-32.07,0.22-48.07-0.51c-13.73-0.62-27.43-2.27-41.1-3.81c-10.78-1.21-21.53-2.71-32.22-4.54
		c-7.46-1.28-14.84-3.12-22.15-5.11c-12.05-3.27-24.15-6.46-35.97-10.42c-19.67-6.6-38.73-14.74-56.86-24.87
		c-4.39-2.45-8.5-5.45-12.49-8.53c-10.27-7.93-20.76-15.63-30.49-24.19c-9.66-8.5-18.85-17.6-27.58-27.05
		c-8.81-9.54-16.72-19.91-25.17-29.78c-10.21-11.92-17.11-25.86-24.69-39.41c-4-7.15-8.66-13.92-12.91-20.93
		c-2.89-4.76-5.06-9.8-6.6-15.23c-1.67-5.91-4.1-11.66-6.69-17.26c-3.67-7.95-6.78-16.05-8.5-24.65c-0.52-2.6-1.36-5.15-1.75-7.76
		c-0.21-1.44,0.2-2.97,0.33-4.45C197.34,1182.51,197.81,1182.4,198.27,1182.28z"/>
	<path d="M1389.41,1414c-0.08,0.45-0.25,1.41-0.42,2.39c-4.6,2.05-8.58,5.6-14.12,4.23c-6.26-1.55-11.83-3.9-15.34-9.92
		c-3.44-5.89-6.34-11.95-5.88-18.84c0.27-4.07,1.36-8.25,2.93-12.03c3.81-9.17,9.41-17.26,16.47-24.28c1.7-1.69,3.45-3.32,5.15-5.01
		c1-1,2.08-2.04,0.1-3.9c-7.06,1.07-14.61,1.71-21.87,3.5c-4.66,1.15-9.18,3.55-13.28,6.16c-8.05,5.13-16.19,10.28-22.41,17.73
		c-3.62,4.34-7.02,8.88-10.34,13.45c-2.89,3.97-5.66,8.05-8.25,12.22c-1.57,2.53-2.7,5.33-4.16,8.28c-0.95-0.23-2.25-0.55-3.44-0.84
		c-2.51-2.71-2.48-5.51-0.99-8.52c7.95-16.04,18.56-29.93,32.29-41.55c6.94-5.88,14.33-10.75,22.85-13.76
		c12.25-4.33,24.75-5.98,37.47-2c2.34,0.73,4.17-0.13,6.02-1.33c7.57-4.89,15.46-9.23,24.31-11.16c11.52-2.5,23.19-3.29,34.99-1.86
		c12.67,1.54,23.56,7.14,33.94,14.08c1.57,1.05,3.13,2.19,4.85,2.93c3.87,1.68,4.83,5.12,5.94,8.51c-1.91,2.2-3.51,1.22-5.21,0.22
		c-6.41-3.77-12.71-7.77-19.32-11.17c-11.28-5.79-23.38-7.67-35.91-5.89c-7.46,1.06-14.92,2.38-22.22,4.19
		c-3.85,0.95-7.41,3.14-11.03,4.93c-1.16,0.57-2.07,1.64-2.94,2.35c2.29,3.71,4.46,6.93,6.33,10.31c4.07,7.36,4.02,15.24,2.35,23.18
		c-1.81,8.62-5.04,16.71-9.95,24.05c-1.8,2.69-3.81,5.26-5.89,7.75C1391.83,1413.11,1390.66,1413.36,1389.41,1414z M1393.32,1351.71
		c-0.99,0.44-2.37,0.69-3.23,1.49c-6.16,5.73-12.94,11.01-18.14,17.53c-7.06,8.84-12.18,18.88-10.95,30.95
		c0.54,5.27,3.06,8.92,7.87,11.02c4.56,2,9.25,1.19,12.87-2.43c2.76-2.76,5.24-5.8,7.97-8.59c10.19-10.4,13.12-23.27,12.46-37.21
		C1401.92,1358.89,1400.34,1353.64,1393.32,1351.71z"/>
	<path d="M1881.45,1186.16c-0.54,1.43-0.82,3.05-1.68,4.26c-5.62,7.9-11.32,15.74-17.09,23.54c-5,6.77-9.97,13.56-15.21,20.14
		c-8.77,11.02-17.76,21.85-26.61,32.81c-4.98,6.17-9.84,12.44-14.82,18.61c-4.75,5.87-9.55,11.7-14.41,17.49
		c-5.91,7.05-11.93,14.01-17.85,21.05c-7.06,8.4-14.07,16.84-21.11,25.25c-7.6,9.07-15.33,18.04-22.81,27.22
		c-6.36,7.79-12.35,15.89-18.68,23.7c-4.68,5.78-9.6,11.37-14.51,16.96c-4.99,5.68-10.27,11.12-15.1,16.93
		c-3.12,3.75-5.58,8.05-8.47,12c-4.75,6.49-9.64,12.88-14.42,19.35c-3.06,4.14-6.1,8.31-9.03,12.55
		c-7.72,11.21-14.83,22.83-23.54,33.38c-4.71,5.71-8.66,12.04-13.03,18.04c-1.83,2.52-3.85,4.91-5.49,6.98
		c-5.66,0.25-5.86,0.14-6.22-2.21c4.19-6.05,7.87-11.6,11.8-16.96c2.75-3.75,6.01-7.12,8.74-10.88c6.21-8.55,12.3-17.18,18.32-25.86
		c7.9-11.38,15.47-23,23.61-34.2c5.75-7.92,12.16-15.38,18.36-22.97c7.15-8.77,14.41-17.45,21.59-26.2
		c4.47-5.45,8.89-10.96,13.3-16.46c4.01-5,7.92-10.09,11.98-15.06c5.72-7,11.48-13.98,17.33-20.88
		c5.37-6.34,11.05-12.42,16.27-18.87c4.58-5.67,8.52-11.86,13.11-17.52c4.21-5.19,9.05-9.86,13.37-14.95
		c7.83-9.22,15.5-18.59,23.22-27.9c6.04-7.28,12.1-14.54,18.1-21.85c3.59-4.38,7.07-8.86,10.63-13.26
		c4.44-5.48,8.87-10.98,13.4-16.38c7.12-8.49,14.3-16.93,21.54-25.32c1.16-1.35,2.78-2.31,4.19-3.44
		C1880.65,1185.54,1881.05,1185.85,1881.45,1186.16z"/>
	<path d="M1674.77,779.42c0-2.19,0.07-4.2-0.01-6.2c-0.4-9.34,2.93-17.55,8.84-24.36c8.15-9.39,18.26-16.48,30.29-19.95
		c9.18-2.65,18.65-4.34,28.04-6.18c5.29-1.04,10.15,1.77,12.38,6.64c-0.57,0.55-1.19,1.13-1.86,1.77
		c-5.22-1.59-10.04,0.24-14.9,1.46c-6.96,1.74-14,3.31-20.78,5.61c-4.6,1.56-9.13,3.78-13.15,6.5c-6.79,4.58-13.2,9.71-17.61,16.89
		c-2.97,4.84-4.58,9.97-4.21,15.94c1.11-0.11,2.13-0.03,3.03-0.34c10.66-3.69,21.43-2.92,32.15-0.57c3.62,0.79,6.87,2.81,8.44,6.42
		c1.2,2.75,2.61,5.68,2.7,8.57c0.19,5.69-3.04,9.94-7.62,13.05c-2.39,1.63-5.18,2.67-7.49,4.39c-4.08,3.04-8.89,3.26-13.58,4.04
		c-0.73,0.12-1.59,0.1-2.25-0.18c-6.3-2.69-12.63-5.4-15.73-12.2c-1.46-3.19-2.83-6.43-4.48-10.18c-1.86,0.56-3.78,0.97-5.57,1.71
		c-7.47,3.12-13.35,8.59-19.47,13.63c-8.62,7.09-15.2,15.96-19.92,25.98c-3.51,7.46-5.38,15.49-3.5,23.93
		c0.41,1.84,1.34,4.01-1.47,5.46c-3.82-2.95-7.3-6.05-6.99-11.58c0.21-3.78,0.2-7.58,0.55-11.35c0.77-8.18,5.19-14.92,8.86-21.97
		c4.32-8.28,10.89-14.44,18.19-19.99c4.91-3.73,9.7-7.64,14.76-11.17c2.45-1.71,5.36-2.75,8.1-4.04
		C1671.86,780.53,1673.27,780.03,1674.77,779.42z M1682.96,789.03c0.27,1.42,0.42,2.66,0.76,3.86c2.44,8.64,9.14,12.79,17.23,10.13
		c6.23-2.05,12.09-5.07,17.1-9.47c1.72-1.51,3.15-3.23,3.19-5.65C1713.59,782.72,1692.12,783.67,1682.96,789.03z"/>
	<path d="M877.31,1459.4c-0.99,0-1.72-0.22-2.21,0.03c-8.23,4.35-16.55,8.55-24.58,13.26c-3.98,2.33-7.4,5.62-11.07,8.47
		c-0.2,0.15-0.47,0.31-0.54,0.52c-1.59,5.41-7.85,7.8-8.8,13.68c-0.15,0.93-1.39,1.68-2.23,2.63c0.15,6.04-4.22,10.32-6.23,15.54
		c-0.69,2.63-1.42,5.24-2.06,7.88c-0.59,2.44-1.48,4.89-1.54,7.36c-0.15,6.81-0.02,13.63,0.21,20.44c0.05,1.55,0.77,3.19,1.54,4.58
		c2.43,4.4,4.36,9.11,8.2,12.64c0.84,0.78,0.92,2.39,1.42,3.83c-4.82,0.91-7.91-0.58-10.52-4.13c-4.18-5.69-7.58-11.84-8.83-18.68
		c-1.01-5.5-0.98-11.33-0.51-16.93c1.03-12.22,4.8-23.92,10.62-34.52c5.55-10.1,12.21-19.69,21.4-27.22
		c9.57-7.84,20.59-12.54,32.13-16.37c1.18-0.39,2.34-0.84,3.68-1.33c0.55-2.57,0.81-5.11,1.63-7.44
		c2.94-8.31,7.49-15.64,13.48-22.17c10.64-11.59,23.96-18.22,38.97-22.03c8.13-2.06,16.29-3.65,24.62-1.66
		c9.45,2.26,16.67,7.56,21.04,16.42c0.2,0.41,0.23,0.91-0.27,1.93c-2.22-1.79-4.84-3.26-6.58-5.44c-3.73-4.67-8.83-6.39-14.27-6.85
		c-7.98-0.68-15.83,0.49-23.51,2.93c-7.88,2.5-15.32,5.86-22.08,10.59c-10.93,7.65-18.97,17.56-23.67,30.82c1.56,0,2.81,0.18,4-0.03
		c10.54-1.86,20.62-0.51,30.22,4.21c4.55,2.24,8.31,5.56,10.3,10.2c1.45,3.37,1.89,7.16,2.61,10.09
		c-7.22,10.68-25.3,13.33-32.91,10.99C888.4,1479.75,880.44,1472.06,877.31,1459.4z M905.27,1452.77
		c-5.22,0.78-10.46,1.46-15.65,2.38c-2.01,0.35-3.97,1.2-4.08,3.78c-0.3,6.77,2.11,12.86,7.31,16.72
		c9.38,6.95,18.97,6.07,28.48,0.64c5.11-2.92,6.4-8.29,3.52-13.41c-0.98-1.74-2.25-3.38-3.67-4.78
		C916.78,1453.75,911.1,1453.29,905.27,1452.77z"/>
	<path d="M1503.38,632.94c-1.63-5.25-2.44-10.54-0.56-16.04c0.98-2.86,1.87-5.76,2.67-8.68c1.81-6.57,5.29-12.25,9.2-17.73
		c6.53-9.15,15.02-15.55,25.93-18.58c1.07-0.3,2.08-0.79,3.16-1.21c0.82-2.97,1.53-5.78,2.37-8.54c2.76-9.05,7.66-16.93,13.05-24.63
		c4.93-7.05,10.91-12.96,17.97-17.68c4.16-2.79,8.8-4.95,13.41-6.96c15.91-6.96,32.56-7.26,49.45-5.06
		c3.46,0.45,6.34,1.81,7.99,5.01c0.56,1.08,0.61,2.41,1.07,4.42c-2.53-0.33-4.22-0.57-5.9-0.77c-6.99-0.86-14-2.49-20.98-2.39
		c-14.52,0.19-27.96,4.28-40.03,12.84c-12.66,8.97-21.46,20.82-27.71,34.76c-1.1,2.45-1.57,5.17-2.39,7.99
		c1.72,0.43,2.91,0.8,4.13,1.01c6.8,1.18,12.42,4.54,16.48,9.98c7.28,9.76,11.33,20.82,11.17,33.07c-0.05,3.69-1.21,7.47-2.41,11.02
		c-3.28,9.69-15.6,14.5-24.92,7.26c-9.94-7.72-16.09-18.03-16.53-31.02c-0.2-5.93-0.2-11.89,1.67-17.66
		c0.28-0.88,0.04-1.94,0.04-3.43c-4.92,2.22-9.24,4.37-12.92,7.99c-8.45,8.32-14.16,18.31-18.77,29.06
		c-1.98,4.62-4.63,9.02-4.54,14.32c0.01,0.6-0.71,1.22-1.09,1.83C1504.06,633.05,1503.72,632.99,1503.38,632.94z M1550.72,576.55
		c-0.4,0.85-1.02,1.68-1.18,2.59c-1.09,6.08-2.39,12.15-3.04,18.28c-1.29,12.14,3.82,21.91,12.28,30.1
		c3.49,3.38,7.35,2.96,11.2-0.08c3.69-2.92,4.91-6.96,5.7-11.19c1.84-9.92-1.12-18.89-5.37-27.74
		C1566.39,580.38,1560.19,576.62,1550.72,576.55z"/>
	<path d="M976.41,550.14c5.39,0.54,6.97-3.99,10.99-5.1c-0.44,0.95-0.63,2.21-1.35,2.81c-8.54,7.08-17.15,14.06-25.76,21.05
		c-0.23,0.18-0.63,0.15-1.4-0.29c1.09-1.11,2.07-2.36,3.28-3.31c3.15-2.48,6.46-4.75,9.57-7.26c1.45-1.17,2.7-2.64,3.81-4.14
		c0.38-0.51,0.06-1.54,0.06-2.33c-0.29-0.06-0.58-0.13-0.87-0.19c-4.52,4.27-8.83,8.8-13.62,12.74c-4.67,3.85-10.62,6.16-14.4,11.98
		c1.34-0.08,2.12-0.13,3.12-0.19c-0.29,0.57-0.36,0.98-0.61,1.18c-9.19,7.52-18.63,14.72-29.15,20.3c-4.11,2.18-8.52,3.8-12.88,5.46
		c-1.21,0.46-2.73,0.29-4.09,0.19c-6.86-0.46-15.44-8.07-15.4-16.99c0.05-11.09,4.12-20.37,10.27-29.11
		c0.44-0.62,0.85-1.27,1.3-1.93c2.04,0.98,3.6,1.73,5.29,2.55c0.6,3.27,0.24,6.33-1.43,9.36c-3.98,7.19-6.52,14.82-5.96,23.18
		c0.13,1.92,0.83,3.8,1.27,5.76c5.79-0.73,10.69-2.38,15.01-5.28c7.53-5.06,14.91-10.34,22.27-15.65
		c5.22-3.76,10.43-7.55,15.4-11.64c10.04-8.26,20.03-16.58,29.79-25.15c6.06-5.33,11.62-11.23,17.5-16.77
		c7.07-6.66,14.32-13.13,21.35-19.83c3.65-3.47,6.94-7.32,10.5-10.89c5.89-5.89,11.77-11.79,17.83-17.5
		c9.18-8.67,18.26-17.48,27.86-25.68c6.5-5.55,13.82-10.14,20.79-15.14c1.22-0.88,2.5-1.66,4.31-2.85c1.08,1.36,2.11,2.66,2.94,3.69
		c-6.1,4.13-11.77,7.62-17.04,11.63c-6.25,4.74-12.34,9.74-18.18,14.97c-5.62,5.04-10.51,10.94-16.34,15.69
		c-6.6,5.37-11.55,12.25-17.78,17.92c-7.7,7.01-15.08,14.38-22.51,21.68c-5.5,5.4-10.88,10.91-16.26,16.43
		c-1.11,1.14-1.99,2.51-2.96,3.76C986.5,538.87,982.67,545.36,976.41,550.14z"/>
	<path d="M348.04,1129.75c0.7-1.51,1.16-3.08,2.06-4.36c6.42-9.2,13.05-18.25,19.36-27.52c3.05-4.48,5.38-9.44,8.33-13.99
		c6.66-10.27,13.53-20.4,20.25-30.64c2.84-4.33,5.57-8.73,8.21-13.18c4.31-7.27,8.55-14.59,12.75-21.93
		c3.7-6.47,7.22-13.05,10.94-19.5c3.16-5.48,4.47-11.44,5.22-17.5c-2.34-2.65-5.17-2.23-7.91-1.87c-7.71,1.02-14.41,4.5-20.84,8.64
		c-2.55,1.64-5.24,3.08-8.43,4.94c-0.59-3.42-1.05-6.08-1.61-9.32c3.31-2.33,6.38-4.96,9.85-6.85c5.95-3.25,11.99-6.8,19.15-6.14
		c7.32,0.68,13.28,4.2,17.12,10.47c1.19,1.95,1.37,4.86,1.18,7.27c-0.64,8.11-3.78,15.37-8.13,22.2c-3.18,5-5.9,10.3-9.02,15.34
		c-3.7,5.96-7.62,11.79-11.42,17.69c-2.72,4.22-5.33,8.52-8.12,12.69c-1.18,1.77-2.7,3.32-4.56,4.53c-0.83,2.31-1.66,4.62-2.56,7.11
		c-0.79-0.2-1.46-0.37-2.17-0.55c-0.92,1.16-1.84,2.33-2.86,3.62c0.28,0.72,0.59,1.51,0.94,2.39c-4.5,5.72-6.78,13.08-12.27,16.49
		c-3.58,6.58-6.54,12.23-9.71,17.76c-1.17,2.04-2.96,3.71-4.27,5.68c-3.8,5.74-7.42,11.61-11.28,17.31
		C356.18,1133.58,353.01,1133.37,348.04,1129.75z"/>
	<path d="M118.55,985.91c6.65-1.39,11.07-5.73,15.67-9.86c0.73-0.66,1.75-1,2.64-1.46c3.71-1.92,7.35-3.87,10.15-7.15
		c1.29-1.51,3.04-2.64,4.64-3.87c7.9-6.05,15.81-12.07,23.72-18.09c0.9-0.69,1.75-1.5,2.75-2c4.06-2.03,7.81-4.29,10.92-7.82
		c2.88-3.26,6.54-5.85,9.97-8.58c1.14-0.91,2.63-1.37,4.36-1.69c3.24-4.76,6.65-9.41,9.67-14.31c2.1-3.4,3.87-7.03,5.42-10.72
		c1.75-4.17-0.11-7.17-4.56-8.07c-11.47-2.34-21.7,0.85-31.26,7.01c-0.71,0.46-1.42,0.93-2.56,1.67c-0.27-2.77,0.67-4.64,2.35-5.93
		c3.7-2.84,7.42-5.66,12.26-6.46c1.82-0.3,3.52-1.31,5.63-2.14c3.24,0,6.92-0.26,10.56,0.06c5.5,0.48,10.22,2.93,13.72,7.22
		c2.02,2.48,2.25,5.62,1.27,8.64c-3.41,10.56-9.76,19.3-17.14,27.39c-7.29,7.99-15.64,14.64-24.61,20.67
		c-4.91,3.3-9.14,7.59-13.91,11.13c-9.31,6.91-18.81,13.57-28.18,20.4c-3.36,2.45-6.57,5.1-9.86,7.63
		C126.51,993.93,121.8,993,118.55,985.91z"/>
	<path d="M1272.97,837.33c-0.74-0.51-1.27-0.82-1.73-1.21c-6.42-5.36-13.4-2.3-18.14,2.34c-4.2,4.11-6.44,8.96-7.19,14.61
		c-0.21,1.59-0.27,3.31,0.08,4.86c1.25,5.52,9.73,12.47,15.42,12.99c3.78,0.35,6.96-0.71,9.57-3.48c0.6-0.63,1.29-1.18,2.11-1.91
		c1.39,0.48,2.8,0.97,4.03,1.4c2.55,7.59-1.79,13.58-9.61,13.14c-7.14-0.4-13.65-2.88-18.39-8.48c-3.15-3.72-6.31-7.61-8.5-11.92
		c-4.11-8.04-2.39-15.87,2.21-23.33c2.31-3.74,4.96-6.76,9.2-8.56c8.92-3.77,14.57-2.7,20.98,4.51
		C1274.36,833.84,1274.69,835.3,1272.97,837.33z"/>
	<path d="M755.87,827.57c-0.67-1.34-1.27-2.54-1.96-3.92c0.94-0.47,1.57-0.87,2.25-1.11c7.42-2.71,10.57-8.45,11.3-15.9
		c0.06-0.62,0.14-1.27,0.02-1.87c-1-5.04-9.44-12.07-14.56-12.16c-10.01-0.18-17.9,9.22-16.61,19.77c0.18,1.45,0.26,2.91,0.39,4.41
		c-3.31,1.09-4.64-1.2-6.41-2.59c0.21-4.79-0.4-9.67,0.85-14.01c1.33-4.6,3.99-9.06,8.18-12c3.66-2.58,7.81-3.13,12.29-2.67
		c11.58,1.2,18.48,8.58,22.74,18.27c2.81,6.39,1.43,18.26-6.72,23.43C763.95,829.52,760.08,829.81,755.87,827.57z"/>
	<path d="M1382.09,594.21c1.52,2.68,3.05,5.37,4.73,8.33c3.81,1.3,7.78-0.05,11.68-0.68c7.34-1.17,14.62-2.73,21.92-4.12
		c4.08-0.78,8.17-1.57,12.26-2.29c0.82-0.15,1.69-0.02,3.55-0.02c-2.17,2.23-3.75,3.86-5.34,5.49c0.04,0.24,0.07,0.47,0.11,0.71
		c-11.09,2.65-22.16,5.43-33.3,7.9c-4.79,1.06-9.52,0.65-13.77-2.36c-3.6-2.54-4.74-6.1-4.52-10.21c0.05-0.94,0.87-1.83,1.34-2.74
		C1381.19,594.22,1381.64,594.21,1382.09,594.21z"/>
	<path d="M1503.76,1110.84c2.72,2.89,2.83,3.26,2.37,8.68c-3.19,2.42-6.69,5.24-10.36,7.83c-2.46,1.74-5.23,3.03-7.7,4.75
		c-3.54,2.47-6.75,2.12-10.06-0.71c-0.21-2.96,2.3-4.26,4.16-5.65c6.46-4.8,13.1-9.36,19.69-13.99
		C1502.45,1111.35,1503.17,1111.12,1503.76,1110.84z"/>
	<path d="M1504.55,1167.4c-1.83-1.04-3.34-1.9-4.85-2.76c0.45-4.51,2.78-7.74,4.55-11.15c3-5.77,7.01-11.08,7.66-17.88
		c0.08-0.88,0.88-1.69,1.32-2.49c3.32,1.22,5.06,4.23,4.25,7.89c-0.73,3.29-1.6,6.67-3.13,9.63
		C1511.54,1156.09,1508.18,1161.27,1504.55,1167.4z"/>
	<path d="M775.05,1163.15c-4.59-1.1-5.66-2.45-5.68-7.04c5.91-5.27,13.16-8.41,20.34-12.05c1.15,1.41,2.01,2.45,2.79,3.39
		c-0.93,3.22-2.39,5.53-5.27,7.23C783.01,1157.16,779.15,1160.25,775.05,1163.15z"/>
	<path d="M693.96,1187.56c0.09,1.7,0.15,2.82,0.22,4.08c-4.85,3.79-9.53,7.83-14.64,11.22c-1.97,1.3-4.94,1.09-7.28,1.53
		c-1.85-2.75-0.67-4.53,0.79-5.88c5.15-4.77,10.45-9.38,16.02-14.33C690.97,1185.5,692.44,1186.51,693.96,1187.56z"/>
	<path d="M1571.58,1107.14c0-2.17,0-4.3,0-7.14c7.76-0.84,15.02,1.52,22.42,2.75c0.4,2.12,0.68,3.58,0.92,4.89
		C1591.49,1110.7,1575.11,1110.41,1571.58,1107.14z"/>
	<path d="M1106.79,435.2c0.19,3.28-2.09,3.86-3.53,4.9c-3.36,2.44-6.93,4.59-10.28,7.03c-5.18,3.78-10.4,7.53-15.31,11.65
		c-4.24,3.55-8.1,7.56-12.06,11.44c-6.67,6.52-13.24,13.15-19.95,19.62c-1.46,1.41-3.37,2.37-5.55,3c0.88-1.09,1.65-2.3,2.67-3.24
		C1063.06,470.6,1081.58,449.52,1106.79,435.2z"/>
	<path d="M1565.98,1080.2c-0.51-0.03-1.46-0.1-2.9-0.19c0-2.5-0.93-5.49,0.17-6.98c3.89-5.27,7.25-11.32,14.68-13.99
		c0.83,1.84,1.69,3.74,2.39,5.29C1575.32,1069.87,1570.8,1074.87,1565.98,1080.2z"/>
	<path d="M691.46,1205.76c2.26,1.28,3.73,2.12,5,2.84c0.56,5.71-2.23,11.08-8.37,16.53c-1.39,0-2.88,0-4.56,0
		c-0.56-1.1-1.12-2.18-1.85-3.62C684.84,1216.43,687.98,1211.37,691.46,1205.76z"/>
	<path d="M729.19,1226.65c-1.11,0-2.18,0-3.36,0c-1.39-3.83-0.22-7.37,0.31-10.9c0.52-3.47,1.16-6.92,1.75-10.38
		c3.68-0.62,6.86,1.48,6.58,5.01C734.03,1216.12,733.05,1221.85,729.19,1226.65z"/>
	<path d="M1482.27,1071.49c5.01-1.65,8.65,1.31,12.34,3.67c3.67,2.36,4.87,6.03,4.89,11.07c-1.53-0.83-2.71-1.11-3.31-1.86
		c-2.73-3.4-6.4-5.17-10.4-6.48C1483.05,1076.99,1481.6,1075.21,1482.27,1071.49z"/>
	<path d="M1558.83,1131.86c4.41-1.05,5.66,2.87,7.54,4.97c2.56,2.85,5.59,6.07,3.29,10.63
		C1564.06,1147.03,1558.05,1138.58,1558.83,1131.86z"/>
	<path d="M771.91,1202.7c-4.69,0.46-6.49-3.41-9.2-5.38c-2.96-2.17-5.64-4.97-5.37-9.27C762.4,1187.59,769.79,1194.94,771.91,1202.7
		z"/>
	<path d="M674.51,1143.91c3.98,3.35,7.96,6.7,12,10.11c0.07,1.37,0.12,2.58,0.18,3.8c-5.48,0.02-12.77-7.55-12.91-13.1
		C674.03,1144.45,674.27,1144.18,674.51,1143.91z"/>
</g>
</svg>
