<?xml version="1.0" encoding="UTF-8" standalone="no"?>
<!-- Created with Inkscape (http://www.inkscape.org/) -->

<svg
   version="1.1"
   id="svg1"
   width="445.86667"
   height="119.30667"
   viewBox="0 0 445.86667 119.30667"
   sodipodi:docname="MIAM_LOGO_PF.eps"
   xmlns:inkscape="http://www.inkscape.org/namespaces/inkscape"
   xmlns:sodipodi="http://sodipodi.sourceforge.net/DTD/sodipodi-0.dtd"
   xmlns="http://www.w3.org/2000/svg"
   xmlns:svg="http://www.w3.org/2000/svg">
  <defs
     id="defs1" />
  <sodipodi:namedview
     id="namedview1"
     pagecolor="#ffffff"
     bordercolor="#000000"
     borderopacity="0.25"
     inkscape:showpageshadow="2"
     inkscape:pageopacity="0.0"
     inkscape:pagecheckerboard="0"
     inkscape:deskcolor="#d1d1d1">
    <inkscape:page
       x="0"
       y="0"
       inkscape:label="1"
       id="page1"
       width="445.86667"
       height="119.30667"
       margin="0"
       bleed="0" />
  </sodipodi:namedview>
  <g
     id="g1"
     inkscape:groupmode="layer"
     inkscape:label="1">
    <g
       id="group-R5">
      <path
         id="path2"
         d="m 1827.09,264.078 23.55,134.442 c 6.58,23.261 41.72,23.261 48.3,0 l 24.5,-133.731 c 4,-18.008 -9.6,-35.129 -28.04,-35.309 L 1855.75,229 c -18.59,-0.191 -32.54,16.91 -28.66,35.078 z M 1697.63,633.34 c -19.68,0 -24.36,-4.961 -29.99,-20.449 L 1450.18,20 c -3.55,-11.57031 -0.11,-19.878906 16.11,-19.871094 h 283.14 c 7.67,0 14.29,5.179684 16.48,12.472694 l 14.07,49.7265 c 6.34,23.7305 26.37,43.8519 76.95,43.8519 l 35.8,0.058 c 50.76,0 70.44,-16.0896 76.93,-44.1169 l 14,-49.5195 c 2.24,-7.12113 8.82,-12.472694 16.49,-12.472694 l 282.22,0.160157 c 8.71,0 17.95,5.921877 13.53,19.710937 l -213.96,592.891 c -5.07,14.742 -8.73,20.371 -29.99,20.449 h -354.32 v 0"
         style="fill:#231f20;fill-opacity:1;fill-rule:nonzero;stroke:none"
         transform="matrix(0.13333333,0,0,-0.13333333,0,119.30667)" />
      <path
         id="path3"
         d="m 1386.58,0 h -258.9 c -11.4,0 -20.64,9.23828 -20.64,20.6406 V 613.57 c 0,11.399 9.24,20.641 20.64,20.641 h 258.9 c 11.4,0 20.64,-9.242 20.64,-20.641 V 20.6406 C 1407.22,9.23828 1397.98,0 1386.58,0 v 0"
         style="fill:#231f20;fill-opacity:1;fill-rule:nonzero;stroke:none"
         transform="matrix(0.13333333,0,0,-0.13333333,0,119.30667)" />
      <path
         id="path4"
         d="m 565.641,1.53906 c 21.3,0 32.648,6.46094 39.55,15.89064 l 60.028,77.1289 c 19.832,30.8634 90.871,15.5434 82.191,-24.0469 -1.781,-8.1133 -3.539,-15.7734 -5.269,-23.1015 -6,-25.4493 10.5,-46.26176 36.64,-46.26176 64.348,0 163.321,0 211.199,0 10.95,0 19.78,8.88286 19.78,19.82036 V 615.051 c 0,11.051 -8.95,20 -19.99,20 H 738.469 c -13.5,0 -21.258,-5.192 -27.778,-13.981 L 551.73,371.91 c -21.5,-31.539 -70.46,-31.461 -93.808,0 l -164.063,249 c -6.519,8.801 -9.98,13.981 -27.781,13.981 H 20 c -11.03906,0 -20,-8.95 -20,-19.993 L 0,20.9883 C 0,9.94922 8.96094,1 20,1 h 211.27 c 26.421,0 42.921,20.9688 36.652,46.6406 -1.813,7.3789 -3.703,14.9688 -5.57,22.7696 -9.461,39.2808 62.367,54.8518 82.187,24.0117 l 54.449,-68.461 C 412.699,9.10156 419.52,1.39063 444.129,1.39063 l 121.512,0.14843 v 0"
         style="fill:#231f20;fill-opacity:1;fill-rule:nonzero;stroke:none"
         transform="matrix(0.13333333,0,0,-0.13333333,0,119.30667)" />
      <path
         id="path5"
         d="m 2899.91,1.53906 c 21.31,0 32.66,6.46094 39.56,15.89064 l 60.02,77.1289 c 19.84,30.8634 90.88,15.5434 82.2,-24.0469 -1.78,-8.1133 -3.55,-15.7734 -5.28,-23.1015 -6,-25.4493 10.5,-46.26176 36.65,-46.26176 64.35,0 163.31,0 211.2,0 10.94,0 19.78,8.88286 19.78,19.82036 V 615.051 c 0,11.051 -8.95,20 -20,20 h -251.3 c -13.49,0 -21.25,-5.192 -27.78,-13.981 L 2886.01,371.91 c -21.5,-31.539 -70.46,-31.461 -93.81,0 l -164.06,249 c -6.53,8.801 -9.98,13.981 -27.79,13.981 h -246.08 c -11.04,0 -19.99,-8.95 -19.99,-19.993 V 20.9883 C 2334.28,9.94922 2343.23,1 2354.27,1 h 211.27 c 26.42,0 42.93,20.9688 36.65,46.6406 -1.8,7.3789 -3.69,14.9688 -5.57,22.7696 -9.45,39.2808 62.37,54.8518 82.2,24.0117 l 54.45,-68.461 C 2746.98,9.10156 2753.8,1.39063 2778.4,1.39063 l 121.51,0.14843 v 0"
         style="fill:#231f20;fill-opacity:1;fill-rule:nonzero;stroke:none"
         transform="matrix(0.13333333,0,0,-0.13333333,0,119.30667)" />
      <path
         id="path6"
         d="m 1306.47,680.352 h -98.69 c -59.22,0 -112.46,48.007 -112.46,107.238 v 0.012 c 0,59.23 53.24,107.238 112.46,107.238 h 98.69 c 59.23,0 112.47,-48.008 112.47,-107.238 v -0.012 c 0,-59.231 -53.24,-107.238 -112.47,-107.238 v 0"
         style="fill:#231f20;fill-opacity:1;fill-rule:nonzero;stroke:none"
         transform="matrix(0.13333333,0,0,-0.13333333,0,119.30667)" />
    </g>
  </g>
</svg>
