<?xml version="1.0" encoding="UTF-8"?>
<svg xmlns="http://www.w3.org/2000/svg" version="1.1" xmlns:inkscape="http://www.inkscape.org/namespaces/inkscape" xmlns:sodipodi="http://sodipodi.sourceforge.net/DTD/sodipodi-0.dtd" xmlns:svg="http://www.w3.org/2000/svg" viewBox="0 0 445.87 119.31">
  <!-- Generator: Adobe Illustrator 29.7.1, SVG Export Plug-In . SVG Version: 2.1.1 Build 8)  -->
  <defs>
    <style>
      .st0 {
        fill: #231f20;
      }

      .st1 {
        fill: none;
        stroke: #231f20;
        stroke-miterlimit: 10;
        stroke-width: .25px;
      }
    </style>
  </defs>
  <g id="MIAM" sodipodi:docname="MIAM_LOGO_PF.eps">
    <g id="_x31_">
      <path class="st0" d="M9.2,34.65v84.66H0V37.32c0-1.47,1.19-2.67,2.67-2.67h6.53Z"/>
      <g>
        <polyline class="st1" points="3.2 34.65 9.2 34.65 9.2 40.65"/>
        <polyline class="st1" points="9.2 113.31 9.2 119.31 0 119.31 0 113.31"/>
      </g>
    </g>
    <g id="_x32_">
      <rect class="st0" x="9.29" y="34.65" width="9.29" height="84.66"/>
      <g>
        <polyline class="st1" points="9.29 40.65 9.29 34.65 18.58 34.65 18.58 40.65"/>
        <polyline class="st1" points="18.58 113.31 18.58 119.31 9.29 119.31 9.29 113.31"/>
      </g>
    </g>
    <g id="_x33_">
      <rect class="st0" x="18.58" y="34.65" width="9.29" height="84.66"/>
      <g>
        <polyline class="st1" points="18.58 40.65 18.58 34.65 27.87 34.65 27.87 40.65"/>
        <polyline class="st1" points="27.87 113.31 27.87 119.31 18.58 119.31 18.58 113.31"/>
      </g>
    </g>
    <g id="_x34_">
      <path class="st0" d="M37.16,34.84v70.71c-1.62.91-2.65,2.42-2.18,4.37.25,1.04.5,2.05.74,3.03.84,3.43-1.36,6.22-4.88,6.22h-2.97V34.65h7.61c.71,0,1.25.06,1.68.19Z"/>
      <g>
        <path class="st1" d="M27.87,40.65v-6h7.61c.71,0,1.25.06,1.68.19v6"/>
        <path class="st1" d="M37.16,99.55v6c-1.62.91-2.65,2.42-2.18,4.37.06.24.11.47.17.7"/>
        <path class="st1" d="M33.73,118.4c-.8.49-1.78.77-2.89.77h-2.97v-6"/>
      </g>
    </g>
    <g id="_x35_">
      <path class="st0" d="M46.44,47.54v59.81l-.5-.63c-1.66-2.58-6.05-2.72-8.78-1.17V34.84c1,.27,1.41.86,2.02,1.68l7.26,11.02Z"/>
      <g>
        <path class="st1" d="M46.44,101.35v6l-.5-.63c-1.66-2.58-6.05-2.72-8.78-1.17v-6"/>
        <path class="st1" d="M37.16,40.84v-6c1,.27,1.41.86,2.02,1.68l1.82,2.77"/>
      </g>
    </g>
    <g id="_x36_">
      <path class="st0" d="M55.73,61.63v56.72c-.9-.53-1.59-1.35-2.53-2.5l-6.76-8.5v-59.81l9.29,14.09Z"/>
      <g>
        <path class="st1" d="M55.73,112.35v6c-.9-.53-1.59-1.35-2.53-2.5l-1.51-1.9"/>
        <polyline class="st1" points="46.44 53.54 46.44 47.54 49.74 52.55"/>
      </g>
    </g>
    <g id="_x37_">
      <path class="st0" d="M65.02,72.51v46.6h-5.8c-1.6.01-2.64-.24-3.49-.76v-56.72l5.33,8.09c1.03,1.39,2.44,2.32,3.96,2.79Z"/>
      <g>
        <path class="st1" d="M60.47,68.82l.59.9c1.03,1.39,2.44,2.32,3.96,2.79v6"/>
        <path class="st1" d="M65.02,113.11v6h-5.8c-1.6.01-2.64-.24-3.49-.76v-6"/>
        <polyline class="st1" points="55.73 67.63 55.73 61.63 59.03 66.64"/>
      </g>
    </g>
    <g id="_x38_">
      <path class="st0" d="M74.31,68.54v50.56h-9.29s0-46.59,0-46.59c3.07.95,6.63.02,8.54-2.79l.75-1.18Z"/>
      <g>
        <path class="st1" d="M65.02,78.51v-6c3.07.95,6.63.02,8.54-2.79l.75-1.18v6"/>
        <polyline class="st1" points="74.31 113.1 74.31 119.1 65.02 119.11 65.02 113.11"/>
      </g>
    </g>
    <g id="_x39_">
      <path class="st0" d="M83.6,53.99v59.26l-2.91,3.73c-.92,1.26-2.43,2.12-5.27,2.12h-1.11v-50.56l9.29-14.55Z"/>
      <g>
        <polyline class="st1" points="80.37 59.05 83.6 53.99 83.6 59.99"/>
        <path class="st1" d="M80.01,117.73c-.95.84-2.36,1.37-4.59,1.37h-1.11v-6"/>
      </g>
    </g>
    <g id="_x31_0">
      <path class="st0" d="M92.89,39.43v65.1c-1.72.13-3.32.81-4.19,2.17l-5.1,6.55v-59.26l9.29-14.56Z"/>
      <g>
        <polyline class="st1" points="89.66 44.49 92.89 39.43 92.89 45.43"/>
        <path class="st1" d="M92.89,98.53v6c-1.72.13-3.32.81-4.19,2.17l-.68.88"/>
        <polyline class="st1" points="87.29 108.52 83.6 113.25 83.6 107.25"/>
      </g>
    </g>
    <g id="_x31_1">
      <path class="st0" d="M102.18,34.63v84.29c-2.49-.73-3.89-3.12-3.23-5.93.23-.98.47-2,.7-3.08.78-3.55-3.24-5.64-6.76-5.38V39.43l1.87-2.93c.87-1.17,1.9-1.87,3.7-1.87h3.72Z"/>
      <g>
        <path class="st1" d="M96.26,35.13c.59-.32,1.3-.5,2.2-.5h3.72v6"/>
        <path class="st1" d="M102.18,112.92v6c-2.04-.6-3.35-2.31-3.39-4.45"/>
        <path class="st1" d="M98.48,106.27c-1.34-1.25-3.55-1.89-5.59-1.74v-6"/>
      </g>
    </g>
    <g id="_x31_2">
      <path class="st0" d="M111.47,34.63v84.52h-7.63c-.6,0-1.15-.08-1.66-.23V34.63h9.29Z"/>
      <g>
        <polyline class="st1" points="102.18 40.63 102.18 34.63 111.47 34.63 111.47 40.63"/>
        <path class="st1" d="M111.47,113.15v6h-7.63c-.6,0-1.15-.08-1.66-.23v-6"/>
      </g>
    </g>
    <g id="_x31_3">
      <rect class="st0" x="111.47" y="34.63" width="9.29" height="84.52"/>
      <g>
        <polyline class="st1" points="111.47 40.63 111.47 34.63 120.76 34.63 120.76 40.63"/>
        <polyline class="st1" points="120.76 113.15 120.76 119.15 111.47 119.15 111.47 113.15"/>
      </g>
    </g>
    <g id="_x31_4">
      <rect class="st0" x="120.76" y="34.63" width="9.28" height="84.52"/>
      <g>
        <polyline class="st1" points="120.76 40.63 120.76 34.63 130.04 34.63 130.04 40.63"/>
        <polyline class="st1" points="130.04 113.15 130.04 119.15 120.76 119.15 120.76 113.15"/>
      </g>
    </g>
    <g id="_x31_5">
      <path class="st0" d="M134.63,37.3v79.21c0,1.46-1.17,2.64-2.63,2.64h-1.96V34.63h1.93c1.47,0,2.66,1.2,2.66,2.67Z"/>
      <g>
        <path class="st1" d="M134.63,116.61c-.05,1.42-1.2,2.54-2.63,2.54h-1.96v-6"/>
        <path class="st1" d="M130.04,40.63v-6h1.93c1.43,0,2.6,1.14,2.66,2.56"/>
      </g>
    </g>
    <g>
      <g id="_x31_6">
        <path class="st0" d="M148.62,6.43v15.73c-1.62-2.26-2.58-4.96-2.58-7.87s.96-5.61,2.58-7.86Z"/>
        <g>
          <path class="st1" d="M146.26,11.9c.37-2,1.19-3.85,2.36-5.47v6"/>
          <path class="st1" d="M148.62,16.16v6c-1.16-1.62-1.99-3.48-2.36-5.47"/>
        </g>
      </g>
      <g id="_x31_7">
        <path class="st0" d="M147.61,37.5c0-.86.39-1.63,1.01-2.13v83.32c-.62-.51-1.01-1.28-1.01-2.14V37.5Z"/>
        <g>
          <path class="st1" d="M147.61,41.07v-3.57c0-.86.39-1.63,1.01-2.13v6"/>
          <path class="st1" d="M148.62,112.69v6c-.62-.51-1.01-1.28-1.01-2.14v-3.56"/>
        </g>
      </g>
    </g>
    <g id="_x31_8">
      <path class="st0" d="M157.91.33v27.92c-3.77-.81-7.13-3.04-9.29-6.09V6.43c.57-.81,1.23-1.57,1.96-2.25,2.02-1.89,4.56-3.26,7.33-3.85Z"/>
      <g>
        <path class="st1" d="M152.43,2.69c1.64-1.12,3.5-1.94,5.48-2.36v6"/>
        <path class="st1" d="M157.91,22.25v6c-1.98-.42-3.84-1.24-5.48-2.36"/>
      </g>
    </g>
    <g id="_x31_9">
      <path class="st0" d="M157.91,34.75v84.56h-7.55c-.66,0-1.27-.23-1.74-.62V35.37c.47-.39,1.08-.62,1.74-.62h7.55Z"/>
      <g>
        <path class="st1" d="M148.62,41.37v-6c.47-.39,1.08-.62,1.74-.62h7.55v6"/>
        <path class="st1" d="M157.91,113.31v6h-7.55c-.66,0-1.27-.23-1.74-.62v-6"/>
      </g>
    </g>
    <g id="_x32_0">
      <path class="st0" d="M167.2,0v28.59h-6.16c-1.06,0-2.11-.12-3.13-.34V0h9.29Z"/>
      <g>
        <polyline class="st1" points="157.91 6 157.91 0 167.2 0 167.2 6"/>
        <path class="st1" d="M167.2,22.59v6h-6.16c-1.06,0-2.11-.12-3.13-.34v-6"/>
      </g>
    </g>
    <g id="_x32_1">
      <rect class="st0" x="157.91" y="34.75" width="9.29" height="84.56"/>
      <g>
        <polyline class="st1" points="157.91 40.75 157.91 34.75 167.2 34.75 167.2 40.75"/>
        <polyline class="st1" points="167.2 113.31 167.2 119.31 157.91 119.31 157.91 113.31"/>
      </g>
    </g>
    <g id="_x32_2">
      <path class="st0" d="M176.49,0v28.41c-.75.12-1.52.18-2.29.18h-7V0h9.29Z"/>
      <g>
        <polyline class="st1" points="167.2 6 167.2 0 176.49 0 176.49 6"/>
        <path class="st1" d="M176.49,22.41v6c-.75.12-1.52.18-2.29.18h-7v-6"/>
      </g>
    </g>
    <g id="_x32_3">
      <rect class="st0" x="167.2" y="34.75" width="9.29" height="84.56"/>
      <g>
        <polyline class="st1" points="167.2 40.75 167.2 34.75 176.49 34.75 176.49 40.75"/>
        <polyline class="st1" points="176.49 113.31 176.49 119.31 167.2 119.31 167.2 113.31"/>
      </g>
    </g>
    <g id="_x32_4">
      <path class="st0" d="M185.78,5.36v17.87c-.36.41-.73.8-1.13,1.17-2.22,2.08-5.08,3.52-8.16,4.01V.17c3.64.57,6.96,2.48,9.29,5.19Z"/>
      <g>
        <path class="st1" d="M182.09,26.34c-1.7,1.03-3.6,1.75-5.6,2.07v-6"/>
        <path class="st1" d="M176.49,6.17V.17c2,.31,3.9,1.03,5.59,2.06"/>
      </g>
    </g>
    <g id="_x32_5">
      <path class="st0" d="M185.78,34.9v84.26c-.28.1-.58.15-.9.15h-8.39V34.75h8.39c.32,0,.62.05.9.15Z"/>
      <g>
        <path class="st1" d="M176.49,40.75v-6h8.39c.32,0,.62.05.9.15v6"/>
        <path class="st1" d="M185.78,113.16v6c-.28.1-.58.15-.9.15h-8.39v-6"/>
      </g>
    </g>
    <g>
      <g id="_x32_6">
        <path class="st0" d="M187.63,37.5v79.05c0,1.2-.77,2.23-1.85,2.61V34.9c1.08.37,1.85,1.4,1.85,2.6Z"/>
        <g>
          <path class="st1" d="M187.63,113.96v2.59c0,1.2-.77,2.23-1.85,2.61v-6"/>
          <path class="st1" d="M185.78,40.9v-6c1.08.37,1.85,1.4,1.85,2.6v2.6"/>
        </g>
      </g>
      <g id="_x32_7">
        <path class="st0" d="M185.78,5.36c2.11,2.45,3.41,5.55,3.41,8.93s-1.3,6.49-3.41,8.94V5.36Z"/>
        <g>
          <path class="st1" d="M185.78,11.36v-6c1.31,1.52,2.3,3.29,2.87,5.22"/>
          <path class="st1" d="M188.65,18.01c-.57,1.93-1.56,3.7-2.87,5.22v-6"/>
        </g>
      </g>
    </g>
    <g id="_x32_8">
      <path class="st0" d="M195.07,111.98v7.29c-1.79-.14-2.16-1.2-1.71-2.63l1.71-4.66Z"/>
      <path class="st1" d="M195.07,111.98v7.29c-1.79-.14-2.16-1.2-1.71-2.63l1.71-4.66Z"/>
    </g>
    <g id="_x32_9">
      <path class="st0" d="M204.36,86.65v32.64h-8.85c-.16,0-.3-.01-.44-.02v-7.29l9.29-25.33Z"/>
      <g>
        <polyline class="st1" points="202.29 92.28 204.36 86.65 204.36 92.65"/>
        <path class="st1" d="M204.36,113.29v6h-8.85c-.16,0-.3-.01-.44-.02v-6"/>
      </g>
    </g>
    <g id="_x33_0">
      <polygon class="st0" points="213.64 61.34 213.64 119.31 204.36 119.31 204.36 86.65 213.64 61.34"/>
      <g>
        <polyline class="st1" points="211.57 66.97 213.64 61.34 213.64 67.34"/>
        <polyline class="st1" points="213.64 113.31 213.64 119.31 204.36 119.31 204.36 113.31"/>
      </g>
    </g>
    <g id="_x33_1">
      <path class="st0" d="M222.93,36.27v83.04h-9.29v-57.97l8.71-23.75c.19-.53.37-.96.58-1.32Z"/>
      <g>
        <path class="st1" d="M220.78,41.87l1.57-4.28c.19-.53.37-.96.58-1.32v6"/>
        <polyline class="st1" points="222.93 113.31 222.93 119.31 213.64 119.31 213.64 113.31"/>
      </g>
    </g>
    <g id="_x33_2">
      <path class="st0" d="M232.22,34.86v84.45h-9.29V36.27c.62-1.04,1.47-1.41,3.42-1.41h5.87Z"/>
      <g>
        <path class="st1" d="M226.22,34.86s.09,0,.13,0h5.87v6"/>
        <polyline class="st1" points="232.22 113.31 232.22 119.31 222.93 119.31 222.93 113.31"/>
      </g>
    </g>
    <g id="_x33_3">
      <path class="st0" d="M241.51,34.86v71.35c-2.44,1.07-3.66,2.84-4.18,4.79l-1.88,6.63c-.29.97-1.17,1.66-2.19,1.66h-1.04V34.86h9.29Z"/>
      <g>
        <polyline class="st1" points="232.22 40.86 232.22 34.86 241.51 34.86 241.51 40.86"/>
        <path class="st1" d="M241.51,100.21v6c-2.2.97-3.41,2.51-4.01,4.23"/>
        <path class="st1" d="M236,115.69l-.55,1.94c-.29.97-1.17,1.66-2.19,1.66h-1.04v-6"/>
      </g>
    </g>
    <g id="_x33_4">
      <path class="st0" d="M243.61,84.1c-.52,2.42,1.34,4.7,3.82,4.67l3.37-.04v16.41h-3.21c-2.58.01-4.57.4-6.08,1.07V34.86h9.29v29.07c-1.63-.36-3.52.38-4.05,2.24l-3.14,17.93Z"/>
      <g>
        <path class="st1" d="M244.99,87.94c.66.53,1.51.84,2.44.83l3.37-.04v6"/>
        <path class="st1" d="M250.8,99.14v6h-3.21c-2.58.01-4.57.4-6.08,1.07v-6"/>
        <polyline class="st1" points="241.51 40.86 241.51 34.86 250.8 34.86 250.8 40.86"/>
        <path class="st1" d="M250.8,57.93v6c-1.63-.36-3.52.38-4.05,2.24l-.15.88"/>
      </g>
    </g>
    <g id="_x33_5">
      <path class="st0" d="M260.09,34.86v72.09c-1.62-1.18-4.07-1.81-7.73-1.81h-1.56v-16.41l1.92-.02c2.46-.02,4.27-2.31,3.74-4.71l-3.27-17.83c-.35-1.24-1.31-1.99-2.39-2.24v-29.07h9.29Z"/>
      <g>
        <polyline class="st1" points="250.8 40.86 250.8 34.86 260.09 34.86 260.09 40.86"/>
        <path class="st1" d="M260.09,100.95v6c-1.62-1.18-4.07-1.81-7.73-1.81h-1.56v-6"/>
        <path class="st1" d="M250.8,94.73v-6l1.92-.02c1.47-.01,2.7-.83,3.35-2"/>
        <path class="st1" d="M253.65,68.69l-.46-2.52c-.35-1.24-1.31-1.99-2.39-2.24v-6"/>
      </g>
    </g>
    <g id="_x33_6">
      <path class="st0" d="M269.38,34.86v84.43h-2.69c-1.03,0-1.9-.71-2.2-1.66l-1.87-6.61c-.39-1.71-1.16-3.1-2.53-4.07V34.86h9.29Z"/>
      <g>
        <polyline class="st1" points="260.09 40.86 260.09 34.86 269.38 34.86 269.38 40.86"/>
        <path class="st1" d="M269.38,113.29v6h-2.69c-1.03,0-1.9-.71-2.2-1.66l-.1-.35"/>
        <path class="st1" d="M262.92,112.08l-.3-1.06c-.39-1.71-1.16-3.1-2.53-4.07v-6"/>
      </g>
    </g>
    <g id="_x33_7">
      <path class="st0" d="M278.67,40.58v78.73h-9.29V34.86h4.21c2.84.01,3.33.76,4,2.73l1.08,2.99Z"/>
      <g>
        <polyline class="st1" points="278.67 113.31 278.67 119.31 269.38 119.31 269.38 113.31"/>
        <path class="st1" d="M269.38,40.86v-6h4.21c.74,0,1.32.06,1.78.17"/>
      </g>
    </g>
    <g id="_x33_8">
      <polygon class="st0" points="287.96 66.32 287.96 119.31 278.67 119.31 278.67 40.58 287.96 66.32"/>
      <g>
        <polyline class="st1" points="287.96 113.31 287.96 119.31 278.67 119.31 278.67 113.31"/>
        <polyline class="st1" points="278.67 46.58 278.67 40.58 280.71 46.22"/>
      </g>
    </g>
    <g id="_x33_9">
      <polygon class="st0" points="297.24 92.04 297.24 119.31 287.96 119.31 287.96 66.32 297.24 92.04"/>
      <g>
        <polyline class="st1" points="297.24 113.31 297.24 119.31 287.96 119.31 287.96 113.31"/>
        <polyline class="st1" points="287.96 72.32 287.96 66.32 290 71.96"/>
      </g>
    </g>
    <g id="_x34_0">
      <path class="st0" d="M304.32,119.27h-7.08v-27.23l8.88,24.6c.59,1.84-.64,2.63-1.8,2.63Z"/>
      <g>
        <polyline class="st1" points="303.24 119.27 297.24 119.27 297.24 113.27"/>
        <polyline class="st1" points="297.24 98.04 297.24 92.04 299.28 97.68"/>
      </g>
    </g>
    <g id="_x34_1">
      <path class="st0" d="M315.82,34.65v84.52h-1.92c-1.47,0-2.66-1.19-2.66-2.66V37.32c0-1.47,1.19-2.67,2.66-2.67h1.92Z"/>
      <g>
        <path class="st1" d="M311.24,37.22c.05-1.42,1.22-2.57,2.66-2.57h1.92v6"/>
        <path class="st1" d="M315.82,113.17v6h-1.92c-1.44,0-2.61-1.14-2.66-2.56"/>
      </g>
    </g>
    <g id="_x34_2">
      <rect class="st0" x="315.82" y="34.65" width="9.29" height="84.52"/>
      <g>
        <polyline class="st1" points="315.82 40.65 315.82 34.65 325.11 34.65 325.11 40.65"/>
        <polyline class="st1" points="325.11 113.17 325.11 119.17 315.82 119.17 315.82 113.17"/>
      </g>
    </g>
    <g id="_x34_3">
      <rect class="st0" x="325.11" y="34.65" width="9.29" height="84.52"/>
      <g>
        <polyline class="st1" points="325.11 40.65 325.11 34.65 334.4 34.65 334.4 40.65"/>
        <polyline class="st1" points="334.4 113.17 334.4 119.17 325.11 119.17 325.11 113.17"/>
      </g>
    </g>
    <g id="_x34_4">
      <path class="st0" d="M343.69,34.65v84.3c-.5.14-1.04.22-1.62.22h-7.67V34.65h9.29Z"/>
      <g>
        <polyline class="st1" points="334.4 40.65 334.4 34.65 343.69 34.65 343.69 40.65"/>
        <path class="st1" d="M343.69,112.95v6c-.5.14-1.04.22-1.62.22h-7.67v-6"/>
      </g>
    </g>
    <g id="_x34_5">
      <path class="st0" d="M352.98,40.41v64.15c-3.55-.26-7.61,1.83-6.76,5.36.25,1.04.5,2.05.74,3.03.7,2.87-.73,5.29-3.27,6V34.65h3.02c2.38,0,2.84.7,3.71,1.87l2.56,3.89Z"/>
      <g>
        <path class="st1" d="M352.98,98.56v6c-2.04-.15-4.25.48-5.6,1.71"/>
        <path class="st1" d="M347.13,114.54c-.06,2.14-1.39,3.83-3.44,4.41v-6"/>
        <path class="st1" d="M343.69,40.65v-6h3.02c1.51,0,2.25.28,2.81.79"/>
      </g>
    </g>
    <g id="_x34_6">
      <path class="st0" d="M362.27,54.51v58.61l-5.09-6.4c-.87-1.34-2.48-2.03-4.2-2.16V40.41l9.29,14.1Z"/>
      <g>
        <polyline class="st1" points="362.27 107.12 362.27 113.12 358.54 108.42"/>
        <path class="st1" d="M357.87,107.59l-.69-.87c-.87-1.34-2.48-2.03-4.2-2.16v-6"/>
        <polyline class="st1" points="352.98 46.41 352.98 40.41 356.28 45.42"/>
      </g>
    </g>
    <g id="_x34_7">
      <path class="st0" d="M371.56,68.61v50.51h-1.11c-3.28,0-4.19-1.03-6.01-3.27l-2.17-2.73v-58.61l9.29,14.1Z"/>
      <g>
        <path class="st1" d="M371.56,113.12v6h-1.11c-2.27,0-3.41-.49-4.49-1.54"/>
        <polyline class="st1" points="362.27 60.51 362.27 54.51 365.57 59.52"/>
      </g>
    </g>
    <g id="_x34_8">
      <path class="st0" d="M380.84,72.56v46.55h-9.28s0-50.5,0-50.5l.73,1.11c2.05,2.75,5.56,3.7,8.55,2.84Z"/>
      <g>
        <path class="st1" d="M371.56,74.61v-6l.73,1.11c2.05,2.75,5.56,3.7,8.55,2.84v6"/>
        <polyline class="st1" points="380.84 113.11 380.84 119.11 371.56 119.12 371.56 113.12"/>
      </g>
    </g>
    <g id="_x34_9">
      <path class="st0" d="M390.13,61.36v57.09c-.86.41-1.99.65-3.48.65h-5.81s0-46.54,0-46.54c1.56-.45,2.98-1.4,3.96-2.84l5.33-8.36Z"/>
      <g>
        <polyline class="st1" points="386.9 66.42 390.13 61.36 390.13 67.36"/>
        <path class="st1" d="M390.13,112.45v6c-.86.41-1.99.65-3.48.65h-5.81s0-5.99,0-5.99"/>
        <path class="st1" d="M380.84,78.56v-6c1.56-.45,2.98-1.4,3.96-2.84l.56-.87"/>
      </g>
    </g>
    <g id="_x35_0">
      <path class="st0" d="M399.42,46.8v60.56l-7.49,9.62c-.44.6-1.01,1.11-1.8,1.47v-57.09l9.29-14.56Z"/>
      <g>
        <polyline class="st1" points="396.19 51.86 399.42 46.8 399.42 52.8"/>
        <path class="st1" d="M394.17,114.1l-2.24,2.88c-.44.6-1.01,1.11-1.8,1.47v-6"/>
      </g>
    </g>
    <g id="_x35_1">
      <path class="st0" d="M408.71,34.72v70.82c-2.72-1.58-7.11-1.44-8.78,1.16l-.51.66v-60.56l6.57-10.3c.7-.94,1.5-1.57,2.72-1.78Z"/>
      <g>
        <path class="st1" d="M404.56,38.75l1.43-2.25c.7-.94,1.5-1.57,2.72-1.78v6"/>
        <path class="st1" d="M408.71,99.54v6c-2.72-1.58-7.11-1.44-8.78,1.16l-.51.66v-6"/>
      </g>
    </g>
    <g id="_x35_2">
      <path class="st0" d="M418,34.63v84.52h-2.93c-3.48,0-5.68-2.77-4.88-6.16.23-.98.46-2,.7-3.08.43-1.95-.59-3.46-2.18-4.37V34.72c.3-.06.63-.09.99-.09h8.3Z"/>
      <g>
        <path class="st1" d="M408.71,40.72v-6c.3-.06.63-.09.99-.09h8.3v6"/>
        <path class="st1" d="M418,113.15v6h-2.93c-1.13,0-2.12-.29-2.92-.8"/>
        <path class="st1" d="M410.73,110.63c.05-.24.11-.48.16-.72.43-1.95-.59-3.46-2.18-4.37v-6"/>
      </g>
    </g>
    <g id="_x35_3">
      <rect class="st0" x="418" y="34.63" width="9.29" height="84.52"/>
      <g>
        <polyline class="st1" points="418 40.63 418 34.63 427.29 34.63 427.29 40.63"/>
        <polyline class="st1" points="427.29 113.15 427.29 119.15 418 119.15 418 113.15"/>
      </g>
    </g>
    <g id="_x35_4">
      <rect class="st0" x="427.29" y="34.63" width="9.29" height="84.52"/>
      <g>
        <polyline class="st1" points="427.29 40.63 427.29 34.63 436.58 34.63 436.58 40.63"/>
        <polyline class="st1" points="436.58 113.15 436.58 119.15 427.29 119.15 427.29 113.15"/>
      </g>
    </g>
    <g id="_x35_5">
      <path class="st0" d="M445.87,37.3v79.21c0,1.46-1.18,2.64-2.64,2.64h-6.65V34.63h6.63c1.47,0,2.66,1.2,2.66,2.67Z"/>
      <g>
        <polyline class="st1" points="442.58 119.15 436.58 119.15 436.58 113.15"/>
        <polyline class="st1" points="436.58 40.63 436.58 34.63 442.58 34.63"/>
      </g>
    </g>
  </g>
</svg>