<svg width="620" height="162" viewBox="0 0 620 162" fill="none" xmlns="http://www.w3.org/2000/svg">
<g clip-path="url(#clip0_169_5512)">
<path d="M338.755 113.858L343.121 89.7883C344.341 85.6238 350.856 85.6238 352.076 89.7883L356.619 113.731C357.36 116.955 354.839 120.02 351.42 120.052L344.069 120.138C340.622 120.173 338.035 117.111 338.755 113.858ZM314.752 47.7473C311.103 47.7473 310.236 48.6355 309.192 51.4084L268.873 157.557C268.215 159.628 268.853 161.116 271.86 161.114H324.356C325.778 161.114 327.006 160.187 327.412 158.881L330.02 149.978C331.196 145.73 334.909 142.127 344.287 142.127L350.925 142.117C360.336 142.117 363.985 144.998 365.188 150.016L367.784 158.881C368.199 160.156 369.419 161.114 370.841 161.114L423.167 161.086C424.782 161.086 426.495 160.025 425.675 157.557L386.006 51.4084C385.066 48.7691 384.387 47.7613 380.445 47.7473H314.752Z" fill="black"/>
<path d="M257.081 161.138H209.079C206.966 161.138 205.253 159.484 205.253 157.442V51.287C205.253 49.2462 206.966 47.5915 209.079 47.5915H257.081C259.195 47.5915 260.908 49.2462 260.908 51.287V157.442C260.908 159.484 259.195 161.138 257.081 161.138Z" fill="black"/>
<path d="M104.874 160.862C108.823 160.862 110.927 159.705 112.206 158.017L123.336 144.208C127.013 138.682 140.184 141.425 138.575 148.513C138.245 149.966 137.919 151.337 137.598 152.649C136.485 157.206 139.545 160.932 144.391 160.932C156.322 160.932 174.672 160.932 183.549 160.932C185.579 160.932 187.216 159.341 187.216 157.383V51.0217C187.216 49.0432 185.557 47.441 183.51 47.441H136.917C134.414 47.441 132.976 48.3706 131.767 49.9441L102.294 94.5525C98.3082 100.199 89.2307 100.185 84.9018 94.5525L54.4834 49.9727C53.2748 48.3971 52.6331 47.4697 49.3326 47.4697H3.70813C1.66142 47.4697 0 49.072 0 51.0491V157.38C0 159.356 1.66142 160.958 3.70813 160.958H42.879C47.7776 160.958 50.8368 157.204 49.6745 152.608C49.3384 151.287 48.988 149.928 48.6418 148.532C46.8877 141.499 60.2051 138.711 63.8798 144.233L73.975 156.489C76.5172 159.508 77.7818 160.888 82.3445 160.888L104.874 160.862Z" fill="black"/>
<path d="M537.663 160.862C541.614 160.862 543.718 159.705 544.998 158.017L556.126 144.208C559.804 138.682 572.975 141.425 571.366 148.513C571.036 149.966 570.708 151.337 570.387 152.649C569.275 157.206 572.334 160.932 577.182 160.932C589.113 160.932 607.461 160.932 616.34 160.932C618.368 160.932 620.008 159.341 620.008 157.383V51.0217C620.008 49.0432 618.348 47.441 616.299 47.441H569.707C567.206 47.441 565.767 48.3706 564.556 49.9441L535.086 94.5525C531.099 100.199 522.022 100.185 517.693 94.5525L487.275 49.9727C486.064 48.3971 485.425 47.4697 482.122 47.4697H436.498C434.451 47.4697 432.791 49.072 432.791 51.0491V157.38C432.791 159.356 434.451 160.958 436.498 160.958H475.668C480.567 160.958 483.628 157.204 482.464 152.608C482.13 151.287 481.779 149.928 481.431 148.532C479.679 141.499 492.995 138.711 496.671 144.233L506.767 156.489C509.309 159.508 510.573 160.888 515.134 160.888L537.663 160.862Z" fill="black"/>
<path d="M242.228 39.3306H223.93C212.951 39.3306 203.08 30.7356 203.08 20.1312V20.1291C203.08 9.52481 212.951 0.929688 223.93 0.929688H242.228C253.21 0.929688 263.081 9.52481 263.081 20.1291V20.1312C263.081 30.7356 253.21 39.3306 242.228 39.3306Z" fill="black"/>
</g>
<defs>
<clipPath id="clip0_169_5512">
<rect width="620" height="160.201" fill="white" transform="translate(0 0.936829)"/>
</clipPath>
</defs>
</svg>
