<?xml version="1.0" encoding="UTF-8" standalone="no"?>
<!-- Created with Inkscape (http://www.inkscape.org/) -->

<svg
   version="1.1"
   id="svg1"
   width="776.1333"
   height="122.25333"
   viewBox="0 0 776.1333 122.25333"
   sodipodi:docname="MIAM_LOGO_Baseline_PF.eps"
   xmlns:inkscape="http://www.inkscape.org/namespaces/inkscape"
   xmlns:sodipodi="http://sodipodi.sourceforge.net/DTD/sodipodi-0.dtd"
   xmlns="http://www.w3.org/2000/svg"
   xmlns:svg="http://www.w3.org/2000/svg">
  <defs
     id="defs1" />
  <sodipodi:namedview
     id="namedview1"
     pagecolor="#ffffff"
     bordercolor="#000000"
     borderopacity="0.25"
     inkscape:showpageshadow="2"
     inkscape:pageopacity="0.0"
     inkscape:pagecheckerboard="0"
     inkscape:deskcolor="#d1d1d1">
    <inkscape:page
       x="0"
       y="0"
       inkscape:label="1"
       id="page1"
       width="776.1333"
       height="122.25333"
       margin="0"
       bleed="0" />
  </sodipodi:namedview>
  <g
     id="g1"
     inkscape:groupmode="layer"
     inkscape:label="1">
    <g
       id="group-R5">
      <path
         id="path2"
         d="m 3574.23,636.586 h 26.4 V 495.25 h -26.4 v 141.336"
         style="fill:#231f20;fill-opacity:1;fill-rule:nonzero;stroke:none"
         transform="matrix(0.13333333,0,0,-0.13333333,0,122.25333)" />
      <path
         id="path3"
         d="m 3625.33,596.695 h 23.37 v -15.386 h 0.57 c 6.65,11.394 16.53,18.046 30.4,18.046 12.92,0 22.41,-6.269 26.97,-19 h 0.38 c 8.18,13.114 19.19,19 31.92,19 20.71,0 32.87,-13.3 32.87,-35.335 v -68.77 h -24.13 v 65.543 c 0,11.586 -6.65,18.613 -16.53,18.613 -11.97,0 -20.52,-9.687 -20.52,-24.129 V 495.25 h -24.13 v 65.543 c 0,11.586 -5.88,18.613 -15.95,18.613 -11.21,0 -21.09,-9.879 -21.09,-24.129 V 495.25 h -24.13 v 101.445"
         style="fill:#231f20;fill-opacity:1;fill-rule:nonzero;stroke:none"
         transform="matrix(0.13333333,0,0,-0.13333333,0,122.25333)" />
      <path
         id="path4"
         d="m 3793.29,596.695 h 23.37 v -15.386 h 0.57 c 6.65,11.394 16.53,18.046 30.4,18.046 12.92,0 22.41,-6.269 26.97,-19 h 0.38 c 8.17,13.114 19.19,19 31.91,19 20.72,0 32.88,-13.3 32.88,-35.335 v -68.77 h -24.14 v 65.543 c 0,11.586 -6.65,18.613 -16.52,18.613 -11.97,0 -20.52,-9.687 -20.52,-24.129 V 495.25 h -24.13 v 65.543 c 0,11.586 -5.89,18.613 -15.95,18.613 -11.22,0 -21.09,-9.879 -21.09,-24.129 V 495.25 h -24.13 v 101.445"
         style="fill:#231f20;fill-opacity:1;fill-rule:nonzero;stroke:none"
         transform="matrix(0.13333333,0,0,-0.13333333,0,122.25333)" />
      <path
         id="path5"
         d="m 3980.44,555.09 h 50.54 c -0.96,16.719 -9.89,26.785 -24.52,26.785 -15.95,0 -23.93,-10.824 -26.02,-26.785 z m -24.32,-9.309 c 0,30.395 20.34,53.574 50.34,53.574 15.01,0 26.41,-5.132 34.96,-14.246 9.88,-10.64 14.62,-26.218 14.44,-45.214 h -75.8 c 1.71,-17.477 11.01,-29.258 27.93,-29.258 11.58,0 19.19,4.937 22.41,13.301 h 23.56 c -5.13,-18.239 -21.09,-31.727 -46.17,-31.727 -32.48,0 -51.67,23.746 -51.67,53.57"
         style="fill:#231f20;fill-opacity:1;fill-rule:nonzero;stroke:none"
         transform="matrix(0.13333333,0,0,-0.13333333,0,122.25333)" />
      <path
         id="path6"
         d="m 4096.34,578.457 h 0.56 c 6.47,13.106 16.16,19.758 29.08,19.758 2.84,0 5.12,-0.383 6.45,-0.949 v -21.661 h -0.76 c -2.09,0.571 -4.18,0.762 -6.65,0.762 -15.96,0.192 -27.92,-10.64 -27.92,-30.207 v -50.91 h -24.13 v 101.445 h 23.37 v -18.238"
         style="fill:#231f20;fill-opacity:1;fill-rule:nonzero;stroke:none"
         transform="matrix(0.13333333,0,0,-0.13333333,0,122.25333)" />
      <path
         id="path7"
         d="m 4141.94,526.406 h 23.18 c 2.09,-12.156 11.21,-17.289 24.13,-17.289 13.48,0 19.56,5.699 19.56,13.867 0,10.067 -10.45,11.965 -26.21,15.008 -19,3.61 -37.05,8.551 -37.05,31.16 0,19.184 16.33,30.203 40.08,30.203 27.17,0 40.47,-12.16 42.93,-29.828 h -22.97 c -1.71,8.93 -8.56,13.493 -20.14,13.493 -11.41,0 -17.1,-5.133 -17.1,-12.161 0,-9.121 10.63,-10.449 25.83,-13.492 19.19,-3.605 38.19,-7.976 38.19,-32.859 0,-21.281 -18.24,-32.485 -43.32,-32.485 -29.06,0 -45.58,13.868 -47.11,34.383"
         style="fill:#231f20;fill-opacity:1;fill-rule:nonzero;stroke:none"
         transform="matrix(0.13333333,0,0,-0.13333333,0,122.25333)" />
      <path
         id="path8"
         d="m 4249.47,596.695 h 24.13 V 495.25 h -24.13 z m -0.38,39.891 h 24.7 v -23.363 h -24.7 v 23.363"
         style="fill:#231f20;fill-opacity:1;fill-rule:nonzero;stroke:none"
         transform="matrix(0.13333333,0,0,-0.13333333,0,122.25333)" />
      <path
         id="path9"
         d="m 4285.58,596.695 h 25.27 l 14.81,-47.304 c 2.09,-6.836 4.37,-15.387 5.89,-22.227 0.95,-3.988 1.71,-7.98 2.66,-11.777 h 0.58 c 0.75,3.797 1.51,7.789 2.47,11.777 1.51,6.84 3.6,15.391 5.88,22.227 l 15.39,47.304 h 24.51 L 4347.13,495.25 h -26.41 l -35.14,101.445"
         style="fill:#231f20;fill-opacity:1;fill-rule:nonzero;stroke:none"
         transform="matrix(0.13333333,0,0,-0.13333333,0,122.25333)" />
      <path
         id="path10"
         d="m 4412.77,555.09 h 50.54 c -0.96,16.719 -9.88,26.785 -24.51,26.785 -15.96,0 -23.94,-10.824 -26.03,-26.785 z m -24.31,-9.309 c 0,30.395 20.33,53.574 50.34,53.574 15.01,0 26.41,-5.132 34.96,-14.246 9.87,-10.64 14.62,-26.218 14.43,-45.214 h -75.8 c 1.71,-17.477 11.02,-29.258 27.93,-29.258 11.58,0 19.19,4.937 22.41,13.301 h 23.56 c -5.13,-18.239 -21.08,-31.727 -46.16,-31.727 -32.48,0 -51.67,23.746 -51.67,53.57"
         style="fill:#231f20;fill-opacity:1;fill-rule:nonzero;stroke:none"
         transform="matrix(0.13333333,0,0,-0.13333333,0,122.25333)" />
      <path
         id="path11"
         d="m 4548.24,540.465 h 26.41 c 1.89,-18.238 13.67,-27.36 35.52,-27.36 15.39,0 28.11,6.461 28.11,20.708 0,15.195 -14.25,18.621 -36.47,23.746 -26.41,6.078 -48.44,12.73 -48.44,41.226 0,26.598 22.03,40.274 52.25,40.274 33.24,0 51.67,-15.766 54.52,-41.793 h -25.66 c -2.09,13.867 -12.54,21.656 -29.25,21.656 -15.95,0 -26.22,-6.461 -26.22,-17.856 0,-12.921 13.69,-16.531 35.53,-21.089 26.21,-5.508 50.34,-13.489 50.34,-44.075 0,-28.113 -23.55,-43.879 -54.9,-43.879 -38.75,0 -60.79,19.563 -61.74,48.442"
         style="fill:#231f20;fill-opacity:1;fill-rule:nonzero;stroke:none"
         transform="matrix(0.13333333,0,0,-0.13333333,0,122.25333)" />
      <path
         id="path12"
         d="m 4758.55,545.211 c 0,20.324 -8.16,34.574 -24.69,34.574 -18.23,0 -26.78,-15.387 -26.78,-34.574 0,-18.996 8.36,-34.004 26.97,-34.004 15.96,0 24.5,14.059 24.5,34.004 z m -74.65,51.484 h 23.37 v -15.011 h 0.56 c 7.41,11.593 17.1,17.671 31.55,17.671 26.4,0 43.69,-21.089 43.69,-53.574 0,-32.676 -17.1,-53.758 -44.46,-53.758 -13.68,0 -24.51,5.696 -30.78,16.145 h -0.56 c 0.56,-3.797 0.76,-10.066 0.76,-19.762 v -27.16 h -24.13 v 135.449"
         style="fill:#231f20;fill-opacity:1;fill-rule:nonzero;stroke:none"
         transform="matrix(0.13333333,0,0,-0.13333333,0,122.25333)" />
      <path
         id="path13"
         d="m 4863.07,532.105 v 15.004 c -4.76,-3.039 -12.36,-5.125 -19.76,-6.644 -15.01,-2.852 -23.37,-5.891 -23.37,-17.102 0,-10.828 8.17,-14.054 17.48,-14.054 16.53,0 25.65,11.394 25.65,22.796 z m 3.03,-36.855 c -1.71,2.281 -2.85,6.27 -3.41,13.109 h -0.39 c -6.65,-8.929 -15.77,-15.582 -31.91,-15.582 -19.76,0 -34.58,10.258 -34.58,30.016 0,22.988 17.48,28.305 41.61,31.348 16.72,2.089 25.07,4.75 25.07,13.867 0,8.93 -6.07,14.629 -18.23,14.629 -13.68,0 -20.14,-6.27 -20.71,-16.336 h -22.8 c 0.58,17.285 14.63,33.054 43.32,33.054 11.58,0 20.51,-1.523 27.16,-5.886 9.69,-5.895 14.44,-15.395 14.44,-28.879 v -53.383 c 0,-8.359 1.52,-12.73 3.8,-14.25 v -1.707 h -23.37"
         style="fill:#231f20;fill-opacity:1;fill-rule:nonzero;stroke:none"
         transform="matrix(0.13333333,0,0,-0.13333333,0,122.25333)" />
      <path
         id="path14"
         d="m 4903.16,545.781 c 0,30.395 19.96,53.574 51.11,53.574 25.84,0 42.18,-14.628 45.78,-36.472 h -23.56 c -2.27,11.203 -9.88,18.047 -22.04,18.047 -17.66,0 -26.78,-14.629 -26.78,-35.149 0,-19.754 9.12,-34.765 26.78,-34.765 13.5,0 21.28,7.597 22.61,21.089 h 23.56 c -1.52,-23.558 -18.8,-39.894 -45.97,-39.894 -31.35,0 -51.49,23.746 -51.49,53.57"
         style="fill:#231f20;fill-opacity:1;fill-rule:nonzero;stroke:none"
         transform="matrix(0.13333333,0,0,-0.13333333,0,122.25333)" />
      <path
         id="path15"
         d="m 5036.29,555.09 h 50.54 c -0.96,16.719 -9.89,26.785 -24.52,26.785 -15.95,0 -23.93,-10.824 -26.02,-26.785 z m -24.32,-9.309 c 0,30.395 20.33,53.574 50.34,53.574 15.01,0 26.41,-5.132 34.97,-14.246 9.87,-10.64 14.61,-26.218 14.43,-45.214 h -75.8 c 1.71,-17.477 11.01,-29.258 27.93,-29.258 11.58,0 19.19,4.937 22.41,13.301 h 23.55 c -5.12,-18.239 -21.08,-31.727 -46.16,-31.727 -32.48,0 -51.67,23.746 -51.67,53.57"
         style="fill:#231f20;fill-opacity:1;fill-rule:nonzero;stroke:none"
         transform="matrix(0.13333333,0,0,-0.13333333,0,122.25333)" />
      <path
         id="path16"
         d="m 3608.04,318.328 h 40.65 l -10.82,32.68 c -2.85,8.355 -4.94,16.531 -6.46,23.172 -0.95,3.8 -1.71,7.414 -2.47,10.832 h -0.39 c -0.94,-3.985 -2.09,-7.981 -3.03,-11.965 -1.71,-6.848 -3.99,-15.391 -6.27,-22.039 z m 6.84,88.344 H 3643 l 51.48,-141.34 h -28.12 l -11.2,33.621 h -53.58 l -11.39,-33.621 h -26.61 l 51.3,141.34"
         style="fill:#231f20;fill-opacity:1;fill-rule:nonzero;stroke:none"
         transform="matrix(0.13333333,0,0,-0.13333333,0,122.25333)" />
      <path
         id="path17"
         d="m 3691.64,366.777 h 25.27 l 14.82,-47.304 c 2.09,-6.836 4.36,-15.391 5.89,-22.227 0.94,-3.984 1.71,-7.976 2.65,-11.777 h 0.58 c 0.75,3.801 1.51,7.793 2.47,11.777 1.51,6.836 3.6,15.391 5.89,22.227 l 15.38,47.304 h 24.51 l -35.91,-101.445 h -26.4 l -35.15,101.445"
         style="fill:#231f20;fill-opacity:1;fill-rule:nonzero;stroke:none"
         transform="matrix(0.13333333,0,0,-0.13333333,0,122.25333)" />
      <path
         id="path18"
         d="m 3816.91,325.168 h 50.54 c -0.96,16.719 -9.88,26.785 -24.51,26.785 -15.96,0 -23.94,-10.82 -26.03,-26.785 z m -24.31,-9.309 c 0,30.403 20.33,53.575 50.34,53.575 15.01,0 26.41,-5.125 34.96,-14.246 9.87,-10.637 14.62,-26.211 14.43,-45.215 h -75.8 c 1.71,-17.473 11.02,-29.25 27.93,-29.25 11.58,0 19.19,4.933 22.42,13.293 h 23.55 c -5.13,-18.235 -21.08,-31.719 -46.16,-31.719 -32.48,0 -51.67,23.738 -51.67,53.562"
         style="fill:#231f20;fill-opacity:1;fill-rule:nonzero;stroke:none"
         transform="matrix(0.13333333,0,0,-0.13333333,0,122.25333)" />
      <path
         id="path19"
         d="m 3933.76,351.953 h 0.58 c 6.65,11.406 17.1,17.481 31.53,17.481 22.04,0 34.95,-13.301 34.95,-35.332 v -68.77 h -24.12 v 64.777 c 0,12.157 -7.03,19.375 -19.38,19.375 -13.49,0 -22.98,-10.254 -22.98,-24.687 v -59.465 h -24.13 v 101.445 h 23.55 v -14.824"
         style="fill:#231f20;fill-opacity:1;fill-rule:nonzero;stroke:none"
         transform="matrix(0.13333333,0,0,-0.13333333,0,122.25333)" />
      <path
         id="path20"
         d="m 4088.41,265.332 v 14.434 h -0.38 c -7.4,-11.2 -16.15,-17.09 -30.59,-17.09 -22.23,0 -35.15,13.672 -35.15,35.715 v 68.386 h 24.14 v -64.968 c 0,-12.161 6.83,-18.996 18.99,-18.996 13.68,0 22.42,10.253 22.42,24.503 v 59.461 h 23.94 V 265.332 h -23.37"
         style="fill:#231f20;fill-opacity:1;fill-rule:nonzero;stroke:none"
         transform="matrix(0.13333333,0,0,-0.13333333,0,122.25333)" />
      <path
         id="path21"
         d="m 4153.96,325.168 h 50.54 c -0.96,16.719 -9.88,26.785 -24.51,26.785 -15.96,0 -23.94,-10.82 -26.03,-26.785 z m -24.31,-9.309 c 0,30.403 20.33,53.575 50.34,53.575 15.01,0 26.41,-5.125 34.96,-14.246 9.87,-10.637 14.62,-26.211 14.43,-45.215 h -75.8 c 1.71,-17.473 11.02,-29.25 27.93,-29.25 11.59,0 19.19,4.933 22.42,13.293 h 23.55 c -5.13,-18.235 -21.08,-31.719 -46.16,-31.719 -32.48,0 -51.67,23.738 -51.67,53.562"
         style="fill:#231f20;fill-opacity:1;fill-rule:nonzero;stroke:none"
         transform="matrix(0.13333333,0,0,-0.13333333,0,122.25333)" />
      <path
         id="path22"
         d="m 4402.48,284.707 h -0.76 c -9.12,-15.383 -24.32,-22.605 -41.98,-22.605 -19.95,0 -36.48,7.41 -48.07,20.136 -12.16,13.114 -18.61,31.348 -18.61,53.192 0,22.988 7.59,42.55 21.46,56.047 11.4,11.394 26.79,17.847 47.11,17.847 34.58,0 54.72,-18.426 59.84,-45.015 h -26.6 c -3.8,13.101 -14.05,22.988 -32.86,22.988 -28.68,0 -42.18,-22.609 -42.18,-51.867 0,-30.203 16.92,-51.289 42.18,-51.289 23.56,0 36.48,16.14 36.48,34.187 v 1.711 h -34.2 v 20.52 h 59.46 v -75.227 h -17.67 l -3.6,19.375"
         style="fill:#231f20;fill-opacity:1;fill-rule:nonzero;stroke:none"
         transform="matrix(0.13333333,0,0,-0.13333333,0,122.25333)" />
      <path
         id="path23"
         d="m 4491.41,411.992 h 28.49 l -19.95,-29.258 h -18.61 z m -26.22,-86.824 h 50.53 c -0.95,16.719 -9.88,26.785 -24.51,26.785 -15.96,0 -23.93,-10.82 -26.02,-26.785 z m -24.32,-9.309 c 0,30.403 20.33,53.575 50.34,53.575 15.01,0 26.41,-5.125 34.95,-14.246 9.88,-10.637 14.63,-26.211 14.45,-45.215 h -75.81 c 1.71,-17.473 11.02,-29.25 27.93,-29.25 11.59,0 19.19,4.933 22.42,13.293 h 23.55 c -5.13,-18.235 -21.08,-31.719 -46.16,-31.719 -32.48,0 -51.67,23.738 -51.67,53.562"
         style="fill:#231f20;fill-opacity:1;fill-rule:nonzero;stroke:none"
         transform="matrix(0.13333333,0,0,-0.13333333,0,122.25333)" />
      <path
         id="path24"
         d="m 4582.03,351.953 h 0.58 c 6.65,11.406 17.1,17.481 31.53,17.481 22.04,0 34.95,-13.301 34.95,-35.332 v -68.77 h -24.12 v 64.777 c 0,12.157 -7.03,19.375 -19.37,19.375 -13.5,0 -22.99,-10.254 -22.99,-24.687 v -59.465 h -24.13 v 101.445 h 23.55 v -14.824"
         style="fill:#231f20;fill-opacity:1;fill-rule:nonzero;stroke:none"
         transform="matrix(0.13333333,0,0,-0.13333333,0,122.25333)" />
      <path
         id="path25"
         d="m 4716.74,411.992 h 28.49 l -19.95,-29.258 h -18.61 z m -26.22,-86.824 h 50.53 c -0.95,16.719 -9.88,26.785 -24.51,26.785 -15.95,0 -23.93,-10.82 -26.02,-26.785 z m -24.32,-9.309 c 0,30.403 20.33,53.575 50.34,53.575 15.01,0 26.41,-5.125 34.95,-14.246 9.89,-10.637 14.63,-26.211 14.45,-45.215 h -75.8 c 1.71,-17.473 11.01,-29.25 27.93,-29.25 11.58,0 19.19,4.933 22.41,13.293 h 23.55 c -5.12,-18.235 -21.08,-31.719 -46.16,-31.719 -32.48,0 -51.67,23.738 -51.67,53.562"
         style="fill:#231f20;fill-opacity:1;fill-rule:nonzero;stroke:none"
         transform="matrix(0.13333333,0,0,-0.13333333,0,122.25333)" />
      <path
         id="path26"
         d="m 4806.09,348.535 h 0.57 c 6.47,13.106 16.15,19.758 29.07,19.758 2.85,0 5.13,-0.383 6.46,-0.949 v -21.66 h -0.76 c -2.09,0.578 -4.18,0.761 -6.65,0.761 -15.96,0.196 -27.92,-10.632 -27.92,-30.207 v -50.906 h -24.14 v 101.445 h 23.37 v -18.242"
         style="fill:#231f20;fill-opacity:1;fill-rule:nonzero;stroke:none"
         transform="matrix(0.13333333,0,0,-0.13333333,0,122.25333)" />
      <path
         id="path27"
         d="m 4918.19,302.188 v 15 c -4.75,-3.036 -12.35,-5.125 -19.75,-6.641 -15.01,-2.852 -23.37,-5.891 -23.37,-17.102 0,-10.828 8.16,-14.05 17.48,-14.05 16.52,0 25.64,11.398 25.64,22.793 z m 3.04,-36.856 c -1.71,2.277 -2.85,6.27 -3.42,13.106 h -0.38 c -6.65,-8.926 -15.77,-15.575 -31.91,-15.575 -19.76,0 -34.58,10.262 -34.58,30.02 0,22.976 17.48,28.301 41.61,31.336 16.72,2.09 25.07,4.758 25.07,13.867 0,8.937 -6.08,14.629 -18.24,14.629 -13.68,0 -20.13,-6.27 -20.7,-16.336 h -22.8 c 0.58,17.281 14.63,33.055 43.31,33.055 11.59,0 20.52,-1.524 27.17,-5.887 9.68,-5.891 14.44,-15.391 14.44,-28.879 v -53.379 c 0,-8.359 1.51,-12.723 3.8,-14.246 v -1.711 h -23.37"
         style="fill:#231f20;fill-opacity:1;fill-rule:nonzero;stroke:none"
         transform="matrix(0.13333333,0,0,-0.13333333,0,122.25333)" />
      <path
         id="path28"
         d="m 4963.73,406.672 h 24.32 v -141.34 h -24.32 v 141.34"
         style="fill:#231f20;fill-opacity:1;fill-rule:nonzero;stroke:none"
         transform="matrix(0.13333333,0,0,-0.13333333,0,122.25333)" />
      <path
         id="path29"
         d="m 5010.85,328.02 h 53.19 v -21.27 h -53.19 v 21.27"
         style="fill:#231f20;fill-opacity:1;fill-rule:nonzero;stroke:none"
         transform="matrix(0.13333333,0,0,-0.13333333,0,122.25333)" />
      <path
         id="path30"
         d="m 5192.86,284.707 h -0.76 c -9.12,-15.383 -24.32,-22.605 -41.98,-22.605 -19.95,0 -36.48,7.41 -48.07,20.136 -12.16,13.114 -18.61,31.348 -18.61,53.192 0,22.988 7.6,42.55 21.46,56.047 11.4,11.394 26.79,17.847 47.11,17.847 34.58,0 54.72,-18.426 59.85,-45.015 h -26.61 c -3.79,13.101 -14.05,22.988 -32.86,22.988 -28.68,0 -42.18,-22.609 -42.18,-51.867 0,-30.203 16.92,-51.289 42.18,-51.289 23.56,0 36.48,16.14 36.48,34.187 v 1.711 h -34.19 v 20.52 h 59.45 v -75.227 h -17.67 l -3.6,19.375"
         style="fill:#231f20;fill-opacity:1;fill-rule:nonzero;stroke:none"
         transform="matrix(0.13333333,0,0,-0.13333333,0,122.25333)" />
      <path
         id="path31"
         d="m 5304,265.332 v 14.434 h -0.38 c -7.4,-11.2 -16.14,-17.09 -30.58,-17.09 -22.23,0 -35.15,13.672 -35.15,35.715 v 68.386 h 24.13 v -64.968 c 0,-12.161 6.84,-18.996 19,-18.996 13.68,0 22.42,10.253 22.42,24.503 v 59.461 h 23.93 V 265.332 H 5304"
         style="fill:#231f20;fill-opacity:1;fill-rule:nonzero;stroke:none"
         transform="matrix(0.13333333,0,0,-0.13333333,0,122.25333)" />
      <path
         id="path32"
         d="m 5351.4,366.777 h 24.13 V 265.332 h -24.13 z m -0.38,39.895 h 24.69 v -23.371 h -24.69 v 23.371"
         style="fill:#231f20;fill-opacity:1;fill-rule:nonzero;stroke:none"
         transform="matrix(0.13333333,0,0,-0.13333333,0,122.25333)" />
      <path
         id="path33"
         d="m 5391.68,296.484 h 23.17 c 2.09,-12.16 11.21,-17.285 24.13,-17.285 13.49,0 19.56,5.703 19.56,13.867 0,10.071 -10.44,11.973 -26.21,15.008 -18.99,3.617 -37.05,8.547 -37.05,31.156 0,19.188 16.34,30.204 40.09,30.204 27.17,0 40.47,-12.157 42.94,-29.825 h -22.99 c -1.71,8.926 -8.55,13.489 -20.13,13.489 -11.41,0 -17.1,-5.129 -17.1,-12.16 0,-9.122 10.63,-10.45 25.83,-13.489 19.19,-3.609 38.19,-7.976 38.19,-32.859 0,-21.277 -18.24,-32.488 -43.32,-32.488 -29.06,0 -45.6,13.867 -47.11,34.382"
         style="fill:#231f20;fill-opacity:1;fill-rule:nonzero;stroke:none"
         transform="matrix(0.13333333,0,0,-0.13333333,0,122.25333)" />
      <path
         id="path34"
         d="m 5562.48,302.188 v 15 c -4.76,-3.036 -12.35,-5.125 -19.76,-6.641 -15.01,-2.852 -23.36,-5.891 -23.36,-17.102 0,-10.828 8.16,-14.05 17.48,-14.05 16.52,0 25.64,11.398 25.64,22.793 z m 3.04,-36.856 c -1.71,2.277 -2.85,6.27 -3.42,13.106 h -0.38 c -6.65,-8.926 -15.77,-15.575 -31.92,-15.575 -19.75,0 -34.58,10.262 -34.58,30.02 0,22.976 17.49,28.301 41.62,31.336 16.71,2.09 25.06,4.758 25.06,13.867 0,8.937 -6.07,14.629 -18.23,14.629 -13.68,0 -20.13,-6.27 -20.7,-16.336 h -22.8 c 0.57,17.281 14.62,33.055 43.32,33.055 11.58,0 20.5,-1.524 27.15,-5.887 9.69,-5.891 14.45,-15.391 14.45,-28.879 v -53.379 c 0,-8.359 1.51,-12.723 3.8,-14.246 v -1.711 h -23.37"
         style="fill:#231f20;fill-opacity:1;fill-rule:nonzero;stroke:none"
         transform="matrix(0.13333333,0,0,-0.13333333,0,122.25333)" />
      <path
         id="path35"
         d="m 5631.64,351.953 h 0.58 c 6.65,11.406 17.1,17.481 31.53,17.481 22.04,0 34.95,-13.301 34.95,-35.332 v -68.77 h -24.12 v 64.777 c 0,12.157 -7.03,19.375 -19.37,19.375 -13.5,0 -22.99,-10.254 -22.99,-24.687 v -59.465 h -24.13 v 101.445 h 23.55 v -14.824"
         style="fill:#231f20;fill-opacity:1;fill-rule:nonzero;stroke:none"
         transform="matrix(0.13333333,0,0,-0.13333333,0,122.25333)" />
      <path
         id="path36"
         d="m 5795.95,357.844 h -31.35 v 16.719 c 18.61,0.574 33.81,8.171 36.86,27.167 h 19.56 V 265.332 h -25.07 v 92.512"
         style="fill:#231f20;fill-opacity:1;fill-rule:nonzero;stroke:none"
         transform="matrix(0.13333333,0,0,-0.13333333,0,122.25333)" />
      <path
         id="path37"
         d="m 3568.53,105.625 c 0,41.984 26.22,73.699 68.2,73.699 16.14,0 29.44,-4.168 39.13,-11.582 11.4,-8.922 18.24,-21.461 19.95,-36.472 h -26.22 c -2.47,15.195 -14.25,25.832 -33.06,25.832 -26.78,0 -41.22,-22.032 -41.22,-51.477 0,-29.8242 16.34,-51.1016 41.42,-51.1016 21.08,0 32.67,14.0508 34.19,31.1524 h 26.4 c -0.56,-14.25 -7.21,-28.1172 -17.09,-37.8047 -10.44,-10.4492 -24.89,-15.5742 -43.7,-15.5742 -41.03,0 -68,30.9648 -68,73.3281"
         style="fill:#231f20;fill-opacity:1;fill-rule:nonzero;stroke:none"
         transform="matrix(0.13333333,0,0,-0.13333333,0,122.25333)" />
      <path
         id="path38"
         d="m 3717.87,176.672 h 26.21 v -56.801 h 62.5 v 56.801 h 26.41 V 35.332 h -26.41 v 62.6953 h -62.5 V 35.332 h -26.21 v 141.34"
         style="fill:#231f20;fill-opacity:1;fill-rule:nonzero;stroke:none"
         transform="matrix(0.13333333,0,0,-0.13333333,0,122.25333)" />
      <path
         id="path39"
         d="m 3893.93,95.9375 h 148.23 V 75.2266 h -148.23 v 20.7109"
         style="fill:#231f20;fill-opacity:1;fill-rule:nonzero;stroke:none"
         transform="matrix(0.13333333,0,0,-0.13333333,0,122.25333)" />
      <path
         id="path40"
         d="m 4133.99,127.852 h -31.34 v 16.718 c 18.61,0.567 33.81,8.164 36.85,27.16 h 19.56 V 35.332 h -25.07 v 92.52"
         style="fill:#231f20;fill-opacity:1;fill-rule:nonzero;stroke:none"
         transform="matrix(0.13333333,0,0,-0.13333333,0,122.25333)" />
      <path
         id="path41"
         d="m 4196.11,35.332 c 2.47,48.0664 27.75,92.141 54.15,114.363 v 0.383 c -2.85,-0.195 -5.7,-0.383 -8.93,-0.574 -5.31,-0.188 -12.54,-0.383 -19.94,-0.383 h -44.08 v 21.477 h 97.46 v -19.571 c -25.84,-24.316 -50.16,-65.5387 -52.25,-115.695 h -26.41"
         style="fill:#231f20;fill-opacity:1;fill-rule:nonzero;stroke:none"
         transform="matrix(0.13333333,0,0,-0.13333333,0,122.25333)" />
      <path
         id="path42"
         d="m 4370.14,102.961 c 0,30.398 -9.32,50.535 -30.4,50.535 -20.9,0 -30.39,-19.949 -30.39,-50.535 0,-30.3907 9.49,-50.3438 30.39,-50.3438 21.46,0 30.4,19.375 30.4,50.3438 z m -86.63,0 c 0,43.32 22.79,70.672 56.23,70.672 34.2,0 56.23,-27.168 56.23,-70.672 0,-43.1251 -21.47,-70.8594 -56.42,-70.8594 -34.01,0 -56.04,27.7343 -56.04,70.8594"
         style="fill:#231f20;fill-opacity:1;fill-rule:nonzero;stroke:none"
         transform="matrix(0.13333333,0,0,-0.13333333,0,122.25333)" />
      <path
         id="path43"
         d="m 4499.72,102.961 c 0,30.398 -9.32,50.535 -30.4,50.535 -20.9,0 -30.39,-19.949 -30.39,-50.535 0,-30.3907 9.49,-50.3438 30.39,-50.3438 21.46,0 30.4,19.375 30.4,50.3438 z m -86.63,0 c 0,43.32 22.79,70.672 56.23,70.672 34.2,0 56.23,-27.168 56.23,-70.672 0,-43.1251 -21.47,-70.8594 -56.42,-70.8594 -34,0 -56.04,27.7343 -56.04,70.8594"
         style="fill:#231f20;fill-opacity:1;fill-rule:nonzero;stroke:none"
         transform="matrix(0.13333333,0,0,-0.13333333,0,122.25333)" />
      <path
         id="path44"
         d="m 4596.88,176.672 h 100.31 v -22.609 h -74.09 v -36.282 h 61.74 V 95.9375 H 4623.1 V 35.332 h -26.22 v 141.34"
         style="fill:#231f20;fill-opacity:1;fill-rule:nonzero;stroke:none"
         transform="matrix(0.13333333,0,0,-0.13333333,0,122.25333)" />
      <path
         id="path45"
         d="m 4729.87,118.535 h 0.57 c 6.46,13.117 16.15,19.766 29.07,19.766 2.84,0 5.13,-0.379 6.46,-0.957 v -21.649 h -0.76 c -2.09,0.567 -4.18,0.75 -6.66,0.75 -15.95,0.196 -27.92,-10.632 -27.92,-30.2067 V 35.332 h -24.13 v 101.445 h 23.37 v -18.242"
         style="fill:#231f20;fill-opacity:1;fill-rule:nonzero;stroke:none"
         transform="matrix(0.13333333,0,0,-0.13333333,0,122.25333)" />
      <path
         id="path46"
         d="m 4779.91,136.777 h 24.13 V 35.332 h -24.13 z m -0.38,39.895 h 24.7 v -23.371 h -24.7 v 23.371"
         style="fill:#231f20;fill-opacity:1;fill-rule:nonzero;stroke:none"
         transform="matrix(0.13333333,0,0,-0.13333333,0,122.25333)" />
      <path
         id="path47"
         d="m 4900.74,86.0547 c 0,19.9533 -8.16,34.5703 -24.31,34.5703 -18.43,0 -26.78,-15.574 -26.78,-34.7578 0,-19.7617 9.31,-34.0117 26.78,-34.0117 16.15,0 24.31,13.8672 24.31,34.1992 z M 4850.4,49.9609 h -0.57 V 35.332 h -23.37 v 141.34 h 24.14 v -33.438 c 0,-8.164 -0.2,-16.144 -0.77,-21.464 h 0.57 c 6.65,10.64 16.91,17.664 31.35,17.664 26.02,0 43.5,-21.082 43.5,-53.5668 0,-33.0547 -16.9,-53.7656 -43.69,-53.7656 -13.68,0 -25.08,5.7031 -31.16,17.8593"
         style="fill:#231f20;fill-opacity:1;fill-rule:nonzero;stroke:none"
         transform="matrix(0.13333333,0,0,-0.13333333,0,122.25333)" />
      <path
         id="path48"
         d="m 5016.26,85.8672 c 0,20.5118 -9.69,35.7148 -27.17,35.7148 -17.85,0 -27.17,-15.203 -27.17,-35.7148 0,-20.332 9.32,-35.3399 27.17,-35.3399 17.48,0 27.17,15.0079 27.17,35.3399 z m -78.84,0 c 0,30.3948 20.52,53.5668 51.87,53.5668 31.34,0 51.48,-23.172 51.48,-53.5668 0,-29.832 -20.14,-53.5703 -51.48,-53.5703 -31.35,0 -51.87,23.7383 -51.87,53.5703"
         style="fill:#231f20;fill-opacity:1;fill-rule:nonzero;stroke:none"
         transform="matrix(0.13333333,0,0,-0.13333333,0,122.25333)" />
      <path
         id="path49"
         d="m 5123.6,35.332 v 14.4336 h -0.38 c -7.4,-11.1992 -16.14,-17.0898 -30.58,-17.0898 -22.23,0 -35.15,13.6719 -35.15,35.7148 v 68.3864 h 24.13 V 71.8086 c 0,-12.1602 6.84,-18.9961 19,-18.9961 13.68,0 22.42,10.2539 22.42,24.5039 v 59.4606 h 23.93 V 35.332 h -23.37"
         style="fill:#231f20;fill-opacity:1;fill-rule:nonzero;stroke:none"
         transform="matrix(0.13333333,0,0,-0.13333333,0,122.25333)" />
      <path
         id="path50"
         d="m 5193.36,118.535 h 0.57 c 6.46,13.117 16.15,19.766 29.07,19.766 2.85,0 5.13,-0.379 6.45,-0.957 v -21.649 h -0.76 c -2.09,0.567 -4.18,0.75 -6.65,0.75 -15.96,0.196 -27.92,-10.632 -27.92,-30.2067 V 35.332 h -24.13 v 101.445 h 23.37 v -18.242"
         style="fill:#231f20;fill-opacity:1;fill-rule:nonzero;stroke:none"
         transform="matrix(0.13333333,0,0,-0.13333333,0,122.25333)" />
      <path
         id="path51"
         d="m 5313.43,90.4219 c 0,18.2381 -8.17,30.2031 -25.65,30.2031 -15.95,0 -24.5,-11.777 -24.5,-30.5859 0,-18.8008 8.74,-30.5743 24.7,-30.5743 18.23,0 25.45,13.2891 25.45,30.9571 z M 5242,30.2031 h 23.18 c 1.7,-8.3554 9.31,-12.5351 22.8,-12.5351 16.34,0 24.5,7.4101 24.5,22.2265 v 2.4688 c 0,5.5078 0.2,10.4492 0.38,14.0547 h -0.57 c -6.26,-10.0703 -15,-15.5782 -28.69,-15.5782 -24.88,0 -44.25,18.625 -44.25,48.8282 0,30.391 18.61,49.766 42.93,49.766 14.06,0 24.13,-5.313 30.01,-15.762 h 0.39 v 13.105 h 23.36 V 41.9844 c 0,-14.4453 -4.56,-24.6992 -12.73,-31.7305 C 5314.95,3.22266 5302.79,0 5288.36,0 5261,0 5244.47,11.0156 5242,30.2031"
         style="fill:#231f20;fill-opacity:1;fill-rule:nonzero;stroke:none"
         transform="matrix(0.13333333,0,0,-0.13333333,0,122.25333)" />
      <path
         id="path52"
         d="m 1827.09,286.125 23.55,134.441 c 6.58,23.258 41.72,23.258 48.3,0 l 24.5,-133.73 c 4,-18.012 -9.6,-35.133 -28.04,-35.313 l -39.65,-0.476 c -18.59,-0.192 -32.54,16.906 -28.66,35.078 z m -129.46,369.262 c -19.68,0 -24.36,-4.961 -29.99,-20.453 L 1450.18,42.0469 c -3.55,-11.5703 -0.11,-19.8828 16.11,-19.8711 h 283.14 c 7.67,0 14.29,5.1797 16.48,12.4687 l 14.07,49.7305 c 6.34,23.73 26.37,43.852 76.95,43.852 l 35.8,0.058 c 50.76,0 70.44,-16.09 76.93,-44.1209 l 14,-49.5196 c 2.24,-7.1211 8.82,-12.4687 16.49,-12.4687 l 282.22,0.1601 c 8.71,0 17.95,5.918 13.53,19.711 L 2081.94,634.934 c -5.07,14.742 -8.73,20.371 -29.99,20.453 h -354.32 v 0"
         style="fill:#231f20;fill-opacity:1;fill-rule:nonzero;stroke:none"
         transform="matrix(0.13333333,0,0,-0.13333333,0,122.25333)" />
      <path
         id="path53"
         d="m 1386.58,22.0469 h -258.9 c -11.4,0 -20.64,9.2383 -20.64,20.6367 V 635.613 c 0,11.403 9.24,20.641 20.64,20.641 h 258.9 c 11.4,0 20.64,-9.238 20.64,-20.641 V 42.6836 c 0,-11.3984 -9.24,-20.6367 -20.64,-20.6367 v 0"
         style="fill:#231f20;fill-opacity:1;fill-rule:nonzero;stroke:none"
         transform="matrix(0.13333333,0,0,-0.13333333,0,122.25333)" />
      <path
         id="path54"
         d="m 565.641,23.5859 c 21.3,0 32.648,6.461 39.55,15.8907 l 60.028,77.1284 c 19.832,30.86 90.871,15.54 82.191,-24.0503 -1.781,-8.1094 -3.539,-15.7695 -5.269,-23.0977 -6,-25.4531 10.5,-46.2617 36.64,-46.2617 64.348,0 163.321,0 211.199,0 10.95,0 19.78,8.8789 19.78,19.8203 V 637.094 c 0,11.051 -8.95,20.004 -19.99,20.004 H 738.469 c -13.5,0 -21.258,-5.192 -27.778,-13.985 L 551.73,393.953 c -21.5,-31.539 -70.46,-31.457 -93.808,0 l -164.063,249 c -6.519,8.805 -9.98,13.981 -27.781,13.981 H 20 c -11.03906,0 -20,-8.95 -20,-19.989 L 0,43.0352 C 0,31.9961 8.96094,23.0469 20,23.0469 h 211.27 c 26.421,0 42.921,20.9687 36.652,46.6367 -1.813,7.3828 -3.703,14.9727 -5.57,22.7695 -9.461,39.2809 62.367,54.8519 82.187,24.0119 L 398.988,48.0078 C 412.699,31.1445 419.52,23.4336 444.129,23.4336 l 121.512,0.1523 v 0"
         style="fill:#231f20;fill-opacity:1;fill-rule:nonzero;stroke:none"
         transform="matrix(0.13333333,0,0,-0.13333333,0,122.25333)" />
      <path
         id="path55"
         d="m 2899.91,23.5859 c 21.31,0 32.66,6.461 39.56,15.8907 l 60.02,77.1284 c 19.84,30.86 90.88,15.54 82.2,-24.0503 -1.78,-8.1094 -3.55,-15.7695 -5.28,-23.0977 -6,-25.4531 10.5,-46.2617 36.65,-46.2617 64.35,0 163.31,0 211.2,0 10.94,0 19.78,8.8789 19.78,19.8203 V 637.094 c 0,11.051 -8.95,20.004 -20,20.004 h -251.3 c -13.49,0 -21.25,-5.192 -27.78,-13.985 l -158.95,-249.16 c -21.5,-31.539 -70.46,-31.457 -93.81,0 l -164.06,249 c -6.53,8.805 -9.98,13.981 -27.79,13.981 h -246.08 c -11.04,0 -19.99,-8.95 -19.99,-19.989 V 43.0352 c 0,-11.0391 8.95,-19.9883 19.99,-19.9883 h 211.27 c 26.42,0 42.93,20.9687 36.65,46.6367 -1.8,7.3828 -3.69,14.9727 -5.57,22.7695 -9.45,39.2809 62.37,54.8519 82.2,24.0119 l 54.45,-68.4572 c 13.71,-16.8633 20.53,-24.5742 45.13,-24.5742 l 121.51,0.1523 v 0"
         style="fill:#231f20;fill-opacity:1;fill-rule:nonzero;stroke:none"
         transform="matrix(0.13333333,0,0,-0.13333333,0,122.25333)" />
      <path
         id="path56"
         d="m 1306.47,702.395 h -98.69 c -59.22,0 -112.46,48.011 -112.46,107.242 v 0.008 c 0,59.23 53.24,107.242 112.46,107.242 h 98.69 c 59.23,0 112.47,-48.012 112.47,-107.242 v -0.008 c 0,-59.231 -53.24,-107.242 -112.47,-107.242 v 0"
         style="fill:#231f20;fill-opacity:1;fill-rule:nonzero;stroke:none"
         transform="matrix(0.13333333,0,0,-0.13333333,0,122.25333)" />
    </g>
  </g>
</svg>
