<?xml version="1.0" encoding="UTF-8"?><svg id="Calque_1" xmlns="http://www.w3.org/2000/svg" width="218.72mm" height="56.52mm" xmlns:xlink="http://www.w3.org/1999/xlink" viewBox="0 0 620 160.2"><defs><style>.cls-1{fill:none;}.cls-2{clip-path:url(#clippath);}</style><clipPath id="clippath"><rect class="cls-1" width="620" height="160.2"/></clipPath></defs><g class="cls-2"><path d="M338.76,112.92l4.37-24.07c1.22-4.16,7.73-4.16,8.95,0l4.54,23.94c.74,3.22-1.78,6.29-5.2,6.32l-7.35.09c-3.45.03-6.03-3.03-5.31-6.28ZM314.75,46.81c-3.65,0-4.52.89-5.56,3.66l-40.32,106.15c-.66,2.07-.02,3.56,2.99,3.56h52.5c1.42,0,2.65-.93,3.06-2.23l2.61-8.9c1.18-4.25,4.89-7.85,14.27-7.85h6.64c9.41,0,13.06,2.87,14.26,7.89l2.6,8.86c.42,1.28,1.64,2.23,3.06,2.23l52.33-.03c1.62,0,3.33-1.06,2.51-3.53l-39.67-106.15c-.94-2.64-1.62-3.65-5.56-3.66h-65.69Z"/><path d="M257.08,160.2h-48c-2.11,0-3.83-1.65-3.83-3.7V50.35c0-2.04,1.71-3.7,3.83-3.7h48c2.11,0,3.83,1.65,3.83,3.7v106.16c0,2.04-1.71,3.7-3.83,3.7Z"/><path d="M104.87,159.93c3.95,0,6.05-1.16,7.33-2.85l11.13-13.81c3.68-5.53,16.85-2.78,15.24,4.31-.33,1.45-.66,2.82-.98,4.14-1.11,4.56,1.95,8.28,6.79,8.28h39.16c2.03,0,3.67-1.59,3.67-3.55V50.08c0-1.98-1.66-3.58-3.71-3.58h-46.59c-2.5,0-3.94.93-5.15,2.5l-29.47,44.61c-3.99,5.65-13.06,5.63-17.39,0l-30.42-44.58c-1.21-1.58-1.85-2.5-5.15-2.5H3.71c-2.05,0-3.71,1.6-3.71,3.58v106.33c0,1.98,1.66,3.58,3.71,3.58h39.17c4.9,0,7.96-3.75,6.8-8.35-.34-1.32-.69-2.68-1.03-4.08-1.75-7.03,11.56-9.82,15.24-4.3l10.1,12.26c2.54,3.02,3.81,4.4,8.37,4.4l22.53-.03Z"/><path d="M537.66,159.93c3.95,0,6.05-1.16,7.33-2.85l11.13-13.81c3.68-5.53,16.85-2.78,15.24,4.31-.33,1.45-.66,2.82-.98,4.14-1.11,4.56,1.95,8.28,6.79,8.28h39.16c2.03,0,3.67-1.59,3.67-3.55V50.08c0-1.98-1.66-3.58-3.71-3.58h-46.59c-2.5,0-3.94.93-5.15,2.5l-29.47,44.61c-3.99,5.65-13.06,5.63-17.39,0l-30.42-44.58c-1.21-1.58-1.85-2.5-5.15-2.5h-45.62c-2.05,0-3.71,1.6-3.71,3.58v106.33c0,1.98,1.66,3.58,3.71,3.58h39.17c4.9,0,7.96-3.75,6.8-8.35-.33-1.32-.68-2.68-1.03-4.08-1.75-7.03,11.56-9.82,15.24-4.3l10.1,12.26c2.54,3.02,3.81,4.4,8.37,4.4l22.53-.03Z"/><path d="M242.23,38.39h-18.3c-10.98,0-20.85-8.6-20.85-19.2h0C203.08,8.59,212.95,0,223.93,0h18.3c10.98,0,20.85,8.6,20.85,19.2h0c0,10.61-9.87,19.2-20.85,19.2Z"/></g></svg>